<?xml version="1.0" encoding="utf-8"?>
<!-- Generator: Adobe Illustrator 19.2.1, SVG Export Plug-In . SVG Version: 6.00 Build 0)  -->
<!DOCTYPE svg PUBLIC "-//W3C//DTD SVG 1.1//EN" "http://www.w3.org/Graphics/SVG/1.1/DTD/svg11.dtd">
<svg version="1.1" id="Layer_1" xmlns="http://www.w3.org/2000/svg" xmlns:xlink="http://www.w3.org/1999/xlink" x="0px" y="0px"
	 viewBox="0 0 1455.9 170.5" style="enable-background:new 0 0 1455.9 170.5;" xml:space="preserve">
<style type="text/css">
	.st0{fill:#595A5C;}
</style>
<g>
	<g>
		<path class="st0" d="M0,2.8h3.7v24.5h13.7v2.9H0V2.8z"/>
		<path class="st0" d="M32.4,28.7c-0.7,0.6-1.6,1.1-2.5,1.6c-0.9,0.5-2.1,0.7-3.5,0.7c-1.9,0-3.4-0.5-4.5-1.5
			c-1.1-1-1.7-2.6-1.7-4.7c0-1.1,0.2-2.1,0.6-2.8c0.4-0.8,0.9-1.4,1.7-1.9c0.7-0.5,1.6-0.9,2.6-1.1c1-0.2,2.1-0.3,3.3-0.3h3.3v-1
			c0-1.6-0.2-2.7-0.7-3.4c-0.5-0.7-1.4-1-2.8-1c-1.8,0-3.7,0.4-5.6,1.1L21.5,12c0.7-0.3,1.7-0.6,2.8-0.9c1.1-0.3,2.5-0.5,4.1-0.5
			c1.5,0,2.7,0.2,3.5,0.6c0.9,0.4,1.5,1,2,1.7c0.4,0.7,0.7,1.5,0.9,2.5c0.1,1,0.2,2,0.2,3.1v8.2l1.6,2.4l-2.5,1.9L32.4,28.7z
			 M31.6,21h-3c-1.7,0-3,0.3-3.7,0.8c-0.7,0.5-1.1,1.5-1.1,2.8c0,1.2,0.3,2.2,0.8,2.8c0.5,0.6,1.3,0.9,2.4,0.9
			c1.1,0,2.1-0.2,2.9-0.6s1.4-0.8,1.8-1.3V21z"/>
		<path class="st0" d="M48.6,15.2l-1.5-3.2l2.8-1.5l1.6,2.5c1.1-0.9,2.2-1.5,3.2-1.9c1-0.4,2.1-0.6,3.2-0.6c1.3,0,2.3,0.2,3.2,0.6
			c0.8,0.4,1.5,0.9,2,1.6c0.5,0.7,0.9,1.5,1.1,2.4c0.2,0.9,0.3,1.8,0.3,2.8v12.3H61V18.1c0-1.6-0.3-2.7-1-3.5
			c-0.6-0.7-1.6-1.1-2.9-1.1c-1,0-1.9,0.2-2.8,0.5s-1.6,0.8-2.2,1.3v14.9h-3.5V15.2z"/>
		<path class="st0" d="M70.1,11.2h3.5v12.4c0,1.5,0.3,2.6,0.9,3.5c0.6,0.8,1.5,1.2,2.9,1.2c1.1,0,2-0.2,2.7-0.5s1.3-0.8,2-1.3V11.2
			h3.5v15.4l1.6,2.3l-2.5,1.9l-1.7-2.1c-1,0.8-2,1.3-2.9,1.7c-0.9,0.3-2,0.5-3.1,0.5c-1.4,0-2.5-0.2-3.4-0.6c-0.9-0.4-1.5-0.9-2-1.6
			c-0.5-0.7-0.8-1.5-1-2.4c-0.2-0.9-0.3-1.8-0.3-2.8V11.2z"/>
		<path class="st0" d="M106.2,29.5c-0.6,0.4-1.5,0.7-2.6,1s-2.4,0.5-3.6,0.5c-1.7,0-3.2-0.2-4.4-0.7c-1.2-0.5-2.1-1.2-2.8-2.1
			s-1.2-2-1.5-3.2c-0.3-1.3-0.4-2.6-0.4-4.2c0-1.4,0.2-2.7,0.5-4c0.3-1.2,0.8-2.3,1.5-3.2c0.7-0.9,1.6-1.7,2.6-2.2
			c1.1-0.5,2.3-0.8,3.8-0.8c1.4,0,2.6,0.3,3.6,0.9c1,0.6,1.8,1.3,2.4,2.3s1,2,1.3,3.2c0.3,1.2,0.4,2.3,0.4,3.5l-1.3,1.3H94.4
			c0.1,2.2,0.6,3.9,1.5,5c0.9,1.1,2.2,1.6,4.1,1.6c1,0,1.9-0.1,2.7-0.3c0.9-0.2,1.7-0.5,2.4-0.8L106.2,29.5z M103.3,19.2
			c0-2-0.4-3.6-1.1-4.6c-0.7-1-1.8-1.6-3.3-1.6c-1.6,0-2.7,0.5-3.3,1.6c-0.7,1.1-1.1,2.6-1.2,4.5H103.3z"/>
		<path class="st0" d="M109.5,11.4l3.6-0.6l5,16.4c0.1,0.5,0.2,0.8,0.4,1c0.1,0.2,0.3,0.3,0.6,0.3c0.3,0,0.5-0.1,0.6-0.3
			c0.1-0.2,0.2-0.5,0.4-1l4.9-16.4l3,0.6L123,27.1c-0.4,1.2-0.9,2.2-1.5,2.9c-0.6,0.7-1.5,1-2.5,1c-0.7,0-1.3-0.1-1.8-0.2
			c-0.5-0.2-0.9-0.4-1.3-0.7c-0.3-0.3-0.6-0.7-0.9-1.2c-0.2-0.5-0.4-1.1-0.6-1.7L109.5,11.4z"/>
		<path class="st0" d="M142.3,28.7c-0.7,0.6-1.6,1.1-2.5,1.6c-0.9,0.5-2.1,0.7-3.5,0.7c-1.9,0-3.4-0.5-4.5-1.5
			c-1.1-1-1.7-2.6-1.7-4.7c0-1.1,0.2-2.1,0.6-2.8c0.4-0.8,0.9-1.4,1.7-1.9c0.7-0.5,1.6-0.9,2.6-1.1c1-0.2,2.1-0.3,3.3-0.3h3.3v-1
			c0-1.6-0.2-2.7-0.7-3.4c-0.5-0.7-1.4-1-2.8-1c-1.8,0-3.7,0.4-5.6,1.1l-0.9-2.4c0.7-0.3,1.7-0.6,2.8-0.9c1.1-0.3,2.5-0.5,4.1-0.5
			c1.5,0,2.7,0.2,3.5,0.6c0.9,0.4,1.5,1,2,1.7c0.4,0.7,0.7,1.5,0.9,2.5c0.1,1,0.2,2,0.2,3.1v8.2l1.6,2.4l-2.5,1.9L142.3,28.7z
			 M141.5,21h-3c-1.7,0-3,0.3-3.7,0.8c-0.7,0.5-1.1,1.5-1.1,2.8c0,1.2,0.3,2.2,0.8,2.8c0.5,0.6,1.3,0.9,2.4,0.9
			c1.1,0,2.1-0.2,2.9-0.6s1.4-0.8,1.8-1.3V21z"/>
		<path class="st0" d="M176.7,7.6h-7.4v22.6h-6.1V7.6h-7.4V2.8h20.9V7.6z"/>
		<path class="st0" d="M175,20.6c0-1.6,0.2-3,0.6-4.3c0.4-1.3,1-2.4,1.8-3.3c0.8-0.9,1.8-1.6,2.9-2.1c1.2-0.5,2.5-0.7,4.1-0.7
			c3.1,0,5.5,0.9,6.9,2.7c1.5,1.8,2.2,4.3,2.2,7.6c0,1.6-0.2,3.1-0.6,4.4c-0.4,1.3-1,2.4-1.7,3.3c-0.8,0.9-1.8,1.6-3,2.1
			c-1.2,0.5-2.6,0.7-4.2,0.7c-1.7,0-3.1-0.2-4.3-0.7c-1.2-0.5-2.1-1.2-2.8-2.1c-0.7-0.9-1.2-2-1.6-3.3C175.1,23.5,175,22.1,175,20.6
			z M184.3,26.8c1.2,0,2-0.5,2.6-1.4c0.6-0.9,0.8-2.5,0.8-4.8c0-2.2-0.2-3.8-0.7-4.8c-0.5-1-1.3-1.5-2.6-1.5c-1.2,0-2.1,0.5-2.7,1.4
			s-0.9,2.6-0.9,4.8c0,2.2,0.3,3.7,0.8,4.7C182.2,26.3,183.1,26.8,184.3,26.8z"/>
		<path class="st0" d="M210.1,32c-0.2,0.9-0.5,1.7-0.9,2.5c-0.3,0.8-0.8,1.5-1.4,2.2c-0.6,0.6-1.3,1.1-2.3,1.5
			c-0.9,0.4-2.1,0.6-3.5,0.6c-1.1,0-2.2-0.1-3.2-0.3c-1-0.2-2-0.5-3.1-1.1l1.7-3.9c1.5,0.7,2.9,1.1,4.1,1.1c1.1,0,1.9-0.3,2.5-0.9
			c0.5-0.6,1-1.5,1.2-2.7l0.2-1h-0.9c-0.9,0-1.6-0.1-2.2-0.3c-0.6-0.2-1.1-0.4-1.5-0.8c-0.4-0.4-0.7-0.8-0.9-1.3
			c-0.2-0.5-0.5-1.1-0.6-1.7l-3.9-14.7l6-1l3.2,14.1c0.1,0.4,0.2,0.8,0.4,1c0.1,0.3,0.4,0.4,0.8,0.4h0.6l3.3-15.5l5.6,1.1L210.1,32z
			"/>
		<path class="st0" d="M217.3,20.6c0-1.6,0.2-3,0.6-4.3c0.4-1.3,1-2.4,1.8-3.3c0.8-0.9,1.8-1.6,2.9-2.1c1.2-0.5,2.5-0.7,4.1-0.7
			c3.1,0,5.5,0.9,6.9,2.7c1.5,1.8,2.2,4.3,2.2,7.6c0,1.6-0.2,3.1-0.6,4.4c-0.4,1.3-1,2.4-1.7,3.3c-0.8,0.9-1.8,1.6-3,2.1
			c-1.2,0.5-2.6,0.7-4.2,0.7c-1.7,0-3.1-0.2-4.3-0.7c-1.2-0.5-2.1-1.2-2.8-2.1c-0.7-0.9-1.2-2-1.6-3.3
			C217.4,23.5,217.3,22.1,217.3,20.6z M226.6,26.8c1.2,0,2-0.5,2.6-1.4c0.6-0.9,0.8-2.5,0.8-4.8c0-2.2-0.2-3.8-0.7-4.8
			c-0.5-1-1.3-1.5-2.6-1.5c-1.2,0-2.1,0.5-2.7,1.4s-0.9,2.6-0.9,4.8c0,2.2,0.3,3.7,0.8,4.7C224.5,26.3,225.4,26.8,226.6,26.8z"/>
		<path class="st0" d="M237.8,10.8h3.4V5.3h5.6v5.5h5.5v4.1h-5.5v7.9c0,0.7,0,1.3,0.1,1.8s0.1,0.9,0.3,1.2c0.1,0.3,0.4,0.5,0.6,0.7
			c0.3,0.2,0.7,0.2,1.2,0.2c0.6,0,1.1-0.1,1.6-0.2c0.5-0.2,1-0.3,1.4-0.6l1.3,3.6c-0.8,0.4-1.6,0.7-2.5,1c-0.9,0.3-1.9,0.5-2.9,0.5
			c-1.3,0-2.5-0.1-3.4-0.4c-0.9-0.3-1.6-0.7-2.1-1.3c-0.5-0.6-0.9-1.4-1.1-2.5c-0.2-1-0.3-2.3-0.3-3.8v-8.1h-3.2V10.8z"/>
		<path class="st0" d="M260.6,30.9c-1.9,0-3.3-0.5-4.4-1.6c-1-1.1-1.6-2.6-1.6-4.6c0-2.3,0.7-4,2.1-5c1.4-1,3.5-1.5,6.4-1.5h2.4
			v-0.7c0-1-0.2-1.8-0.6-2.4c-0.4-0.6-1.2-0.9-2.3-0.9c-1.1,0-2.2,0.1-3.1,0.3c-0.9,0.2-1.8,0.5-2.6,0.8l-1.5-3.7
			c1.1-0.5,2.3-0.9,3.7-1.2c1.4-0.3,2.8-0.4,4-0.4c1.4,0,2.7,0.1,3.6,0.4c1,0.3,1.8,0.8,2.4,1.4c0.6,0.7,1,1.5,1.3,2.5
			c0.3,1,0.4,2.3,0.4,3.8v7.7l1.3,2.7l-4.4,2.2l-1.7-2.5c-1,0.8-1.9,1.5-2.7,1.9C262.5,30.7,261.6,30.9,260.6,30.9z M262.6,26.8
			c0.5,0,1.1-0.1,1.6-0.4c0.6-0.3,1.1-0.6,1.4-1v-3.8h-2.4c-1,0-1.7,0.2-2.2,0.5s-0.8,1-0.8,2.1c0,1,0.2,1.6,0.6,2
			S261.8,26.8,262.6,26.8z"/>
		<path class="st0" d="M283.6,2.8h17.7v4.8h-11.6v6.5h8.6V19h-8.6v11.2h-6.1V2.8z"/>
		<path class="st0" d="M301.9,20.6c0-1.6,0.2-3,0.6-4.3c0.4-1.3,1-2.4,1.8-3.3c0.8-0.9,1.8-1.6,2.9-2.1c1.2-0.5,2.5-0.7,4.1-0.7
			c3.1,0,5.5,0.9,6.9,2.7c1.5,1.8,2.2,4.3,2.2,7.6c0,1.6-0.2,3.1-0.6,4.4c-0.4,1.3-1,2.4-1.7,3.3c-0.8,0.9-1.8,1.6-3,2.1
			c-1.2,0.5-2.6,0.7-4.2,0.7c-1.7,0-3.1-0.2-4.3-0.7c-1.2-0.5-2.1-1.2-2.8-2.1c-0.7-0.9-1.2-2-1.6-3.3
			C302,23.5,301.9,22.1,301.9,20.6z M311.2,26.8c1.2,0,2-0.5,2.6-1.4c0.6-0.9,0.8-2.5,0.8-4.8c0-2.2-0.2-3.8-0.7-4.8
			c-0.5-1-1.3-1.5-2.6-1.5c-1.2,0-2.1,0.5-2.7,1.4s-0.9,2.6-0.9,4.8c0,2.2,0.3,3.7,0.8,4.7C309.1,26.3,310,26.8,311.2,26.8z"/>
		<path class="st0" d="M336.5,16c-0.3-0.1-0.6-0.3-1-0.4c-0.4-0.1-0.9-0.2-1.6-0.2c-0.6,0-1.2,0.2-1.8,0.5c-0.6,0.3-1.2,0.8-1.7,1.4
			v12.9h-5.8V14.7h-2.4v-3.9h7.3l0.6,2.5c0.9-1,1.7-1.7,2.5-2.1c0.8-0.4,1.7-0.6,2.8-0.6c0.4,0,0.9,0,1.3,0.1c0.4,0,0.9,0.1,1.3,0.2
			L336.5,16z"/>
		<path class="st0" d="M338.7,10.8h3.4V5.3h5.6v5.5h5.5v4.1h-5.5v7.9c0,0.7,0,1.3,0.1,1.8s0.1,0.9,0.3,1.2c0.1,0.3,0.4,0.5,0.6,0.7
			c0.3,0.2,0.7,0.2,1.2,0.2c0.6,0,1.1-0.1,1.6-0.2c0.5-0.2,1-0.3,1.4-0.6l1.3,3.6c-0.8,0.4-1.6,0.7-2.5,1c-0.9,0.3-1.9,0.5-2.9,0.5
			c-1.3,0-2.5-0.1-3.4-0.4c-0.9-0.3-1.6-0.7-2.1-1.3c-0.5-0.6-0.9-1.4-1.1-2.5c-0.2-1-0.3-2.3-0.3-3.8v-8.1h-3.2V10.8z"/>
		<path class="st0" d="M373.9,26.1l1.3,2.7l-4.7,2.3l-1.7-2.4c-0.9,0.8-1.9,1.4-2.8,1.8s-1.8,0.5-2.7,0.5c-2.4,0-4.1-0.6-5.1-1.9
			c-1-1.2-1.5-3.1-1.5-5.5V10.8h5.8v11.7c0,1.4,0.2,2.4,0.6,3c0.4,0.6,1.1,0.8,2.1,0.8c0.6,0,1.2-0.1,1.7-0.3c0.5-0.2,1-0.5,1.3-0.9
			V10.8h5.8V26.1z"/>
		<path class="st0" d="M379,15.1l-1.1-2.9l4.4-2.1l2,2.8c1-0.9,2-1.6,2.9-2.1c0.9-0.4,1.9-0.6,3.1-0.6c1.3,0,2.4,0.2,3.3,0.6
			s1.5,0.9,2,1.7c0.5,0.7,0.8,1.6,1,2.6c0.2,1,0.2,2.1,0.2,3.2v12h-5.8V19c0-1.5-0.2-2.6-0.5-3.2c-0.4-0.7-1.1-1-2.2-1
			c-1.3,0-2.4,0.6-3.3,1.8v13.6H379V15.1z"/>
		<path class="st0" d="M410.5,26.8c1.1,0,2-0.1,2.8-0.2c0.8-0.2,1.7-0.5,2.5-0.9l1.7,3.6c-1.2,0.7-2.4,1.1-3.7,1.4
			c-1.3,0.2-2.6,0.3-4.1,0.3c-3.3,0-5.7-0.9-7.1-2.7c-1.4-1.8-2.1-4.3-2.1-7.7c0-1.5,0.2-3,0.6-4.2c0.4-1.3,1-2.4,1.7-3.3
			c0.8-0.9,1.7-1.6,2.9-2.1c1.2-0.5,2.5-0.8,4-0.8c1.5,0,2.7,0.2,3.8,0.7c1.1,0.5,1.9,1.2,2.6,2.1s1.2,2,1.5,3.3
			c0.3,1.3,0.5,2.8,0.5,4.4l-1.5,1.6h-10.3c0.2,1.6,0.6,2.7,1.3,3.4C408.4,26.4,409.3,26.8,410.5,26.8z M412.6,18.6
			c0-2.9-1-4.3-2.9-4.3c-1,0-1.8,0.3-2.4,0.9c-0.6,0.6-0.9,1.7-1,3.4H412.6z"/>
		<path class="st0" d="M434.1,16c-0.3-0.1-0.6-0.3-1-0.4c-0.4-0.1-0.9-0.2-1.6-0.2c-0.6,0-1.2,0.2-1.8,0.5c-0.6,0.3-1.2,0.8-1.7,1.4
			v12.9h-5.8V14.7h-2.4v-3.9h7.3l0.6,2.5c0.9-1,1.7-1.7,2.5-2.1c0.8-0.4,1.7-0.6,2.8-0.6c0.4,0,0.9,0,1.3,0.1c0.4,0,0.9,0.1,1.3,0.2
			L434.1,16z"/>
		<path class="st0" d="M446.3,4.8H444V2.3h5.9v27.9h-3.5V4.8z"/>
		<path class="st0" d="M455.6,11.2h3.5v12.4c0,1.5,0.3,2.6,0.9,3.5c0.6,0.8,1.5,1.2,2.9,1.2c1.1,0,2-0.2,2.7-0.5s1.3-0.8,2-1.3V11.2
			h3.5v15.4l1.6,2.3l-2.5,1.9l-1.7-2.1c-1,0.8-2,1.3-2.9,1.7c-0.9,0.3-2,0.5-3.1,0.5c-1.4,0-2.5-0.2-3.4-0.6c-0.9-0.4-1.5-0.9-2-1.6
			c-0.5-0.7-0.8-1.5-1-2.4c-0.2-0.9-0.3-1.8-0.3-2.8V11.2z"/>
		<path class="st0" d="M491.3,29.4c-0.7,0.4-1.5,0.7-2.6,1c-1,0.3-2.2,0.5-3.6,0.5c-1.7,0-3.2-0.2-4.3-0.7c-1.1-0.5-2.1-1.2-2.7-2.1
			c-0.7-0.9-1.2-1.9-1.5-3.2c-0.3-1.2-0.4-2.6-0.4-4.1c0-1.5,0.2-2.8,0.5-4.1c0.4-1.3,0.9-2.4,1.7-3.3c0.7-0.9,1.7-1.7,2.9-2.2
			c1.2-0.5,2.5-0.8,4.2-0.8c1.2,0,2.2,0.2,3.2,0.5c1,0.3,1.8,0.7,2.5,1.1l-1.1,2.4c-0.7-0.4-1.4-0.7-2.2-0.9
			c-0.8-0.2-1.6-0.4-2.6-0.4c-1.9,0-3.2,0.6-4.1,1.9s-1.3,3.2-1.3,5.8c0,1.1,0.1,2.2,0.3,3.1c0.2,0.9,0.5,1.7,0.9,2.3
			c0.4,0.6,1,1.1,1.7,1.5c0.7,0.3,1.6,0.5,2.6,0.5c0.8,0,1.6-0.1,2.3-0.2c0.7-0.2,1.5-0.5,2.5-0.9L491.3,29.4z"/>
		<path class="st0" d="M509.1,29.5c-0.6,0.4-1.5,0.7-2.6,1s-2.4,0.5-3.6,0.5c-1.7,0-3.2-0.2-4.4-0.7c-1.2-0.5-2.1-1.2-2.8-2.1
			s-1.2-2-1.5-3.2c-0.3-1.3-0.4-2.6-0.4-4.2c0-1.4,0.2-2.7,0.5-4c0.3-1.2,0.8-2.3,1.5-3.2c0.7-0.9,1.6-1.7,2.6-2.2
			c1.1-0.5,2.3-0.8,3.8-0.8c1.4,0,2.6,0.3,3.6,0.9c1,0.6,1.8,1.3,2.4,2.3c0.6,0.9,1,2,1.3,3.2c0.3,1.2,0.4,2.3,0.4,3.5l-1.3,1.3
			h-11.3c0.1,2.2,0.6,3.9,1.5,5c0.9,1.1,2.2,1.6,4.1,1.6c1,0,1.9-0.1,2.7-0.3c0.9-0.2,1.7-0.5,2.4-0.8L509.1,29.5z M506.3,19.2
			c0-2-0.4-3.6-1.1-4.6c-0.7-1-1.8-1.6-3.3-1.6c-1.6,0-2.7,0.5-3.3,1.6c-0.7,1.1-1.1,2.6-1.2,4.5H506.3z"/>
		<path class="st0" d="M521.8,11.2h3.5v12.4c0,1.5,0.3,2.6,0.9,3.5c0.6,0.8,1.5,1.2,2.9,1.2c1.1,0,2-0.2,2.7-0.5
			c0.7-0.4,1.3-0.8,2-1.3V11.2h3.5v15.4l1.6,2.3l-2.5,1.9l-1.7-2.1c-1,0.8-2,1.3-2.9,1.7c-1,0.3-2,0.5-3.1,0.5
			c-1.4,0-2.5-0.2-3.4-0.6s-1.5-0.9-2-1.6c-0.5-0.7-0.8-1.5-1-2.4c-0.2-0.9-0.3-1.8-0.3-2.8V11.2z"/>
		<path class="st0" d="M543.5,15.2l-1.5-3.2l2.8-1.5l1.6,2.5c1.1-0.9,2.2-1.5,3.2-1.9c1-0.4,2.1-0.6,3.2-0.6c1.3,0,2.3,0.2,3.2,0.6
			s1.5,0.9,2,1.6c0.5,0.7,0.9,1.5,1.1,2.4c0.2,0.9,0.3,1.8,0.3,2.8v12.3h-3.5V18.1c0-1.6-0.3-2.7-1-3.5c-0.6-0.7-1.6-1.1-2.9-1.1
			c-1,0-1.9,0.2-2.8,0.5s-1.6,0.8-2.2,1.3v14.9h-3.5V15.2z"/>
		<path class="st0" d="M583.6,28.7c-0.7,0.6-1.6,1.1-2.5,1.6s-2.1,0.7-3.5,0.7c-1.9,0-3.4-0.5-4.5-1.5c-1.1-1-1.7-2.6-1.7-4.7
			c0-1.1,0.2-2.1,0.6-2.8s0.9-1.4,1.7-1.9s1.6-0.9,2.6-1.1c1-0.2,2.1-0.3,3.3-0.3h3.3v-1c0-1.6-0.2-2.7-0.7-3.4
			c-0.5-0.7-1.4-1-2.8-1c-1.8,0-3.7,0.4-5.6,1.1l-0.9-2.4c0.7-0.3,1.7-0.6,2.8-0.9c1.1-0.3,2.5-0.5,4.1-0.5c1.5,0,2.7,0.2,3.5,0.6
			c0.9,0.4,1.5,1,2,1.7c0.4,0.7,0.7,1.5,0.9,2.5s0.2,2,0.2,3.1v8.2l1.6,2.4l-2.5,1.9L583.6,28.7z M582.8,21h-3c-1.7,0-3,0.3-3.7,0.8
			c-0.7,0.5-1.1,1.5-1.1,2.8c0,1.2,0.3,2.2,0.8,2.8c0.5,0.6,1.3,0.9,2.4,0.9c1.1,0,2.1-0.2,2.9-0.6c0.8-0.4,1.4-0.8,1.8-1.3V21z"/>
		<path class="st0" d="M591.5,26.7c0.6,0.3,1.4,0.7,2.4,1.1c1,0.4,2.1,0.6,3.4,0.6c1.3,0,2.4-0.2,3.2-0.7s1.2-1.2,1.2-2.2
			c0-0.6-0.1-1.1-0.4-1.4c-0.3-0.4-0.6-0.7-1-0.9c-0.4-0.2-0.9-0.4-1.5-0.6c-0.6-0.2-1.2-0.3-1.8-0.5c-0.7-0.2-1.4-0.4-2.1-0.6
			c-0.7-0.3-1.3-0.6-1.9-1c-0.5-0.4-1-0.9-1.3-1.6c-0.3-0.6-0.5-1.4-0.5-2.4c0-0.8,0.1-1.6,0.4-2.3c0.3-0.7,0.7-1.3,1.3-1.8
			c0.6-0.5,1.4-0.9,2.3-1.2c0.9-0.3,2-0.5,3.2-0.5s2.4,0.1,3.4,0.4c1.1,0.3,2,0.6,2.7,1l-1.1,2.3c-1.6-0.9-3.3-1.3-5.1-1.3
			c-1.2,0-2.2,0.2-2.9,0.6c-0.7,0.4-1,1.1-1,2.1c0,0.6,0.1,1,0.3,1.4c0.2,0.4,0.5,0.7,0.9,0.9c0.4,0.2,0.8,0.4,1.4,0.6
			c0.5,0.2,1.1,0.3,1.6,0.5c0.7,0.2,1.4,0.4,2.1,0.6c0.7,0.2,1.4,0.5,2,1c0.6,0.4,1.1,1,1.5,1.6c0.4,0.7,0.6,1.5,0.6,2.6
			c0,1.9-0.6,3.4-1.8,4.4c-1.2,1.1-3.1,1.6-5.6,1.6c-1.7,0-3.1-0.2-4.4-0.6c-1.2-0.4-2.1-0.8-2.7-1.2L591.5,26.7z"/>
		<path class="st0" d="M609.6,15.2l-1.5-3.2l2.9-1.5l1.6,2.4c0.7-0.6,1.4-1.2,2.3-1.6c0.9-0.5,1.9-0.7,3.2-0.7
			c2.6,0,4.6,0.8,5.9,2.5c1.4,1.7,2,4.2,2,7.7c0,1.5-0.2,2.9-0.6,4.2s-1,2.3-1.8,3.2c-0.8,0.9-1.8,1.6-3,2.1
			c-1.2,0.5-2.6,0.7-4.1,0.7c-0.6,0-1.1,0-1.8-0.1s-1.2-0.2-1.7-0.3v8.1h-3.5V15.2z M613.1,27.9c0.4,0.1,1,0.3,1.7,0.4
			s1.3,0.2,2,0.2c1.9,0,3.3-0.7,4.2-2s1.4-3.2,1.4-5.7c0-2.4-0.3-4.2-1-5.6c-0.7-1.3-1.9-2-3.5-2c-1,0-1.8,0.2-2.4,0.5
			c-0.7,0.3-1.4,0.9-2.2,1.6V27.9z"/>
		<path class="st0" d="M645.6,29.5c-0.6,0.4-1.5,0.7-2.6,1c-1.2,0.3-2.4,0.5-3.6,0.5c-1.7,0-3.2-0.2-4.4-0.7
			c-1.2-0.5-2.1-1.2-2.8-2.1c-0.7-0.9-1.2-2-1.5-3.2c-0.3-1.3-0.4-2.6-0.4-4.2c0-1.4,0.2-2.7,0.5-4c0.3-1.2,0.8-2.3,1.5-3.2
			c0.7-0.9,1.6-1.7,2.6-2.2c1.1-0.5,2.3-0.8,3.8-0.8c1.4,0,2.6,0.3,3.6,0.9c1,0.6,1.8,1.3,2.4,2.3c0.6,0.9,1,2,1.3,3.2
			c0.3,1.2,0.4,2.3,0.4,3.5l-1.3,1.3h-11.3c0.1,2.2,0.6,3.9,1.5,5c0.9,1.1,2.2,1.6,4.1,1.6c1,0,1.9-0.1,2.7-0.3
			c0.9-0.2,1.7-0.5,2.4-0.8L645.6,29.5z M642.8,19.2c0-2-0.4-3.6-1.1-4.6c-0.7-1-1.8-1.6-3.3-1.6c-1.6,0-2.7,0.5-3.3,1.6
			c-0.7,1.1-1.1,2.6-1.2,4.5H642.8z"/>
		<path class="st0" d="M665.4,29.4c-0.7,0.4-1.5,0.7-2.6,1c-1,0.3-2.2,0.5-3.6,0.5c-1.7,0-3.2-0.2-4.3-0.7c-1.1-0.5-2.1-1.2-2.7-2.1
			c-0.7-0.9-1.2-1.9-1.5-3.2c-0.3-1.2-0.4-2.6-0.4-4.1c0-1.5,0.2-2.8,0.5-4.1c0.4-1.3,0.9-2.4,1.7-3.3c0.7-0.9,1.7-1.7,2.8-2.2
			c1.2-0.5,2.5-0.8,4.2-0.8c1.2,0,2.2,0.2,3.2,0.5c1,0.3,1.8,0.7,2.5,1.1l-1.1,2.4c-0.7-0.4-1.4-0.7-2.2-0.9
			c-0.8-0.2-1.6-0.4-2.6-0.4c-1.9,0-3.2,0.6-4.1,1.9s-1.3,3.2-1.3,5.8c0,1.1,0.1,2.2,0.3,3.1c0.2,0.9,0.5,1.7,0.9,2.3
			c0.4,0.6,1,1.1,1.7,1.5c0.7,0.3,1.6,0.5,2.6,0.5c0.8,0,1.6-0.1,2.3-0.2c0.7-0.2,1.5-0.5,2.5-0.9L665.4,29.4z"/>
		<path class="st0" d="M670.4,13.8h-3.5v-2.6h3.6V5.5h3.4v5.7h5.6v2.6h-5.6v11c0,0.7,0.1,1.3,0.2,1.8c0.1,0.4,0.3,0.8,0.6,1
			c0.2,0.2,0.5,0.4,0.9,0.5c0.3,0.1,0.7,0.1,1.1,0.1s0.9-0.1,1.4-0.2c0.5-0.1,1-0.3,1.5-0.5l0.8,2.3c-0.4,0.2-1,0.4-1.8,0.6
			c-0.8,0.2-1.6,0.3-2.4,0.3c-0.9,0-1.7-0.1-2.4-0.3s-1.3-0.5-1.8-0.9c-0.5-0.4-0.9-1-1.1-1.7c-0.3-0.7-0.4-1.6-0.4-2.7V13.8z"/>
		<path class="st0" d="M690.8,30.9c-1.6,0-3-0.3-4.1-0.8c-1.1-0.5-2-1.2-2.6-2.1s-1.1-2-1.4-3.2c-0.3-1.2-0.4-2.6-0.4-4.1
			c0-1.5,0.2-2.8,0.5-4.1c0.4-1.3,0.9-2.3,1.6-3.2s1.6-1.6,2.7-2.1c1.1-0.5,2.4-0.8,3.8-0.8c1.5,0,2.8,0.3,3.9,0.8
			c1.1,0.5,2,1.2,2.7,2.1c0.7,0.9,1.2,2,1.5,3.2s0.5,2.6,0.5,4.1c0,1.5-0.2,2.9-0.5,4.1c-0.3,1.2-0.8,2.3-1.5,3.2
			c-0.7,0.9-1.6,1.6-2.7,2.1C693.7,30.7,692.3,30.9,690.8,30.9z M690.9,28.4c1.8,0,3.1-0.7,3.9-2c0.7-1.3,1.1-3.2,1.1-5.7
			c0-2.4-0.4-4.3-1.1-5.6c-0.7-1.3-2-2-3.9-2c-1.8,0-3.1,0.6-3.9,1.9c-0.7,1.3-1.1,3.2-1.1,5.7c0,1.2,0.1,2.3,0.3,3.2
			c0.2,1,0.5,1.8,0.9,2.4c0.4,0.7,0.9,1.2,1.6,1.5C689.2,28.2,690,28.4,690.9,28.4z"/>
		<path class="st0" d="M712.8,13.8h-2.7v-2.6h2.7v-2c0-0.9,0.1-1.8,0.3-2.7c0.2-0.8,0.6-1.6,1-2.2c0.5-0.6,1.2-1.1,2-1.5
			s1.9-0.6,3.1-0.6c0.7,0,1.4,0.1,2.1,0.3c0.7,0.2,1.4,0.4,2.1,0.7l-0.9,2.2c-0.3-0.1-0.6-0.3-1.2-0.4c-0.5-0.2-1.1-0.2-1.8-0.2
			c-0.7,0-1.3,0.1-1.7,0.3c-0.4,0.2-0.7,0.6-1,1c-0.2,0.4-0.4,0.9-0.4,1.5c-0.1,0.6-0.1,1.3-0.1,2v1.6h5.5v2.6h-5.5v16.5h-3.5V13.8z
			"/>
		<path class="st0" d="M725.7,13.7h-2.4v-2.5h4.9l0.6,2.5c0.3-0.4,0.7-0.7,1-1s0.7-0.6,1.2-0.9c0.4-0.2,0.9-0.4,1.5-0.6
			c0.5-0.1,1.2-0.2,1.9-0.2c0.9,0,1.7,0.1,2.4,0.3l-1,3.2c-0.3-0.1-0.6-0.2-1-0.3s-0.7-0.1-1.1-0.1c-1.8,0-3.3,0.6-4.4,1.9v14.2
			h-3.5V13.7z"/>
		<path class="st0" d="M753.8,29.5c-0.6,0.4-1.5,0.7-2.6,1c-1.2,0.3-2.4,0.5-3.6,0.5c-1.7,0-3.2-0.2-4.4-0.7
			c-1.2-0.5-2.1-1.2-2.8-2.1c-0.7-0.9-1.2-2-1.5-3.2c-0.3-1.3-0.4-2.6-0.4-4.2c0-1.4,0.2-2.7,0.5-4c0.3-1.2,0.8-2.3,1.5-3.2
			c0.7-0.9,1.6-1.7,2.6-2.2c1.1-0.5,2.3-0.8,3.8-0.8c1.4,0,2.6,0.3,3.6,0.9c1,0.6,1.8,1.3,2.4,2.3c0.6,0.9,1,2,1.3,3.2
			c0.3,1.2,0.4,2.3,0.4,3.5l-1.3,1.3H742c0.1,2.2,0.6,3.9,1.5,5c0.9,1.1,2.2,1.6,4.1,1.6c1,0,1.9-0.1,2.7-0.3
			c0.9-0.2,1.7-0.5,2.4-0.8L753.8,29.5z M750.9,19.2c0-2-0.4-3.6-1.1-4.6c-0.7-1-1.8-1.6-3.3-1.6c-1.6,0-2.7,0.5-3.3,1.6
			c-0.7,1.1-1.1,2.6-1.2,4.5H750.9z"/>
		<path class="st0" d="M758.7,26.7c0.6,0.3,1.4,0.7,2.4,1.1c1,0.4,2.1,0.6,3.4,0.6c1.3,0,2.4-0.2,3.2-0.7s1.2-1.2,1.2-2.2
			c0-0.6-0.1-1.1-0.4-1.4c-0.3-0.4-0.6-0.7-1-0.9c-0.4-0.2-0.9-0.4-1.5-0.6c-0.6-0.2-1.2-0.3-1.8-0.5c-0.7-0.2-1.4-0.4-2.1-0.6
			c-0.7-0.3-1.3-0.6-1.9-1c-0.5-0.4-1-0.9-1.3-1.6c-0.3-0.6-0.5-1.4-0.5-2.4c0-0.8,0.1-1.6,0.4-2.3c0.3-0.7,0.7-1.3,1.3-1.8
			c0.6-0.5,1.4-0.9,2.3-1.2c0.9-0.3,2-0.5,3.2-0.5s2.4,0.1,3.4,0.4c1.1,0.3,2,0.6,2.7,1l-1.1,2.3c-1.6-0.9-3.3-1.3-5.1-1.3
			c-1.2,0-2.2,0.2-2.9,0.6c-0.7,0.4-1,1.1-1,2.1c0,0.6,0.1,1,0.3,1.4c0.2,0.4,0.5,0.7,0.9,0.9c0.4,0.2,0.8,0.4,1.4,0.6
			c0.5,0.2,1.1,0.3,1.6,0.5c0.7,0.2,1.4,0.4,2.1,0.6c0.7,0.2,1.4,0.5,2,1c0.6,0.4,1.1,1,1.5,1.6c0.4,0.7,0.6,1.5,0.6,2.6
			c0,1.9-0.6,3.4-1.8,4.4c-1.2,1.1-3.1,1.6-5.6,1.6c-1.7,0-3.1-0.2-4.4-0.6c-1.2-0.4-2.1-0.8-2.7-1.2L758.7,26.7z"/>
		<path class="st0" d="M790.8,29.4c-0.7,0.4-1.5,0.7-2.6,1c-1,0.3-2.2,0.5-3.6,0.5c-1.7,0-3.2-0.2-4.3-0.7c-1.1-0.5-2.1-1.2-2.7-2.1
			c-0.7-0.9-1.2-1.9-1.5-3.2c-0.3-1.2-0.4-2.6-0.4-4.1c0-1.5,0.2-2.8,0.5-4.1c0.4-1.3,0.9-2.4,1.7-3.3c0.7-0.9,1.7-1.7,2.8-2.2
			c1.2-0.5,2.5-0.8,4.2-0.8c1.2,0,2.2,0.2,3.2,0.5c1,0.3,1.8,0.7,2.5,1.1l-1.1,2.4c-0.7-0.4-1.4-0.7-2.2-0.9
			c-0.8-0.2-1.6-0.4-2.6-0.4c-1.9,0-3.2,0.6-4.1,1.9s-1.3,3.2-1.3,5.8c0,1.1,0.1,2.2,0.3,3.1c0.2,0.9,0.5,1.7,0.9,2.3
			c0.4,0.6,1,1.1,1.7,1.5c0.7,0.3,1.6,0.5,2.6,0.5c0.8,0,1.6-0.1,2.3-0.2c0.7-0.2,1.5-0.5,2.5-0.9L790.8,29.4z"/>
		<path class="st0" d="M801.8,30.9c-1.6,0-3-0.3-4.1-0.8c-1.1-0.5-2-1.2-2.6-2.1s-1.1-2-1.4-3.2c-0.3-1.2-0.4-2.6-0.4-4.1
			c0-1.5,0.2-2.8,0.5-4.1c0.4-1.3,0.9-2.3,1.6-3.2s1.6-1.6,2.7-2.1c1.1-0.5,2.4-0.8,3.8-0.8c1.5,0,2.8,0.3,3.9,0.8
			c1.1,0.5,2,1.2,2.7,2.1c0.7,0.9,1.2,2,1.5,3.2s0.5,2.6,0.5,4.1c0,1.5-0.2,2.9-0.5,4.1c-0.3,1.2-0.8,2.3-1.5,3.2
			c-0.7,0.9-1.6,1.6-2.7,2.1C804.7,30.7,803.4,30.9,801.8,30.9z M801.9,28.4c1.8,0,3.1-0.7,3.9-2c0.7-1.3,1.1-3.2,1.1-5.7
			c0-2.4-0.4-4.3-1.1-5.6c-0.7-1.3-2-2-3.9-2c-1.8,0-3.1,0.6-3.9,1.9c-0.7,1.3-1.1,3.2-1.1,5.7c0,1.2,0.1,2.3,0.3,3.2
			c0.2,1,0.5,1.8,0.9,2.4c0.4,0.7,0.9,1.2,1.6,1.5C800.2,28.2,801,28.4,801.9,28.4z"/>
		<path class="st0" d="M815.3,26.3l3.7,0.8l-2.8,8.7l-2.4-0.6L815.3,26.3z"/>
		<path class="st0" d="M844.9,29.4c-0.7,0.4-1.5,0.7-2.6,1c-1,0.3-2.2,0.5-3.6,0.5c-1.7,0-3.2-0.2-4.3-0.7c-1.1-0.5-2.1-1.2-2.7-2.1
			c-0.7-0.9-1.2-1.9-1.5-3.2c-0.3-1.2-0.4-2.6-0.4-4.1c0-1.5,0.2-2.8,0.5-4.1c0.4-1.3,0.9-2.4,1.7-3.3c0.7-0.9,1.7-1.7,2.8-2.2
			c1.2-0.5,2.5-0.8,4.2-0.8c1.2,0,2.2,0.2,3.2,0.5c1,0.3,1.8,0.7,2.5,1.1l-1.1,2.4c-0.7-0.4-1.4-0.7-2.2-0.9
			c-0.8-0.2-1.6-0.4-2.6-0.4c-1.9,0-3.2,0.6-4.1,1.9s-1.3,3.2-1.3,5.8c0,1.1,0.1,2.2,0.3,3.1c0.2,0.9,0.5,1.7,0.9,2.3
			c0.4,0.6,1,1.1,1.7,1.5c0.7,0.3,1.6,0.5,2.6,0.5c0.8,0,1.6-0.1,2.3-0.2c0.7-0.2,1.5-0.5,2.5-0.9L844.9,29.4z"/>
		<path class="st0" d="M855.9,30.9c-1.6,0-3-0.3-4.1-0.8c-1.1-0.5-2-1.2-2.6-2.1s-1.1-2-1.4-3.2c-0.3-1.2-0.4-2.6-0.4-4.1
			c0-1.5,0.2-2.8,0.5-4.1c0.4-1.3,0.9-2.3,1.6-3.2s1.6-1.6,2.7-2.1c1.1-0.5,2.4-0.8,3.8-0.8c1.5,0,2.8,0.3,3.9,0.8
			c1.1,0.5,2,1.2,2.7,2.1c0.7,0.9,1.2,2,1.5,3.2s0.5,2.6,0.5,4.1c0,1.5-0.2,2.9-0.5,4.1c-0.3,1.2-0.8,2.3-1.5,3.2
			c-0.7,0.9-1.6,1.6-2.7,2.1C858.8,30.7,857.5,30.9,855.9,30.9z M856,28.4c1.8,0,3.1-0.7,3.9-2c0.7-1.3,1.1-3.2,1.1-5.7
			c0-2.4-0.4-4.3-1.1-5.6c-0.7-1.3-2-2-3.9-2c-1.8,0-3.1,0.6-3.9,1.9c-0.7,1.3-1.1,3.2-1.1,5.7c0,1.2,0.1,2.3,0.3,3.2
			c0.2,1,0.5,1.8,0.9,2.4c0.4,0.7,0.9,1.2,1.6,1.5C854.3,28.2,855.1,28.4,856,28.4z"/>
		<path class="st0" d="M870,15.1l-1.5-3.2l2.8-1.5l1.6,2.5c1-0.9,2-1.6,3-1.9c1-0.3,1.9-0.5,2.7-0.5c1.4,0,2.4,0.2,3.1,0.6
			c0.7,0.4,1.3,1,1.8,1.8c1.1-1,2.2-1.6,3.3-2c1.1-0.3,2-0.5,2.7-0.5c1.3,0,2.3,0.2,3.1,0.6s1.4,0.9,1.8,1.6
			c0.4,0.7,0.7,1.5,0.8,2.4c0.1,0.9,0.2,1.8,0.2,2.8v12.3h-3.5V17.9c0-1.5-0.2-2.6-0.7-3.3c-0.4-0.7-1.3-1-2.6-1
			c-0.7,0-1.5,0.1-2.3,0.4c-0.8,0.3-1.5,0.7-2.3,1.3c0.1,0.4,0.1,0.8,0.1,1.3c0,0.5,0.1,0.9,0.1,1.3v12.3H881V17.8
			c0-1.4-0.2-2.5-0.7-3.2c-0.4-0.7-1.3-1-2.6-1c-0.7,0-1.4,0.1-2.2,0.4c-0.7,0.3-1.4,0.7-2.1,1.3v15H870V15.1z"/>
		<path class="st0" d="M901.8,2.8h3.5v8.7c0.6-0.3,1.3-0.6,2-0.7c0.7-0.2,1.5-0.3,2.4-0.3c2.6,0,4.5,0.8,5.9,2.5s2.1,4.2,2.1,7.6
			c0,1.5-0.2,2.9-0.5,4.1c-0.3,1.3-0.9,2.3-1.6,3.2c-0.7,0.9-1.7,1.6-2.9,2.1c-1.2,0.5-2.6,0.8-4.4,0.8c-1.4,0-2.7-0.1-4-0.3
			c-1.2-0.2-2.1-0.4-2.7-0.7V2.8z M905.3,28c0.3,0.1,0.8,0.2,1.4,0.3s1.4,0.1,2.1,0.1c1.9,0,3.3-0.7,4.1-2c0.8-1.3,1.2-3.3,1.2-5.9
			c0-2.3-0.4-4.1-1.1-5.5c-0.7-1.4-2-2-3.8-2c-0.8,0-1.5,0.1-2.3,0.3c-0.7,0.2-1.3,0.4-1.7,0.7V28z"/>
		<path class="st0" d="M923.2,13.7h-2.4v-2.5h6v19h-3.5V13.7z M924.6,7.7c-0.7,0-1.3-0.2-1.7-0.7s-0.6-1.1-0.6-1.8
			c0-0.7,0.2-1.3,0.6-1.8s1-0.7,1.7-0.7c0.8,0,1.3,0.2,1.8,0.7s0.6,1.1,0.6,1.8c0,0.7-0.2,1.3-0.6,1.8S925.4,7.7,924.6,7.7z"/>
		<path class="st0" d="M933,15.2l-1.5-3.2l2.8-1.5l1.6,2.5c1.1-0.9,2.2-1.5,3.2-1.9c1-0.4,2.1-0.6,3.2-0.6c1.3,0,2.3,0.2,3.2,0.6
			s1.5,0.9,2,1.6c0.5,0.7,0.9,1.5,1.1,2.4c0.2,0.9,0.3,1.8,0.3,2.8v12.3h-3.5V18.1c0-1.6-0.3-2.7-1-3.5c-0.6-0.7-1.6-1.1-2.9-1.1
			c-1,0-1.9,0.2-2.8,0.5s-1.6,0.8-2.2,1.3v14.9H933V15.2z"/>
		<path class="st0" d="M965.6,28.7c-0.7,0.6-1.6,1.1-2.5,1.6s-2.1,0.7-3.5,0.7c-1.9,0-3.4-0.5-4.5-1.5c-1.1-1-1.7-2.6-1.7-4.7
			c0-1.1,0.2-2.1,0.6-2.8s0.9-1.4,1.7-1.9s1.6-0.9,2.6-1.1c1-0.2,2.1-0.3,3.3-0.3h3.3v-1c0-1.6-0.2-2.7-0.7-3.4
			c-0.5-0.7-1.4-1-2.8-1c-1.8,0-3.7,0.4-5.6,1.1l-0.9-2.4c0.7-0.3,1.7-0.6,2.8-0.9c1.1-0.3,2.5-0.5,4.1-0.5c1.5,0,2.7,0.2,3.5,0.6
			c0.9,0.4,1.5,1,2,1.7c0.4,0.7,0.7,1.5,0.9,2.5s0.2,2,0.2,3.1v8.2l1.6,2.4l-2.5,1.9L965.6,28.7z M964.8,21h-3c-1.7,0-3,0.3-3.7,0.8
			c-0.7,0.5-1.1,1.5-1.1,2.8c0,1.2,0.3,2.2,0.8,2.8c0.5,0.6,1.3,0.9,2.4,0.9c1.1,0,2.1-0.2,2.9-0.6c0.8-0.4,1.4-0.8,1.8-1.3V21z"/>
		<path class="st0" d="M987.2,28.8c-0.7,0.6-1.6,1.1-2.5,1.5s-2.1,0.6-3.3,0.6c-2.6,0-4.6-0.8-5.9-2.5s-2-4.2-2-7.7
			c0-1.5,0.2-2.9,0.6-4.2s1-2.3,1.7-3.2s1.7-1.6,2.9-2.1c1.2-0.5,2.5-0.7,4-0.7c0.7,0,1.3,0.1,1.9,0.2c0.6,0.1,1.1,0.2,1.6,0.3V2.3
			h3.5v24.3l1.6,2.4l-2.5,1.9L987.2,28.8z M986.2,13.6c-0.4-0.1-0.9-0.2-1.5-0.4c-0.6-0.1-1.3-0.2-2.1-0.2c-1.9,0-3.3,0.7-4.2,2
			c-0.9,1.3-1.3,3.2-1.3,5.7c0,2.4,0.4,4.2,1.1,5.6c0.7,1.3,2,2,3.6,2c1.1,0,1.9-0.2,2.6-0.5c0.7-0.4,1.3-0.8,1.8-1.3V13.6z"/>
		<path class="st0" d="M1003.6,30.9c-1.6,0-3-0.3-4.1-0.8c-1.1-0.5-2-1.2-2.6-2.1s-1.1-2-1.4-3.2c-0.3-1.2-0.4-2.6-0.4-4.1
			c0-1.5,0.2-2.8,0.5-4.1c0.4-1.3,0.9-2.3,1.6-3.2s1.6-1.6,2.7-2.1c1.1-0.5,2.4-0.8,3.8-0.8c1.5,0,2.8,0.3,3.9,0.8
			c1.1,0.5,2,1.2,2.7,2.1c0.7,0.9,1.2,2,1.5,3.2s0.5,2.6,0.5,4.1c0,1.5-0.2,2.9-0.5,4.1c-0.3,1.2-0.8,2.3-1.5,3.2
			c-0.7,0.9-1.6,1.6-2.7,2.1C1006.5,30.7,1005.2,30.9,1003.6,30.9z M1003.8,28.4c1.8,0,3.1-0.7,3.9-2c0.7-1.3,1.1-3.2,1.1-5.7
			c0-2.4-0.4-4.3-1.1-5.6c-0.7-1.3-2-2-3.9-2c-1.8,0-3.1,0.6-3.9,1.9c-0.7,1.3-1.1,3.2-1.1,5.7c0,1.2,0.1,2.3,0.3,3.2
			c0.2,1,0.5,1.8,0.9,2.4c0.4,0.7,0.9,1.2,1.6,1.5C1002.1,28.2,1002.8,28.4,1003.8,28.4z"/>
		<path class="st0" d="M1039.1,29.4c-0.7,0.4-1.5,0.7-2.6,1c-1,0.3-2.2,0.5-3.6,0.5c-1.7,0-3.2-0.2-4.3-0.7
			c-1.1-0.5-2.1-1.2-2.7-2.1c-0.7-0.9-1.2-1.9-1.5-3.2c-0.3-1.2-0.4-2.6-0.4-4.1c0-1.5,0.2-2.8,0.5-4.1c0.4-1.3,0.9-2.4,1.7-3.3
			c0.7-0.9,1.7-1.7,2.8-2.2c1.2-0.5,2.5-0.8,4.2-0.8c1.2,0,2.2,0.2,3.2,0.5c1,0.3,1.8,0.7,2.5,1.1l-1.1,2.4
			c-0.7-0.4-1.4-0.7-2.2-0.9c-0.8-0.2-1.6-0.4-2.6-0.4c-1.9,0-3.2,0.6-4.1,1.9s-1.3,3.2-1.3,5.8c0,1.1,0.1,2.2,0.3,3.1
			c0.2,0.9,0.5,1.7,0.9,2.3c0.4,0.6,1,1.1,1.7,1.5c0.7,0.3,1.6,0.5,2.6,0.5c0.8,0,1.6-0.1,2.3-0.2c0.7-0.2,1.5-0.5,2.5-0.9
			L1039.1,29.4z"/>
		<path class="st0" d="M1050.1,30.9c-1.6,0-3-0.3-4.1-0.8c-1.1-0.5-2-1.2-2.6-2.1s-1.1-2-1.4-3.2c-0.3-1.2-0.4-2.6-0.4-4.1
			c0-1.5,0.2-2.8,0.5-4.1c0.4-1.3,0.9-2.3,1.6-3.2s1.6-1.6,2.7-2.1c1.1-0.5,2.4-0.8,3.8-0.8c1.5,0,2.8,0.3,3.9,0.8
			c1.1,0.5,2,1.2,2.7,2.1c0.7,0.9,1.2,2,1.5,3.2s0.5,2.6,0.5,4.1c0,1.5-0.2,2.9-0.5,4.1c-0.3,1.2-0.8,2.3-1.5,3.2
			c-0.7,0.9-1.6,1.6-2.7,2.1C1053,30.7,1051.6,30.9,1050.1,30.9z M1050.2,28.4c1.8,0,3.1-0.7,3.9-2c0.7-1.3,1.1-3.2,1.1-5.7
			c0-2.4-0.4-4.3-1.1-5.6c-0.7-1.3-2-2-3.9-2c-1.8,0-3.1,0.6-3.9,1.9c-0.7,1.3-1.1,3.2-1.1,5.7c0,1.2,0.1,2.3,0.3,3.2
			c0.2,1,0.5,1.8,0.9,2.4c0.4,0.7,0.9,1.2,1.6,1.5C1048.5,28.2,1049.3,28.4,1050.2,28.4z"/>
		<path class="st0" d="M1064.1,15.2l-1.5-3.2l2.8-1.5l1.6,2.5c1.1-0.9,2.2-1.5,3.2-1.9c1-0.4,2.1-0.6,3.2-0.6c1.3,0,2.3,0.2,3.2,0.6
			s1.5,0.9,2,1.6c0.5,0.7,0.9,1.5,1.1,2.4c0.2,0.9,0.3,1.8,0.3,2.8v12.3h-3.5V18.1c0-1.6-0.3-2.7-1-3.5c-0.6-0.7-1.6-1.1-2.9-1.1
			c-1,0-1.9,0.2-2.8,0.5s-1.6,0.8-2.2,1.3v14.9h-3.5V15.2z"/>
		<path class="st0" d="M1107.5,29.4c-0.7,0.4-1.5,0.7-2.6,1c-1,0.3-2.2,0.5-3.6,0.5c-1.7,0-3.2-0.2-4.3-0.7
			c-1.1-0.5-2.1-1.2-2.7-2.1c-0.7-0.9-1.2-1.9-1.5-3.2c-0.3-1.2-0.4-2.6-0.4-4.1c0-1.5,0.2-2.8,0.5-4.1c0.4-1.3,0.9-2.4,1.7-3.3
			c0.7-0.9,1.7-1.7,2.8-2.2c1.2-0.5,2.5-0.8,4.2-0.8c1.2,0,2.2,0.2,3.2,0.5c1,0.3,1.8,0.7,2.5,1.1l-1.1,2.4
			c-0.7-0.4-1.4-0.7-2.2-0.9c-0.8-0.2-1.6-0.4-2.6-0.4c-1.9,0-3.2,0.6-4.1,1.9s-1.3,3.2-1.3,5.8c0,1.1,0.1,2.2,0.3,3.1
			c0.2,0.9,0.5,1.7,0.9,2.3c0.4,0.6,1,1.1,1.7,1.5c0.7,0.3,1.6,0.5,2.6,0.5c0.8,0,1.6-0.1,2.3-0.2c0.7-0.2,1.5-0.5,2.5-0.9
			L1107.5,29.4z"/>
		<path class="st0" d="M1122.1,28.7c-0.7,0.6-1.6,1.1-2.5,1.6s-2.1,0.7-3.5,0.7c-1.9,0-3.4-0.5-4.5-1.5c-1.1-1-1.7-2.6-1.7-4.7
			c0-1.1,0.2-2.1,0.6-2.8s0.9-1.4,1.7-1.9s1.6-0.9,2.6-1.1c1-0.2,2.1-0.3,3.3-0.3h3.3v-1c0-1.6-0.2-2.7-0.7-3.4
			c-0.5-0.7-1.4-1-2.8-1c-1.8,0-3.7,0.4-5.6,1.1l-0.9-2.4c0.7-0.3,1.7-0.6,2.8-0.9c1.1-0.3,2.5-0.5,4.1-0.5c1.5,0,2.7,0.2,3.5,0.6
			c0.9,0.4,1.5,1,2,1.7c0.4,0.7,0.7,1.5,0.9,2.5s0.2,2,0.2,3.1v8.2l1.6,2.4l-2.5,1.9L1122.1,28.7z M1121.3,21h-3
			c-1.7,0-3,0.3-3.7,0.8c-0.7,0.5-1.1,1.5-1.1,2.8c0,1.2,0.3,2.2,0.8,2.8c0.5,0.6,1.3,0.9,2.4,0.9c1.1,0,2.1-0.2,2.9-0.6
			c0.8-0.4,1.4-0.8,1.8-1.3V21z"/>
		<path class="st0" d="M1131.2,13.7h-2.4v-2.5h4.9l0.6,2.5c0.3-0.4,0.7-0.7,1-1s0.7-0.6,1.2-0.9c0.4-0.2,0.9-0.4,1.5-0.6
			c0.5-0.1,1.2-0.2,1.9-0.2c0.9,0,1.7,0.1,2.4,0.3l-1,3.2c-0.3-0.1-0.6-0.2-1-0.3s-0.7-0.1-1.1-0.1c-1.8,0-3.3,0.6-4.4,1.9v14.2
			h-3.5V13.7z"/>
		<path class="st0" d="M1155.7,28.7c-0.7,0.6-1.6,1.1-2.5,1.6s-2.1,0.7-3.5,0.7c-1.9,0-3.4-0.5-4.5-1.5c-1.1-1-1.7-2.6-1.7-4.7
			c0-1.1,0.2-2.1,0.6-2.8s0.9-1.4,1.7-1.9s1.6-0.9,2.6-1.1c1-0.2,2.1-0.3,3.3-0.3h3.3v-1c0-1.6-0.2-2.7-0.7-3.4
			c-0.5-0.7-1.4-1-2.8-1c-1.8,0-3.7,0.4-5.6,1.1l-0.9-2.4c0.7-0.3,1.7-0.6,2.8-0.9c1.1-0.3,2.5-0.5,4.1-0.5c1.5,0,2.7,0.2,3.5,0.6
			c0.9,0.4,1.5,1,2,1.7c0.4,0.7,0.7,1.5,0.9,2.5s0.2,2,0.2,3.1v8.2l1.6,2.4l-2.5,1.9L1155.7,28.7z M1154.9,21h-3
			c-1.7,0-3,0.3-3.7,0.8c-0.7,0.5-1.1,1.5-1.1,2.8c0,1.2,0.3,2.2,0.8,2.8c0.5,0.6,1.3,0.9,2.4,0.9c1.1,0,2.1-0.2,2.9-0.6
			c0.8-0.4,1.4-0.8,1.8-1.3V21z"/>
		<path class="st0" d="M1178.6,29.4c-0.7,0.4-1.5,0.7-2.6,1c-1,0.3-2.2,0.5-3.6,0.5c-1.7,0-3.2-0.2-4.3-0.7
			c-1.1-0.5-2.1-1.2-2.7-2.1c-0.7-0.9-1.2-1.9-1.5-3.2c-0.3-1.2-0.4-2.6-0.4-4.1c0-1.5,0.2-2.8,0.5-4.1c0.4-1.3,0.9-2.4,1.7-3.3
			c0.7-0.9,1.7-1.7,2.8-2.2c1.2-0.5,2.5-0.8,4.2-0.8c1.2,0,2.2,0.2,3.2,0.5c1,0.3,1.8,0.7,2.5,1.1l-1.1,2.4
			c-0.7-0.4-1.4-0.7-2.2-0.9c-0.8-0.2-1.6-0.4-2.6-0.4c-1.9,0-3.2,0.6-4.1,1.9s-1.3,3.2-1.3,5.8c0,1.1,0.1,2.2,0.3,3.1
			c0.2,0.9,0.5,1.7,0.9,2.3c0.4,0.6,1,1.1,1.7,1.5c0.7,0.3,1.6,0.5,2.6,0.5c0.8,0,1.6-0.1,2.3-0.2c0.7-0.2,1.5-0.5,2.5-0.9
			L1178.6,29.4z"/>
		<path class="st0" d="M1183.5,13.8h-3.5v-2.6h3.6V5.5h3.4v5.7h5.6v2.6h-5.6v11c0,0.7,0.1,1.3,0.2,1.8c0.1,0.4,0.3,0.8,0.6,1
			c0.2,0.2,0.5,0.4,0.9,0.5c0.3,0.1,0.7,0.1,1.1,0.1s0.9-0.1,1.4-0.2c0.5-0.1,1-0.3,1.5-0.5l0.8,2.3c-0.4,0.2-1,0.4-1.8,0.6
			c-0.8,0.2-1.6,0.3-2.4,0.3c-0.9,0-1.7-0.1-2.4-0.3s-1.3-0.5-1.8-0.9c-0.5-0.4-0.9-1-1.1-1.7c-0.3-0.7-0.4-1.6-0.4-2.7V13.8z"/>
		<path class="st0" d="M1210.7,29.5c-0.6,0.4-1.5,0.7-2.6,1c-1.2,0.3-2.4,0.5-3.6,0.5c-1.7,0-3.2-0.2-4.4-0.7
			c-1.2-0.5-2.1-1.2-2.8-2.1c-0.7-0.9-1.2-2-1.5-3.2c-0.3-1.3-0.4-2.6-0.4-4.2c0-1.4,0.2-2.7,0.5-4c0.3-1.2,0.8-2.3,1.5-3.2
			c0.7-0.9,1.6-1.7,2.6-2.2c1.1-0.5,2.3-0.8,3.8-0.8c1.4,0,2.6,0.3,3.6,0.9c1,0.6,1.8,1.3,2.4,2.3c0.6,0.9,1,2,1.3,3.2
			c0.3,1.2,0.4,2.3,0.4,3.5l-1.3,1.3h-11.3c0.1,2.2,0.6,3.9,1.5,5c0.9,1.1,2.2,1.6,4.1,1.6c1,0,1.9-0.1,2.7-0.3
			c0.9-0.2,1.7-0.5,2.4-0.8L1210.7,29.5z M1207.8,19.2c0-2-0.4-3.6-1.1-4.6c-0.7-1-1.8-1.6-3.3-1.6c-1.6,0-2.7,0.5-3.3,1.6
			c-0.7,1.1-1.1,2.6-1.2,4.5H1207.8z"/>
		<path class="st0" d="M1216.7,13.7h-2.4v-2.5h4.9l0.6,2.5c0.3-0.4,0.7-0.7,1-1s0.7-0.6,1.2-0.9c0.4-0.2,0.9-0.4,1.5-0.6
			c0.5-0.1,1.2-0.2,1.9-0.2c0.9,0,1.7,0.1,2.4,0.3l-1,3.2c-0.3-0.1-0.6-0.2-1-0.3s-0.7-0.1-1.1-0.1c-1.8,0-3.3,0.6-4.4,1.9v14.2
			h-3.5V13.7z"/>
		<path class="st0" d="M1231.3,13.7h-2.4v-2.5h6v19h-3.5V13.7z M1234,0l2.8,1.9l-5.4,6.2l-1.7-1.3L1234,0z"/>
		<path class="st0" d="M1240.1,26.7c0.6,0.3,1.4,0.7,2.4,1.1c1,0.4,2.1,0.6,3.4,0.6c1.3,0,2.4-0.2,3.2-0.7s1.2-1.2,1.2-2.2
			c0-0.6-0.1-1.1-0.4-1.4c-0.3-0.4-0.6-0.7-1-0.9c-0.4-0.2-0.9-0.4-1.5-0.6c-0.6-0.2-1.2-0.3-1.8-0.5c-0.7-0.2-1.4-0.4-2.1-0.6
			c-0.7-0.3-1.3-0.6-1.9-1c-0.5-0.4-1-0.9-1.3-1.6c-0.3-0.6-0.5-1.4-0.5-2.4c0-0.8,0.1-1.6,0.4-2.3c0.3-0.7,0.7-1.3,1.3-1.8
			c0.6-0.5,1.4-0.9,2.3-1.2c0.9-0.3,2-0.5,3.2-0.5s2.4,0.1,3.4,0.4c1.1,0.3,2,0.6,2.7,1l-1.1,2.3c-1.6-0.9-3.3-1.3-5.1-1.3
			c-1.2,0-2.2,0.2-2.9,0.6c-0.7,0.4-1,1.1-1,2.1c0,0.6,0.1,1,0.3,1.4c0.2,0.4,0.5,0.7,0.9,0.9c0.4,0.2,0.8,0.4,1.4,0.6
			c0.5,0.2,1.1,0.3,1.6,0.5c0.7,0.2,1.4,0.4,2.1,0.6c0.7,0.2,1.4,0.5,2,1c0.6,0.4,1.1,1,1.5,1.6c0.4,0.7,0.6,1.5,0.6,2.6
			c0,1.9-0.6,3.4-1.8,4.4c-1.2,1.1-3.1,1.6-5.6,1.6c-1.7,0-3.1-0.2-4.4-0.6c-1.2-0.4-2.1-0.8-2.7-1.2L1240.1,26.7z"/>
		<path class="st0" d="M1259.2,13.8h-3.5v-2.6h3.6V5.5h3.4v5.7h5.6v2.6h-5.6v11c0,0.7,0.1,1.3,0.2,1.8c0.1,0.4,0.3,0.8,0.6,1
			c0.2,0.2,0.5,0.4,0.9,0.5c0.3,0.1,0.7,0.1,1.1,0.1s0.9-0.1,1.4-0.2c0.5-0.1,1-0.3,1.5-0.5l0.8,2.3c-0.4,0.2-1,0.4-1.8,0.6
			c-0.8,0.2-1.6,0.3-2.4,0.3c-0.9,0-1.7-0.1-2.4-0.3s-1.3-0.5-1.8-0.9c-0.5-0.4-0.9-1-1.1-1.7c-0.3-0.7-0.4-1.6-0.4-2.7V13.8z"/>
		<path class="st0" d="M1272.9,13.7h-2.4v-2.5h6v19h-3.5V13.7z M1274.2,7.7c-0.7,0-1.3-0.2-1.7-0.7s-0.6-1.1-0.6-1.8
			c0-0.7,0.2-1.3,0.6-1.8s1-0.7,1.7-0.7c0.8,0,1.3,0.2,1.8,0.7s0.6,1.1,0.6,1.8c0,0.7-0.2,1.3-0.6,1.8S1275,7.7,1274.2,7.7z"/>
		<path class="st0" d="M1296.6,29.4c-0.7,0.4-1.5,0.7-2.6,1c-1,0.3-2.2,0.5-3.6,0.5c-1.7,0-3.2-0.2-4.3-0.7
			c-1.1-0.5-2.1-1.2-2.7-2.1c-0.7-0.9-1.2-1.9-1.5-3.2c-0.3-1.2-0.4-2.6-0.4-4.1c0-1.5,0.2-2.8,0.5-4.1c0.4-1.3,0.9-2.4,1.7-3.3
			c0.7-0.9,1.7-1.7,2.8-2.2c1.2-0.5,2.5-0.8,4.2-0.8c1.2,0,2.2,0.2,3.2,0.5c1,0.3,1.8,0.7,2.5,1.1l-1.1,2.4
			c-0.7-0.4-1.4-0.7-2.2-0.9c-0.8-0.2-1.6-0.4-2.6-0.4c-1.9,0-3.2,0.6-4.1,1.9s-1.3,3.2-1.3,5.8c0,1.1,0.1,2.2,0.3,3.1
			c0.2,0.9,0.5,1.7,0.9,2.3c0.4,0.6,1,1.1,1.7,1.5c0.7,0.3,1.6,0.5,2.6,0.5c0.8,0,1.6-0.1,2.3-0.2c0.7-0.2,1.5-0.5,2.5-0.9
			L1296.6,29.4z"/>
		<path class="st0" d="M1311.2,28.7c-0.7,0.6-1.6,1.1-2.5,1.6s-2.1,0.7-3.5,0.7c-1.9,0-3.4-0.5-4.5-1.5c-1.1-1-1.7-2.6-1.7-4.7
			c0-1.1,0.2-2.1,0.6-2.8s0.9-1.4,1.7-1.9s1.6-0.9,2.6-1.1c1-0.2,2.1-0.3,3.3-0.3h3.3v-1c0-1.6-0.2-2.7-0.7-3.4
			c-0.5-0.7-1.4-1-2.8-1c-1.8,0-3.7,0.4-5.6,1.1l-0.9-2.4c0.7-0.3,1.7-0.6,2.8-0.9c1.1-0.3,2.5-0.5,4.1-0.5c1.5,0,2.7,0.2,3.5,0.6
			c0.9,0.4,1.5,1,2,1.7c0.4,0.7,0.7,1.5,0.9,2.5s0.2,2,0.2,3.1v8.2l1.6,2.4l-2.5,1.9L1311.2,28.7z M1310.4,21h-3
			c-1.7,0-3,0.3-3.7,0.8c-0.7,0.5-1.1,1.5-1.1,2.8c0,1.2,0.3,2.2,0.8,2.8c0.5,0.6,1.3,0.9,2.4,0.9c1.1,0,2.1-0.2,2.9-0.6
			c0.8-0.4,1.4-0.8,1.8-1.3V21z"/>
		<path class="st0" d="M1319.1,26.7c0.6,0.3,1.4,0.7,2.4,1.1c1,0.4,2.1,0.6,3.4,0.6c1.3,0,2.4-0.2,3.2-0.7s1.2-1.2,1.2-2.2
			c0-0.6-0.1-1.1-0.4-1.4c-0.3-0.4-0.6-0.7-1-0.9c-0.4-0.2-0.9-0.4-1.5-0.6c-0.6-0.2-1.2-0.3-1.8-0.5c-0.7-0.2-1.4-0.4-2.1-0.6
			c-0.7-0.3-1.3-0.6-1.9-1c-0.5-0.4-1-0.9-1.3-1.6c-0.3-0.6-0.5-1.4-0.5-2.4c0-0.8,0.1-1.6,0.4-2.3c0.3-0.7,0.7-1.3,1.3-1.8
			c0.6-0.5,1.4-0.9,2.3-1.2c0.9-0.3,2-0.5,3.2-0.5s2.4,0.1,3.4,0.4c1.1,0.3,2,0.6,2.7,1l-1.1,2.3c-1.6-0.9-3.3-1.3-5.1-1.3
			c-1.2,0-2.2,0.2-2.9,0.6c-0.7,0.4-1,1.1-1,2.1c0,0.6,0.1,1,0.3,1.4c0.2,0.4,0.5,0.7,0.9,0.9c0.4,0.2,0.8,0.4,1.4,0.6
			c0.5,0.2,1.1,0.3,1.6,0.5c0.7,0.2,1.4,0.4,2.1,0.6c0.7,0.2,1.4,0.5,2,1c0.6,0.4,1.1,1,1.5,1.6c0.4,0.7,0.6,1.5,0.6,2.6
			c0,1.9-0.6,3.4-1.8,4.4c-1.2,1.1-3.1,1.6-5.6,1.6c-1.7,0-3.1-0.2-4.4-0.6c-1.2-0.4-2.1-0.8-2.7-1.2L1319.1,26.7z"/>
		<path class="st0" d="M1344.5,4.8h-2.4V2.3h5.9v27.9h-3.5V4.8z"/>
		<path class="st0" d="M1353.8,11.2h3.5v12.4c0,1.5,0.3,2.6,0.9,3.5c0.6,0.8,1.5,1.2,2.9,1.2c1.1,0,2-0.2,2.7-0.5
			c0.7-0.4,1.3-0.8,2-1.3V11.2h3.5v15.4l1.6,2.3l-2.5,1.9l-1.7-2.1c-1,0.8-2,1.3-2.9,1.7c-1,0.3-2,0.5-3.1,0.5
			c-1.4,0-2.5-0.2-3.4-0.6s-1.5-0.9-2-1.6c-0.5-0.7-0.8-1.5-1-2.4c-0.2-0.9-0.3-1.8-0.3-2.8V11.2z"/>
		<path class="st0" d="M1369.2,35.4c0.5,0.2,1,0.3,1.5,0.5s1.1,0.2,1.8,0.2c0.7,0,1.3-0.2,1.7-0.5c0.4-0.3,0.7-0.7,0.9-1.2
			c0.2-0.5,0.3-1,0.4-1.7c0-0.6,0.1-1.2,0.1-1.7V11.2h3.5v20.5c0,0.9-0.1,1.8-0.3,2.6c-0.2,0.8-0.5,1.6-1,2.3s-1.1,1.2-1.9,1.6
			c-0.8,0.4-1.8,0.6-3.1,0.6c-0.6,0-1.4-0.1-2.2-0.3c-0.9-0.2-1.6-0.4-2.2-0.7L1369.2,35.4z M1377.2,7.6c-0.8,0-1.3-0.2-1.7-0.7
			c-0.4-0.5-0.6-1.1-0.6-1.7c0-0.7,0.2-1.3,0.6-1.8c0.4-0.5,1-0.7,1.7-0.7c0.8,0,1.4,0.2,1.8,0.7c0.4,0.5,0.6,1.1,0.6,1.8
			c0,0.7-0.2,1.3-0.6,1.7C1378.6,7.3,1378,7.6,1377.2,7.6z"/>
		<path class="st0" d="M1392.8,30.9c-1.6,0-3-0.3-4.1-0.8c-1.1-0.5-2-1.2-2.6-2.1s-1.1-2-1.4-3.2c-0.3-1.2-0.4-2.6-0.4-4.1
			c0-1.5,0.2-2.8,0.5-4.1c0.4-1.3,0.9-2.3,1.6-3.2s1.6-1.6,2.7-2.1c1.1-0.5,2.4-0.8,3.8-0.8c1.5,0,2.8,0.3,3.9,0.8
			c1.1,0.5,2,1.2,2.7,2.1c0.7,0.9,1.2,2,1.5,3.2s0.5,2.6,0.5,4.1c0,1.5-0.2,2.9-0.5,4.1c-0.3,1.2-0.8,2.3-1.5,3.2
			c-0.7,0.9-1.6,1.6-2.7,2.1C1395.7,30.7,1394.4,30.9,1392.8,30.9z M1392.9,28.4c1.8,0,3.1-0.7,3.9-2c0.7-1.3,1.1-3.2,1.1-5.7
			c0-2.4-0.4-4.3-1.1-5.6c-0.7-1.3-2-2-3.9-2c-1.8,0-3.1,0.6-3.9,1.9c-0.7,1.3-1.1,3.2-1.1,5.7c0,1.2,0.1,2.3,0.3,3.2
			c0.2,1,0.5,1.8,0.9,2.4c0.4,0.7,0.9,1.2,1.6,1.5C1391.2,28.2,1392,28.4,1392.9,28.4z"/>
		<path class="st0" d="M1405.9,26.7c0.6,0.3,1.4,0.7,2.4,1.1c1,0.4,2.1,0.6,3.4,0.6c1.3,0,2.4-0.2,3.2-0.7s1.2-1.2,1.2-2.2
			c0-0.6-0.1-1.1-0.4-1.4c-0.3-0.4-0.6-0.7-1-0.9c-0.4-0.2-0.9-0.4-1.5-0.6c-0.6-0.2-1.2-0.3-1.8-0.5c-0.7-0.2-1.4-0.4-2.1-0.6
			c-0.7-0.3-1.3-0.6-1.9-1c-0.5-0.4-1-0.9-1.3-1.6c-0.3-0.6-0.5-1.4-0.5-2.4c0-0.8,0.1-1.6,0.4-2.3c0.3-0.7,0.7-1.3,1.3-1.8
			c0.6-0.5,1.4-0.9,2.3-1.2c0.9-0.3,2-0.5,3.2-0.5s2.4,0.1,3.4,0.4c1.1,0.3,2,0.6,2.7,1l-1.1,2.3c-1.6-0.9-3.3-1.3-5.1-1.3
			c-1.2,0-2.2,0.2-2.9,0.6c-0.7,0.4-1,1.1-1,2.1c0,0.6,0.1,1,0.3,1.4c0.2,0.4,0.5,0.7,0.9,0.9c0.4,0.2,0.8,0.4,1.4,0.6
			c0.5,0.2,1.1,0.3,1.6,0.5c0.7,0.2,1.4,0.4,2.1,0.6c0.7,0.2,1.4,0.5,2,1c0.6,0.4,1.1,1,1.5,1.6c0.4,0.7,0.6,1.5,0.6,2.6
			c0,1.9-0.6,3.4-1.8,4.4c-1.2,1.1-3.1,1.6-5.6,1.6c-1.7,0-3.1-0.2-4.4-0.6c-1.2-0.4-2.1-0.8-2.7-1.2L1405.9,26.7z"/>
		<path class="st0" d="M1434.7,28.7c-0.7,0.6-1.6,1.1-2.5,1.6s-2.1,0.7-3.5,0.7c-1.9,0-3.4-0.5-4.5-1.5c-1.1-1-1.7-2.6-1.7-4.7
			c0-1.1,0.2-2.1,0.6-2.8s0.9-1.4,1.7-1.9s1.6-0.9,2.6-1.1c1-0.2,2.1-0.3,3.3-0.3h3.3v-1c0-1.6-0.2-2.7-0.7-3.4
			c-0.5-0.7-1.4-1-2.8-1c-1.8,0-3.7,0.4-5.6,1.1l-0.9-2.4c0.7-0.3,1.7-0.6,2.8-0.9c1.1-0.3,2.5-0.5,4.1-0.5c1.5,0,2.7,0.2,3.5,0.6
			c0.9,0.4,1.5,1,2,1.7c0.4,0.7,0.7,1.5,0.9,2.5s0.2,2,0.2,3.1v8.2l1.6,2.4l-2.5,1.9L1434.7,28.7z M1433.9,21h-3
			c-1.7,0-3,0.3-3.7,0.8c-0.7,0.5-1.1,1.5-1.1,2.8c0,1.2,0.3,2.2,0.8,2.8c0.5,0.6,1.3,0.9,2.4,0.9c1.1,0,2.1-0.2,2.9-0.6
			c0.8-0.4,1.4-0.8,1.8-1.3V21z"/>
		<path class="st0" d="M1442.6,26.7c0.6,0.3,1.4,0.7,2.4,1.1c1,0.4,2.1,0.6,3.4,0.6c1.3,0,2.4-0.2,3.2-0.7s1.2-1.2,1.2-2.2
			c0-0.6-0.1-1.1-0.4-1.4c-0.3-0.4-0.6-0.7-1-0.9c-0.4-0.2-0.9-0.4-1.5-0.6c-0.6-0.2-1.2-0.3-1.8-0.5c-0.7-0.2-1.4-0.4-2.1-0.6
			c-0.7-0.3-1.3-0.6-1.9-1c-0.5-0.4-1-0.9-1.3-1.6c-0.3-0.6-0.5-1.4-0.5-2.4c0-0.8,0.1-1.6,0.4-2.3c0.3-0.7,0.7-1.3,1.3-1.8
			c0.6-0.5,1.4-0.9,2.3-1.2c0.9-0.3,2-0.5,3.2-0.5s2.4,0.1,3.4,0.4c1.1,0.3,2,0.6,2.7,1l-1.1,2.3c-1.6-0.9-3.3-1.3-5.1-1.3
			c-1.2,0-2.2,0.2-2.9,0.6c-0.7,0.4-1,1.1-1,2.1c0,0.6,0.1,1,0.3,1.4c0.2,0.4,0.5,0.7,0.9,0.9c0.4,0.2,0.8,0.4,1.4,0.6
			c0.5,0.2,1.1,0.3,1.6,0.5c0.7,0.2,1.4,0.4,2.1,0.6c0.7,0.2,1.4,0.5,2,1c0.6,0.4,1.1,1,1.5,1.6c0.4,0.7,0.6,1.5,0.6,2.6
			c0,1.9-0.6,3.4-1.8,4.4c-1.2,1.1-3.1,1.6-5.6,1.6c-1.7,0-3.1-0.2-4.4-0.6c-1.2-0.4-2.1-0.8-2.7-1.2L1442.6,26.7z"/>
		<path class="st0" d="M56.6,101.5c0.4,0.2,0.9,0.3,1.5,0.5c0.6,0.2,1.3,0.3,2.2,0.3c1,0,1.7-0.3,2.2-0.9c0.5-0.6,0.9-1.4,1.2-2.6
			l0.8-3.1h-0.6c-0.8,0-1.5-0.1-2.1-0.3c-0.6-0.2-1.1-0.5-1.6-0.9s-0.8-1-1.2-1.7c-0.3-0.7-0.6-1.6-0.9-2.6l-3.5-12.9l3.5-0.6
			l3.5,13.1c0.2,0.7,0.4,1.3,0.6,1.7s0.4,0.8,0.7,1c0.2,0.2,0.5,0.4,0.8,0.5s0.6,0.1,0.9,0.1h0.5l4.1-16.5l3.2,0.6l-5.7,21.8
			c-0.5,1.9-1.3,3.3-2.3,4.2c-1,0.9-2.4,1.3-4.2,1.3c-0.5,0-0.9,0-1.4-0.1c-0.5-0.1-0.9-0.2-1.3-0.3c-0.4-0.1-0.8-0.2-1.1-0.3
			c-0.3-0.1-0.6-0.2-0.8-0.3L56.6,101.5z"/>
		<path class="st0" d="M82.2,92.7c0.6,0.3,1.4,0.7,2.4,1.1c1,0.4,2.1,0.6,3.4,0.6c1.3,0,2.4-0.2,3.2-0.7c0.8-0.5,1.2-1.2,1.2-2.2
			c0-0.6-0.1-1.1-0.4-1.4c-0.3-0.4-0.6-0.7-1-0.9c-0.4-0.2-0.9-0.4-1.5-0.6s-1.2-0.3-1.8-0.5c-0.7-0.2-1.4-0.4-2.1-0.6
			c-0.7-0.3-1.3-0.6-1.9-1c-0.5-0.4-1-0.9-1.3-1.6c-0.3-0.6-0.5-1.4-0.5-2.4c0-0.8,0.1-1.6,0.4-2.3c0.3-0.7,0.7-1.3,1.3-1.8
			c0.6-0.5,1.4-0.9,2.3-1.2c0.9-0.3,2-0.5,3.2-0.5c1.2,0,2.4,0.1,3.4,0.4c1.1,0.3,2,0.6,2.7,1l-1.1,2.3C92.5,79.5,90.8,79,89,79
			c-1.2,0-2.2,0.2-2.9,0.6c-0.7,0.4-1,1.1-1,2.1c0,0.6,0.1,1,0.3,1.4c0.2,0.4,0.5,0.7,0.9,0.9c0.4,0.2,0.8,0.4,1.4,0.6
			c0.5,0.2,1.1,0.3,1.6,0.5c0.7,0.2,1.4,0.4,2.1,0.6c0.7,0.2,1.4,0.5,2,1c0.6,0.4,1.1,1,1.5,1.6c0.4,0.7,0.6,1.5,0.6,2.6
			c0,1.9-0.6,3.4-1.8,4.4c-1.2,1.1-3.1,1.6-5.6,1.6c-1.7,0-3.1-0.2-4.4-0.6c-1.2-0.4-2.1-0.8-2.7-1.2L82.2,92.7z"/>
		<path class="st0" d="M114.6,95.5c-0.6,0.4-1.5,0.7-2.6,1s-2.4,0.5-3.6,0.5c-1.7,0-3.2-0.2-4.4-0.7c-1.2-0.5-2.1-1.2-2.8-2.1
			s-1.2-2-1.5-3.2c-0.3-1.3-0.4-2.6-0.4-4.2c0-1.4,0.2-2.7,0.5-4c0.3-1.2,0.8-2.3,1.5-3.2c0.7-0.9,1.6-1.7,2.6-2.2
			c1.1-0.5,2.3-0.8,3.8-0.8c1.4,0,2.6,0.3,3.6,0.9c1,0.6,1.8,1.3,2.4,2.3s1,2,1.3,3.2c0.3,1.2,0.4,2.3,0.4,3.5l-1.3,1.3h-11.3
			c0.1,2.2,0.6,3.9,1.5,5c0.9,1.1,2.2,1.6,4.1,1.6c1,0,1.9-0.1,2.7-0.3c0.9-0.2,1.7-0.5,2.4-0.8L114.6,95.5z M111.8,85.2
			c0-2-0.4-3.6-1.1-4.6c-0.7-1-1.8-1.6-3.3-1.6c-1.6,0-2.7,0.5-3.3,1.6c-0.7,1.1-1.1,2.6-1.2,4.5H111.8z"/>
		<path class="st0" d="M120.5,81.2l-1.5-3.2l2.8-1.5l1.6,2.5c1.1-0.9,2.2-1.5,3.2-1.9c1-0.4,2.1-0.6,3.2-0.6c1.3,0,2.3,0.2,3.2,0.6
			c0.8,0.4,1.5,0.9,2,1.6c0.5,0.7,0.9,1.5,1.1,2.4c0.2,0.9,0.3,1.8,0.3,2.8v12.3h-3.5V84.1c0-1.6-0.3-2.7-1-3.5
			c-0.6-0.7-1.6-1.1-2.9-1.1c-1,0-1.9,0.2-2.8,0.5s-1.6,0.8-2.2,1.3v14.9h-3.5V81.2z"/>
		<path class="st0" d="M141.6,92.7c0.6,0.3,1.4,0.7,2.4,1.1c1,0.4,2.1,0.6,3.4,0.6c1.3,0,2.4-0.2,3.2-0.7c0.8-0.5,1.2-1.2,1.2-2.2
			c0-0.6-0.1-1.1-0.4-1.4c-0.3-0.4-0.6-0.7-1-0.9c-0.4-0.2-0.9-0.4-1.5-0.6s-1.2-0.3-1.8-0.5c-0.7-0.2-1.4-0.4-2.1-0.6
			c-0.7-0.3-1.3-0.6-1.9-1c-0.5-0.4-1-0.9-1.3-1.6c-0.3-0.6-0.5-1.4-0.5-2.4c0-0.8,0.1-1.6,0.4-2.3c0.3-0.7,0.7-1.3,1.3-1.8
			c0.6-0.5,1.4-0.9,2.3-1.2c0.9-0.3,2-0.5,3.2-0.5c1.2,0,2.4,0.1,3.4,0.4c1.1,0.3,2,0.6,2.7,1l-1.1,2.3c-1.6-0.9-3.3-1.3-5.1-1.3
			c-1.2,0-2.2,0.2-2.9,0.6c-0.7,0.4-1,1.1-1,2.1c0,0.6,0.1,1,0.3,1.4c0.2,0.4,0.5,0.7,0.9,0.9c0.4,0.2,0.8,0.4,1.4,0.6
			c0.5,0.2,1.1,0.3,1.6,0.5c0.7,0.2,1.4,0.4,2.1,0.6c0.7,0.2,1.4,0.5,2,1c0.6,0.4,1.1,1,1.5,1.6c0.4,0.7,0.6,1.5,0.6,2.6
			c0,1.9-0.6,3.4-1.8,4.4c-1.2,1.1-3.1,1.6-5.6,1.6c-1.7,0-3.1-0.2-4.4-0.6c-1.2-0.4-2.1-0.8-2.7-1.2L141.6,92.7z"/>
		<path class="st0" d="M170.3,94.7c-0.7,0.6-1.6,1.1-2.5,1.6c-0.9,0.5-2.1,0.7-3.5,0.7c-1.9,0-3.4-0.5-4.5-1.5
			c-1.1-1-1.7-2.6-1.7-4.7c0-1.1,0.2-2.1,0.6-2.8c0.4-0.8,0.9-1.4,1.7-1.9c0.7-0.5,1.6-0.9,2.6-1.1c1-0.2,2.1-0.3,3.3-0.3h3.3v-1
			c0-1.6-0.2-2.7-0.7-3.4c-0.5-0.7-1.4-1-2.8-1c-1.8,0-3.7,0.4-5.6,1.1l-0.9-2.4c0.7-0.3,1.7-0.6,2.8-0.9c1.1-0.3,2.5-0.5,4.1-0.5
			c1.5,0,2.7,0.2,3.5,0.6c0.9,0.4,1.5,1,2,1.7c0.4,0.7,0.7,1.5,0.9,2.5c0.1,1,0.2,2,0.2,3.1v8.2l1.6,2.4l-2.5,1.9L170.3,94.7z
			 M169.5,87h-3c-1.7,0-3,0.3-3.7,0.8c-0.7,0.5-1.1,1.5-1.1,2.8c0,1.2,0.3,2.2,0.8,2.8c0.5,0.6,1.3,0.9,2.4,0.9
			c1.1,0,2.1-0.2,2.9-0.6s1.4-0.8,1.8-1.3V87z"/>
		<path class="st0" d="M193.2,95.4c-0.7,0.4-1.5,0.7-2.6,1c-1,0.3-2.2,0.5-3.6,0.5c-1.7,0-3.2-0.2-4.3-0.7c-1.1-0.5-2.1-1.2-2.7-2.1
			c-0.7-0.9-1.2-1.9-1.5-3.2c-0.3-1.2-0.4-2.6-0.4-4.1c0-1.5,0.2-2.8,0.5-4.1c0.4-1.3,0.9-2.4,1.7-3.3c0.7-0.9,1.7-1.7,2.9-2.2
			c1.2-0.5,2.5-0.8,4.2-0.8c1.2,0,2.2,0.2,3.2,0.5c1,0.3,1.8,0.7,2.5,1.1l-1.1,2.4c-0.7-0.4-1.4-0.7-2.2-0.9
			c-0.8-0.2-1.6-0.4-2.6-0.4c-1.9,0-3.2,0.6-4.1,1.9s-1.3,3.2-1.3,5.8c0,1.1,0.1,2.2,0.3,3.1c0.2,0.9,0.5,1.7,0.9,2.3
			c0.4,0.6,1,1.1,1.7,1.5c0.7,0.3,1.6,0.5,2.6,0.5c0.8,0,1.6-0.1,2.3-0.2c0.7-0.2,1.5-0.5,2.5-0.9L193.2,95.4z"/>
		<path class="st0" d="M197.2,79.7h-2.4v-2.5h6v19h-3.5V79.7z M198.6,73.7c-0.7,0-1.3-0.2-1.7-0.7s-0.6-1.1-0.6-1.8
			c0-0.7,0.2-1.3,0.6-1.8s1-0.7,1.7-0.7c0.8,0,1.3,0.2,1.8,0.7c0.4,0.5,0.6,1.1,0.6,1.8c0,0.7-0.2,1.3-0.6,1.8
			C200,73.4,199.4,73.7,198.6,73.7z"/>
		<path class="st0" d="M214.5,96.9c-1.6,0-3-0.3-4.1-0.8c-1.1-0.5-2-1.2-2.6-2.1c-0.7-0.9-1.1-2-1.4-3.2s-0.4-2.6-0.4-4.1
			c0-1.5,0.2-2.8,0.5-4.1c0.4-1.3,0.9-2.3,1.6-3.2c0.7-0.9,1.6-1.6,2.7-2.1c1.1-0.5,2.4-0.8,3.8-0.8c1.5,0,2.8,0.3,3.9,0.8
			c1.1,0.5,2,1.2,2.7,2.1s1.2,2,1.5,3.2c0.3,1.3,0.5,2.6,0.5,4.1c0,1.5-0.2,2.9-0.5,4.1c-0.3,1.2-0.8,2.3-1.5,3.2
			c-0.7,0.9-1.6,1.6-2.7,2.1C217.4,96.7,216.1,96.9,214.5,96.9z M214.6,94.4c1.8,0,3.1-0.7,3.9-2c0.7-1.3,1.1-3.2,1.1-5.7
			c0-2.4-0.4-4.3-1.1-5.6c-0.7-1.3-2-2-3.9-2c-1.8,0-3.1,0.6-3.9,1.9c-0.7,1.3-1.1,3.2-1.1,5.7c0,1.2,0.1,2.3,0.3,3.2
			c0.2,1,0.5,1.8,0.9,2.4c0.4,0.7,0.9,1.2,1.6,1.5C212.9,94.2,213.7,94.4,214.6,94.4z M216.8,66l2.8,1.9l-5.4,6.2l-1.7-1.3L216.8,66
			z"/>
		<path class="st0" d="M228.6,81.2l-1.5-3.2l2.8-1.5l1.6,2.5c1.1-0.9,2.2-1.5,3.2-1.9c1-0.4,2.1-0.6,3.2-0.6c1.3,0,2.3,0.2,3.2,0.6
			c0.8,0.4,1.5,0.9,2,1.6c0.5,0.7,0.9,1.5,1.1,2.4c0.2,0.9,0.3,1.8,0.3,2.8v12.3h-3.5V84.1c0-1.6-0.3-2.7-1-3.5
			c-0.6-0.7-1.6-1.1-2.9-1.1c-1,0-1.9,0.2-2.8,0.5s-1.6,0.8-2.2,1.3v14.9h-3.5V81.2z"/>
		<path class="st0" d="M272,95.4c-0.7,0.4-1.5,0.7-2.6,1c-1,0.3-2.2,0.5-3.6,0.5c-1.7,0-3.2-0.2-4.3-0.7c-1.1-0.5-2.1-1.2-2.7-2.1
			c-0.7-0.9-1.2-1.9-1.5-3.2c-0.3-1.2-0.4-2.6-0.4-4.1c0-1.5,0.2-2.8,0.5-4.1c0.4-1.3,0.9-2.4,1.7-3.3c0.7-0.9,1.7-1.7,2.9-2.2
			c1.2-0.5,2.5-0.8,4.2-0.8c1.2,0,2.2,0.2,3.2,0.5c1,0.3,1.8,0.7,2.5,1.1l-1.1,2.4c-0.7-0.4-1.4-0.7-2.2-0.9
			c-0.8-0.2-1.6-0.4-2.6-0.4c-1.9,0-3.2,0.6-4.1,1.9s-1.3,3.2-1.3,5.8c0,1.1,0.1,2.2,0.3,3.1c0.2,0.9,0.5,1.7,0.9,2.3
			c0.4,0.6,1,1.1,1.7,1.5c0.7,0.3,1.6,0.5,2.6,0.5c0.8,0,1.6-0.1,2.3-0.2c0.7-0.2,1.5-0.5,2.5-0.9L272,95.4z"/>
		<path class="st0" d="M283,96.9c-1.6,0-3-0.3-4.1-0.8c-1.1-0.5-2-1.2-2.6-2.1c-0.7-0.9-1.1-2-1.4-3.2s-0.4-2.6-0.4-4.1
			c0-1.5,0.2-2.8,0.5-4.1c0.4-1.3,0.9-2.3,1.6-3.2c0.7-0.9,1.6-1.6,2.7-2.1c1.1-0.5,2.4-0.8,3.8-0.8c1.5,0,2.8,0.3,3.9,0.8
			c1.1,0.5,2,1.2,2.7,2.1s1.2,2,1.5,3.2c0.3,1.3,0.5,2.6,0.5,4.1c0,1.5-0.2,2.9-0.5,4.1c-0.3,1.2-0.8,2.3-1.5,3.2
			c-0.7,0.9-1.6,1.6-2.7,2.1C285.9,96.7,284.5,96.9,283,96.9z M283.1,94.4c1.8,0,3.1-0.7,3.9-2c0.7-1.3,1.1-3.2,1.1-5.7
			c0-2.4-0.4-4.3-1.1-5.6c-0.7-1.3-2-2-3.9-2c-1.8,0-3.1,0.6-3.9,1.9c-0.7,1.3-1.1,3.2-1.1,5.7c0,1.2,0.1,2.3,0.3,3.2
			c0.2,1,0.5,1.8,0.9,2.4c0.4,0.7,0.9,1.2,1.6,1.5C281.4,94.2,282.2,94.4,283.1,94.4z M285.3,66l2.8,1.9l-5.4,6.2l-1.7-1.3L285.3,66
			z"/>
		<path class="st0" d="M297,81.1l-1.5-3.2l2.8-1.5L300,79c1-0.9,2-1.6,3-1.9c1-0.3,1.9-0.5,2.7-0.5c1.4,0,2.4,0.2,3.1,0.6
			c0.7,0.4,1.3,1,1.8,1.8c1.1-1,2.2-1.6,3.3-2c1.1-0.3,2-0.5,2.7-0.5c1.3,0,2.3,0.2,3.1,0.6c0.8,0.4,1.4,0.9,1.8,1.6
			c0.4,0.7,0.7,1.5,0.8,2.4c0.1,0.9,0.2,1.8,0.2,2.8v12.3h-3.5V83.9c0-1.5-0.2-2.6-0.7-3.3c-0.4-0.7-1.3-1-2.6-1
			c-0.7,0-1.5,0.1-2.3,0.4c-0.8,0.3-1.5,0.7-2.3,1.3c0.1,0.4,0.1,0.8,0.1,1.3c0,0.5,0.1,0.9,0.1,1.3v12.3h-3.5V83.8
			c0-1.4-0.2-2.5-0.7-3.2c-0.4-0.7-1.3-1-2.6-1c-0.7,0-1.4,0.1-2.2,0.4c-0.7,0.3-1.4,0.7-2.1,1.3v15H297V81.1z"/>
		<path class="st0" d="M336.4,96.9c-1.6,0-3-0.3-4.1-0.8c-1.1-0.5-2-1.2-2.6-2.1c-0.7-0.9-1.1-2-1.4-3.2s-0.4-2.6-0.4-4.1
			c0-1.5,0.2-2.8,0.5-4.1c0.4-1.3,0.9-2.3,1.6-3.2c0.7-0.9,1.6-1.6,2.7-2.1c1.1-0.5,2.4-0.8,3.8-0.8c1.5,0,2.8,0.3,3.9,0.8
			c1.1,0.5,2,1.2,2.7,2.1s1.2,2,1.5,3.2c0.3,1.3,0.5,2.6,0.5,4.1c0,1.5-0.2,2.9-0.5,4.1c-0.3,1.2-0.8,2.3-1.5,3.2
			c-0.7,0.9-1.6,1.6-2.7,2.1C339.3,96.7,338,96.9,336.4,96.9z M336.6,94.4c1.8,0,3.1-0.7,3.9-2c0.7-1.3,1.1-3.2,1.1-5.7
			c0-2.4-0.4-4.3-1.1-5.6c-0.7-1.3-2-2-3.9-2c-1.8,0-3.1,0.6-3.9,1.9c-0.7,1.3-1.1,3.2-1.1,5.7c0,1.2,0.1,2.3,0.3,3.2
			c0.2,1,0.5,1.8,0.9,2.4c0.4,0.7,0.9,1.2,1.6,1.5C334.9,94.2,335.6,94.4,336.6,94.4z"/>
		<path class="st0" d="M363.2,94.8c-0.7,0.6-1.6,1.1-2.5,1.5c-0.9,0.4-2.1,0.6-3.3,0.6c-2.6,0-4.6-0.8-5.9-2.5c-1.3-1.7-2-4.2-2-7.7
			c0-1.5,0.2-2.9,0.6-4.2c0.4-1.3,1-2.3,1.7-3.2c0.8-0.9,1.7-1.6,2.9-2.1c1.2-0.5,2.5-0.7,4-0.7c0.7,0,1.3,0.1,1.9,0.2
			c0.6,0.1,1.1,0.2,1.6,0.3v-8.7h3.5v24.3l1.6,2.4l-2.5,1.9L363.2,94.8z M362.2,79.6c-0.4-0.1-0.9-0.2-1.5-0.4s-1.3-0.2-2.1-0.2
			c-1.9,0-3.3,0.7-4.2,2c-0.9,1.3-1.3,3.2-1.3,5.7c0,2.4,0.4,4.2,1.1,5.6c0.7,1.3,2,2,3.6,2c1.1,0,1.9-0.2,2.6-0.5s1.3-0.8,1.8-1.3
			V79.6z"/>
		<path class="st0" d="M382.7,94.7c-0.7,0.6-1.6,1.1-2.5,1.6c-0.9,0.5-2.1,0.7-3.5,0.7c-1.9,0-3.4-0.5-4.5-1.5
			c-1.1-1-1.7-2.6-1.7-4.7c0-1.1,0.2-2.1,0.6-2.8c0.4-0.8,0.9-1.4,1.7-1.9c0.7-0.5,1.6-0.9,2.6-1.1c1-0.2,2.1-0.3,3.3-0.3h3.3v-1
			c0-1.6-0.2-2.7-0.7-3.4c-0.5-0.7-1.4-1-2.8-1c-1.8,0-3.7,0.4-5.6,1.1l-0.9-2.4c0.7-0.3,1.7-0.6,2.8-0.9c1.1-0.3,2.5-0.5,4.1-0.5
			c1.5,0,2.7,0.2,3.5,0.6c0.9,0.4,1.5,1,2,1.7c0.4,0.7,0.7,1.5,0.9,2.5c0.1,1,0.2,2,0.2,3.1v8.2L387,95l-2.5,1.9L382.7,94.7z
			 M381.9,87h-3c-1.7,0-3,0.3-3.7,0.8c-0.7,0.5-1.1,1.5-1.1,2.8c0,1.2,0.3,2.2,0.8,2.8c0.5,0.6,1.3,0.9,2.4,0.9
			c1.1,0,2.1-0.2,2.9-0.6s1.4-0.8,1.8-1.3V87z"/>
		<path class="st0" d="M411.6,94.8c-0.7,0.6-1.6,1.1-2.5,1.5c-0.9,0.4-2.1,0.6-3.3,0.6c-2.6,0-4.6-0.8-5.9-2.5c-1.3-1.7-2-4.2-2-7.7
			c0-1.5,0.2-2.9,0.6-4.2c0.4-1.3,1-2.3,1.7-3.2c0.8-0.9,1.7-1.6,2.9-2.1c1.2-0.5,2.5-0.7,4-0.7c0.7,0,1.3,0.1,1.9,0.2
			c0.6,0.1,1.1,0.2,1.6,0.3v-8.7h3.5v24.3l1.6,2.4l-2.5,1.9L411.6,94.8z M410.7,79.6c-0.4-0.1-0.9-0.2-1.5-0.4s-1.3-0.2-2.1-0.2
			c-1.9,0-3.3,0.7-4.2,2c-0.9,1.3-1.3,3.2-1.3,5.7c0,2.4,0.4,4.2,1.1,5.6c0.7,1.3,2,2,3.6,2c1.1,0,1.9-0.2,2.6-0.5s1.3-0.8,1.8-1.3
			V79.6z"/>
		<path class="st0" d="M434.9,95.5c-0.6,0.4-1.5,0.7-2.6,1s-2.4,0.5-3.6,0.5c-1.7,0-3.2-0.2-4.4-0.7c-1.2-0.5-2.1-1.2-2.8-2.1
			s-1.2-2-1.5-3.2c-0.3-1.3-0.4-2.6-0.4-4.2c0-1.4,0.2-2.7,0.5-4c0.3-1.2,0.8-2.3,1.5-3.2c0.7-0.9,1.6-1.7,2.6-2.2
			c1.1-0.5,2.3-0.8,3.8-0.8c1.4,0,2.6,0.3,3.6,0.9c1,0.6,1.8,1.3,2.4,2.3s1,2,1.3,3.2c0.3,1.2,0.4,2.3,0.4,3.5l-1.3,1.3h-11.3
			c0.1,2.2,0.6,3.9,1.5,5c0.9,1.1,2.2,1.6,4.1,1.6c1,0,1.9-0.1,2.7-0.3c0.9-0.2,1.7-0.5,2.4-0.8L434.9,95.5z M432,85.2
			c0-2-0.4-3.6-1.1-4.6c-0.7-1-1.8-1.6-3.3-1.6c-1.6,0-2.7,0.5-3.3,1.6c-0.7,1.1-1.1,2.6-1.2,4.5H432z"/>
		<path class="st0" d="M448.1,81.1l-1.5-3.2l2.8-1.5l1.6,2.5c1-0.9,2-1.6,3-1.9c1-0.3,1.9-0.5,2.7-0.5c1.4,0,2.4,0.2,3.1,0.6
			c0.7,0.4,1.3,1,1.8,1.8c1.1-1,2.2-1.6,3.3-2c1.1-0.3,2-0.5,2.7-0.5c1.3,0,2.3,0.2,3.1,0.6c0.8,0.4,1.4,0.9,1.8,1.6
			c0.4,0.7,0.7,1.5,0.8,2.4c0.1,0.9,0.2,1.8,0.2,2.8v12.3h-3.5V83.9c0-1.5-0.2-2.6-0.7-3.3c-0.4-0.7-1.3-1-2.6-1
			c-0.7,0-1.5,0.1-2.3,0.4c-0.8,0.3-1.5,0.7-2.3,1.3c0.1,0.4,0.1,0.8,0.1,1.3c0,0.5,0.1,0.9,0.1,1.3v12.3h-3.5V83.8
			c0-1.4-0.2-2.5-0.7-3.2c-0.4-0.7-1.3-1-2.6-1c-0.7,0-1.4,0.1-2.2,0.4c-0.7,0.3-1.4,0.7-2.1,1.3v15h-3.5V81.1z"/>
		<path class="st0" d="M490.6,94.7c-0.7,0.6-1.6,1.1-2.5,1.6c-0.9,0.5-2.1,0.7-3.5,0.7c-1.9,0-3.4-0.5-4.5-1.5
			c-1.1-1-1.7-2.6-1.7-4.7c0-1.1,0.2-2.1,0.6-2.8c0.4-0.8,0.9-1.4,1.7-1.9c0.7-0.5,1.6-0.9,2.6-1.1c1-0.2,2.1-0.3,3.3-0.3h3.3v-1
			c0-1.6-0.2-2.7-0.7-3.4c-0.5-0.7-1.4-1-2.8-1c-1.8,0-3.7,0.4-5.6,1.1l-0.9-2.4c0.7-0.3,1.7-0.6,2.8-0.9c1.1-0.3,2.5-0.5,4.1-0.5
			c1.5,0,2.7,0.2,3.5,0.6c0.9,0.4,1.5,1,2,1.7c0.4,0.7,0.7,1.5,0.9,2.5c0.1,1,0.2,2,0.2,3.1v8.2l1.6,2.4l-2.5,1.9L490.6,94.7z
			 M489.8,87h-3c-1.7,0-3,0.3-3.7,0.8c-0.7,0.5-1.1,1.5-1.1,2.8c0,1.2,0.3,2.2,0.8,2.8c0.5,0.6,1.3,0.9,2.4,0.9
			c1.1,0,2.1-0.2,2.9-0.6s1.4-0.8,1.8-1.3V87z"/>
		<path class="st0" d="M499.5,81.2l-1.5-3.2l2.8-1.5l1.6,2.5c1.1-0.9,2.2-1.5,3.2-1.9c1-0.4,2.1-0.6,3.2-0.6c1.3,0,2.3,0.2,3.2,0.6
			c0.8,0.4,1.5,0.9,2,1.6c0.5,0.7,0.9,1.5,1.1,2.4c0.2,0.9,0.3,1.8,0.3,2.8v12.3h-3.5V84.1c0-1.6-0.3-2.7-1-3.5
			c-0.6-0.7-1.6-1.1-2.9-1.1c-1,0-1.9,0.2-2.8,0.5c-0.9,0.3-1.6,0.8-2.2,1.3v14.9h-3.5V81.2z"/>
		<path class="st0" d="M535.9,95.5c-0.6,0.4-1.5,0.7-2.6,1c-1.2,0.3-2.4,0.5-3.6,0.5c-1.7,0-3.2-0.2-4.4-0.7
			c-1.2-0.5-2.1-1.2-2.8-2.1c-0.7-0.9-1.2-2-1.5-3.2c-0.3-1.3-0.4-2.6-0.4-4.2c0-1.4,0.2-2.7,0.5-4c0.3-1.2,0.8-2.3,1.5-3.2
			c0.7-0.9,1.6-1.7,2.6-2.2c1.1-0.5,2.3-0.8,3.8-0.8c1.4,0,2.6,0.3,3.6,0.9c1,0.6,1.8,1.3,2.4,2.3c0.6,0.9,1,2,1.3,3.2
			c0.3,1.2,0.4,2.3,0.4,3.5l-1.3,1.3h-11.3c0.1,2.2,0.6,3.9,1.5,5c0.9,1.1,2.2,1.6,4.1,1.6c1,0,1.9-0.1,2.7-0.3
			c0.9-0.2,1.7-0.5,2.4-0.8L535.9,95.5z M533,85.2c0-2-0.4-3.6-1.1-4.6c-0.7-1-1.8-1.6-3.3-1.6c-1.6,0-2.7,0.5-3.3,1.6
			c-0.7,1.1-1.1,2.6-1.2,4.5H533z"/>
		<path class="st0" d="M535.4,101.4c0.5,0.2,1,0.3,1.5,0.5s1.1,0.2,1.8,0.2c0.7,0,1.3-0.2,1.7-0.5c0.4-0.3,0.7-0.7,0.9-1.2
			c0.2-0.5,0.3-1,0.4-1.7c0-0.6,0.1-1.2,0.1-1.7V77.2h3.5v20.5c0,0.9-0.1,1.8-0.3,2.6c-0.2,0.8-0.5,1.6-1,2.3s-1.1,1.2-1.9,1.6
			c-0.8,0.4-1.8,0.6-3.1,0.6c-0.6,0-1.4-0.1-2.2-0.3c-0.9-0.2-1.6-0.4-2.2-0.7L535.4,101.4z M543.5,73.6c-0.8,0-1.3-0.2-1.7-0.7
			c-0.4-0.5-0.6-1.1-0.6-1.7c0-0.7,0.2-1.3,0.6-1.8c0.4-0.5,1-0.7,1.7-0.7c0.8,0,1.4,0.2,1.8,0.7c0.4,0.5,0.6,1.1,0.6,1.8
			c0,0.7-0.2,1.3-0.6,1.7C544.8,73.3,544.2,73.6,543.5,73.6z"/>
		<path class="st0" d="M559,96.9c-1.6,0-3-0.3-4.1-0.8c-1.1-0.5-2-1.2-2.6-2.1s-1.1-2-1.4-3.2c-0.3-1.2-0.4-2.6-0.4-4.1
			c0-1.5,0.2-2.8,0.5-4.1c0.4-1.3,0.9-2.3,1.6-3.2s1.6-1.6,2.7-2.1c1.1-0.5,2.4-0.8,3.8-0.8c1.5,0,2.8,0.3,3.9,0.8
			c1.1,0.5,2,1.2,2.7,2.1c0.7,0.9,1.2,2,1.5,3.2s0.5,2.6,0.5,4.1c0,1.5-0.2,2.9-0.5,4.1c-0.3,1.2-0.8,2.3-1.5,3.2
			c-0.7,0.9-1.6,1.6-2.7,2.1C561.9,96.7,560.6,96.9,559,96.9z M559.1,94.4c1.8,0,3.1-0.7,3.9-2c0.7-1.3,1.1-3.2,1.1-5.7
			c0-2.4-0.4-4.3-1.1-5.6c-0.7-1.3-2-2-3.9-2c-1.8,0-3.1,0.6-3.9,1.9c-0.7,1.3-1.1,3.2-1.1,5.7c0,1.2,0.1,2.3,0.3,3.2
			c0.2,1,0.5,1.8,0.9,2.4c0.4,0.7,0.9,1.2,1.6,1.5C557.4,94.2,558.2,94.4,559.1,94.4z"/>
		<path class="st0" d="M580.4,81.2l-1.5-3.2l2.8-1.5l1.6,2.5c1.1-0.9,2.2-1.5,3.2-1.9c1-0.4,2.1-0.6,3.2-0.6c1.3,0,2.3,0.2,3.2,0.6
			s1.5,0.9,2,1.6c0.5,0.7,0.9,1.5,1.1,2.4c0.2,0.9,0.3,1.8,0.3,2.8v12.3h-3.5V84.1c0-1.6-0.3-2.7-1-3.5c-0.6-0.7-1.6-1.1-2.9-1.1
			c-1,0-1.9,0.2-2.8,0.5s-1.6,0.8-2.2,1.3v14.9h-3.5V81.2z"/>
		<path class="st0" d="M610,96.9c-1.6,0-3-0.3-4.1-0.8c-1.1-0.5-2-1.2-2.6-2.1s-1.1-2-1.4-3.2c-0.3-1.2-0.4-2.6-0.4-4.1
			c0-1.5,0.2-2.8,0.5-4.1c0.4-1.3,0.9-2.3,1.6-3.2s1.6-1.6,2.7-2.1c1.1-0.5,2.4-0.8,3.8-0.8c1.5,0,2.8,0.3,3.9,0.8
			c1.1,0.5,2,1.2,2.7,2.1c0.7,0.9,1.2,2,1.5,3.2s0.5,2.6,0.5,4.1c0,1.5-0.2,2.9-0.5,4.1c-0.3,1.2-0.8,2.3-1.5,3.2
			c-0.7,0.9-1.6,1.6-2.7,2.1C612.9,96.7,611.5,96.9,610,96.9z M610.1,94.4c1.8,0,3.1-0.7,3.9-2c0.7-1.3,1.1-3.2,1.1-5.7
			c0-2.4-0.4-4.3-1.1-5.6c-0.7-1.3-2-2-3.9-2c-1.8,0-3.1,0.6-3.9,1.9c-0.7,1.3-1.1,3.2-1.1,5.7c0,1.2,0.1,2.3,0.3,3.2
			c0.2,1,0.5,1.8,0.9,2.4c0.4,0.7,0.9,1.2,1.6,1.5C608.4,94.2,609.2,94.4,610.1,94.4z"/>
		<path class="st0" d="M644,94.8c-0.7,0.6-1.6,1.1-2.5,1.5s-2.1,0.6-3.3,0.6c-2.6,0-4.6-0.8-5.9-2.5s-2-4.2-2-7.7
			c0-1.5,0.2-2.9,0.6-4.2s1-2.3,1.7-3.2s1.7-1.6,2.9-2.1c1.2-0.5,2.5-0.7,4-0.7c0.7,0,1.3,0.1,1.9,0.2c0.6,0.1,1.1,0.2,1.6,0.3v-8.7
			h3.5v24.3l1.6,2.4l-2.5,1.9L644,94.8z M643.1,79.6c-0.4-0.1-0.9-0.2-1.5-0.4c-0.6-0.1-1.3-0.2-2.1-0.2c-1.9,0-3.3,0.7-4.2,2
			c-0.9,1.3-1.3,3.2-1.3,5.7c0,2.4,0.4,4.2,1.1,5.6c0.7,1.3,2,2,3.6,2c1.1,0,1.9-0.2,2.6-0.5c0.7-0.4,1.3-0.8,1.8-1.3V79.6z"/>
		<path class="st0" d="M667.3,95.5c-0.6,0.4-1.5,0.7-2.6,1c-1.2,0.3-2.4,0.5-3.6,0.5c-1.7,0-3.2-0.2-4.4-0.7
			c-1.2-0.5-2.1-1.2-2.8-2.1c-0.7-0.9-1.2-2-1.5-3.2c-0.3-1.3-0.4-2.6-0.4-4.2c0-1.4,0.2-2.7,0.5-4c0.3-1.2,0.8-2.3,1.5-3.2
			c0.7-0.9,1.6-1.7,2.6-2.2c1.1-0.5,2.3-0.8,3.8-0.8c1.4,0,2.6,0.3,3.6,0.9c1,0.6,1.8,1.3,2.4,2.3c0.6,0.9,1,2,1.3,3.2
			c0.3,1.2,0.4,2.3,0.4,3.5l-1.3,1.3h-11.3c0.1,2.2,0.6,3.9,1.5,5c0.9,1.1,2.2,1.6,4.1,1.6c1,0,1.9-0.1,2.7-0.3
			c0.9-0.2,1.7-0.5,2.4-0.8L667.3,95.5z M664.4,85.2c0-2-0.4-3.6-1.1-4.6c-0.7-1-1.8-1.6-3.3-1.6c-1.6,0-2.7,0.5-3.3,1.6
			c-0.7,1.1-1.1,2.6-1.2,4.5H664.4z"/>
		<path class="st0" d="M666.8,101.4c0.5,0.2,1,0.3,1.5,0.5s1.1,0.2,1.8,0.2c0.7,0,1.3-0.2,1.7-0.5c0.4-0.3,0.7-0.7,0.9-1.2
			c0.2-0.5,0.3-1,0.4-1.7c0-0.6,0.1-1.2,0.1-1.7V77.2h3.5v20.5c0,0.9-0.1,1.8-0.3,2.6c-0.2,0.8-0.5,1.6-1,2.3s-1.1,1.2-1.9,1.6
			c-0.8,0.4-1.8,0.6-3.1,0.6c-0.6,0-1.4-0.1-2.2-0.3c-0.9-0.2-1.6-0.4-2.2-0.7L666.8,101.4z M674.9,73.6c-0.8,0-1.3-0.2-1.7-0.7
			c-0.4-0.5-0.6-1.1-0.6-1.7c0-0.7,0.2-1.3,0.6-1.8c0.4-0.5,1-0.7,1.7-0.7c0.8,0,1.4,0.2,1.8,0.7c0.4,0.5,0.6,1.1,0.6,1.8
			c0,0.7-0.2,1.3-0.6,1.7C676.3,73.3,675.7,73.6,674.9,73.6z"/>
		<path class="st0" d="M693.6,94.7c-0.7,0.6-1.6,1.1-2.5,1.6s-2.1,0.7-3.5,0.7c-1.9,0-3.4-0.5-4.5-1.5c-1.1-1-1.7-2.6-1.7-4.7
			c0-1.1,0.2-2.1,0.6-2.8s0.9-1.4,1.7-1.9s1.6-0.9,2.6-1.1c1-0.2,2.1-0.3,3.3-0.3h3.3v-1c0-1.6-0.2-2.7-0.7-3.4
			c-0.5-0.7-1.4-1-2.8-1c-1.8,0-3.7,0.4-5.6,1.1l-0.9-2.4c0.7-0.3,1.7-0.6,2.8-0.9c1.1-0.3,2.5-0.5,4.1-0.5c1.5,0,2.7,0.2,3.5,0.6
			c0.9,0.4,1.5,1,2,1.7c0.4,0.7,0.7,1.5,0.9,2.5s0.2,2,0.2,3.1v8.2l1.6,2.4l-2.5,1.9L693.6,94.7z M692.8,87h-3c-1.7,0-3,0.3-3.7,0.8
			c-0.7,0.5-1.1,1.5-1.1,2.8c0,1.2,0.3,2.2,0.8,2.8c0.5,0.6,1.3,0.9,2.4,0.9c1.1,0,2.1-0.2,2.9-0.6c0.8-0.4,1.4-0.8,1.8-1.3V87z"/>
		<path class="st0" d="M702.4,81.2l-1.5-3.2l2.8-1.5l1.6,2.5c1.1-0.9,2.2-1.5,3.2-1.9c1-0.4,2.1-0.6,3.2-0.6c1.3,0,2.3,0.2,3.2,0.6
			s1.5,0.9,2,1.6c0.5,0.7,0.9,1.5,1.1,2.4c0.2,0.9,0.3,1.8,0.3,2.8v12.3h-3.5V84.1c0-1.6-0.3-2.7-1-3.5c-0.6-0.7-1.6-1.1-2.9-1.1
			c-1,0-1.9,0.2-2.8,0.5s-1.6,0.8-2.2,1.3v14.9h-3.5V81.2z"/>
		<path class="st0" d="M737.1,94.8c-0.7,0.6-1.6,1.1-2.5,1.5s-2.1,0.6-3.3,0.6c-2.6,0-4.6-0.8-5.9-2.5s-2-4.2-2-7.7
			c0-1.5,0.2-2.9,0.6-4.2s1-2.3,1.7-3.2s1.7-1.6,2.9-2.1c1.2-0.5,2.5-0.7,4-0.7c0.7,0,1.3,0.1,1.9,0.2c0.6,0.1,1.1,0.2,1.6,0.3v-8.7
			h3.5v24.3l1.6,2.4l-2.5,1.9L737.1,94.8z M736.2,79.6c-0.4-0.1-0.9-0.2-1.5-0.4c-0.6-0.1-1.3-0.2-2.1-0.2c-1.9,0-3.3,0.7-4.2,2
			c-0.9,1.3-1.3,3.2-1.3,5.7c0,2.4,0.4,4.2,1.1,5.6c0.7,1.3,2,2,3.6,2c1.1,0,1.9-0.2,2.6-0.5c0.7-0.4,1.3-0.8,1.8-1.3V79.6z"/>
		<path class="st0" d="M753.6,96.9c-1.6,0-3-0.3-4.1-0.8c-1.1-0.5-2-1.2-2.6-2.1s-1.1-2-1.4-3.2c-0.3-1.2-0.4-2.6-0.4-4.1
			c0-1.5,0.2-2.8,0.5-4.1c0.4-1.3,0.9-2.3,1.6-3.2s1.6-1.6,2.7-2.1c1.1-0.5,2.4-0.8,3.8-0.8c1.5,0,2.8,0.3,3.9,0.8
			c1.1,0.5,2,1.2,2.7,2.1c0.7,0.9,1.2,2,1.5,3.2s0.5,2.6,0.5,4.1c0,1.5-0.2,2.9-0.5,4.1c-0.3,1.2-0.8,2.3-1.5,3.2
			c-0.7,0.9-1.6,1.6-2.7,2.1C756.5,96.7,755.2,96.9,753.6,96.9z M753.7,94.4c1.8,0,3.1-0.7,3.9-2c0.7-1.3,1.1-3.2,1.1-5.7
			c0-2.4-0.4-4.3-1.1-5.6c-0.7-1.3-2-2-3.9-2c-1.8,0-3.1,0.6-3.9,1.9c-0.7,1.3-1.1,3.2-1.1,5.7c0,1.2,0.1,2.3,0.3,3.2
			c0.2,1,0.5,1.8,0.9,2.4c0.4,0.7,0.9,1.2,1.6,1.5C752,94.2,752.8,94.4,753.7,94.4z"/>
		<path class="st0" d="M787.7,94.8c-0.7,0.6-1.6,1.1-2.5,1.5s-2.1,0.6-3.3,0.6c-2.6,0-4.6-0.8-5.9-2.5s-2-4.2-2-7.7
			c0-1.5,0.2-2.9,0.6-4.2s1-2.3,1.7-3.2s1.7-1.6,2.9-2.1c1.2-0.5,2.5-0.7,4-0.7c0.7,0,1.3,0.1,1.9,0.2c0.6,0.1,1.1,0.2,1.6,0.3v-8.7
			h3.5v24.3l1.6,2.4l-2.5,1.9L787.7,94.8z M786.7,79.6c-0.4-0.1-0.9-0.2-1.5-0.4c-0.6-0.1-1.3-0.2-2.1-0.2c-1.9,0-3.3,0.7-4.2,2
			c-0.9,1.3-1.3,3.2-1.3,5.7c0,2.4,0.4,4.2,1.1,5.6c0.7,1.3,2,2,3.6,2c1.1,0,1.9-0.2,2.6-0.5c0.7-0.4,1.3-0.8,1.8-1.3V79.6z"/>
		<path class="st0" d="M810.9,95.5c-0.6,0.4-1.5,0.7-2.6,1c-1.2,0.3-2.4,0.5-3.6,0.5c-1.7,0-3.2-0.2-4.4-0.7
			c-1.2-0.5-2.1-1.2-2.8-2.1c-0.7-0.9-1.2-2-1.5-3.2c-0.3-1.3-0.4-2.6-0.4-4.2c0-1.4,0.2-2.7,0.5-4c0.3-1.2,0.8-2.3,1.5-3.2
			c0.7-0.9,1.6-1.7,2.6-2.2c1.1-0.5,2.3-0.8,3.8-0.8c1.4,0,2.6,0.3,3.6,0.9c1,0.6,1.8,1.3,2.4,2.3c0.6,0.9,1,2,1.3,3.2
			c0.3,1.2,0.4,2.3,0.4,3.5l-1.3,1.3h-11.3c0.1,2.2,0.6,3.9,1.5,5c0.9,1.1,2.2,1.6,4.1,1.6c1,0,1.9-0.1,2.7-0.3
			c0.9-0.2,1.7-0.5,2.4-0.8L810.9,95.5z M808.1,85.2c0-2-0.4-3.6-1.1-4.6c-0.7-1-1.8-1.6-3.3-1.6c-1.6,0-2.7,0.5-3.3,1.6
			c-0.7,1.1-1.1,2.6-1.2,4.5H808.1z"/>
		<path class="st0" d="M824,70.8h-2.4v-2.5h5.9v27.9H824V70.8z"/>
		<path class="st0" d="M844.4,94.7c-0.7,0.6-1.6,1.1-2.5,1.6s-2.1,0.7-3.5,0.7c-1.9,0-3.4-0.5-4.5-1.5c-1.1-1-1.7-2.6-1.7-4.7
			c0-1.1,0.2-2.1,0.6-2.8s0.9-1.4,1.7-1.9s1.6-0.9,2.6-1.1c1-0.2,2.1-0.3,3.3-0.3h3.3v-1c0-1.6-0.2-2.7-0.7-3.4
			c-0.5-0.7-1.4-1-2.8-1c-1.8,0-3.7,0.4-5.6,1.1l-0.9-2.4c0.7-0.3,1.7-0.6,2.8-0.9c1.1-0.3,2.5-0.5,4.1-0.5c1.5,0,2.7,0.2,3.5,0.6
			c0.9,0.4,1.5,1,2,1.7c0.4,0.7,0.7,1.5,0.9,2.5s0.2,2,0.2,3.1v8.2l1.6,2.4l-2.5,1.9L844.4,94.7z M843.6,87h-3c-1.7,0-3,0.3-3.7,0.8
			c-0.7,0.5-1.1,1.5-1.1,2.8c0,1.2,0.3,2.2,0.8,2.8c0.5,0.6,1.3,0.9,2.4,0.9c1.1,0,2.1-0.2,2.9-0.6c0.8-0.4,1.4-0.8,1.8-1.3V87z"/>
		<path class="st0" d="M865.9,94.8c-0.7,0.6-1.6,1.1-2.5,1.5s-2.1,0.6-3.3,0.6c-2.6,0-4.6-0.8-5.9-2.5s-2-4.2-2-7.7
			c0-1.5,0.2-2.9,0.6-4.2s1-2.3,1.7-3.2s1.7-1.6,2.9-2.1c1.2-0.5,2.5-0.7,4-0.7c0.7,0,1.3,0.1,1.9,0.2c0.6,0.1,1.1,0.2,1.6,0.3v-8.7
			h3.5v24.3l1.6,2.4l-2.5,1.9L865.9,94.8z M865,79.6c-0.4-0.1-0.9-0.2-1.5-0.4c-0.6-0.1-1.3-0.2-2.1-0.2c-1.9,0-3.3,0.7-4.2,2
			c-0.9,1.3-1.3,3.2-1.3,5.7c0,2.4,0.4,4.2,1.1,5.6c0.7,1.3,2,2,3.6,2c1.1,0,1.9-0.2,2.6-0.5c0.7-0.4,1.3-0.8,1.8-1.3V79.6z"/>
		<path class="st0" d="M882.4,96.9c-1.6,0-3-0.3-4.1-0.8c-1.1-0.5-2-1.2-2.6-2.1s-1.1-2-1.4-3.2c-0.3-1.2-0.4-2.6-0.4-4.1
			c0-1.5,0.2-2.8,0.5-4.1c0.4-1.3,0.9-2.3,1.6-3.2s1.6-1.6,2.7-2.1c1.1-0.5,2.4-0.8,3.8-0.8c1.5,0,2.8,0.3,3.9,0.8
			c1.1,0.5,2,1.2,2.7,2.1c0.7,0.9,1.2,2,1.5,3.2s0.5,2.6,0.5,4.1c0,1.5-0.2,2.9-0.5,4.1c-0.3,1.2-0.8,2.3-1.5,3.2
			c-0.7,0.9-1.6,1.6-2.7,2.1C885.3,96.7,883.9,96.9,882.4,96.9z M882.5,94.4c1.8,0,3.1-0.7,3.9-2c0.7-1.3,1.1-3.2,1.1-5.7
			c0-2.4-0.4-4.3-1.1-5.6c-0.7-1.3-2-2-3.9-2c-1.8,0-3.1,0.6-3.9,1.9c-0.7,1.3-1.1,3.2-1.1,5.7c0,1.2,0.1,2.3,0.3,3.2
			c0.2,1,0.5,1.8,0.9,2.4c0.4,0.7,0.9,1.2,1.6,1.5C880.8,94.2,881.6,94.4,882.5,94.4z"/>
		<path class="st0" d="M903.8,81.2l-1.5-3.2l2.8-1.5l1.6,2.5c1.1-0.9,2.2-1.5,3.2-1.9c1-0.4,2.1-0.6,3.2-0.6c1.3,0,2.3,0.2,3.2,0.6
			s1.5,0.9,2,1.6c0.5,0.7,0.9,1.5,1.1,2.4c0.2,0.9,0.3,1.8,0.3,2.8v12.3h-3.5V84.1c0-1.6-0.3-2.7-1-3.5c-0.6-0.7-1.6-1.1-2.9-1.1
			c-1,0-1.9,0.2-2.8,0.5s-1.6,0.8-2.2,1.3v14.9h-3.5V81.2z"/>
		<path class="st0" d="M925.3,77.2h3.5v12.4c0,1.5,0.3,2.6,0.9,3.5c0.6,0.8,1.5,1.2,2.9,1.2c1.1,0,2-0.2,2.7-0.5
			c0.7-0.4,1.3-0.8,2-1.3V77.2h3.5v15.4l1.6,2.3l-2.5,1.9l-1.7-2.1c-1,0.8-2,1.3-2.9,1.7c-1,0.3-2,0.5-3.1,0.5
			c-1.4,0-2.5-0.2-3.4-0.6s-1.5-0.9-2-1.6c-0.5-0.7-0.8-1.5-1-2.4c-0.2-0.9-0.3-1.8-0.3-2.8V77.2z"/>
		<path class="st0" d="M947,81.2l-1.5-3.2l2.8-1.5l1.6,2.5c1.1-0.9,2.2-1.5,3.2-1.9c1-0.4,2.1-0.6,3.2-0.6c1.3,0,2.3,0.2,3.2,0.6
			s1.5,0.9,2,1.6c0.5,0.7,0.9,1.5,1.1,2.4c0.2,0.9,0.3,1.8,0.3,2.8v12.3h-3.5V84.1c0-1.6-0.3-2.7-1-3.5c-0.6-0.7-1.6-1.1-2.9-1.1
			c-1,0-1.9,0.2-2.8,0.5s-1.6,0.8-2.2,1.3v14.9H947V81.2z"/>
		<path class="st0" d="M983.1,95.4c-0.7,0.4-1.5,0.7-2.6,1c-1,0.3-2.2,0.5-3.6,0.5c-1.7,0-3.2-0.2-4.3-0.7c-1.1-0.5-2.1-1.2-2.7-2.1
			c-0.7-0.9-1.2-1.9-1.5-3.2c-0.3-1.2-0.4-2.6-0.4-4.1c0-1.5,0.2-2.8,0.5-4.1c0.4-1.3,0.9-2.4,1.7-3.3c0.7-0.9,1.7-1.7,2.8-2.2
			c1.2-0.5,2.5-0.8,4.2-0.8c1.2,0,2.2,0.2,3.2,0.5c1,0.3,1.8,0.7,2.5,1.1l-1.1,2.4c-0.7-0.4-1.4-0.7-2.2-0.9
			c-0.8-0.2-1.6-0.4-2.6-0.4c-1.9,0-3.2,0.6-4.1,1.9s-1.3,3.2-1.3,5.8c0,1.1,0.1,2.2,0.3,3.1c0.2,0.9,0.5,1.7,0.9,2.3
			c0.4,0.6,1,1.1,1.7,1.5c0.7,0.3,1.6,0.5,2.6,0.5c0.8,0,1.6-0.1,2.3-0.2c0.7-0.2,1.5-0.5,2.5-0.9L983.1,95.4z"/>
		<path class="st0" d="M997.7,94.7c-0.7,0.6-1.6,1.1-2.5,1.6s-2.1,0.7-3.5,0.7c-1.9,0-3.4-0.5-4.5-1.5c-1.1-1-1.7-2.6-1.7-4.7
			c0-1.1,0.2-2.1,0.6-2.8s0.9-1.4,1.7-1.9s1.6-0.9,2.6-1.1c1-0.2,2.1-0.3,3.3-0.3h3.3v-1c0-1.6-0.2-2.7-0.7-3.4
			c-0.5-0.7-1.4-1-2.8-1c-1.8,0-3.7,0.4-5.6,1.1l-0.9-2.4c0.7-0.3,1.7-0.6,2.8-0.9c1.1-0.3,2.5-0.5,4.1-0.5c1.5,0,2.7,0.2,3.5,0.6
			c0.9,0.4,1.5,1,2,1.7c0.4,0.7,0.7,1.5,0.9,2.5s0.2,2,0.2,3.1v8.2l1.6,2.4l-2.5,1.9L997.7,94.7z M996.9,87h-3c-1.7,0-3,0.3-3.7,0.8
			c-0.7,0.5-1.1,1.5-1.1,2.8c0,1.2,0.3,2.2,0.8,2.8c0.5,0.6,1.3,0.9,2.4,0.9c1.1,0,2.1-0.2,2.9-0.6c0.8-0.4,1.4-0.8,1.8-1.3V87z"/>
		<path class="st0" d="M1013,92.7c0.6,0.3,1.4,0.7,2.4,1.1c1,0.4,2.1,0.6,3.4,0.6c1.3,0,2.4-0.2,3.2-0.7s1.2-1.2,1.2-2.2
			c0-0.6-0.1-1.1-0.4-1.4c-0.3-0.4-0.6-0.7-1-0.9c-0.4-0.2-0.9-0.4-1.5-0.6c-0.6-0.2-1.2-0.3-1.8-0.5c-0.7-0.2-1.4-0.4-2.1-0.6
			c-0.7-0.3-1.3-0.6-1.9-1c-0.5-0.4-1-0.9-1.3-1.6c-0.3-0.6-0.5-1.4-0.5-2.4c0-0.8,0.1-1.6,0.4-2.3c0.3-0.7,0.7-1.3,1.3-1.8
			c0.6-0.5,1.4-0.9,2.3-1.2c0.9-0.3,2-0.5,3.2-0.5s2.4,0.1,3.4,0.4c1.1,0.3,2,0.6,2.7,1l-1.1,2.3c-1.6-0.9-3.3-1.3-5.1-1.3
			c-1.2,0-2.2,0.2-2.9,0.6c-0.7,0.4-1,1.1-1,2.1c0,0.6,0.1,1,0.3,1.4c0.2,0.4,0.5,0.7,0.9,0.9c0.4,0.2,0.8,0.4,1.4,0.6
			c0.5,0.2,1.1,0.3,1.6,0.5c0.7,0.2,1.4,0.4,2.1,0.6c0.7,0.2,1.4,0.5,2,1c0.6,0.4,1.1,1,1.5,1.6c0.4,0.7,0.6,1.5,0.6,2.6
			c0,1.9-0.6,3.4-1.8,4.4c-1.2,1.1-3.1,1.6-5.6,1.6c-1.7,0-3.1-0.2-4.4-0.6c-1.2-0.4-2.1-0.8-2.7-1.2L1013,92.7z"/>
		<path class="st0" d="M1030.6,77.2h3.5v12.4c0,1.5,0.3,2.6,0.9,3.5c0.6,0.8,1.5,1.2,2.9,1.2c1.1,0,2-0.2,2.7-0.5
			c0.7-0.4,1.3-0.8,2-1.3V77.2h3.5v15.4l1.6,2.3l-2.5,1.9l-1.7-2.1c-1,0.8-2,1.3-2.9,1.7c-1,0.3-2,0.5-3.1,0.5
			c-1.4,0-2.5-0.2-3.4-0.6s-1.5-0.9-2-1.6c-0.5-0.7-0.8-1.5-1-2.4c-0.2-0.9-0.3-1.8-0.3-2.8V77.2z"/>
		<path class="st0" d="M1060.3,79.8h-2.7v-2.6h2.7v-2c0-0.9,0.1-1.8,0.3-2.7c0.2-0.8,0.6-1.6,1-2.2c0.5-0.6,1.2-1.1,2-1.5
			s1.9-0.6,3.1-0.6c0.7,0,1.4,0.1,2.1,0.3c0.7,0.2,1.4,0.4,2.1,0.7l-0.9,2.2c-0.3-0.1-0.6-0.3-1.2-0.4c-0.5-0.2-1.1-0.2-1.8-0.2
			c-0.7,0-1.3,0.1-1.7,0.3c-0.4,0.2-0.7,0.6-1,1c-0.2,0.4-0.4,0.9-0.4,1.5c-0.1,0.6-0.1,1.3-0.1,2v1.6h5.5v2.6h-5.5v16.5h-3.5V79.8z
			"/>
		<path class="st0" d="M1072.6,77.2h3.5v12.4c0,1.5,0.3,2.6,0.9,3.5c0.6,0.8,1.5,1.2,2.9,1.2c1.1,0,2-0.2,2.7-0.5
			c0.7-0.4,1.3-0.8,2-1.3V77.2h3.5v15.4l1.6,2.3l-2.5,1.9l-1.7-2.1c-1,0.8-2,1.3-2.9,1.7c-1,0.3-2,0.5-3.1,0.5
			c-1.4,0-2.5-0.2-3.4-0.6s-1.5-0.9-2-1.6c-0.5-0.7-0.8-1.5-1-2.4c-0.2-0.9-0.3-1.8-0.3-2.8V77.2z"/>
		<path class="st0" d="M1108.6,95.5c-0.6,0.4-1.5,0.7-2.6,1c-1.2,0.3-2.4,0.5-3.6,0.5c-1.7,0-3.2-0.2-4.4-0.7
			c-1.2-0.5-2.1-1.2-2.8-2.1c-0.7-0.9-1.2-2-1.5-3.2c-0.3-1.3-0.4-2.6-0.4-4.2c0-1.4,0.2-2.7,0.5-4c0.3-1.2,0.8-2.3,1.5-3.2
			c0.7-0.9,1.6-1.7,2.6-2.2c1.1-0.5,2.3-0.8,3.8-0.8c1.4,0,2.6,0.3,3.6,0.9c1,0.6,1.8,1.3,2.4,2.3c0.6,0.9,1,2,1.3,3.2
			c0.3,1.2,0.4,2.3,0.4,3.5l-1.3,1.3h-11.3c0.1,2.2,0.6,3.9,1.5,5c0.9,1.1,2.2,1.6,4.1,1.6c1,0,1.9-0.1,2.7-0.3
			c0.9-0.2,1.7-0.5,2.4-0.8L1108.6,95.5z M1105.7,85.2c0-2-0.4-3.6-1.1-4.6c-0.7-1-1.8-1.6-3.3-1.6c-1.6,0-2.7,0.5-3.3,1.6
			c-0.7,1.1-1.1,2.6-1.2,4.5H1105.7z"/>
		<path class="st0" d="M1114.6,79.7h-2.4v-2.5h4.9l0.6,2.5c0.3-0.4,0.7-0.7,1-1s0.7-0.6,1.2-0.9c0.4-0.2,0.9-0.4,1.5-0.6
			c0.5-0.1,1.2-0.2,1.9-0.2c0.9,0,1.7,0.1,2.4,0.3l-1,3.2c-0.3-0.1-0.6-0.2-1-0.3s-0.7-0.1-1.1-0.1c-1.8,0-3.3,0.6-4.4,1.9v14.2
			h-3.5V79.7z"/>
		<path class="st0" d="M1137.3,79.8h-9.6v-2.5h14v2.5l-10.6,13c-0.1,0.2-0.2,0.3-0.2,0.4c0,0.1,0,0.1,0,0.2c0,0.3,0.2,0.4,0.6,0.4
			h10.3v2.6h-11.6c-1.1,0-1.8-0.2-2.3-0.7s-0.7-1.1-0.7-1.8c0-0.5,0.1-0.9,0.2-1.3c0.2-0.4,0.4-0.9,0.9-1.4L1137.3,79.8z"/>
		<path class="st0" d="M1156.8,94.7c-0.7,0.6-1.6,1.1-2.5,1.6s-2.1,0.7-3.5,0.7c-1.9,0-3.4-0.5-4.5-1.5c-1.1-1-1.7-2.6-1.7-4.7
			c0-1.1,0.2-2.1,0.6-2.8s0.9-1.4,1.7-1.9s1.6-0.9,2.6-1.1c1-0.2,2.1-0.3,3.3-0.3h3.3v-1c0-1.6-0.2-2.7-0.7-3.4
			c-0.5-0.7-1.4-1-2.8-1c-1.8,0-3.7,0.4-5.6,1.1l-0.9-2.4c0.7-0.3,1.7-0.6,2.8-0.9c1.1-0.3,2.5-0.5,4.1-0.5c1.5,0,2.7,0.2,3.5,0.6
			c0.9,0.4,1.5,1,2,1.7c0.4,0.7,0.7,1.5,0.9,2.5s0.2,2,0.2,3.1v8.2l1.6,2.4l-2.5,1.9L1156.8,94.7z M1156,87h-3c-1.7,0-3,0.3-3.7,0.8
			c-0.7,0.5-1.1,1.5-1.1,2.8c0,1.2,0.3,2.2,0.8,2.8c0.5,0.6,1.3,0.9,2.4,0.9c1.1,0,2.1-0.2,2.9-0.6c0.8-0.4,1.4-0.8,1.8-1.3V87z"/>
		<path class="st0" d="M1173.1,79.7h-2.4v-2.5h6v19h-3.5V79.7z M1174.4,73.7c-0.7,0-1.3-0.2-1.7-0.7s-0.6-1.1-0.6-1.8
			c0-0.7,0.2-1.3,0.6-1.8s1-0.7,1.7-0.7c0.8,0,1.3,0.2,1.8,0.7s0.6,1.1,0.6,1.8c0,0.7-0.2,1.3-0.6,1.8S1175.2,73.7,1174.4,73.7z"/>
		<path class="st0" d="M1182.8,81.2l-1.5-3.2l2.8-1.5l1.6,2.5c1.1-0.9,2.2-1.5,3.2-1.9c1-0.4,2.1-0.6,3.2-0.6c1.3,0,2.3,0.2,3.2,0.6
			s1.5,0.9,2,1.6c0.5,0.7,0.9,1.5,1.1,2.4c0.2,0.9,0.3,1.8,0.3,2.8v12.3h-3.5V84.1c0-1.6-0.3-2.7-1-3.5c-0.6-0.7-1.6-1.1-2.9-1.1
			c-1,0-1.9,0.2-2.8,0.5s-1.6,0.8-2.2,1.3v14.9h-3.5V81.2z"/>
		<path class="st0" d="M1205.8,79.8h-3.5v-2.6h3.6v-5.7h3.4v5.7h5.6v2.6h-5.6v11c0,0.7,0.1,1.3,0.2,1.8c0.1,0.4,0.3,0.8,0.6,1
			c0.2,0.2,0.5,0.4,0.9,0.5c0.3,0.1,0.7,0.1,1.1,0.1s0.9-0.1,1.4-0.2c0.5-0.1,1-0.3,1.5-0.5l0.8,2.3c-0.4,0.2-1,0.4-1.8,0.6
			c-0.8,0.2-1.6,0.3-2.4,0.3c-0.9,0-1.7-0.1-2.4-0.3s-1.3-0.5-1.8-0.9c-0.5-0.4-0.9-1-1.1-1.7c-0.3-0.7-0.4-1.6-0.4-2.7V79.8z"/>
		<path class="st0" d="M1219.6,79.7h-2.4v-2.5h4.9l0.6,2.5c0.3-0.4,0.7-0.7,1-1s0.7-0.6,1.2-0.9c0.4-0.2,0.9-0.4,1.5-0.6
			c0.5-0.1,1.2-0.2,1.9-0.2c0.9,0,1.7,0.1,2.4,0.3l-1,3.2c-0.3-0.1-0.6-0.2-1-0.3s-0.7-0.1-1.1-0.1c-1.8,0-3.3,0.6-4.4,1.9v14.2
			h-3.5V79.7z"/>
		<path class="st0" d="M1234.2,79.7h-2.4v-2.5h6v19h-3.5V79.7z M1236.9,66l2.8,1.9l-5.4,6.2l-1.7-1.3L1236.9,66z"/>
		<path class="st0" d="M1243.9,81.2l-1.5-3.2l2.8-1.5l1.6,2.5c1.1-0.9,2.2-1.5,3.2-1.9c1-0.4,2.1-0.6,3.2-0.6c1.3,0,2.3,0.2,3.2,0.6
			s1.5,0.9,2,1.6c0.5,0.7,0.9,1.5,1.1,2.4c0.2,0.9,0.3,1.8,0.3,2.8v12.3h-3.5V84.1c0-1.6-0.3-2.7-1-3.5c-0.6-0.7-1.6-1.1-2.9-1.1
			c-1,0-1.9,0.2-2.8,0.5s-1.6,0.8-2.2,1.3v14.9h-3.5V81.2z"/>
		<path class="st0" d="M1265,92.7c0.6,0.3,1.4,0.7,2.4,1.1c1,0.4,2.1,0.6,3.4,0.6c1.3,0,2.4-0.2,3.2-0.7s1.2-1.2,1.2-2.2
			c0-0.6-0.1-1.1-0.4-1.4c-0.3-0.4-0.6-0.7-1-0.9c-0.4-0.2-0.9-0.4-1.5-0.6c-0.6-0.2-1.2-0.3-1.8-0.5c-0.7-0.2-1.4-0.4-2.1-0.6
			c-0.7-0.3-1.3-0.6-1.9-1c-0.5-0.4-1-0.9-1.3-1.6c-0.3-0.6-0.5-1.4-0.5-2.4c0-0.8,0.1-1.6,0.4-2.3c0.3-0.7,0.7-1.3,1.3-1.8
			c0.6-0.5,1.4-0.9,2.3-1.2c0.9-0.3,2-0.5,3.2-0.5s2.4,0.1,3.4,0.4c1.1,0.3,2,0.6,2.7,1l-1.1,2.3c-1.6-0.9-3.3-1.3-5.1-1.3
			c-1.2,0-2.2,0.2-2.9,0.6c-0.7,0.4-1,1.1-1,2.1c0,0.6,0.1,1,0.3,1.4c0.2,0.4,0.5,0.7,0.9,0.9c0.4,0.2,0.8,0.4,1.4,0.6
			c0.5,0.2,1.1,0.3,1.6,0.5c0.7,0.2,1.4,0.4,2.1,0.6c0.7,0.2,1.4,0.5,2,1c0.6,0.4,1.1,1,1.5,1.6c0.4,0.7,0.6,1.5,0.6,2.6
			c0,1.9-0.6,3.4-1.8,4.4c-1.2,1.1-3.1,1.6-5.6,1.6c-1.7,0-3.1-0.2-4.4-0.6c-1.2-0.4-2.1-0.8-2.7-1.2L1265,92.7z"/>
		<path class="st0" d="M1297.5,95.5c-0.6,0.4-1.5,0.7-2.6,1c-1.2,0.3-2.4,0.5-3.6,0.5c-1.7,0-3.2-0.2-4.4-0.7
			c-1.2-0.5-2.1-1.2-2.8-2.1c-0.7-0.9-1.2-2-1.5-3.2c-0.3-1.3-0.4-2.6-0.4-4.2c0-1.4,0.2-2.7,0.5-4c0.3-1.2,0.8-2.3,1.5-3.2
			c0.7-0.9,1.6-1.7,2.6-2.2c1.1-0.5,2.3-0.8,3.8-0.8c1.4,0,2.6,0.3,3.6,0.9c1,0.6,1.8,1.3,2.4,2.3c0.6,0.9,1,2,1.3,3.2
			c0.3,1.2,0.4,2.3,0.4,3.5l-1.3,1.3h-11.3c0.1,2.2,0.6,3.9,1.5,5c0.9,1.1,2.2,1.6,4.1,1.6c1,0,1.9-0.1,2.7-0.3
			c0.9-0.2,1.7-0.5,2.4-0.8L1297.5,95.5z M1294.6,85.2c0-2-0.4-3.6-1.1-4.6c-0.7-1-1.8-1.6-3.3-1.6c-1.6,0-2.7,0.5-3.3,1.6
			c-0.7,1.1-1.1,2.6-1.2,4.5H1294.6z"/>
		<path class="st0" d="M1317.3,95.4c-0.7,0.4-1.5,0.7-2.6,1c-1,0.3-2.2,0.5-3.6,0.5c-1.7,0-3.2-0.2-4.3-0.7
			c-1.1-0.5-2.1-1.2-2.7-2.1c-0.7-0.9-1.2-1.9-1.5-3.2c-0.3-1.2-0.4-2.6-0.4-4.1c0-1.5,0.2-2.8,0.5-4.1c0.4-1.3,0.9-2.4,1.7-3.3
			c0.7-0.9,1.7-1.7,2.8-2.2c1.2-0.5,2.5-0.8,4.2-0.8c1.2,0,2.2,0.2,3.2,0.5c1,0.3,1.8,0.7,2.5,1.1l-1.1,2.4
			c-0.7-0.4-1.4-0.7-2.2-0.9c-0.8-0.2-1.6-0.4-2.6-0.4c-1.9,0-3.2,0.6-4.1,1.9s-1.3,3.2-1.3,5.8c0,1.1,0.1,2.2,0.3,3.1
			c0.2,0.9,0.5,1.7,0.9,2.3c0.4,0.6,1,1.1,1.7,1.5c0.7,0.3,1.6,0.5,2.6,0.5c0.8,0,1.6-0.1,2.3-0.2c0.7-0.2,1.5-0.5,2.5-0.9
			L1317.3,95.4z"/>
		<path class="st0" d="M1331.9,94.7c-0.7,0.6-1.6,1.1-2.5,1.6s-2.1,0.7-3.5,0.7c-1.9,0-3.4-0.5-4.5-1.5c-1.1-1-1.7-2.6-1.7-4.7
			c0-1.1,0.2-2.1,0.6-2.8s0.9-1.4,1.7-1.9s1.6-0.9,2.6-1.1c1-0.2,2.1-0.3,3.3-0.3h3.3v-1c0-1.6-0.2-2.7-0.7-3.4
			c-0.5-0.7-1.4-1-2.8-1c-1.8,0-3.7,0.4-5.6,1.1l-0.9-2.4c0.7-0.3,1.7-0.6,2.8-0.9c1.1-0.3,2.5-0.5,4.1-0.5c1.5,0,2.7,0.2,3.5,0.6
			c0.9,0.4,1.5,1,2,1.7c0.4,0.7,0.7,1.5,0.9,2.5s0.2,2,0.2,3.1v8.2l1.6,2.4l-2.5,1.9L1331.9,94.7z M1331.1,87h-3
			c-1.7,0-3,0.3-3.7,0.8c-0.7,0.5-1.1,1.5-1.1,2.8c0,1.2,0.3,2.2,0.8,2.8c0.5,0.6,1.3,0.9,2.4,0.9c1.1,0,2.1-0.2,2.9-0.6
			c0.8-0.4,1.4-0.8,1.8-1.3V87z"/>
		<path class="st0" d="M1347.1,101.5c0.4,0.2,0.9,0.3,1.5,0.5c0.6,0.2,1.3,0.3,2.2,0.3c1,0,1.7-0.3,2.2-0.9c0.5-0.6,0.9-1.4,1.2-2.6
			l0.8-3.1h-0.7c-0.8,0-1.5-0.1-2.1-0.3c-0.6-0.2-1.1-0.5-1.6-0.9c-0.4-0.4-0.8-1-1.2-1.7c-0.3-0.7-0.6-1.6-0.9-2.6l-3.5-12.9
			l3.5-0.6l3.5,13.1c0.2,0.7,0.4,1.3,0.6,1.7s0.4,0.8,0.7,1c0.2,0.2,0.5,0.4,0.8,0.5s0.6,0.1,0.9,0.1h0.5l4.1-16.5l3.2,0.6
			l-5.7,21.8c-0.5,1.9-1.3,3.3-2.3,4.2c-1,0.9-2.4,1.3-4.2,1.3c-0.5,0-0.9,0-1.4-0.1c-0.5-0.1-0.9-0.2-1.3-0.3
			c-0.4-0.1-0.8-0.2-1.1-0.3c-0.3-0.1-0.6-0.2-0.8-0.3L1347.1,101.5z"/>
		<path class="st0" d="M1387.9,95.5c-0.6,0.4-1.5,0.7-2.6,1c-1.2,0.3-2.4,0.5-3.6,0.5c-1.7,0-3.2-0.2-4.4-0.7
			c-1.2-0.5-2.1-1.2-2.8-2.1c-0.7-0.9-1.2-2-1.5-3.2c-0.3-1.3-0.4-2.6-0.4-4.2c0-1.4,0.2-2.7,0.5-4c0.3-1.2,0.8-2.3,1.5-3.2
			c0.7-0.9,1.6-1.7,2.6-2.2c1.1-0.5,2.3-0.8,3.8-0.8c1.4,0,2.6,0.3,3.6,0.9c1,0.6,1.8,1.3,2.4,2.3c0.6,0.9,1,2,1.3,3.2
			c0.3,1.2,0.4,2.3,0.4,3.5l-1.3,1.3h-11.3c0.1,2.2,0.6,3.9,1.5,5c0.9,1.1,2.2,1.6,4.1,1.6c1,0,1.9-0.1,2.7-0.3
			c0.9-0.2,1.7-0.5,2.4-0.8L1387.9,95.5z M1385.1,85.2c0-2-0.4-3.6-1.1-4.6c-0.7-1-1.8-1.6-3.3-1.6c-1.6,0-2.7,0.5-3.3,1.6
			c-0.7,1.1-1.1,2.6-1.2,4.5H1385.1z"/>
		<path class="st0" d="M1393.6,70.8h-2.4v-2.5h5.9v27.9h-3.5V70.8z"/>
		<path class="st0" d="M491.9,145.7h-2.4v-2.5h6v19h-3.5V145.7z M494.6,132l2.8,1.9l-5.4,6.2l-1.7-1.3L494.6,132z"/>
		<path class="st0" d="M501.6,147.1l-1.5-3.2l2.8-1.5l1.6,2.5c1-0.9,2-1.6,3-1.9c1-0.3,1.9-0.5,2.7-0.5c1.4,0,2.4,0.2,3.1,0.6
			c0.7,0.4,1.3,1,1.8,1.8c1.1-1,2.2-1.6,3.3-2c1.1-0.3,2-0.5,2.7-0.5c1.3,0,2.3,0.2,3.1,0.6s1.4,0.9,1.8,1.6
			c0.4,0.7,0.7,1.5,0.8,2.4c0.1,0.9,0.2,1.8,0.2,2.8v12.3h-3.5v-12.4c0-1.5-0.2-2.6-0.7-3.3c-0.4-0.7-1.3-1-2.6-1
			c-0.7,0-1.5,0.1-2.3,0.4c-0.8,0.3-1.5,0.7-2.3,1.3c0.1,0.4,0.1,0.8,0.1,1.3c0,0.5,0.1,0.9,0.1,1.3v12.3h-3.5v-12.5
			c0-1.4-0.2-2.5-0.7-3.2c-0.4-0.7-1.3-1-2.6-1c-0.7,0-1.4,0.1-2.2,0.4c-0.7,0.3-1.4,0.7-2.1,1.3v15h-3.5V147.1z"/>
		<path class="st0" d="M533.5,147.2l-1.5-3.2l2.9-1.5l1.6,2.4c0.7-0.6,1.4-1.2,2.3-1.6c0.9-0.5,1.9-0.7,3.2-0.7
			c2.6,0,4.6,0.8,5.9,2.5c1.4,1.7,2,4.2,2,7.7c0,1.5-0.2,2.9-0.6,4.2s-1,2.3-1.8,3.2c-0.8,0.9-1.8,1.6-3,2.1
			c-1.2,0.5-2.6,0.7-4.1,0.7c-0.6,0-1.1,0-1.8-0.1s-1.2-0.2-1.7-0.3v8.1h-3.5V147.2z M537,159.9c0.4,0.1,1,0.3,1.7,0.4
			s1.3,0.2,2,0.2c1.9,0,3.3-0.7,4.2-2s1.4-3.2,1.4-5.7c0-2.4-0.3-4.2-1-5.6c-0.7-1.3-1.9-2-3.5-2c-1,0-1.8,0.2-2.4,0.5
			c-0.7,0.3-1.4,0.9-2.2,1.6V159.9z"/>
		<path class="st0" d="M569.5,161.5c-0.6,0.4-1.5,0.7-2.6,1c-1.2,0.3-2.4,0.5-3.6,0.5c-1.7,0-3.2-0.2-4.4-0.7
			c-1.2-0.5-2.1-1.2-2.8-2.1c-0.7-0.9-1.2-2-1.5-3.2c-0.3-1.3-0.4-2.6-0.4-4.2c0-1.4,0.2-2.7,0.5-4c0.3-1.2,0.8-2.3,1.5-3.2
			c0.7-0.9,1.6-1.7,2.6-2.2c1.1-0.5,2.3-0.8,3.8-0.8c1.4,0,2.6,0.3,3.6,0.9c1,0.6,1.8,1.3,2.4,2.3c0.6,0.9,1,2,1.3,3.2
			c0.3,1.2,0.4,2.3,0.4,3.5l-1.3,1.3h-11.3c0.1,2.2,0.6,3.9,1.5,5c0.9,1.1,2.2,1.6,4.1,1.6c1,0,1.9-0.1,2.7-0.3
			c0.9-0.2,1.7-0.5,2.4-0.8L569.5,161.5z M566.6,151.2c0-2-0.4-3.6-1.1-4.6c-0.7-1-1.8-1.6-3.3-1.6c-1.6,0-2.7,0.5-3.3,1.6
			c-0.7,1.1-1.1,2.6-1.2,4.5H566.6z"/>
		<path class="st0" d="M576.3,145.8h-3.5v-2.6h3.6v-5.7h3.4v5.7h5.6v2.6h-5.6v11c0,0.7,0.1,1.3,0.2,1.8c0.1,0.4,0.3,0.8,0.6,1
			c0.2,0.2,0.5,0.4,0.9,0.5c0.3,0.1,0.7,0.1,1.1,0.1s0.9-0.1,1.4-0.2c0.5-0.1,1-0.3,1.5-0.5l0.8,2.3c-0.4,0.2-1,0.4-1.8,0.6
			c-0.8,0.2-1.6,0.3-2.4,0.3c-0.9,0-1.7-0.1-2.4-0.3s-1.3-0.5-1.8-0.9c-0.5-0.4-0.9-1-1.1-1.7c-0.3-0.7-0.4-1.6-0.4-2.7V145.8z"/>
		<path class="st0" d="M589.4,143.2h3.5v12.4c0,1.5,0.3,2.6,0.9,3.5c0.6,0.8,1.5,1.2,2.9,1.2c1.1,0,2-0.2,2.7-0.5
			c0.7-0.4,1.3-0.8,2-1.3v-15.2h3.5v15.4l1.6,2.3l-2.5,1.9l-1.7-2.1c-1,0.8-2,1.3-2.9,1.7c-1,0.3-2,0.5-3.1,0.5
			c-1.4,0-2.5-0.2-3.4-0.6s-1.5-0.9-2-1.6c-0.5-0.7-0.8-1.5-1-2.4c-0.2-0.9-0.3-1.8-0.3-2.8V143.2z"/>
		<path class="st0" d="M631.2,160.8c-0.7,0.6-1.6,1.1-2.5,1.5s-2.1,0.6-3.3,0.6c-2.6,0-4.6-0.8-5.9-2.5s-2-4.2-2-7.7
			c0-1.5,0.2-2.9,0.6-4.2s1-2.3,1.7-3.2s1.7-1.6,2.9-2.1c1.2-0.5,2.5-0.7,4-0.7c0.7,0,1.3,0.1,1.9,0.2c0.6,0.1,1.1,0.2,1.6,0.3v-8.7
			h3.5v24.3l1.6,2.4l-2.5,1.9L631.2,160.8z M630.2,145.6c-0.4-0.1-0.9-0.2-1.5-0.4c-0.6-0.1-1.3-0.2-2.1-0.2c-1.9,0-3.3,0.7-4.2,2
			c-0.9,1.3-1.3,3.2-1.3,5.7c0,2.4,0.4,4.2,1.1,5.6c0.7,1.3,2,2,3.6,2c1.1,0,1.9-0.2,2.6-0.5c0.7-0.4,1.3-0.8,1.8-1.3V145.6z"/>
		<path class="st0" d="M654.4,161.5c-0.6,0.4-1.5,0.7-2.6,1c-1.2,0.3-2.4,0.5-3.6,0.5c-1.7,0-3.2-0.2-4.4-0.7
			c-1.2-0.5-2.1-1.2-2.8-2.1c-0.7-0.9-1.2-2-1.5-3.2c-0.3-1.3-0.4-2.6-0.4-4.2c0-1.4,0.2-2.7,0.5-4c0.3-1.2,0.8-2.3,1.5-3.2
			c0.7-0.9,1.6-1.7,2.6-2.2c1.1-0.5,2.3-0.8,3.8-0.8c1.4,0,2.6,0.3,3.6,0.9c1,0.6,1.8,1.3,2.4,2.3c0.6,0.9,1,2,1.3,3.2
			c0.3,1.2,0.4,2.3,0.4,3.5l-1.3,1.3h-11.3c0.1,2.2,0.6,3.9,1.5,5c0.9,1.1,2.2,1.6,4.1,1.6c1,0,1.9-0.1,2.7-0.3
			c0.9-0.2,1.7-0.5,2.4-0.8L654.4,161.5z M651.6,151.2c0-2-0.4-3.6-1.1-4.6c-0.7-1-1.8-1.6-3.3-1.6c-1.6,0-2.7,0.5-3.3,1.6
			c-0.7,1.1-1.1,2.6-1.2,4.5H651.6z"/>
		<path class="st0" d="M667.1,143.2h3.5v12.4c0,1.5,0.3,2.6,0.9,3.5c0.6,0.8,1.5,1.2,2.9,1.2c1.1,0,2-0.2,2.7-0.5
			c0.7-0.4,1.3-0.8,2-1.3v-15.2h3.5v15.4l1.6,2.3l-2.5,1.9l-1.7-2.1c-1,0.8-2,1.3-2.9,1.7c-1,0.3-2,0.5-3.1,0.5
			c-1.4,0-2.5-0.2-3.4-0.6s-1.5-0.9-2-1.6c-0.5-0.7-0.8-1.5-1-2.4c-0.2-0.9-0.3-1.8-0.3-2.8V143.2z"/>
		<path class="st0" d="M688.9,147.2l-1.5-3.2l2.8-1.5l1.6,2.5c1.1-0.9,2.2-1.5,3.2-1.9c1-0.4,2.1-0.6,3.2-0.6c1.3,0,2.3,0.2,3.2,0.6
			s1.5,0.9,2,1.6c0.5,0.7,0.9,1.5,1.1,2.4c0.2,0.9,0.3,1.8,0.3,2.8v12.3h-3.5v-12.2c0-1.6-0.3-2.7-1-3.5c-0.6-0.7-1.6-1.1-2.9-1.1
			c-1,0-1.9,0.2-2.8,0.5s-1.6,0.8-2.2,1.3v14.9h-3.5V147.2z"/>
		<path class="st0" d="M715,143.4l3.6-0.6l5,16.4c0.1,0.5,0.2,0.8,0.4,1c0.1,0.2,0.3,0.3,0.6,0.3c0.3,0,0.5-0.1,0.6-0.3
			c0.1-0.2,0.2-0.5,0.4-1l4.9-16.4l3,0.6l-4.9,15.7c-0.4,1.2-0.9,2.2-1.5,2.9c-0.6,0.7-1.5,1-2.5,1c-0.7,0-1.3-0.1-1.8-0.2
			c-0.5-0.2-0.9-0.4-1.3-0.7c-0.3-0.3-0.6-0.7-0.9-1.2c-0.2-0.5-0.4-1.1-0.6-1.7L715,143.4z"/>
		<path class="st0" d="M751,161.5c-0.6,0.4-1.5,0.7-2.6,1c-1.2,0.3-2.4,0.5-3.6,0.5c-1.7,0-3.2-0.2-4.4-0.7
			c-1.2-0.5-2.1-1.2-2.8-2.1c-0.7-0.9-1.2-2-1.5-3.2c-0.3-1.3-0.4-2.6-0.4-4.2c0-1.4,0.2-2.7,0.5-4c0.3-1.2,0.8-2.3,1.5-3.2
			c0.7-0.9,1.6-1.7,2.6-2.2c1.1-0.5,2.3-0.8,3.8-0.8c1.4,0,2.6,0.3,3.6,0.9c1,0.6,1.8,1.3,2.4,2.3c0.6,0.9,1,2,1.3,3.2
			c0.3,1.2,0.4,2.3,0.4,3.5l-1.3,1.3h-11.3c0.1,2.2,0.6,3.9,1.5,5c0.9,1.1,2.2,1.6,4.1,1.6c1,0,1.9-0.1,2.7-0.3
			c0.9-0.2,1.7-0.5,2.4-0.8L751,161.5z M748.2,151.2c0-2-0.4-3.6-1.1-4.6c-0.7-1-1.8-1.6-3.3-1.6c-1.6,0-2.7,0.5-3.3,1.6
			c-0.7,1.1-1.1,2.6-1.2,4.5H748.2z"/>
		<path class="st0" d="M757.1,145.7h-2.4v-2.5h4.9l0.6,2.5c0.3-0.4,0.7-0.7,1-1s0.7-0.6,1.2-0.9c0.4-0.2,0.9-0.4,1.5-0.6
			c0.5-0.1,1.2-0.2,1.9-0.2c0.9,0,1.7,0.1,2.4,0.3l-1,3.2c-0.3-0.1-0.6-0.2-1-0.3s-0.7-0.1-1.1-0.1c-1.8,0-3.3,0.6-4.4,1.9v14.2
			h-3.5V145.7z"/>
		<path class="st0" d="M783.4,160.8c-0.7,0.6-1.6,1.1-2.5,1.5s-2.1,0.6-3.3,0.6c-2.6,0-4.6-0.8-5.9-2.5s-2-4.2-2-7.7
			c0-1.5,0.2-2.9,0.6-4.2s1-2.3,1.7-3.2s1.7-1.6,2.9-2.1c1.2-0.5,2.5-0.7,4-0.7c0.7,0,1.3,0.1,1.9,0.2c0.6,0.1,1.1,0.2,1.6,0.3v-8.7
			h3.5v24.3l1.6,2.4l-2.5,1.9L783.4,160.8z M782.5,145.6c-0.4-0.1-0.9-0.2-1.5-0.4c-0.6-0.1-1.3-0.2-2.1-0.2c-1.9,0-3.3,0.7-4.2,2
			c-0.9,1.3-1.3,3.2-1.3,5.7c0,2.4,0.4,4.2,1.1,5.6c0.7,1.3,2,2,3.6,2c1.1,0,1.9-0.2,2.6-0.5c0.7-0.4,1.3-0.8,1.8-1.3V145.6z"/>
		<path class="st0" d="M803,160.7c-0.7,0.6-1.6,1.1-2.5,1.6s-2.1,0.7-3.5,0.7c-1.9,0-3.4-0.5-4.5-1.5c-1.1-1-1.7-2.6-1.7-4.7
			c0-1.1,0.2-2.1,0.6-2.8s0.9-1.4,1.7-1.9s1.6-0.9,2.6-1.1c1-0.2,2.1-0.3,3.3-0.3h3.3v-1c0-1.6-0.2-2.7-0.7-3.4
			c-0.5-0.7-1.4-1-2.8-1c-1.8,0-3.7,0.4-5.6,1.1l-0.9-2.4c0.7-0.3,1.7-0.6,2.8-0.9c1.1-0.3,2.5-0.5,4.1-0.5c1.5,0,2.7,0.2,3.5,0.6
			c0.9,0.4,1.5,1,2,1.7c0.4,0.7,0.7,1.5,0.9,2.5s0.2,2,0.2,3.1v8.2l1.6,2.4l-2.5,1.9L803,160.7z M802.2,153h-3c-1.7,0-3,0.3-3.7,0.8
			c-0.7,0.5-1.1,1.5-1.1,2.8c0,1.2,0.3,2.2,0.8,2.8c0.5,0.6,1.3,0.9,2.4,0.9c1.1,0,2.1-0.2,2.9-0.6c0.8-0.4,1.4-0.8,1.8-1.3V153z"/>
		<path class="st0" d="M824.5,160.8c-0.7,0.6-1.6,1.1-2.5,1.5s-2.1,0.6-3.3,0.6c-2.6,0-4.6-0.8-5.9-2.5s-2-4.2-2-7.7
			c0-1.5,0.2-2.9,0.6-4.2s1-2.3,1.7-3.2s1.7-1.6,2.9-2.1c1.2-0.5,2.5-0.7,4-0.7c0.7,0,1.3,0.1,1.9,0.2c0.6,0.1,1.1,0.2,1.6,0.3v-8.7
			h3.5v24.3l1.6,2.4l-2.5,1.9L824.5,160.8z M823.6,145.6c-0.4-0.1-0.9-0.2-1.5-0.4c-0.6-0.1-1.3-0.2-2.1-0.2c-1.9,0-3.3,0.7-4.2,2
			c-0.9,1.3-1.3,3.2-1.3,5.7c0,2.4,0.4,4.2,1.1,5.6c0.7,1.3,2,2,3.6,2c1.1,0,1.9-0.2,2.6-0.5c0.7-0.4,1.3-0.8,1.8-1.3V145.6z"/>
		<path class="st0" d="M847.8,161.5c-0.6,0.4-1.5,0.7-2.6,1c-1.2,0.3-2.4,0.5-3.6,0.5c-1.7,0-3.2-0.2-4.4-0.7
			c-1.2-0.5-2.1-1.2-2.8-2.1c-0.7-0.9-1.2-2-1.5-3.2c-0.3-1.3-0.4-2.6-0.4-4.2c0-1.4,0.2-2.7,0.5-4c0.3-1.2,0.8-2.3,1.5-3.2
			c0.7-0.9,1.6-1.7,2.6-2.2c1.1-0.5,2.3-0.8,3.8-0.8c1.4,0,2.6,0.3,3.6,0.9c1,0.6,1.8,1.3,2.4,2.3c0.6,0.9,1,2,1.3,3.2
			c0.3,1.2,0.4,2.3,0.4,3.5l-1.3,1.3H836c0.1,2.2,0.6,3.9,1.5,5c0.9,1.1,2.2,1.6,4.1,1.6c1,0,1.9-0.1,2.7-0.3
			c0.9-0.2,1.7-0.5,2.4-0.8L847.8,161.5z M845,151.2c0-2-0.4-3.6-1.1-4.6c-0.7-1-1.8-1.6-3.3-1.6c-1.6,0-2.7,0.5-3.3,1.6
			c-0.7,1.1-1.1,2.6-1.2,4.5H845z"/>
		<path class="st0" d="M853.8,145.7h-2.4v-2.5h4.9l0.6,2.5c0.3-0.4,0.7-0.7,1-1s0.7-0.6,1.2-0.9c0.4-0.2,0.9-0.4,1.5-0.6
			c0.5-0.1,1.2-0.2,1.9-0.2c0.9,0,1.7,0.1,2.4,0.3l-1,3.2c-0.3-0.1-0.6-0.2-1-0.3s-0.7-0.1-1.1-0.1c-1.8,0-3.3,0.6-4.4,1.9v14.2
			h-3.5V145.7z"/>
		<path class="st0" d="M875,162.9c-1.6,0-3-0.3-4.1-0.8c-1.1-0.5-2-1.2-2.6-2.1s-1.1-2-1.4-3.2c-0.3-1.2-0.4-2.6-0.4-4.1
			c0-1.5,0.2-2.8,0.5-4.1c0.4-1.3,0.9-2.3,1.6-3.2s1.6-1.6,2.7-2.1c1.1-0.5,2.4-0.8,3.8-0.8c1.5,0,2.8,0.3,3.9,0.8
			c1.1,0.5,2,1.2,2.7,2.1c0.7,0.9,1.2,2,1.5,3.2s0.5,2.6,0.5,4.1c0,1.5-0.2,2.9-0.5,4.1c-0.3,1.2-0.8,2.3-1.5,3.2
			c-0.7,0.9-1.6,1.6-2.7,2.1C878,162.7,876.6,162.9,875,162.9z M875.2,160.4c1.8,0,3.1-0.7,3.9-2c0.7-1.3,1.1-3.2,1.1-5.7
			c0-2.4-0.4-4.3-1.1-5.6c-0.7-1.3-2-2-3.9-2c-1.8,0-3.1,0.6-3.9,1.9c-0.7,1.3-1.1,3.2-1.1,5.7c0,1.2,0.1,2.3,0.3,3.2
			c0.2,1,0.5,1.8,0.9,2.4c0.4,0.7,0.9,1.2,1.6,1.5C873.5,160.2,874.3,160.4,875.2,160.4z"/>
		<path class="st0" d="M907.1,155.3h-8.7c-1.2,0-2.1-0.2-2.7-0.7c-0.6-0.5-0.8-1.1-0.8-2c0-0.6,0.1-1.2,0.4-1.7
			c0.3-0.5,0.7-1.1,1.2-1.9l10.8-13.9h3.2v17.3h4v2.8h-4v7h-3.4V155.3z M907.1,152.5v-12.4l-8.2,10.7c-0.1,0.1-0.2,0.3-0.3,0.4
			c-0.1,0.2-0.1,0.3-0.1,0.5c0,0.5,0.3,0.8,1,0.8H907.1z"/>
		<path class="st0" d="M922,152.7l-5.5-8.9l3.1-0.9l4.4,7.4c0.2,0.3,0.3,0.4,0.4,0.5c0.1,0.1,0.2,0.1,0.3,0.1c0.2,0,0.4-0.2,0.7-0.5
			l4.3-7.5l2.7,0.9l-5.1,8.7l6,9.5l-3.1,0.9l-4.8-7.7c-0.2-0.3-0.3-0.5-0.4-0.6s-0.2-0.1-0.4-0.1c-0.2,0-0.5,0.2-0.8,0.7l-4.9,7.7
			l-2.6-0.9L922,152.7z"/>
		<path class="st0" d="M947.5,155.3h-8.7c-1.2,0-2.1-0.2-2.7-0.7c-0.6-0.5-0.8-1.1-0.8-2c0-0.6,0.1-1.2,0.4-1.7
			c0.3-0.5,0.7-1.1,1.2-1.9l10.8-13.9h3.2v17.3h4v2.8h-4v7h-3.4V155.3z M947.5,152.5v-12.4l-8.2,10.7c-0.1,0.1-0.2,0.3-0.3,0.4
			c-0.1,0.2-0.1,0.3-0.1,0.5c0,0.5,0.3,0.8,1,0.8H947.5z"/>
		<path class="st0" d="M960.9,162.9c-0.8,0-1.4-0.2-1.8-0.7s-0.6-1.1-0.6-1.9c0-0.8,0.2-1.4,0.6-1.9c0.4-0.5,1-0.7,1.8-0.7
			c0.8,0,1.4,0.2,1.8,0.7c0.4,0.5,0.6,1.1,0.6,1.9c0,0.8-0.2,1.4-0.6,1.9S961.7,162.9,960.9,162.9z"/>
	</g>
</g>
</svg>
