<?xml version="1.0" encoding="utf-8"?>
<!-- Generator: Adobe Illustrator 19.2.1, SVG Export Plug-In . SVG Version: 6.00 Build 0)  -->
<!DOCTYPE svg PUBLIC "-//W3C//DTD SVG 1.1//EN" "http://www.w3.org/Graphics/SVG/1.1/DTD/svg11.dtd">
<svg version="1.1" id="Layer_1" xmlns="http://www.w3.org/2000/svg" xmlns:xlink="http://www.w3.org/1999/xlink" x="0px" y="0px"
	 viewBox="0 0 217.1 27.1" style="enable-background:new 0 0 217.1 27.1;" xml:space="preserve">
<style type="text/css">
	.st0{fill:#EB2030;}
</style>
<g>
	<g>
		<path class="st0" d="M2,20.8c1.3,0.7,2.5,1.3,3.6,1.5c1.1,0.3,2.2,0.4,3.2,0.4c1.6,0,2.7-0.3,3.4-0.9c0.7-0.6,1-1.4,1-2.4
			c0-0.5-0.1-0.9-0.2-1.3s-0.4-0.7-0.7-1c-0.4-0.3-0.9-0.5-1.5-0.8c-0.6-0.2-1.5-0.5-2.5-0.7c-1.1-0.3-2.2-0.6-3.1-1
			c-0.9-0.4-1.7-0.9-2.4-1.4c-0.7-0.6-1.2-1.3-1.6-2.2c-0.4-0.9-0.6-1.9-0.6-3.2c0-2.5,0.8-4.5,2.5-5.9S7.3,0,10.4,0
			c1.6,0,3.1,0.2,4.4,0.5c1.3,0.3,2.6,0.9,3.9,1.6l-2.1,3.8c-0.2-0.1-0.6-0.3-1-0.5c-0.4-0.2-0.9-0.4-1.4-0.6
			c-0.5-0.2-1.1-0.3-1.6-0.4c-0.6-0.1-1.2-0.2-1.7-0.2C9.2,4.2,8.1,4.5,7.5,5c-0.6,0.5-1,1.2-1,2.1c0,0.6,0.1,1,0.3,1.4
			c0.2,0.4,0.5,0.7,0.9,1c0.4,0.3,1,0.6,1.7,0.8c0.7,0.2,1.6,0.5,2.6,0.8c0.8,0.2,1.6,0.5,2.5,0.9c0.8,0.3,1.6,0.8,2.3,1.4
			c0.7,0.6,1.2,1.3,1.7,2.1c0.4,0.9,0.7,1.9,0.7,3.2c0,2.8-0.9,4.9-2.6,6.4s-4.2,2.2-7.5,2.2c-2,0-3.7-0.2-5.2-0.6
			c-1.5-0.4-2.8-1-3.9-1.8L2,20.8z"/>
		<path class="st0" d="M40.8,5h-7v21.5H28V5h-7V0.5h19.8V5z"/>
		<path class="st0" d="M52.3,13c-0.2-0.1-0.5-0.2-0.9-0.4s-0.9-0.2-1.5-0.2c-0.6,0-1.1,0.1-1.7,0.4s-1.1,0.7-1.6,1.4v12.2H41V11.8
			h-2.3V8.1h6.9l0.5,2.4c0.8-1,1.6-1.6,2.4-2c0.8-0.4,1.7-0.6,2.7-0.6c0.4,0,0.8,0,1.2,0.1c0.4,0,0.8,0.1,1.2,0.2L52.3,13z"/>
		<path class="st0" d="M64,23.2c1,0,1.9-0.1,2.7-0.2c0.8-0.2,1.6-0.4,2.4-0.8l1.6,3.4c-1.1,0.6-2.3,1.1-3.5,1.3
			c-1.2,0.2-2.5,0.3-3.9,0.3c-3.1,0-5.4-0.8-6.8-2.5c-1.4-1.7-2-4.1-2-7.3c0-1.5,0.2-2.8,0.6-4c0.4-1.2,0.9-2.3,1.6-3.1
			c0.7-0.9,1.6-1.6,2.7-2c1.1-0.5,2.4-0.7,3.8-0.7c1.4,0,2.6,0.2,3.6,0.7c1,0.5,1.8,1.1,2.5,2c0.6,0.9,1.1,1.9,1.4,3.2
			c0.3,1.2,0.5,2.7,0.5,4.2L69.7,19H60c0.2,1.5,0.6,2.6,1.3,3.2C61.9,22.9,62.9,23.2,64,23.2z M66,15.5c0-2.7-0.9-4.1-2.8-4.1
			c-1,0-1.7,0.3-2.2,0.8c-0.5,0.6-0.9,1.6-1,3.2H66z"/>
		<path class="st0" d="M83.5,23.2c1,0,1.9-0.1,2.7-0.2c0.8-0.2,1.6-0.4,2.4-0.8l1.6,3.4c-1.1,0.6-2.3,1.1-3.5,1.3
			c-1.2,0.2-2.5,0.3-3.9,0.3c-3.1,0-5.4-0.8-6.8-2.5c-1.4-1.7-2-4.1-2-7.3c0-1.5,0.2-2.8,0.6-4c0.4-1.2,0.9-2.3,1.6-3.1
			c0.7-0.9,1.6-1.6,2.7-2c1.1-0.5,2.4-0.7,3.8-0.7c1.4,0,2.6,0.2,3.6,0.7c1,0.5,1.8,1.1,2.5,2c0.6,0.9,1.1,1.9,1.4,3.2
			c0.3,1.2,0.5,2.7,0.5,4.2L89.2,19h-9.7c0.2,1.5,0.6,2.6,1.3,3.2C81.5,22.9,82.4,23.2,83.5,23.2z M85.5,15.5c0-2.7-0.9-4.1-2.8-4.1
			c-1,0-1.7,0.3-2.2,0.8c-0.5,0.6-0.9,1.6-1,3.2H85.5z"/>
		<path class="st0" d="M92.5,8.1h3.2V2.8h5.3v5.3h5.2V12H101v7.5c0,0.6,0,1.2,0.1,1.7c0,0.5,0.1,0.8,0.3,1.1
			c0.1,0.3,0.3,0.5,0.6,0.6s0.7,0.2,1.2,0.2c0.5,0,1-0.1,1.5-0.2c0.5-0.2,1-0.3,1.4-0.5l1.2,3.4c-0.7,0.3-1.5,0.6-2.4,0.9
			c-0.9,0.3-1.8,0.4-2.8,0.4c-1.3,0-2.3-0.1-3.2-0.4c-0.9-0.3-1.5-0.7-2-1.3c-0.5-0.6-0.9-1.4-1.1-2.3c-0.2-1-0.3-2.1-0.3-3.6V12h-3
			V8.1z"/>
		<path class="st0" d="M116.3,3.6c1.2-0.8,2.5-1.6,4.1-2.2c1.5-0.6,3.2-0.9,5.1-0.9c1.6,0,2.9,0.2,4,0.6c1.1,0.4,1.9,0.9,2.5,1.6
			c0.6,0.7,1,1.4,1.3,2.3c0.3,0.9,0.4,1.8,0.4,2.7c0,1.7-0.5,3.2-1.4,4.6c-0.9,1.4-2.1,2.8-3.7,4.2l-4.8,4.5
			c-0.2,0.2-0.4,0.3-0.5,0.5s-0.1,0.2-0.1,0.3c0,0.1,0,0.2,0.1,0.3c0,0.1,0.2,0.1,0.4,0.1h10.4v4.3H120c-1.1,0-2-0.2-2.6-0.6
			s-1-1.2-1-2.4c0-0.7,0.2-1.4,0.6-2.1c0.4-0.6,1-1.3,1.8-2.1l6.6-6.2c0.6-0.6,1.1-1.1,1.5-1.6c0.4-0.5,0.7-0.9,0.9-1.4
			c0.2-0.4,0.4-0.8,0.5-1.2s0.1-0.8,0.1-1.2c0-1-0.3-1.7-0.9-2.2c-0.6-0.5-1.4-0.7-2.4-0.7c-0.8,0-1.8,0.2-3,0.6
			c-1.2,0.4-2.3,1-3.3,1.7L116.3,3.6z"/>
		<path class="st0" d="M140.9,27.1c-1.1,0-1.9-0.3-2.4-1c-0.5-0.6-0.8-1.4-0.8-2.4c0-1,0.3-1.8,0.8-2.5c0.5-0.7,1.3-1,2.4-1
			c1.1,0,1.9,0.3,2.5,1c0.5,0.7,0.8,1.5,0.8,2.5c0,1-0.3,1.8-0.8,2.4C142.9,26.8,142,27.1,140.9,27.1z"/>
		<path class="st0" d="M158.7,6.3c0.2-0.3,0.2-0.6,0.2-0.8c0-0.1,0-0.2-0.1-0.3c-0.1,0-0.2-0.1-0.5-0.1h-10.8V0.9h15.2
			c1,0,1.7,0.2,2.1,0.6c0.4,0.4,0.6,0.9,0.6,1.5c0,0.3-0.1,0.7-0.2,1.2c-0.2,0.4-0.3,0.9-0.5,1.2l-9,21.1h-5.7L158.7,6.3z"/>
		<path class="st0" d="M186.9,0.1c1,0,1.8,0.1,2.5,0.3c0.7,0.2,1.3,0.5,1.8,1c0.5,0.5,0.9,1.1,1.3,1.8s0.7,1.7,1,2.8l5.2,20.4
			l-5.8,0.6l-1.9-7.5h-8.4l-2,7.5l-5.5-0.8l5.7-20.1c0.3-0.9,0.6-1.7,0.9-2.5c0.3-0.7,0.7-1.4,1.2-1.9c0.5-0.5,1.1-0.9,1.7-1.2
			S186,0.1,186.9,0.1z M183.7,14.9h6.1l-1.9-8.2c-0.1-0.5-0.2-0.8-0.4-1.1c-0.1-0.2-0.3-0.4-0.6-0.4c-0.3,0-0.6,0.1-0.7,0.3
			c-0.2,0.2-0.3,0.6-0.4,1.1L183.7,14.9z"/>
		<path class="st0" d="M217.1,5h-7v21.5h-5.8V5h-7V0.5h19.8V5z"/>
	</g>
</g>
</svg>
