<?xml version="1.0" encoding="utf-8"?>
<!-- Generator: Adobe Illustrator 19.2.1, SVG Export Plug-In . SVG Version: 6.00 Build 0)  -->
<!DOCTYPE svg PUBLIC "-//W3C//DTD SVG 1.1//EN" "http://www.w3.org/Graphics/SVG/1.1/DTD/svg11.dtd">
<svg version="1.1" id="Layer_1" xmlns="http://www.w3.org/2000/svg" xmlns:xlink="http://www.w3.org/1999/xlink" x="0px" y="0px"
	 viewBox="0 0 202.5 29.3" style="enable-background:new 0 0 202.5 29.3;" xml:space="preserve">
<style type="text/css">
	.st0{fill:#616161;}
</style>
<g>
	<path class="st0" d="M16.4,17.9h-5.3v-2.7h8.6v11.7c-0.7,0.4-1.4,0.8-2,1.1c-0.7,0.3-1.3,0.6-2,0.8c-0.7,0.2-1.4,0.4-2.1,0.5
		s-1.5,0.1-2.4,0.1c-2.1,0-3.8-0.3-5.3-1c-1.4-0.7-2.6-1.6-3.5-2.8c-0.9-1.2-1.5-2.6-1.9-4.3C0.2,19.6,0,17.7,0,15.7
		c0-1.9,0.2-3.7,0.6-5.4c0.4-1.7,1.1-3.1,2-4.3c0.9-1.2,2.1-2.2,3.6-2.8c1.5-0.7,3.2-1,5.3-1c1.4,0,2.7,0.2,4,0.6
		c1.2,0.4,2.2,0.9,3,1.4l-1.3,2.3c-0.8-0.5-1.7-0.9-2.6-1.2c-0.9-0.3-2-0.5-3.1-0.5c-1,0-2,0.2-2.9,0.5C7.7,5.6,6.8,6.2,6.1,7
		c-0.7,0.8-1.3,1.9-1.7,3.3c-0.4,1.4-0.6,3.2-0.6,5.4c0,3.6,0.6,6.3,1.8,8.1c1.2,1.8,3.1,2.7,5.7,2.7c1.9,0,3.6-0.4,5.1-1.2V17.9z"
		/>
	<path class="st0" d="M25.5,13h-2.2v-2.4h4.6l0.6,2.3c0.3-0.3,0.6-0.7,1-1c0.3-0.3,0.7-0.6,1.1-0.8c0.4-0.2,0.9-0.4,1.4-0.5
		c0.5-0.1,1.1-0.2,1.8-0.2c0.9,0,1.6,0.1,2.3,0.3l-0.9,3c-0.3-0.1-0.6-0.2-1-0.3c-0.4,0-0.7-0.1-1-0.1c-1.8,0-3.2,0.6-4.2,1.8v13.4
		h-3.3V13z"/>
	<path class="st0" d="M39.2,13h-2.3v-2.4h5.7v18h-3.3V13z M40.5,7.3c-0.7,0-1.2-0.2-1.6-0.7c-0.4-0.5-0.6-1-0.6-1.7s0.2-1.3,0.6-1.7
		c0.4-0.5,0.9-0.7,1.6-0.7c0.7,0,1.3,0.2,1.7,0.7c0.4,0.5,0.6,1,0.6,1.7s-0.2,1.3-0.6,1.7C41.8,7,41.2,7.3,40.5,7.3z"/>
	<path class="st0" d="M47.6,25.3c0.6,0.3,1.3,0.6,2.2,1s2,0.5,3.3,0.5c1.3,0,2.3-0.2,3-0.6c0.7-0.4,1.1-1.1,1.1-2.1
		c0-0.6-0.1-1-0.4-1.3c-0.2-0.3-0.6-0.6-1-0.9c-0.4-0.2-0.9-0.4-1.4-0.6c-0.5-0.1-1.1-0.3-1.7-0.5c-0.7-0.2-1.3-0.4-2-0.6
		c-0.7-0.2-1.2-0.6-1.8-0.9c-0.5-0.4-0.9-0.9-1.3-1.5c-0.3-0.6-0.5-1.4-0.5-2.3c0-0.8,0.1-1.5,0.4-2.2c0.3-0.7,0.7-1.3,1.3-1.7
		c0.6-0.5,1.3-0.9,2.1-1.2s1.9-0.4,3-0.4c1.2,0,2.2,0.1,3.2,0.4c1,0.3,1.8,0.6,2.5,1l-1,2.2c-1.5-0.8-3.1-1.2-4.8-1.2
		c-1.2,0-2.1,0.2-2.8,0.6c-0.7,0.4-1,1.1-1,2c0,0.5,0.1,1,0.3,1.3c0.2,0.3,0.5,0.6,0.9,0.8c0.4,0.2,0.8,0.4,1.3,0.6
		c0.5,0.2,1,0.3,1.5,0.5c0.6,0.2,1.3,0.4,2,0.6c0.7,0.2,1.3,0.5,1.9,0.9c0.6,0.4,1,0.9,1.4,1.5c0.4,0.6,0.6,1.4,0.6,2.4
		c0,1.8-0.6,3.2-1.7,4.2s-2.9,1.5-5.3,1.5c-1.6,0-3-0.2-4.1-0.6c-1.2-0.4-2-0.8-2.6-1.2L47.6,25.3z"/>
	<path class="st0" d="M72.5,2.7h3.6l6.1,13.4c0.2,0.4,0.3,0.7,0.5,0.8c0.1,0.1,0.3,0.2,0.5,0.2c0.2,0,0.3-0.1,0.5-0.2
		c0.1-0.2,0.3-0.4,0.5-0.8l6.5-13.4H94l1.3,26h-3.5L90.9,9l-4.2,8.6c-0.2,0.4-0.4,0.8-0.6,1.2c-0.2,0.3-0.4,0.6-0.7,0.9
		c-0.3,0.3-0.6,0.4-0.9,0.6c-0.4,0.1-0.8,0.2-1.4,0.2c-0.6,0-1.1-0.1-1.4-0.2c-0.4-0.1-0.7-0.3-1-0.6s-0.5-0.5-0.7-0.9
		c-0.2-0.4-0.4-0.8-0.6-1.3l-4-8.7l-0.8,19.8h-3.4L72.5,2.7z"/>
	<path class="st0" d="M114.3,27.9c-0.6,0.3-1.4,0.7-2.5,1s-2.2,0.5-3.4,0.5c-1.7,0-3-0.2-4.1-0.7c-1.1-0.5-2-1.1-2.6-2
		s-1.1-1.9-1.4-3c-0.3-1.2-0.4-2.5-0.4-3.9c0-1.3,0.2-2.6,0.5-3.7c0.3-1.2,0.8-2.2,1.4-3.1c0.6-0.9,1.5-1.6,2.5-2.1
		c1-0.5,2.2-0.8,3.6-0.8c1.3,0,2.5,0.3,3.4,0.8c0.9,0.6,1.7,1.3,2.2,2.1s1,1.9,1.2,3c0.3,1.1,0.4,2.2,0.4,3.3l-1.2,1.3h-10.7
		c0.1,2.1,0.6,3.7,1.4,4.7c0.8,1,2.1,1.5,3.9,1.5c0.9,0,1.8-0.1,2.6-0.3c0.8-0.2,1.6-0.5,2.3-0.8L114.3,27.9z M111.6,18.2
		c0-1.9-0.3-3.4-1-4.4c-0.7-1-1.7-1.5-3.1-1.5c-1.5,0-2.5,0.5-3.2,1.5s-1,2.5-1.1,4.3H111.6z"/>
	<path class="st0" d="M120.8,13.1h-3.3v-2.4h3.4V5.3h3.2v5.4h5.3v2.4h-5.3v10.4c0,0.7,0.1,1.3,0.2,1.7s0.3,0.7,0.5,1
		c0.2,0.2,0.5,0.4,0.8,0.5c0.3,0.1,0.7,0.1,1,0.1c0.4,0,0.8,0,1.3-0.1s1-0.2,1.4-0.4l0.7,2.2c-0.4,0.2-1,0.4-1.7,0.6
		c-0.7,0.2-1.5,0.3-2.3,0.3c-0.8,0-1.6-0.1-2.2-0.3s-1.2-0.5-1.7-0.8c-0.5-0.4-0.8-0.9-1.1-1.6c-0.3-0.7-0.4-1.5-0.4-2.6V13.1z"/>
	<path class="st0" d="M143.7,27.2c-0.7,0.6-1.5,1-2.3,1.5c-0.9,0.4-2,0.6-3.3,0.6c-1.8,0-3.2-0.5-4.3-1.4c-1.1-0.9-1.6-2.4-1.6-4.4
		c0-1.1,0.2-2,0.6-2.7c0.4-0.7,0.9-1.3,1.6-1.8s1.5-0.8,2.4-1c0.9-0.2,2-0.3,3.1-0.3h3.1v-0.9c0-1.5-0.2-2.6-0.7-3.3
		c-0.5-0.7-1.4-1-2.7-1c-1.7,0-3.5,0.4-5.3,1.1l-0.8-2.2c0.7-0.3,1.6-0.6,2.7-0.9s2.4-0.5,3.9-0.5c1.4,0,2.5,0.2,3.3,0.6
		c0.8,0.4,1.4,0.9,1.9,1.6c0.4,0.7,0.7,1.5,0.8,2.4c0.1,0.9,0.2,1.9,0.2,2.9v7.7l1.5,2.3l-2.3,1.8L143.7,27.2z M143,19.9h-2.9
		c-1.7,0-2.8,0.3-3.5,0.8c-0.7,0.5-1,1.4-1,2.7c0,1.2,0.3,2,0.8,2.6c0.5,0.6,1.3,0.8,2.2,0.8c1.1,0,2-0.2,2.7-0.6
		c0.8-0.4,1.3-0.8,1.7-1.2V19.9z M141.7,0l2.6,1.8l-5.1,5.9l-1.7-1.2L141.7,0z"/>
	<path class="st0" d="M152,4.6h-2.2V2.2h5.6v26.5H152V4.6z"/>
	<path class="st0" d="M161.3,13H159v-2.4h5.7v18h-3.3V13z M162.6,7.3c-0.7,0-1.2-0.2-1.6-0.7c-0.4-0.5-0.6-1-0.6-1.7
		s0.2-1.3,0.6-1.7c0.4-0.5,0.9-0.7,1.6-0.7c0.7,0,1.3,0.2,1.7,0.7c0.4,0.5,0.6,1,0.6,1.7s-0.2,1.3-0.6,1.7
		C163.9,7,163.3,7.3,162.6,7.3z"/>
	<path class="st0" d="M183.8,27.9c-0.6,0.4-1.5,0.7-2.4,1c-1,0.3-2.1,0.5-3.4,0.5c-1.6,0-3-0.2-4.1-0.7c-1.1-0.5-1.9-1.1-2.6-1.9
		c-0.6-0.8-1.1-1.8-1.4-3c-0.3-1.2-0.4-2.5-0.4-3.9c0-1.4,0.2-2.7,0.5-3.9c0.3-1.2,0.9-2.2,1.6-3.1s1.6-1.6,2.7-2.1
		c1.1-0.5,2.4-0.7,3.9-0.7c1.1,0,2.1,0.1,3,0.4s1.7,0.6,2.4,1l-1,2.2c-0.6-0.3-1.3-0.6-2.1-0.8c-0.7-0.2-1.5-0.3-2.4-0.3
		c-1.8,0-3.1,0.6-3.9,1.8s-1.2,3.1-1.2,5.5c0,1.1,0.1,2,0.3,2.9c0.2,0.9,0.5,1.6,0.9,2.2c0.4,0.6,0.9,1.1,1.6,1.4
		c0.7,0.3,1.5,0.5,2.5,0.5c0.8,0,1.5-0.1,2.2-0.2c0.7-0.1,1.4-0.4,2.4-0.9L183.8,27.9z"/>
	<path class="st0" d="M194.3,29.3c-1.5,0-2.8-0.2-3.9-0.7c-1-0.5-1.9-1.2-2.5-2s-1.1-1.9-1.3-3.1c-0.3-1.2-0.4-2.5-0.4-3.9
		c0-1.4,0.2-2.7,0.5-3.9c0.3-1.2,0.8-2.2,1.5-3.1c0.7-0.9,1.5-1.5,2.6-2c1-0.5,2.2-0.7,3.6-0.7c1.4,0,2.7,0.2,3.7,0.7
		c1,0.5,1.9,1.1,2.5,2s1.1,1.9,1.5,3.1c0.3,1.2,0.5,2.5,0.5,3.9c0,1.4-0.2,2.7-0.5,3.9c-0.3,1.2-0.8,2.2-1.5,3.1
		c-0.7,0.9-1.5,1.5-2.6,2C197,29.1,195.7,29.3,194.3,29.3z M194.4,26.9c1.7,0,2.9-0.6,3.7-1.9s1.1-3.1,1.1-5.4c0-2.3-0.4-4-1.1-5.3
		c-0.7-1.2-1.9-1.9-3.7-1.9c-1.8,0-3,0.6-3.7,1.8c-0.7,1.2-1.1,3-1.1,5.4c0,1.1,0.1,2.1,0.3,3s0.4,1.7,0.8,2.3s0.9,1.1,1.5,1.4
		C192.8,26.8,193.5,26.9,194.4,26.9z"/>
</g>
</svg>
