<?xml version="1.0" encoding="utf-8"?>
<!-- Generator: Adobe Illustrator 19.2.1, SVG Export Plug-In . SVG Version: 6.00 Build 0)  -->
<!DOCTYPE svg PUBLIC "-//W3C//DTD SVG 1.1//EN" "http://www.w3.org/Graphics/SVG/1.1/DTD/svg11.dtd">
<svg version="1.1" id="Layer_1" xmlns="http://www.w3.org/2000/svg" xmlns:xlink="http://www.w3.org/1999/xlink" x="0px" y="0px"
	 viewBox="0 0 205.5 34.3" style="enable-background:new 0 0 205.5 34.3;" xml:space="preserve">
<style type="text/css">
	.st0{fill:#616161;}
</style>
<g>
	<path class="st0" d="M1.3,22.5c1,0.6,2.1,1.1,3.2,1.4c1.1,0.3,2.4,0.5,4,0.5c1.9,0,3.4-0.4,4.3-1.2c0.9-0.8,1.4-1.9,1.4-3.3
		c0-0.9-0.2-1.6-0.5-2.1c-0.3-0.6-0.7-1-1.3-1.4s-1.1-0.7-1.8-0.9c-0.7-0.2-1.4-0.5-2.2-0.7c-0.9-0.2-1.8-0.5-2.7-0.8
		c-0.9-0.3-1.7-0.7-2.5-1.3c-0.7-0.5-1.3-1.2-1.8-2.1C1,9.8,0.8,8.6,0.8,7.3c0-1,0.2-1.9,0.5-2.8C1.7,3.6,2.2,2.8,3,2.2
		S4.6,1,5.8,0.6S8.2,0,9.7,0c0.7,0,1.4,0.1,2.1,0.2s1.4,0.3,2,0.4c0.6,0.2,1.2,0.4,1.8,0.6c0.6,0.2,1,0.5,1.5,0.7l-1.3,2.4
		c-0.8-0.5-1.7-0.9-2.8-1.2S11,2.6,9.9,2.6C8,2.6,6.6,3,5.6,3.7c-1,0.7-1.5,1.8-1.5,3.1c0,0.8,0.2,1.5,0.5,2C5,9.4,5.5,9.8,6,10.2
		c0.6,0.3,1.2,0.6,2,0.9c0.7,0.2,1.5,0.5,2.3,0.7c0.9,0.3,1.8,0.6,2.6,0.9c0.9,0.3,1.7,0.8,2.4,1.3c0.7,0.5,1.3,1.2,1.7,2.1
		s0.6,1.9,0.6,3.2c0,2.4-0.8,4.4-2.4,5.8c-1.6,1.4-3.9,2.2-6.9,2.2c-1.7,0-3.2-0.2-4.6-0.5C2.3,26.2,1.1,25.7,0,25L1.3,22.5z"/>
	<path class="st0" d="M21.9,8.5h3.3v11.7c0,1.4,0.3,2.5,0.8,3.3c0.5,0.8,1.4,1.2,2.7,1.2c1.1,0,1.9-0.2,2.6-0.5s1.3-0.8,1.9-1.3V8.5
		h3.3v14.6l1.5,2.2l-2.4,1.8l-1.7-2c-1,0.7-1.9,1.3-2.8,1.6s-1.9,0.5-3,0.5c-1.3,0-2.4-0.2-3.2-0.6c-0.8-0.4-1.5-0.9-1.9-1.5
		s-0.8-1.4-0.9-2.2c-0.2-0.9-0.3-1.7-0.3-2.7V8.5z"/>
	<path class="st0" d="M42.4,12.2L41,9.1l2.7-1.4l1.5,2.3c0.6-0.6,1.3-1.1,2.2-1.5c0.8-0.5,1.8-0.7,3-0.7c2.5,0,4.3,0.8,5.6,2.4
		c1.3,1.6,1.9,4,1.9,7.3c0,1.4-0.2,2.8-0.6,3.9c-0.4,1.2-0.9,2.2-1.7,3.1c-0.7,0.9-1.7,1.5-2.8,2c-1.1,0.5-2.4,0.7-3.9,0.7
		c-0.5,0-1.1,0-1.7-0.1c-0.6-0.1-1.1-0.2-1.6-0.3v7.6h-3.3V12.2z M45.8,24.2c0.4,0.1,0.9,0.2,1.6,0.4c0.6,0.1,1.3,0.2,1.9,0.2
		c1.8,0,3.1-0.6,4-1.9c0.9-1.3,1.3-3.1,1.3-5.4c0-2.3-0.3-4-1-5.3c-0.7-1.3-1.8-1.9-3.3-1.9c-0.9,0-1.7,0.2-2.3,0.5
		c-0.6,0.3-1.3,0.8-2.1,1.5V24.2z"/>
	<path class="st0" d="M76.5,25.7c-0.6,0.3-1.4,0.7-2.5,1s-2.2,0.5-3.4,0.5c-1.7,0-3-0.2-4.1-0.7c-1.1-0.5-2-1.1-2.6-2
		s-1.1-1.9-1.4-3c-0.3-1.2-0.4-2.5-0.4-3.9c0-1.3,0.2-2.6,0.5-3.7c0.3-1.2,0.8-2.2,1.4-3.1c0.6-0.9,1.5-1.6,2.5-2.1
		c1-0.5,2.2-0.8,3.6-0.8c1.3,0,2.5,0.3,3.4,0.8c0.9,0.6,1.7,1.3,2.2,2.1s1,1.9,1.2,3c0.3,1.1,0.4,2.2,0.4,3.3l-1.2,1.3H65.4
		c0.1,2.1,0.6,3.7,1.4,4.7c0.8,1,2.1,1.5,3.9,1.5c0.9,0,1.8-0.1,2.6-0.3c0.8-0.2,1.6-0.5,2.3-0.8L76.5,25.7z M73.8,16
		c0-1.9-0.3-3.4-1-4.4c-0.7-1-1.7-1.5-3.1-1.5c-1.5,0-2.5,0.5-3.2,1.5s-1,2.5-1.1,4.3H73.8z"/>
	<path class="st0" d="M82.3,10.8H80V8.5h4.6l0.6,2.3c0.3-0.3,0.6-0.7,1-1c0.3-0.3,0.7-0.6,1.1-0.8c0.4-0.2,0.9-0.4,1.4-0.5
		c0.5-0.1,1.1-0.2,1.8-0.2c0.9,0,1.6,0.1,2.3,0.3l-0.9,3c-0.3-0.1-0.6-0.2-1-0.3c-0.4,0-0.7-0.1-1-0.1c-1.8,0-3.2,0.6-4.2,1.8v13.4
		h-3.3V10.8z"/>
	<path class="st0" d="M102.7,0.5h8c1.2,0,2.4,0.1,3.4,0.4s1.9,0.6,2.7,1.2c0.8,0.5,1.4,1.2,1.8,2.1c0.4,0.9,0.6,1.9,0.6,3.1
		c0,1.1-0.3,2.1-0.9,3.1s-1.5,1.7-2.6,2.3c1.6,0.6,2.7,1.4,3.5,2.5c0.8,1.1,1.2,2.4,1.2,4c0,1.2-0.2,2.3-0.6,3.2
		c-0.4,0.9-1,1.7-1.8,2.3c-0.8,0.6-1.7,1.1-2.7,1.4c-1,0.3-2.2,0.5-3.4,0.5h-9.2V0.5z M111.2,11.8c0.8,0,1.4-0.1,2-0.4
		c0.6-0.2,1-0.6,1.4-1c0.4-0.4,0.6-0.9,0.8-1.4s0.3-1.1,0.3-1.6c0-1.6-0.4-2.7-1.3-3.4c-0.9-0.7-2.3-1-4.2-1h-3.9v8.7H111.2z
		 M111.3,23.9c1.9,0,3.3-0.4,4.2-1.2c0.9-0.8,1.4-2,1.4-3.7c0-0.9-0.2-1.7-0.5-2.3s-0.8-1.1-1.4-1.4c-0.6-0.3-1.2-0.5-1.9-0.7
		s-1.3-0.2-1.9-0.2h-4.9v9.4H111.3z"/>
	<path class="st0" d="M124.9,2.4h-2.2V0h5.6v26.5h-3.3V2.4z"/>
	<path class="st0" d="M144.2,25c-0.7,0.6-1.5,1-2.3,1.5c-0.9,0.4-2,0.6-3.3,0.6c-1.8,0-3.2-0.5-4.3-1.4c-1.1-0.9-1.6-2.4-1.6-4.4
		c0-1.1,0.2-2,0.6-2.7c0.4-0.7,0.9-1.3,1.6-1.8s1.5-0.8,2.4-1c0.9-0.2,2-0.3,3.1-0.3h3.1v-0.9c0-1.5-0.2-2.6-0.7-3.3
		c-0.5-0.7-1.4-1-2.7-1c-1.7,0-3.5,0.4-5.3,1.1L134,9.2c0.7-0.3,1.6-0.6,2.7-0.9s2.4-0.5,3.9-0.5c1.4,0,2.5,0.2,3.3,0.6
		c0.8,0.4,1.4,0.9,1.9,1.6c0.4,0.7,0.7,1.5,0.8,2.4c0.1,0.9,0.2,1.9,0.2,2.9V23l1.5,2.3l-2.3,1.8L144.2,25z M143.5,17.7h-2.9
		c-1.7,0-2.8,0.3-3.5,0.8c-0.7,0.5-1,1.4-1,2.7c0,1.2,0.3,2,0.8,2.6c0.5,0.6,1.3,0.8,2.2,0.8c1.1,0,2-0.2,2.7-0.6
		c0.8-0.4,1.3-0.8,1.7-1.2V17.7z"/>
	<path class="st0" d="M152.6,12.2l-1.4-3.1l2.7-1.4l1.5,2.4c1.1-0.8,2.1-1.4,3.1-1.8c1-0.4,2-0.5,3.1-0.5c1.2,0,2.2,0.2,3,0.6
		s1.4,0.9,1.9,1.5c0.5,0.6,0.8,1.4,1,2.2c0.2,0.9,0.3,1.7,0.3,2.7v11.7h-3.3V15c0-1.5-0.3-2.6-0.9-3.3c-0.6-0.7-1.5-1-2.8-1
		c-0.9,0-1.8,0.2-2.6,0.5c-0.8,0.3-1.5,0.7-2.1,1.2v14.1h-3.3V12.2z"/>
	<path class="st0" d="M186.8,25.7c-0.6,0.4-1.5,0.7-2.4,1c-1,0.3-2.1,0.5-3.4,0.5c-1.6,0-3-0.2-4.1-0.7c-1.1-0.5-1.9-1.1-2.6-1.9
		c-0.6-0.8-1.1-1.8-1.4-3c-0.3-1.2-0.4-2.5-0.4-3.9c0-1.4,0.2-2.7,0.5-3.9c0.3-1.2,0.9-2.2,1.6-3.1s1.6-1.6,2.7-2.1
		c1.1-0.5,2.4-0.7,3.9-0.7c1.1,0,2.1,0.1,3,0.4s1.7,0.6,2.4,1l-1,2.2c-0.6-0.3-1.3-0.6-2.1-0.8c-0.7-0.2-1.5-0.3-2.4-0.3
		c-1.8,0-3.1,0.6-3.9,1.8s-1.2,3.1-1.2,5.5c0,1.1,0.1,2,0.3,2.9c0.2,0.9,0.5,1.6,0.9,2.2c0.4,0.6,0.9,1.1,1.6,1.4
		c0.7,0.3,1.5,0.5,2.5,0.5c0.8,0,1.5-0.1,2.2-0.2c0.7-0.1,1.4-0.4,2.4-0.9L186.8,25.7z"/>
	<path class="st0" d="M197.2,27.1c-1.5,0-2.8-0.2-3.9-0.7c-1-0.5-1.9-1.2-2.5-2s-1.1-1.9-1.3-3.1c-0.3-1.2-0.4-2.5-0.4-3.9
		c0-1.4,0.2-2.7,0.5-3.9c0.3-1.2,0.8-2.2,1.5-3.1c0.7-0.9,1.5-1.5,2.6-2c1-0.5,2.2-0.7,3.6-0.7c1.4,0,2.7,0.2,3.7,0.7
		c1,0.5,1.9,1.1,2.5,2s1.1,1.9,1.5,3.1c0.3,1.2,0.5,2.5,0.5,3.9c0,1.4-0.2,2.7-0.5,3.9c-0.3,1.2-0.8,2.2-1.5,3.1
		c-0.7,0.9-1.5,1.5-2.6,2C200,26.9,198.7,27.1,197.2,27.1z M197.3,24.8c1.7,0,2.9-0.6,3.7-1.9s1.1-3.1,1.1-5.4c0-2.3-0.4-4-1.1-5.3
		c-0.7-1.2-1.9-1.9-3.7-1.9c-1.8,0-3,0.6-3.7,1.8c-0.7,1.2-1.1,3-1.1,5.4c0,1.1,0.1,2.1,0.3,3s0.4,1.7,0.8,2.3s0.9,1.1,1.5,1.4
		C195.7,24.6,196.4,24.8,197.3,24.8z"/>
</g>
</svg>
