<?xml version="1.0" encoding="utf-8"?>
<!-- Generator: Adobe Illustrator 19.2.1, SVG Export Plug-In . SVG Version: 6.00 Build 0)  -->
<!DOCTYPE svg PUBLIC "-//W3C//DTD SVG 1.1//EN" "http://www.w3.org/Graphics/SVG/1.1/DTD/svg11.dtd">
<svg version="1.1" id="Layer_1" xmlns="http://www.w3.org/2000/svg" xmlns:xlink="http://www.w3.org/1999/xlink" x="0px" y="0px"
	 viewBox="0 0 2050.6 154.1" style="enable-background:new 0 0 2050.6 154.1;" xml:space="preserve">
<style type="text/css">
	.st0{fill:none;stroke:#B4B4B4;stroke-width:1.2;stroke-miterlimit:10;}
	.st1{fill:url(#SVGID_1_);}
	.st2{fill:url(#SVGID_2_);}
	.st3{fill:url(#SVGID_3_);}
	.st4{fill:url(#SVGID_4_);}
	.st5{fill:url(#SVGID_5_);}
	.st6{fill:url(#SVGID_6_);}
	.st7{fill:url(#SVGID_7_);}
	.st8{fill:url(#SVGID_8_);}
	.st9{fill:url(#SVGID_9_);}
</style>
<line class="st0" x1="0" y1="132.7" x2="1604" y2="132.7"/>
<line class="st0" x1="560.7" y1="21.4" x2="2050.6" y2="21.4"/>
<linearGradient id="SVGID_1_" gradientUnits="userSpaceOnUse" x1="718.2" y1="-844.7157" x2="718.2" y2="-871.3823" gradientTransform="matrix(1 0 0 -1 0 -755.61)">
	<stop  offset="0.25" style="stop-color:#255055"/>
	<stop  offset="1" style="stop-color:#06373D"/>
</linearGradient>
<polygon class="st1" points="681.4,41.1 657,117.1 755.1,117.1 779.4,41.1 "/>
<linearGradient id="SVGID_2_" gradientUnits="userSpaceOnUse" x1="844.6" y1="-844.7157" x2="844.6" y2="-871.3823" gradientTransform="matrix(1 0 0 -1 0 -755.61)">
	<stop  offset="0.25" style="stop-color:#878989"/>
	<stop  offset="1" style="stop-color:#575959"/>
</linearGradient>
<polygon class="st2" points="807.8,41.1 783.4,117.1 881.5,117.1 905.8,41.1 "/>
<linearGradient id="SVGID_3_" gradientUnits="userSpaceOnUse" x1="971.1" y1="-845.3824" x2="971.1" y2="-871.3909" gradientTransform="matrix(1 0 0 -1 0 -755.61)">
	<stop  offset="0.25" style="stop-color:#B8B9B5"/>
	<stop  offset="1" style="stop-color:#8D8F87"/>
</linearGradient>
<polygon class="st3" points="934.2,41.1 909.9,117.1 1007.9,117.1 1032.3,41.1 "/>
<linearGradient id="SVGID_4_" gradientUnits="userSpaceOnUse" x1="1097.5" y1="-844.7157" x2="1097.5" y2="-869.3823" gradientTransform="matrix(1 0 0 -1 0 -755.61)">
	<stop  offset="0.25" style="stop-color:#1B2B29"/>
	<stop  offset="1" style="stop-color:#071816"/>
</linearGradient>
<polygon class="st4" points="1060.7,41.1 1036.3,117.1 1134.4,117.1 1158.7,41.1 "/>
<linearGradient id="SVGID_5_" gradientUnits="userSpaceOnUse" x1="1350.8" y1="-844.7157" x2="1350.8" y2="-868.7527" gradientTransform="matrix(1 0 0 -1 0 -755.61)">
	<stop  offset="0.25" style="stop-color:#F9F9FA"/>
	<stop  offset="1" style="stop-color:#CCCECE"/>
</linearGradient>
<polygon class="st5" points="1313.9,41.1 1289.6,117.1 1387.6,117.1 1412,41.1 "/>
<linearGradient id="SVGID_6_" gradientUnits="userSpaceOnUse" x1="1224" y1="-844.7157" x2="1224" y2="-868.7527" gradientTransform="matrix(1 0 0 -1 0 -755.61)">
	<stop  offset="0.25" style="stop-color:#ECEFF1"/>
	<stop  offset="1" style="stop-color:#D0D8DC"/>
</linearGradient>
<polygon class="st6" points="1187.1,41.1 1162.8,117.1 1260.8,117.1 1285.2,41.1 "/>
<linearGradient id="SVGID_7_" gradientUnits="userSpaceOnUse" x1="1477.3" y1="-844.7157" x2="1477.3" y2="-868.7527" gradientTransform="matrix(1 0 0 -1 0 -755.61)">
	<stop  offset="0.25" style="stop-color:#837B75"/>
	<stop  offset="1" style="stop-color:#665C55"/>
</linearGradient>
<polygon class="st7" points="1440.4,41.1 1416.1,117.1 1514.1,117.1 1538.5,41.1 "/>
<linearGradient id="SVGID_8_" gradientUnits="userSpaceOnUse" x1="591.7" y1="999.7667" x2="591.7" y2="1027.7745" gradientTransform="matrix(1 0 0 1 0 -912)">
	<stop  offset="0.25" style="stop-color:#DDD3C3"/>
	<stop  offset="1" style="stop-color:#A88E66"/>
</linearGradient>
<polygon class="st8" points="554.9,41.1 530.5,117.1 628.6,117.1 652.9,41.1 "/>
<linearGradient id="SVGID_9_" gradientUnits="userSpaceOnUse" x1="465.2" y1="999.7667" x2="465.2" y2="1027.7747" gradientTransform="matrix(1 0 0 1 0 -912)">
	<stop  offset="0.25" style="stop-color:#942834"/>
	<stop  offset="1" style="stop-color:#65000E"/>
</linearGradient>
<polygon class="st9" points="428.4,41.1 404,117.1 502.1,117.1 526.4,41.1 "/>
</svg>
