<?xml version="1.0" encoding="utf-8"?>
<!-- Generator: Adobe Illustrator 19.2.1, SVG Export Plug-In . SVG Version: 6.00 Build 0)  -->
<!DOCTYPE svg PUBLIC "-//W3C//DTD SVG 1.1//EN" "http://www.w3.org/Graphics/SVG/1.1/DTD/svg11.dtd">
<svg version="1.1" id="Layer_1" xmlns="http://www.w3.org/2000/svg" xmlns:xlink="http://www.w3.org/1999/xlink" x="0px" y="0px"
	 viewBox="0 0 132.8 35.4" style="enable-background:new 0 0 132.8 35.4;" xml:space="preserve">
<style type="text/css">
	.st0{fill:#EB2030;}
</style>
<g>
	<path class="st0" d="M5.8,27.5H0v-26h5.8V27.5z"/>
	<path class="st0" d="M10.7,13.2l-1.1-2.7l4.2-2l1.9,2.6c1-0.9,1.9-1.5,2.8-1.9c0.9-0.4,1.7-0.6,2.5-0.6c1.3,0,2.4,0.2,3.2,0.7
		c0.8,0.5,1.3,1.1,1.7,1.9c0.9-0.8,1.8-1.5,2.8-1.9c0.9-0.5,1.9-0.7,2.9-0.7c1.2,0,2.2,0.2,3,0.6c0.7,0.4,1.3,0.9,1.7,1.6
		c0.4,0.7,0.7,1.5,0.8,2.4s0.2,2,0.2,3.1v11.4h-5.5V16.9c0-0.7,0-1.3-0.1-1.8c0-0.5-0.1-0.9-0.3-1.2c-0.2-0.3-0.4-0.6-0.7-0.7
		c-0.3-0.2-0.7-0.2-1.2-0.2c-0.5,0-1,0.2-1.5,0.5c-0.5,0.3-1,0.7-1.4,1.2c0,0.2,0,0.5,0.1,0.7c0,0.2,0,0.5,0,0.8v11.4h-5.5V16.9
		c0-0.7,0-1.3-0.1-1.8c0-0.5-0.2-0.9-0.3-1.2c-0.2-0.3-0.4-0.6-0.7-0.7c-0.3-0.2-0.7-0.2-1.2-0.2c-0.4,0-0.9,0.2-1.4,0.5
		c-0.5,0.3-1,0.7-1.4,1.3v12.9h-5.5V13.2z"/>
	<path class="st0" d="M41.8,35.4V13.2l-1.1-2.7l4.2-2l1.9,2.6c0.7-0.8,1.5-1.4,2.4-1.9c0.9-0.5,1.9-0.7,3-0.7c2.4,0,4.2,0.9,5.4,2.6
		c1.2,1.7,1.8,4.2,1.8,7.3c0,1.5-0.2,2.9-0.6,4.1c-0.4,1.2-1,2.2-1.8,3.1c-0.8,0.8-1.7,1.5-2.8,1.9c-1.1,0.5-2.4,0.7-3.8,0.7
		c-0.5,0-1,0-1.5-0.1s-1-0.2-1.5-0.3v7.6H41.8z M49.7,24.2c1.3,0,2.3-0.5,3-1.5c0.7-1,1-2.4,1-4.4c0-0.9,0-1.7-0.1-2.4
		c-0.1-0.7-0.2-1.4-0.5-1.9c-0.2-0.5-0.6-0.9-1-1.2c-0.4-0.3-0.9-0.4-1.6-0.4c-0.6,0-1.2,0.2-1.8,0.6c-0.6,0.4-1.1,0.9-1.5,1.4v9.3
		c0.3,0.1,0.7,0.3,1.1,0.4S49.2,24.2,49.7,24.2z"/>
	<path class="st0" d="M71.7,24.2c1,0,1.9-0.1,2.7-0.2c0.8-0.2,1.6-0.4,2.4-0.8l1.6,3.4c-1.1,0.6-2.3,1.1-3.5,1.3
		c-1.2,0.2-2.5,0.3-3.9,0.3c-3.1,0-5.4-0.8-6.8-2.5c-1.4-1.7-2-4.1-2-7.3c0-1.5,0.2-2.8,0.6-4c0.4-1.2,0.9-2.3,1.6-3.1
		c0.7-0.9,1.6-1.6,2.7-2c1.1-0.5,2.4-0.7,3.8-0.7c1.4,0,2.6,0.2,3.6,0.7c1,0.5,1.8,1.1,2.5,2c0.6,0.9,1.1,1.9,1.4,3.2
		c0.3,1.2,0.4,2.7,0.4,4.2l-1.4,1.5h-9.7c0.2,1.5,0.6,2.5,1.3,3.2C69.6,23.9,70.5,24.2,71.7,24.2z M73.7,16.5c0-2.7-0.9-4.1-2.8-4.1
		c-1,0-1.7,0.3-2.2,0.8c-0.5,0.6-0.9,1.6-1,3.2H73.7z"/>
	<path class="st0" d="M94,14c-0.2-0.1-0.5-0.2-0.9-0.4c-0.4-0.1-0.9-0.2-1.5-0.2c-0.6,0-1.1,0.1-1.7,0.4s-1.1,0.7-1.6,1.4v12.2h-5.5
		V12.8h-2.3V9.1h6.9l0.5,2.4c0.8-1,1.6-1.6,2.4-2C91.1,9.1,92,8.9,93,8.9c0.4,0,0.8,0,1.2,0.1s0.8,0.1,1.2,0.2L94,14z"/>
	<path class="st0" d="M103.9,27.5h-5.5V12.8h-2.3V9.1h7.8V27.5z M100.9,6.7c-1.1,0-1.9-0.3-2.4-0.9s-0.8-1.4-0.8-2.4
		s0.3-1.8,0.8-2.4s1.4-1,2.4-1s1.9,0.3,2.4,1s0.8,1.5,0.8,2.4s-0.3,1.8-0.8,2.4S102,6.7,100.9,6.7z"/>
	<path class="st0" d="M113.1,28.2c-1.8,0-3.2-0.5-4.1-1.5c-1-1-1.5-2.5-1.5-4.3c0-2.2,0.7-3.8,2-4.7c1.3-0.9,3.3-1.4,6-1.4h2.3v-0.7
		c0-1-0.2-1.7-0.6-2.3c-0.4-0.5-1.1-0.8-2.2-0.8c-1.1,0-2,0.1-2.9,0.3c-0.9,0.2-1.7,0.5-2.4,0.8l-1.4-3.5c1-0.5,2.2-0.9,3.5-1.1
		c1.4-0.3,2.6-0.4,3.8-0.4c1.4,0,2.5,0.1,3.4,0.4s1.7,0.7,2.2,1.4c0.6,0.6,1,1.4,1.2,2.4c0.2,1,0.4,2.2,0.4,3.6v7.3l1.2,2.5
		l-4.2,2.1l-1.6-2.4c-0.9,0.8-1.8,1.4-2.6,1.8C115,28,114.1,28.2,113.1,28.2z M115,24.2c0.5,0,1-0.1,1.5-0.4c0.6-0.3,1-0.6,1.3-0.9
		v-3.6h-2.3c-0.9,0-1.6,0.2-2.1,0.5c-0.5,0.3-0.8,1-0.8,2c0,0.9,0.2,1.5,0.6,1.9C113.7,24.1,114.2,24.2,115,24.2z"/>
	<path class="st0" d="M132.8,27.5h-5.5V4.7H125V1h7.8V27.5z"/>
</g>
</svg>
