<?xml version="1.0" encoding="utf-8"?>
<!-- Generator: Adobe Illustrator 19.2.1, SVG Export Plug-In . SVG Version: 6.00 Build 0)  -->
<!DOCTYPE svg PUBLIC "-//W3C//DTD SVG 1.1//EN" "http://www.w3.org/Graphics/SVG/1.1/DTD/svg11.dtd">
<svg version="1.1" id="Layer_1" xmlns="http://www.w3.org/2000/svg" xmlns:xlink="http://www.w3.org/1999/xlink" x="0px" y="0px"
	 viewBox="0 0 123.7 28.3" style="enable-background:new 0 0 123.7 28.3;" xml:space="preserve">
<style type="text/css">
	.st0{fill:#EB2030;}
</style>
<g>
	<path class="st0" d="M5.8,23h11.4v4.5H0v-26h5.8V23z"/>
	<path class="st0" d="M25.9,27.5h-5.5V12.8h-2.3V9.1h7.8V27.5z M22.9,6.7c-1.1,0-1.9-0.3-2.4-0.9s-0.8-1.4-0.8-2.4s0.3-1.8,0.8-2.4
		s1.4-1,2.4-1s1.9,0.3,2.4,1c0.6,0.6,0.8,1.5,0.8,2.4s-0.3,1.8-0.8,2.4C24.8,6.4,24,6.7,22.9,6.7z"/>
	<path class="st0" d="M30.6,13.2l-1.1-2.7l4.2-2l1.9,2.6c1-0.9,1.9-1.5,2.8-1.9c0.9-0.4,1.7-0.6,2.5-0.6c1.3,0,2.4,0.2,3.2,0.7
		c0.8,0.5,1.3,1.1,1.7,1.9c0.9-0.8,1.8-1.5,2.8-1.9c0.9-0.5,1.9-0.7,2.9-0.7c1.2,0,2.2,0.2,3,0.6c0.7,0.4,1.3,0.9,1.7,1.6
		c0.4,0.7,0.7,1.5,0.8,2.4s0.2,2,0.2,3.1v11.4h-5.5V16.9c0-0.7,0-1.3-0.1-1.8c0-0.5-0.1-0.9-0.3-1.2c-0.2-0.3-0.4-0.6-0.7-0.7
		c-0.3-0.2-0.7-0.2-1.2-0.2c-0.5,0-1,0.2-1.5,0.5c-0.5,0.3-1,0.7-1.4,1.2c0,0.2,0,0.5,0.1,0.7c0,0.2,0,0.5,0,0.8v11.4h-5.5V16.9
		c0-0.7,0-1.3-0.1-1.8c0-0.5-0.2-0.9-0.3-1.2c-0.2-0.3-0.4-0.6-0.7-0.7c-0.3-0.2-0.7-0.2-1.2-0.2c-0.4,0-0.9,0.2-1.4,0.5
		c-0.5,0.3-1,0.7-1.4,1.3v12.9h-5.5V13.2z"/>
	<path class="st0" d="M67.6,27.5h-5.5V12.8h-2.3V9.1h7.8V27.5z M64.6,6.7c-1.1,0-1.9-0.3-2.4-0.9s-0.8-1.4-0.8-2.4s0.3-1.8,0.8-2.4
		s1.4-1,2.4-1s1.9,0.3,2.4,1c0.6,0.6,0.8,1.5,0.8,2.4S67.6,5.1,67,5.8C66.5,6.4,65.7,6.7,64.6,6.7z"/>
	<path class="st0" d="M70.3,9.1h3.2V3.9h5.3v5.3h5.2V13h-5.2v7.5c0,0.6,0,1.2,0.1,1.7s0.1,0.8,0.3,1.1s0.3,0.5,0.6,0.6
		c0.3,0.1,0.7,0.2,1.2,0.2c0.5,0,1-0.1,1.5-0.2c0.5-0.2,1-0.3,1.4-0.5l1.2,3.4c-0.7,0.3-1.5,0.6-2.4,0.9C81.9,28,81,28.2,80,28.2
		c-1.3,0-2.3-0.1-3.2-0.4c-0.9-0.3-1.5-0.7-2-1.3c-0.5-0.6-0.9-1.4-1.1-2.3c-0.2-1-0.3-2.1-0.3-3.6V13h-3V9.1z"/>
	<path class="st0" d="M95.3,24.2c1,0,1.9-0.1,2.7-0.2c0.8-0.2,1.6-0.4,2.4-0.8l1.6,3.4c-1.1,0.6-2.3,1.1-3.5,1.3
		c-1.2,0.2-2.5,0.3-3.9,0.3c-3.1,0-5.4-0.8-6.8-2.5c-1.4-1.7-2-4.1-2-7.3c0-1.5,0.2-2.8,0.6-4c0.4-1.2,0.9-2.3,1.6-3.1
		c0.7-0.9,1.6-1.6,2.7-2c1.1-0.5,2.4-0.7,3.8-0.7c1.4,0,2.6,0.2,3.6,0.7c1,0.5,1.8,1.1,2.5,2c0.6,0.9,1.1,1.9,1.4,3.2
		c0.3,1.2,0.4,2.7,0.4,4.2l-1.4,1.5h-9.7c0.2,1.5,0.6,2.6,1.3,3.2C93.3,23.9,94.2,24.2,95.3,24.2z M97.3,16.5c0-2.7-0.9-4.1-2.8-4.1
		c-1,0-1.7,0.3-2.2,0.8c-0.5,0.6-0.9,1.6-1,3.2H97.3z"/>
	<path class="st0" d="M117.2,1h5.5v22.9l1,2.3l-4.3,2l-1.7-2.4c-0.8,0.7-1.6,1.3-2.5,1.7c-0.9,0.4-1.8,0.6-2.9,0.6
		c-2.4,0-4.2-0.9-5.3-2.6c-1.2-1.7-1.7-4.2-1.7-7.3c0-1.5,0.2-2.8,0.6-4c0.4-1.2,1-2.2,1.7-3.1s1.7-1.5,2.8-2
		c1.1-0.5,2.4-0.7,3.8-0.7c0.5,0,1,0,1.5,0.1c0.5,0.1,1,0.2,1.5,0.4V1z M114.8,12.5c-1.3,0-2.3,0.4-3,1.3c-0.7,0.9-1,2.4-1,4.5
		c0,2.2,0.3,3.7,0.8,4.6c0.6,0.9,1.3,1.3,2.3,1.3c0.7,0,1.4-0.2,1.9-0.6c0.5-0.4,1-0.9,1.3-1.3V13c-0.4-0.2-0.8-0.3-1.1-0.4
		C115.7,12.5,115.3,12.5,114.8,12.5z"/>
</g>
</svg>
