<?xml version="1.0" encoding="utf-8"?>
<!-- Generator: Adobe Illustrator 19.2.1, SVG Export Plug-In . SVG Version: 6.00 Build 0)  -->
<!DOCTYPE svg PUBLIC "-//W3C//DTD SVG 1.1//EN" "http://www.w3.org/Graphics/SVG/1.1/DTD/svg11.dtd">
<svg version="1.1" id="Layer_1" xmlns="http://www.w3.org/2000/svg" xmlns:xlink="http://www.w3.org/1999/xlink" x="0px" y="0px"
	 viewBox="0 0 1536.7 170.8" style="enable-background:new 0 0 1536.7 170.8;" xml:space="preserve">
<style type="text/css">
	.st0{fill:#595A5C;}
</style>
<g>
	<g>
		<path class="st0" d="M17,2.8h3.7v16.5c0,1.3,0.1,2.6,0.2,3.6c0.1,1.1,0.4,2,0.8,2.8c0.4,0.8,1,1.3,1.8,1.7
			c0.8,0.4,1.9,0.6,3.2,0.6c1.3,0,2.4-0.2,3.3-0.6s1.5-0.9,2-1.7c0.5-0.7,0.8-1.6,1-2.7c0.2-1.1,0.3-2.3,0.3-3.7V2.8h3.3v16.7
			c0,1.7-0.2,3.2-0.5,4.6c-0.3,1.4-0.8,2.6-1.6,3.6c-0.8,1-1.8,1.8-3.1,2.3c-1.3,0.6-2.9,0.8-4.8,0.8c-1.9,0-3.5-0.2-4.8-0.7
			c-1.2-0.5-2.2-1.2-2.9-2.1c-0.7-0.9-1.2-2.1-1.5-3.4C17.1,23.3,17,21.7,17,20V2.8z"/>
		<path class="st0" d="M43,15.2l-1.5-3.2l2.8-1.5l1.6,2.5c1.1-0.9,2.2-1.5,3.2-1.9c1-0.4,2.1-0.6,3.2-0.6c1.3,0,2.3,0.2,3.2,0.6
			c0.8,0.4,1.5,0.9,2,1.6c0.5,0.7,0.9,1.5,1.1,2.4c0.2,0.9,0.3,1.8,0.3,2.8v12.3h-3.5V18.1c0-1.6-0.3-2.7-1-3.5
			c-0.6-0.7-1.6-1.1-2.9-1.1c-1,0-1.9,0.2-2.8,0.5s-1.6,0.8-2.2,1.3v14.9H43V15.2z"/>
		<path class="st0" d="M75.7,28.7c-0.7,0.6-1.6,1.1-2.5,1.6c-0.9,0.5-2.1,0.7-3.5,0.7c-1.9,0-3.4-0.5-4.5-1.5
			c-1.1-1-1.7-2.6-1.7-4.7c0-1.1,0.2-2.1,0.6-2.8c0.4-0.8,0.9-1.4,1.7-1.9c0.7-0.5,1.6-0.9,2.6-1.1c1-0.2,2.1-0.3,3.3-0.3h3.3v-1
			c0-1.6-0.2-2.7-0.7-3.4c-0.5-0.7-1.4-1-2.8-1c-1.8,0-3.7,0.4-5.6,1.1L64.8,12c0.7-0.3,1.7-0.6,2.8-0.9c1.1-0.3,2.5-0.5,4.1-0.5
			c1.5,0,2.7,0.2,3.5,0.6c0.9,0.4,1.5,1,2,1.7c0.4,0.7,0.7,1.5,0.9,2.5c0.1,1,0.2,2,0.2,3.1v8.2l1.6,2.4l-2.5,1.9L75.7,28.7z
			 M74.9,21h-3c-1.7,0-3,0.3-3.7,0.8c-0.7,0.5-1.1,1.5-1.1,2.8c0,1.2,0.3,2.2,0.8,2.8c0.5,0.6,1.3,0.9,2.4,0.9
			c1.1,0,2.1-0.2,2.9-0.6s1.4-0.8,1.8-1.3V21z"/>
		<path class="st0" d="M88.7,11.4l3.6-0.6l5,16.4c0.1,0.5,0.2,0.8,0.4,1c0.1,0.2,0.3,0.3,0.6,0.3c0.3,0,0.5-0.1,0.6-0.3
			c0.1-0.2,0.2-0.5,0.4-1l4.9-16.4l3,0.6l-4.9,15.7c-0.4,1.2-0.9,2.2-1.5,2.9c-0.6,0.7-1.5,1-2.5,1c-0.7,0-1.3-0.1-1.8-0.2
			c-0.5-0.2-0.9-0.4-1.3-0.7c-0.3-0.3-0.6-0.7-0.9-1.2c-0.2-0.5-0.4-1.1-0.6-1.7L88.7,11.4z"/>
		<path class="st0" d="M124.7,29.5c-0.6,0.4-1.5,0.7-2.6,1s-2.4,0.5-3.6,0.5c-1.7,0-3.2-0.2-4.4-0.7c-1.2-0.5-2.1-1.2-2.8-2.1
			s-1.2-2-1.5-3.2c-0.3-1.3-0.4-2.6-0.4-4.2c0-1.4,0.2-2.7,0.5-4c0.3-1.2,0.8-2.3,1.5-3.2c0.7-0.9,1.6-1.7,2.6-2.2
			c1.1-0.5,2.3-0.8,3.8-0.8c1.4,0,2.6,0.3,3.6,0.9c1,0.6,1.8,1.3,2.4,2.3s1,2,1.3,3.2c0.3,1.2,0.4,2.3,0.4,3.5l-1.3,1.3h-11.3
			c0.1,2.2,0.6,3.9,1.5,5c0.9,1.1,2.2,1.6,4.1,1.6c1,0,1.9-0.1,2.7-0.3c0.9-0.2,1.7-0.5,2.4-0.8L124.7,29.5z M121.8,19.2
			c0-2-0.4-3.6-1.1-4.6c-0.7-1-1.8-1.6-3.3-1.6c-1.6,0-2.7,0.5-3.3,1.6c-0.7,1.1-1.1,2.6-1.2,4.5H121.8z"/>
		<path class="st0" d="M138.8,13.8h-9.6v-2.5h14v2.5l-10.6,13c-0.1,0.2-0.2,0.3-0.2,0.4c0,0.1,0,0.1,0,0.2c0,0.3,0.2,0.4,0.6,0.4
			h10.3v2.6h-11.6c-1.1,0-1.8-0.2-2.3-0.7s-0.7-1.1-0.7-1.8c0-0.5,0.1-0.9,0.2-1.3c0.2-0.4,0.4-0.9,0.9-1.4L138.8,13.8z"/>
		<path class="st0" d="M155,15.1l-1.5-3.2l2.8-1.5l1.6,2.5c1-0.9,2-1.6,3-1.9c1-0.3,1.9-0.5,2.7-0.5c1.4,0,2.4,0.2,3.1,0.6
			c0.7,0.4,1.3,1,1.8,1.8c1.1-1,2.2-1.6,3.3-2c1.1-0.3,2-0.5,2.7-0.5c1.3,0,2.3,0.2,3.1,0.6c0.8,0.4,1.4,0.9,1.8,1.6
			c0.4,0.7,0.7,1.5,0.8,2.4c0.1,0.9,0.2,1.8,0.2,2.8v12.3h-3.5V17.9c0-1.5-0.2-2.6-0.7-3.3c-0.4-0.7-1.3-1-2.6-1
			c-0.7,0-1.5,0.1-2.3,0.4c-0.8,0.3-1.5,0.7-2.3,1.3c0.1,0.4,0.1,0.8,0.1,1.3c0,0.5,0.1,0.9,0.1,1.3v12.3H166V17.8
			c0-1.4-0.2-2.5-0.7-3.2c-0.4-0.7-1.3-1-2.6-1c-0.7,0-1.4,0.1-2.2,0.4c-0.7,0.3-1.4,0.7-2.1,1.3v15H155V15.1z"/>
		<path class="st0" d="M197.5,28.7c-0.7,0.6-1.6,1.1-2.5,1.6c-0.9,0.5-2.1,0.7-3.5,0.7c-1.9,0-3.4-0.5-4.5-1.5
			c-1.1-1-1.7-2.6-1.7-4.7c0-1.1,0.2-2.1,0.6-2.8c0.4-0.8,0.9-1.4,1.7-1.9c0.7-0.5,1.6-0.9,2.6-1.1c1-0.2,2.1-0.3,3.3-0.3h3.3v-1
			c0-1.6-0.2-2.7-0.7-3.4c-0.5-0.7-1.4-1-2.8-1c-1.8,0-3.7,0.4-5.6,1.1l-0.9-2.4c0.7-0.3,1.7-0.6,2.8-0.9c1.1-0.3,2.5-0.5,4.1-0.5
			c1.5,0,2.7,0.2,3.5,0.6c0.9,0.4,1.5,1,2,1.7c0.4,0.7,0.7,1.5,0.9,2.5c0.1,1,0.2,2,0.2,3.1v8.2l1.6,2.4l-2.5,1.9L197.5,28.7z
			 M196.7,21h-3c-1.7,0-3,0.3-3.7,0.8c-0.7,0.5-1.1,1.5-1.1,2.8c0,1.2,0.3,2.2,0.8,2.8c0.5,0.6,1.3,0.9,2.4,0.9
			c1.1,0,2.1-0.2,2.9-0.6s1.4-0.8,1.8-1.3V21z M195.4,0l2.8,1.9l-5.4,6.2L191,6.8L195.4,0z"/>
		<path class="st0" d="M205.4,26.7c0.6,0.3,1.4,0.7,2.4,1.1c1,0.4,2.1,0.6,3.4,0.6c1.3,0,2.4-0.2,3.2-0.7c0.8-0.5,1.2-1.2,1.2-2.2
			c0-0.6-0.1-1.1-0.4-1.4c-0.3-0.4-0.6-0.7-1-0.9c-0.4-0.2-0.9-0.4-1.5-0.6s-1.2-0.3-1.8-0.5c-0.7-0.2-1.4-0.4-2.1-0.6
			c-0.7-0.3-1.3-0.6-1.9-1c-0.5-0.4-1-0.9-1.3-1.6c-0.3-0.6-0.5-1.4-0.5-2.4c0-0.8,0.1-1.6,0.4-2.3c0.3-0.7,0.7-1.3,1.3-1.8
			c0.6-0.5,1.4-0.9,2.3-1.2c0.9-0.3,2-0.5,3.2-0.5c1.2,0,2.4,0.1,3.4,0.4c1.1,0.3,2,0.6,2.7,1l-1.1,2.3c-1.6-0.9-3.3-1.3-5.1-1.3
			c-1.2,0-2.2,0.2-2.9,0.6c-0.7,0.4-1,1.1-1,2.1c0,0.6,0.1,1,0.3,1.4c0.2,0.4,0.5,0.7,0.9,0.9c0.4,0.2,0.8,0.4,1.4,0.6
			c0.5,0.2,1.1,0.3,1.6,0.5c0.7,0.2,1.4,0.4,2.1,0.6c0.7,0.2,1.4,0.5,2,1c0.6,0.4,1.1,1,1.5,1.6c0.4,0.7,0.6,1.5,0.6,2.6
			c0,1.9-0.6,3.4-1.8,4.4c-1.2,1.1-3.1,1.6-5.6,1.6c-1.7,0-3.1-0.2-4.4-0.6c-1.2-0.4-2.1-0.8-2.7-1.2L205.4,26.7z"/>
		<path class="st0" d="M223.4,26.3l3.7,0.8l-2.8,8.7l-2.4-0.6L223.4,26.3z"/>
		<path class="st0" d="M253.3,29.5c-0.6,0.4-1.5,0.7-2.6,1s-2.4,0.5-3.6,0.5c-1.7,0-3.2-0.2-4.4-0.7c-1.2-0.5-2.1-1.2-2.8-2.1
			s-1.2-2-1.5-3.2c-0.3-1.3-0.4-2.6-0.4-4.2c0-1.4,0.2-2.7,0.5-4c0.3-1.2,0.8-2.3,1.5-3.2c0.7-0.9,1.6-1.7,2.6-2.2
			c1.1-0.5,2.3-0.8,3.8-0.8c1.4,0,2.6,0.3,3.6,0.9c1,0.6,1.8,1.3,2.4,2.3s1,2,1.3,3.2c0.3,1.2,0.4,2.3,0.4,3.5l-1.3,1.3h-11.3
			c0.1,2.2,0.6,3.9,1.5,5c0.9,1.1,2.2,1.6,4.1,1.6c1,0,1.9-0.1,2.7-0.3c0.9-0.2,1.7-0.5,2.4-0.8L253.3,29.5z M250.4,19.2
			c0-2-0.4-3.6-1.1-4.6c-0.7-1-1.8-1.6-3.3-1.6c-1.6,0-2.7,0.5-3.3,1.6c-0.7,1.1-1.1,2.6-1.2,4.5H250.4z"/>
		<path class="st0" d="M259,4.8h-2.4V2.3h5.9v27.9H259V4.8z"/>
		<path class="st0" d="M290.4,29.5c-0.6,0.4-1.5,0.7-2.6,1s-2.4,0.5-3.6,0.5c-1.7,0-3.2-0.2-4.4-0.7c-1.2-0.5-2.1-1.2-2.8-2.1
			s-1.2-2-1.5-3.2c-0.3-1.3-0.4-2.6-0.4-4.2c0-1.4,0.2-2.7,0.5-4c0.3-1.2,0.8-2.3,1.5-3.2c0.7-0.9,1.6-1.7,2.6-2.2
			c1.1-0.5,2.3-0.8,3.8-0.8c1.4,0,2.6,0.3,3.6,0.9c1,0.6,1.8,1.3,2.4,2.3s1,2,1.3,3.2c0.3,1.2,0.4,2.3,0.4,3.5l-1.3,1.3h-11.3
			c0.1,2.2,0.6,3.9,1.5,5c0.9,1.1,2.2,1.6,4.1,1.6c1,0,1.9-0.1,2.7-0.3c0.9-0.2,1.7-0.5,2.4-0.8L290.4,29.5z M287.6,19.2
			c0-2-0.4-3.6-1.1-4.6c-0.7-1-1.8-1.6-3.3-1.6c-1.6,0-2.7,0.5-3.3,1.6c-0.7,1.1-1.1,2.6-1.2,4.5H287.6z"/>
		<path class="st0" d="M295.3,26.7c0.6,0.3,1.4,0.7,2.4,1.1c1,0.4,2.1,0.6,3.4,0.6c1.3,0,2.4-0.2,3.2-0.7c0.8-0.5,1.2-1.2,1.2-2.2
			c0-0.6-0.1-1.1-0.4-1.4c-0.3-0.4-0.6-0.7-1-0.9c-0.4-0.2-0.9-0.4-1.5-0.6s-1.2-0.3-1.8-0.5c-0.7-0.2-1.4-0.4-2.1-0.6
			c-0.7-0.3-1.3-0.6-1.9-1c-0.5-0.4-1-0.9-1.3-1.6c-0.3-0.6-0.5-1.4-0.5-2.4c0-0.8,0.1-1.6,0.4-2.3c0.3-0.7,0.7-1.3,1.3-1.8
			c0.6-0.5,1.4-0.9,2.3-1.2c0.9-0.3,2-0.5,3.2-0.5c1.2,0,2.4,0.1,3.4,0.4c1.1,0.3,2,0.6,2.7,1l-1.1,2.3c-1.6-0.9-3.3-1.3-5.1-1.3
			c-1.2,0-2.2,0.2-2.9,0.6c-0.7,0.4-1,1.1-1,2.1c0,0.6,0.1,1,0.3,1.4c0.2,0.4,0.5,0.7,0.9,0.9c0.4,0.2,0.8,0.4,1.4,0.6
			c0.5,0.2,1.1,0.3,1.6,0.5c0.7,0.2,1.4,0.4,2.1,0.6c0.7,0.2,1.4,0.5,2,1c0.6,0.4,1.1,1,1.5,1.6c0.4,0.7,0.6,1.5,0.6,2.6
			c0,1.9-0.6,3.4-1.8,4.4c-1.2,1.1-3.1,1.6-5.6,1.6c-1.7,0-3.1-0.2-4.4-0.6c-1.2-0.4-2.1-0.8-2.7-1.2L295.3,26.7z"/>
		<path class="st0" d="M313.4,15.2l-1.5-3.2l2.9-1.5l1.6,2.4c0.7-0.6,1.4-1.2,2.3-1.6c0.9-0.5,1.9-0.7,3.2-0.7
			c2.6,0,4.6,0.8,5.9,2.5c1.4,1.7,2,4.2,2,7.7c0,1.5-0.2,2.9-0.6,4.2s-1,2.3-1.8,3.2c-0.8,0.9-1.8,1.6-3,2.1
			c-1.2,0.5-2.6,0.7-4.1,0.7c-0.6,0-1.1,0-1.8-0.1c-0.6-0.1-1.2-0.2-1.7-0.3v8.1h-3.5V15.2z M316.9,27.9c0.4,0.1,1,0.3,1.7,0.4
			c0.7,0.1,1.3,0.2,2,0.2c1.9,0,3.3-0.7,4.2-2c0.9-1.3,1.4-3.2,1.4-5.7c0-2.4-0.3-4.2-1-5.6s-1.9-2-3.5-2c-1,0-1.8,0.2-2.4,0.5
			c-0.7,0.3-1.4,0.9-2.2,1.6V27.9z"/>
		<path class="st0" d="M335.2,13.7h-2.4v-2.5h6v19h-3.5V13.7z M337.9,0l2.8,1.9l-5.4,6.2l-1.7-1.3L337.9,0z"/>
		<path class="st0" d="M345.1,13.7h-2.4v-2.5h4.9l0.6,2.5c0.3-0.4,0.7-0.7,1-1c0.4-0.3,0.7-0.6,1.2-0.9c0.4-0.2,0.9-0.4,1.5-0.6
			c0.5-0.1,1.2-0.2,1.9-0.2c0.9,0,1.7,0.1,2.4,0.3l-1,3.2c-0.3-0.1-0.6-0.2-1-0.3c-0.4-0.1-0.7-0.1-1.1-0.1c-1.8,0-3.3,0.6-4.4,1.9
			v14.2h-3.5V13.7z"/>
		<path class="st0" d="M359.6,13.7h-2.4v-2.5h6v19h-3.5V13.7z M361,7.7c-0.7,0-1.3-0.2-1.7-0.7s-0.6-1.1-0.6-1.8
			c0-0.7,0.2-1.3,0.6-1.8s1-0.7,1.7-0.7c0.8,0,1.3,0.2,1.8,0.7c0.4,0.5,0.6,1.1,0.6,1.8c0,0.7-0.2,1.3-0.6,1.8
			C362.4,7.4,361.8,7.7,361,7.7z"/>
		<path class="st0" d="M370.4,13.8h-3.5v-2.6h3.6V5.5h3.4v5.7h5.6v2.6h-5.6v11c0,0.7,0.1,1.3,0.2,1.8c0.1,0.4,0.3,0.8,0.6,1
			c0.2,0.2,0.5,0.4,0.9,0.5c0.3,0.1,0.7,0.1,1.1,0.1c0.4,0,0.9-0.1,1.4-0.2c0.5-0.1,1-0.3,1.5-0.5l0.8,2.3c-0.4,0.2-1,0.4-1.8,0.6
			c-0.8,0.2-1.6,0.3-2.4,0.3c-0.9,0-1.7-0.1-2.4-0.3c-0.7-0.2-1.3-0.5-1.8-0.9c-0.5-0.4-0.9-1-1.1-1.7c-0.3-0.7-0.4-1.6-0.4-2.7
			V13.8z"/>
		<path class="st0" d="M383.5,11.2h3.5v12.4c0,1.5,0.3,2.6,0.9,3.5c0.6,0.8,1.5,1.2,2.9,1.2c1.1,0,2-0.2,2.7-0.5s1.3-0.8,2-1.3V11.2
			h3.5v15.4l1.6,2.3l-2.5,1.9l-1.7-2.1c-1,0.8-2,1.3-2.9,1.7c-0.9,0.3-2,0.5-3.1,0.5c-1.4,0-2.5-0.2-3.4-0.6c-0.9-0.4-1.5-0.9-2-1.6
			c-0.5-0.7-0.8-1.5-1-2.4c-0.2-0.9-0.3-1.8-0.3-2.8V11.2z"/>
		<path class="st0" d="M412.6,13.7h-2.4v-2.5h6v19h-3.5V13.7z M414,7.7c-0.7,0-1.3-0.2-1.7-0.7s-0.6-1.1-0.6-1.8
			c0-0.7,0.2-1.3,0.6-1.8s1-0.7,1.7-0.7c0.8,0,1.3,0.2,1.8,0.7c0.4,0.5,0.6,1.1,0.6,1.8c0,0.7-0.2,1.3-0.6,1.8
			C415.3,7.4,414.7,7.7,414,7.7z"/>
		<path class="st0" d="M422.4,15.1l-1.5-3.2l2.8-1.5l1.6,2.5c1-0.9,2-1.6,3-1.9c1-0.3,1.9-0.5,2.7-0.5c1.4,0,2.4,0.2,3.1,0.6
			c0.7,0.4,1.3,1,1.8,1.8c1.1-1,2.2-1.6,3.3-2c1.1-0.3,2-0.5,2.7-0.5c1.3,0,2.3,0.2,3.1,0.6c0.8,0.4,1.4,0.9,1.8,1.6
			c0.4,0.7,0.7,1.5,0.8,2.4c0.1,0.9,0.2,1.8,0.2,2.8v12.3h-3.5V17.9c0-1.5-0.2-2.6-0.7-3.3c-0.4-0.7-1.3-1-2.6-1
			c-0.7,0-1.5,0.1-2.3,0.4c-0.8,0.3-1.5,0.7-2.3,1.3c0.1,0.4,0.1,0.8,0.1,1.3c0,0.5,0.1,0.9,0.1,1.3v12.3h-3.5V17.8
			c0-1.4-0.2-2.5-0.7-3.2c-0.4-0.7-1.3-1-2.6-1c-0.7,0-1.4,0.1-2.2,0.4c-0.7,0.3-1.4,0.7-2.1,1.3v15h-3.5V15.1z"/>
		<path class="st0" d="M454.2,15.2l-1.5-3.2l2.9-1.5l1.6,2.4c0.7-0.6,1.4-1.2,2.3-1.6c0.9-0.5,1.9-0.7,3.2-0.7
			c2.6,0,4.6,0.8,5.9,2.5c1.4,1.7,2,4.2,2,7.7c0,1.5-0.2,2.9-0.6,4.2s-1,2.3-1.8,3.2c-0.8,0.9-1.8,1.6-3,2.1
			c-1.2,0.5-2.6,0.7-4.1,0.7c-0.6,0-1.1,0-1.8-0.1c-0.6-0.1-1.2-0.2-1.7-0.3v8.1h-3.5V15.2z M457.8,27.9c0.4,0.1,1,0.3,1.7,0.4
			c0.7,0.1,1.3,0.2,2,0.2c1.9,0,3.3-0.7,4.2-2c0.9-1.3,1.4-3.2,1.4-5.7c0-2.4-0.3-4.2-1-5.6s-1.9-2-3.5-2c-1,0-1.8,0.2-2.4,0.5
			c-0.7,0.3-1.4,0.9-2.2,1.6V27.9z"/>
		<path class="st0" d="M486.6,28.7c-0.7,0.6-1.6,1.1-2.5,1.6c-0.9,0.5-2.1,0.7-3.5,0.7c-1.9,0-3.4-0.5-4.5-1.5
			c-1.1-1-1.7-2.6-1.7-4.7c0-1.1,0.2-2.1,0.6-2.8c0.4-0.8,0.9-1.4,1.7-1.9c0.7-0.5,1.6-0.9,2.6-1.1c1-0.2,2.1-0.3,3.3-0.3h3.3v-1
			c0-1.6-0.2-2.7-0.7-3.4c-0.5-0.7-1.4-1-2.8-1c-1.8,0-3.7,0.4-5.6,1.1l-0.9-2.4c0.7-0.3,1.7-0.6,2.8-0.9c1.1-0.3,2.5-0.5,4.1-0.5
			c1.5,0,2.7,0.2,3.5,0.6c0.9,0.4,1.5,1,2,1.7c0.4,0.7,0.7,1.5,0.9,2.5c0.1,1,0.2,2,0.2,3.1v8.2l1.6,2.4l-2.5,1.9L486.6,28.7z
			 M485.8,21h-3c-1.7,0-3,0.3-3.7,0.8c-0.7,0.5-1.1,1.5-1.1,2.8c0,1.2,0.3,2.2,0.8,2.8c0.5,0.6,1.3,0.9,2.4,0.9
			c1.1,0,2.1-0.2,2.9-0.6s1.4-0.8,1.8-1.3V21z"/>
		<path class="st0" d="M495.6,13.7h-2.4v-2.5h4.9l0.6,2.5c0.3-0.4,0.7-0.7,1-1c0.4-0.3,0.7-0.6,1.2-0.9c0.4-0.2,0.9-0.4,1.5-0.6
			c0.5-0.1,1.2-0.2,1.9-0.2c0.9,0,1.7,0.1,2.4,0.3l-1,3.2c-0.3-0.1-0.6-0.2-1-0.3c-0.4-0.1-0.7-0.1-1.1-0.1c-1.8,0-3.3,0.6-4.4,1.9
			v14.2h-3.5V13.7z"/>
		<path class="st0" d="M520.2,28.7c-0.7,0.6-1.6,1.1-2.5,1.6c-0.9,0.5-2.1,0.7-3.5,0.7c-1.9,0-3.4-0.5-4.5-1.5
			c-1.1-1-1.7-2.6-1.7-4.7c0-1.1,0.2-2.1,0.6-2.8c0.4-0.8,0.9-1.4,1.7-1.9c0.7-0.5,1.6-0.9,2.6-1.1c1-0.2,2.1-0.3,3.3-0.3h3.3v-1
			c0-1.6-0.2-2.7-0.7-3.4c-0.5-0.7-1.4-1-2.8-1c-1.8,0-3.7,0.4-5.6,1.1l-0.9-2.4c0.7-0.3,1.7-0.6,2.8-0.9c1.1-0.3,2.5-0.5,4.1-0.5
			c1.5,0,2.7,0.2,3.5,0.6c0.9,0.4,1.5,1,2,1.7c0.4,0.7,0.7,1.5,0.9,2.5c0.1,1,0.2,2,0.2,3.1v8.2l1.6,2.4l-2.5,1.9L520.2,28.7z
			 M519.4,21h-3c-1.7,0-3,0.3-3.7,0.8c-0.7,0.5-1.1,1.5-1.1,2.8c0,1.2,0.3,2.2,0.8,2.8c0.5,0.6,1.3,0.9,2.4,0.9
			c1.1,0,2.1-0.2,2.9-0.6s1.4-0.8,1.8-1.3V21z"/>
		<path class="st0" d="M529,2.8h3.5v8.7c0.6-0.3,1.3-0.6,2-0.7c0.7-0.2,1.5-0.3,2.4-0.3c2.6,0,4.5,0.8,5.9,2.5
			c1.4,1.7,2.1,4.2,2.1,7.6c0,1.5-0.2,2.9-0.5,4.1c-0.3,1.3-0.9,2.3-1.6,3.2c-0.7,0.9-1.7,1.6-2.9,2.1c-1.2,0.5-2.6,0.8-4.4,0.8
			c-1.4,0-2.7-0.1-4-0.3c-1.2-0.2-2.1-0.4-2.7-0.7V2.8z M532.5,28c0.3,0.1,0.8,0.2,1.4,0.3c0.7,0.1,1.4,0.1,2.1,0.1
			c1.9,0,3.3-0.7,4.1-2c0.8-1.3,1.2-3.3,1.2-5.9c0-2.3-0.4-4.1-1.1-5.5c-0.7-1.4-2-2-3.8-2c-0.8,0-1.5,0.1-2.3,0.3
			c-0.7,0.2-1.3,0.4-1.7,0.7V28z"/>
		<path class="st0" d="M550.2,4.8h-2.4V2.3h5.9v27.9h-3.5V4.8z"/>
		<path class="st0" d="M574.3,29.5c-0.6,0.4-1.5,0.7-2.6,1s-2.4,0.5-3.6,0.5c-1.7,0-3.2-0.2-4.4-0.7c-1.2-0.5-2.1-1.2-2.8-2.1
			s-1.2-2-1.5-3.2c-0.3-1.3-0.4-2.6-0.4-4.2c0-1.4,0.2-2.7,0.5-4c0.3-1.2,0.8-2.3,1.5-3.2c0.7-0.9,1.6-1.7,2.6-2.2
			c1.1-0.5,2.3-0.8,3.8-0.8c1.4,0,2.6,0.3,3.6,0.9c1,0.6,1.8,1.3,2.4,2.3s1,2,1.3,3.2c0.3,1.2,0.4,2.3,0.4,3.5l-1.3,1.3h-11.3
			c0.1,2.2,0.6,3.9,1.5,5c0.9,1.1,2.2,1.6,4.1,1.6c1,0,1.9-0.1,2.7-0.3c0.9-0.2,1.7-0.5,2.4-0.8L574.3,29.5z M571.4,19.2
			c0-2-0.4-3.6-1.1-4.6c-0.7-1-1.8-1.6-3.3-1.6c-1.6,0-2.7,0.5-3.3,1.6c-0.7,1.1-1.1,2.6-1.2,4.5H571.4z"/>
		<path class="st0" d="M600.1,28.8c-0.7,0.6-1.6,1.1-2.5,1.5c-0.9,0.4-2.1,0.6-3.3,0.6c-2.6,0-4.6-0.8-5.9-2.5c-1.3-1.7-2-4.2-2-7.7
			c0-1.5,0.2-2.9,0.6-4.2c0.4-1.3,1-2.3,1.7-3.2c0.8-0.9,1.7-1.6,2.9-2.1c1.2-0.5,2.5-0.7,4-0.7c0.7,0,1.3,0.1,1.9,0.2
			c0.6,0.1,1.1,0.2,1.6,0.3V2.3h3.5v24.3l1.6,2.4l-2.5,1.9L600.1,28.8z M599.2,13.6c-0.4-0.1-0.9-0.2-1.5-0.4s-1.3-0.2-2.1-0.2
			c-1.9,0-3.3,0.7-4.2,2c-0.9,1.3-1.3,3.2-1.3,5.7c0,2.4,0.4,4.2,1.1,5.6c0.7,1.3,2,2,3.6,2c1.1,0,1.9-0.2,2.6-0.5s1.3-0.8,1.8-1.3
			V13.6z"/>
		<path class="st0" d="M623.4,29.5c-0.6,0.4-1.5,0.7-2.6,1s-2.4,0.5-3.6,0.5c-1.7,0-3.2-0.2-4.4-0.7c-1.2-0.5-2.1-1.2-2.8-2.1
			s-1.2-2-1.5-3.2c-0.3-1.3-0.4-2.6-0.4-4.2c0-1.4,0.2-2.7,0.5-4c0.3-1.2,0.8-2.3,1.5-3.2c0.7-0.9,1.6-1.7,2.6-2.2
			c1.1-0.5,2.3-0.8,3.8-0.8c1.4,0,2.6,0.3,3.6,0.9c1,0.6,1.8,1.3,2.4,2.3s1,2,1.3,3.2c0.3,1.2,0.4,2.3,0.4,3.5l-1.3,1.3h-11.3
			c0.1,2.2,0.6,3.9,1.5,5c0.9,1.1,2.2,1.6,4.1,1.6c1,0,1.9-0.1,2.7-0.3c0.9-0.2,1.7-0.5,2.4-0.8L623.4,29.5z M620.5,19.2
			c0-2-0.4-3.6-1.1-4.6c-0.7-1-1.8-1.6-3.3-1.6c-1.6,0-2.7,0.5-3.3,1.6c-0.7,1.1-1.1,2.6-1.2,4.5H620.5z"/>
		<path class="st0" d="M636.5,4.8h-2.4V2.3h5.9v27.9h-3.5V4.8z"/>
		<path class="st0" d="M656.8,28.7c-0.7,0.6-1.6,1.1-2.5,1.6c-0.9,0.5-2.1,0.7-3.5,0.7c-1.9,0-3.4-0.5-4.5-1.5
			c-1.1-1-1.7-2.6-1.7-4.7c0-1.1,0.2-2.1,0.6-2.8c0.4-0.8,0.9-1.4,1.7-1.9c0.7-0.5,1.6-0.9,2.6-1.1c1-0.2,2.1-0.3,3.3-0.3h3.3v-1
			c0-1.6-0.2-2.7-0.7-3.4c-0.5-0.7-1.4-1-2.8-1c-1.8,0-3.7,0.4-5.6,1.1L646,12c0.7-0.3,1.7-0.6,2.8-0.9c1.1-0.3,2.5-0.5,4.1-0.5
			c1.5,0,2.7,0.2,3.5,0.6c0.9,0.4,1.5,1,2,1.7c0.4,0.7,0.7,1.5,0.9,2.5c0.1,1,0.2,2,0.2,3.1v8.2l1.6,2.4l-2.5,1.9L656.8,28.7z
			 M656,21h-3c-1.7,0-3,0.3-3.7,0.8c-0.7,0.5-1.1,1.5-1.1,2.8c0,1.2,0.3,2.2,0.8,2.8c0.5,0.6,1.3,0.9,2.4,0.9c1.1,0,2.1-0.2,2.9-0.6
			s1.4-0.8,1.8-1.3V21z"/>
		<path class="st0" d="M691.2,7.6h-7.4v22.6h-6.1V7.6h-7.4V2.8h20.9V7.6z"/>
		<path class="st0" d="M689.5,20.6c0-1.6,0.2-3,0.6-4.3c0.4-1.3,1-2.4,1.8-3.3c0.8-0.9,1.8-1.6,2.9-2.1c1.2-0.5,2.5-0.7,4.1-0.7
			c3.1,0,5.5,0.9,6.9,2.7c1.5,1.8,2.2,4.3,2.2,7.6c0,1.6-0.2,3.1-0.6,4.4c-0.4,1.3-1,2.4-1.7,3.3c-0.8,0.9-1.8,1.6-3,2.1
			c-1.2,0.5-2.6,0.7-4.2,0.7c-1.7,0-3.1-0.2-4.3-0.7c-1.2-0.5-2.1-1.2-2.8-2.1c-0.7-0.9-1.2-2-1.6-3.3
			C689.7,23.5,689.5,22.1,689.5,20.6z M698.8,26.8c1.2,0,2-0.5,2.6-1.4c0.6-0.9,0.8-2.5,0.8-4.8c0-2.2-0.2-3.8-0.7-4.8
			c-0.5-1-1.3-1.5-2.6-1.5c-1.2,0-2.1,0.5-2.7,1.4s-0.9,2.6-0.9,4.8c0,2.2,0.3,3.7,0.8,4.7C696.7,26.3,697.6,26.8,698.8,26.8z"/>
		<path class="st0" d="M724.6,32c-0.2,0.9-0.5,1.7-0.9,2.5c-0.3,0.8-0.8,1.5-1.4,2.2c-0.6,0.6-1.3,1.1-2.3,1.5
			c-0.9,0.4-2.1,0.6-3.5,0.6c-1.1,0-2.2-0.1-3.2-0.3c-1-0.2-2-0.5-3.1-1.1l1.7-3.9c1.5,0.7,2.9,1.1,4.1,1.1c1.1,0,1.9-0.3,2.5-0.9
			c0.5-0.6,1-1.5,1.2-2.7l0.2-1h-0.9c-0.9,0-1.6-0.1-2.2-0.3c-0.6-0.2-1.1-0.4-1.5-0.8c-0.4-0.4-0.7-0.8-0.9-1.3
			c-0.2-0.5-0.5-1.1-0.6-1.7L710,11.3l6-1l3.2,14.1c0.1,0.4,0.2,0.8,0.4,1c0.1,0.3,0.4,0.4,0.8,0.4h0.6l3.3-15.5l5.6,1.1L724.6,32z"
			/>
		<path class="st0" d="M731.8,20.6c0-1.6,0.2-3,0.6-4.3c0.4-1.3,1-2.4,1.8-3.3c0.8-0.9,1.8-1.6,2.9-2.1c1.2-0.5,2.5-0.7,4.1-0.7
			c3.1,0,5.5,0.9,6.9,2.7c1.5,1.8,2.2,4.3,2.2,7.6c0,1.6-0.2,3.1-0.6,4.4c-0.4,1.3-1,2.4-1.7,3.3c-0.8,0.9-1.8,1.6-3,2.1
			c-1.2,0.5-2.6,0.7-4.2,0.7c-1.7,0-3.1-0.2-4.3-0.7c-1.2-0.5-2.1-1.2-2.8-2.1c-0.7-0.9-1.2-2-1.6-3.3
			C732,23.5,731.8,22.1,731.8,20.6z M741.1,26.8c1.2,0,2-0.5,2.6-1.4c0.6-0.9,0.8-2.5,0.8-4.8c0-2.2-0.2-3.8-0.7-4.8
			c-0.5-1-1.3-1.5-2.6-1.5c-1.2,0-2.1,0.5-2.7,1.4s-0.9,2.6-0.9,4.8c0,2.2,0.3,3.7,0.8,4.7C739,26.3,739.9,26.8,741.1,26.8z"/>
		<path class="st0" d="M752.3,10.8h3.4V5.3h5.6v5.5h5.5v4.1h-5.5v7.9c0,0.7,0,1.3,0.1,1.8s0.1,0.9,0.3,1.2c0.1,0.3,0.4,0.5,0.6,0.7
			c0.3,0.2,0.7,0.2,1.2,0.2c0.6,0,1.1-0.1,1.6-0.2c0.5-0.2,1-0.3,1.4-0.6l1.3,3.6c-0.8,0.4-1.6,0.7-2.5,1c-0.9,0.3-1.9,0.5-2.9,0.5
			c-1.3,0-2.5-0.1-3.4-0.4c-0.9-0.3-1.6-0.7-2.1-1.3c-0.5-0.6-0.9-1.4-1.1-2.5c-0.2-1-0.3-2.3-0.3-3.8v-8.1h-3.2V10.8z"/>
		<path class="st0" d="M775.2,30.9c-1.9,0-3.3-0.5-4.4-1.6c-1-1.1-1.6-2.6-1.6-4.6c0-2.3,0.7-4,2.1-5c1.4-1,3.5-1.5,6.4-1.5h2.4
			v-0.7c0-1-0.2-1.8-0.6-2.4c-0.4-0.6-1.2-0.9-2.3-0.9c-1.1,0-2.2,0.1-3.1,0.3c-0.9,0.2-1.8,0.5-2.6,0.8l-1.5-3.7
			c1.1-0.5,2.3-0.9,3.7-1.2c1.4-0.3,2.8-0.4,4-0.4c1.4,0,2.7,0.1,3.6,0.4c1,0.3,1.8,0.8,2.4,1.4c0.6,0.7,1,1.5,1.3,2.5
			c0.3,1,0.4,2.3,0.4,3.8v7.7l1.3,2.7l-4.4,2.2l-1.7-2.5c-1,0.8-1.9,1.5-2.7,1.9C777.1,30.7,776.2,30.9,775.2,30.9z M777.1,26.8
			c0.5,0,1.1-0.1,1.6-0.4c0.6-0.3,1.1-0.6,1.4-1v-3.8h-2.4c-1,0-1.7,0.2-2.2,0.5s-0.8,1-0.8,2.1c0,1,0.2,1.6,0.6,2
			S776.3,26.8,777.1,26.8z"/>
		<path class="st0" d="M798.1,2.8h6.1v11h8.7v-11h6.1v27.4h-6.1V18.8h-8.7v11.5h-6.1V2.8z"/>
		<path class="st0" d="M830.7,30.2h-5.8V14.7h-2.4v-3.9h8.2V30.2z M827.5,8.2c-1.1,0-2-0.3-2.6-1c-0.6-0.7-0.9-1.5-0.9-2.5
			c0-1,0.3-1.9,0.9-2.5c0.6-0.7,1.4-1,2.6-1c1.1,0,2,0.3,2.6,1s0.9,1.5,0.9,2.5c0,1-0.3,1.8-0.9,2.5C829.5,7.9,828.6,8.2,827.5,8.2z
			"/>
		<path class="st0" d="M841.4,30.2h-5.8V6.2h-2.4V2.3h8.2V30.2z"/>
		<path class="st0" d="M863.5,26.1l1.3,2.7l-4.7,2.3l-1.7-2.4c-0.9,0.8-1.9,1.4-2.8,1.8s-1.8,0.5-2.7,0.5c-2.4,0-4.1-0.6-5.1-1.9
			c-1-1.2-1.5-3.1-1.5-5.5V10.8h5.8v11.7c0,1.4,0.2,2.4,0.6,3c0.4,0.6,1.1,0.8,2.1,0.8c0.6,0,1.2-0.1,1.7-0.3c0.5-0.2,1-0.5,1.3-0.9
			V10.8h5.8V26.1z"/>
		<path class="st0" d="M876,23.1c-0.2,0-0.4,0.1-0.5,0.2c-0.1,0.1-0.3,0.3-0.4,0.6l-3.4,6.8l-5.2-1.1l4.7-8.9l-4.1-9.3l5.5-1.1
			l2.7,6.5c0.1,0.3,0.2,0.5,0.4,0.6c0.1,0.1,0.3,0.2,0.5,0.2c0.2,0,0.4-0.1,0.5-0.2c0.1-0.1,0.3-0.3,0.4-0.6l3-6.5l5,1.1l-4.1,8.7
			l4.2,9.4l-5.5,1.2l-2.7-6.8c-0.2-0.3-0.3-0.6-0.4-0.7C876.4,23.2,876.3,23.1,876,23.1z"/>
		<path class="st0" d="M910.4,29.4c-0.7,0.4-1.5,0.7-2.6,1c-1,0.3-2.2,0.5-3.6,0.5c-1.7,0-3.2-0.2-4.3-0.7c-1.1-0.5-2.1-1.2-2.7-2.1
			c-0.7-0.9-1.2-1.9-1.5-3.2c-0.3-1.2-0.4-2.6-0.4-4.1c0-1.5,0.2-2.8,0.5-4.1c0.4-1.3,0.9-2.4,1.7-3.3c0.7-0.9,1.7-1.7,2.8-2.2
			c1.2-0.5,2.5-0.8,4.2-0.8c1.2,0,2.2,0.2,3.2,0.5c1,0.3,1.8,0.7,2.5,1.1l-1.1,2.4c-0.7-0.4-1.4-0.7-2.2-0.9
			c-0.8-0.2-1.6-0.4-2.6-0.4c-1.9,0-3.2,0.6-4.1,1.9s-1.3,3.2-1.3,5.8c0,1.1,0.1,2.2,0.3,3.1c0.2,0.9,0.5,1.7,0.9,2.3
			c0.4,0.6,1,1.1,1.7,1.5c0.7,0.3,1.6,0.5,2.6,0.5c0.8,0,1.6-0.1,2.3-0.2c0.7-0.2,1.5-0.5,2.5-0.9L910.4,29.4z"/>
		<path class="st0" d="M921.5,30.9c-1.6,0-3-0.3-4.1-0.8c-1.1-0.5-2-1.2-2.6-2.1s-1.1-2-1.4-3.2c-0.3-1.2-0.4-2.6-0.4-4.1
			c0-1.5,0.2-2.8,0.5-4.1c0.4-1.3,0.9-2.3,1.6-3.2s1.6-1.6,2.7-2.1c1.1-0.5,2.4-0.8,3.8-0.8c1.5,0,2.8,0.3,3.9,0.8
			c1.1,0.5,2,1.2,2.7,2.1c0.7,0.9,1.2,2,1.5,3.2s0.5,2.6,0.5,4.1c0,1.5-0.2,2.9-0.5,4.1c-0.3,1.2-0.8,2.3-1.5,3.2
			c-0.7,0.9-1.6,1.6-2.7,2.1C924.4,30.7,923,30.9,921.5,30.9z M921.6,28.4c1.8,0,3.1-0.7,3.9-2c0.7-1.3,1.1-3.2,1.1-5.7
			c0-2.4-0.4-4.3-1.1-5.6c-0.7-1.3-2-2-3.9-2c-1.8,0-3.1,0.6-3.9,1.9c-0.7,1.3-1.1,3.2-1.1,5.7c0,1.2,0.1,2.3,0.3,3.2
			c0.2,1,0.5,1.8,0.9,2.4c0.4,0.7,0.9,1.2,1.6,1.5C919.9,28.2,920.7,28.4,921.6,28.4z"/>
		<path class="st0" d="M935.5,15.2l-1.5-3.2l2.8-1.5l1.6,2.5c1.1-0.9,2.2-1.5,3.2-1.9c1-0.4,2.1-0.6,3.2-0.6c1.3,0,2.3,0.2,3.2,0.6
			s1.5,0.9,2,1.6c0.5,0.7,0.9,1.5,1.1,2.4c0.2,0.9,0.3,1.8,0.3,2.8v12.3h-3.5V18.1c0-1.6-0.3-2.7-1-3.5c-0.6-0.7-1.6-1.1-2.9-1.1
			c-1,0-1.9,0.2-2.8,0.5s-1.6,0.8-2.2,1.3v14.9h-3.5V15.2z"/>
		<path class="st0" d="M956.6,26.7c0.6,0.3,1.4,0.7,2.4,1.1c1,0.4,2.1,0.6,3.4,0.6c1.3,0,2.4-0.2,3.2-0.7s1.2-1.2,1.2-2.2
			c0-0.6-0.1-1.1-0.4-1.4c-0.3-0.4-0.6-0.7-1-0.9c-0.4-0.2-0.9-0.4-1.5-0.6c-0.6-0.2-1.2-0.3-1.8-0.5c-0.7-0.2-1.4-0.4-2.1-0.6
			c-0.7-0.3-1.3-0.6-1.9-1c-0.5-0.4-1-0.9-1.3-1.6c-0.3-0.6-0.5-1.4-0.5-2.4c0-0.8,0.1-1.6,0.4-2.3c0.3-0.7,0.7-1.3,1.3-1.8
			c0.6-0.5,1.4-0.9,2.3-1.2c0.9-0.3,2-0.5,3.2-0.5s2.4,0.1,3.4,0.4c1.1,0.3,2,0.6,2.7,1l-1.1,2.3c-1.6-0.9-3.3-1.3-5.1-1.3
			c-1.2,0-2.2,0.2-2.9,0.6c-0.7,0.4-1,1.1-1,2.1c0,0.6,0.1,1,0.3,1.4c0.2,0.4,0.5,0.7,0.9,0.9c0.4,0.2,0.8,0.4,1.4,0.6
			c0.5,0.2,1.1,0.3,1.6,0.5c0.7,0.2,1.4,0.4,2.1,0.6c0.7,0.2,1.4,0.5,2,1c0.6,0.4,1.1,1,1.5,1.6c0.4,0.7,0.6,1.5,0.6,2.6
			c0,1.9-0.6,3.4-1.8,4.4c-1.2,1.1-3.1,1.6-5.6,1.6c-1.7,0-3.1-0.2-4.4-0.6c-1.2-0.4-2.1-0.8-2.7-1.2L956.6,26.7z"/>
		<path class="st0" d="M974.8,13.7h-2.4v-2.5h6v19h-3.5V13.7z M976.2,7.7c-0.7,0-1.3-0.2-1.7-0.7s-0.6-1.1-0.6-1.8
			c0-0.7,0.2-1.3,0.6-1.8s1-0.7,1.7-0.7c0.8,0,1.3,0.2,1.8,0.7s0.6,1.1,0.6,1.8c0,0.7-0.2,1.3-0.6,1.8S976.9,7.7,976.2,7.7z"/>
		<path class="st0" d="M985.5,34.8c0.7,0.3,1.5,0.6,2.3,0.9c0.8,0.3,1.9,0.4,3.1,0.4c2,0,3.4-0.5,4.1-1.4c0.8-0.9,1.1-2.4,1.1-4.4
			v-0.8c-0.6,0.3-1.3,0.6-2,0.7c-0.7,0.2-1.5,0.3-2.2,0.3c-2.8,0-4.9-0.8-6.3-2.4c-1.4-1.6-2.1-4.1-2.1-7.5c0-1.4,0.1-2.7,0.4-3.9
			c0.3-1.2,0.7-2.3,1.3-3.2c0.6-0.9,1.4-1.7,2.5-2.2s2.3-0.8,3.8-0.8c0.7,0,1.3,0.1,1.8,0.2c0.5,0.2,1,0.3,1.5,0.6
			c0.4,0.2,0.8,0.4,1.1,0.7c0.3,0.2,0.6,0.5,0.8,0.7l1.5-2.2l2.8,1.5l-1.4,3.2v15.9c0,2.4-0.7,4.3-2.1,5.7c-1.4,1.4-3.6,2-6.4,2
			c-1.3,0-2.5-0.1-3.6-0.3c-1.2-0.2-2.2-0.6-3.1-1.1L985.5,34.8z M996.2,15.1c-0.4-0.4-0.9-0.9-1.6-1.3c-0.7-0.4-1.6-0.7-2.7-0.7
			c-1.5,0-2.7,0.6-3.5,1.8c-0.8,1.2-1.2,3.2-1.2,5.8c0,2.4,0.4,4.2,1.2,5.4c0.8,1.2,2.1,1.9,3.9,1.9c0.8,0,1.5-0.1,2.1-0.2
			c0.6-0.2,1.2-0.4,1.8-0.9V15.1z"/>
		<path class="st0" d="M1005.5,11.2h3.5v12.4c0,1.5,0.3,2.6,0.9,3.5c0.6,0.8,1.5,1.2,2.9,1.2c1.1,0,2-0.2,2.7-0.5
			c0.7-0.4,1.3-0.8,2-1.3V11.2h3.5v15.4l1.6,2.3l-2.5,1.9l-1.7-2.1c-1,0.8-2,1.3-2.9,1.7c-1,0.3-2,0.5-3.1,0.5
			c-1.4,0-2.5-0.2-3.4-0.6s-1.5-0.9-2-1.6c-0.5-0.7-0.8-1.5-1-2.4c-0.2-0.9-0.3-1.8-0.3-2.8V11.2z"/>
		<path class="st0" d="M1027.3,13.7h-2.4v-2.5h6v19h-3.5V13.7z M1028.6,7.7c-0.7,0-1.3-0.2-1.7-0.7s-0.6-1.1-0.6-1.8
			c0-0.7,0.2-1.3,0.6-1.8s1-0.7,1.7-0.7c0.8,0,1.3,0.2,1.8,0.7s0.6,1.1,0.6,1.8c0,0.7-0.2,1.3-0.6,1.8S1029.4,7.7,1028.6,7.7z"/>
		<path class="st0" d="M1044.5,30.9c-1.6,0-3-0.3-4.1-0.8c-1.1-0.5-2-1.2-2.6-2.1s-1.1-2-1.4-3.2c-0.3-1.2-0.4-2.6-0.4-4.1
			c0-1.5,0.2-2.8,0.5-4.1c0.4-1.3,0.9-2.3,1.6-3.2s1.6-1.6,2.7-2.1c1.1-0.5,2.4-0.8,3.8-0.8c1.5,0,2.8,0.3,3.9,0.8
			c1.1,0.5,2,1.2,2.7,2.1c0.7,0.9,1.2,2,1.5,3.2s0.5,2.6,0.5,4.1c0,1.5-0.2,2.9-0.5,4.1c-0.3,1.2-0.8,2.3-1.5,3.2
			c-0.7,0.9-1.6,1.6-2.7,2.1C1047.4,30.7,1046.1,30.9,1044.5,30.9z M1044.6,28.4c1.8,0,3.1-0.7,3.9-2c0.7-1.3,1.1-3.2,1.1-5.7
			c0-2.4-0.4-4.3-1.1-5.6c-0.7-1.3-2-2-3.9-2c-1.8,0-3.1,0.6-3.9,1.9c-0.7,1.3-1.1,3.2-1.1,5.7c0,1.2,0.1,2.3,0.3,3.2
			c0.2,1,0.5,1.8,0.9,2.4c0.4,0.7,0.9,1.2,1.6,1.5C1042.9,28.2,1043.7,28.4,1044.6,28.4z M1046.8,0l2.8,1.9l-5.4,6.2l-1.7-1.3
			L1046.8,0z"/>
		<path class="st0" d="M1065.9,15.1l-1.5-3.2l2.8-1.5l1.6,2.5c1-0.9,2-1.6,3-1.9c1-0.3,1.9-0.5,2.7-0.5c1.4,0,2.4,0.2,3.1,0.6
			c0.7,0.4,1.3,1,1.8,1.8c1.1-1,2.2-1.6,3.3-2c1.1-0.3,2-0.5,2.7-0.5c1.3,0,2.3,0.2,3.1,0.6s1.4,0.9,1.8,1.6
			c0.4,0.7,0.7,1.5,0.8,2.4c0.1,0.9,0.2,1.8,0.2,2.8v12.3h-3.5V17.9c0-1.5-0.2-2.6-0.7-3.3c-0.4-0.7-1.3-1-2.6-1
			c-0.7,0-1.5,0.1-2.3,0.4c-0.8,0.3-1.5,0.7-2.3,1.3c0.1,0.4,0.1,0.8,0.1,1.3c0,0.5,0.1,0.9,0.1,1.3v12.3h-3.5V17.8
			c0-1.4-0.2-2.5-0.7-3.2c-0.4-0.7-1.3-1-2.6-1c-0.7,0-1.4,0.1-2.2,0.4c-0.7,0.3-1.4,0.7-2.1,1.3v15h-3.5V15.1z"/>
		<path class="st0" d="M1112.1,29.5c-0.6,0.4-1.5,0.7-2.6,1c-1.2,0.3-2.4,0.5-3.6,0.5c-1.7,0-3.2-0.2-4.4-0.7
			c-1.2-0.5-2.1-1.2-2.8-2.1c-0.7-0.9-1.2-2-1.5-3.2c-0.3-1.3-0.4-2.6-0.4-4.2c0-1.4,0.2-2.7,0.5-4c0.3-1.2,0.8-2.3,1.5-3.2
			c0.7-0.9,1.6-1.7,2.6-2.2c1.1-0.5,2.3-0.8,3.8-0.8c1.4,0,2.6,0.3,3.6,0.9c1,0.6,1.8,1.3,2.4,2.3c0.6,0.9,1,2,1.3,3.2
			c0.3,1.2,0.4,2.3,0.4,3.5l-1.3,1.3h-11.3c0.1,2.2,0.6,3.9,1.5,5c0.9,1.1,2.2,1.6,4.1,1.6c1,0,1.9-0.1,2.7-0.3
			c0.9-0.2,1.7-0.5,2.4-0.8L1112.1,29.5z M1109.3,19.2c0-2-0.4-3.6-1.1-4.6c-0.7-1-1.8-1.6-3.3-1.6c-1.6,0-2.7,0.5-3.3,1.6
			c-0.7,1.1-1.1,2.6-1.2,4.5H1109.3z"/>
		<path class="st0" d="M1130.7,28.8c-0.7,0.6-1.6,1.1-2.5,1.5s-2.1,0.6-3.3,0.6c-2.6,0-4.6-0.8-5.9-2.5s-2-4.2-2-7.7
			c0-1.5,0.2-2.9,0.6-4.2s1-2.3,1.7-3.2s1.7-1.6,2.9-2.1c1.2-0.5,2.5-0.7,4-0.7c0.7,0,1.3,0.1,1.9,0.2c0.6,0.1,1.1,0.2,1.6,0.3V2.3
			h3.5v24.3l1.6,2.4l-2.5,1.9L1130.7,28.8z M1129.7,13.6c-0.4-0.1-0.9-0.2-1.5-0.4c-0.6-0.1-1.3-0.2-2.1-0.2c-1.9,0-3.3,0.7-4.2,2
			c-0.9,1.3-1.3,3.2-1.3,5.7c0,2.4,0.4,4.2,1.1,5.6c0.7,1.3,2,2,3.6,2c1.1,0,1.9-0.2,2.6-0.5c0.7-0.4,1.3-0.8,1.8-1.3V13.6z"/>
		<path class="st0" d="M1139.7,13.7h-2.4v-2.5h6v19h-3.5V13.7z M1141,7.7c-0.7,0-1.3-0.2-1.7-0.7s-0.6-1.1-0.6-1.8
			c0-0.7,0.2-1.3,0.6-1.8s1-0.7,1.7-0.7c0.8,0,1.3,0.2,1.8,0.7s0.6,1.1,0.6,1.8c0,0.7-0.2,1.3-0.6,1.8S1141.8,7.7,1141,7.7z"/>
		<path class="st0" d="M1160,28.7c-0.7,0.6-1.6,1.1-2.5,1.6s-2.1,0.7-3.5,0.7c-1.9,0-3.4-0.5-4.5-1.5c-1.1-1-1.7-2.6-1.7-4.7
			c0-1.1,0.2-2.1,0.6-2.8s0.9-1.4,1.7-1.9s1.6-0.9,2.6-1.1c1-0.2,2.1-0.3,3.3-0.3h3.3v-1c0-1.6-0.2-2.7-0.7-3.4
			c-0.5-0.7-1.4-1-2.8-1c-1.8,0-3.7,0.4-5.6,1.1l-0.9-2.4c0.7-0.3,1.7-0.6,2.8-0.9c1.1-0.3,2.5-0.5,4.1-0.5c1.5,0,2.7,0.2,3.5,0.6
			c0.9,0.4,1.5,1,2,1.7c0.4,0.7,0.7,1.5,0.9,2.5s0.2,2,0.2,3.1v8.2l1.6,2.4l-2.5,1.9L1160,28.7z M1159.2,21h-3c-1.7,0-3,0.3-3.7,0.8
			c-0.7,0.5-1.1,1.5-1.1,2.8c0,1.2,0.3,2.2,0.8,2.8c0.5,0.6,1.3,0.9,2.4,0.9c1.1,0,2.1-0.2,2.9-0.6c0.8-0.4,1.4-0.8,1.8-1.3V21z"/>
		<path class="st0" d="M1168.9,15.2l-1.5-3.2l2.8-1.5l1.6,2.5c1.1-0.9,2.2-1.5,3.2-1.9c1-0.4,2.1-0.6,3.2-0.6c1.3,0,2.3,0.2,3.2,0.6
			s1.5,0.9,2,1.6c0.5,0.7,0.9,1.5,1.1,2.4c0.2,0.9,0.3,1.8,0.3,2.8v12.3h-3.5V18.1c0-1.6-0.3-2.7-1-3.5c-0.6-0.7-1.6-1.1-2.9-1.1
			c-1,0-1.9,0.2-2.8,0.5s-1.6,0.8-2.2,1.3v14.9h-3.5V15.2z"/>
		<path class="st0" d="M1191.9,13.8h-3.5v-2.6h3.6V5.5h3.4v5.7h5.6v2.6h-5.6v11c0,0.7,0.1,1.3,0.2,1.8c0.1,0.4,0.3,0.8,0.6,1
			c0.2,0.2,0.5,0.4,0.9,0.5c0.3,0.1,0.7,0.1,1.1,0.1s0.9-0.1,1.4-0.2c0.5-0.1,1-0.3,1.5-0.5l0.8,2.3c-0.4,0.2-1,0.4-1.8,0.6
			c-0.8,0.2-1.6,0.3-2.4,0.3c-0.9,0-1.7-0.1-2.4-0.3s-1.3-0.5-1.8-0.9c-0.5-0.4-0.9-1-1.1-1.7c-0.3-0.7-0.4-1.6-0.4-2.7V13.8z"/>
		<path class="st0" d="M1219.1,29.5c-0.6,0.4-1.5,0.7-2.6,1c-1.2,0.3-2.4,0.5-3.6,0.5c-1.7,0-3.2-0.2-4.4-0.7
			c-1.2-0.5-2.1-1.2-2.8-2.1c-0.7-0.9-1.2-2-1.5-3.2c-0.3-1.3-0.4-2.6-0.4-4.2c0-1.4,0.2-2.7,0.5-4c0.3-1.2,0.8-2.3,1.5-3.2
			c0.7-0.9,1.6-1.7,2.6-2.2c1.1-0.5,2.3-0.8,3.8-0.8c1.4,0,2.6,0.3,3.6,0.9c1,0.6,1.8,1.3,2.4,2.3c0.6,0.9,1,2,1.3,3.2
			c0.3,1.2,0.4,2.3,0.4,3.5l-1.3,1.3h-11.3c0.1,2.2,0.6,3.9,1.5,5c0.9,1.1,2.2,1.6,4.1,1.6c1,0,1.9-0.1,2.7-0.3
			c0.9-0.2,1.7-0.5,2.4-0.8L1219.1,29.5z M1216.2,19.2c0-2-0.4-3.6-1.1-4.6c-0.7-1-1.8-1.6-3.3-1.6c-1.6,0-2.7,0.5-3.3,1.6
			c-0.7,1.1-1.1,2.6-1.2,4.5H1216.2z"/>
		<path class="st0" d="M1232.1,4.8h-2.4V2.3h5.9v27.9h-3.5V4.8z"/>
		<path class="st0" d="M1252.5,28.7c-0.7,0.6-1.6,1.1-2.5,1.6s-2.1,0.7-3.5,0.7c-1.9,0-3.4-0.5-4.5-1.5c-1.1-1-1.7-2.6-1.7-4.7
			c0-1.1,0.2-2.1,0.6-2.8s0.9-1.4,1.7-1.9s1.6-0.9,2.6-1.1c1-0.2,2.1-0.3,3.3-0.3h3.3v-1c0-1.6-0.2-2.7-0.7-3.4
			c-0.5-0.7-1.4-1-2.8-1c-1.8,0-3.7,0.4-5.6,1.1l-0.9-2.4c0.7-0.3,1.7-0.6,2.8-0.9c1.1-0.3,2.5-0.5,4.1-0.5c1.5,0,2.7,0.2,3.5,0.6
			c0.9,0.4,1.5,1,2,1.7c0.4,0.7,0.7,1.5,0.9,2.5s0.2,2,0.2,3.1v8.2l1.6,2.4l-2.5,1.9L1252.5,28.7z M1251.7,21h-3
			c-1.7,0-3,0.3-3.7,0.8c-0.7,0.5-1.1,1.5-1.1,2.8c0,1.2,0.3,2.2,0.8,2.8c0.5,0.6,1.3,0.9,2.4,0.9c1.1,0,2.1-0.2,2.9-0.6
			c0.8-0.4,1.4-0.8,1.8-1.3V21z"/>
		<path class="st0" d="M1283.1,29.5c-0.6,0.4-1.5,0.7-2.6,1c-1.2,0.3-2.4,0.5-3.6,0.5c-1.7,0-3.2-0.2-4.4-0.7
			c-1.2-0.5-2.1-1.2-2.8-2.1c-0.7-0.9-1.2-2-1.5-3.2c-0.3-1.3-0.4-2.6-0.4-4.2c0-1.4,0.2-2.7,0.5-4c0.3-1.2,0.8-2.3,1.5-3.2
			c0.7-0.9,1.6-1.7,2.6-2.2c1.1-0.5,2.3-0.8,3.8-0.8c1.4,0,2.6,0.3,3.6,0.9c1,0.6,1.8,1.3,2.4,2.3c0.6,0.9,1,2,1.3,3.2
			c0.3,1.2,0.4,2.3,0.4,3.5l-1.3,1.3h-11.3c0.1,2.2,0.6,3.9,1.5,5c0.9,1.1,2.2,1.6,4.1,1.6c1,0,1.9-0.1,2.7-0.3
			c0.9-0.2,1.7-0.5,2.4-0.8L1283.1,29.5z M1280.2,19.2c0-2-0.4-3.6-1.1-4.6c-0.7-1-1.8-1.6-3.3-1.6c-1.6,0-2.7,0.5-3.3,1.6
			c-0.7,1.1-1.1,2.6-1.2,4.5H1280.2z"/>
		<path class="st0" d="M1286.4,11.4l3.6-0.6l5,16.4c0.1,0.5,0.2,0.8,0.4,1c0.1,0.2,0.3,0.3,0.6,0.3c0.3,0,0.5-0.1,0.6-0.3
			c0.1-0.2,0.2-0.5,0.4-1l4.9-16.4l3,0.6l-4.9,15.7c-0.4,1.2-0.9,2.2-1.5,2.9c-0.6,0.7-1.5,1-2.5,1c-0.7,0-1.3-0.1-1.8-0.2
			c-0.5-0.2-0.9-0.4-1.3-0.7c-0.3-0.3-0.6-0.7-0.9-1.2c-0.2-0.5-0.4-1.1-0.6-1.7L1286.4,11.4z"/>
		<path class="st0" d="M1315.6,30.9c-1.6,0-3-0.3-4.1-0.8c-1.1-0.5-2-1.2-2.6-2.1s-1.1-2-1.4-3.2c-0.3-1.2-0.4-2.6-0.4-4.1
			c0-1.5,0.2-2.8,0.5-4.1c0.4-1.3,0.9-2.3,1.6-3.2s1.6-1.6,2.7-2.1c1.1-0.5,2.4-0.8,3.8-0.8c1.5,0,2.8,0.3,3.9,0.8
			c1.1,0.5,2,1.2,2.7,2.1c0.7,0.9,1.2,2,1.5,3.2s0.5,2.6,0.5,4.1c0,1.5-0.2,2.9-0.5,4.1c-0.3,1.2-0.8,2.3-1.5,3.2
			c-0.7,0.9-1.6,1.6-2.7,2.1C1318.5,30.7,1317.2,30.9,1315.6,30.9z M1315.7,28.4c1.8,0,3.1-0.7,3.9-2c0.7-1.3,1.1-3.2,1.1-5.7
			c0-2.4-0.4-4.3-1.1-5.6c-0.7-1.3-2-2-3.9-2c-1.8,0-3.1,0.6-3.9,1.9c-0.7,1.3-1.1,3.2-1.1,5.7c0,1.2,0.1,2.3,0.3,3.2
			c0.2,1,0.5,1.8,0.9,2.4c0.4,0.7,0.9,1.2,1.6,1.5C1314.1,28.2,1314.8,28.4,1315.7,28.4z"/>
		<path class="st0" d="M1329.5,4.8h-2.4V2.3h5.9v27.9h-3.5V4.8z"/>
		<path class="st0" d="M1338.8,11.2h3.5v12.4c0,1.5,0.3,2.6,0.9,3.5c0.6,0.8,1.5,1.2,2.9,1.2c1.1,0,2-0.2,2.7-0.5
			c0.7-0.4,1.3-0.8,2-1.3V11.2h3.5v15.4l1.6,2.3l-2.5,1.9l-1.7-2.1c-1,0.8-2,1.3-2.9,1.7c-1,0.3-2,0.5-3.1,0.5
			c-1.4,0-2.5-0.2-3.4-0.6s-1.5-0.9-2-1.6c-0.5-0.7-0.8-1.5-1-2.4c-0.2-0.9-0.3-1.8-0.3-2.8V11.2z"/>
		<path class="st0" d="M1374.5,29.4c-0.7,0.4-1.5,0.7-2.6,1c-1,0.3-2.2,0.5-3.6,0.5c-1.7,0-3.2-0.2-4.3-0.7
			c-1.1-0.5-2.1-1.2-2.7-2.1c-0.7-0.9-1.2-1.9-1.5-3.2c-0.3-1.2-0.4-2.6-0.4-4.1c0-1.5,0.2-2.8,0.5-4.1c0.4-1.3,0.9-2.4,1.7-3.3
			c0.7-0.9,1.7-1.7,2.8-2.2c1.2-0.5,2.5-0.8,4.2-0.8c1.2,0,2.2,0.2,3.2,0.5c1,0.3,1.8,0.7,2.5,1.1l-1.1,2.4
			c-0.7-0.4-1.4-0.7-2.2-0.9c-0.8-0.2-1.6-0.4-2.6-0.4c-1.9,0-3.2,0.6-4.1,1.9s-1.3,3.2-1.3,5.8c0,1.1,0.1,2.2,0.3,3.1
			c0.2,0.9,0.5,1.7,0.9,2.3c0.4,0.6,1,1.1,1.7,1.5c0.7,0.3,1.6,0.5,2.6,0.5c0.8,0,1.6-0.1,2.3-0.2c0.7-0.2,1.5-0.5,2.5-0.9
			L1374.5,29.4z"/>
		<path class="st0" d="M1378.5,13.7h-2.4v-2.5h6v19h-3.5V13.7z M1379.9,7.7c-0.7,0-1.3-0.2-1.7-0.7s-0.6-1.1-0.6-1.8
			c0-0.7,0.2-1.3,0.6-1.8s1-0.7,1.7-0.7c0.8,0,1.3,0.2,1.8,0.7s0.6,1.1,0.6,1.8c0,0.7-0.2,1.3-0.6,1.8S1380.6,7.7,1379.9,7.7z"/>
		<path class="st0" d="M1395.8,30.9c-1.6,0-3-0.3-4.1-0.8c-1.1-0.5-2-1.2-2.6-2.1s-1.1-2-1.4-3.2c-0.3-1.2-0.4-2.6-0.4-4.1
			c0-1.5,0.2-2.8,0.5-4.1c0.4-1.3,0.9-2.3,1.6-3.2s1.6-1.6,2.7-2.1c1.1-0.5,2.4-0.8,3.8-0.8c1.5,0,2.8,0.3,3.9,0.8
			c1.1,0.5,2,1.2,2.7,2.1c0.7,0.9,1.2,2,1.5,3.2s0.5,2.6,0.5,4.1c0,1.5-0.2,2.9-0.5,4.1c-0.3,1.2-0.8,2.3-1.5,3.2
			c-0.7,0.9-1.6,1.6-2.7,2.1C1398.7,30.7,1397.3,30.9,1395.8,30.9z M1395.9,28.4c1.8,0,3.1-0.7,3.9-2c0.7-1.3,1.1-3.2,1.1-5.7
			c0-2.4-0.4-4.3-1.1-5.6c-0.7-1.3-2-2-3.9-2c-1.8,0-3.1,0.6-3.9,1.9c-0.7,1.3-1.1,3.2-1.1,5.7c0,1.2,0.1,2.3,0.3,3.2
			c0.2,1,0.5,1.8,0.9,2.4c0.4,0.7,0.9,1.2,1.6,1.5C1394.2,28.2,1395,28.4,1395.9,28.4z M1398,0l2.8,1.9l-5.4,6.2l-1.7-1.3L1398,0z"
			/>
		<path class="st0" d="M1409.8,15.2l-1.5-3.2l2.8-1.5l1.6,2.5c1.1-0.9,2.2-1.5,3.2-1.9c1-0.4,2.1-0.6,3.2-0.6c1.3,0,2.3,0.2,3.2,0.6
			s1.5,0.9,2,1.6c0.5,0.7,0.9,1.5,1.1,2.4c0.2,0.9,0.3,1.8,0.3,2.8v12.3h-3.5V18.1c0-1.6-0.3-2.7-1-3.5c-0.6-0.7-1.6-1.1-2.9-1.1
			c-1,0-1.9,0.2-2.8,0.5s-1.6,0.8-2.2,1.3v14.9h-3.5V15.2z"/>
		<path class="st0" d="M1451.9,28.8c-0.7,0.6-1.6,1.1-2.5,1.5s-2.1,0.6-3.3,0.6c-2.6,0-4.6-0.8-5.9-2.5s-2-4.2-2-7.7
			c0-1.5,0.2-2.9,0.6-4.2s1-2.3,1.7-3.2s1.7-1.6,2.9-2.1c1.2-0.5,2.5-0.7,4-0.7c0.7,0,1.3,0.1,1.9,0.2c0.6,0.1,1.1,0.2,1.6,0.3V2.3
			h3.5v24.3l1.6,2.4l-2.5,1.9L1451.9,28.8z M1450.9,13.6c-0.4-0.1-0.9-0.2-1.5-0.4c-0.6-0.1-1.3-0.2-2.1-0.2c-1.9,0-3.3,0.7-4.2,2
			c-0.9,1.3-1.3,3.2-1.3,5.7c0,2.4,0.4,4.2,1.1,5.6c0.7,1.3,2,2,3.6,2c1.1,0,1.9-0.2,2.6-0.5c0.7-0.4,1.3-0.8,1.8-1.3V13.6z"/>
		<path class="st0" d="M1475.1,29.5c-0.6,0.4-1.5,0.7-2.6,1c-1.2,0.3-2.4,0.5-3.6,0.5c-1.7,0-3.2-0.2-4.4-0.7
			c-1.2-0.5-2.1-1.2-2.8-2.1c-0.7-0.9-1.2-2-1.5-3.2c-0.3-1.3-0.4-2.6-0.4-4.2c0-1.4,0.2-2.7,0.5-4c0.3-1.2,0.8-2.3,1.5-3.2
			c0.7-0.9,1.6-1.7,2.6-2.2c1.1-0.5,2.3-0.8,3.8-0.8c1.4,0,2.6,0.3,3.6,0.9c1,0.6,1.8,1.3,2.4,2.3c0.6,0.9,1,2,1.3,3.2
			c0.3,1.2,0.4,2.3,0.4,3.5l-1.3,1.3h-11.3c0.1,2.2,0.6,3.9,1.5,5c0.9,1.1,2.2,1.6,4.1,1.6c1,0,1.9-0.1,2.7-0.3
			c0.9-0.2,1.7-0.5,2.4-0.8L1475.1,29.5z M1472.3,19.2c0-2-0.4-3.6-1.1-4.6c-0.7-1-1.8-1.6-3.3-1.6c-1.6,0-2.7,0.5-3.3,1.6
			c-0.7,1.1-1.1,2.6-1.2,4.5H1472.3z"/>
		<path class="st0" d="M1487.4,26.7c0.6,0.3,1.4,0.7,2.4,1.1c1,0.4,2.1,0.6,3.4,0.6c1.3,0,2.4-0.2,3.2-0.7s1.2-1.2,1.2-2.2
			c0-0.6-0.1-1.1-0.4-1.4c-0.3-0.4-0.6-0.7-1-0.9c-0.4-0.2-0.9-0.4-1.5-0.6c-0.6-0.2-1.2-0.3-1.8-0.5c-0.7-0.2-1.4-0.4-2.1-0.6
			c-0.7-0.3-1.3-0.6-1.9-1c-0.5-0.4-1-0.9-1.3-1.6c-0.3-0.6-0.5-1.4-0.5-2.4c0-0.8,0.1-1.6,0.4-2.3c0.3-0.7,0.7-1.3,1.3-1.8
			c0.6-0.5,1.4-0.9,2.3-1.2c0.9-0.3,2-0.5,3.2-0.5s2.4,0.1,3.4,0.4c1.1,0.3,2,0.6,2.7,1l-1.1,2.3c-1.6-0.9-3.3-1.3-5.1-1.3
			c-1.2,0-2.2,0.2-2.9,0.6c-0.7,0.4-1,1.1-1,2.1c0,0.6,0.1,1,0.3,1.4c0.2,0.4,0.5,0.7,0.9,0.9c0.4,0.2,0.8,0.4,1.4,0.6
			c0.5,0.2,1.1,0.3,1.6,0.5c0.7,0.2,1.4,0.4,2.1,0.6c0.7,0.2,1.4,0.5,2,1c0.6,0.4,1.1,1,1.5,1.6c0.4,0.7,0.6,1.5,0.6,2.6
			c0,1.9-0.6,3.4-1.8,4.4c-1.2,1.1-3.1,1.6-5.6,1.6c-1.7,0-3.1-0.2-4.4-0.6c-1.2-0.4-2.1-0.8-2.7-1.2L1487.4,26.7z"/>
		<path class="st0" d="M1505.1,11.2h3.5v12.4c0,1.5,0.3,2.6,0.9,3.5c0.6,0.8,1.5,1.2,2.9,1.2c1.1,0,2-0.2,2.7-0.5
			c0.7-0.4,1.3-0.8,2-1.3V11.2h3.5v15.4l1.6,2.3l-2.5,1.9l-1.7-2.1c-1,0.8-2,1.3-2.9,1.7c-1,0.3-2,0.5-3.1,0.5
			c-1.4,0-2.5-0.2-3.4-0.6s-1.5-0.9-2-1.6c-0.5-0.7-0.8-1.5-1-2.4c-0.2-0.9-0.3-1.8-0.3-2.8V11.2z"/>
		<path class="st0" d="M2.4,79.7H0v-2.5h6v19H2.4V79.7z M3.8,73.7c-0.7,0-1.3-0.2-1.7-0.7s-0.6-1.1-0.6-1.8c0-0.7,0.2-1.3,0.6-1.8
			s1-0.7,1.7-0.7c0.8,0,1.3,0.2,1.8,0.7c0.4,0.5,0.6,1.1,0.6,1.8c0,0.7-0.2,1.3-0.6,1.8C5.1,73.4,4.6,73.7,3.8,73.7z"/>
		<path class="st0" d="M12.2,81.2l-1.5-3.2l2.8-1.5l1.6,2.5c1.1-0.9,2.2-1.5,3.2-1.9c1-0.4,2.1-0.6,3.2-0.6c1.3,0,2.3,0.2,3.2,0.6
			c0.8,0.4,1.5,0.9,2,1.6c0.5,0.7,0.9,1.5,1.1,2.4c0.2,0.9,0.3,1.8,0.3,2.8v12.3h-3.5V84.1c0-1.6-0.3-2.7-1-3.5
			c-0.6-0.7-1.6-1.1-2.9-1.1c-1,0-1.9,0.2-2.8,0.5s-1.6,0.8-2.2,1.3v14.9h-3.5V81.2z"/>
		<path class="st0" d="M35.1,100.8c0.7,0.3,1.4,0.6,2.3,0.9c0.8,0.3,1.9,0.4,3.1,0.4c2,0,3.4-0.5,4.1-1.4c0.8-0.9,1.1-2.4,1.1-4.4
			v-0.8c-0.6,0.3-1.3,0.6-2,0.7c-0.7,0.2-1.5,0.3-2.2,0.3c-2.8,0-4.9-0.8-6.3-2.4c-1.4-1.6-2.1-4.1-2.1-7.5c0-1.4,0.1-2.7,0.4-3.9
			c0.3-1.2,0.7-2.3,1.3-3.2c0.6-0.9,1.5-1.7,2.5-2.2c1-0.6,2.3-0.8,3.8-0.8c0.7,0,1.3,0.1,1.8,0.2s1,0.3,1.5,0.6
			c0.4,0.2,0.8,0.4,1.1,0.7c0.3,0.2,0.6,0.5,0.8,0.7l1.5-2.2l2.8,1.5l-1.4,3.2v15.9c0,2.4-0.7,4.3-2.1,5.7c-1.4,1.4-3.6,2-6.4,2
			c-1.3,0-2.5-0.1-3.6-0.3c-1.2-0.2-2.2-0.6-3.1-1.1L35.1,100.8z M45.8,81.1c-0.4-0.4-0.9-0.9-1.6-1.3c-0.7-0.4-1.6-0.7-2.7-0.7
			c-1.5,0-2.7,0.6-3.5,1.8c-0.8,1.2-1.2,3.2-1.2,5.8c0,2.4,0.4,4.2,1.2,5.4c0.8,1.2,2.1,1.9,3.9,1.9c0.8,0,1.5-0.1,2.1-0.2
			c0.6-0.2,1.2-0.4,1.8-0.9V81.1z"/>
		<path class="st0" d="M70,95.5c-0.6,0.4-1.5,0.7-2.6,1s-2.4,0.5-3.6,0.5c-1.7,0-3.2-0.2-4.4-0.7c-1.2-0.5-2.1-1.2-2.8-2.1
			s-1.2-2-1.5-3.2c-0.3-1.3-0.4-2.6-0.4-4.2c0-1.4,0.2-2.7,0.5-4c0.3-1.2,0.8-2.3,1.5-3.2c0.7-0.9,1.6-1.7,2.6-2.2
			c1.1-0.5,2.3-0.8,3.8-0.8c1.4,0,2.6,0.3,3.6,0.9c1,0.6,1.8,1.3,2.4,2.3s1,2,1.3,3.2c0.3,1.2,0.4,2.3,0.4,3.5l-1.3,1.3H58.2
			c0.1,2.2,0.6,3.9,1.5,5c0.9,1.1,2.2,1.6,4.1,1.6c1,0,1.9-0.1,2.7-0.3c0.9-0.2,1.7-0.5,2.4-0.8L70,95.5z M67.1,85.2
			c0-2-0.4-3.6-1.1-4.6c-0.7-1-1.8-1.6-3.3-1.6c-1.6,0-2.7,0.5-3.3,1.6c-0.7,1.1-1.1,2.6-1.2,4.5H67.1z"/>
		<path class="st0" d="M75.8,81.2l-1.5-3.2l2.8-1.5l1.6,2.5c1.1-0.9,2.2-1.5,3.2-1.9c1-0.4,2.1-0.6,3.2-0.6c1.3,0,2.3,0.2,3.2,0.6
			c0.8,0.4,1.5,0.9,2,1.6c0.5,0.7,0.9,1.5,1.1,2.4c0.2,0.9,0.3,1.8,0.3,2.8v12.3h-3.5V84.1c0-1.6-0.3-2.7-1-3.5
			c-0.6-0.7-1.6-1.1-2.9-1.1c-1,0-1.9,0.2-2.8,0.5s-1.6,0.8-2.2,1.3v14.9h-3.5V81.2z"/>
		<path class="st0" d="M97.9,79.7h-2.4v-2.5h6v19h-3.5V79.7z M99.3,73.7c-0.7,0-1.3-0.2-1.7-0.7s-0.6-1.1-0.6-1.8
			c0-0.7,0.2-1.3,0.6-1.8s1-0.7,1.7-0.7c0.8,0,1.3,0.2,1.8,0.7c0.4,0.5,0.6,1.1,0.6,1.8c0,0.7-0.2,1.3-0.6,1.8
			C100.6,73.4,100,73.7,99.3,73.7z"/>
		<path class="st0" d="M121.9,95.5c-0.6,0.4-1.5,0.7-2.6,1s-2.4,0.5-3.6,0.5c-1.7,0-3.2-0.2-4.4-0.7c-1.2-0.5-2.1-1.2-2.8-2.1
			s-1.2-2-1.5-3.2c-0.3-1.3-0.4-2.6-0.4-4.2c0-1.4,0.2-2.7,0.5-4c0.3-1.2,0.8-2.3,1.5-3.2c0.7-0.9,1.6-1.7,2.6-2.2
			c1.1-0.5,2.3-0.8,3.8-0.8c1.4,0,2.6,0.3,3.6,0.9c1,0.6,1.8,1.3,2.4,2.3s1,2,1.3,3.2c0.3,1.2,0.4,2.3,0.4,3.5l-1.3,1.3h-11.3
			c0.1,2.2,0.6,3.9,1.5,5c0.9,1.1,2.2,1.6,4.1,1.6c1,0,1.9-0.1,2.7-0.3c0.9-0.2,1.7-0.5,2.4-0.8L121.9,95.5z M119.1,85.2
			c0-2-0.4-3.6-1.1-4.6c-0.7-1-1.8-1.6-3.3-1.6c-1.6,0-2.7,0.5-3.3,1.6c-0.7,1.1-1.1,2.6-1.2,4.5H119.1z"/>
		<path class="st0" d="M128,79.7h-2.4v-2.5h4.9l0.6,2.5c0.3-0.4,0.7-0.7,1-1c0.4-0.3,0.7-0.6,1.2-0.9c0.4-0.2,0.9-0.4,1.5-0.6
			c0.5-0.1,1.2-0.2,1.9-0.2c0.9,0,1.7,0.1,2.4,0.3l-1,3.2c-0.3-0.1-0.6-0.2-1-0.3c-0.4-0.1-0.7-0.1-1.1-0.1c-1.8,0-3.3,0.6-4.4,1.9
			v14.2H128V79.7z"/>
		<path class="st0" d="M142.5,79.7h-2.4v-2.5h6v19h-3.5V79.7z M145.3,66l2.8,1.9l-5.4,6.2l-1.7-1.3L145.3,66z"/>
		<path class="st0" d="M162.9,94.7c-0.7,0.6-1.6,1.1-2.5,1.6c-0.9,0.5-2.1,0.7-3.5,0.7c-1.9,0-3.4-0.5-4.5-1.5
			c-1.1-1-1.7-2.6-1.7-4.7c0-1.1,0.2-2.1,0.6-2.8c0.4-0.8,0.9-1.4,1.7-1.9c0.7-0.5,1.6-0.9,2.6-1.1c1-0.2,2.1-0.3,3.3-0.3h3.3v-1
			c0-1.6-0.2-2.7-0.7-3.4c-0.5-0.7-1.4-1-2.8-1c-1.8,0-3.7,0.4-5.6,1.1L152,78c0.7-0.3,1.7-0.6,2.8-0.9c1.1-0.3,2.5-0.5,4.1-0.5
			c1.5,0,2.7,0.2,3.5,0.6c0.9,0.4,1.5,1,2,1.7c0.4,0.7,0.7,1.5,0.9,2.5c0.1,1,0.2,2,0.2,3.1v8.2l1.6,2.4l-2.5,1.9L162.9,94.7z
			 M162.1,87h-3c-1.7,0-3,0.3-3.7,0.8c-0.7,0.5-1.1,1.5-1.1,2.8c0,1.2,0.3,2.2,0.8,2.8c0.5,0.6,1.3,0.9,2.4,0.9
			c1.1,0,2.1-0.2,2.9-0.6s1.4-0.8,1.8-1.3V87z"/>
		<path class="st0" d="M171.5,92.3l3.7,0.8l-2.8,8.7l-2.4-0.6L171.5,92.3z"/>
		<path class="st0" d="M199.8,94.8c-0.7,0.6-1.6,1.1-2.5,1.5c-0.9,0.4-2.1,0.6-3.3,0.6c-2.6,0-4.6-0.8-5.9-2.5c-1.3-1.7-2-4.2-2-7.7
			c0-1.5,0.2-2.9,0.6-4.2c0.4-1.3,1-2.3,1.7-3.2c0.8-0.9,1.7-1.6,2.9-2.1c1.2-0.5,2.5-0.7,4-0.7c0.7,0,1.3,0.1,1.9,0.2
			c0.6,0.1,1.1,0.2,1.6,0.3v-8.7h3.5v24.3L204,95l-2.5,1.9L199.8,94.8z M198.9,79.6c-0.4-0.1-0.9-0.2-1.5-0.4S196,79,195.3,79
			c-1.9,0-3.3,0.7-4.2,2c-0.9,1.3-1.3,3.2-1.3,5.7c0,2.4,0.4,4.2,1.1,5.6c0.7,1.3,2,2,3.6,2c1.1,0,1.9-0.2,2.6-0.5s1.3-0.8,1.8-1.3
			V79.6z"/>
		<path class="st0" d="M219.4,94.7c-0.7,0.6-1.6,1.1-2.5,1.6c-0.9,0.5-2.1,0.7-3.5,0.7c-1.9,0-3.4-0.5-4.5-1.5
			c-1.1-1-1.7-2.6-1.7-4.7c0-1.1,0.2-2.1,0.6-2.8c0.4-0.8,0.9-1.4,1.7-1.9c0.7-0.5,1.6-0.9,2.6-1.1c1-0.2,2.1-0.3,3.3-0.3h3.3v-1
			c0-1.6-0.2-2.7-0.7-3.4c-0.5-0.7-1.4-1-2.8-1c-1.8,0-3.7,0.4-5.6,1.1l-0.9-2.4c0.7-0.3,1.7-0.6,2.8-0.9c1.1-0.3,2.5-0.5,4.1-0.5
			c1.5,0,2.7,0.2,3.5,0.6c0.9,0.4,1.5,1,2,1.7c0.4,0.7,0.7,1.5,0.9,2.5c0.1,1,0.2,2,0.2,3.1v8.2l1.6,2.4l-2.5,1.9L219.4,94.7z
			 M218.6,87h-3c-1.7,0-3,0.3-3.7,0.8c-0.7,0.5-1.1,1.5-1.1,2.8c0,1.2,0.3,2.2,0.8,2.8c0.5,0.6,1.3,0.9,2.4,0.9
			c1.1,0,2.1-0.2,2.9-0.6s1.4-0.8,1.8-1.3V87z"/>
		<path class="st0" d="M228.5,79.7h-2.4v-2.5h4.9l0.6,2.5c0.3-0.4,0.7-0.7,1-1c0.4-0.3,0.7-0.6,1.2-0.9c0.4-0.2,0.9-0.4,1.5-0.6
			c0.5-0.1,1.2-0.2,1.9-0.2c0.9,0,1.7,0.1,2.4,0.3l-1,3.2c-0.3-0.1-0.6-0.2-1-0.3c-0.4-0.1-0.7-0.1-1.1-0.1c-1.8,0-3.3,0.6-4.4,1.9
			v14.2h-3.5V79.7z"/>
		<path class="st0" d="M249.8,70.8h-2.4v-2.5h5.9v27.9h-3.5V70.8z"/>
		<path class="st0" d="M259,77.2h3.5v12.4c0,1.5,0.3,2.6,0.9,3.5c0.6,0.8,1.5,1.2,2.9,1.2c1.1,0,2-0.2,2.7-0.5s1.3-0.8,2-1.3V77.2
			h3.5v15.4L276,95l-2.5,1.9l-1.7-2.1c-1,0.8-2,1.3-2.9,1.7c-0.9,0.3-2,0.5-3.1,0.5c-1.4,0-2.5-0.2-3.4-0.6c-0.9-0.4-1.5-0.9-2-1.6
			c-0.5-0.7-0.8-1.5-1-2.4c-0.2-0.9-0.3-1.8-0.3-2.8V77.2z"/>
		<path class="st0" d="M281.7,100.8c0.7,0.3,1.4,0.6,2.3,0.9c0.8,0.3,1.9,0.4,3.1,0.4c2,0,3.4-0.5,4.1-1.4c0.8-0.9,1.1-2.4,1.1-4.4
			v-0.8c-0.6,0.3-1.3,0.6-2,0.7c-0.7,0.2-1.5,0.3-2.2,0.3c-2.8,0-4.9-0.8-6.3-2.4c-1.4-1.6-2.1-4.1-2.1-7.5c0-1.4,0.1-2.7,0.4-3.9
			c0.3-1.2,0.7-2.3,1.3-3.2c0.6-0.9,1.5-1.7,2.5-2.2c1-0.6,2.3-0.8,3.8-0.8c0.7,0,1.3,0.1,1.8,0.2s1,0.3,1.5,0.6
			c0.4,0.2,0.8,0.4,1.1,0.7c0.3,0.2,0.6,0.5,0.8,0.7l1.5-2.2l2.8,1.5l-1.4,3.2v15.9c0,2.4-0.7,4.3-2.1,5.7c-1.4,1.4-3.6,2-6.4,2
			c-1.3,0-2.5-0.1-3.6-0.3c-1.2-0.2-2.2-0.6-3.1-1.1L281.7,100.8z M292.3,81.1c-0.4-0.4-0.9-0.9-1.6-1.3c-0.7-0.4-1.6-0.7-2.7-0.7
			c-1.5,0-2.7,0.6-3.5,1.8c-0.8,1.2-1.2,3.2-1.2,5.8c0,2.4,0.4,4.2,1.2,5.4c0.8,1.2,2.1,1.9,3.9,1.9c0.8,0,1.5-0.1,2.1-0.2
			c0.6-0.2,1.2-0.4,1.8-0.9V81.1z"/>
		<path class="st0" d="M312.8,94.7c-0.7,0.6-1.6,1.1-2.5,1.6c-0.9,0.5-2.1,0.7-3.5,0.7c-1.9,0-3.4-0.5-4.5-1.5
			c-1.1-1-1.7-2.6-1.7-4.7c0-1.1,0.2-2.1,0.6-2.8c0.4-0.8,0.9-1.4,1.7-1.9c0.7-0.5,1.6-0.9,2.6-1.1c1-0.2,2.1-0.3,3.3-0.3h3.3v-1
			c0-1.6-0.2-2.7-0.7-3.4c-0.5-0.7-1.4-1-2.8-1c-1.8,0-3.7,0.4-5.6,1.1l-0.9-2.4c0.7-0.3,1.7-0.6,2.8-0.9c1.1-0.3,2.5-0.5,4.1-0.5
			c1.5,0,2.7,0.2,3.5,0.6c0.9,0.4,1.5,1,2,1.7c0.4,0.7,0.7,1.5,0.9,2.5c0.1,1,0.2,2,0.2,3.1v8.2L317,95l-2.5,1.9L312.8,94.7z
			 M312,87h-3c-1.7,0-3,0.3-3.7,0.8c-0.7,0.5-1.1,1.5-1.1,2.8c0,1.2,0.3,2.2,0.8,2.8c0.5,0.6,1.3,0.9,2.4,0.9c1.1,0,2.1-0.2,2.9-0.6
			s1.4-0.8,1.8-1.3V87z"/>
		<path class="st0" d="M321.9,79.7h-2.4v-2.5h4.9l0.6,2.5c0.3-0.4,0.7-0.7,1-1c0.4-0.3,0.7-0.6,1.2-0.9c0.4-0.2,0.9-0.4,1.5-0.6
			c0.5-0.1,1.2-0.2,1.9-0.2c0.9,0,1.7,0.1,2.4,0.3l-1,3.2c-0.3-0.1-0.6-0.2-1-0.3c-0.4-0.1-0.7-0.1-1.1-0.1c-1.8,0-3.3,0.6-4.4,1.9
			v14.2h-3.5V79.7z"/>
		<path class="st0" d="M353.9,94.7c-0.7,0.6-1.6,1.1-2.5,1.6c-0.9,0.5-2.1,0.7-3.5,0.7c-1.9,0-3.4-0.5-4.5-1.5
			c-1.1-1-1.7-2.6-1.7-4.7c0-1.1,0.2-2.1,0.6-2.8c0.4-0.8,0.9-1.4,1.7-1.9c0.7-0.5,1.6-0.9,2.6-1.1c1-0.2,2.1-0.3,3.3-0.3h3.3v-1
			c0-1.6-0.2-2.7-0.7-3.4c-0.5-0.7-1.4-1-2.8-1c-1.8,0-3.7,0.4-5.6,1.1l-0.9-2.4c0.7-0.3,1.7-0.6,2.8-0.9c1.1-0.3,2.5-0.5,4.1-0.5
			c1.5,0,2.7,0.2,3.5,0.6c0.9,0.4,1.5,1,2,1.7c0.4,0.7,0.7,1.5,0.9,2.5c0.1,1,0.2,2,0.2,3.1v8.2l1.6,2.4l-2.5,1.9L353.9,94.7z
			 M353.1,87h-3c-1.7,0-3,0.3-3.7,0.8c-0.7,0.5-1.1,1.5-1.1,2.8c0,1.2,0.3,2.2,0.8,2.8c0.5,0.6,1.3,0.9,2.4,0.9
			c1.1,0,2.1-0.2,2.9-0.6s1.4-0.8,1.8-1.3V87z"/>
		<path class="st0" d="M369.7,77.2h3.5v12.4c0,1.5,0.3,2.6,0.9,3.5c0.6,0.8,1.5,1.2,2.9,1.2c1.1,0,2-0.2,2.7-0.5s1.3-0.8,2-1.3V77.2
			h3.5v15.4l1.6,2.3l-2.5,1.9l-1.7-2.1c-1,0.8-2,1.3-2.9,1.7c-0.9,0.3-2,0.5-3.1,0.5c-1.4,0-2.5-0.2-3.4-0.6c-0.9-0.4-1.5-0.9-2-1.6
			c-0.5-0.7-0.8-1.5-1-2.4c-0.2-0.9-0.3-1.8-0.3-2.8V77.2z"/>
		<path class="st0" d="M391.4,81.2l-1.5-3.2l2.8-1.5l1.6,2.5c1.1-0.9,2.2-1.5,3.2-1.9c1-0.4,2.1-0.6,3.2-0.6c1.3,0,2.3,0.2,3.2,0.6
			c0.8,0.4,1.5,0.9,2,1.6c0.5,0.7,0.9,1.5,1.1,2.4c0.2,0.9,0.3,1.8,0.3,2.8v12.3h-3.5V84.1c0-1.6-0.3-2.7-1-3.5
			c-0.6-0.7-1.6-1.1-2.9-1.1c-1,0-1.9,0.2-2.8,0.5s-1.6,0.8-2.2,1.3v14.9h-3.5V81.2z"/>
		<path class="st0" d="M424,94.7c-0.7,0.6-1.6,1.1-2.5,1.6c-0.9,0.5-2.1,0.7-3.5,0.7c-1.9,0-3.4-0.5-4.5-1.5c-1.1-1-1.7-2.6-1.7-4.7
			c0-1.1,0.2-2.1,0.6-2.8c0.4-0.8,0.9-1.4,1.7-1.9c0.7-0.5,1.6-0.9,2.6-1.1c1-0.2,2.1-0.3,3.3-0.3h3.3v-1c0-1.6-0.2-2.7-0.7-3.4
			c-0.5-0.7-1.4-1-2.8-1c-1.8,0-3.7,0.4-5.6,1.1l-0.9-2.4c0.7-0.3,1.7-0.6,2.8-0.9c1.1-0.3,2.5-0.5,4.1-0.5c1.5,0,2.7,0.2,3.5,0.6
			c0.9,0.4,1.5,1,2,1.7c0.4,0.7,0.7,1.5,0.9,2.5c0.1,1,0.2,2,0.2,3.1v8.2l1.6,2.4l-2.5,1.9L424,94.7z M423.2,87h-3
			c-1.7,0-3,0.3-3.7,0.8c-0.7,0.5-1.1,1.5-1.1,2.8c0,1.2,0.3,2.2,0.8,2.8c0.5,0.6,1.3,0.9,2.4,0.9c1.1,0,2.1-0.2,2.9-0.6
			s1.4-0.8,1.8-1.3V87z"/>
		<path class="st0" d="M440.3,81.2l-1.5-3.2l2.8-1.5l1.6,2.5c1.1-0.9,2.2-1.5,3.2-1.9c1-0.4,2.1-0.6,3.2-0.6c1.3,0,2.3,0.2,3.2,0.6
			c0.8,0.4,1.5,0.9,2,1.6c0.5,0.7,0.9,1.5,1.1,2.4c0.2,0.9,0.3,1.8,0.3,2.8v12.3h-3.5V84.1c0-1.6-0.3-2.7-1-3.5
			c-0.6-0.7-1.6-1.1-2.9-1.1c-1,0-1.9,0.2-2.8,0.5s-1.6,0.8-2.2,1.3v14.9h-3.5V81.2z"/>
		<path class="st0" d="M461.8,77.2h3.5v12.4c0,1.5,0.3,2.6,0.9,3.5c0.6,0.8,1.5,1.2,2.9,1.2c1.1,0,2-0.2,2.7-0.5s1.3-0.8,2-1.3V77.2
			h3.5v15.4l1.6,2.3l-2.5,1.9l-1.7-2.1c-1,0.8-2,1.3-2.9,1.7c-0.9,0.3-2,0.5-3.1,0.5c-1.4,0-2.5-0.2-3.4-0.6c-0.9-0.4-1.5-0.9-2-1.6
			c-0.5-0.7-0.8-1.5-1-2.4c-0.2-0.9-0.3-1.8-0.3-2.8V77.2z"/>
		<path class="st0" d="M497.8,95.5c-0.6,0.4-1.5,0.7-2.6,1s-2.4,0.5-3.6,0.5c-1.7,0-3.2-0.2-4.4-0.7c-1.2-0.5-2.1-1.2-2.8-2.1
			s-1.2-2-1.5-3.2c-0.3-1.3-0.4-2.6-0.4-4.2c0-1.4,0.2-2.7,0.5-4c0.3-1.2,0.8-2.3,1.5-3.2c0.7-0.9,1.6-1.7,2.6-2.2
			c1.1-0.5,2.3-0.8,3.8-0.8c1.4,0,2.6,0.3,3.6,0.9c1,0.6,1.8,1.3,2.4,2.3s1,2,1.3,3.2c0.3,1.2,0.4,2.3,0.4,3.5l-1.3,1.3H486
			c0.1,2.2,0.6,3.9,1.5,5c0.9,1.1,2.2,1.6,4.1,1.6c1,0,1.9-0.1,2.7-0.3c0.9-0.2,1.7-0.5,2.4-0.8L497.8,95.5z M495,85.2
			c0-2-0.4-3.6-1.1-4.6c-0.7-1-1.8-1.6-3.3-1.6c-1.6,0-2.7,0.5-3.3,1.6c-0.7,1.1-1.1,2.6-1.2,4.5H495z"/>
		<path class="st0" d="M501.2,77.4l3.6-0.6l5,16.4c0.1,0.5,0.2,0.8,0.4,1c0.1,0.2,0.3,0.3,0.6,0.3c0.3,0,0.5-0.1,0.6-0.3
			c0.1-0.2,0.2-0.5,0.4-1l4.9-16.4l3,0.6l-4.9,15.7c-0.4,1.2-0.9,2.2-1.5,2.9c-0.6,0.7-1.5,1-2.5,1c-0.7,0-1.3-0.1-1.8-0.2
			c-0.5-0.2-0.9-0.4-1.3-0.7c-0.3-0.3-0.6-0.7-0.9-1.2c-0.2-0.5-0.4-1.1-0.6-1.7L501.2,77.4z"/>
		<path class="st0" d="M534,94.7c-0.7,0.6-1.6,1.1-2.5,1.6c-0.9,0.5-2.1,0.7-3.5,0.7c-1.9,0-3.4-0.5-4.5-1.5c-1.1-1-1.7-2.6-1.7-4.7
			c0-1.1,0.2-2.1,0.6-2.8c0.4-0.8,0.9-1.4,1.7-1.9c0.7-0.5,1.6-0.9,2.6-1.1c1-0.2,2.1-0.3,3.3-0.3h3.3v-1c0-1.6-0.2-2.7-0.7-3.4
			c-0.5-0.7-1.4-1-2.8-1c-1.8,0-3.7,0.4-5.6,1.1l-0.9-2.4c0.7-0.3,1.7-0.6,2.8-0.9c1.1-0.3,2.5-0.5,4.1-0.5c1.5,0,2.7,0.2,3.5,0.6
			c0.9,0.4,1.5,1,2,1.7c0.4,0.7,0.7,1.5,0.9,2.5c0.1,1,0.2,2,0.2,3.1v8.2l1.6,2.4l-2.5,1.9L534,94.7z M533.2,87h-3
			c-1.7,0-3,0.3-3.7,0.8c-0.7,0.5-1.1,1.5-1.1,2.8c0,1.2,0.3,2.2,0.8,2.8c0.5,0.6,1.3,0.9,2.4,0.9c1.1,0,2.1-0.2,2.9-0.6
			s1.4-0.8,1.8-1.3V87z"/>
		<path class="st0" d="M551.1,100.8c0.7,0.3,1.4,0.6,2.3,0.9c0.8,0.3,1.9,0.4,3.1,0.4c2,0,3.4-0.5,4.1-1.4c0.8-0.9,1.1-2.4,1.1-4.4
			v-0.8c-0.6,0.3-1.3,0.6-2,0.7c-0.7,0.2-1.5,0.3-2.2,0.3c-2.8,0-4.9-0.8-6.3-2.4c-1.4-1.6-2.1-4.1-2.1-7.5c0-1.4,0.1-2.7,0.4-3.9
			c0.3-1.2,0.7-2.3,1.3-3.2c0.6-0.9,1.5-1.7,2.5-2.2c1-0.6,2.3-0.8,3.8-0.8c0.7,0,1.3,0.1,1.8,0.2s1,0.3,1.5,0.6
			c0.4,0.2,0.8,0.4,1.1,0.7c0.3,0.2,0.6,0.5,0.8,0.7l1.5-2.2l2.8,1.5l-1.4,3.2v15.9c0,2.4-0.7,4.3-2.1,5.7c-1.4,1.4-3.6,2-6.4,2
			c-1.3,0-2.5-0.1-3.6-0.3c-1.2-0.2-2.2-0.6-3.1-1.1L551.1,100.8z M561.8,81.1c-0.4-0.4-0.9-0.9-1.6-1.3c-0.7-0.4-1.6-0.7-2.7-0.7
			c-1.5,0-2.7,0.6-3.5,1.8c-0.8,1.2-1.2,3.2-1.2,5.8c0,2.4,0.4,4.2,1.2,5.4c0.8,1.2,2.1,1.9,3.9,1.9c0.8,0,1.5-0.1,2.1-0.2
			c0.6-0.2,1.2-0.4,1.8-0.9V81.1z"/>
		<path class="st0" d="M586,95.5c-0.6,0.4-1.5,0.7-2.6,1s-2.4,0.5-3.6,0.5c-1.7,0-3.2-0.2-4.4-0.7c-1.2-0.5-2.1-1.2-2.8-2.1
			s-1.2-2-1.5-3.2c-0.3-1.3-0.4-2.6-0.4-4.2c0-1.4,0.2-2.7,0.5-4c0.3-1.2,0.8-2.3,1.5-3.2c0.7-0.9,1.6-1.7,2.6-2.2
			c1.1-0.5,2.3-0.8,3.8-0.8c1.4,0,2.6,0.3,3.6,0.9c1,0.6,1.8,1.3,2.4,2.3s1,2,1.3,3.2c0.3,1.2,0.4,2.3,0.4,3.5l-1.3,1.3h-11.3
			c0.1,2.2,0.6,3.9,1.5,5c0.9,1.1,2.2,1.6,4.1,1.6c1,0,1.9-0.1,2.7-0.3c0.9-0.2,1.7-0.5,2.4-0.8L586,95.5z M583.1,85.2
			c0-2-0.4-3.6-1.1-4.6c-0.7-1-1.8-1.6-3.3-1.6c-1.6,0-2.7,0.5-3.3,1.6c-0.7,1.1-1.1,2.6-1.2,4.5H583.1z"/>
		<path class="st0" d="M591.8,81.2l-1.5-3.2l2.8-1.5l1.6,2.5c1.1-0.9,2.2-1.5,3.2-1.9c1-0.4,2.1-0.6,3.2-0.6c1.3,0,2.3,0.2,3.2,0.6
			c0.8,0.4,1.5,0.9,2,1.6c0.5,0.7,0.9,1.5,1.1,2.4c0.2,0.9,0.3,1.8,0.3,2.8v12.3h-3.5V84.1c0-1.6-0.3-2.7-1-3.5
			c-0.6-0.7-1.6-1.1-2.9-1.1c-1,0-1.9,0.2-2.8,0.5s-1.6,0.8-2.2,1.3v14.9h-3.5V81.2z"/>
		<path class="st0" d="M628.1,95.5c-0.6,0.4-1.5,0.7-2.6,1s-2.4,0.5-3.6,0.5c-1.7,0-3.2-0.2-4.4-0.7c-1.2-0.5-2.1-1.2-2.8-2.1
			s-1.2-2-1.5-3.2c-0.3-1.3-0.4-2.6-0.4-4.2c0-1.4,0.2-2.7,0.5-4c0.3-1.2,0.8-2.3,1.5-3.2c0.7-0.9,1.6-1.7,2.6-2.2
			c1.1-0.5,2.3-0.8,3.8-0.8c1.4,0,2.6,0.3,3.6,0.9c1,0.6,1.8,1.3,2.4,2.3s1,2,1.3,3.2c0.3,1.2,0.4,2.3,0.4,3.5l-1.3,1.3h-11.3
			c0.1,2.2,0.6,3.9,1.5,5c0.9,1.1,2.2,1.6,4.1,1.6c1,0,1.9-0.1,2.7-0.3c0.9-0.2,1.7-0.5,2.4-0.8L628.1,95.5z M625.3,85.2
			c0-2-0.4-3.6-1.1-4.6c-0.7-1-1.8-1.6-3.3-1.6c-1.6,0-2.7,0.5-3.3,1.6c-0.7,1.1-1.1,2.6-1.2,4.5H625.3z"/>
		<path class="st0" d="M634.2,79.7h-2.4v-2.5h4.9l0.6,2.5c0.3-0.4,0.7-0.7,1-1c0.4-0.3,0.7-0.6,1.2-0.9c0.4-0.2,0.9-0.4,1.5-0.6
			c0.5-0.1,1.2-0.2,1.9-0.2c0.9,0,1.7,0.1,2.4,0.3l-1,3.2c-0.3-0.1-0.6-0.2-1-0.3c-0.4-0.1-0.7-0.1-1.1-0.1c-1.8,0-3.3,0.6-4.4,1.9
			v14.2h-3.5V79.7z"/>
		<path class="st0" d="M658.7,94.7c-0.7,0.6-1.6,1.1-2.5,1.6c-0.9,0.5-2.1,0.7-3.5,0.7c-1.9,0-3.4-0.5-4.5-1.5
			c-1.1-1-1.7-2.6-1.7-4.7c0-1.1,0.2-2.1,0.6-2.8c0.4-0.8,0.9-1.4,1.7-1.9c0.7-0.5,1.6-0.9,2.6-1.1c1-0.2,2.1-0.3,3.3-0.3h3.3v-1
			c0-1.6-0.2-2.7-0.7-3.4c-0.5-0.7-1.4-1-2.8-1c-1.8,0-3.7,0.4-5.6,1.1l-0.9-2.4c0.7-0.3,1.7-0.6,2.8-0.9c1.1-0.3,2.5-0.5,4.1-0.5
			c1.5,0,2.7,0.2,3.5,0.6c0.9,0.4,1.5,1,2,1.7c0.4,0.7,0.7,1.5,0.9,2.5c0.1,1,0.2,2,0.2,3.1v8.2l1.6,2.4l-2.5,1.9L658.7,94.7z
			 M657.9,87h-3c-1.7,0-3,0.3-3.7,0.8c-0.7,0.5-1.1,1.5-1.1,2.8c0,1.2,0.3,2.2,0.8,2.8c0.5,0.6,1.3,0.9,2.4,0.9
			c1.1,0,2.1-0.2,2.9-0.6s1.4-0.8,1.8-1.3V87z"/>
		<path class="st0" d="M681.6,95.4c-0.7,0.4-1.5,0.7-2.6,1c-1,0.3-2.2,0.5-3.6,0.5c-1.7,0-3.2-0.2-4.3-0.7c-1.1-0.5-2.1-1.2-2.7-2.1
			c-0.7-0.9-1.2-1.9-1.5-3.2c-0.3-1.2-0.4-2.6-0.4-4.1c0-1.5,0.2-2.8,0.5-4.1c0.4-1.3,0.9-2.4,1.7-3.3c0.7-0.9,1.7-1.7,2.9-2.2
			c1.2-0.5,2.5-0.8,4.2-0.8c1.2,0,2.2,0.2,3.2,0.5c1,0.3,1.8,0.7,2.5,1.1l-1.1,2.4c-0.7-0.4-1.4-0.7-2.2-0.9
			c-0.8-0.2-1.6-0.4-2.6-0.4c-1.9,0-3.2,0.6-4.1,1.9s-1.3,3.2-1.3,5.8c0,1.1,0.1,2.2,0.3,3.1c0.2,0.9,0.5,1.7,0.9,2.3
			c0.4,0.6,1,1.1,1.7,1.5c0.7,0.3,1.6,0.5,2.6,0.5c0.8,0,1.6-0.1,2.3-0.2c0.7-0.2,1.5-0.5,2.5-0.9L681.6,95.4z"/>
		<path class="st0" d="M685.6,79.7h-2.4v-2.5h6v19h-3.5V79.7z M687,73.7c-0.7,0-1.3-0.2-1.7-0.7s-0.6-1.1-0.6-1.8
			c0-0.7,0.2-1.3,0.6-1.8s1-0.7,1.7-0.7c0.8,0,1.3,0.2,1.8,0.7c0.4,0.5,0.6,1.1,0.6,1.8c0,0.7-0.2,1.3-0.6,1.8
			C688.3,73.4,687.7,73.7,687,73.7z"/>
		<path class="st0" d="M702.8,96.9c-1.6,0-3-0.3-4.1-0.8c-1.1-0.5-2-1.2-2.6-2.1c-0.7-0.9-1.1-2-1.4-3.2s-0.4-2.6-0.4-4.1
			c0-1.5,0.2-2.8,0.5-4.1c0.4-1.3,0.9-2.3,1.6-3.2c0.7-0.9,1.6-1.6,2.7-2.1c1.1-0.5,2.4-0.8,3.8-0.8c1.5,0,2.8,0.3,3.9,0.8
			c1.1,0.5,2,1.2,2.7,2.1s1.2,2,1.5,3.2c0.3,1.3,0.5,2.6,0.5,4.1c0,1.5-0.2,2.9-0.5,4.1c-0.3,1.2-0.8,2.3-1.5,3.2
			c-0.7,0.9-1.6,1.6-2.7,2.1C705.7,96.7,704.4,96.9,702.8,96.9z M703,94.4c1.8,0,3.1-0.7,3.9-2c0.7-1.3,1.1-3.2,1.1-5.7
			c0-2.4-0.4-4.3-1.1-5.6c-0.7-1.3-2-2-3.9-2c-1.8,0-3.1,0.6-3.9,1.9c-0.7,1.3-1.1,3.2-1.1,5.7c0,1.2,0.1,2.3,0.3,3.2
			c0.2,1,0.5,1.8,0.9,2.4c0.4,0.7,0.9,1.2,1.6,1.5C701.3,94.2,702,94.4,703,94.4z M705.1,66l2.8,1.9l-5.4,6.2l-1.7-1.3L705.1,66z"/>
		<path class="st0" d="M716.9,81.2l-1.5-3.2l2.8-1.5l1.6,2.5c1.1-0.9,2.2-1.5,3.2-1.9c1-0.4,2.1-0.6,3.2-0.6c1.3,0,2.3,0.2,3.2,0.6
			c0.8,0.4,1.5,0.9,2,1.6c0.5,0.7,0.9,1.5,1.1,2.4c0.2,0.9,0.3,1.8,0.3,2.8v12.3h-3.5V84.1c0-1.6-0.3-2.7-1-3.5
			c-0.6-0.7-1.6-1.1-2.9-1.1c-1,0-1.9,0.2-2.8,0.5s-1.6,0.8-2.2,1.3v14.9h-3.5V81.2z"/>
		<path class="st0" d="M740.5,96.9c-0.8,0-1.4-0.2-1.8-0.7c-0.4-0.5-0.6-1.1-0.6-1.9c0-0.8,0.2-1.4,0.6-1.9c0.4-0.5,1-0.7,1.8-0.7
			c0.8,0,1.4,0.2,1.8,0.7c0.4,0.5,0.6,1.1,0.6,1.9c0,0.8-0.2,1.4-0.6,1.9S741.3,96.9,740.5,96.9z"/>
		<path class="st0" d="M755.7,68.8h16.7v2.9h-13v8.8h9.8v2.9h-9.8v10h13.5v2.9h-17.2V68.8z"/>
		<path class="st0" d="M777.5,70.8h-2.4v-2.5h5.9v27.9h-3.5V70.8z"/>
		<path class="st0" d="M794.6,81.2l-1.5-3.2l2.8-1.5l1.6,2.5c1.1-0.9,2.2-1.5,3.2-1.9c1-0.4,2.1-0.6,3.2-0.6c1.3,0,2.3,0.2,3.2,0.6
			s1.5,0.9,2,1.6c0.5,0.7,0.9,1.5,1.1,2.4c0.2,0.9,0.3,1.8,0.3,2.8v12.3H807V84.1c0-1.6-0.3-2.7-1-3.5c-0.6-0.7-1.6-1.1-2.9-1.1
			c-1,0-1.9,0.2-2.8,0.5s-1.6,0.8-2.2,1.3v14.9h-3.5V81.2z"/>
		<path class="st0" d="M816.1,77.2h3.5v12.4c0,1.5,0.3,2.6,0.9,3.5c0.6,0.8,1.5,1.2,2.9,1.2c1.1,0,2-0.2,2.7-0.5
			c0.7-0.4,1.3-0.8,2-1.3V77.2h3.5v15.4l1.6,2.3l-2.5,1.9l-1.7-2.1c-1,0.8-2,1.3-2.9,1.7c-1,0.3-2,0.5-3.1,0.5
			c-1.4,0-2.5-0.2-3.4-0.6s-1.5-0.9-2-1.6c-0.5-0.7-0.8-1.5-1-2.4c-0.2-0.9-0.3-1.8-0.3-2.8V77.2z"/>
		<path class="st0" d="M852.1,95.5c-0.6,0.4-1.5,0.7-2.6,1c-1.2,0.3-2.4,0.5-3.6,0.5c-1.7,0-3.2-0.2-4.4-0.7
			c-1.2-0.5-2.1-1.2-2.8-2.1c-0.7-0.9-1.2-2-1.5-3.2c-0.3-1.3-0.4-2.6-0.4-4.2c0-1.4,0.2-2.7,0.5-4c0.3-1.2,0.8-2.3,1.5-3.2
			c0.7-0.9,1.6-1.7,2.6-2.2c1.1-0.5,2.3-0.8,3.8-0.8c1.4,0,2.6,0.3,3.6,0.9c1,0.6,1.8,1.3,2.4,2.3c0.6,0.9,1,2,1.3,3.2
			c0.3,1.2,0.4,2.3,0.4,3.5l-1.3,1.3h-11.3c0.1,2.2,0.6,3.9,1.5,5c0.9,1.1,2.2,1.6,4.1,1.6c1,0,1.9-0.1,2.7-0.3
			c0.9-0.2,1.7-0.5,2.4-0.8L852.1,95.5z M849.3,85.2c0-2-0.4-3.6-1.1-4.6c-0.7-1-1.8-1.6-3.3-1.6c-1.6,0-2.7,0.5-3.3,1.6
			c-0.7,1.1-1.1,2.6-1.2,4.5H849.3z"/>
		<path class="st0" d="M855.5,77.4l3.6-0.6l5,16.4c0.1,0.5,0.2,0.8,0.4,1c0.1,0.2,0.3,0.3,0.6,0.3c0.3,0,0.5-0.1,0.6-0.3
			c0.1-0.2,0.2-0.5,0.4-1l4.9-16.4l3,0.6L869,93.1c-0.4,1.2-0.9,2.2-1.5,2.9c-0.6,0.7-1.5,1-2.5,1c-0.7,0-1.3-0.1-1.8-0.2
			c-0.5-0.2-0.9-0.4-1.3-0.7c-0.3-0.3-0.6-0.7-0.9-1.2c-0.2-0.5-0.4-1.1-0.6-1.7L855.5,77.4z"/>
		<path class="st0" d="M884.7,96.9c-1.6,0-3-0.3-4.1-0.8c-1.1-0.5-2-1.2-2.6-2.1s-1.1-2-1.4-3.2c-0.3-1.2-0.4-2.6-0.4-4.1
			c0-1.5,0.2-2.8,0.5-4.1c0.4-1.3,0.9-2.3,1.6-3.2s1.6-1.6,2.7-2.1c1.1-0.5,2.4-0.8,3.8-0.8c1.5,0,2.8,0.3,3.9,0.8
			c1.1,0.5,2,1.2,2.7,2.1c0.7,0.9,1.2,2,1.5,3.2s0.5,2.6,0.5,4.1c0,1.5-0.2,2.9-0.5,4.1c-0.3,1.2-0.8,2.3-1.5,3.2
			c-0.7,0.9-1.6,1.6-2.7,2.1C887.6,96.7,886.3,96.9,884.7,96.9z M884.8,94.4c1.8,0,3.1-0.7,3.9-2c0.7-1.3,1.1-3.2,1.1-5.7
			c0-2.4-0.4-4.3-1.1-5.6c-0.7-1.3-2-2-3.9-2c-1.8,0-3.1,0.6-3.9,1.9c-0.7,1.3-1.1,3.2-1.1,5.7c0,1.2,0.1,2.3,0.3,3.2
			c0.2,1,0.5,1.8,0.9,2.4c0.4,0.7,0.9,1.2,1.6,1.5C883.1,94.2,883.9,94.4,884.8,94.4z"/>
		<path class="st0" d="M920.1,95.4c-0.7,0.4-1.5,0.7-2.6,1c-1,0.3-2.2,0.5-3.6,0.5c-1.7,0-3.2-0.2-4.3-0.7c-1.1-0.5-2.1-1.2-2.7-2.1
			c-0.7-0.9-1.2-1.9-1.5-3.2c-0.3-1.2-0.4-2.6-0.4-4.1c0-1.5,0.2-2.8,0.5-4.1c0.4-1.3,0.9-2.4,1.7-3.3c0.7-0.9,1.7-1.7,2.8-2.2
			c1.2-0.5,2.5-0.8,4.2-0.8c1.2,0,2.2,0.2,3.2,0.5c1,0.3,1.8,0.7,2.5,1.1l-1.1,2.4c-0.7-0.4-1.4-0.7-2.2-0.9
			c-0.8-0.2-1.6-0.4-2.6-0.4c-1.9,0-3.2,0.6-4.1,1.9s-1.3,3.2-1.3,5.8c0,1.1,0.1,2.2,0.3,3.1c0.2,0.9,0.5,1.7,0.9,2.3
			c0.4,0.6,1,1.1,1.7,1.5c0.7,0.3,1.6,0.5,2.6,0.5c0.8,0,1.6-0.1,2.3-0.2c0.7-0.2,1.5-0.5,2.5-0.9L920.1,95.4z"/>
		<path class="st0" d="M931.1,96.9c-1.6,0-3-0.3-4.1-0.8c-1.1-0.5-2-1.2-2.6-2.1s-1.1-2-1.4-3.2c-0.3-1.2-0.4-2.6-0.4-4.1
			c0-1.5,0.2-2.8,0.5-4.1c0.4-1.3,0.9-2.3,1.6-3.2s1.6-1.6,2.7-2.1c1.1-0.5,2.4-0.8,3.8-0.8c1.5,0,2.8,0.3,3.9,0.8
			c1.1,0.5,2,1.2,2.7,2.1c0.7,0.9,1.2,2,1.5,3.2s0.5,2.6,0.5,4.1c0,1.5-0.2,2.9-0.5,4.1c-0.3,1.2-0.8,2.3-1.5,3.2
			c-0.7,0.9-1.6,1.6-2.7,2.1C934,96.7,932.7,96.9,931.1,96.9z M931.2,94.4c1.8,0,3.1-0.7,3.9-2c0.7-1.3,1.1-3.2,1.1-5.7
			c0-2.4-0.4-4.3-1.1-5.6c-0.7-1.3-2-2-3.9-2c-1.8,0-3.1,0.6-3.9,1.9c-0.7,1.3-1.1,3.2-1.1,5.7c0,1.2,0.1,2.3,0.3,3.2
			c0.2,1,0.5,1.8,0.9,2.4c0.4,0.7,0.9,1.2,1.6,1.5C929.6,94.2,930.3,94.4,931.2,94.4z"/>
		<path class="st0" d="M945.2,81.2l-1.5-3.2l2.8-1.5l1.6,2.5c1.1-0.9,2.2-1.5,3.2-1.9c1-0.4,2.1-0.6,3.2-0.6c1.3,0,2.3,0.2,3.2,0.6
			s1.5,0.9,2,1.6c0.5,0.7,0.9,1.5,1.1,2.4c0.2,0.9,0.3,1.8,0.3,2.8v12.3h-3.5V84.1c0-1.6-0.3-2.7-1-3.5c-0.6-0.7-1.6-1.1-2.9-1.1
			c-1,0-1.9,0.2-2.8,0.5s-1.6,0.8-2.2,1.3v14.9h-3.5V81.2z"/>
		<path class="st0" d="M960.9,101.4c0.5,0.2,1,0.3,1.5,0.5s1.1,0.2,1.8,0.2c0.7,0,1.3-0.2,1.7-0.5c0.4-0.3,0.7-0.7,0.9-1.2
			c0.2-0.5,0.3-1,0.4-1.7c0-0.6,0.1-1.2,0.1-1.7V77.2h3.5v20.5c0,0.9-0.1,1.8-0.3,2.6c-0.2,0.8-0.5,1.6-1,2.3s-1.1,1.2-1.9,1.6
			c-0.8,0.4-1.8,0.6-3.1,0.6c-0.6,0-1.4-0.1-2.2-0.3c-0.9-0.2-1.6-0.4-2.2-0.7L960.9,101.4z M969,73.6c-0.8,0-1.3-0.2-1.7-0.7
			c-0.4-0.5-0.6-1.1-0.6-1.7c0-0.7,0.2-1.3,0.6-1.8c0.4-0.5,1-0.7,1.7-0.7c0.8,0,1.4,0.2,1.8,0.7c0.4,0.5,0.6,1.1,0.6,1.8
			c0,0.7-0.2,1.3-0.6,1.7C970.4,73.3,969.8,73.6,969,73.6z"/>
		<path class="st0" d="M976.5,77.2h3.5v12.4c0,1.5,0.3,2.6,0.9,3.5c0.6,0.8,1.5,1.2,2.9,1.2c1.1,0,2-0.2,2.7-0.5
			c0.7-0.4,1.3-0.8,2-1.3V77.2h3.5v15.4l1.6,2.3l-2.5,1.9l-1.7-2.1c-1,0.8-2,1.3-2.9,1.7c-1,0.3-2,0.5-3.1,0.5
			c-1.4,0-2.5-0.2-3.4-0.6s-1.5-0.9-2-1.6c-0.5-0.7-0.8-1.5-1-2.4c-0.2-0.9-0.3-1.8-0.3-2.8V77.2z"/>
		<path class="st0" d="M998.2,81.2l-1.5-3.2l2.8-1.5l1.6,2.5c1.1-0.9,2.2-1.5,3.2-1.9c1-0.4,2.1-0.6,3.2-0.6c1.3,0,2.3,0.2,3.2,0.6
			s1.5,0.9,2,1.6c0.5,0.7,0.9,1.5,1.1,2.4c0.2,0.9,0.3,1.8,0.3,2.8v12.3h-3.5V84.1c0-1.6-0.3-2.7-1-3.5c-0.6-0.7-1.6-1.1-2.9-1.1
			c-1,0-1.9,0.2-2.8,0.5s-1.6,0.8-2.2,1.3v14.9h-3.5V81.2z"/>
		<path class="st0" d="M1021.2,79.8h-3.5v-2.6h3.6v-5.7h3.4v5.7h5.6v2.6h-5.6v11c0,0.7,0.1,1.3,0.2,1.8c0.1,0.4,0.3,0.8,0.6,1
			c0.2,0.2,0.5,0.4,0.9,0.5c0.3,0.1,0.7,0.1,1.1,0.1s0.9-0.1,1.4-0.2c0.5-0.1,1-0.3,1.5-0.5l0.8,2.3c-0.4,0.2-1,0.4-1.8,0.6
			c-0.8,0.2-1.6,0.3-2.4,0.3c-0.9,0-1.7-0.1-2.4-0.3s-1.3-0.5-1.8-0.9c-0.5-0.4-0.9-1-1.1-1.7c-0.3-0.7-0.4-1.6-0.4-2.7V79.8z"/>
		<path class="st0" d="M1041.6,96.9c-1.6,0-3-0.3-4.1-0.8c-1.1-0.5-2-1.2-2.6-2.1s-1.1-2-1.4-3.2c-0.3-1.2-0.4-2.6-0.4-4.1
			c0-1.5,0.2-2.8,0.5-4.1c0.4-1.3,0.9-2.3,1.6-3.2s1.6-1.6,2.7-2.1c1.1-0.5,2.4-0.8,3.8-0.8c1.5,0,2.8,0.3,3.9,0.8
			c1.1,0.5,2,1.2,2.7,2.1c0.7,0.9,1.2,2,1.5,3.2s0.5,2.6,0.5,4.1c0,1.5-0.2,2.9-0.5,4.1c-0.3,1.2-0.8,2.3-1.5,3.2
			c-0.7,0.9-1.6,1.6-2.7,2.1C1044.5,96.7,1043.2,96.9,1041.6,96.9z M1041.7,94.4c1.8,0,3.1-0.7,3.9-2c0.7-1.3,1.1-3.2,1.1-5.7
			c0-2.4-0.4-4.3-1.1-5.6c-0.7-1.3-2-2-3.9-2c-1.8,0-3.1,0.6-3.9,1.9c-0.7,1.3-1.1,3.2-1.1,5.7c0,1.2,0.1,2.3,0.3,3.2
			c0.2,1,0.5,1.8,0.9,2.4c0.4,0.7,0.9,1.2,1.6,1.5C1040,94.2,1040.8,94.4,1041.7,94.4z"/>
		<path class="st0" d="M1070.7,102.3c-1.1-0.9-2.2-2-3.2-3.2c-1-1.3-1.9-2.6-2.7-4.1c-0.8-1.5-1.4-3.1-1.8-4.8s-0.7-3.4-0.7-5.2
			c0-1.8,0.2-3.5,0.7-5.2c0.4-1.7,1.1-3.3,1.8-4.8c0.8-1.5,1.7-2.9,2.7-4.1c1-1.3,2.1-2.3,3.2-3.2l1.9,1.8c-1.2,1.2-2.3,2.4-3.1,3.7
			c-0.9,1.3-1.6,2.7-2.1,4c-0.5,1.4-0.9,2.7-1.2,4s-0.4,2.6-0.4,3.7c0,1.2,0.1,2.4,0.4,3.7s0.6,2.7,1.2,4c0.5,1.4,1.2,2.7,2.1,4
			c0.9,1.3,1.9,2.6,3.1,3.7L1070.7,102.3z"/>
		<path class="st0" d="M1076.4,81.1l-1.5-3.2l2.8-1.5l1.6,2.5c1-0.9,2-1.6,3-1.9c1-0.3,1.9-0.5,2.7-0.5c1.4,0,2.4,0.2,3.1,0.6
			c0.7,0.4,1.3,1,1.8,1.8c1.1-1,2.2-1.6,3.3-2c1.1-0.3,2-0.5,2.7-0.5c1.3,0,2.3,0.2,3.1,0.6s1.4,0.9,1.8,1.6
			c0.4,0.7,0.7,1.5,0.8,2.4c0.1,0.9,0.2,1.8,0.2,2.8v12.3h-3.5V83.9c0-1.5-0.2-2.6-0.7-3.3c-0.4-0.7-1.3-1-2.6-1
			c-0.7,0-1.5,0.1-2.3,0.4c-0.8,0.3-1.5,0.7-2.3,1.3c0.1,0.4,0.1,0.8,0.1,1.3c0,0.5,0.1,0.9,0.1,1.3v12.3h-3.5V83.8
			c0-1.4-0.2-2.5-0.7-3.2c-0.4-0.7-1.3-1-2.6-1c-0.7,0-1.4,0.1-2.2,0.4c-0.7,0.3-1.4,0.7-2.1,1.3v15h-3.5V81.1z"/>
		<path class="st0" d="M1115.8,96.9c-1.6,0-3-0.3-4.1-0.8c-1.1-0.5-2-1.2-2.6-2.1s-1.1-2-1.4-3.2c-0.3-1.2-0.4-2.6-0.4-4.1
			c0-1.5,0.2-2.8,0.5-4.1c0.4-1.3,0.9-2.3,1.6-3.2s1.6-1.6,2.7-2.1c1.1-0.5,2.4-0.8,3.8-0.8c1.5,0,2.8,0.3,3.9,0.8
			c1.1,0.5,2,1.2,2.7,2.1c0.7,0.9,1.2,2,1.5,3.2s0.5,2.6,0.5,4.1c0,1.5-0.2,2.9-0.5,4.1c-0.3,1.2-0.8,2.3-1.5,3.2
			c-0.7,0.9-1.6,1.6-2.7,2.1C1118.8,96.7,1117.4,96.9,1115.8,96.9z M1116,94.4c1.8,0,3.1-0.7,3.9-2c0.7-1.3,1.1-3.2,1.1-5.7
			c0-2.4-0.4-4.3-1.1-5.6c-0.7-1.3-2-2-3.9-2c-1.8,0-3.1,0.6-3.9,1.9c-0.7,1.3-1.1,3.2-1.1,5.7c0,1.2,0.1,2.3,0.3,3.2
			c0.2,1,0.5,1.8,0.9,2.4c0.4,0.7,0.9,1.2,1.6,1.5C1114.3,94.2,1115.1,94.4,1116,94.4z"/>
		<path class="st0" d="M1130.9,79.8h-3.5v-2.6h3.6v-5.7h3.4v5.7h5.6v2.6h-5.6v11c0,0.7,0.1,1.3,0.2,1.8c0.1,0.4,0.3,0.8,0.6,1
			c0.2,0.2,0.5,0.4,0.9,0.5c0.3,0.1,0.7,0.1,1.1,0.1s0.9-0.1,1.4-0.2c0.5-0.1,1-0.3,1.5-0.5l0.8,2.3c-0.4,0.2-1,0.4-1.8,0.6
			c-0.8,0.2-1.6,0.3-2.4,0.3c-0.9,0-1.7-0.1-2.4-0.3s-1.3-0.5-1.8-0.9c-0.5-0.4-0.9-1-1.1-1.7c-0.3-0.7-0.4-1.6-0.4-2.7V79.8z"/>
		<path class="st0" d="M1151.2,96.9c-1.6,0-3-0.3-4.1-0.8c-1.1-0.5-2-1.2-2.6-2.1s-1.1-2-1.4-3.2c-0.3-1.2-0.4-2.6-0.4-4.1
			c0-1.5,0.2-2.8,0.5-4.1c0.4-1.3,0.9-2.3,1.6-3.2s1.6-1.6,2.7-2.1c1.1-0.5,2.4-0.8,3.8-0.8c1.5,0,2.8,0.3,3.9,0.8
			c1.1,0.5,2,1.2,2.7,2.1c0.7,0.9,1.2,2,1.5,3.2s0.5,2.6,0.5,4.1c0,1.5-0.2,2.9-0.5,4.1c-0.3,1.2-0.8,2.3-1.5,3.2
			c-0.7,0.9-1.6,1.6-2.7,2.1C1154.1,96.7,1152.8,96.9,1151.2,96.9z M1151.3,94.4c1.8,0,3.1-0.7,3.9-2c0.7-1.3,1.1-3.2,1.1-5.7
			c0-2.4-0.4-4.3-1.1-5.6c-0.7-1.3-2-2-3.9-2c-1.8,0-3.1,0.6-3.9,1.9c-0.7,1.3-1.1,3.2-1.1,5.7c0,1.2,0.1,2.3,0.3,3.2
			c0.2,1,0.5,1.8,0.9,2.4c0.4,0.7,0.9,1.2,1.6,1.5C1149.7,94.2,1150.4,94.4,1151.3,94.4z"/>
		<path class="st0" d="M1165.5,79.7h-2.4v-2.5h4.9l0.6,2.5c0.3-0.4,0.7-0.7,1-1s0.7-0.6,1.2-0.9c0.4-0.2,0.9-0.4,1.5-0.6
			c0.5-0.1,1.2-0.2,1.9-0.2c0.9,0,1.7,0.1,2.4,0.3l-1,3.2c-0.3-0.1-0.6-0.2-1-0.3s-0.7-0.1-1.1-0.1c-1.8,0-3.3,0.6-4.4,1.9v14.2
			h-3.5V79.7z"/>
		<path class="st0" d="M1178.4,82.6h11.5V86h-11.5V82.6z"/>
		<path class="st0" d="M1196.9,79.8h-3.5v-2.6h3.6v-5.7h3.4v5.7h5.6v2.6h-5.6v11c0,0.7,0.1,1.3,0.2,1.8c0.1,0.4,0.3,0.8,0.6,1
			c0.2,0.2,0.5,0.4,0.9,0.5c0.3,0.1,0.7,0.1,1.1,0.1s0.9-0.1,1.4-0.2c0.5-0.1,1-0.3,1.5-0.5l0.8,2.3c-0.4,0.2-1,0.4-1.8,0.6
			c-0.8,0.2-1.6,0.3-2.4,0.3c-0.9,0-1.7-0.1-2.4-0.3s-1.3-0.5-1.8-0.9c-0.5-0.4-0.9-1-1.1-1.7c-0.3-0.7-0.4-1.6-0.4-2.7V79.8z"/>
		<path class="st0" d="M1210.7,79.7h-2.4v-2.5h4.9l0.6,2.5c0.3-0.4,0.7-0.7,1-1s0.7-0.6,1.2-0.9c0.4-0.2,0.9-0.4,1.5-0.6
			c0.5-0.1,1.2-0.2,1.9-0.2c0.9,0,1.7,0.1,2.4,0.3l-1,3.2c-0.3-0.1-0.6-0.2-1-0.3s-0.7-0.1-1.1-0.1c-1.8,0-3.3,0.6-4.4,1.9v14.2
			h-3.5V79.7z"/>
		<path class="st0" d="M1235.2,94.7c-0.7,0.6-1.6,1.1-2.5,1.6s-2.1,0.7-3.5,0.7c-1.9,0-3.4-0.5-4.5-1.5c-1.1-1-1.7-2.6-1.7-4.7
			c0-1.1,0.2-2.1,0.6-2.8s0.9-1.4,1.7-1.9s1.6-0.9,2.6-1.1c1-0.2,2.1-0.3,3.3-0.3h3.3v-1c0-1.6-0.2-2.7-0.7-3.4
			c-0.5-0.7-1.4-1-2.8-1c-1.8,0-3.7,0.4-5.6,1.1l-0.9-2.4c0.7-0.3,1.7-0.6,2.8-0.9c1.1-0.3,2.5-0.5,4.1-0.5c1.5,0,2.7,0.2,3.5,0.6
			c0.9,0.4,1.5,1,2,1.7c0.4,0.7,0.7,1.5,0.9,2.5s0.2,2,0.2,3.1v8.2l1.6,2.4l-2.5,1.9L1235.2,94.7z M1234.4,87h-3
			c-1.7,0-3,0.3-3.7,0.8c-0.7,0.5-1.1,1.5-1.1,2.8c0,1.2,0.3,2.2,0.8,2.8c0.5,0.6,1.3,0.9,2.4,0.9c1.1,0,2.1-0.2,2.9-0.6
			c0.8-0.4,1.4-0.8,1.8-1.3V87z"/>
		<path class="st0" d="M1244.1,81.2l-1.5-3.2l2.8-1.5l1.6,2.5c1.1-0.9,2.2-1.5,3.2-1.9c1-0.4,2.1-0.6,3.2-0.6c1.3,0,2.3,0.2,3.2,0.6
			s1.5,0.9,2,1.6c0.5,0.7,0.9,1.5,1.1,2.4c0.2,0.9,0.3,1.8,0.3,2.8v12.3h-3.5V84.1c0-1.6-0.3-2.7-1-3.5c-0.6-0.7-1.6-1.1-2.9-1.1
			c-1,0-1.9,0.2-2.8,0.5s-1.6,0.8-2.2,1.3v14.9h-3.5V81.2z"/>
		<path class="st0" d="M1265.2,92.7c0.6,0.3,1.4,0.7,2.4,1.1c1,0.4,2.1,0.6,3.4,0.6c1.3,0,2.4-0.2,3.2-0.7s1.2-1.2,1.2-2.2
			c0-0.6-0.1-1.1-0.4-1.4c-0.3-0.4-0.6-0.7-1-0.9c-0.4-0.2-0.9-0.4-1.5-0.6c-0.6-0.2-1.2-0.3-1.8-0.5c-0.7-0.2-1.4-0.4-2.1-0.6
			c-0.7-0.3-1.3-0.6-1.9-1c-0.5-0.4-1-0.9-1.3-1.6c-0.3-0.6-0.5-1.4-0.5-2.4c0-0.8,0.1-1.6,0.4-2.3c0.3-0.7,0.7-1.3,1.3-1.8
			c0.6-0.5,1.4-0.9,2.3-1.2c0.9-0.3,2-0.5,3.2-0.5s2.4,0.1,3.4,0.4c1.1,0.3,2,0.6,2.7,1l-1.1,2.3c-1.6-0.9-3.3-1.3-5.1-1.3
			c-1.2,0-2.2,0.2-2.9,0.6c-0.7,0.4-1,1.1-1,2.1c0,0.6,0.1,1,0.3,1.4c0.2,0.4,0.5,0.7,0.9,0.9c0.4,0.2,0.8,0.4,1.4,0.6
			c0.5,0.2,1.1,0.3,1.6,0.5c0.7,0.2,1.4,0.4,2.1,0.6c0.7,0.2,1.4,0.5,2,1c0.6,0.4,1.1,1,1.5,1.6c0.4,0.7,0.6,1.5,0.6,2.6
			c0,1.9-0.6,3.4-1.8,4.4c-1.2,1.1-3.1,1.6-5.6,1.6c-1.7,0-3.1-0.2-4.4-0.6c-1.2-0.4-2.1-0.8-2.7-1.2L1265.2,92.7z"/>
		<path class="st0" d="M1283.4,81.1l-1.5-3.2l2.8-1.5l1.6,2.5c1-0.9,2-1.6,3-1.9c1-0.3,1.9-0.5,2.7-0.5c1.4,0,2.4,0.2,3.1,0.6
			c0.7,0.4,1.3,1,1.8,1.8c1.1-1,2.2-1.6,3.3-2c1.1-0.3,2-0.5,2.7-0.5c1.3,0,2.3,0.2,3.1,0.6s1.4,0.9,1.8,1.6
			c0.4,0.7,0.7,1.5,0.8,2.4c0.1,0.9,0.2,1.8,0.2,2.8v12.3h-3.5V83.9c0-1.5-0.2-2.6-0.7-3.3c-0.4-0.7-1.3-1-2.6-1
			c-0.7,0-1.5,0.1-2.3,0.4c-0.8,0.3-1.5,0.7-2.3,1.3c0.1,0.4,0.1,0.8,0.1,1.3c0,0.5,0.1,0.9,0.1,1.3v12.3h-3.5V83.8
			c0-1.4-0.2-2.5-0.7-3.2c-0.4-0.7-1.3-1-2.6-1c-0.7,0-1.4,0.1-2.2,0.4c-0.7,0.3-1.4,0.7-2.1,1.3v15h-3.5V81.1z"/>
		<path class="st0" d="M1315.3,79.7h-2.4v-2.5h6v19h-3.5V79.7z M1316.7,73.7c-0.7,0-1.3-0.2-1.7-0.7s-0.6-1.1-0.6-1.8
			c0-0.7,0.2-1.3,0.6-1.8s1-0.7,1.7-0.7c0.8,0,1.3,0.2,1.8,0.7s0.6,1.1,0.6,1.8c0,0.7-0.2,1.3-0.6,1.8S1317.5,73.7,1316.7,73.7z"/>
		<path class="st0" d="M1324.2,92.7c0.6,0.3,1.4,0.7,2.4,1.1c1,0.4,2.1,0.6,3.4,0.6c1.3,0,2.4-0.2,3.2-0.7s1.2-1.2,1.2-2.2
			c0-0.6-0.1-1.1-0.4-1.4c-0.3-0.4-0.6-0.7-1-0.9c-0.4-0.2-0.9-0.4-1.5-0.6c-0.6-0.2-1.2-0.3-1.8-0.5c-0.7-0.2-1.4-0.4-2.1-0.6
			c-0.7-0.3-1.3-0.6-1.9-1c-0.5-0.4-1-0.9-1.3-1.6c-0.3-0.6-0.5-1.4-0.5-2.4c0-0.8,0.1-1.6,0.4-2.3c0.3-0.7,0.7-1.3,1.3-1.8
			c0.6-0.5,1.4-0.9,2.3-1.2c0.9-0.3,2-0.5,3.2-0.5s2.4,0.1,3.4,0.4c1.1,0.3,2,0.6,2.7,1l-1.1,2.3c-1.6-0.9-3.3-1.3-5.1-1.3
			c-1.2,0-2.2,0.2-2.9,0.6c-0.7,0.4-1,1.1-1,2.1c0,0.6,0.1,1,0.3,1.4c0.2,0.4,0.5,0.7,0.9,0.9c0.4,0.2,0.8,0.4,1.4,0.6
			c0.5,0.2,1.1,0.3,1.6,0.5c0.7,0.2,1.4,0.4,2.1,0.6c0.7,0.2,1.4,0.5,2,1c0.6,0.4,1.1,1,1.5,1.6c0.4,0.7,0.6,1.5,0.6,2.6
			c0,1.9-0.6,3.4-1.8,4.4c-1.2,1.1-3.1,1.6-5.6,1.6c-1.7,0-3.1-0.2-4.4-0.6c-1.2-0.4-2.1-0.8-2.7-1.2L1324.2,92.7z"/>
		<path class="st0" d="M1342.4,79.7h-2.4v-2.5h6v19h-3.5V79.7z M1343.7,73.7c-0.7,0-1.3-0.2-1.7-0.7s-0.6-1.1-0.6-1.8
			c0-0.7,0.2-1.3,0.6-1.8s1-0.7,1.7-0.7c0.8,0,1.3,0.2,1.8,0.7s0.6,1.1,0.6,1.8c0,0.7-0.2,1.3-0.6,1.8S1344.5,73.7,1343.7,73.7z"/>
		<path class="st0" d="M1359.6,96.9c-1.6,0-3-0.3-4.1-0.8c-1.1-0.5-2-1.2-2.6-2.1s-1.1-2-1.4-3.2c-0.3-1.2-0.4-2.6-0.4-4.1
			c0-1.5,0.2-2.8,0.5-4.1c0.4-1.3,0.9-2.3,1.6-3.2s1.6-1.6,2.7-2.1c1.1-0.5,2.4-0.8,3.8-0.8c1.5,0,2.8,0.3,3.9,0.8
			c1.1,0.5,2,1.2,2.7,2.1c0.7,0.9,1.2,2,1.5,3.2s0.5,2.6,0.5,4.1c0,1.5-0.2,2.9-0.5,4.1c-0.3,1.2-0.8,2.3-1.5,3.2
			c-0.7,0.9-1.6,1.6-2.7,2.1C1362.5,96.7,1361.2,96.9,1359.6,96.9z M1359.7,94.4c1.8,0,3.1-0.7,3.9-2c0.7-1.3,1.1-3.2,1.1-5.7
			c0-2.4-0.4-4.3-1.1-5.6c-0.7-1.3-2-2-3.9-2c-1.8,0-3.1,0.6-3.9,1.9c-0.7,1.3-1.1,3.2-1.1,5.7c0,1.2,0.1,2.3,0.3,3.2
			c0.2,1,0.5,1.8,0.9,2.4c0.4,0.7,0.9,1.2,1.6,1.5C1358,94.2,1358.8,94.4,1359.7,94.4z M1361.9,66l2.8,1.9l-5.4,6.2l-1.7-1.3
			L1361.9,66z"/>
		<path class="st0" d="M1373.7,81.2l-1.5-3.2l2.8-1.5l1.6,2.5c1.1-0.9,2.2-1.5,3.2-1.9c1-0.4,2.1-0.6,3.2-0.6c1.3,0,2.3,0.2,3.2,0.6
			s1.5,0.9,2,1.6c0.5,0.7,0.9,1.5,1.1,2.4c0.2,0.9,0.3,1.8,0.3,2.8v12.3h-3.5V84.1c0-1.6-0.3-2.7-1-3.5c-0.6-0.7-1.6-1.1-2.9-1.1
			c-1,0-1.9,0.2-2.8,0.5s-1.6,0.8-2.2,1.3v14.9h-3.5V81.2z"/>
		<path class="st0" d="M1392.8,100.6c1.2-1.2,2.3-2.4,3.1-3.7s1.6-2.7,2.1-4c0.5-1.4,0.9-2.7,1.2-4c0.3-1.3,0.4-2.6,0.4-3.7
			c0-1.2-0.1-2.4-0.4-3.7s-0.6-2.7-1.2-4s-1.2-2.7-2.1-4c-0.8-1.3-1.9-2.6-3.1-3.7l1.9-1.8c1.1,0.9,2.2,2,3.2,3.2s1.9,2.6,2.7,4.1
			c0.8,1.5,1.4,3.1,1.8,4.8c0.4,1.7,0.7,3.4,0.7,5.2c0,1.8-0.2,3.5-0.7,5.2c-0.4,1.7-1.1,3.3-1.8,4.8c-0.8,1.5-1.7,2.9-2.7,4.1
			s-2.1,2.3-3.2,3.2L1392.8,100.6z"/>
		<path class="st0" d="M1426.7,94.7c-0.7,0.6-1.6,1.1-2.5,1.6s-2.1,0.7-3.5,0.7c-1.9,0-3.4-0.5-4.5-1.5c-1.1-1-1.7-2.6-1.7-4.7
			c0-1.1,0.2-2.1,0.6-2.8s0.9-1.4,1.7-1.9s1.6-0.9,2.6-1.1c1-0.2,2.1-0.3,3.3-0.3h3.3v-1c0-1.6-0.2-2.7-0.7-3.4
			c-0.5-0.7-1.4-1-2.8-1c-1.8,0-3.7,0.4-5.6,1.1l-0.9-2.4c0.7-0.3,1.7-0.6,2.8-0.9c1.1-0.3,2.5-0.5,4.1-0.5c1.5,0,2.7,0.2,3.5,0.6
			c0.9,0.4,1.5,1,2,1.7c0.4,0.7,0.7,1.5,0.9,2.5s0.2,2,0.2,3.1v8.2l1.6,2.4l-2.5,1.9L1426.7,94.7z M1425.9,87h-3
			c-1.7,0-3,0.3-3.7,0.8c-0.7,0.5-1.1,1.5-1.1,2.8c0,1.2,0.3,2.2,0.8,2.8c0.5,0.6,1.3,0.9,2.4,0.9c1.1,0,2.1-0.2,2.9-0.6
			c0.8-0.4,1.4-0.8,1.8-1.3V87z"/>
		<path class="st0" d="M1435.5,70.8h-2.4v-2.5h5.9v27.9h-3.5V70.8z"/>
		<path class="st0" d="M1459.2,95.4c-0.7,0.4-1.5,0.7-2.6,1c-1,0.3-2.2,0.5-3.6,0.5c-1.7,0-3.2-0.2-4.3-0.7
			c-1.1-0.5-2.1-1.2-2.7-2.1c-0.7-0.9-1.2-1.9-1.5-3.2c-0.3-1.2-0.4-2.6-0.4-4.1c0-1.5,0.2-2.8,0.5-4.1c0.4-1.3,0.9-2.4,1.7-3.3
			c0.7-0.9,1.7-1.7,2.8-2.2c1.2-0.5,2.5-0.8,4.2-0.8c1.2,0,2.2,0.2,3.2,0.5c1,0.3,1.8,0.7,2.5,1.1l-1.1,2.4
			c-0.7-0.4-1.4-0.7-2.2-0.9c-0.8-0.2-1.6-0.4-2.6-0.4c-1.9,0-3.2,0.6-4.1,1.9s-1.3,3.2-1.3,5.8c0,1.1,0.1,2.2,0.3,3.1
			c0.2,0.9,0.5,1.7,0.9,2.3c0.4,0.6,1,1.1,1.7,1.5c0.7,0.3,1.6,0.5,2.6,0.5c0.8,0,1.6-0.1,2.3-0.2c0.7-0.2,1.5-0.5,2.5-0.9
			L1459.2,95.4z"/>
		<path class="st0" d="M1473.8,94.7c-0.7,0.6-1.6,1.1-2.5,1.6s-2.1,0.7-3.5,0.7c-1.9,0-3.4-0.5-4.5-1.5c-1.1-1-1.7-2.6-1.7-4.7
			c0-1.1,0.2-2.1,0.6-2.8s0.9-1.4,1.7-1.9s1.6-0.9,2.6-1.1c1-0.2,2.1-0.3,3.3-0.3h3.3v-1c0-1.6-0.2-2.7-0.7-3.4
			c-0.5-0.7-1.4-1-2.8-1c-1.8,0-3.7,0.4-5.6,1.1L1463,78c0.7-0.3,1.7-0.6,2.8-0.9c1.1-0.3,2.5-0.5,4.1-0.5c1.5,0,2.7,0.2,3.5,0.6
			c0.9,0.4,1.5,1,2,1.7c0.4,0.7,0.7,1.5,0.9,2.5s0.2,2,0.2,3.1v8.2l1.6,2.4l-2.5,1.9L1473.8,94.7z M1473,87h-3c-1.7,0-3,0.3-3.7,0.8
			c-0.7,0.5-1.1,1.5-1.1,2.8c0,1.2,0.3,2.2,0.8,2.8c0.5,0.6,1.3,0.9,2.4,0.9c1.1,0,2.1-0.2,2.9-0.6c0.8-0.4,1.4-0.8,1.8-1.3V87z"/>
		<path class="st0" d="M1482.7,81.2l-1.5-3.2l2.8-1.5l1.6,2.5c1.1-0.9,2.2-1.5,3.2-1.9c1-0.4,2.1-0.6,3.2-0.6c1.3,0,2.3,0.2,3.2,0.6
			s1.5,0.9,2,1.6c0.5,0.7,0.9,1.5,1.1,2.4c0.2,0.9,0.3,1.8,0.3,2.8v12.3h-3.5V84.1c0-1.6-0.3-2.7-1-3.5c-0.6-0.7-1.6-1.1-2.9-1.1
			c-1,0-1.9,0.2-2.8,0.5s-1.6,0.8-2.2,1.3v14.9h-3.5V81.2z"/>
		<path class="st0" d="M1512.9,79.8h-9.6v-2.5h14v2.5l-10.6,13c-0.1,0.2-0.2,0.3-0.2,0.4c0,0.1,0,0.1,0,0.2c0,0.3,0.2,0.4,0.6,0.4
			h10.3v2.6h-11.6c-1.1,0-1.8-0.2-2.3-0.7s-0.7-1.1-0.7-1.8c0-0.5,0.1-0.9,0.2-1.3c0.2-0.4,0.4-0.9,0.9-1.4L1512.9,79.8z"/>
		<path class="st0" d="M1532.4,94.7c-0.7,0.6-1.6,1.1-2.5,1.6s-2.1,0.7-3.5,0.7c-1.9,0-3.4-0.5-4.5-1.5c-1.1-1-1.7-2.6-1.7-4.7
			c0-1.1,0.2-2.1,0.6-2.8s0.9-1.4,1.7-1.9s1.6-0.9,2.6-1.1c1-0.2,2.1-0.3,3.3-0.3h3.3v-1c0-1.6-0.2-2.7-0.7-3.4
			c-0.5-0.7-1.4-1-2.8-1c-1.8,0-3.7,0.4-5.6,1.1l-0.9-2.4c0.7-0.3,1.7-0.6,2.8-0.9c1.1-0.3,2.5-0.5,4.1-0.5c1.5,0,2.7,0.2,3.5,0.6
			c0.9,0.4,1.5,1,2,1.7c0.4,0.7,0.7,1.5,0.9,2.5s0.2,2,0.2,3.1v8.2l1.6,2.4l-2.5,1.9L1532.4,94.7z M1531.6,87h-3
			c-1.7,0-3,0.3-3.7,0.8c-0.7,0.5-1.1,1.5-1.1,2.8c0,1.2,0.3,2.2,0.8,2.8c0.5,0.6,1.3,0.9,2.4,0.9c1.1,0,2.1-0.2,2.9-0.6
			c0.8-0.4,1.4-0.8,1.8-1.3V87z"/>
		<path class="st0" d="M182.2,161.5c-0.6,0.4-1.5,0.7-2.6,1s-2.4,0.5-3.6,0.5c-1.7,0-3.2-0.2-4.4-0.7c-1.2-0.5-2.1-1.2-2.8-2.1
			s-1.2-2-1.5-3.2c-0.3-1.3-0.4-2.6-0.4-4.2c0-1.4,0.2-2.7,0.5-4c0.3-1.2,0.8-2.3,1.5-3.2c0.7-0.9,1.6-1.7,2.6-2.2
			c1.1-0.5,2.3-0.8,3.8-0.8c1.4,0,2.6,0.3,3.6,0.9c1,0.6,1.8,1.3,2.4,2.3s1,2,1.3,3.2c0.3,1.2,0.4,2.3,0.4,3.5l-1.3,1.3h-11.3
			c0.1,2.2,0.6,3.9,1.5,5c0.9,1.1,2.2,1.6,4.1,1.6c1,0,1.9-0.1,2.7-0.3c0.9-0.2,1.7-0.5,2.4-0.8L182.2,161.5z M179.3,151.2
			c0-2-0.4-3.6-1.1-4.6c-0.7-1-1.8-1.6-3.3-1.6c-1.6,0-2.7,0.5-3.3,1.6c-0.7,1.1-1.1,2.6-1.2,4.5H179.3z"/>
		<path class="st0" d="M187.9,136.8h-2.4v-2.5h5.9v27.9h-3.5V136.8z"/>
		<path class="st0" d="M204.9,134.8h3.5v8.7c0.6-0.3,1.3-0.6,2-0.7c0.7-0.2,1.5-0.3,2.4-0.3c2.6,0,4.5,0.8,5.9,2.5
			c1.4,1.7,2.1,4.2,2.1,7.6c0,1.5-0.2,2.9-0.5,4.1c-0.3,1.3-0.9,2.3-1.6,3.2c-0.7,0.9-1.7,1.6-2.9,2.1c-1.2,0.5-2.6,0.8-4.4,0.8
			c-1.4,0-2.7-0.1-4-0.3c-1.2-0.2-2.1-0.4-2.7-0.7V134.8z M208.5,160c0.3,0.1,0.8,0.2,1.4,0.3c0.7,0.1,1.4,0.1,2.1,0.1
			c1.9,0,3.3-0.7,4.1-2c0.8-1.3,1.2-3.3,1.2-5.9c0-2.3-0.4-4.1-1.1-5.5c-0.7-1.4-2-2-3.8-2c-0.8,0-1.5,0.1-2.3,0.3
			c-0.7,0.2-1.3,0.4-1.7,0.7V160z"/>
		<path class="st0" d="M236.9,160.7c-0.7,0.6-1.6,1.1-2.5,1.6c-0.9,0.5-2.1,0.7-3.5,0.7c-1.9,0-3.4-0.5-4.5-1.5
			c-1.1-1-1.7-2.6-1.7-4.7c0-1.1,0.2-2.1,0.6-2.8c0.4-0.8,0.9-1.4,1.7-1.9c0.7-0.5,1.6-0.9,2.6-1.1c1-0.2,2.1-0.3,3.3-0.3h3.3v-1
			c0-1.6-0.2-2.7-0.7-3.4c-0.5-0.7-1.4-1-2.8-1c-1.8,0-3.7,0.4-5.6,1.1l-0.9-2.4c0.7-0.3,1.7-0.6,2.8-0.9c1.1-0.3,2.5-0.5,4.1-0.5
			c1.5,0,2.7,0.2,3.5,0.6c0.9,0.4,1.5,1,2,1.7c0.4,0.7,0.7,1.5,0.9,2.5c0.1,1,0.2,2,0.2,3.1v8.2l1.6,2.4l-2.5,1.9L236.9,160.7z
			 M236.1,153h-3c-1.7,0-3,0.3-3.7,0.8c-0.7,0.5-1.1,1.5-1.1,2.8c0,1.2,0.3,2.2,0.8,2.8c0.5,0.6,1.3,0.9,2.4,0.9
			c1.1,0,2.1-0.2,2.9-0.6s1.4-0.8,1.8-1.3V153z"/>
		<path class="st0" d="M245.7,136.8h-2.4v-2.5h5.9v27.9h-3.5V136.8z"/>
		<path class="st0" d="M266,160.7c-0.7,0.6-1.6,1.1-2.5,1.6c-0.9,0.5-2.1,0.7-3.5,0.7c-1.9,0-3.4-0.5-4.5-1.5
			c-1.1-1-1.7-2.6-1.7-4.7c0-1.1,0.2-2.1,0.6-2.8c0.4-0.8,0.9-1.4,1.7-1.9c0.7-0.5,1.6-0.9,2.6-1.1c1-0.2,2.1-0.3,3.3-0.3h3.3v-1
			c0-1.6-0.2-2.7-0.7-3.4c-0.5-0.7-1.4-1-2.8-1c-1.8,0-3.7,0.4-5.6,1.1l-0.9-2.4c0.7-0.3,1.7-0.6,2.8-0.9c1.1-0.3,2.5-0.5,4.1-0.5
			c1.5,0,2.7,0.2,3.5,0.6c0.9,0.4,1.5,1,2,1.7c0.4,0.7,0.7,1.5,0.9,2.5c0.1,1,0.2,2,0.2,3.1v8.2l1.6,2.4l-2.5,1.9L266,160.7z
			 M265.2,153h-3c-1.7,0-3,0.3-3.7,0.8c-0.7,0.5-1.1,1.5-1.1,2.8c0,1.2,0.3,2.2,0.8,2.8c0.5,0.6,1.3,0.9,2.4,0.9
			c1.1,0,2.1-0.2,2.9-0.6s1.4-0.8,1.8-1.3V153z"/>
		<path class="st0" d="M274.9,147.2l-1.5-3.2l2.8-1.5l1.6,2.5c1.1-0.9,2.2-1.5,3.2-1.9c1-0.4,2.1-0.6,3.2-0.6c1.3,0,2.3,0.2,3.2,0.6
			c0.8,0.4,1.5,0.9,2,1.6c0.5,0.7,0.9,1.5,1.1,2.4c0.2,0.9,0.3,1.8,0.3,2.8v12.3h-3.5v-12.2c0-1.6-0.3-2.7-1-3.5
			c-0.6-0.7-1.6-1.1-2.9-1.1c-1,0-1.9,0.2-2.8,0.5s-1.6,0.8-2.2,1.3v14.9h-3.5V147.2z"/>
		<path class="st0" d="M310.9,161.4c-0.7,0.4-1.5,0.7-2.6,1c-1,0.3-2.2,0.5-3.6,0.5c-1.7,0-3.2-0.2-4.3-0.7
			c-1.1-0.5-2.1-1.2-2.7-2.1c-0.7-0.9-1.2-1.9-1.5-3.2c-0.3-1.2-0.4-2.6-0.4-4.1c0-1.5,0.2-2.8,0.5-4.1c0.4-1.3,0.9-2.4,1.7-3.3
			c0.7-0.9,1.7-1.7,2.9-2.2c1.2-0.5,2.5-0.8,4.2-0.8c1.2,0,2.2,0.2,3.2,0.5c1,0.3,1.8,0.7,2.5,1.1l-1.1,2.4
			c-0.7-0.4-1.4-0.7-2.2-0.9c-0.8-0.2-1.6-0.4-2.6-0.4c-1.9,0-3.2,0.6-4.1,1.9s-1.3,3.2-1.3,5.8c0,1.1,0.1,2.2,0.3,3.1
			c0.2,0.9,0.5,1.7,0.9,2.3c0.4,0.6,1,1.1,1.7,1.5c0.7,0.3,1.6,0.5,2.6,0.5c0.8,0,1.6-0.1,2.3-0.2c0.7-0.2,1.5-0.5,2.5-0.9
			L310.9,161.4z"/>
		<path class="st0" d="M328.8,161.5c-0.6,0.4-1.5,0.7-2.6,1s-2.4,0.5-3.6,0.5c-1.7,0-3.2-0.2-4.4-0.7c-1.2-0.5-2.1-1.2-2.8-2.1
			s-1.2-2-1.5-3.2c-0.3-1.3-0.4-2.6-0.4-4.2c0-1.4,0.2-2.7,0.5-4c0.3-1.2,0.8-2.3,1.5-3.2c0.7-0.9,1.6-1.7,2.6-2.2
			c1.1-0.5,2.3-0.8,3.8-0.8c1.4,0,2.6,0.3,3.6,0.9c1,0.6,1.8,1.3,2.4,2.3s1,2,1.3,3.2c0.3,1.2,0.4,2.3,0.4,3.5l-1.3,1.3H317
			c0.1,2.2,0.6,3.9,1.5,5c0.9,1.1,2.2,1.6,4.1,1.6c1,0,1.9-0.1,2.7-0.3c0.9-0.2,1.7-0.5,2.4-0.8L328.8,161.5z M325.9,151.2
			c0-2-0.4-3.6-1.1-4.6c-0.7-1-1.8-1.6-3.3-1.6c-1.6,0-2.7,0.5-3.3,1.6c-0.7,1.1-1.1,2.6-1.2,4.5H325.9z"/>
		<path class="st0" d="M341.9,147.2l-1.5-3.2l2.9-1.5l1.6,2.4c0.7-0.6,1.4-1.2,2.3-1.6c0.9-0.5,1.9-0.7,3.2-0.7
			c2.6,0,4.6,0.8,5.9,2.5c1.4,1.7,2,4.2,2,7.7c0,1.5-0.2,2.9-0.6,4.2s-1,2.3-1.8,3.2c-0.8,0.9-1.8,1.6-3,2.1
			c-1.2,0.5-2.6,0.7-4.1,0.7c-0.6,0-1.1,0-1.8-0.1c-0.6-0.1-1.2-0.2-1.7-0.3v8.1h-3.5V147.2z M345.4,159.9c0.4,0.1,1,0.3,1.7,0.4
			c0.7,0.1,1.3,0.2,2,0.2c1.9,0,3.3-0.7,4.2-2c0.9-1.3,1.4-3.2,1.4-5.7c0-2.4-0.3-4.2-1-5.6s-1.9-2-3.5-2c-1,0-1.8,0.2-2.4,0.5
			c-0.7,0.3-1.4,0.9-2.2,1.6V159.9z"/>
		<path class="st0" d="M377.9,161.5c-0.6,0.4-1.5,0.7-2.6,1s-2.4,0.5-3.6,0.5c-1.7,0-3.2-0.2-4.4-0.7c-1.2-0.5-2.1-1.2-2.8-2.1
			s-1.2-2-1.5-3.2c-0.3-1.3-0.4-2.6-0.4-4.2c0-1.4,0.2-2.7,0.5-4c0.3-1.2,0.8-2.3,1.5-3.2c0.7-0.9,1.6-1.7,2.6-2.2
			c1.1-0.5,2.3-0.8,3.8-0.8c1.4,0,2.6,0.3,3.6,0.9c1,0.6,1.8,1.3,2.4,2.3s1,2,1.3,3.2c0.3,1.2,0.4,2.3,0.4,3.5l-1.3,1.3h-11.3
			c0.1,2.2,0.6,3.9,1.5,5c0.9,1.1,2.2,1.6,4.1,1.6c1,0,1.9-0.1,2.7-0.3c0.9-0.2,1.7-0.5,2.4-0.8L377.9,161.5z M375.1,151.2
			c0-2-0.4-3.6-1.1-4.6c-0.7-1-1.8-1.6-3.3-1.6c-1.6,0-2.7,0.5-3.3,1.6c-0.7,1.1-1.1,2.6-1.2,4.5H375.1z"/>
		<path class="st0" d="M384,145.7h-2.4v-2.5h4.9l0.6,2.5c0.3-0.4,0.7-0.7,1-1c0.4-0.3,0.7-0.6,1.2-0.9c0.4-0.2,0.9-0.4,1.5-0.6
			c0.5-0.1,1.2-0.2,1.9-0.2c0.9,0,1.7,0.1,2.4,0.3l-1,3.2c-0.3-0.1-0.6-0.2-1-0.3c-0.4-0.1-0.7-0.1-1.1-0.1c-1.8,0-3.3,0.6-4.4,1.9
			v14.2H384V145.7z"/>
		<path class="st0" d="M399,145.8h-2.7v-2.6h2.7v-2c0-0.9,0.1-1.8,0.3-2.7c0.2-0.8,0.6-1.6,1-2.2c0.5-0.6,1.2-1.1,2-1.5
			s1.9-0.6,3.1-0.6c0.7,0,1.4,0.1,2.1,0.3c0.7,0.2,1.4,0.4,2.1,0.7l-0.9,2.2c-0.3-0.1-0.6-0.3-1.2-0.4c-0.5-0.2-1.1-0.2-1.8-0.2
			c-0.7,0-1.3,0.1-1.7,0.3c-0.4,0.2-0.7,0.6-0.9,1c-0.2,0.4-0.4,0.9-0.4,1.5c-0.1,0.6-0.1,1.3-0.1,2v1.6h5.5v2.6h-5.5v16.5H399
			V145.8z"/>
		<path class="st0" d="M425.4,161.5c-0.6,0.4-1.5,0.7-2.6,1s-2.4,0.5-3.6,0.5c-1.7,0-3.2-0.2-4.4-0.7c-1.2-0.5-2.1-1.2-2.8-2.1
			s-1.2-2-1.5-3.2c-0.3-1.3-0.4-2.6-0.4-4.2c0-1.4,0.2-2.7,0.5-4c0.3-1.2,0.8-2.3,1.5-3.2c0.7-0.9,1.6-1.7,2.6-2.2
			c1.1-0.5,2.3-0.8,3.8-0.8c1.4,0,2.6,0.3,3.6,0.9c1,0.6,1.8,1.3,2.4,2.3s1,2,1.3,3.2c0.3,1.2,0.4,2.3,0.4,3.5l-1.3,1.3h-11.3
			c0.1,2.2,0.6,3.9,1.5,5c0.9,1.1,2.2,1.6,4.1,1.6c1,0,1.9-0.1,2.7-0.3c0.9-0.2,1.7-0.5,2.4-0.8L425.4,161.5z M422.5,151.2
			c0-2-0.4-3.6-1.1-4.6c-0.7-1-1.8-1.6-3.3-1.6c-1.6,0-2.7,0.5-3.3,1.6c-0.7,1.1-1.1,2.6-1.2,4.5H422.5z"/>
		<path class="st0" d="M445.2,161.4c-0.7,0.4-1.5,0.7-2.6,1c-1,0.3-2.2,0.5-3.6,0.5c-1.7,0-3.2-0.2-4.3-0.7
			c-1.1-0.5-2.1-1.2-2.7-2.1c-0.7-0.9-1.2-1.9-1.5-3.2c-0.3-1.2-0.4-2.6-0.4-4.1c0-1.5,0.2-2.8,0.5-4.1c0.4-1.3,0.9-2.4,1.7-3.3
			c0.7-0.9,1.7-1.7,2.9-2.2c1.2-0.5,2.5-0.8,4.2-0.8c1.2,0,2.2,0.2,3.2,0.5c1,0.3,1.8,0.7,2.5,1.1l-1.1,2.4
			c-0.7-0.4-1.4-0.7-2.2-0.9c-0.8-0.2-1.6-0.4-2.6-0.4c-1.9,0-3.2,0.6-4.1,1.9s-1.3,3.2-1.3,5.8c0,1.1,0.1,2.2,0.3,3.1
			c0.2,0.9,0.5,1.7,0.9,2.3c0.4,0.6,1,1.1,1.7,1.5c0.7,0.3,1.6,0.5,2.6,0.5c0.8,0,1.6-0.1,2.3-0.2c0.7-0.2,1.5-0.5,2.5-0.9
			L445.2,161.4z"/>
		<path class="st0" d="M450.1,145.8h-3.5v-2.6h3.6v-5.7h3.4v5.7h5.6v2.6h-5.6v11c0,0.7,0.1,1.3,0.2,1.8c0.1,0.4,0.3,0.8,0.6,1
			c0.2,0.2,0.5,0.4,0.9,0.5c0.3,0.1,0.7,0.1,1.1,0.1c0.4,0,0.9-0.1,1.4-0.2c0.5-0.1,1-0.3,1.5-0.5l0.8,2.3c-0.4,0.2-1,0.4-1.8,0.6
			c-0.8,0.2-1.6,0.3-2.4,0.3c-0.9,0-1.7-0.1-2.4-0.3c-0.7-0.2-1.3-0.5-1.8-0.9c-0.5-0.4-0.9-1-1.1-1.7c-0.3-0.7-0.4-1.6-0.4-2.7
			V145.8z"/>
		<path class="st0" d="M470.5,162.9c-1.6,0-3-0.3-4.1-0.8c-1.1-0.5-2-1.2-2.6-2.1c-0.7-0.9-1.1-2-1.4-3.2s-0.4-2.6-0.4-4.1
			c0-1.5,0.2-2.8,0.5-4.1c0.4-1.3,0.9-2.3,1.6-3.2c0.7-0.9,1.6-1.6,2.7-2.1c1.1-0.5,2.4-0.8,3.8-0.8c1.5,0,2.8,0.3,3.9,0.8
			c1.1,0.5,2,1.2,2.7,2.1s1.2,2,1.5,3.2c0.3,1.3,0.5,2.6,0.5,4.1c0,1.5-0.2,2.9-0.5,4.1c-0.3,1.2-0.8,2.3-1.5,3.2
			c-0.7,0.9-1.6,1.6-2.7,2.1C473.4,162.7,472.1,162.9,470.5,162.9z M470.6,160.4c1.8,0,3.1-0.7,3.9-2c0.7-1.3,1.1-3.2,1.1-5.7
			c0-2.4-0.4-4.3-1.1-5.6c-0.7-1.3-2-2-3.9-2c-1.8,0-3.1,0.6-3.9,1.9c-0.7,1.3-1.1,3.2-1.1,5.7c0,1.2,0.1,2.3,0.3,3.2
			c0.2,1,0.5,1.8,0.9,2.4c0.4,0.7,0.9,1.2,1.6,1.5C468.9,160.2,469.7,160.4,470.6,160.4z"/>
		<path class="st0" d="M506.2,161.5c-0.6,0.4-1.5,0.7-2.6,1s-2.4,0.5-3.6,0.5c-1.7,0-3.2-0.2-4.4-0.7c-1.2-0.5-2.1-1.2-2.8-2.1
			s-1.2-2-1.5-3.2c-0.3-1.3-0.4-2.6-0.4-4.2c0-1.4,0.2-2.7,0.5-4c0.3-1.2,0.8-2.3,1.5-3.2c0.7-0.9,1.6-1.7,2.6-2.2
			c1.1-0.5,2.3-0.8,3.8-0.8c1.4,0,2.6,0.3,3.6,0.9c1,0.6,1.8,1.3,2.4,2.3s1,2,1.3,3.2c0.3,1.2,0.4,2.3,0.4,3.5l-1.3,1.3h-11.3
			c0.1,2.2,0.6,3.9,1.5,5c0.9,1.1,2.2,1.6,4.1,1.6c1,0,1.9-0.1,2.7-0.3c0.9-0.2,1.7-0.5,2.4-0.8L506.2,161.5z M503.4,151.2
			c0-2-0.4-3.6-1.1-4.6c-0.7-1-1.8-1.6-3.3-1.6c-1.6,0-2.7,0.5-3.3,1.6c-0.7,1.1-1.1,2.6-1.2,4.5H503.4z"/>
		<path class="st0" d="M512.1,147.2l-1.5-3.2l2.8-1.5l1.6,2.5c1.1-0.9,2.2-1.5,3.2-1.9c1-0.4,2.1-0.6,3.2-0.6c1.3,0,2.3,0.2,3.2,0.6
			c0.8,0.4,1.5,0.9,2,1.6c0.5,0.7,0.9,1.5,1.1,2.4c0.2,0.9,0.3,1.8,0.3,2.8v12.3h-3.5v-12.2c0-1.6-0.3-2.7-1-3.5
			c-0.6-0.7-1.6-1.1-2.9-1.1c-1,0-1.9,0.2-2.8,0.5s-1.6,0.8-2.2,1.3v14.9h-3.5V147.2z"/>
		<path class="st0" d="M535.1,145.8h-3.5v-2.6h3.6v-5.7h3.4v5.7h5.6v2.6h-5.6v11c0,0.7,0.1,1.3,0.2,1.8c0.1,0.4,0.3,0.8,0.6,1
			c0.2,0.2,0.5,0.4,0.9,0.5c0.3,0.1,0.7,0.1,1.1,0.1c0.4,0,0.9-0.1,1.4-0.2c0.5-0.1,1-0.3,1.5-0.5l0.8,2.3c-0.4,0.2-1,0.4-1.8,0.6
			c-0.8,0.2-1.6,0.3-2.4,0.3c-0.9,0-1.7-0.1-2.4-0.3c-0.7-0.2-1.3-0.5-1.8-0.9c-0.5-0.4-0.9-1-1.1-1.7c-0.3-0.7-0.4-1.6-0.4-2.7
			V145.8z"/>
		<path class="st0" d="M548.9,145.7h-2.4v-2.5h4.9l0.6,2.5c0.3-0.4,0.7-0.7,1-1c0.4-0.3,0.7-0.6,1.2-0.9c0.4-0.2,0.9-0.4,1.5-0.6
			c0.5-0.1,1.2-0.2,1.9-0.2c0.9,0,1.7,0.1,2.4,0.3l-1,3.2c-0.3-0.1-0.6-0.2-1-0.3c-0.4-0.1-0.7-0.1-1.1-0.1c-1.8,0-3.3,0.6-4.4,1.9
			v14.2h-3.5V145.7z"/>
		<path class="st0" d="M576.9,161.5c-0.6,0.4-1.5,0.7-2.6,1s-2.4,0.5-3.6,0.5c-1.7,0-3.2-0.2-4.4-0.7c-1.2-0.5-2.1-1.2-2.8-2.1
			s-1.2-2-1.5-3.2c-0.3-1.3-0.4-2.6-0.4-4.2c0-1.4,0.2-2.7,0.5-4c0.3-1.2,0.8-2.3,1.5-3.2c0.7-0.9,1.6-1.7,2.6-2.2
			c1.1-0.5,2.3-0.8,3.8-0.8c1.4,0,2.6,0.3,3.6,0.9c1,0.6,1.8,1.3,2.4,2.3s1,2,1.3,3.2c0.3,1.2,0.4,2.3,0.4,3.5l-1.3,1.3h-11.3
			c0.1,2.2,0.6,3.9,1.5,5c0.9,1.1,2.2,1.6,4.1,1.6c1,0,1.9-0.1,2.7-0.3c0.9-0.2,1.7-0.5,2.4-0.8L576.9,161.5z M574.1,151.2
			c0-2-0.4-3.6-1.1-4.6c-0.7-1-1.8-1.6-3.3-1.6c-1.6,0-2.7,0.5-3.3,1.6c-0.7,1.1-1.1,2.6-1.2,4.5H574.1z"/>
		<path class="st0" d="M591.1,145.8h-3.5v-2.6h3.6v-5.7h3.4v5.7h5.6v2.6h-5.6v11c0,0.7,0.1,1.3,0.2,1.8c0.1,0.4,0.3,0.8,0.6,1
			c0.2,0.2,0.5,0.4,0.9,0.5c0.3,0.1,0.7,0.1,1.1,0.1c0.4,0,0.9-0.1,1.4-0.2c0.5-0.1,1-0.3,1.5-0.5l0.8,2.3c-0.4,0.2-1,0.4-1.8,0.6
			c-0.8,0.2-1.6,0.3-2.4,0.3c-0.9,0-1.7-0.1-2.4-0.3c-0.7-0.2-1.3-0.5-1.8-0.9c-0.5-0.4-0.9-1-1.1-1.7c-0.3-0.7-0.4-1.6-0.4-2.7
			V145.8z"/>
		<path class="st0" d="M611.4,162.9c-1.6,0-3-0.3-4.1-0.8c-1.1-0.5-2-1.2-2.6-2.1c-0.7-0.9-1.1-2-1.4-3.2s-0.4-2.6-0.4-4.1
			c0-1.5,0.2-2.8,0.5-4.1c0.4-1.3,0.9-2.3,1.6-3.2c0.7-0.9,1.6-1.6,2.7-2.1c1.1-0.5,2.4-0.8,3.8-0.8c1.5,0,2.8,0.3,3.9,0.8
			c1.1,0.5,2,1.2,2.7,2.1s1.2,2,1.5,3.2c0.3,1.3,0.5,2.6,0.5,4.1c0,1.5-0.2,2.9-0.5,4.1c-0.3,1.2-0.8,2.3-1.5,3.2
			c-0.7,0.9-1.6,1.6-2.7,2.1C614.4,162.7,613,162.9,611.4,162.9z M611.6,160.4c1.8,0,3.1-0.7,3.9-2c0.7-1.3,1.1-3.2,1.1-5.7
			c0-2.4-0.4-4.3-1.1-5.6c-0.7-1.3-2-2-3.9-2c-1.8,0-3.1,0.6-3.9,1.9c-0.7,1.3-1.1,3.2-1.1,5.7c0,1.2,0.1,2.3,0.3,3.2
			c0.2,1,0.5,1.8,0.9,2.4c0.4,0.7,0.9,1.2,1.6,1.5C609.9,160.2,610.6,160.4,611.6,160.4z"/>
		<path class="st0" d="M625.7,145.7h-2.4v-2.5h4.9l0.6,2.5c0.3-0.4,0.7-0.7,1-1c0.4-0.3,0.7-0.6,1.2-0.9c0.4-0.2,0.9-0.4,1.5-0.6
			c0.5-0.1,1.2-0.2,1.9-0.2c0.9,0,1.7,0.1,2.4,0.3l-1,3.2c-0.3-0.1-0.6-0.2-1-0.3c-0.4-0.1-0.7-0.1-1.1-0.1c-1.8,0-3.3,0.6-4.4,1.9
			v14.2h-3.5V145.7z"/>
		<path class="st0" d="M651,161.9c-0.6,0.3-1.3,0.6-2,0.7c-0.7,0.2-1.5,0.3-2.3,0.3c-2.9,0-5-0.8-6.3-2.5c-1.4-1.7-2-4.2-2-7.7
			c0-1.5,0.2-2.9,0.6-4.2c0.4-1.3,1-2.3,1.8-3.2c0.8-0.9,1.8-1.6,2.9-2.1c1.2-0.5,2.6-0.7,4.1-0.7c1.3,0,2.6,0.1,3.9,0.3
			c1.2,0.2,2.2,0.5,2.9,0.7v26.9H651V161.9z M651,145.4c-0.4-0.1-0.9-0.2-1.5-0.3c-0.6-0.1-1.2-0.1-1.9-0.1c-1.9,0-3.3,0.7-4.2,2
			s-1.4,3.2-1.4,5.8c0,2.4,0.4,4.2,1.1,5.6c0.7,1.3,2,2,3.8,2c0.9,0,1.6-0.1,2.2-0.2c0.6-0.2,1.2-0.4,1.8-0.9V145.4z"/>
		<path class="st0" d="M660.4,143.2h3.5v12.4c0,1.5,0.3,2.6,0.9,3.5c0.6,0.8,1.5,1.2,2.9,1.2c1.1,0,2-0.2,2.7-0.5s1.3-0.8,2-1.3
			v-15.2h3.5v15.4l1.6,2.3l-2.5,1.9l-1.7-2.1c-1,0.8-2,1.3-2.9,1.7c-0.9,0.3-2,0.5-3.1,0.5c-1.4,0-2.5-0.2-3.4-0.6
			c-0.9-0.4-1.5-0.9-2-1.6c-0.5-0.7-0.8-1.5-1-2.4c-0.2-0.9-0.3-1.8-0.3-2.8V143.2z"/>
		<path class="st0" d="M696.4,161.5c-0.6,0.4-1.5,0.7-2.6,1s-2.4,0.5-3.6,0.5c-1.7,0-3.2-0.2-4.4-0.7c-1.2-0.5-2.1-1.2-2.8-2.1
			s-1.2-2-1.5-3.2c-0.3-1.3-0.4-2.6-0.4-4.2c0-1.4,0.2-2.7,0.5-4c0.3-1.2,0.8-2.3,1.5-3.2c0.7-0.9,1.6-1.7,2.6-2.2
			c1.1-0.5,2.3-0.8,3.8-0.8c1.4,0,2.6,0.3,3.6,0.9c1,0.6,1.8,1.3,2.4,2.3s1,2,1.3,3.2c0.3,1.2,0.4,2.3,0.4,3.5l-1.3,1.3h-11.3
			c0.1,2.2,0.6,3.9,1.5,5c0.9,1.1,2.2,1.6,4.1,1.6c1,0,1.9-0.1,2.7-0.3c0.9-0.2,1.7-0.5,2.4-0.8L696.4,161.5z M693.5,151.2
			c0-2-0.4-3.6-1.1-4.6c-0.7-1-1.8-1.6-3.3-1.6c-1.6,0-2.7,0.5-3.3,1.6c-0.7,1.1-1.1,2.6-1.2,4.5H693.5z"/>
		<path class="st0" d="M702,158.3l3.7,0.8l-2.8,8.7l-2.4-0.6L702,158.3z"/>
		<path class="st0" d="M717.5,147.2l-1.5-3.2l2.9-1.5l1.6,2.4c0.7-0.6,1.4-1.2,2.3-1.6c0.9-0.5,1.9-0.7,3.2-0.7
			c2.6,0,4.6,0.8,5.9,2.5c1.4,1.7,2,4.2,2,7.7c0,1.5-0.2,2.9-0.6,4.2s-1,2.3-1.8,3.2c-0.8,0.9-1.8,1.6-3,2.1
			c-1.2,0.5-2.6,0.7-4.1,0.7c-0.6,0-1.1,0-1.8-0.1c-0.6-0.1-1.2-0.2-1.7-0.3v8.1h-3.5V147.2z M721.1,159.9c0.4,0.1,1,0.3,1.7,0.4
			c0.7,0.1,1.3,0.2,2,0.2c1.9,0,3.3-0.7,4.2-2c0.9-1.3,1.4-3.2,1.4-5.7c0-2.4-0.3-4.2-1-5.6s-1.9-2-3.5-2c-1,0-1.8,0.2-2.4,0.5
			c-0.7,0.3-1.4,0.9-2.2,1.6V159.9z"/>
		<path class="st0" d="M746.8,162.9c-1.6,0-3-0.3-4.1-0.8c-1.1-0.5-2-1.2-2.6-2.1c-0.7-0.9-1.1-2-1.4-3.2s-0.4-2.6-0.4-4.1
			c0-1.5,0.2-2.8,0.5-4.1c0.4-1.3,0.9-2.3,1.6-3.2c0.7-0.9,1.6-1.6,2.7-2.1c1.1-0.5,2.4-0.8,3.8-0.8c1.5,0,2.8,0.3,3.9,0.8
			c1.1,0.5,2,1.2,2.7,2.1s1.2,2,1.5,3.2c0.3,1.3,0.5,2.6,0.5,4.1c0,1.5-0.2,2.9-0.5,4.1c-0.3,1.2-0.8,2.3-1.5,3.2
			c-0.7,0.9-1.6,1.6-2.7,2.1C749.7,162.7,748.3,162.9,746.8,162.9z M746.9,160.4c1.8,0,3.1-0.7,3.9-2c0.7-1.3,1.1-3.2,1.1-5.7
			c0-2.4-0.4-4.3-1.1-5.6c-0.7-1.3-2-2-3.9-2c-1.8,0-3.1,0.6-3.9,1.9c-0.7,1.3-1.1,3.2-1.1,5.7c0,1.2,0.1,2.3,0.3,3.2
			c0.2,1,0.5,1.8,0.9,2.4c0.4,0.7,0.9,1.2,1.6,1.5C745.2,160.2,746,160.4,746.9,160.4z"/>
		<path class="st0" d="M761.8,145.8h-3.5v-2.6h3.6v-5.7h3.4v5.7h5.6v2.6h-5.6v11c0,0.7,0.1,1.3,0.2,1.8c0.1,0.4,0.3,0.8,0.6,1
			c0.2,0.2,0.5,0.4,0.9,0.5c0.3,0.1,0.7,0.1,1.1,0.1c0.4,0,0.9-0.1,1.4-0.2c0.5-0.1,1-0.3,1.5-0.5l0.8,2.3c-0.4,0.2-1,0.4-1.8,0.6
			c-0.8,0.2-1.6,0.3-2.4,0.3c-0.9,0-1.7-0.1-2.4-0.3c-0.7-0.2-1.3-0.5-1.8-0.9c-0.5-0.4-0.9-1-1.1-1.7c-0.3-0.7-0.4-1.6-0.4-2.7
			V145.8z"/>
		<path class="st0" d="M788.9,161.5c-0.6,0.4-1.5,0.7-2.6,1c-1.2,0.3-2.4,0.5-3.6,0.5c-1.7,0-3.2-0.2-4.4-0.7
			c-1.2-0.5-2.1-1.2-2.8-2.1c-0.7-0.9-1.2-2-1.5-3.2c-0.3-1.3-0.4-2.6-0.4-4.2c0-1.4,0.2-2.7,0.5-4s0.8-2.3,1.5-3.2
			c0.7-0.9,1.6-1.7,2.6-2.2c1.1-0.5,2.3-0.8,3.8-0.8c1.4,0,2.6,0.3,3.6,0.9c1,0.6,1.8,1.3,2.4,2.3c0.6,0.9,1,2,1.3,3.2
			c0.3,1.2,0.4,2.3,0.4,3.5l-1.3,1.3h-11.3c0.1,2.2,0.6,3.9,1.5,5c0.9,1.1,2.2,1.6,4.1,1.6c1,0,1.9-0.1,2.7-0.3
			c0.9-0.2,1.7-0.5,2.4-0.8L788.9,161.5z M786.1,151.2c0-2-0.4-3.6-1.1-4.6c-0.7-1-1.8-1.6-3.3-1.6c-1.6,0-2.7,0.5-3.3,1.6
			c-0.7,1.1-1.1,2.6-1.2,4.5H786.1z"/>
		<path class="st0" d="M794.8,147.2l-1.5-3.2l2.8-1.5l1.6,2.5c1.1-0.9,2.2-1.5,3.2-1.9c1-0.4,2.1-0.6,3.2-0.6c1.3,0,2.3,0.2,3.2,0.6
			s1.5,0.9,2,1.6c0.5,0.7,0.9,1.5,1.1,2.4c0.2,0.9,0.3,1.8,0.3,2.8v12.3h-3.5v-12.2c0-1.6-0.3-2.7-1-3.5c-0.6-0.7-1.6-1.1-2.9-1.1
			c-1,0-1.9,0.2-2.8,0.5s-1.6,0.8-2.2,1.3v14.9h-3.5V147.2z"/>
		<path class="st0" d="M830.8,161.4c-0.7,0.4-1.5,0.7-2.6,1c-1,0.3-2.2,0.5-3.6,0.5c-1.7,0-3.2-0.2-4.3-0.7
			c-1.1-0.5-2.1-1.2-2.7-2.1c-0.7-0.9-1.2-1.9-1.5-3.2c-0.3-1.2-0.4-2.6-0.4-4.1c0-1.5,0.2-2.8,0.5-4.1c0.4-1.3,0.9-2.4,1.7-3.3
			c0.7-0.9,1.7-1.7,2.8-2.2c1.2-0.5,2.5-0.8,4.2-0.8c1.2,0,2.2,0.2,3.2,0.5c1,0.3,1.8,0.7,2.5,1.1l-1.1,2.4
			c-0.7-0.4-1.4-0.7-2.2-0.9c-0.8-0.2-1.6-0.4-2.6-0.4c-1.9,0-3.2,0.6-4.1,1.9s-1.3,3.2-1.3,5.8c0,1.1,0.1,2.2,0.3,3.1
			c0.2,0.9,0.5,1.7,0.9,2.3c0.4,0.6,1,1.1,1.7,1.5c0.7,0.3,1.6,0.5,2.6,0.5c0.8,0,1.6-0.1,2.3-0.2c0.7-0.2,1.5-0.5,2.5-0.9
			L830.8,161.4z"/>
		<path class="st0" d="M834.8,145.7h-2.4v-2.5h6v19h-3.5V145.7z M836.2,139.7c-0.7,0-1.3-0.2-1.7-0.7s-0.6-1.1-0.6-1.8
			c0-0.7,0.2-1.3,0.6-1.8s1-0.7,1.7-0.7c0.8,0,1.3,0.2,1.8,0.7s0.6,1.1,0.6,1.8c0,0.7-0.2,1.3-0.6,1.8S837,139.7,836.2,139.7z"/>
		<path class="st0" d="M855.2,160.7c-0.7,0.6-1.6,1.1-2.5,1.6s-2.1,0.7-3.5,0.7c-1.9,0-3.4-0.5-4.5-1.5c-1.1-1-1.7-2.6-1.7-4.7
			c0-1.1,0.2-2.1,0.6-2.8s0.9-1.4,1.7-1.9s1.6-0.9,2.6-1.1c1-0.2,2.1-0.3,3.3-0.3h3.3v-1c0-1.6-0.2-2.7-0.7-3.4
			c-0.5-0.7-1.4-1-2.8-1c-1.8,0-3.7,0.4-5.6,1.1l-0.9-2.4c0.7-0.3,1.7-0.6,2.8-0.9c1.1-0.3,2.5-0.5,4.1-0.5c1.5,0,2.7,0.2,3.5,0.6
			c0.9,0.4,1.5,1,2,1.7c0.4,0.7,0.7,1.5,0.9,2.5s0.2,2,0.2,3.1v8.2l1.6,2.4l-2.5,1.9L855.2,160.7z M854.4,153h-3
			c-1.7,0-3,0.3-3.7,0.8c-0.7,0.5-1.1,1.5-1.1,2.8c0,1.2,0.3,2.2,0.8,2.8c0.5,0.6,1.3,0.9,2.4,0.9c1.1,0,2.1-0.2,2.9-0.6
			c0.8-0.4,1.4-0.8,1.8-1.3V153z"/>
		<path class="st0" d="M870.4,167.5c0.4,0.2,0.9,0.3,1.5,0.5c0.6,0.2,1.3,0.3,2.2,0.3c1,0,1.7-0.3,2.2-0.9c0.5-0.6,0.9-1.4,1.2-2.6
			l0.8-3.1h-0.7c-0.8,0-1.5-0.1-2.1-0.3c-0.6-0.2-1.1-0.5-1.6-0.9c-0.4-0.4-0.8-1-1.2-1.7c-0.3-0.7-0.6-1.6-0.9-2.6l-3.5-12.9
			l3.5-0.6l3.5,13.1c0.2,0.7,0.4,1.3,0.6,1.7s0.4,0.8,0.7,1c0.2,0.2,0.5,0.4,0.8,0.5s0.6,0.1,0.9,0.1h0.5l4.1-16.5l3.2,0.6
			l-5.7,21.8c-0.5,1.9-1.3,3.3-2.3,4.2c-1,0.9-2.4,1.3-4.2,1.3c-0.5,0-0.9,0-1.4-0.1c-0.5-0.1-0.9-0.2-1.3-0.3
			c-0.4-0.1-0.8-0.2-1.1-0.3c-0.3-0.1-0.6-0.2-0.8-0.3L870.4,167.5z"/>
		<path class="st0" d="M897.1,145.7h-2.4v-2.5h4.9l0.6,2.5c0.3-0.4,0.7-0.7,1-1s0.7-0.6,1.2-0.9c0.4-0.2,0.9-0.4,1.5-0.6
			c0.5-0.1,1.2-0.2,1.9-0.2c0.9,0,1.7,0.1,2.4,0.3l-1,3.2c-0.3-0.1-0.6-0.2-1-0.3s-0.7-0.1-1.1-0.1c-1.8,0-3.3,0.6-4.4,1.9v14.2
			h-3.5V145.7z"/>
		<path class="st0" d="M925.1,161.5c-0.6,0.4-1.5,0.7-2.6,1c-1.2,0.3-2.4,0.5-3.6,0.5c-1.7,0-3.2-0.2-4.4-0.7
			c-1.2-0.5-2.1-1.2-2.8-2.1c-0.7-0.9-1.2-2-1.5-3.2c-0.3-1.3-0.4-2.6-0.4-4.2c0-1.4,0.2-2.7,0.5-4c0.3-1.2,0.8-2.3,1.5-3.2
			c0.7-0.9,1.6-1.7,2.6-2.2c1.1-0.5,2.3-0.8,3.8-0.8c1.4,0,2.6,0.3,3.6,0.9c1,0.6,1.8,1.3,2.4,2.3c0.6,0.9,1,2,1.3,3.2
			c0.3,1.2,0.4,2.3,0.4,3.5l-1.3,1.3h-11.3c0.1,2.2,0.6,3.9,1.5,5c0.9,1.1,2.2,1.6,4.1,1.6c1,0,1.9-0.1,2.7-0.3
			c0.9-0.2,1.7-0.5,2.4-0.8L925.1,161.5z M922.3,151.2c0-2-0.4-3.6-1.1-4.6c-0.7-1-1.8-1.6-3.3-1.6c-1.6,0-2.7,0.5-3.3,1.6
			c-0.7,1.1-1.1,2.6-1.2,4.5H922.3z"/>
		<path class="st0" d="M931,147.2l-1.5-3.2l2.8-1.5l1.6,2.5c1.1-0.9,2.2-1.5,3.2-1.9c1-0.4,2.1-0.6,3.2-0.6c1.3,0,2.3,0.2,3.2,0.6
			s1.5,0.9,2,1.6c0.5,0.7,0.9,1.5,1.1,2.4c0.2,0.9,0.3,1.8,0.3,2.8v12.3h-3.5v-12.2c0-1.6-0.3-2.7-1-3.5c-0.6-0.7-1.6-1.1-2.9-1.1
			c-1,0-1.9,0.2-2.8,0.5s-1.6,0.8-2.2,1.3v14.9H931V147.2z"/>
		<path class="st0" d="M965.7,160.8c-0.7,0.6-1.6,1.1-2.5,1.5s-2.1,0.6-3.3,0.6c-2.6,0-4.6-0.8-5.9-2.5s-2-4.2-2-7.7
			c0-1.5,0.2-2.9,0.6-4.2s1-2.3,1.7-3.2s1.7-1.6,2.9-2.1c1.2-0.5,2.5-0.7,4-0.7c0.7,0,1.3,0.1,1.9,0.2c0.6,0.1,1.1,0.2,1.6,0.3v-8.7
			h3.5v24.3l1.6,2.4l-2.5,1.9L965.7,160.8z M964.7,145.6c-0.4-0.1-0.9-0.2-1.5-0.4c-0.6-0.1-1.3-0.2-2.1-0.2c-1.9,0-3.3,0.7-4.2,2
			c-0.9,1.3-1.3,3.2-1.3,5.7c0,2.4,0.4,4.2,1.1,5.6c0.7,1.3,2,2,3.6,2c1.1,0,1.9-0.2,2.6-0.5c0.7-0.4,1.3-0.8,1.8-1.3V145.6z"/>
		<path class="st0" d="M974.7,145.7h-2.4v-2.5h6v19h-3.5V145.7z M976,139.7c-0.7,0-1.3-0.2-1.7-0.7s-0.6-1.1-0.6-1.8
			c0-0.7,0.2-1.3,0.6-1.8s1-0.7,1.7-0.7c0.8,0,1.3,0.2,1.8,0.7s0.6,1.1,0.6,1.8c0,0.7-0.2,1.3-0.6,1.8S976.8,139.7,976,139.7z"/>
		<path class="st0" d="M984.4,147.1l-1.5-3.2l2.8-1.5l1.6,2.5c1-0.9,2-1.6,3-1.9c1-0.3,1.9-0.5,2.7-0.5c1.4,0,2.4,0.2,3.1,0.6
			c0.7,0.4,1.3,1,1.8,1.8c1.1-1,2.2-1.6,3.3-2c1.1-0.3,2-0.5,2.7-0.5c1.3,0,2.3,0.2,3.1,0.6s1.4,0.9,1.8,1.6
			c0.4,0.7,0.7,1.5,0.8,2.4c0.1,0.9,0.2,1.8,0.2,2.8v12.3h-3.5v-12.4c0-1.5-0.2-2.6-0.7-3.3c-0.4-0.7-1.3-1-2.6-1
			c-0.7,0-1.5,0.1-2.3,0.4c-0.8,0.3-1.5,0.7-2.3,1.3c0.1,0.4,0.1,0.8,0.1,1.3c0,0.5,0.1,0.9,0.1,1.3v12.3h-3.5v-12.5
			c0-1.4-0.2-2.5-0.7-3.2c-0.4-0.7-1.3-1-2.6-1c-0.7,0-1.4,0.1-2.2,0.4c-0.7,0.3-1.4,0.7-2.1,1.3v15h-3.5V147.1z"/>
		<path class="st0" d="M1016.4,145.7h-2.4v-2.5h6v19h-3.5V145.7z M1017.8,139.7c-0.7,0-1.3-0.2-1.7-0.7s-0.6-1.1-0.6-1.8
			c0-0.7,0.2-1.3,0.6-1.8s1-0.7,1.7-0.7c0.8,0,1.3,0.2,1.8,0.7s0.6,1.1,0.6,1.8c0,0.7-0.2,1.3-0.6,1.8S1018.5,139.7,1017.8,139.7z"
			/>
		<path class="st0" d="M1040.5,161.5c-0.6,0.4-1.5,0.7-2.6,1c-1.2,0.3-2.4,0.5-3.6,0.5c-1.7,0-3.2-0.2-4.4-0.7
			c-1.2-0.5-2.1-1.2-2.8-2.1c-0.7-0.9-1.2-2-1.5-3.2c-0.3-1.3-0.4-2.6-0.4-4.2c0-1.4,0.2-2.7,0.5-4c0.3-1.2,0.8-2.3,1.5-3.2
			c0.7-0.9,1.6-1.7,2.6-2.2c1.1-0.5,2.3-0.8,3.8-0.8c1.4,0,2.6,0.3,3.6,0.9c1,0.6,1.8,1.3,2.4,2.3c0.6,0.9,1,2,1.3,3.2
			c0.3,1.2,0.4,2.3,0.4,3.5l-1.3,1.3h-11.3c0.1,2.2,0.6,3.9,1.5,5c0.9,1.1,2.2,1.6,4.1,1.6c1,0,1.9-0.1,2.7-0.3
			c0.9-0.2,1.7-0.5,2.4-0.8L1040.5,161.5z M1037.6,151.2c0-2-0.4-3.6-1.1-4.6c-0.7-1-1.8-1.6-3.3-1.6c-1.6,0-2.7,0.5-3.3,1.6
			c-0.7,1.1-1.1,2.6-1.2,4.5H1037.6z"/>
		<path class="st0" d="M1046.3,147.2l-1.5-3.2l2.8-1.5l1.6,2.5c1.1-0.9,2.2-1.5,3.2-1.9c1-0.4,2.1-0.6,3.2-0.6
			c1.3,0,2.3,0.2,3.2,0.6s1.5,0.9,2,1.6c0.5,0.7,0.9,1.5,1.1,2.4c0.2,0.9,0.3,1.8,0.3,2.8v12.3h-3.5v-12.2c0-1.6-0.3-2.7-1-3.5
			c-0.6-0.7-1.6-1.1-2.9-1.1c-1,0-1.9,0.2-2.8,0.5s-1.6,0.8-2.2,1.3v14.9h-3.5V147.2z"/>
		<path class="st0" d="M1069.3,145.8h-3.5v-2.6h3.6v-5.7h3.4v5.7h5.6v2.6h-5.6v11c0,0.7,0.1,1.3,0.2,1.8c0.1,0.4,0.3,0.8,0.6,1
			c0.2,0.2,0.5,0.4,0.9,0.5c0.3,0.1,0.7,0.1,1.1,0.1s0.9-0.1,1.4-0.2c0.5-0.1,1-0.3,1.5-0.5l0.8,2.3c-0.4,0.2-1,0.4-1.8,0.6
			c-0.8,0.2-1.6,0.3-2.4,0.3c-0.9,0-1.7-0.1-2.4-0.3s-1.3-0.5-1.8-0.9c-0.5-0.4-0.9-1-1.1-1.7c-0.3-0.7-0.4-1.6-0.4-2.7V145.8z"/>
		<path class="st0" d="M1089.7,162.9c-1.6,0-3-0.3-4.1-0.8c-1.1-0.5-2-1.2-2.6-2.1s-1.1-2-1.4-3.2c-0.3-1.2-0.4-2.6-0.4-4.1
			c0-1.5,0.2-2.8,0.5-4.1c0.4-1.3,0.9-2.3,1.6-3.2s1.6-1.6,2.7-2.1c1.1-0.5,2.4-0.8,3.8-0.8c1.5,0,2.8,0.3,3.9,0.8
			c1.1,0.5,2,1.2,2.7,2.1c0.7,0.9,1.2,2,1.5,3.2s0.5,2.6,0.5,4.1c0,1.5-0.2,2.9-0.5,4.1c-0.3,1.2-0.8,2.3-1.5,3.2
			c-0.7,0.9-1.6,1.6-2.7,2.1C1092.6,162.7,1091.2,162.9,1089.7,162.9z M1089.8,160.4c1.8,0,3.1-0.7,3.9-2c0.7-1.3,1.1-3.2,1.1-5.7
			c0-2.4-0.4-4.3-1.1-5.6c-0.7-1.3-2-2-3.9-2c-1.8,0-3.1,0.6-3.9,1.9c-0.7,1.3-1.1,3.2-1.1,5.7c0,1.2,0.1,2.3,0.3,3.2
			c0.2,1,0.5,1.8,0.9,2.4c0.4,0.7,0.9,1.2,1.6,1.5C1088.1,160.2,1088.9,160.4,1089.8,160.4z"/>
		<path class="st0" d="M1123.7,160.8c-0.7,0.6-1.6,1.1-2.5,1.5s-2.1,0.6-3.3,0.6c-2.6,0-4.6-0.8-5.9-2.5s-2-4.2-2-7.7
			c0-1.5,0.2-2.9,0.6-4.2s1-2.3,1.7-3.2s1.7-1.6,2.9-2.1c1.2-0.5,2.5-0.7,4-0.7c0.7,0,1.3,0.1,1.9,0.2c0.6,0.1,1.1,0.2,1.6,0.3v-8.7
			h3.5v24.3l1.6,2.4l-2.5,1.9L1123.7,160.8z M1122.8,145.6c-0.4-0.1-0.9-0.2-1.5-0.4c-0.6-0.1-1.3-0.2-2.1-0.2c-1.9,0-3.3,0.7-4.2,2
			c-0.9,1.3-1.3,3.2-1.3,5.7c0,2.4,0.4,4.2,1.1,5.6c0.7,1.3,2,2,3.6,2c1.1,0,1.9-0.2,2.6-0.5c0.7-0.4,1.3-0.8,1.8-1.3V145.6z"/>
		<path class="st0" d="M1147,161.5c-0.6,0.4-1.5,0.7-2.6,1c-1.2,0.3-2.4,0.5-3.6,0.5c-1.7,0-3.2-0.2-4.4-0.7
			c-1.2-0.5-2.1-1.2-2.8-2.1c-0.7-0.9-1.2-2-1.5-3.2c-0.3-1.3-0.4-2.6-0.4-4.2c0-1.4,0.2-2.7,0.5-4c0.3-1.2,0.8-2.3,1.5-3.2
			c0.7-0.9,1.6-1.7,2.6-2.2c1.1-0.5,2.3-0.8,3.8-0.8c1.4,0,2.6,0.3,3.6,0.9c1,0.6,1.8,1.3,2.4,2.3c0.6,0.9,1,2,1.3,3.2
			c0.3,1.2,0.4,2.3,0.4,3.5l-1.3,1.3h-11.3c0.1,2.2,0.6,3.9,1.5,5c0.9,1.1,2.2,1.6,4.1,1.6c1,0,1.9-0.1,2.7-0.3
			c0.9-0.2,1.7-0.5,2.4-0.8L1147,161.5z M1144.2,151.2c0-2-0.4-3.6-1.1-4.6c-0.7-1-1.8-1.6-3.3-1.6c-1.6,0-2.7,0.5-3.3,1.6
			c-0.7,1.1-1.1,2.6-1.2,4.5H1144.2z"/>
		<path class="st0" d="M1174.2,161.4c-0.7,0.4-1.5,0.7-2.6,1c-1,0.3-2.2,0.5-3.6,0.5c-1.7,0-3.2-0.2-4.3-0.7
			c-1.1-0.5-2.1-1.2-2.7-2.1c-0.7-0.9-1.2-1.9-1.5-3.2c-0.3-1.2-0.4-2.6-0.4-4.1c0-1.5,0.2-2.8,0.5-4.1c0.4-1.3,0.9-2.4,1.7-3.3
			c0.7-0.9,1.7-1.7,2.8-2.2c1.2-0.5,2.5-0.8,4.2-0.8c1.2,0,2.2,0.2,3.2,0.5c1,0.3,1.8,0.7,2.5,1.1l-1.1,2.4
			c-0.7-0.4-1.4-0.7-2.2-0.9c-0.8-0.2-1.6-0.4-2.6-0.4c-1.9,0-3.2,0.6-4.1,1.9s-1.3,3.2-1.3,5.8c0,1.1,0.1,2.2,0.3,3.1
			c0.2,0.9,0.5,1.7,0.9,2.3c0.4,0.6,1,1.1,1.7,1.5c0.7,0.3,1.6,0.5,2.6,0.5c0.8,0,1.6-0.1,2.3-0.2c0.7-0.2,1.5-0.5,2.5-0.9
			L1174.2,161.4z"/>
		<path class="st0" d="M1185.2,162.9c-1.6,0-3-0.3-4.1-0.8c-1.1-0.5-2-1.2-2.6-2.1s-1.1-2-1.4-3.2c-0.3-1.2-0.4-2.6-0.4-4.1
			c0-1.5,0.2-2.8,0.5-4.1c0.4-1.3,0.9-2.3,1.6-3.2s1.6-1.6,2.7-2.1c1.1-0.5,2.4-0.8,3.8-0.8c1.5,0,2.8,0.3,3.9,0.8
			c1.1,0.5,2,1.2,2.7,2.1c0.7,0.9,1.2,2,1.5,3.2s0.5,2.6,0.5,4.1c0,1.5-0.2,2.9-0.5,4.1c-0.3,1.2-0.8,2.3-1.5,3.2
			c-0.7,0.9-1.6,1.6-2.7,2.1C1188.1,162.7,1186.8,162.9,1185.2,162.9z M1185.3,160.4c1.8,0,3.1-0.7,3.9-2c0.7-1.3,1.1-3.2,1.1-5.7
			c0-2.4-0.4-4.3-1.1-5.6c-0.7-1.3-2-2-3.9-2c-1.8,0-3.1,0.6-3.9,1.9c-0.7,1.3-1.1,3.2-1.1,5.7c0,1.2,0.1,2.3,0.3,3.2
			c0.2,1,0.5,1.8,0.9,2.4c0.4,0.7,0.9,1.2,1.6,1.5C1183.7,160.2,1184.4,160.4,1185.3,160.4z"/>
		<path class="st0" d="M1199.3,147.1l-1.5-3.2l2.8-1.5l1.6,2.5c1-0.9,2-1.6,3-1.9c1-0.3,1.9-0.5,2.7-0.5c1.4,0,2.4,0.2,3.1,0.6
			c0.7,0.4,1.3,1,1.8,1.8c1.1-1,2.2-1.6,3.3-2c1.1-0.3,2-0.5,2.7-0.5c1.3,0,2.3,0.2,3.1,0.6s1.4,0.9,1.8,1.6
			c0.4,0.7,0.7,1.5,0.8,2.4c0.1,0.9,0.2,1.8,0.2,2.8v12.3h-3.5v-12.4c0-1.5-0.2-2.6-0.7-3.3c-0.4-0.7-1.3-1-2.6-1
			c-0.7,0-1.5,0.1-2.3,0.4c-0.8,0.3-1.5,0.7-2.3,1.3c0.1,0.4,0.1,0.8,0.1,1.3c0,0.5,0.1,0.9,0.1,1.3v12.3h-3.5v-12.5
			c0-1.4-0.2-2.5-0.7-3.2c-0.4-0.7-1.3-1-2.6-1c-0.7,0-1.4,0.1-2.2,0.4c-0.7,0.3-1.4,0.7-2.1,1.3v15h-3.5V147.1z"/>
		<path class="st0" d="M1231.1,134.8h3.5v8.7c0.6-0.3,1.3-0.6,2-0.7c0.7-0.2,1.5-0.3,2.4-0.3c2.6,0,4.5,0.8,5.9,2.5s2.1,4.2,2.1,7.6
			c0,1.5-0.2,2.9-0.5,4.1c-0.3,1.3-0.9,2.3-1.6,3.2c-0.7,0.9-1.7,1.6-2.9,2.1c-1.2,0.5-2.6,0.8-4.4,0.8c-1.4,0-2.7-0.1-4-0.3
			c-1.2-0.2-2.1-0.4-2.7-0.7V134.8z M1234.7,160c0.3,0.1,0.8,0.2,1.4,0.3s1.4,0.1,2.1,0.1c1.9,0,3.3-0.7,4.1-2
			c0.8-1.3,1.2-3.3,1.2-5.9c0-2.3-0.4-4.1-1.1-5.5c-0.7-1.4-2-2-3.8-2c-0.8,0-1.5,0.1-2.3,0.3c-0.7,0.2-1.3,0.4-1.7,0.7V160z"/>
		<path class="st0" d="M1252,143.2h3.5v12.4c0,1.5,0.3,2.6,0.9,3.5c0.6,0.8,1.5,1.2,2.9,1.2c1.1,0,2-0.2,2.7-0.5
			c0.7-0.4,1.3-0.8,2-1.3v-15.2h3.5v15.4l1.6,2.3l-2.5,1.9l-1.7-2.1c-1,0.8-2,1.3-2.9,1.7c-1,0.3-2,0.5-3.1,0.5
			c-1.4,0-2.5-0.2-3.4-0.6s-1.5-0.9-2-1.6c-0.5-0.7-0.8-1.5-1-2.4c-0.2-0.9-0.3-1.8-0.3-2.8V143.2z"/>
		<path class="st0" d="M1272.8,158.7c0.6,0.3,1.4,0.7,2.4,1.1c1,0.4,2.1,0.6,3.4,0.6c1.3,0,2.4-0.2,3.2-0.7s1.2-1.2,1.2-2.2
			c0-0.6-0.1-1.1-0.4-1.4c-0.3-0.4-0.6-0.7-1-0.9c-0.4-0.2-0.9-0.4-1.5-0.6c-0.6-0.2-1.2-0.3-1.8-0.5c-0.7-0.2-1.4-0.4-2.1-0.6
			c-0.7-0.3-1.3-0.6-1.9-1c-0.5-0.4-1-0.9-1.3-1.6c-0.3-0.6-0.5-1.4-0.5-2.4c0-0.8,0.1-1.6,0.4-2.3c0.3-0.7,0.7-1.3,1.3-1.8
			c0.6-0.5,1.4-0.9,2.3-1.2c0.9-0.3,2-0.5,3.2-0.5s2.4,0.1,3.4,0.4c1.1,0.3,2,0.6,2.7,1l-1.1,2.3c-1.6-0.9-3.3-1.3-5.1-1.3
			c-1.2,0-2.2,0.2-2.9,0.6c-0.7,0.4-1,1.1-1,2.1c0,0.6,0.1,1,0.3,1.4c0.2,0.4,0.5,0.7,0.9,0.9c0.4,0.2,0.8,0.4,1.4,0.6
			c0.5,0.2,1.1,0.3,1.6,0.5c0.7,0.2,1.4,0.4,2.1,0.6c0.7,0.2,1.4,0.5,2,1c0.6,0.4,1.1,1,1.5,1.6c0.4,0.7,0.6,1.5,0.6,2.6
			c0,1.9-0.6,3.4-1.8,4.4c-1.2,1.1-3.1,1.6-5.6,1.6c-1.7,0-3.1-0.2-4.4-0.6c-1.2-0.4-2.1-0.8-2.7-1.2L1272.8,158.7z"/>
		<path class="st0" d="M1291.9,145.8h-3.5v-2.6h3.6v-5.7h3.4v5.7h5.6v2.6h-5.6v11c0,0.7,0.1,1.3,0.2,1.8c0.1,0.4,0.3,0.8,0.6,1
			c0.2,0.2,0.5,0.4,0.9,0.5c0.3,0.1,0.7,0.1,1.1,0.1s0.9-0.1,1.4-0.2c0.5-0.1,1-0.3,1.5-0.5l0.8,2.3c-0.4,0.2-1,0.4-1.8,0.6
			c-0.8,0.2-1.6,0.3-2.4,0.3c-0.9,0-1.7-0.1-2.4-0.3s-1.3-0.5-1.8-0.9c-0.5-0.4-0.9-1-1.1-1.7c-0.3-0.7-0.4-1.6-0.4-2.7V145.8z"/>
		<path class="st0" d="M1305.6,145.7h-2.4v-2.5h6v19h-3.5V145.7z M1306.9,139.7c-0.7,0-1.3-0.2-1.7-0.7s-0.6-1.1-0.6-1.8
			c0-0.7,0.2-1.3,0.6-1.8s1-0.7,1.7-0.7c0.8,0,1.3,0.2,1.8,0.7s0.6,1.1,0.6,1.8c0,0.7-0.2,1.3-0.6,1.8S1307.7,139.7,1306.9,139.7z"
			/>
		<path class="st0" d="M1315.3,134.8h3.5v8.7c0.6-0.3,1.3-0.6,2-0.7c0.7-0.2,1.5-0.3,2.4-0.3c2.6,0,4.5,0.8,5.9,2.5s2.1,4.2,2.1,7.6
			c0,1.5-0.2,2.9-0.5,4.1c-0.3,1.3-0.9,2.3-1.6,3.2c-0.7,0.9-1.7,1.6-2.9,2.1c-1.2,0.5-2.6,0.8-4.4,0.8c-1.4,0-2.7-0.1-4-0.3
			c-1.2-0.2-2.1-0.4-2.7-0.7V134.8z M1318.8,160c0.3,0.1,0.8,0.2,1.4,0.3s1.4,0.1,2.1,0.1c1.9,0,3.3-0.7,4.1-2
			c0.8-1.3,1.2-3.3,1.2-5.9c0-2.3-0.4-4.1-1.1-5.5c-0.7-1.4-2-2-3.8-2c-0.8,0-1.5,0.1-2.3,0.3c-0.7,0.2-1.3,0.4-1.7,0.7V160z"/>
		<path class="st0" d="M1336.5,136.8h-2.4v-2.5h5.9v27.9h-3.5V136.8z"/>
		<path class="st0" d="M1360.6,161.5c-0.6,0.4-1.5,0.7-2.6,1c-1.2,0.3-2.4,0.5-3.6,0.5c-1.7,0-3.2-0.2-4.4-0.7
			c-1.2-0.5-2.1-1.2-2.8-2.1c-0.7-0.9-1.2-2-1.5-3.2c-0.3-1.3-0.4-2.6-0.4-4.2c0-1.4,0.2-2.7,0.5-4c0.3-1.2,0.8-2.3,1.5-3.2
			c0.7-0.9,1.6-1.7,2.6-2.2c1.1-0.5,2.3-0.8,3.8-0.8c1.4,0,2.6,0.3,3.6,0.9c1,0.6,1.8,1.3,2.4,2.3c0.6,0.9,1,2,1.3,3.2
			c0.3,1.2,0.4,2.3,0.4,3.5l-1.3,1.3h-11.3c0.1,2.2,0.6,3.9,1.5,5c0.9,1.1,2.2,1.6,4.1,1.6c1,0,1.9-0.1,2.7-0.3
			c0.9-0.2,1.7-0.5,2.4-0.8L1360.6,161.5z M1357.7,151.2c0-2-0.4-3.6-1.1-4.6c-0.7-1-1.8-1.6-3.3-1.6c-1.6,0-2.7,0.5-3.3,1.6
			c-0.7,1.1-1.1,2.6-1.2,4.5H1357.7z"/>
		<path class="st0" d="M1367.9,162.9c-0.8,0-1.4-0.2-1.8-0.7s-0.6-1.1-0.6-1.9c0-0.8,0.2-1.4,0.6-1.9c0.4-0.5,1-0.7,1.8-0.7
			c0.8,0,1.4,0.2,1.8,0.7c0.4,0.5,0.6,1.1,0.6,1.9c0,0.8-0.2,1.4-0.6,1.9S1368.7,162.9,1367.9,162.9z"/>
	</g>
</g>
</svg>
