<?xml version="1.0" encoding="utf-8"?>
<!-- Generator: Adobe Illustrator 19.2.1, SVG Export Plug-In . SVG Version: 6.00 Build 0)  -->
<!DOCTYPE svg PUBLIC "-//W3C//DTD SVG 1.1//EN" "http://www.w3.org/Graphics/SVG/1.1/DTD/svg11.dtd">
<svg version="1.1" id="Layer_1" xmlns="http://www.w3.org/2000/svg" xmlns:xlink="http://www.w3.org/1999/xlink" x="0px" y="0px"
	 viewBox="0 0 2050.6 154.1" style="enable-background:new 0 0 2050.6 154.1;" xml:space="preserve">
<style type="text/css">
	.st0{fill:none;stroke:#B4B4B4;stroke-width:1.2;stroke-miterlimit:10;}
	.st1{fill:url(#SVGID_1_);}
	.st2{fill:url(#SVGID_2_);}
	.st3{fill:url(#SVGID_3_);}
	.st4{fill:url(#SVGID_4_);}
	.st5{fill:url(#SVGID_5_);}
</style>
<line class="st0" x1="0" y1="132.7" x2="1604" y2="132.7"/>
<line class="st0" x1="560.7" y1="21.4" x2="2050.6" y2="21.4"/>
<linearGradient id="SVGID_1_" gradientUnits="userSpaceOnUse" x1="718.2" y1="545.3824" x2="718.2" y2="572.7157" gradientTransform="matrix(1 0 0 1 0 -455.61)">
	<stop  offset="0.25" style="stop-color:#453331"/>
	<stop  offset="1" style="stop-color:#2A1512"/>
</linearGradient>
<polygon class="st1" points="681.3,41.1 657,117.1 755,117.1 779.4,41.1 "/>
<linearGradient id="SVGID_2_" gradientUnits="userSpaceOnUse" x1="844.6" y1="544.7157" x2="844.6" y2="571.3824" gradientTransform="matrix(1 0 0 1 0 -455.61)">
	<stop  offset="0.25" style="stop-color:#343B3A"/>
	<stop  offset="1" style="stop-color:#212928"/>
</linearGradient>
<polygon class="st2" points="807.8,41.1 783.4,117.1 881.5,117.1 905.8,41.1 "/>
<linearGradient id="SVGID_3_" gradientUnits="userSpaceOnUse" x1="971.1" y1="545.3824" x2="971.1" y2="571.3909" gradientTransform="matrix(1 0 0 1 0 -455.61)">
	<stop  offset="0.25" style="stop-color:#B8B9B5"/>
	<stop  offset="1" style="stop-color:#8D8F87"/>
</linearGradient>
<polygon class="st3" points="934.2,41.1 909.9,117.1 1007.9,117.1 1032.3,41.1 "/>
<linearGradient id="SVGID_4_" gradientUnits="userSpaceOnUse" x1="1097.5" y1="544.7157" x2="1097.5" y2="569.3824" gradientTransform="matrix(1 0 0 1 0 -455.61)">
	<stop  offset="0.25" style="stop-color:#232321"/>
	<stop  offset="1" style="stop-color:#050605"/>
</linearGradient>
<polygon class="st4" points="1060.7,41.1 1036.3,117.1 1134.4,117.1 1158.7,41.1 "/>
<linearGradient id="SVGID_5_" gradientUnits="userSpaceOnUse" x1="1224" y1="544.7157" x2="1224" y2="568.7527" gradientTransform="matrix(1 0 0 1 0 -455.61)">
	<stop  offset="0.25" style="stop-color:#F9F9FA"/>
	<stop  offset="1" style="stop-color:#CCCECE"/>
</linearGradient>
<polygon class="st5" points="1187.1,41.1 1162.8,117.1 1260.8,117.1 1285.2,41.1 "/>
</svg>
