<?xml version="1.0" encoding="utf-8"?>
<!-- Generator: Adobe Illustrator 19.2.1, SVG Export Plug-In . SVG Version: 6.00 Build 0)  -->
<!DOCTYPE svg PUBLIC "-//W3C//DTD SVG 1.1//EN" "http://www.w3.org/Graphics/SVG/1.1/DTD/svg11.dtd">
<svg version="1.1" id="Layer_1" xmlns="http://www.w3.org/2000/svg" xmlns:xlink="http://www.w3.org/1999/xlink" x="0px" y="0px"
	 viewBox="0 0 1745 24.5" style="enable-background:new 0 0 1745 24.5;" xml:space="preserve">
<style type="text/css">
	.st0{fill:#58595B;}
</style>
<g>
	<path class="st0" d="M0,1.8h10.6v1.8H2.4v5.5h6.2V11H2.4v6.3h8.5v1.8H0V1.8z"/>
	<path class="st0" d="M13.7,3h-1.5V1.5H16v17.6h-2.2V3z"/>
	<path class="st0" d="M33.4,18.6c-0.4,0.2-1,0.5-1.6,0.7c-0.6,0.2-1.4,0.3-2.2,0.3c-1.1,0-2-0.2-2.7-0.5c-0.7-0.3-1.3-0.7-1.7-1.3
		s-0.7-1.2-0.9-2c-0.2-0.8-0.3-1.6-0.3-2.6c0-0.9,0.1-1.8,0.3-2.6c0.2-0.8,0.6-1.5,1-2.1s1.1-1.1,1.8-1.4c0.7-0.3,1.6-0.5,2.6-0.5
		c0.7,0,1.4,0.1,2,0.3s1.1,0.4,1.6,0.7l-0.7,1.5c-0.4-0.2-0.9-0.4-1.4-0.6c-0.5-0.2-1-0.2-1.6-0.2c-1.2,0-2.1,0.4-2.6,1.2
		c-0.6,0.8-0.8,2-0.8,3.7c0,0.7,0.1,1.4,0.2,1.9c0.1,0.6,0.3,1.1,0.6,1.5c0.3,0.4,0.6,0.7,1.1,0.9c0.4,0.2,1,0.3,1.7,0.3
		c0.5,0,1,0,1.5-0.1c0.4-0.1,1-0.3,1.6-0.6L33.4,18.6z"/>
	<path class="st0" d="M40.3,19.5c-1,0-1.9-0.2-2.6-0.5c-0.7-0.3-1.2-0.8-1.7-1.3c-0.4-0.6-0.7-1.3-0.9-2c-0.2-0.8-0.3-1.6-0.3-2.6
		s0.1-1.8,0.3-2.6c0.2-0.8,0.6-1.5,1-2.1c0.4-0.6,1-1,1.7-1.3c0.7-0.3,1.5-0.5,2.4-0.5c1,0,1.8,0.2,2.5,0.5c0.7,0.3,1.3,0.8,1.7,1.3
		c0.4,0.6,0.8,1.2,1,2c0.2,0.8,0.3,1.7,0.3,2.6c0,0.9-0.1,1.8-0.3,2.6s-0.5,1.5-1,2c-0.4,0.6-1,1-1.7,1.3
		C42.2,19.4,41.3,19.5,40.3,19.5z M40.4,18c1.2,0,2-0.4,2.4-1.2c0.5-0.8,0.7-2,0.7-3.6c0-1.5-0.2-2.7-0.7-3.5s-1.3-1.2-2.4-1.2
		c-1.2,0-2,0.4-2.5,1.2c-0.5,0.8-0.7,2-0.7,3.6c0,0.8,0.1,1.4,0.2,2c0.1,0.6,0.3,1.1,0.5,1.5c0.2,0.4,0.6,0.7,1,1
		C39.3,17.8,39.8,18,40.4,18z"/>
	<path class="st0" d="M49.1,3h-1.5V1.5h3.7v17.6h-2.2V3z"/>
	<path class="st0" d="M60,19.5c-1,0-1.9-0.2-2.6-0.5c-0.7-0.3-1.2-0.8-1.7-1.3c-0.4-0.6-0.7-1.3-0.9-2c-0.2-0.8-0.3-1.6-0.3-2.6
		s0.1-1.8,0.3-2.6c0.2-0.8,0.6-1.5,1-2.1c0.4-0.6,1-1,1.7-1.3c0.7-0.3,1.5-0.5,2.4-0.5c1,0,1.8,0.2,2.5,0.5c0.7,0.3,1.3,0.8,1.7,1.3
		c0.4,0.6,0.8,1.2,1,2c0.2,0.8,0.3,1.7,0.3,2.6c0,0.9-0.1,1.8-0.3,2.6s-0.5,1.5-1,2c-0.4,0.6-1,1-1.7,1.3C61.9,19.4,61,19.5,60,19.5
		z M60.1,18c1.2,0,2-0.4,2.4-1.2c0.5-0.8,0.7-2,0.7-3.6c0-1.5-0.2-2.7-0.7-3.5s-1.3-1.2-2.4-1.2c-1.2,0-2,0.4-2.5,1.2
		c-0.5,0.8-0.7,2-0.7,3.6c0,0.8,0.1,1.4,0.2,2c0.1,0.6,0.3,1.1,0.5,1.5c0.2,0.4,0.6,0.7,1,1C59,17.8,59.5,18,60.1,18z"/>
	<path class="st0" d="M69,8.7h-1.5V7.1h3.1L71,8.6c0.2-0.2,0.4-0.4,0.6-0.6c0.2-0.2,0.5-0.4,0.7-0.5c0.3-0.2,0.6-0.3,0.9-0.4
		C73.7,7,74.1,7,74.5,7C75.1,7,75.6,7,76,7.2l-0.6,2C75.2,9.1,75,9,74.8,9s-0.5,0-0.7,0c-1.2,0-2.1,0.4-2.8,1.2v9H69V8.7z"/>
	<path class="st0" d="M90.6,18.2c-0.5,0.4-1,0.7-1.6,0.9s-1.3,0.4-2.1,0.4c-1.6,0-2.9-0.5-3.7-1.6c-0.8-1.1-1.2-2.7-1.2-4.8
		c0-1,0.1-1.8,0.4-2.6s0.6-1.5,1.1-2c0.5-0.6,1.1-1,1.8-1.3c0.7-0.3,1.6-0.5,2.5-0.5c0.4,0,0.8,0,1.2,0.1c0.4,0.1,0.7,0.1,1,0.2V1.4
		h2.2v15.3l1,1.5l-1.6,1.2L90.6,18.2z M90,8.6c-0.2-0.1-0.5-0.2-0.9-0.2c-0.4-0.1-0.8-0.1-1.3-0.1c-1.2,0-2.1,0.4-2.7,1.2
		c-0.6,0.8-0.9,2-0.9,3.6c0,1.5,0.2,2.7,0.7,3.5c0.5,0.8,1.2,1.3,2.3,1.3c0.7,0,1.2-0.1,1.6-0.3c0.4-0.2,0.8-0.5,1.1-0.8V8.6z"/>
	<path class="st0" d="M105.3,18.6c-0.4,0.2-0.9,0.4-1.7,0.6c-0.7,0.2-1.5,0.3-2.3,0.3c-1.1,0-2-0.2-2.8-0.5
		c-0.7-0.3-1.3-0.7-1.8-1.3c-0.4-0.6-0.8-1.2-0.9-2c-0.2-0.8-0.3-1.7-0.3-2.6c0-0.9,0.1-1.7,0.3-2.5c0.2-0.8,0.5-1.5,1-2.1
		c0.4-0.6,1-1,1.7-1.4c0.7-0.3,1.5-0.5,2.4-0.5c0.9,0,1.7,0.2,2.3,0.6c0.6,0.4,1.1,0.8,1.5,1.4s0.6,1.2,0.8,2
		c0.2,0.7,0.3,1.5,0.3,2.2l-0.8,0.8h-7.1c0.1,1.4,0.4,2.5,0.9,3.1c0.6,0.7,1.4,1,2.6,1c0.6,0,1.2-0.1,1.7-0.2
		c0.5-0.1,1.1-0.3,1.5-0.5L105.3,18.6z M103.5,12.1c0-1.3-0.2-2.2-0.7-2.9s-1.2-1-2.1-1c-1,0-1.7,0.3-2.1,1s-0.7,1.6-0.7,2.9H103.5z
		"/>
	<path class="st0" d="M113.5,3H112V1.5h3.7v17.6h-2.2V3z"/>
	<path class="st0" d="M126.4,18.1c-0.5,0.4-1,0.7-1.6,1c-0.6,0.3-1.3,0.4-2.2,0.4c-1.2,0-2.1-0.3-2.9-0.9s-1.1-1.6-1.1-2.9
		c0-0.7,0.1-1.3,0.4-1.8c0.2-0.5,0.6-0.9,1-1.2c0.4-0.3,1-0.5,1.6-0.7c0.6-0.1,1.3-0.2,2.1-0.2h2.1v-0.6c0-1-0.2-1.7-0.5-2.2
		c-0.3-0.4-0.9-0.7-1.8-0.7c-1.2,0-2.3,0.2-3.5,0.7l-0.6-1.5c0.5-0.2,1.1-0.4,1.8-0.6c0.7-0.2,1.6-0.3,2.6-0.3
		c0.9,0,1.7,0.1,2.2,0.4c0.5,0.3,1,0.6,1.2,1.1c0.3,0.4,0.5,1,0.5,1.6c0.1,0.6,0.1,1.3,0.1,1.9v5.2l1,1.5l-1.6,1.2L126.4,18.1z
		 M125.9,13.2H124c-1.1,0-1.9,0.2-2.4,0.5c-0.5,0.3-0.7,0.9-0.7,1.8c0,0.8,0.2,1.4,0.5,1.7s0.8,0.6,1.5,0.6c0.7,0,1.3-0.1,1.8-0.4
		s0.9-0.5,1.1-0.8V13.2z"/>
	<path class="st0" d="M145.5,18.6c-0.4,0.2-1,0.5-1.6,0.7c-0.6,0.2-1.4,0.3-2.2,0.3c-1.1,0-2-0.2-2.7-0.5c-0.7-0.3-1.3-0.7-1.7-1.3
		s-0.7-1.2-0.9-2c-0.2-0.8-0.3-1.6-0.3-2.6c0-0.9,0.1-1.8,0.3-2.6c0.2-0.8,0.6-1.5,1-2.1s1.1-1.1,1.8-1.4c0.7-0.3,1.6-0.5,2.6-0.5
		c0.7,0,1.4,0.1,2,0.3s1.1,0.4,1.6,0.7l-0.7,1.5c-0.4-0.2-0.9-0.4-1.4-0.6c-0.5-0.2-1-0.2-1.6-0.2c-1.2,0-2.1,0.4-2.6,1.2
		c-0.6,0.8-0.8,2-0.8,3.7c0,0.7,0.1,1.4,0.2,1.9c0.1,0.6,0.3,1.1,0.6,1.5c0.3,0.4,0.6,0.7,1.1,0.9c0.4,0.2,1,0.3,1.7,0.3
		c0.5,0,1,0,1.5-0.1c0.4-0.1,1-0.3,1.6-0.6L145.5,18.6z"/>
	<path class="st0" d="M154.7,18.1c-0.5,0.4-1,0.7-1.6,1c-0.6,0.3-1.3,0.4-2.2,0.4c-1.2,0-2.1-0.3-2.9-0.9S147,17,147,15.6
		c0-0.7,0.1-1.3,0.4-1.8c0.2-0.5,0.6-0.9,1-1.2c0.4-0.3,1-0.5,1.6-0.7c0.6-0.1,1.3-0.2,2.1-0.2h2.1v-0.6c0-1-0.2-1.7-0.5-2.2
		c-0.3-0.4-0.9-0.7-1.8-0.7c-1.2,0-2.3,0.2-3.5,0.7l-0.6-1.5c0.5-0.2,1.1-0.4,1.8-0.6c0.7-0.2,1.6-0.3,2.6-0.3
		c0.9,0,1.7,0.1,2.2,0.4c0.5,0.3,1,0.6,1.2,1.1c0.3,0.4,0.5,1,0.5,1.6c0.1,0.6,0.1,1.3,0.1,1.9v5.2l1,1.5l-1.6,1.2L154.7,18.1z
		 M154.2,13.2h-1.9c-1.1,0-1.9,0.2-2.4,0.5c-0.5,0.3-0.7,0.9-0.7,1.8c0,0.8,0.2,1.4,0.5,1.7s0.8,0.6,1.5,0.6c0.7,0,1.3-0.1,1.8-0.4
		s0.9-0.5,1.1-0.8V13.2z"/>
	<path class="st0" d="M160.4,8.7h-1.5V7.1h3.1l0.4,1.6c0.2-0.2,0.4-0.4,0.6-0.6c0.2-0.2,0.5-0.4,0.7-0.5c0.3-0.2,0.6-0.3,0.9-0.4
		c0.3-0.1,0.7-0.1,1.2-0.1c0.6,0,1.1,0.1,1.5,0.2l-0.6,2c-0.2-0.1-0.4-0.1-0.6-0.2s-0.5,0-0.7,0c-1.2,0-2.1,0.4-2.8,1.2v9h-2.2V8.7z
		"/>
	<path class="st0" d="M169.7,8.7h-1.5V7.1h3.1l0.4,1.6c0.2-0.2,0.4-0.4,0.6-0.6c0.2-0.2,0.5-0.4,0.7-0.5c0.3-0.2,0.6-0.3,0.9-0.4
		c0.3-0.1,0.7-0.1,1.2-0.1c0.6,0,1.1,0.1,1.5,0.2l-0.6,2c-0.2-0.1-0.4-0.1-0.6-0.2s-0.5,0-0.7,0c-1.2,0-2.1,0.4-2.8,1.2v9h-2.2V8.7z
		"/>
	<path class="st0" d="M183.1,19.5c-1,0-1.9-0.2-2.6-0.5c-0.7-0.3-1.2-0.8-1.7-1.3c-0.4-0.6-0.7-1.3-0.9-2c-0.2-0.8-0.3-1.6-0.3-2.6
		s0.1-1.8,0.3-2.6c0.2-0.8,0.6-1.5,1-2.1c0.4-0.6,1-1,1.7-1.3c0.7-0.3,1.5-0.5,2.4-0.5c1,0,1.8,0.2,2.5,0.5c0.7,0.3,1.3,0.8,1.7,1.3
		c0.4,0.6,0.8,1.2,1,2c0.2,0.8,0.3,1.7,0.3,2.6c0,0.9-0.1,1.8-0.3,2.6s-0.5,1.5-1,2c-0.4,0.6-1,1-1.7,1.3
		C184.9,19.4,184.1,19.5,183.1,19.5z M183.2,18c1.2,0,2-0.4,2.4-1.2c0.5-0.8,0.7-2,0.7-3.6c0-1.5-0.2-2.7-0.7-3.5s-1.3-1.2-2.4-1.2
		c-1.2,0-2,0.4-2.5,1.2c-0.5,0.8-0.7,2-0.7,3.6c0,0.8,0.1,1.4,0.2,2c0.1,0.6,0.3,1.1,0.5,1.5c0.2,0.4,0.6,0.7,1,1
		C182.1,17.8,182.6,18,183.2,18z"/>
	<path class="st0" d="M200.8,18.6c-0.4,0.2-1,0.5-1.6,0.7c-0.6,0.2-1.4,0.3-2.2,0.3c-1.1,0-2-0.2-2.7-0.5c-0.7-0.3-1.3-0.7-1.7-1.3
		s-0.7-1.2-0.9-2c-0.2-0.8-0.3-1.6-0.3-2.6c0-0.9,0.1-1.8,0.3-2.6c0.2-0.8,0.6-1.5,1-2.1s1.1-1.1,1.8-1.4c0.7-0.3,1.6-0.5,2.6-0.5
		c0.7,0,1.4,0.1,2,0.3s1.1,0.4,1.6,0.7L200,9.1c-0.4-0.2-0.9-0.4-1.4-0.6c-0.5-0.2-1-0.2-1.6-0.2c-1.2,0-2.1,0.4-2.6,1.2
		c-0.6,0.8-0.8,2-0.8,3.7c0,0.7,0.1,1.4,0.2,1.9c0.1,0.6,0.3,1.1,0.6,1.5c0.3,0.4,0.6,0.7,1.1,0.9c0.4,0.2,1,0.3,1.7,0.3
		c0.5,0,1,0,1.5-0.1c0.4-0.1,1-0.3,1.6-0.6L200.8,18.6z"/>
	<path class="st0" d="M212.1,18.6c-0.4,0.2-0.9,0.4-1.7,0.6c-0.7,0.2-1.5,0.3-2.3,0.3c-1.1,0-2-0.2-2.8-0.5
		c-0.7-0.3-1.3-0.7-1.8-1.3c-0.4-0.6-0.8-1.2-0.9-2c-0.2-0.8-0.3-1.7-0.3-2.6c0-0.9,0.1-1.7,0.3-2.5c0.2-0.8,0.5-1.5,1-2.1
		c0.4-0.6,1-1,1.7-1.4c0.7-0.3,1.5-0.5,2.4-0.5c0.9,0,1.7,0.2,2.3,0.6c0.6,0.4,1.1,0.8,1.5,1.4s0.6,1.2,0.8,2
		c0.2,0.7,0.3,1.5,0.3,2.2l-0.8,0.8h-7.1c0.1,1.4,0.4,2.5,0.9,3.1c0.6,0.7,1.4,1,2.6,1c0.6,0,1.2-0.1,1.7-0.2
		c0.5-0.1,1.1-0.3,1.5-0.5L212.1,18.6z M210.3,12.1c0-1.3-0.2-2.2-0.7-2.9s-1.2-1-2.1-1c-1,0-1.7,0.3-2.1,1s-0.7,1.6-0.7,2.9H210.3z
		"/>
	<path class="st0" d="M215.9,8.7h-1.5V7.1h3.1l0.4,1.6c0.2-0.2,0.4-0.4,0.6-0.6c0.2-0.2,0.5-0.4,0.7-0.5c0.3-0.2,0.6-0.3,0.9-0.4
		c0.3-0.1,0.7-0.1,1.2-0.1c0.6,0,1.1,0.1,1.5,0.2l-0.6,2c-0.2-0.1-0.4-0.1-0.6-0.2s-0.5,0-0.7,0c-1.2,0-2.1,0.4-2.8,1.2v9h-2.2V8.7z
		"/>
	<path class="st0" d="M225,8.7h-1.5V7.1h3.8v12H225V8.7z M226.8,0l1.8,1.2l-3.4,3.9L224,4.3L226.8,0z"/>
	<path class="st0" d="M237.9,18.1c-0.5,0.4-1,0.7-1.6,1c-0.6,0.3-1.3,0.4-2.2,0.4c-1.2,0-2.1-0.3-2.9-0.9s-1.1-1.6-1.1-2.9
		c0-0.7,0.1-1.3,0.4-1.8c0.2-0.5,0.6-0.9,1-1.2c0.4-0.3,1-0.5,1.6-0.7c0.6-0.1,1.3-0.2,2.1-0.2h2.1v-0.6c0-1-0.2-1.7-0.5-2.2
		c-0.3-0.4-0.9-0.7-1.8-0.7c-1.2,0-2.3,0.2-3.5,0.7l-0.6-1.5c0.5-0.2,1.1-0.4,1.8-0.6c0.7-0.2,1.6-0.3,2.6-0.3
		c0.9,0,1.7,0.1,2.2,0.4c0.5,0.3,1,0.6,1.2,1.1c0.3,0.4,0.5,1,0.5,1.6c0.1,0.6,0.1,1.3,0.1,1.9v5.2l1,1.5l-1.6,1.2L237.9,18.1z
		 M237.4,13.2h-1.9c-1.1,0-1.9,0.2-2.4,0.5c-0.5,0.3-0.7,0.9-0.7,1.8c0,0.8,0.2,1.4,0.5,1.7s0.8,0.6,1.5,0.6c0.7,0,1.3-0.1,1.8-0.4
		s0.9-0.5,1.1-0.8V13.2z"/>
	<path class="st0" d="M248.1,9.6l-1-2l1.8-0.9l1,1.5c0.4-0.4,0.9-0.7,1.4-1s1.2-0.5,2-0.5c1.6,0,2.9,0.5,3.8,1.6
		c0.9,1.1,1.3,2.7,1.3,4.8c0,1-0.1,1.8-0.4,2.6c-0.3,0.8-0.6,1.5-1.1,2c-0.5,0.6-1.1,1-1.9,1.3c-0.8,0.3-1.6,0.5-2.6,0.5
		c-0.4,0-0.7,0-1.1-0.1c-0.4-0.1-0.7-0.1-1-0.2v5.1h-2.2V9.6z M250.4,17.6c0.3,0.1,0.6,0.2,1,0.2c0.4,0.1,0.8,0.1,1.2,0.1
		c1.2,0,2.1-0.4,2.7-1.3c0.6-0.8,0.9-2,0.9-3.6c0-1.5-0.2-2.7-0.7-3.5c-0.4-0.8-1.2-1.3-2.2-1.3c-0.6,0-1.1,0.1-1.5,0.3
		s-0.9,0.5-1.4,1V17.6z"/>
	<path class="st0" d="M261.5,7.1h2.2v7.8c0,0.9,0.2,1.7,0.5,2.2c0.4,0.5,1,0.8,1.8,0.8c0.7,0,1.3-0.1,1.7-0.3
		c0.4-0.2,0.9-0.5,1.2-0.8V7.1h2.2v9.7l1,1.5l-1.6,1.2l-1.1-1.3c-0.6,0.5-1.3,0.9-1.9,1.1c-0.6,0.2-1.3,0.3-2,0.3
		c-0.9,0-1.6-0.1-2.1-0.4c-0.5-0.2-1-0.6-1.3-1c-0.3-0.4-0.5-0.9-0.6-1.5c-0.1-0.6-0.2-1.2-0.2-1.8V7.1z"/>
	<path class="st0" d="M284.3,18.6c-0.4,0.2-0.9,0.4-1.7,0.6c-0.7,0.2-1.5,0.3-2.3,0.3c-1.1,0-2-0.2-2.8-0.5
		c-0.7-0.3-1.3-0.7-1.8-1.3c-0.4-0.6-0.8-1.2-0.9-2c-0.2-0.8-0.3-1.7-0.3-2.6c0-0.9,0.1-1.7,0.3-2.5c0.2-0.8,0.5-1.5,1-2.1
		c0.4-0.6,1-1,1.7-1.4c0.7-0.3,1.5-0.5,2.4-0.5c0.9,0,1.7,0.2,2.3,0.6c0.6,0.4,1.1,0.8,1.5,1.4s0.6,1.2,0.8,2
		c0.2,0.7,0.3,1.5,0.3,2.2l-0.8,0.8h-7.1c0.1,1.4,0.4,2.5,0.9,3.1c0.6,0.7,1.4,1,2.6,1c0.6,0,1.2-0.1,1.7-0.2
		c0.5-0.1,1.1-0.3,1.5-0.5L284.3,18.6z M282.5,12.1c0-1.3-0.2-2.2-0.7-2.9s-1.2-1-2.1-1c-1,0-1.7,0.3-2.1,1s-0.7,1.6-0.7,2.9H282.5z
		"/>
	<path class="st0" d="M296,18.2c-0.5,0.4-1,0.7-1.6,0.9s-1.3,0.4-2.1,0.4c-1.6,0-2.9-0.5-3.7-1.6c-0.8-1.1-1.2-2.7-1.2-4.8
		c0-1,0.1-1.8,0.4-2.6s0.6-1.5,1.1-2c0.5-0.6,1.1-1,1.8-1.3c0.7-0.3,1.6-0.5,2.5-0.5c0.4,0,0.8,0,1.2,0.1c0.4,0.1,0.7,0.1,1,0.2V1.4
		h2.2v15.3l1,1.5l-1.6,1.2L296,18.2z M295.4,8.6c-0.2-0.1-0.5-0.2-0.9-0.2c-0.4-0.1-0.8-0.1-1.3-0.1c-1.2,0-2.1,0.4-2.7,1.2
		c-0.6,0.8-0.9,2-0.9,3.6c0,1.5,0.2,2.7,0.7,3.5c0.5,0.8,1.2,1.3,2.3,1.3c0.7,0,1.2-0.1,1.6-0.3c0.4-0.2,0.8-0.5,1.1-0.8V8.6z"/>
	<path class="st0" d="M310.6,18.6c-0.4,0.2-0.9,0.4-1.7,0.6c-0.7,0.2-1.5,0.3-2.3,0.3c-1.1,0-2-0.2-2.8-0.5
		c-0.7-0.3-1.3-0.7-1.8-1.3c-0.4-0.6-0.8-1.2-0.9-2c-0.2-0.8-0.3-1.7-0.3-2.6c0-0.9,0.1-1.7,0.3-2.5c0.2-0.8,0.5-1.5,1-2.1
		c0.4-0.6,1-1,1.7-1.4c0.7-0.3,1.5-0.5,2.4-0.5c0.9,0,1.7,0.2,2.3,0.6c0.6,0.4,1.1,0.8,1.5,1.4s0.6,1.2,0.8,2
		c0.2,0.7,0.3,1.5,0.3,2.2l-0.8,0.8h-7.1c0.1,1.4,0.4,2.5,0.9,3.1c0.6,0.7,1.4,1,2.6,1c0.6,0,1.2-0.1,1.7-0.2
		c0.5-0.1,1.1-0.3,1.5-0.5L310.6,18.6z M308.8,12.1c0-1.3-0.2-2.2-0.7-2.9s-1.2-1-2.1-1c-1,0-1.7,0.3-2.1,1s-0.7,1.6-0.7,2.9H308.8z
		"/>
	<path class="st0" d="M316.9,7.2l2.3-0.4l3.1,10.3c0.1,0.3,0.2,0.5,0.2,0.6c0.1,0.1,0.2,0.2,0.4,0.2c0.2,0,0.3-0.1,0.4-0.2
		c0.1-0.1,0.1-0.3,0.2-0.6l3.1-10.3l1.9,0.4l-3.1,9.9c-0.2,0.8-0.6,1.4-0.9,1.8c-0.4,0.4-0.9,0.6-1.6,0.6c-0.5,0-0.9,0-1.2-0.1
		s-0.6-0.2-0.8-0.4c-0.2-0.2-0.4-0.4-0.5-0.7s-0.3-0.7-0.4-1.1L316.9,7.2z"/>
	<path class="st0" d="M337.6,18.1c-0.5,0.4-1,0.7-1.6,1c-0.6,0.3-1.3,0.4-2.2,0.4c-1.2,0-2.1-0.3-2.9-0.9s-1.1-1.6-1.1-2.9
		c0-0.7,0.1-1.3,0.4-1.8c0.2-0.5,0.6-0.9,1-1.2c0.4-0.3,1-0.5,1.6-0.7c0.6-0.1,1.3-0.2,2.1-0.2h2.1v-0.6c0-1-0.2-1.7-0.5-2.2
		c-0.3-0.4-0.9-0.7-1.8-0.7c-1.2,0-2.3,0.2-3.5,0.7l-0.6-1.5c0.5-0.2,1.1-0.4,1.8-0.6c0.7-0.2,1.6-0.3,2.6-0.3
		c0.9,0,1.7,0.1,2.2,0.4c0.5,0.3,1,0.6,1.2,1.1c0.3,0.4,0.5,1,0.5,1.6c0.1,0.6,0.1,1.3,0.1,1.9v5.2l1,1.5l-1.6,1.2L337.6,18.1z
		 M337.1,13.2h-1.9c-1.1,0-1.9,0.2-2.4,0.5c-0.5,0.3-0.7,0.9-0.7,1.8c0,0.8,0.2,1.4,0.5,1.7s0.8,0.6,1.5,0.6c0.7,0,1.3-0.1,1.8-0.4
		s0.9-0.5,1.1-0.8V13.2z"/>
	<path class="st0" d="M343.4,8.7h-1.5V7.1h3.1l0.4,1.6c0.2-0.2,0.4-0.4,0.6-0.6c0.2-0.2,0.5-0.4,0.7-0.5c0.3-0.2,0.6-0.3,0.9-0.4
		C348,7,348.4,7,348.9,7c0.6,0,1.1,0.1,1.5,0.2l-0.6,2c-0.2-0.1-0.4-0.1-0.6-0.2s-0.5,0-0.7,0c-1.2,0-2.1,0.4-2.8,1.2v9h-2.2V8.7z"
		/>
	<path class="st0" d="M352.6,8.7H351V7.1h3.8v12h-2.2V8.7z M353.4,4.8c-0.5,0-0.8-0.2-1.1-0.5c-0.3-0.3-0.4-0.7-0.4-1.2
		c0-0.5,0.1-0.9,0.4-1.2c0.3-0.3,0.6-0.5,1.1-0.5c0.5,0,0.9,0.2,1.1,0.5c0.3,0.3,0.4,0.7,0.4,1.2c0,0.5-0.1,0.8-0.4,1.2
		C354.3,4.7,353.9,4.8,353.4,4.8z"/>
	<path class="st0" d="M365.4,18.1c-0.5,0.4-1,0.7-1.6,1c-0.6,0.3-1.3,0.4-2.2,0.4c-1.2,0-2.1-0.3-2.9-0.9s-1.1-1.6-1.1-2.9
		c0-0.7,0.1-1.3,0.4-1.8c0.2-0.5,0.6-0.9,1-1.2c0.4-0.3,1-0.5,1.6-0.7c0.6-0.1,1.3-0.2,2.1-0.2h2.1v-0.6c0-1-0.2-1.7-0.5-2.2
		c-0.3-0.4-0.9-0.7-1.8-0.7c-1.2,0-2.3,0.2-3.5,0.7l-0.6-1.5c0.5-0.2,1.1-0.4,1.8-0.6c0.7-0.2,1.6-0.3,2.6-0.3
		c0.9,0,1.7,0.1,2.2,0.4c0.5,0.3,1,0.6,1.2,1.1c0.3,0.4,0.5,1,0.5,1.6c0.1,0.6,0.1,1.3,0.1,1.9v5.2l1,1.5l-1.6,1.2L365.4,18.1z
		 M364.9,13.2H363c-1.1,0-1.9,0.2-2.4,0.5c-0.5,0.3-0.7,0.9-0.7,1.8c0,0.8,0.2,1.4,0.5,1.7s0.8,0.6,1.5,0.6c0.7,0,1.3-0.1,1.8-0.4
		s0.9-0.5,1.1-0.8V13.2z"/>
	<path class="st0" d="M371.2,8.7h-1.5V7.1h3.1l0.4,1.6c0.2-0.2,0.4-0.4,0.6-0.6c0.2-0.2,0.5-0.4,0.7-0.5c0.3-0.2,0.6-0.3,0.9-0.4
		c0.3-0.1,0.7-0.1,1.2-0.1c0.6,0,1.1,0.1,1.5,0.2l-0.6,2c-0.2-0.1-0.4-0.1-0.6-0.2s-0.5,0-0.7,0c-1.2,0-2.1,0.4-2.8,1.2v9h-2.2V8.7z
		"/>
	<path class="st0" d="M393.5,18.6c-0.4,0.2-1,0.5-1.6,0.7c-0.6,0.2-1.4,0.3-2.2,0.3c-1.1,0-2-0.2-2.7-0.5c-0.7-0.3-1.3-0.7-1.7-1.3
		s-0.7-1.2-0.9-2c-0.2-0.8-0.3-1.6-0.3-2.6c0-0.9,0.1-1.8,0.3-2.6c0.2-0.8,0.6-1.5,1-2.1s1.1-1.1,1.8-1.4c0.7-0.3,1.6-0.5,2.6-0.5
		c0.7,0,1.4,0.1,2,0.3s1.1,0.4,1.6,0.7l-0.7,1.5c-0.4-0.2-0.9-0.4-1.4-0.6c-0.5-0.2-1-0.2-1.6-0.2c-1.2,0-2.1,0.4-2.6,1.2
		c-0.6,0.8-0.8,2-0.8,3.7c0,0.7,0.1,1.4,0.2,1.9c0.1,0.6,0.3,1.1,0.6,1.5c0.3,0.4,0.6,0.7,1.1,0.9c0.4,0.2,1,0.3,1.7,0.3
		c0.5,0,1,0,1.5-0.1c0.4-0.1,1-0.3,1.6-0.6L393.5,18.6z"/>
	<path class="st0" d="M400.5,19.5c-1,0-1.9-0.2-2.6-0.5c-0.7-0.3-1.2-0.8-1.7-1.3c-0.4-0.6-0.7-1.3-0.9-2c-0.2-0.8-0.3-1.6-0.3-2.6
		s0.1-1.8,0.3-2.6c0.2-0.8,0.6-1.5,1-2.1c0.4-0.6,1-1,1.7-1.3c0.7-0.3,1.5-0.5,2.4-0.5c1,0,1.8,0.2,2.5,0.5c0.7,0.3,1.3,0.8,1.7,1.3
		c0.4,0.6,0.8,1.2,1,2c0.2,0.8,0.3,1.7,0.3,2.6c0,0.9-0.1,1.8-0.3,2.6s-0.5,1.5-1,2c-0.4,0.6-1,1-1.7,1.3
		C402.3,19.4,401.5,19.5,400.5,19.5z M400.6,18c1.2,0,2-0.4,2.4-1.2c0.5-0.8,0.7-2,0.7-3.6c0-1.5-0.2-2.7-0.7-3.5s-1.3-1.2-2.4-1.2
		c-1.2,0-2,0.4-2.5,1.2c-0.5,0.8-0.7,2-0.7,3.6c0,0.8,0.1,1.4,0.2,2c0.1,0.6,0.3,1.1,0.5,1.5c0.2,0.4,0.6,0.7,1,1
		C399.5,17.8,400,18,400.6,18z"/>
	<path class="st0" d="M409.4,9.6l-0.9-2l1.8-0.9l1,1.6c0.7-0.5,1.4-0.9,2-1.2c0.6-0.2,1.3-0.4,2-0.4c0.8,0,1.5,0.1,2,0.4
		s1,0.6,1.3,1s0.5,0.9,0.7,1.5c0.1,0.6,0.2,1.2,0.2,1.8v7.8h-2.2v-7.7c0-1-0.2-1.7-0.6-2.2c-0.4-0.4-1-0.7-1.8-0.7
		c-0.6,0-1.2,0.1-1.7,0.3c-0.6,0.2-1,0.5-1.4,0.8v9.4h-2.2V9.6z"/>
	<path class="st0" d="M428.1,8.7h-1.5V7.1h3.1l0.4,1.6c0.2-0.2,0.4-0.4,0.6-0.6c0.2-0.2,0.5-0.4,0.7-0.5c0.3-0.2,0.6-0.3,0.9-0.4
		c0.3-0.1,0.7-0.1,1.2-0.1c0.6,0,1.1,0.1,1.5,0.2l-0.6,2c-0.2-0.1-0.4-0.1-0.6-0.2s-0.5,0-0.7,0c-1.2,0-2.1,0.4-2.8,1.2v9h-2.2V8.7z
		"/>
	<path class="st0" d="M445.8,18.6c-0.4,0.2-0.9,0.4-1.7,0.6c-0.7,0.2-1.5,0.3-2.3,0.3c-1.1,0-2-0.2-2.8-0.5
		c-0.7-0.3-1.3-0.7-1.8-1.3c-0.4-0.6-0.8-1.2-0.9-2c-0.2-0.8-0.3-1.7-0.3-2.6c0-0.9,0.1-1.7,0.3-2.5c0.2-0.8,0.5-1.5,1-2.1
		c0.4-0.6,1-1,1.7-1.4c0.7-0.3,1.5-0.5,2.4-0.5c0.9,0,1.7,0.2,2.3,0.6c0.6,0.4,1.1,0.8,1.5,1.4s0.6,1.2,0.8,2
		c0.2,0.7,0.3,1.5,0.3,2.2l-0.8,0.8h-7.1c0.1,1.4,0.4,2.5,0.9,3.1c0.6,0.7,1.4,1,2.6,1c0.6,0,1.2-0.1,1.7-0.2
		c0.5-0.1,1.1-0.3,1.5-0.5L445.8,18.6z M444,12.1c0-1.3-0.2-2.2-0.7-2.9s-1.2-1-2.1-1c-1,0-1.7,0.3-2.1,1s-0.7,1.6-0.7,2.9H444z"/>
	<path class="st0" d="M448.9,16.8c0.4,0.2,0.9,0.4,1.5,0.7s1.4,0.4,2.2,0.4c0.8,0,1.5-0.1,2-0.4s0.7-0.8,0.7-1.4
		c0-0.4-0.1-0.7-0.2-0.9c-0.2-0.2-0.4-0.4-0.6-0.6c-0.3-0.2-0.6-0.3-0.9-0.4c-0.4-0.1-0.7-0.2-1.1-0.3c-0.4-0.1-0.9-0.2-1.3-0.4
		c-0.4-0.2-0.8-0.4-1.2-0.6c-0.3-0.3-0.6-0.6-0.8-1c-0.2-0.4-0.3-0.9-0.3-1.5c0-0.5,0.1-1,0.3-1.5c0.2-0.4,0.5-0.8,0.9-1.2
		s0.9-0.6,1.4-0.8s1.2-0.3,2-0.3c0.8,0,1.5,0.1,2.2,0.3s1.2,0.4,1.7,0.7L456.4,9c-1-0.5-2.1-0.8-3.2-0.8c-0.8,0-1.4,0.1-1.8,0.4
		c-0.4,0.3-0.7,0.7-0.7,1.3c0,0.4,0.1,0.6,0.2,0.9c0.1,0.2,0.3,0.4,0.6,0.6s0.5,0.3,0.9,0.4c0.3,0.1,0.7,0.2,1,0.3
		c0.4,0.1,0.9,0.3,1.3,0.4s0.9,0.3,1.3,0.6c0.4,0.3,0.7,0.6,0.9,1s0.4,1,0.4,1.6c0,1.2-0.4,2.1-1.1,2.8c-0.8,0.7-1.9,1-3.5,1
		c-1.1,0-2-0.1-2.7-0.4c-0.8-0.3-1.3-0.5-1.7-0.8L448.9,16.8z"/>
	<path class="st0" d="M460.3,9.6l-1-2l1.8-0.9l1,1.5c0.4-0.4,0.9-0.7,1.4-1s1.2-0.5,2-0.5c1.6,0,2.9,0.5,3.8,1.6
		c0.9,1.1,1.3,2.7,1.3,4.8c0,1-0.1,1.8-0.4,2.6c-0.3,0.8-0.6,1.5-1.1,2c-0.5,0.6-1.1,1-1.9,1.3c-0.8,0.3-1.6,0.5-2.6,0.5
		c-0.4,0-0.7,0-1.1-0.1c-0.4-0.1-0.7-0.1-1-0.2v5.1h-2.2V9.6z M462.5,17.6c0.3,0.1,0.6,0.2,1,0.2c0.4,0.1,0.8,0.1,1.2,0.1
		c1.2,0,2.1-0.4,2.7-1.3c0.6-0.8,0.9-2,0.9-3.6c0-1.5-0.2-2.7-0.7-3.5c-0.4-0.8-1.2-1.3-2.2-1.3c-0.6,0-1.1,0.1-1.5,0.3
		s-0.9,0.5-1.4,1V17.6z"/>
	<path class="st0" d="M483,18.6c-0.4,0.2-0.9,0.4-1.7,0.6c-0.7,0.2-1.5,0.3-2.3,0.3c-1.1,0-2-0.2-2.8-0.5c-0.7-0.3-1.3-0.7-1.8-1.3
		c-0.4-0.6-0.8-1.2-0.9-2c-0.2-0.8-0.3-1.7-0.3-2.6c0-0.9,0.1-1.7,0.3-2.5c0.2-0.8,0.5-1.5,1-2.1c0.4-0.6,1-1,1.7-1.4
		c0.7-0.3,1.5-0.5,2.4-0.5c0.9,0,1.7,0.2,2.3,0.6c0.6,0.4,1.1,0.8,1.5,1.4s0.6,1.2,0.8,2c0.2,0.7,0.3,1.5,0.3,2.2l-0.8,0.8h-7.1
		c0.1,1.4,0.4,2.5,0.9,3.1c0.6,0.7,1.4,1,2.6,1c0.6,0,1.2-0.1,1.7-0.2c0.5-0.1,1.1-0.3,1.5-0.5L483,18.6z M481.2,12.1
		c0-1.3-0.2-2.2-0.7-2.9s-1.2-1-2.1-1c-1,0-1.7,0.3-2.1,1s-0.7,1.6-0.7,2.9H481.2z"/>
	<path class="st0" d="M495.6,18.6c-0.4,0.2-1,0.5-1.6,0.7c-0.6,0.2-1.4,0.3-2.2,0.3c-1.1,0-2-0.2-2.7-0.5c-0.7-0.3-1.3-0.7-1.7-1.3
		s-0.7-1.2-0.9-2c-0.2-0.8-0.3-1.6-0.3-2.6c0-0.9,0.1-1.8,0.3-2.6c0.2-0.8,0.6-1.5,1-2.1s1.1-1.1,1.8-1.4c0.7-0.3,1.6-0.5,2.6-0.5
		c0.7,0,1.4,0.1,2,0.3s1.1,0.4,1.6,0.7l-0.7,1.5c-0.4-0.2-0.9-0.4-1.4-0.6c-0.5-0.2-1-0.2-1.6-0.2c-1.2,0-2.1,0.4-2.6,1.2
		c-0.6,0.8-0.8,2-0.8,3.7c0,0.7,0.1,1.4,0.2,1.9c0.1,0.6,0.3,1.1,0.6,1.5c0.3,0.4,0.6,0.7,1.1,0.9c0.4,0.2,1,0.3,1.7,0.3
		c0.5,0,1,0,1.5-0.1c0.4-0.1,1-0.3,1.6-0.6L495.6,18.6z"/>
	<path class="st0" d="M498.7,8.7h-2.2V7.1h2.3V3.5h2.2v3.6h3.6v1.6h-3.6v6.9c0,0.5,0,0.8,0.1,1.1s0.2,0.5,0.3,0.6
		c0.2,0.2,0.3,0.3,0.5,0.3c0.2,0.1,0.4,0.1,0.7,0.1s0.5,0,0.9-0.1c0.3-0.1,0.6-0.2,0.9-0.3l0.5,1.5c-0.3,0.1-0.7,0.3-1.2,0.4
		s-1,0.2-1.5,0.2c-0.6,0-1.1-0.1-1.5-0.2c-0.4-0.1-0.8-0.3-1.1-0.6c-0.3-0.3-0.5-0.6-0.7-1.1s-0.3-1-0.3-1.7V8.7z"/>
	<path class="st0" d="M511.5,19.5c-1,0-1.9-0.2-2.6-0.5c-0.7-0.3-1.2-0.8-1.7-1.3c-0.4-0.6-0.7-1.3-0.9-2c-0.2-0.8-0.3-1.6-0.3-2.6
		s0.1-1.8,0.3-2.6c0.2-0.8,0.6-1.5,1-2.1c0.4-0.6,1-1,1.7-1.3c0.7-0.3,1.5-0.5,2.4-0.5c1,0,1.8,0.2,2.5,0.5c0.7,0.3,1.3,0.8,1.7,1.3
		c0.4,0.6,0.8,1.2,1,2c0.2,0.8,0.3,1.7,0.3,2.6c0,0.9-0.1,1.8-0.3,2.6s-0.5,1.5-1,2c-0.4,0.6-1,1-1.7,1.3
		C513.4,19.4,512.5,19.5,511.5,19.5z M511.6,18c1.2,0,2-0.4,2.4-1.2c0.5-0.8,0.7-2,0.7-3.6c0-1.5-0.2-2.7-0.7-3.5s-1.3-1.2-2.4-1.2
		c-1.2,0-2,0.4-2.5,1.2c-0.5,0.8-0.7,2-0.7,3.6c0,0.8,0.1,1.4,0.2,2c0.1,0.6,0.3,1.1,0.5,1.5c0.2,0.4,0.6,0.7,1,1
		C510.6,17.8,511,18,511.6,18z"/>
	<path class="st0" d="M531.8,18.1c-0.5,0.4-1,0.7-1.6,1c-0.6,0.3-1.3,0.4-2.2,0.4c-1.2,0-2.1-0.3-2.9-0.9s-1.1-1.6-1.1-2.9
		c0-0.7,0.1-1.3,0.4-1.8c0.2-0.5,0.6-0.9,1-1.2c0.4-0.3,1-0.5,1.6-0.7c0.6-0.1,1.3-0.2,2.1-0.2h2.1v-0.6c0-1-0.2-1.7-0.5-2.2
		c-0.3-0.4-0.9-0.7-1.8-0.7c-1.2,0-2.3,0.2-3.5,0.7l-0.6-1.5c0.5-0.2,1.1-0.4,1.8-0.6c0.7-0.2,1.6-0.3,2.6-0.3
		c0.9,0,1.7,0.1,2.2,0.4c0.5,0.3,1,0.6,1.2,1.1c0.3,0.4,0.5,1,0.5,1.6c0.1,0.6,0.1,1.3,0.1,1.9v5.2l1,1.5l-1.6,1.2L531.8,18.1z
		 M531.3,13.2h-1.9c-1.1,0-1.9,0.2-2.4,0.5c-0.5,0.3-0.7,0.9-0.7,1.8c0,0.8,0.2,1.4,0.5,1.7s0.8,0.6,1.5,0.6c0.7,0,1.3-0.1,1.8-0.4
		s0.9-0.5,1.1-0.8V13.2z"/>
	<path class="st0" d="M542,3h-1.5V1.5h3.7v17.6H542V3z"/>
	<path class="st0" d="M554.8,18.1c-0.5,0.4-1,0.7-1.6,1c-0.6,0.3-1.3,0.4-2.2,0.4c-1.2,0-2.1-0.3-2.9-0.9s-1.1-1.6-1.1-2.9
		c0-0.7,0.1-1.3,0.4-1.8c0.2-0.5,0.6-0.9,1-1.2c0.4-0.3,1-0.5,1.6-0.7c0.6-0.1,1.3-0.2,2.1-0.2h2.1v-0.6c0-1-0.2-1.7-0.5-2.2
		c-0.3-0.4-0.9-0.7-1.8-0.7c-1.2,0-2.3,0.2-3.5,0.7L548,7.6c0.5-0.2,1.1-0.4,1.8-0.6c0.7-0.2,1.6-0.3,2.6-0.3c0.9,0,1.7,0.1,2.2,0.4
		c0.5,0.3,1,0.6,1.2,1.1c0.3,0.4,0.5,1,0.5,1.6c0.1,0.6,0.1,1.3,0.1,1.9v5.2l1,1.5l-1.6,1.2L554.8,18.1z M554.3,13.2h-1.9
		c-1.1,0-1.9,0.2-2.4,0.5c-0.5,0.3-0.7,0.9-0.7,1.8c0,0.8,0.2,1.4,0.5,1.7s0.8,0.6,1.5,0.6c0.7,0,1.3-0.1,1.8-0.4s0.9-0.5,1.1-0.8
		V13.2z"/>
	<path class="st0" d="M559.8,16.8c0.4,0.2,0.9,0.4,1.5,0.7s1.4,0.4,2.2,0.4c0.8,0,1.5-0.1,2-0.4s0.7-0.8,0.7-1.4
		c0-0.4-0.1-0.7-0.2-0.9c-0.2-0.2-0.4-0.4-0.6-0.6c-0.3-0.2-0.6-0.3-0.9-0.4c-0.4-0.1-0.7-0.2-1.1-0.3c-0.4-0.1-0.9-0.2-1.3-0.4
		c-0.4-0.2-0.8-0.4-1.2-0.6c-0.3-0.3-0.6-0.6-0.8-1c-0.2-0.4-0.3-0.9-0.3-1.5c0-0.5,0.1-1,0.3-1.5c0.2-0.4,0.5-0.8,0.9-1.2
		s0.9-0.6,1.4-0.8s1.2-0.3,2-0.3c0.8,0,1.5,0.1,2.2,0.3s1.2,0.4,1.7,0.7L567.3,9c-1-0.5-2.1-0.8-3.2-0.8c-0.8,0-1.4,0.1-1.8,0.4
		c-0.4,0.3-0.7,0.7-0.7,1.3c0,0.4,0.1,0.6,0.2,0.9c0.1,0.2,0.3,0.4,0.6,0.6s0.5,0.3,0.9,0.4c0.3,0.1,0.7,0.2,1,0.3
		c0.4,0.1,0.9,0.3,1.3,0.4s0.9,0.3,1.3,0.6c0.4,0.3,0.7,0.6,0.9,1s0.4,1,0.4,1.6c0,1.2-0.4,2.1-1.1,2.8c-0.8,0.7-1.9,1-3.5,1
		c-1.1,0-2-0.1-2.7-0.4c-0.8-0.3-1.3-0.5-1.7-0.8L559.8,16.8z"/>
	<path class="st0" d="M576,8.7h-1.5V7.1h3.8v12H576V8.7z M576.9,4.8c-0.5,0-0.8-0.2-1.1-0.5c-0.3-0.3-0.4-0.7-0.4-1.2
		c0-0.5,0.1-0.9,0.4-1.2c0.3-0.3,0.6-0.5,1.1-0.5c0.5,0,0.9,0.2,1.1,0.5c0.3,0.3,0.4,0.7,0.4,1.2c0,0.5-0.1,0.8-0.4,1.2
		C577.7,4.7,577.3,4.8,576.9,4.8z"/>
	<path class="st0" d="M582.2,9.6l-0.9-2l1.8-0.9l1,1.6c0.7-0.6,1.3-1,1.9-1.2c0.6-0.2,1.2-0.3,1.7-0.3c0.9,0,1.5,0.1,2,0.4
		s0.8,0.6,1.1,1.1c0.7-0.6,1.4-1,2.1-1.2c0.7-0.2,1.3-0.3,1.7-0.3c0.8,0,1.5,0.1,2,0.4s0.9,0.6,1.2,1s0.4,0.9,0.5,1.5
		c0.1,0.6,0.1,1.2,0.1,1.8v7.8h-2.2v-7.8c0-0.9-0.1-1.6-0.4-2.1c-0.3-0.4-0.8-0.7-1.6-0.7c-0.5,0-0.9,0.1-1.4,0.3s-1,0.5-1.4,0.8
		c0,0.2,0.1,0.5,0.1,0.8c0,0.3,0,0.6,0,0.9v7.8h-2.2v-7.9c0-0.9-0.1-1.6-0.4-2c-0.3-0.4-0.8-0.7-1.6-0.7c-0.4,0-0.9,0.1-1.4,0.3
		c-0.5,0.2-0.9,0.5-1.3,0.8v9.5h-2.2V9.6z"/>
	<path class="st0" d="M609,18.1c-0.5,0.4-1,0.7-1.6,1c-0.6,0.3-1.3,0.4-2.2,0.4c-1.2,0-2.1-0.3-2.9-0.9s-1.1-1.6-1.1-2.9
		c0-0.7,0.1-1.3,0.4-1.8c0.2-0.5,0.6-0.9,1-1.2c0.4-0.3,1-0.5,1.6-0.7c0.6-0.1,1.3-0.2,2.1-0.2h2.1v-0.6c0-1-0.2-1.7-0.5-2.2
		c-0.3-0.4-0.9-0.7-1.8-0.7c-1.2,0-2.3,0.2-3.5,0.7l-0.6-1.5c0.5-0.2,1.1-0.4,1.8-0.6c0.7-0.2,1.6-0.3,2.6-0.3
		c0.9,0,1.7,0.1,2.2,0.4c0.5,0.3,1,0.6,1.2,1.1c0.3,0.4,0.5,1,0.5,1.6c0.1,0.6,0.1,1.3,0.1,1.9v5.2l1,1.5l-1.6,1.2L609,18.1z
		 M608.5,13.2h-1.9c-1.1,0-1.9,0.2-2.4,0.5c-0.5,0.3-0.7,0.9-0.7,1.8c0,0.8,0.2,1.4,0.5,1.7s0.8,0.6,1.5,0.6c0.7,0,1.3-0.1,1.8-0.4
		s0.9-0.5,1.1-0.8V13.2z M607.7,0l1.8,1.2L606,5.1l-1.1-0.8L607.7,0z"/>
	<path class="st0" d="M615.2,22c0.4,0.2,0.9,0.4,1.5,0.6c0.5,0.2,1.2,0.3,2,0.3c1.3,0,2.1-0.3,2.6-0.9c0.5-0.6,0.7-1.5,0.7-2.7v-0.5
		c-0.4,0.2-0.8,0.3-1.3,0.5c-0.4,0.1-0.9,0.2-1.4,0.2c-1.8,0-3.1-0.5-4-1.5s-1.3-2.6-1.3-4.7c0-0.9,0.1-1.7,0.3-2.5s0.4-1.5,0.8-2.1
		c0.4-0.6,0.9-1.1,1.6-1.4s1.5-0.5,2.4-0.5c0.4,0,0.8,0,1.1,0.1c0.3,0.1,0.7,0.2,0.9,0.3c0.3,0.1,0.5,0.3,0.7,0.4
		c0.2,0.2,0.4,0.3,0.5,0.4l1-1.4l1.8,0.9l-0.9,2v10.1c0,1.5-0.4,2.7-1.3,3.6c-0.9,0.9-2.2,1.3-4.1,1.3c-0.8,0-1.6-0.1-2.3-0.2
		c-0.7-0.1-1.4-0.4-1.9-0.7L615.2,22z M621.9,9.5c-0.3-0.3-0.6-0.5-1-0.8c-0.4-0.3-1-0.4-1.7-0.4c-1,0-1.7,0.4-2.2,1.2
		c-0.5,0.8-0.8,2-0.8,3.7c0,1.5,0.2,2.6,0.7,3.4c0.5,0.8,1.3,1.2,2.4,1.2c0.5,0,1-0.1,1.3-0.2c0.4-0.1,0.8-0.3,1.2-0.5V9.5z"/>
	<path class="st0" d="M637.2,18.6c-0.4,0.2-0.9,0.4-1.7,0.6c-0.7,0.2-1.5,0.3-2.3,0.3c-1.1,0-2-0.2-2.8-0.5
		c-0.7-0.3-1.3-0.7-1.8-1.3c-0.4-0.6-0.8-1.2-0.9-2c-0.2-0.8-0.3-1.7-0.3-2.6c0-0.9,0.1-1.7,0.3-2.5c0.2-0.8,0.5-1.5,1-2.1
		c0.4-0.6,1-1,1.7-1.4c0.7-0.3,1.5-0.5,2.4-0.5c0.9,0,1.7,0.2,2.3,0.6c0.6,0.4,1.1,0.8,1.5,1.4s0.6,1.2,0.8,2
		c0.2,0.7,0.3,1.5,0.3,2.2l-0.8,0.8h-7.1c0.1,1.4,0.4,2.5,0.9,3.1c0.6,0.7,1.4,1,2.6,1c0.6,0,1.2-0.1,1.7-0.2
		c0.5-0.1,1.1-0.3,1.5-0.5L637.2,18.6z M635.4,12.1c0-1.3-0.2-2.2-0.7-2.9s-1.2-1-2.1-1c-1,0-1.7,0.3-2.1,1s-0.7,1.6-0.7,2.9H635.4z
		"/>
	<path class="st0" d="M640.9,9.6l-0.9-2l1.8-0.9l1,1.6c0.7-0.5,1.4-0.9,2-1.2c0.6-0.2,1.3-0.4,2-0.4c0.8,0,1.5,0.1,2,0.4
		s1,0.6,1.3,1s0.5,0.9,0.7,1.5c0.1,0.6,0.2,1.2,0.2,1.8v7.8h-2.2v-7.7c0-1-0.2-1.7-0.6-2.2c-0.4-0.4-1-0.7-1.8-0.7
		c-0.6,0-1.2,0.1-1.7,0.3c-0.6,0.2-1,0.5-1.4,0.8v9.4h-2.2V9.6z"/>
	<path class="st0" d="M663.8,18.6c-0.4,0.2-0.9,0.4-1.7,0.6c-0.7,0.2-1.5,0.3-2.3,0.3c-1.1,0-2-0.2-2.8-0.5
		c-0.7-0.3-1.3-0.7-1.8-1.3c-0.4-0.6-0.8-1.2-0.9-2c-0.2-0.8-0.3-1.7-0.3-2.6c0-0.9,0.1-1.7,0.3-2.5c0.2-0.8,0.5-1.5,1-2.1
		c0.4-0.6,1-1,1.7-1.4c0.7-0.3,1.5-0.5,2.4-0.5c0.9,0,1.7,0.2,2.3,0.6c0.6,0.4,1.1,0.8,1.5,1.4s0.6,1.2,0.8,2
		c0.2,0.7,0.3,1.5,0.3,2.2l-0.8,0.8h-7.1c0.1,1.4,0.4,2.5,0.9,3.1c0.6,0.7,1.4,1,2.6,1c0.6,0,1.2-0.1,1.7-0.2
		c0.5-0.1,1.1-0.3,1.5-0.5L663.8,18.6z M662,12.1c0-1.3-0.2-2.2-0.7-2.9s-1.2-1-2.1-1c-1,0-1.7,0.3-2.1,1s-0.7,1.6-0.7,2.9H662z"/>
	<path class="st0" d="M666.9,16.8c0.4,0.2,0.9,0.4,1.5,0.7s1.4,0.4,2.2,0.4c0.8,0,1.5-0.1,2-0.4s0.7-0.8,0.7-1.4
		c0-0.4-0.1-0.7-0.2-0.9c-0.2-0.2-0.4-0.4-0.6-0.6c-0.3-0.2-0.6-0.3-0.9-0.4c-0.4-0.1-0.7-0.2-1.1-0.3c-0.4-0.1-0.9-0.2-1.3-0.4
		c-0.4-0.2-0.8-0.4-1.2-0.6c-0.3-0.3-0.6-0.6-0.8-1c-0.2-0.4-0.3-0.9-0.3-1.5c0-0.5,0.1-1,0.3-1.5c0.2-0.4,0.5-0.8,0.9-1.2
		s0.9-0.6,1.4-0.8s1.2-0.3,2-0.3c0.8,0,1.5,0.1,2.2,0.3s1.2,0.4,1.7,0.7L674.4,9c-1-0.5-2.1-0.8-3.2-0.8c-0.8,0-1.4,0.1-1.8,0.4
		c-0.4,0.3-0.7,0.7-0.7,1.3c0,0.4,0.1,0.6,0.2,0.9c0.1,0.2,0.3,0.4,0.6,0.6s0.5,0.3,0.9,0.4c0.3,0.1,0.7,0.2,1,0.3
		c0.4,0.1,0.9,0.3,1.3,0.4s0.9,0.3,1.3,0.6c0.4,0.3,0.7,0.6,0.9,1s0.4,1,0.4,1.6c0,1.2-0.4,2.1-1.1,2.8c-0.8,0.7-1.9,1-3.5,1
		c-1.1,0-2-0.1-2.7-0.4c-0.8-0.3-1.3-0.5-1.7-0.8L666.9,16.8z"/>
	<path class="st0" d="M691,18.2c-0.5,0.4-1,0.7-1.6,0.9s-1.3,0.4-2.1,0.4c-1.6,0-2.9-0.5-3.7-1.6c-0.8-1.1-1.2-2.7-1.2-4.8
		c0-1,0.1-1.8,0.4-2.6s0.6-1.5,1.1-2c0.5-0.6,1.1-1,1.8-1.3c0.7-0.3,1.6-0.5,2.5-0.5c0.4,0,0.8,0,1.2,0.1c0.4,0.1,0.7,0.1,1,0.2V1.4
		h2.2v15.3l1,1.5l-1.6,1.2L691,18.2z M690.4,8.6c-0.2-0.1-0.5-0.2-0.9-0.2c-0.4-0.1-0.8-0.1-1.3-0.1c-1.2,0-2.1,0.4-2.7,1.2
		c-0.6,0.8-0.9,2-0.9,3.6c0,1.5,0.2,2.7,0.7,3.5c0.5,0.8,1.2,1.3,2.3,1.3c0.7,0,1.2-0.1,1.6-0.3c0.4-0.2,0.8-0.5,1.1-0.8V8.6z"/>
	<path class="st0" d="M705.7,18.6c-0.4,0.2-0.9,0.4-1.7,0.6c-0.7,0.2-1.5,0.3-2.3,0.3c-1.1,0-2-0.2-2.8-0.5
		c-0.7-0.3-1.3-0.7-1.8-1.3c-0.4-0.6-0.8-1.2-0.9-2c-0.2-0.8-0.3-1.7-0.3-2.6c0-0.9,0.1-1.7,0.3-2.5c0.2-0.8,0.5-1.5,1-2.1
		c0.4-0.6,1-1,1.7-1.4c0.7-0.3,1.5-0.5,2.4-0.5c0.9,0,1.7,0.2,2.3,0.6c0.6,0.4,1.1,0.8,1.5,1.4s0.6,1.2,0.8,2
		c0.2,0.7,0.3,1.5,0.3,2.2l-0.8,0.8h-7.1c0.1,1.4,0.4,2.5,0.9,3.1c0.6,0.7,1.4,1,2.6,1c0.6,0,1.2-0.1,1.7-0.2
		c0.5-0.1,1.1-0.3,1.5-0.5L705.7,18.6z M703.9,12.1c0-1.3-0.2-2.2-0.7-2.9s-1.2-1-2.1-1c-1,0-1.7,0.3-2.1,1s-0.7,1.6-0.7,2.9H703.9z
		"/>
	<path class="st0" d="M723.1,18.6c-0.4,0.2-0.9,0.4-1.7,0.6c-0.7,0.2-1.5,0.3-2.3,0.3c-1.1,0-2-0.2-2.8-0.5
		c-0.7-0.3-1.3-0.7-1.8-1.3c-0.4-0.6-0.8-1.2-0.9-2c-0.2-0.8-0.3-1.7-0.3-2.6c0-0.9,0.1-1.7,0.3-2.5c0.2-0.8,0.5-1.5,1-2.1
		c0.4-0.6,1-1,1.7-1.4c0.7-0.3,1.5-0.5,2.4-0.5c0.9,0,1.7,0.2,2.3,0.6c0.6,0.4,1.1,0.8,1.5,1.4s0.6,1.2,0.8,2
		c0.2,0.7,0.3,1.5,0.3,2.2l-0.8,0.8h-7.1c0.1,1.4,0.4,2.5,0.9,3.1c0.6,0.7,1.4,1,2.6,1c0.6,0,1.2-0.1,1.7-0.2
		c0.5-0.1,1.1-0.3,1.5-0.5L723.1,18.6z M721.3,12.1c0-1.3-0.2-2.2-0.7-2.9s-1.2-1-2.1-1c-1,0-1.7,0.3-2.1,1s-0.7,1.6-0.7,2.9H721.3z
		"/>
	<path class="st0" d="M726.2,16.8c0.4,0.2,0.9,0.4,1.5,0.7s1.4,0.4,2.2,0.4c0.8,0,1.5-0.1,2-0.4s0.7-0.8,0.7-1.4
		c0-0.4-0.1-0.7-0.2-0.9c-0.2-0.2-0.4-0.4-0.6-0.6c-0.3-0.2-0.6-0.3-0.9-0.4c-0.4-0.1-0.7-0.2-1.1-0.3c-0.4-0.1-0.9-0.2-1.3-0.4
		c-0.4-0.2-0.8-0.4-1.2-0.6c-0.3-0.3-0.6-0.6-0.8-1c-0.2-0.4-0.3-0.9-0.3-1.5c0-0.5,0.1-1,0.3-1.5c0.2-0.4,0.5-0.8,0.9-1.2
		s0.9-0.6,1.4-0.8s1.2-0.3,2-0.3c0.8,0,1.5,0.1,2.2,0.3s1.2,0.4,1.7,0.7L733.7,9c-1-0.5-2.1-0.8-3.2-0.8c-0.8,0-1.4,0.1-1.8,0.4
		c-0.4,0.3-0.7,0.7-0.7,1.3c0,0.4,0.1,0.6,0.2,0.9c0.1,0.2,0.3,0.4,0.6,0.6s0.5,0.3,0.9,0.4c0.3,0.1,0.7,0.2,1,0.3
		c0.4,0.1,0.9,0.3,1.3,0.4s0.9,0.3,1.3,0.6c0.4,0.3,0.7,0.6,0.9,1s0.4,1,0.4,1.6c0,1.2-0.4,2.1-1.1,2.8c-0.8,0.7-1.9,1-3.5,1
		c-1.1,0-2-0.1-2.7-0.4c-0.8-0.3-1.3-0.5-1.7-0.8L726.2,16.8z"/>
	<path class="st0" d="M738.3,8.7h-2.2V7.1h2.3V3.5h2.2v3.6h3.6v1.6h-3.6v6.9c0,0.5,0,0.8,0.1,1.1s0.2,0.5,0.3,0.6
		c0.2,0.2,0.3,0.3,0.5,0.3c0.2,0.1,0.4,0.1,0.7,0.1s0.5,0,0.9-0.1c0.3-0.1,0.6-0.2,0.9-0.3l0.5,1.5c-0.3,0.1-0.7,0.3-1.2,0.4
		s-1,0.2-1.5,0.2c-0.6,0-1.1-0.1-1.5-0.2c-0.4-0.1-0.8-0.3-1.1-0.6c-0.3-0.3-0.5-0.6-0.7-1.1s-0.3-1-0.3-1.7V8.7z"/>
	<path class="st0" d="M753.6,18.1c-0.5,0.4-1,0.7-1.6,1c-0.6,0.3-1.3,0.4-2.2,0.4c-1.2,0-2.1-0.3-2.9-0.9s-1.1-1.6-1.1-2.9
		c0-0.7,0.1-1.3,0.4-1.8c0.2-0.5,0.6-0.9,1-1.2c0.4-0.3,1-0.5,1.6-0.7c0.6-0.1,1.3-0.2,2.1-0.2h2.1v-0.6c0-1-0.2-1.7-0.5-2.2
		c-0.3-0.4-0.9-0.7-1.8-0.7c-1.2,0-2.3,0.2-3.5,0.7l-0.6-1.5c0.5-0.2,1.1-0.4,1.8-0.6c0.7-0.2,1.6-0.3,2.6-0.3
		c0.9,0,1.7,0.1,2.2,0.4c0.5,0.3,1,0.6,1.2,1.1c0.3,0.4,0.5,1,0.5,1.6c0.1,0.6,0.1,1.3,0.1,1.9v5.2l1,1.5l-1.6,1.2L753.6,18.1z
		 M753.1,13.2h-1.9c-1.1,0-1.9,0.2-2.4,0.5c-0.5,0.3-0.7,0.9-0.7,1.8c0,0.8,0.2,1.4,0.5,1.7s0.8,0.6,1.5,0.6c0.7,0,1.3-0.1,1.8-0.4
		s0.9-0.5,1.1-0.8V13.2z"/>
	<path class="st0" d="M763.8,9.6l-1-2l1.8-0.9l1,1.5c0.4-0.4,0.9-0.7,1.4-1s1.2-0.5,2-0.5c1.6,0,2.9,0.5,3.8,1.6
		c0.9,1.1,1.3,2.7,1.3,4.8c0,1-0.1,1.8-0.4,2.6c-0.3,0.8-0.6,1.5-1.1,2c-0.5,0.6-1.1,1-1.9,1.3c-0.8,0.3-1.6,0.5-2.6,0.5
		c-0.4,0-0.7,0-1.1-0.1c-0.4-0.1-0.7-0.1-1-0.2v5.1h-2.2V9.6z M766,17.6c0.3,0.1,0.6,0.2,1,0.2c0.4,0.1,0.8,0.1,1.2,0.1
		c1.2,0,2.1-0.4,2.7-1.3c0.6-0.8,0.9-2,0.9-3.6c0-1.5-0.2-2.7-0.7-3.5c-0.4-0.8-1.2-1.3-2.2-1.3c-0.6,0-1.1,0.1-1.5,0.3
		s-0.9,0.5-1.4,1V17.6z"/>
	<path class="st0" d="M784.2,18.1c-0.5,0.4-1,0.7-1.6,1c-0.6,0.3-1.3,0.4-2.2,0.4c-1.2,0-2.1-0.3-2.9-0.9s-1.1-1.6-1.1-2.9
		c0-0.7,0.1-1.3,0.4-1.8c0.2-0.5,0.6-0.9,1-1.2c0.4-0.3,1-0.5,1.6-0.7c0.6-0.1,1.3-0.2,2.1-0.2h2.1v-0.6c0-1-0.2-1.7-0.5-2.2
		c-0.3-0.4-0.9-0.7-1.8-0.7c-1.2,0-2.3,0.2-3.5,0.7l-0.6-1.5c0.5-0.2,1.1-0.4,1.8-0.6c0.7-0.2,1.6-0.3,2.6-0.3
		c0.9,0,1.7,0.1,2.2,0.4c0.5,0.3,1,0.6,1.2,1.1c0.3,0.4,0.5,1,0.5,1.6c0.1,0.6,0.1,1.3,0.1,1.9v5.2l1,1.5l-1.6,1.2L784.2,18.1z
		 M783.7,13.2h-1.9c-1.1,0-1.9,0.2-2.4,0.5c-0.5,0.3-0.7,0.9-0.7,1.8c0,0.8,0.2,1.4,0.5,1.7s0.8,0.6,1.5,0.6c0.7,0,1.3-0.1,1.8-0.4
		s0.9-0.5,1.1-0.8V13.2z M782.9,0l1.8,1.2l-3.4,3.9l-1.1-0.8L782.9,0z"/>
	<path class="st0" d="M790.4,22c0.4,0.2,0.9,0.4,1.5,0.6c0.5,0.2,1.2,0.3,2,0.3c1.3,0,2.1-0.3,2.6-0.9c0.5-0.6,0.7-1.5,0.7-2.7v-0.5
		c-0.4,0.2-0.8,0.3-1.3,0.5c-0.4,0.1-0.9,0.2-1.4,0.2c-1.8,0-3.1-0.5-4-1.5s-1.3-2.6-1.3-4.7c0-0.9,0.1-1.7,0.3-2.5s0.4-1.5,0.8-2.1
		c0.4-0.6,0.9-1.1,1.6-1.4s1.5-0.5,2.4-0.5c0.4,0,0.8,0,1.1,0.1c0.3,0.1,0.7,0.2,0.9,0.3c0.3,0.1,0.5,0.3,0.7,0.4
		c0.2,0.2,0.4,0.3,0.5,0.4l1-1.4l1.8,0.9l-0.9,2v10.1c0,1.5-0.4,2.7-1.3,3.6c-0.9,0.9-2.2,1.3-4.1,1.3c-0.8,0-1.6-0.1-2.3-0.2
		c-0.7-0.1-1.4-0.4-1.9-0.7L790.4,22z M797.2,9.5c-0.3-0.3-0.6-0.5-1-0.8c-0.4-0.3-1-0.4-1.7-0.4c-1,0-1.7,0.4-2.2,1.2
		c-0.5,0.8-0.8,2-0.8,3.7c0,1.5,0.2,2.6,0.7,3.4c0.5,0.8,1.3,1.2,2.4,1.2c0.5,0,1-0.1,1.3-0.2c0.4-0.1,0.8-0.3,1.2-0.5V9.5z"/>
	<path class="st0" d="M803.4,8.7h-1.5V7.1h3.8v12h-2.2V8.7z M804.3,4.8c-0.5,0-0.8-0.2-1.1-0.5c-0.3-0.3-0.4-0.7-0.4-1.2
		c0-0.5,0.1-0.9,0.4-1.2c0.3-0.3,0.6-0.5,1.1-0.5c0.5,0,0.9,0.2,1.1,0.5c0.3,0.3,0.4,0.7,0.4,1.2c0,0.5-0.1,0.8-0.4,1.2
		C805.1,4.7,804.8,4.8,804.3,4.8z"/>
	<path class="st0" d="M809.6,9.6l-0.9-2l1.8-0.9l1,1.6c0.7-0.5,1.4-0.9,2-1.2c0.6-0.2,1.3-0.4,2-0.4c0.8,0,1.5,0.1,2,0.4
		s1,0.6,1.3,1s0.5,0.9,0.7,1.5c0.1,0.6,0.2,1.2,0.2,1.8v7.8h-2.2v-7.7c0-1-0.2-1.7-0.6-2.2c-0.4-0.4-1-0.7-1.8-0.7
		c-0.6,0-1.2,0.1-1.7,0.3c-0.6,0.2-1,0.5-1.4,0.8v9.4h-2.2V9.6z"/>
	<path class="st0" d="M830.2,18.1c-0.5,0.4-1,0.7-1.6,1c-0.6,0.3-1.3,0.4-2.2,0.4c-1.2,0-2.1-0.3-2.9-0.9s-1.1-1.6-1.1-2.9
		c0-0.7,0.1-1.3,0.4-1.8c0.2-0.5,0.6-0.9,1-1.2c0.4-0.3,1-0.5,1.6-0.7c0.6-0.1,1.3-0.2,2.1-0.2h2.1v-0.6c0-1-0.2-1.7-0.5-2.2
		c-0.3-0.4-0.9-0.7-1.8-0.7c-1.2,0-2.3,0.2-3.5,0.7l-0.6-1.5c0.5-0.2,1.1-0.4,1.8-0.6c0.7-0.2,1.6-0.3,2.6-0.3
		c0.9,0,1.7,0.1,2.2,0.4c0.5,0.3,1,0.6,1.2,1.1c0.3,0.4,0.5,1,0.5,1.6c0.1,0.6,0.1,1.3,0.1,1.9v5.2l1,1.5l-1.6,1.2L830.2,18.1z
		 M829.7,13.2h-1.9c-1.1,0-1.9,0.2-2.4,0.5c-0.5,0.3-0.7,0.9-0.7,1.8c0,0.8,0.2,1.4,0.5,1.7s0.8,0.6,1.5,0.6c0.7,0,1.3-0.1,1.8-0.4
		s0.9-0.5,1.1-0.8V13.2z"/>
	<path class="st0" d="M836.8,19.5c-0.5,0-0.9-0.2-1.2-0.5c-0.2-0.3-0.4-0.7-0.4-1.2c0-0.5,0.1-0.9,0.4-1.2c0.2-0.3,0.6-0.5,1.2-0.5
		c0.5,0,0.9,0.2,1.1,0.5c0.2,0.3,0.4,0.7,0.4,1.2c0,0.5-0.1,0.9-0.4,1.2C837.7,19.4,837.3,19.5,836.8,19.5z"/>
	<path class="st0" d="M858.2,18.1c-0.5,0.4-1.2,0.7-2.1,1s-1.9,0.4-2.9,0.4c-1.4,0-2.5-0.2-3.5-0.7c-0.9-0.4-1.7-1.1-2.3-1.9
		s-1-1.8-1.3-2.9c-0.3-1.1-0.4-2.3-0.4-3.7c0-1.3,0.1-2.5,0.4-3.6c0.3-1.1,0.7-2.1,1.4-2.9c0.6-0.8,1.4-1.4,2.3-1.9
		c0.9-0.5,2-0.7,3.3-0.7c1,0,1.9,0.1,2.7,0.4c0.8,0.3,1.4,0.5,2,0.9L857,4.2c-0.5-0.3-1.1-0.6-1.7-0.8c-0.6-0.2-1.3-0.3-2-0.3
		c-0.7,0-1.3,0.1-1.9,0.3s-1.1,0.6-1.6,1.1s-0.8,1.3-1.1,2.2c-0.3,0.9-0.4,2.2-0.4,3.6c0,2.4,0.4,4.2,1.2,5.4s2.1,1.8,3.8,1.8
		c0.4,0,0.8,0,1.1-0.1s0.7-0.1,1-0.2c0.3-0.1,0.6-0.2,0.9-0.3c0.3-0.1,0.6-0.3,1-0.5L858.2,18.1z"/>
	<path class="st0" d="M865.1,19.5c-1,0-1.9-0.2-2.6-0.5c-0.7-0.3-1.2-0.8-1.7-1.3c-0.4-0.6-0.7-1.3-0.9-2c-0.2-0.8-0.3-1.6-0.3-2.6
		s0.1-1.8,0.3-2.6c0.2-0.8,0.6-1.5,1-2.1c0.4-0.6,1-1,1.7-1.3c0.7-0.3,1.5-0.5,2.4-0.5c1,0,1.8,0.2,2.5,0.5c0.7,0.3,1.3,0.8,1.7,1.3
		c0.4,0.6,0.8,1.2,1,2c0.2,0.8,0.3,1.7,0.3,2.6c0,0.9-0.1,1.8-0.3,2.6s-0.5,1.5-1,2c-0.4,0.6-1,1-1.7,1.3
		C866.9,19.4,866.1,19.5,865.1,19.5z M865.2,18c1.2,0,2-0.4,2.4-1.2c0.5-0.8,0.7-2,0.7-3.6c0-1.5-0.2-2.7-0.7-3.5s-1.3-1.2-2.4-1.2
		c-1.2,0-2,0.4-2.5,1.2c-0.5,0.8-0.7,2-0.7,3.6c0,0.8,0.1,1.4,0.2,2c0.1,0.6,0.3,1.1,0.5,1.5c0.2,0.4,0.6,0.7,1,1
		C864.1,17.8,864.6,18,865.2,18z"/>
	<path class="st0" d="M874,9.6l-0.9-2l1.8-0.9l1,1.6c0.7-0.5,1.4-0.9,2-1.2c0.6-0.2,1.3-0.4,2-0.4c0.8,0,1.5,0.1,2,0.4s1,0.6,1.3,1
		s0.5,0.9,0.7,1.5c0.1,0.6,0.2,1.2,0.2,1.8v7.8h-2.2v-7.7c0-1-0.2-1.7-0.6-2.2c-0.4-0.4-1-0.7-1.8-0.7c-0.6,0-1.2,0.1-1.7,0.3
		c-0.6,0.2-1,0.5-1.4,0.8v9.4H874V9.6z"/>
	<path class="st0" d="M887.3,16.8c0.4,0.2,0.9,0.4,1.5,0.7s1.4,0.4,2.2,0.4c0.8,0,1.5-0.1,2-0.4s0.7-0.8,0.7-1.4
		c0-0.4-0.1-0.7-0.2-0.9c-0.2-0.2-0.4-0.4-0.6-0.6c-0.3-0.2-0.6-0.3-0.9-0.4c-0.4-0.1-0.7-0.2-1.1-0.3c-0.4-0.1-0.9-0.2-1.3-0.4
		c-0.4-0.2-0.8-0.4-1.2-0.6c-0.3-0.3-0.6-0.6-0.8-1c-0.2-0.4-0.3-0.9-0.3-1.5c0-0.5,0.1-1,0.3-1.5c0.2-0.4,0.5-0.8,0.9-1.2
		s0.9-0.6,1.4-0.8s1.2-0.3,2-0.3c0.8,0,1.5,0.1,2.2,0.3s1.2,0.4,1.7,0.7L894.8,9c-1-0.5-2.1-0.8-3.2-0.8c-0.8,0-1.4,0.1-1.8,0.4
		c-0.4,0.3-0.7,0.7-0.7,1.3c0,0.4,0.1,0.6,0.2,0.9c0.1,0.2,0.3,0.4,0.6,0.6s0.5,0.3,0.9,0.4c0.3,0.1,0.7,0.2,1,0.3
		c0.4,0.1,0.9,0.3,1.3,0.4s0.9,0.3,1.3,0.6c0.4,0.3,0.7,0.6,0.9,1s0.4,1,0.4,1.6c0,1.2-0.4,2.1-1.1,2.8c-0.8,0.7-1.9,1-3.5,1
		c-1.1,0-2-0.1-2.7-0.4c-0.8-0.3-1.3-0.5-1.7-0.8L887.3,16.8z"/>
	<path class="st0" d="M898.4,7.1h2.2v7.8c0,0.9,0.2,1.7,0.5,2.2c0.4,0.5,1,0.8,1.8,0.8c0.7,0,1.3-0.1,1.7-0.3
		c0.4-0.2,0.9-0.5,1.2-0.8V7.1h2.2v9.7l1,1.5l-1.6,1.2l-1.1-1.3c-0.6,0.5-1.3,0.9-1.9,1.1c-0.6,0.2-1.3,0.3-2,0.3
		c-0.9,0-1.6-0.1-2.1-0.4c-0.5-0.2-1-0.6-1.3-1c-0.3-0.4-0.5-0.9-0.6-1.5c-0.1-0.6-0.2-1.2-0.2-1.8V7.1z"/>
	<path class="st0" d="M912.1,3h-1.5V1.5h3.7v17.6h-2.2V3z"/>
	<path class="st0" d="M918.8,8.7h-2.2V7.1h2.3V3.5h2.2v3.6h3.6v1.6h-3.6v6.9c0,0.5,0,0.8,0.1,1.1s0.2,0.5,0.3,0.6
		c0.2,0.2,0.3,0.3,0.5,0.3c0.2,0.1,0.4,0.1,0.7,0.1s0.5,0,0.9-0.1c0.3-0.1,0.6-0.2,0.9-0.3l0.5,1.5c-0.3,0.1-0.7,0.3-1.2,0.4
		s-1,0.2-1.5,0.2c-0.6,0-1.1-0.1-1.5-0.2c-0.4-0.1-0.8-0.3-1.1-0.6c-0.3-0.3-0.5-0.6-0.7-1.1s-0.3-1-0.3-1.7V8.7z"/>
	<path class="st0" d="M936,18.6c-0.4,0.2-0.9,0.4-1.7,0.6c-0.7,0.2-1.5,0.3-2.3,0.3c-1.1,0-2-0.2-2.8-0.5c-0.7-0.3-1.3-0.7-1.8-1.3
		c-0.4-0.6-0.8-1.2-0.9-2c-0.2-0.8-0.3-1.7-0.3-2.6c0-0.9,0.1-1.7,0.3-2.5c0.2-0.8,0.5-1.5,1-2.1c0.4-0.6,1-1,1.7-1.4
		c0.7-0.3,1.5-0.5,2.4-0.5c0.9,0,1.7,0.2,2.3,0.6c0.6,0.4,1.1,0.8,1.5,1.4s0.6,1.2,0.8,2c0.2,0.7,0.3,1.5,0.3,2.2l-0.8,0.8h-7.1
		c0.1,1.4,0.4,2.5,0.9,3.1c0.6,0.7,1.4,1,2.6,1c0.6,0,1.2-0.1,1.7-0.2c0.5-0.1,1.1-0.3,1.5-0.5L936,18.6z M934.2,12.1
		c0-1.3-0.2-2.2-0.7-2.9s-1.2-1-2.1-1c-1,0-1.7,0.3-2.1,1s-0.7,1.6-0.7,2.9H934.2z"/>
	<path class="st0" d="M944.3,3h-1.5V1.5h3.7v17.6h-2.2V3z"/>
	<path class="st0" d="M957.1,18.1c-0.5,0.4-1,0.7-1.6,1c-0.6,0.3-1.3,0.4-2.2,0.4c-1.2,0-2.1-0.3-2.9-0.9s-1.1-1.6-1.1-2.9
		c0-0.7,0.1-1.3,0.4-1.8c0.2-0.5,0.6-0.9,1-1.2c0.4-0.3,1-0.5,1.6-0.7c0.6-0.1,1.3-0.2,2.1-0.2h2.1v-0.6c0-1-0.2-1.7-0.5-2.2
		c-0.3-0.4-0.9-0.7-1.8-0.7c-1.2,0-2.3,0.2-3.5,0.7l-0.6-1.5c0.5-0.2,1.1-0.4,1.8-0.6c0.7-0.2,1.6-0.3,2.6-0.3
		c0.9,0,1.7,0.1,2.2,0.4c0.5,0.3,1,0.6,1.2,1.1c0.3,0.4,0.5,1,0.5,1.6c0.1,0.6,0.1,1.3,0.1,1.9v5.2l1,1.5l-1.6,1.2L957.1,18.1z
		 M956.6,13.2h-1.9c-1.1,0-1.9,0.2-2.4,0.5c-0.5,0.3-0.7,0.9-0.7,1.8c0,0.8,0.2,1.4,0.5,1.7s0.8,0.6,1.5,0.6c0.7,0,1.3-0.1,1.8-0.4
		s0.9-0.5,1.1-0.8V13.2z"/>
	<path class="st0" d="M968,22c0.4,0.2,0.9,0.4,1.5,0.6c0.5,0.2,1.2,0.3,2,0.3c1.3,0,2.1-0.3,2.6-0.9c0.5-0.6,0.7-1.5,0.7-2.7v-0.5
		c-0.4,0.2-0.8,0.3-1.3,0.5c-0.4,0.1-0.9,0.2-1.4,0.2c-1.8,0-3.1-0.5-4-1.5s-1.3-2.6-1.3-4.7c0-0.9,0.1-1.7,0.3-2.5s0.4-1.5,0.8-2.1
		c0.4-0.6,0.9-1.1,1.6-1.4s1.5-0.5,2.4-0.5c0.4,0,0.8,0,1.1,0.1c0.3,0.1,0.7,0.2,0.9,0.3c0.3,0.1,0.5,0.3,0.7,0.4
		c0.2,0.2,0.4,0.3,0.5,0.4l1-1.4l1.8,0.9l-0.9,2v10.1c0,1.5-0.4,2.7-1.3,3.6c-0.9,0.9-2.2,1.3-4.1,1.3c-0.8,0-1.6-0.1-2.3-0.2
		c-0.7-0.1-1.4-0.4-1.9-0.7L968,22z M974.7,9.5c-0.3-0.3-0.6-0.5-1-0.8c-0.4-0.3-1-0.4-1.7-0.4c-1,0-1.7,0.4-2.2,1.2
		c-0.5,0.8-0.8,2-0.8,3.7c0,1.5,0.2,2.6,0.7,3.4c0.5,0.8,1.3,1.2,2.4,1.2c0.5,0,1-0.1,1.3-0.2c0.4-0.1,0.8-0.3,1.2-0.5V9.5z"/>
	<path class="st0" d="M987.6,18.1c-0.5,0.4-1,0.7-1.6,1c-0.6,0.3-1.3,0.4-2.2,0.4c-1.2,0-2.1-0.3-2.9-0.9s-1.1-1.6-1.1-2.9
		c0-0.7,0.1-1.3,0.4-1.8c0.2-0.5,0.6-0.9,1-1.2c0.4-0.3,1-0.5,1.6-0.7c0.6-0.1,1.3-0.2,2.1-0.2h2.1v-0.6c0-1-0.2-1.7-0.5-2.2
		c-0.3-0.4-0.9-0.7-1.8-0.7c-1.2,0-2.3,0.2-3.5,0.7l-0.6-1.5c0.5-0.2,1.1-0.4,1.8-0.6c0.7-0.2,1.6-0.3,2.6-0.3
		c0.9,0,1.7,0.1,2.2,0.4c0.5,0.3,1,0.6,1.2,1.1c0.3,0.4,0.5,1,0.5,1.6c0.1,0.6,0.1,1.3,0.1,1.9v5.2l1,1.5l-1.6,1.2L987.6,18.1z
		 M987.1,13.2h-1.9c-1.1,0-1.9,0.2-2.4,0.5c-0.5,0.3-0.7,0.9-0.7,1.8c0,0.8,0.2,1.4,0.5,1.7s0.8,0.6,1.5,0.6c0.7,0,1.3-0.1,1.8-0.4
		s0.9-0.5,1.1-0.8V13.2z"/>
	<path class="st0" d="M993.2,9.6l-0.9-2l1.8-0.9l1,1.6c0.7-0.6,1.3-1,1.9-1.2c0.6-0.2,1.2-0.3,1.7-0.3c0.9,0,1.5,0.1,2,0.4
		s0.8,0.6,1.1,1.1c0.7-0.6,1.4-1,2.1-1.2c0.7-0.2,1.3-0.3,1.7-0.3c0.8,0,1.5,0.1,2,0.4s0.9,0.6,1.2,1s0.4,0.9,0.5,1.5
		c0.1,0.6,0.1,1.2,0.1,1.8v7.8h-2.2v-7.8c0-0.9-0.1-1.6-0.4-2.1c-0.3-0.4-0.8-0.7-1.6-0.7c-0.5,0-0.9,0.1-1.4,0.3s-1,0.5-1.4,0.8
		c0,0.2,0.1,0.5,0.1,0.8c0,0.3,0,0.6,0,0.9v7.8h-2.2v-7.9c0-0.9-0.1-1.6-0.4-2c-0.3-0.4-0.8-0.7-1.6-0.7c-0.4,0-0.9,0.1-1.4,0.3
		c-0.5,0.2-0.9,0.5-1.3,0.8v9.5h-2.2V9.6z"/>
	<path class="st0" d="M1020.1,18.1c-0.5,0.4-1,0.7-1.6,1c-0.6,0.3-1.3,0.4-2.2,0.4c-1.2,0-2.1-0.3-2.9-0.9s-1.1-1.6-1.1-2.9
		c0-0.7,0.1-1.3,0.4-1.8c0.2-0.5,0.6-0.9,1-1.2c0.4-0.3,1-0.5,1.6-0.7c0.6-0.1,1.3-0.2,2.1-0.2h2.1v-0.6c0-1-0.2-1.7-0.5-2.2
		c-0.3-0.4-0.9-0.7-1.8-0.7c-1.2,0-2.3,0.2-3.5,0.7l-0.6-1.5c0.5-0.2,1.1-0.4,1.8-0.6c0.7-0.2,1.6-0.3,2.6-0.3
		c0.9,0,1.7,0.1,2.2,0.4c0.5,0.3,1,0.6,1.2,1.1c0.3,0.4,0.5,1,0.5,1.6c0.1,0.6,0.1,1.3,0.1,1.9v5.2l1,1.5l-1.6,1.2L1020.1,18.1z
		 M1019.6,13.2h-1.9c-1.1,0-1.9,0.2-2.4,0.5c-0.5,0.3-0.7,0.9-0.7,1.8c0,0.8,0.2,1.4,0.5,1.7s0.8,0.6,1.5,0.6c0.7,0,1.3-0.1,1.8-0.4
		s0.9-0.5,1.1-0.8V13.2z"/>
	<path class="st0" d="M1030.5,8.7h-1.5V7.1h3.1l0.4,1.6c0.2-0.2,0.4-0.4,0.6-0.6c0.2-0.2,0.5-0.4,0.7-0.5c0.3-0.2,0.6-0.3,0.9-0.4
		c0.3-0.1,0.7-0.1,1.2-0.1c0.6,0,1.1,0.1,1.5,0.2l-0.6,2c-0.2-0.1-0.4-0.1-0.6-0.2s-0.5,0-0.7,0c-1.2,0-2.1,0.4-2.8,1.2v9h-2.2V8.7z
		"/>
	<path class="st0" d="M1048.2,18.6c-0.4,0.2-0.9,0.4-1.7,0.6c-0.7,0.2-1.5,0.3-2.3,0.3c-1.1,0-2-0.2-2.8-0.5
		c-0.7-0.3-1.3-0.7-1.8-1.3c-0.4-0.6-0.8-1.2-0.9-2c-0.2-0.8-0.3-1.7-0.3-2.6c0-0.9,0.1-1.7,0.3-2.5c0.2-0.8,0.5-1.5,1-2.1
		c0.4-0.6,1-1,1.7-1.4c0.7-0.3,1.5-0.5,2.4-0.5c0.9,0,1.7,0.2,2.3,0.6c0.6,0.4,1.1,0.8,1.5,1.4s0.6,1.2,0.8,2
		c0.2,0.7,0.3,1.5,0.3,2.2l-0.8,0.8h-7.1c0.1,1.4,0.4,2.5,0.9,3.1c0.6,0.7,1.4,1,2.6,1c0.6,0,1.2-0.1,1.7-0.2
		c0.5-0.1,1.1-0.3,1.5-0.5L1048.2,18.6z M1046.4,12.1c0-1.3-0.2-2.2-0.7-2.9s-1.2-1-2.1-1c-1,0-1.7,0.3-2.1,1s-0.7,1.6-0.7,2.9
		H1046.4z"/>
	<path class="st0" d="M1058.6,18.1c-0.5,0.4-1,0.7-1.6,1c-0.6,0.3-1.3,0.4-2.2,0.4c-1.2,0-2.1-0.3-2.9-0.9s-1.1-1.6-1.1-2.9
		c0-0.7,0.1-1.3,0.4-1.8c0.2-0.5,0.6-0.9,1-1.2c0.4-0.3,1-0.5,1.6-0.7c0.6-0.1,1.3-0.2,2.1-0.2h2.1v-0.6c0-1-0.2-1.7-0.5-2.2
		c-0.3-0.4-0.9-0.7-1.8-0.7c-1.2,0-2.3,0.2-3.5,0.7l-0.6-1.5c0.5-0.2,1.1-0.4,1.8-0.6c0.7-0.2,1.6-0.3,2.6-0.3
		c0.9,0,1.7,0.1,2.2,0.4c0.5,0.3,1,0.6,1.2,1.1c0.3,0.4,0.5,1,0.5,1.6c0.1,0.6,0.1,1.3,0.1,1.9v5.2l1,1.5l-1.6,1.2L1058.6,18.1z
		 M1058.1,13.2h-1.9c-1.1,0-1.9,0.2-2.4,0.5c-0.5,0.3-0.7,0.9-0.7,1.8c0,0.8,0.2,1.4,0.5,1.7s0.8,0.6,1.5,0.6c0.7,0,1.3-0.1,1.8-0.4
		s0.9-0.5,1.1-0.8V13.2z"/>
	<path class="st0" d="M1064.1,3h-1.5V1.5h3.7v17.6h-2.2V3z"/>
	<path class="st0" d="M1082.9,18.2c-0.5,0.4-1,0.7-1.6,0.9s-1.3,0.4-2.1,0.4c-1.6,0-2.9-0.5-3.7-1.6c-0.8-1.1-1.2-2.7-1.2-4.8
		c0-1,0.1-1.8,0.4-2.6s0.6-1.5,1.1-2c0.5-0.6,1.1-1,1.8-1.3c0.7-0.3,1.6-0.5,2.5-0.5c0.4,0,0.8,0,1.2,0.1c0.4,0.1,0.7,0.1,1,0.2V1.4
		h2.2v15.3l1,1.5l-1.6,1.2L1082.9,18.2z M1082.3,8.6c-0.2-0.1-0.5-0.2-0.9-0.2c-0.4-0.1-0.8-0.1-1.3-0.1c-1.2,0-2.1,0.4-2.7,1.2
		c-0.6,0.8-0.9,2-0.9,3.6c0,1.5,0.2,2.7,0.7,3.5c0.5,0.8,1.2,1.3,2.3,1.3c0.7,0,1.2-0.1,1.6-0.3c0.4-0.2,0.8-0.5,1.1-0.8V8.6z"/>
	<path class="st0" d="M1097.6,18.6c-0.4,0.2-0.9,0.4-1.7,0.6c-0.7,0.2-1.5,0.3-2.3,0.3c-1.1,0-2-0.2-2.8-0.5
		c-0.7-0.3-1.3-0.7-1.8-1.3c-0.4-0.6-0.8-1.2-0.9-2c-0.2-0.8-0.3-1.7-0.3-2.6c0-0.9,0.1-1.7,0.3-2.5c0.2-0.8,0.5-1.5,1-2.1
		c0.4-0.6,1-1,1.7-1.4c0.7-0.3,1.5-0.5,2.4-0.5c0.9,0,1.7,0.2,2.3,0.6c0.6,0.4,1.1,0.8,1.5,1.4s0.6,1.2,0.8,2
		c0.2,0.7,0.3,1.5,0.3,2.2l-0.8,0.8h-7.1c0.1,1.4,0.4,2.5,0.9,3.1c0.6,0.7,1.4,1,2.6,1c0.6,0,1.2-0.1,1.7-0.2
		c0.5-0.1,1.1-0.3,1.5-0.5L1097.6,18.6z M1095.8,12.1c0-1.3-0.2-2.2-0.7-2.9s-1.2-1-2.1-1c-1,0-1.7,0.3-2.1,1s-0.7,1.6-0.7,2.9
		H1095.8z"/>
	<path class="st0" d="M1114.8,18.6c-0.4,0.2-1,0.5-1.6,0.7c-0.6,0.2-1.4,0.3-2.2,0.3c-1.1,0-2-0.2-2.7-0.5c-0.7-0.3-1.3-0.7-1.7-1.3
		s-0.7-1.2-0.9-2c-0.2-0.8-0.3-1.6-0.3-2.6c0-0.9,0.1-1.8,0.3-2.6c0.2-0.8,0.6-1.5,1-2.1s1.1-1.1,1.8-1.4c0.7-0.3,1.6-0.5,2.6-0.5
		c0.7,0,1.4,0.1,2,0.3s1.1,0.4,1.6,0.7l-0.7,1.5c-0.4-0.2-0.9-0.4-1.4-0.6c-0.5-0.2-1-0.2-1.6-0.2c-1.2,0-2.1,0.4-2.6,1.2
		c-0.6,0.8-0.8,2-0.8,3.7c0,0.7,0.1,1.4,0.2,1.9c0.1,0.6,0.3,1.1,0.6,1.5c0.3,0.4,0.6,0.7,1.1,0.9c0.4,0.2,1,0.3,1.7,0.3
		c0.5,0,1,0,1.5-0.1c0.4-0.1,1-0.3,1.6-0.6L1114.8,18.6z"/>
	<path class="st0" d="M1121.7,19.5c-1,0-1.9-0.2-2.6-0.5c-0.7-0.3-1.2-0.8-1.7-1.3c-0.4-0.6-0.7-1.3-0.9-2c-0.2-0.8-0.3-1.6-0.3-2.6
		s0.1-1.8,0.3-2.6c0.2-0.8,0.6-1.5,1-2.1c0.4-0.6,1-1,1.7-1.3c0.7-0.3,1.5-0.5,2.4-0.5c1,0,1.8,0.2,2.5,0.5c0.7,0.3,1.3,0.8,1.7,1.3
		c0.4,0.6,0.8,1.2,1,2c0.2,0.8,0.3,1.7,0.3,2.6c0,0.9-0.1,1.8-0.3,2.6s-0.5,1.5-1,2c-0.4,0.6-1,1-1.7,1.3
		C1123.6,19.4,1122.7,19.5,1121.7,19.5z M1121.8,18c1.2,0,2-0.4,2.4-1.2c0.5-0.8,0.7-2,0.7-3.6c0-1.5-0.2-2.7-0.7-3.5
		s-1.3-1.2-2.4-1.2c-1.2,0-2,0.4-2.5,1.2c-0.5,0.8-0.7,2-0.7,3.6c0,0.8,0.1,1.4,0.2,2c0.1,0.6,0.3,1.1,0.5,1.5c0.2,0.4,0.6,0.7,1,1
		C1120.7,17.8,1121.2,18,1121.8,18z"/>
	<path class="st0" d="M1130.5,3h-1.5V1.5h3.7v17.6h-2.2V3z"/>
	<path class="st0" d="M1141.4,19.5c-1,0-1.9-0.2-2.6-0.5c-0.7-0.3-1.2-0.8-1.7-1.3c-0.4-0.6-0.7-1.3-0.9-2c-0.2-0.8-0.3-1.6-0.3-2.6
		s0.1-1.8,0.3-2.6c0.2-0.8,0.6-1.5,1-2.1c0.4-0.6,1-1,1.7-1.3c0.7-0.3,1.5-0.5,2.4-0.5c1,0,1.8,0.2,2.5,0.5c0.7,0.3,1.3,0.8,1.7,1.3
		c0.4,0.6,0.8,1.2,1,2c0.2,0.8,0.3,1.7,0.3,2.6c0,0.9-0.1,1.8-0.3,2.6s-0.5,1.5-1,2c-0.4,0.6-1,1-1.7,1.3
		C1143.2,19.4,1142.4,19.5,1141.4,19.5z M1141.5,18c1.2,0,2-0.4,2.4-1.2c0.5-0.8,0.7-2,0.7-3.6c0-1.5-0.2-2.7-0.7-3.5
		s-1.3-1.2-2.4-1.2c-1.2,0-2,0.4-2.5,1.2c-0.5,0.8-0.7,2-0.7,3.6c0,0.8,0.1,1.4,0.2,2c0.1,0.6,0.3,1.1,0.5,1.5c0.2,0.4,0.6,0.7,1,1
		C1140.4,17.8,1140.9,18,1141.5,18z"/>
	<path class="st0" d="M1150.4,8.7h-1.5V7.1h3.1l0.4,1.6c0.2-0.2,0.4-0.4,0.6-0.6c0.2-0.2,0.5-0.4,0.7-0.5c0.3-0.2,0.6-0.3,0.9-0.4
		c0.3-0.1,0.7-0.1,1.2-0.1c0.6,0,1.1,0.1,1.5,0.2l-0.6,2c-0.2-0.1-0.4-0.1-0.6-0.2s-0.5,0-0.7,0c-1.2,0-2.1,0.4-2.8,1.2v9h-2.2V8.7z
		"/>
	<path class="st0" d="M1168.1,18.6c-0.4,0.2-0.9,0.4-1.7,0.6c-0.7,0.2-1.5,0.3-2.3,0.3c-1.1,0-2-0.2-2.8-0.5
		c-0.7-0.3-1.3-0.7-1.8-1.3c-0.4-0.6-0.8-1.2-0.9-2c-0.2-0.8-0.3-1.7-0.3-2.6c0-0.9,0.1-1.7,0.3-2.5c0.2-0.8,0.5-1.5,1-2.1
		c0.4-0.6,1-1,1.7-1.4c0.7-0.3,1.5-0.5,2.4-0.5c0.9,0,1.7,0.2,2.3,0.6c0.6,0.4,1.1,0.8,1.5,1.4s0.6,1.2,0.8,2
		c0.2,0.7,0.3,1.5,0.3,2.2l-0.8,0.8h-7.1c0.1,1.4,0.4,2.5,0.9,3.1c0.6,0.7,1.4,1,2.6,1c0.6,0,1.2-0.1,1.7-0.2
		c0.5-0.1,1.1-0.3,1.5-0.5L1168.1,18.6z M1166.3,12.1c0-1.3-0.2-2.2-0.7-2.9s-1.2-1-2.1-1c-1,0-1.7,0.3-2.1,1s-0.7,1.6-0.7,2.9
		H1166.3z"/>
	<path class="st0" d="M1171.2,16.8c0.4,0.2,0.9,0.4,1.5,0.7s1.4,0.4,2.2,0.4c0.8,0,1.5-0.1,2-0.4s0.7-0.8,0.7-1.4
		c0-0.4-0.1-0.7-0.2-0.9c-0.2-0.2-0.4-0.4-0.6-0.6c-0.3-0.2-0.6-0.3-0.9-0.4c-0.4-0.1-0.7-0.2-1.1-0.3c-0.4-0.1-0.9-0.2-1.3-0.4
		c-0.4-0.2-0.8-0.4-1.2-0.6c-0.3-0.3-0.6-0.6-0.8-1c-0.2-0.4-0.3-0.9-0.3-1.5c0-0.5,0.1-1,0.3-1.5c0.2-0.4,0.5-0.8,0.9-1.2
		s0.9-0.6,1.4-0.8s1.2-0.3,2-0.3c0.8,0,1.5,0.1,2.2,0.3s1.2,0.4,1.7,0.7l-0.7,1.5c-1-0.5-2.1-0.8-3.2-0.8c-0.8,0-1.4,0.1-1.8,0.4
		c-0.4,0.3-0.7,0.7-0.7,1.3c0,0.4,0.1,0.6,0.2,0.9c0.1,0.2,0.3,0.4,0.6,0.6s0.5,0.3,0.9,0.4c0.3,0.1,0.7,0.2,1,0.3
		c0.4,0.1,0.9,0.3,1.3,0.4s0.9,0.3,1.3,0.6c0.4,0.3,0.7,0.6,0.9,1s0.4,1,0.4,1.6c0,1.2-0.4,2.1-1.1,2.8c-0.8,0.7-1.9,1-3.5,1
		c-1.1,0-2-0.1-2.7-0.4c-0.8-0.3-1.3-0.5-1.7-0.8L1171.2,16.8z"/>
	<path class="st0" d="M1186.7,22.4c0.3,0.1,0.6,0.2,1,0.3s0.8,0.2,1.4,0.2c0.6,0,1.1-0.2,1.4-0.5c0.3-0.4,0.6-0.9,0.8-1.6l0.5-2
		h-0.4c-0.5,0-1-0.1-1.3-0.2s-0.7-0.3-1-0.6c-0.3-0.3-0.5-0.6-0.7-1.1s-0.4-1-0.6-1.6l-2.2-8.1l2.2-0.4l2.2,8.3
		c0.1,0.4,0.2,0.8,0.4,1.1c0.1,0.3,0.3,0.5,0.4,0.6c0.2,0.2,0.3,0.3,0.5,0.3s0.4,0.1,0.6,0.1h0.3l2.6-10.4l2,0.4L1193,21
		c-0.3,1.2-0.8,2.1-1.5,2.7c-0.6,0.6-1.5,0.9-2.6,0.9c-0.3,0-0.6,0-0.9-0.1c-0.3,0-0.6-0.1-0.8-0.2c-0.3-0.1-0.5-0.1-0.7-0.2
		c-0.2-0.1-0.4-0.1-0.5-0.2L1186.7,22.4z"/>
	<path class="st0" d="M1202.8,16.8c0.4,0.2,0.9,0.4,1.5,0.7s1.4,0.4,2.2,0.4c0.8,0,1.5-0.1,2-0.4s0.7-0.8,0.7-1.4
		c0-0.4-0.1-0.7-0.2-0.9c-0.2-0.2-0.4-0.4-0.6-0.6c-0.3-0.2-0.6-0.3-0.9-0.4c-0.4-0.1-0.7-0.2-1.1-0.3c-0.4-0.1-0.9-0.2-1.3-0.4
		c-0.4-0.2-0.8-0.4-1.2-0.6c-0.3-0.3-0.6-0.6-0.8-1c-0.2-0.4-0.3-0.9-0.3-1.5c0-0.5,0.1-1,0.3-1.5c0.2-0.4,0.5-0.8,0.9-1.2
		s0.9-0.6,1.4-0.8s1.2-0.3,2-0.3c0.8,0,1.5,0.1,2.2,0.3s1.2,0.4,1.7,0.7l-0.7,1.5c-1-0.5-2.1-0.8-3.2-0.8c-0.8,0-1.4,0.1-1.8,0.4
		c-0.4,0.3-0.7,0.7-0.7,1.3c0,0.4,0.1,0.6,0.2,0.9c0.1,0.2,0.3,0.4,0.6,0.6s0.5,0.3,0.9,0.4c0.3,0.1,0.7,0.2,1,0.3
		c0.4,0.1,0.9,0.3,1.3,0.4s0.9,0.3,1.3,0.6c0.4,0.3,0.7,0.6,0.9,1s0.4,1,0.4,1.6c0,1.2-0.4,2.1-1.1,2.8c-0.8,0.7-1.9,1-3.5,1
		c-1.1,0-2-0.1-2.7-0.4c-0.8-0.3-1.3-0.5-1.7-0.8L1202.8,16.8z"/>
	<path class="st0" d="M1213.9,7.1h2.2v7.8c0,0.9,0.2,1.7,0.5,2.2c0.4,0.5,1,0.8,1.8,0.8c0.7,0,1.3-0.1,1.7-0.3
		c0.4-0.2,0.9-0.5,1.2-0.8V7.1h2.2v9.7l1,1.5l-1.6,1.2l-1.1-1.3c-0.6,0.5-1.3,0.9-1.9,1.1c-0.6,0.2-1.3,0.3-2,0.3
		c-0.9,0-1.6-0.1-2.1-0.4c-0.5-0.2-1-0.6-1.3-1c-0.3-0.4-0.5-0.9-0.6-1.5c-0.1-0.6-0.2-1.2-0.2-1.8V7.1z"/>
	<path class="st0" d="M1240.3,18.2c-0.5,0.4-1,0.7-1.6,0.9s-1.3,0.4-2.1,0.4c-1.6,0-2.9-0.5-3.7-1.6c-0.8-1.1-1.2-2.7-1.2-4.8
		c0-1,0.1-1.8,0.4-2.6s0.6-1.5,1.1-2c0.5-0.6,1.1-1,1.8-1.3c0.7-0.3,1.6-0.5,2.5-0.5c0.4,0,0.8,0,1.2,0.1c0.4,0.1,0.7,0.1,1,0.2V1.4
		h2.2v15.3l1,1.5l-1.6,1.2L1240.3,18.2z M1239.7,8.6c-0.2-0.1-0.5-0.2-0.9-0.2c-0.4-0.1-0.8-0.1-1.3-0.1c-1.2,0-2.1,0.4-2.7,1.2
		c-0.6,0.8-0.9,2-0.9,3.6c0,1.5,0.2,2.7,0.7,3.5c0.5,0.8,1.2,1.3,2.3,1.3c0.7,0,1.2-0.1,1.6-0.3c0.4-0.2,0.8-0.5,1.1-0.8V8.6z"/>
	<path class="st0" d="M1246,8.7h-1.5V7.1h3.8v12h-2.2V8.7z M1246.9,4.8c-0.5,0-0.8-0.2-1.1-0.5c-0.3-0.3-0.4-0.7-0.4-1.2
		c0-0.5,0.1-0.9,0.4-1.2c0.3-0.3,0.6-0.5,1.1-0.5c0.5,0,0.9,0.2,1.1,0.5c0.3,0.3,0.4,0.7,0.4,1.2c0,0.5-0.1,0.8-0.4,1.2
		C1247.7,4.7,1247.3,4.8,1246.9,4.8z"/>
	<path class="st0" d="M1251.6,16.8c0.4,0.2,0.9,0.4,1.5,0.7s1.4,0.4,2.2,0.4c0.8,0,1.5-0.1,2-0.4s0.7-0.8,0.7-1.4
		c0-0.4-0.1-0.7-0.2-0.9c-0.2-0.2-0.4-0.4-0.6-0.6c-0.3-0.2-0.6-0.3-0.9-0.4c-0.4-0.1-0.7-0.2-1.1-0.3c-0.4-0.1-0.9-0.2-1.3-0.4
		c-0.4-0.2-0.8-0.4-1.2-0.6c-0.3-0.3-0.6-0.6-0.8-1c-0.2-0.4-0.3-0.9-0.3-1.5c0-0.5,0.1-1,0.3-1.5c0.2-0.4,0.5-0.8,0.9-1.2
		s0.9-0.6,1.4-0.8s1.2-0.3,2-0.3c0.8,0,1.5,0.1,2.2,0.3s1.2,0.4,1.7,0.7l-0.7,1.5c-1-0.5-2.1-0.8-3.2-0.8c-0.8,0-1.4,0.1-1.8,0.4
		c-0.4,0.3-0.7,0.7-0.7,1.3c0,0.4,0.1,0.6,0.2,0.9c0.1,0.2,0.3,0.4,0.6,0.6s0.5,0.3,0.9,0.4c0.3,0.1,0.7,0.2,1,0.3
		c0.4,0.1,0.9,0.3,1.3,0.4s0.9,0.3,1.3,0.6c0.4,0.3,0.7,0.6,0.9,1s0.4,1,0.4,1.6c0,1.2-0.4,2.1-1.1,2.8c-0.8,0.7-1.9,1-3.5,1
		c-1.1,0-2-0.1-2.7-0.4c-0.8-0.3-1.3-0.5-1.7-0.8L1251.6,16.8z"/>
	<path class="st0" d="M1263,9.6l-1-2l1.8-0.9l1,1.5c0.4-0.4,0.9-0.7,1.4-1s1.2-0.5,2-0.5c1.6,0,2.9,0.5,3.8,1.6
		c0.9,1.1,1.3,2.7,1.3,4.8c0,1-0.1,1.8-0.4,2.6c-0.3,0.8-0.6,1.5-1.1,2c-0.5,0.6-1.1,1-1.9,1.3c-0.8,0.3-1.6,0.5-2.6,0.5
		c-0.4,0-0.7,0-1.1-0.1c-0.4-0.1-0.7-0.1-1-0.2v5.1h-2.2V9.6z M1265.2,17.6c0.3,0.1,0.6,0.2,1,0.2c0.4,0.1,0.8,0.1,1.2,0.1
		c1.2,0,2.1-0.4,2.7-1.3c0.6-0.8,0.9-2,0.9-3.6c0-1.5-0.2-2.7-0.7-3.5c-0.4-0.8-1.2-1.3-2.2-1.3c-0.6,0-1.1,0.1-1.5,0.3
		s-0.9,0.5-1.4,1V17.6z"/>
	<path class="st0" d="M1281.5,19.5c-1,0-1.9-0.2-2.6-0.5c-0.7-0.3-1.2-0.8-1.7-1.3c-0.4-0.6-0.7-1.3-0.9-2c-0.2-0.8-0.3-1.6-0.3-2.6
		s0.1-1.8,0.3-2.6c0.2-0.8,0.6-1.5,1-2.1c0.4-0.6,1-1,1.7-1.3c0.7-0.3,1.5-0.5,2.4-0.5c1,0,1.8,0.2,2.5,0.5c0.7,0.3,1.3,0.8,1.7,1.3
		c0.4,0.6,0.8,1.2,1,2c0.2,0.8,0.3,1.7,0.3,2.6c0,0.9-0.1,1.8-0.3,2.6s-0.5,1.5-1,2c-0.4,0.6-1,1-1.7,1.3
		C1283.3,19.4,1282.4,19.5,1281.5,19.5z M1281.5,18c1.2,0,2-0.4,2.4-1.2c0.5-0.8,0.7-2,0.7-3.6c0-1.5-0.2-2.7-0.7-3.5
		s-1.3-1.2-2.4-1.2c-1.2,0-2,0.4-2.5,1.2c-0.5,0.8-0.7,2-0.7,3.6c0,0.8,0.1,1.4,0.2,2c0.1,0.6,0.3,1.1,0.5,1.5c0.2,0.4,0.6,0.7,1,1
		C1280.5,17.8,1280.9,18,1281.5,18z"/>
	<path class="st0" d="M1290.3,9.6l-0.9-2l1.8-0.9l1,1.6c0.7-0.5,1.4-0.9,2-1.2c0.6-0.2,1.3-0.4,2-0.4c0.8,0,1.5,0.1,2,0.4
		s1,0.6,1.3,1s0.5,0.9,0.7,1.5c0.1,0.6,0.2,1.2,0.2,1.8v7.8h-2.2v-7.7c0-1-0.2-1.7-0.6-2.2c-0.4-0.4-1-0.7-1.8-0.7
		c-0.6,0-1.2,0.1-1.7,0.3c-0.6,0.2-1,0.5-1.4,0.8v9.4h-2.2V9.6z"/>
	<path class="st0" d="M1304.3,8.7h-1.5V7.1h3.8v12h-2.2V8.7z M1305.1,4.8c-0.5,0-0.8-0.2-1.1-0.5c-0.3-0.3-0.4-0.7-0.4-1.2
		c0-0.5,0.1-0.9,0.4-1.2c0.3-0.3,0.6-0.5,1.1-0.5c0.5,0,0.9,0.2,1.1,0.5c0.3,0.3,0.4,0.7,0.4,1.2c0,0.5-0.1,0.8-0.4,1.2
		C1306,4.7,1305.6,4.8,1305.1,4.8z"/>
	<path class="st0" d="M1310.4,1.8h2.2v5.5c0.4-0.2,0.8-0.3,1.3-0.5s1-0.2,1.5-0.2c1.6,0,2.9,0.5,3.8,1.6c0.9,1.1,1.3,2.7,1.3,4.8
		c0,0.9-0.1,1.8-0.3,2.6s-0.5,1.5-1,2.1c-0.5,0.6-1.1,1-1.8,1.3c-0.8,0.3-1.7,0.5-2.8,0.5c-0.9,0-1.7-0.1-2.5-0.2
		c-0.8-0.1-1.3-0.3-1.7-0.4V1.8z M1312.6,17.7c0.2,0.1,0.5,0.1,0.9,0.2c0.4,0,0.9,0.1,1.3,0.1c1.2,0,2.1-0.4,2.6-1.2
		c0.5-0.8,0.8-2.1,0.8-3.7c0-1.4-0.2-2.6-0.7-3.4c-0.5-0.9-1.3-1.3-2.4-1.3c-0.5,0-1,0.1-1.4,0.2c-0.5,0.1-0.8,0.3-1,0.5V17.7z"/>
	<path class="st0" d="M1323.9,8.7h-1.5V7.1h3.8v12h-2.2V8.7z M1324.8,4.8c-0.5,0-0.8-0.2-1.1-0.5c-0.3-0.3-0.4-0.7-0.4-1.2
		c0-0.5,0.1-0.9,0.4-1.2c0.3-0.3,0.6-0.5,1.1-0.5c0.5,0,0.9,0.2,1.1,0.5c0.3,0.3,0.4,0.7,0.4,1.2c0,0.5-0.1,0.8-0.4,1.2
		C1325.6,4.7,1325.3,4.8,1324.8,4.8z"/>
	<path class="st0" d="M1330,3h-1.5V1.5h3.7v17.6h-2.2V3z"/>
	<path class="st0" d="M1336.2,8.7h-1.5V7.1h3.8v12h-2.2V8.7z M1337.1,4.8c-0.5,0-0.8-0.2-1.1-0.5c-0.3-0.3-0.4-0.7-0.4-1.2
		c0-0.5,0.1-0.9,0.4-1.2c0.3-0.3,0.6-0.5,1.1-0.5c0.5,0,0.9,0.2,1.1,0.5c0.3,0.3,0.4,0.7,0.4,1.2c0,0.5-0.1,0.8-0.4,1.2
		C1337.9,4.7,1337.5,4.8,1337.1,4.8z"/>
	<path class="st0" d="M1350.4,18.2c-0.5,0.4-1,0.7-1.6,0.9s-1.3,0.4-2.1,0.4c-1.6,0-2.9-0.5-3.7-1.6c-0.8-1.1-1.2-2.7-1.2-4.8
		c0-1,0.1-1.8,0.4-2.6s0.6-1.5,1.1-2c0.5-0.6,1.1-1,1.8-1.3c0.7-0.3,1.6-0.5,2.5-0.5c0.4,0,0.8,0,1.2,0.1c0.4,0.1,0.7,0.1,1,0.2V1.4
		h2.2v15.3l1,1.5l-1.6,1.2L1350.4,18.2z M1349.8,8.6c-0.2-0.1-0.5-0.2-0.9-0.2c-0.4-0.1-0.8-0.1-1.3-0.1c-1.2,0-2.1,0.4-2.7,1.2
		c-0.6,0.8-0.9,2-0.9,3.6c0,1.5,0.2,2.7,0.7,3.5c0.5,0.8,1.2,1.3,2.3,1.3c0.7,0,1.2-0.1,1.6-0.3c0.4-0.2,0.8-0.5,1.1-0.8V8.6z"/>
	<path class="st0" d="M1362.7,18.1c-0.5,0.4-1,0.7-1.6,1c-0.6,0.3-1.3,0.4-2.2,0.4c-1.2,0-2.1-0.3-2.9-0.9s-1.1-1.6-1.1-2.9
		c0-0.7,0.1-1.3,0.4-1.8c0.2-0.5,0.6-0.9,1-1.2c0.4-0.3,1-0.5,1.6-0.7c0.6-0.1,1.3-0.2,2.1-0.2h2.1v-0.6c0-1-0.2-1.7-0.5-2.2
		c-0.3-0.4-0.9-0.7-1.8-0.7c-1.2,0-2.3,0.2-3.5,0.7l-0.6-1.5c0.5-0.2,1.1-0.4,1.8-0.6c0.7-0.2,1.6-0.3,2.6-0.3
		c0.9,0,1.7,0.1,2.2,0.4c0.5,0.3,1,0.6,1.2,1.1c0.3,0.4,0.5,1,0.5,1.6c0.1,0.6,0.1,1.3,0.1,1.9v5.2l1,1.5l-1.6,1.2L1362.7,18.1z
		 M1362.2,13.2h-1.9c-1.1,0-1.9,0.2-2.4,0.5c-0.5,0.3-0.7,0.9-0.7,1.8c0,0.8,0.2,1.4,0.5,1.7s0.8,0.6,1.5,0.6c0.7,0,1.3-0.1,1.8-0.4
		s0.9-0.5,1.1-0.8V13.2z"/>
	<path class="st0" d="M1376.3,18.2c-0.5,0.4-1,0.7-1.6,0.9s-1.3,0.4-2.1,0.4c-1.6,0-2.9-0.5-3.7-1.6c-0.8-1.1-1.2-2.7-1.2-4.8
		c0-1,0.1-1.8,0.4-2.6s0.6-1.5,1.1-2c0.5-0.6,1.1-1,1.8-1.3c0.7-0.3,1.6-0.5,2.5-0.5c0.4,0,0.8,0,1.2,0.1c0.4,0.1,0.7,0.1,1,0.2V1.4
		h2.2v15.3l1,1.5l-1.6,1.2L1376.3,18.2z M1375.7,8.6c-0.2-0.1-0.5-0.2-0.9-0.2c-0.4-0.1-0.8-0.1-1.3-0.1c-1.2,0-2.1,0.4-2.7,1.2
		c-0.6,0.8-0.9,2-0.9,3.6c0,1.5,0.2,2.7,0.7,3.5c0.5,0.8,1.2,1.3,2.3,1.3c0.7,0,1.2-0.1,1.6-0.3c0.4-0.2,0.8-0.5,1.1-0.8V8.6z"/>
	<path class="st0" d="M1395.7,18.6c-0.4,0.2-0.9,0.4-1.7,0.6c-0.7,0.2-1.5,0.3-2.3,0.3c-1.1,0-2-0.2-2.8-0.5
		c-0.7-0.3-1.3-0.7-1.8-1.3c-0.4-0.6-0.8-1.2-0.9-2c-0.2-0.8-0.3-1.7-0.3-2.6c0-0.9,0.1-1.7,0.3-2.5c0.2-0.8,0.5-1.5,1-2.1
		c0.4-0.6,1-1,1.7-1.4c0.7-0.3,1.5-0.5,2.4-0.5c0.9,0,1.7,0.2,2.3,0.6c0.6,0.4,1.1,0.8,1.5,1.4s0.6,1.2,0.8,2
		c0.2,0.7,0.3,1.5,0.3,2.2l-0.8,0.8h-7.1c0.1,1.4,0.4,2.5,0.9,3.1c0.6,0.7,1.4,1,2.6,1c0.6,0,1.2-0.1,1.7-0.2
		c0.5-0.1,1.1-0.3,1.5-0.5L1395.7,18.6z M1393.9,12.1c0-1.3-0.2-2.2-0.7-2.9s-1.2-1-2.1-1c-1,0-1.7,0.3-2.1,1s-0.7,1.6-0.7,2.9
		H1393.9z"/>
	<path class="st0" d="M1399.4,9.6l-0.9-2l1.8-0.9l1,1.6c0.7-0.5,1.4-0.9,2-1.2c0.6-0.2,1.3-0.4,2-0.4c0.8,0,1.5,0.1,2,0.4
		s1,0.6,1.3,1s0.5,0.9,0.7,1.5c0.1,0.6,0.2,1.2,0.2,1.8v7.8h-2.2v-7.7c0-1-0.2-1.7-0.6-2.2c-0.4-0.4-1-0.7-1.8-0.7
		c-0.6,0-1.2,0.1-1.7,0.3c-0.6,0.2-1,0.5-1.4,0.8v9.4h-2.2V9.6z"/>
	<path class="st0" d="M1417.9,9.6l-0.9-2l1.8-0.9l1,1.6c0.7-0.5,1.4-0.9,2-1.2c0.6-0.2,1.3-0.4,2-0.4c0.8,0,1.5,0.1,2,0.4
		s1,0.6,1.3,1s0.5,0.9,0.7,1.5c0.1,0.6,0.2,1.2,0.2,1.8v7.8h-2.2v-7.7c0-1-0.2-1.7-0.6-2.2c-0.4-0.4-1-0.7-1.8-0.7
		c-0.6,0-1.2,0.1-1.7,0.3c-0.6,0.2-1,0.5-1.4,0.8v9.4h-2.2V9.6z"/>
	<path class="st0" d="M1431.5,7.1h2.2v7.8c0,0.9,0.2,1.7,0.5,2.2c0.4,0.5,1,0.8,1.8,0.8c0.7,0,1.3-0.1,1.7-0.3
		c0.4-0.2,0.9-0.5,1.2-0.8V7.1h2.2v9.7l1,1.5l-1.6,1.2l-1.1-1.3c-0.6,0.5-1.3,0.9-1.9,1.1c-0.6,0.2-1.3,0.3-2,0.3
		c-0.9,0-1.6-0.1-2.1-0.4c-0.5-0.2-1-0.6-1.3-1c-0.3-0.4-0.5-0.9-0.6-1.5c-0.1-0.6-0.2-1.2-0.2-1.8V7.1z"/>
	<path class="st0" d="M1454.3,18.6c-0.4,0.2-0.9,0.4-1.7,0.6c-0.7,0.2-1.5,0.3-2.3,0.3c-1.1,0-2-0.2-2.8-0.5
		c-0.7-0.3-1.3-0.7-1.8-1.3c-0.4-0.6-0.8-1.2-0.9-2c-0.2-0.8-0.3-1.7-0.3-2.6c0-0.9,0.1-1.7,0.3-2.5c0.2-0.8,0.5-1.5,1-2.1
		c0.4-0.6,1-1,1.7-1.4c0.7-0.3,1.5-0.5,2.4-0.5c0.9,0,1.7,0.2,2.3,0.6c0.6,0.4,1.1,0.8,1.5,1.4s0.6,1.2,0.8,2
		c0.2,0.7,0.3,1.5,0.3,2.2l-0.8,0.8h-7.1c0.1,1.4,0.4,2.5,0.9,3.1c0.6,0.7,1.4,1,2.6,1c0.6,0,1.2-0.1,1.7-0.2
		c0.5-0.1,1.1-0.3,1.5-0.5L1454.3,18.6z M1452.5,12.1c0-1.3-0.2-2.2-0.7-2.9s-1.2-1-2.1-1c-1,0-1.7,0.3-2.1,1s-0.7,1.6-0.7,2.9
		H1452.5z"/>
	<path class="st0" d="M1457.4,16.8c0.4,0.2,0.9,0.4,1.5,0.7s1.4,0.4,2.2,0.4c0.8,0,1.5-0.1,2-0.4s0.7-0.8,0.7-1.4
		c0-0.4-0.1-0.7-0.2-0.9c-0.2-0.2-0.4-0.4-0.6-0.6c-0.3-0.2-0.6-0.3-0.9-0.4c-0.4-0.1-0.7-0.2-1.1-0.3c-0.4-0.1-0.9-0.2-1.3-0.4
		c-0.4-0.2-0.8-0.4-1.2-0.6c-0.3-0.3-0.6-0.6-0.8-1c-0.2-0.4-0.3-0.9-0.3-1.5c0-0.5,0.1-1,0.3-1.5c0.2-0.4,0.5-0.8,0.9-1.2
		s0.9-0.6,1.4-0.8s1.2-0.3,2-0.3c0.8,0,1.5,0.1,2.2,0.3s1.2,0.4,1.7,0.7l-0.7,1.5c-1-0.5-2.1-0.8-3.2-0.8c-0.8,0-1.4,0.1-1.8,0.4
		c-0.4,0.3-0.7,0.7-0.7,1.3c0,0.4,0.1,0.6,0.2,0.9c0.1,0.2,0.3,0.4,0.6,0.6s0.5,0.3,0.9,0.4c0.3,0.1,0.7,0.2,1,0.3
		c0.4,0.1,0.9,0.3,1.3,0.4s0.9,0.3,1.3,0.6c0.4,0.3,0.7,0.6,0.9,1s0.4,1,0.4,1.6c0,1.2-0.4,2.1-1.1,2.8c-0.8,0.7-1.9,1-3.5,1
		c-1.1,0-2-0.1-2.7-0.4c-0.8-0.3-1.3-0.5-1.7-0.8L1457.4,16.8z"/>
	<path class="st0" d="M1469.4,8.7h-2.2V7.1h2.3V3.5h2.2v3.6h3.6v1.6h-3.6v6.9c0,0.5,0,0.8,0.1,1.1s0.2,0.5,0.3,0.6
		c0.2,0.2,0.3,0.3,0.5,0.3c0.2,0.1,0.4,0.1,0.7,0.1s0.5,0,0.9-0.1c0.3-0.1,0.6-0.2,0.9-0.3l0.5,1.5c-0.3,0.1-0.7,0.3-1.2,0.4
		s-1,0.2-1.5,0.2c-0.6,0-1.1-0.1-1.5-0.2c-0.4-0.1-0.8-0.3-1.1-0.6c-0.3-0.3-0.5-0.6-0.7-1.1s-0.3-1-0.3-1.7V8.7z"/>
	<path class="st0" d="M1478.2,8.7h-1.5V7.1h3.1l0.4,1.6c0.2-0.2,0.4-0.4,0.6-0.6c0.2-0.2,0.5-0.4,0.7-0.5c0.3-0.2,0.6-0.3,0.9-0.4
		c0.3-0.1,0.7-0.1,1.2-0.1c0.6,0,1.1,0.1,1.5,0.2l-0.6,2c-0.2-0.1-0.4-0.1-0.6-0.2s-0.5,0-0.7,0c-1.2,0-2.1,0.4-2.8,1.2v9h-2.2V8.7z
		"/>
	<path class="st0" d="M1493.7,18.1c-0.5,0.4-1,0.7-1.6,1c-0.6,0.3-1.3,0.4-2.2,0.4c-1.2,0-2.1-0.3-2.9-0.9s-1.1-1.6-1.1-2.9
		c0-0.7,0.1-1.3,0.4-1.8c0.2-0.5,0.6-0.9,1-1.2c0.4-0.3,1-0.5,1.6-0.7c0.6-0.1,1.3-0.2,2.1-0.2h2.1v-0.6c0-1-0.2-1.7-0.5-2.2
		c-0.3-0.4-0.9-0.7-1.8-0.7c-1.2,0-2.3,0.2-3.5,0.7l-0.6-1.5c0.5-0.2,1.1-0.4,1.8-0.6c0.7-0.2,1.6-0.3,2.6-0.3
		c0.9,0,1.7,0.1,2.2,0.4c0.5,0.3,1,0.6,1.2,1.1c0.3,0.4,0.5,1,0.5,1.6c0.1,0.6,0.1,1.3,0.1,1.9v5.2l1,1.5l-1.6,1.2L1493.7,18.1z
		 M1493.2,13.2h-1.9c-1.1,0-1.9,0.2-2.4,0.5c-0.5,0.3-0.7,0.9-0.7,1.8c0,0.8,0.2,1.4,0.5,1.7s0.8,0.6,1.5,0.6c0.7,0,1.3-0.1,1.8-0.4
		s0.9-0.5,1.1-0.8V13.2z"/>
	<path class="st0" d="M1504,1.8h5c0.8,0,1.6,0.1,2.3,0.2c0.7,0.1,1.3,0.4,1.9,0.8s0.9,0.9,1.2,1.5s0.5,1.4,0.5,2.4
		c0,0.6-0.1,1.2-0.3,1.7c-0.2,0.5-0.5,1-0.8,1.4s-0.8,0.7-1.2,1c-0.4,0.3-0.9,0.5-1.4,0.6c0.3,0.2,0.5,0.4,0.7,0.7
		c0.2,0.3,0.5,0.6,0.6,0.9l3.7,6.1l-2.4,0.5l-3.6-6.1c-0.2-0.3-0.4-0.6-0.6-0.8c-0.2-0.2-0.4-0.4-0.6-0.5c-0.2-0.1-0.5-0.2-0.7-0.3
		c-0.3-0.1-0.6-0.1-1-0.1h-0.8v7.4h-2.4V1.8z M1508.7,9.9c1.1,0,2.1-0.2,2.7-0.7c0.7-0.5,1-1.3,1-2.4c0-0.7-0.1-1.2-0.3-1.6
		c-0.2-0.4-0.5-0.7-0.8-1c-0.3-0.2-0.7-0.4-1.2-0.5c-0.5-0.1-1-0.1-1.5-0.1h-2.3v6.4H1508.7z"/>
	<path class="st0" d="M1527.3,18.6c-0.4,0.2-0.9,0.4-1.7,0.6c-0.7,0.2-1.5,0.3-2.3,0.3c-1.1,0-2-0.2-2.8-0.5
		c-0.7-0.3-1.3-0.7-1.8-1.3c-0.4-0.6-0.8-1.2-0.9-2c-0.2-0.8-0.3-1.7-0.3-2.6c0-0.9,0.1-1.7,0.3-2.5c0.2-0.8,0.5-1.5,1-2.1
		c0.4-0.6,1-1,1.7-1.4c0.7-0.3,1.5-0.5,2.4-0.5c0.9,0,1.7,0.2,2.3,0.6c0.6,0.4,1.1,0.8,1.5,1.4s0.6,1.2,0.8,2
		c0.2,0.7,0.3,1.5,0.3,2.2l-0.8,0.8h-7.1c0.1,1.4,0.4,2.5,0.9,3.1c0.6,0.7,1.4,1,2.6,1c0.6,0,1.2-0.1,1.7-0.2
		c0.5-0.1,1.1-0.3,1.5-0.5L1527.3,18.6z M1525.5,12.1c0-1.3-0.2-2.2-0.7-2.9s-1.2-1-2.1-1c-1,0-1.7,0.3-2.1,1s-0.7,1.6-0.7,2.9
		H1525.5z"/>
	<path class="st0" d="M1539,18.2c-0.5,0.4-1,0.7-1.6,0.9s-1.3,0.4-2.1,0.4c-1.6,0-2.9-0.5-3.7-1.6c-0.8-1.1-1.2-2.7-1.2-4.8
		c0-1,0.1-1.8,0.4-2.6s0.6-1.5,1.1-2c0.5-0.6,1.1-1,1.8-1.3c0.7-0.3,1.6-0.5,2.5-0.5c0.4,0,0.8,0,1.2,0.1c0.4,0.1,0.7,0.1,1,0.2V1.4
		h2.2v15.3l1,1.5l-1.6,1.2L1539,18.2z M1538.4,8.6c-0.2-0.1-0.5-0.2-0.9-0.2c-0.4-0.1-0.8-0.1-1.3-0.1c-1.2,0-2.1,0.4-2.7,1.2
		c-0.6,0.8-0.9,2-0.9,3.6c0,1.5,0.2,2.7,0.7,3.5c0.5,0.8,1.2,1.3,2.3,1.3c0.7,0,1.2-0.1,1.6-0.3c0.4-0.2,0.8-0.5,1.1-0.8V8.6z"/>
	<path class="st0" d="M1557.3,18.2c-0.5,0.4-1,0.7-1.6,0.9s-1.3,0.4-2.1,0.4c-1.6,0-2.9-0.5-3.7-1.6c-0.8-1.1-1.2-2.7-1.2-4.8
		c0-1,0.1-1.8,0.4-2.6s0.6-1.5,1.1-2c0.5-0.6,1.1-1,1.8-1.3c0.7-0.3,1.6-0.5,2.5-0.5c0.4,0,0.8,0,1.2,0.1c0.4,0.1,0.7,0.1,1,0.2V1.4
		h2.2v15.3l1,1.5l-1.6,1.2L1557.3,18.2z M1556.7,8.6c-0.2-0.1-0.5-0.2-0.9-0.2c-0.4-0.1-0.8-0.1-1.3-0.1c-1.2,0-2.1,0.4-2.7,1.2
		c-0.6,0.8-0.9,2-0.9,3.6c0,1.5,0.2,2.7,0.7,3.5c0.5,0.8,1.2,1.3,2.3,1.3c0.7,0,1.2-0.1,1.6-0.3c0.4-0.2,0.8-0.5,1.1-0.8V8.6z"/>
	<path class="st0" d="M1572,18.6c-0.4,0.2-0.9,0.4-1.7,0.6c-0.7,0.2-1.5,0.3-2.3,0.3c-1.1,0-2-0.2-2.8-0.5c-0.7-0.3-1.3-0.7-1.8-1.3
		c-0.4-0.6-0.8-1.2-0.9-2c-0.2-0.8-0.3-1.7-0.3-2.6c0-0.9,0.1-1.7,0.3-2.5c0.2-0.8,0.5-1.5,1-2.1c0.4-0.6,1-1,1.7-1.4
		c0.7-0.3,1.5-0.5,2.4-0.5c0.9,0,1.7,0.2,2.3,0.6c0.6,0.4,1.1,0.8,1.5,1.4s0.6,1.2,0.8,2c0.2,0.7,0.3,1.5,0.3,2.2l-0.8,0.8h-7.1
		c0.1,1.4,0.4,2.5,0.9,3.1c0.6,0.7,1.4,1,2.6,1c0.6,0,1.2-0.1,1.7-0.2c0.5-0.1,1.1-0.3,1.5-0.5L1572,18.6z M1570.2,12.1
		c0-1.3-0.2-2.2-0.7-2.9s-1.2-1-2.1-1c-1,0-1.7,0.3-2.1,1s-0.7,1.6-0.7,2.9H1570.2z"/>
	<path class="st0" d="M1592.2,18.1c-0.5,0.4-1.2,0.7-2.1,1s-1.9,0.4-2.9,0.4c-1.4,0-2.5-0.2-3.5-0.7c-0.9-0.4-1.7-1.1-2.3-1.9
		s-1-1.8-1.3-2.9c-0.3-1.1-0.4-2.3-0.4-3.7c0-1.3,0.1-2.5,0.4-3.6c0.3-1.1,0.7-2.1,1.4-2.9c0.6-0.8,1.4-1.4,2.3-1.9
		c0.9-0.5,2-0.7,3.3-0.7c1,0,1.9,0.1,2.7,0.4c0.8,0.3,1.4,0.5,2,0.9l-0.8,1.6c-0.5-0.3-1.1-0.6-1.7-0.8c-0.6-0.2-1.3-0.3-2-0.3
		c-0.7,0-1.3,0.1-1.9,0.3s-1.1,0.6-1.6,1.1s-0.8,1.3-1.1,2.2c-0.3,0.9-0.4,2.2-0.4,3.6c0,2.4,0.4,4.2,1.2,5.4s2.1,1.8,3.8,1.8
		c0.4,0,0.8,0,1.1-0.1s0.7-0.1,1-0.2c0.3-0.1,0.6-0.2,0.9-0.3c0.3-0.1,0.6-0.3,1-0.5L1592.2,18.1z"/>
	<path class="st0" d="M1599.1,19.5c-1,0-1.9-0.2-2.6-0.5c-0.7-0.3-1.2-0.8-1.7-1.3c-0.4-0.6-0.7-1.3-0.9-2c-0.2-0.8-0.3-1.6-0.3-2.6
		s0.1-1.8,0.3-2.6c0.2-0.8,0.6-1.5,1-2.1c0.4-0.6,1-1,1.7-1.3c0.7-0.3,1.5-0.5,2.4-0.5c1,0,1.8,0.2,2.5,0.5c0.7,0.3,1.3,0.8,1.7,1.3
		c0.4,0.6,0.8,1.2,1,2c0.2,0.8,0.3,1.7,0.3,2.6c0,0.9-0.1,1.8-0.3,2.6s-0.5,1.5-1,2c-0.4,0.6-1,1-1.7,1.3
		C1600.9,19.4,1600.1,19.5,1599.1,19.5z M1599.2,18c1.2,0,2-0.4,2.4-1.2c0.5-0.8,0.7-2,0.7-3.6c0-1.5-0.2-2.7-0.7-3.5
		s-1.3-1.2-2.4-1.2c-1.2,0-2,0.4-2.5,1.2c-0.5,0.8-0.7,2-0.7,3.6c0,0.8,0.1,1.4,0.2,2c0.1,0.6,0.3,1.1,0.5,1.5c0.2,0.4,0.6,0.7,1,1
		C1598.1,17.8,1598.6,18,1599.2,18z"/>
	<path class="st0" d="M1608,9.6l-0.9-2l1.8-0.9l1,1.6c0.7-0.5,1.4-0.9,2-1.2c0.6-0.2,1.3-0.4,2-0.4c0.8,0,1.5,0.1,2,0.4s1,0.6,1.3,1
		s0.5,0.9,0.7,1.5c0.1,0.6,0.2,1.2,0.2,1.8v7.8h-2.2v-7.7c0-1-0.2-1.7-0.6-2.2c-0.4-0.4-1-0.7-1.8-0.7c-0.6,0-1.2,0.1-1.7,0.3
		c-0.6,0.2-1,0.5-1.4,0.8v9.4h-2.2V9.6z"/>
	<path class="st0" d="M1630.7,18.6c-0.4,0.2-1,0.5-1.6,0.7c-0.6,0.2-1.4,0.3-2.2,0.3c-1.1,0-2-0.2-2.7-0.5c-0.7-0.3-1.3-0.7-1.7-1.3
		s-0.7-1.2-0.9-2c-0.2-0.8-0.3-1.6-0.3-2.6c0-0.9,0.1-1.8,0.3-2.6c0.2-0.8,0.6-1.5,1-2.1s1.1-1.1,1.8-1.4c0.7-0.3,1.6-0.5,2.6-0.5
		c0.7,0,1.4,0.1,2,0.3s1.1,0.4,1.6,0.7l-0.7,1.5c-0.4-0.2-0.9-0.4-1.4-0.6c-0.5-0.2-1-0.2-1.6-0.2c-1.2,0-2.1,0.4-2.6,1.2
		c-0.6,0.8-0.8,2-0.8,3.7c0,0.7,0.1,1.4,0.2,1.9c0.1,0.6,0.3,1.1,0.6,1.5c0.3,0.4,0.6,0.7,1.1,0.9c0.4,0.2,1,0.3,1.7,0.3
		c0.5,0,1,0,1.5-0.1c0.4-0.1,1-0.3,1.6-0.6L1630.7,18.6z"/>
	<path class="st0" d="M1642,18.6c-0.4,0.2-0.9,0.4-1.7,0.6c-0.7,0.2-1.5,0.3-2.3,0.3c-1.1,0-2-0.2-2.8-0.5c-0.7-0.3-1.3-0.7-1.8-1.3
		c-0.4-0.6-0.8-1.2-0.9-2c-0.2-0.8-0.3-1.7-0.3-2.6c0-0.9,0.1-1.7,0.3-2.5c0.2-0.8,0.5-1.5,1-2.1c0.4-0.6,1-1,1.7-1.4
		c0.7-0.3,1.5-0.5,2.4-0.5c0.9,0,1.7,0.2,2.3,0.6c0.6,0.4,1.1,0.8,1.5,1.4s0.6,1.2,0.8,2c0.2,0.7,0.3,1.5,0.3,2.2l-0.8,0.8h-7.1
		c0.1,1.4,0.4,2.5,0.9,3.1c0.6,0.7,1.4,1,2.6,1c0.6,0,1.2-0.1,1.7-0.2c0.5-0.1,1.1-0.3,1.5-0.5L1642,18.6z M1640.2,12.1
		c0-1.3-0.2-2.2-0.7-2.9s-1.2-1-2.1-1c-1,0-1.7,0.3-2.1,1s-0.7,1.6-0.7,2.9H1640.2z"/>
	<path class="st0" d="M1645.1,16.8c0.4,0.2,0.9,0.4,1.5,0.7s1.4,0.4,2.2,0.4c0.8,0,1.5-0.1,2-0.4s0.7-0.8,0.7-1.4
		c0-0.4-0.1-0.7-0.2-0.9c-0.2-0.2-0.4-0.4-0.6-0.6c-0.3-0.2-0.6-0.3-0.9-0.4c-0.4-0.1-0.7-0.2-1.1-0.3c-0.4-0.1-0.9-0.2-1.3-0.4
		c-0.4-0.2-0.8-0.4-1.2-0.6c-0.3-0.3-0.6-0.6-0.8-1c-0.2-0.4-0.3-0.9-0.3-1.5c0-0.5,0.1-1,0.3-1.5c0.2-0.4,0.5-0.8,0.9-1.2
		s0.9-0.6,1.4-0.8s1.2-0.3,2-0.3c0.8,0,1.5,0.1,2.2,0.3s1.2,0.4,1.7,0.7l-0.7,1.5c-1-0.5-2.1-0.8-3.2-0.8c-0.8,0-1.4,0.1-1.8,0.4
		c-0.4,0.3-0.7,0.7-0.7,1.3c0,0.4,0.1,0.6,0.2,0.9c0.1,0.2,0.3,0.4,0.6,0.6s0.5,0.3,0.9,0.4c0.3,0.1,0.7,0.2,1,0.3
		c0.4,0.1,0.9,0.3,1.3,0.4s0.9,0.3,1.3,0.6c0.4,0.3,0.7,0.6,0.9,1s0.4,1,0.4,1.6c0,1.2-0.4,2.1-1.1,2.8c-0.8,0.7-1.9,1-3.5,1
		c-1.1,0-2-0.1-2.7-0.4c-0.8-0.3-1.3-0.5-1.7-0.8L1645.1,16.8z"/>
	<path class="st0" d="M1656.6,8.7h-1.5V7.1h3.8v12h-2.2V8.7z M1657.5,4.8c-0.5,0-0.8-0.2-1.1-0.5c-0.3-0.3-0.4-0.7-0.4-1.2
		c0-0.5,0.1-0.9,0.4-1.2c0.3-0.3,0.6-0.5,1.1-0.5c0.5,0,0.9,0.2,1.1,0.5c0.3,0.3,0.4,0.7,0.4,1.2c0,0.5-0.1,0.8-0.4,1.2
		C1658.3,4.7,1657.9,4.8,1657.5,4.8z"/>
	<path class="st0" d="M1667.5,19.5c-1,0-1.9-0.2-2.6-0.5c-0.7-0.3-1.2-0.8-1.7-1.3c-0.4-0.6-0.7-1.3-0.9-2c-0.2-0.8-0.3-1.6-0.3-2.6
		s0.1-1.8,0.3-2.6c0.2-0.8,0.6-1.5,1-2.1c0.4-0.6,1-1,1.7-1.3c0.7-0.3,1.5-0.5,2.4-0.5c1,0,1.8,0.2,2.5,0.5c0.7,0.3,1.3,0.8,1.7,1.3
		c0.4,0.6,0.8,1.2,1,2c0.2,0.8,0.3,1.7,0.3,2.6c0,0.9-0.1,1.8-0.3,2.6s-0.5,1.5-1,2c-0.4,0.6-1,1-1.7,1.3
		C1669.3,19.4,1668.5,19.5,1667.5,19.5z M1667.6,18c1.2,0,2-0.4,2.4-1.2c0.5-0.8,0.7-2,0.7-3.6c0-1.5-0.2-2.7-0.7-3.5
		s-1.3-1.2-2.4-1.2c-1.2,0-2,0.4-2.5,1.2c-0.5,0.8-0.7,2-0.7,3.6c0,0.8,0.1,1.4,0.2,2c0.1,0.6,0.3,1.1,0.5,1.5c0.2,0.4,0.6,0.7,1,1
		C1666.5,17.8,1667,18,1667.6,18z"/>
	<path class="st0" d="M1676.4,9.6l-0.9-2l1.8-0.9l1,1.6c0.7-0.5,1.4-0.9,2-1.2c0.6-0.2,1.3-0.4,2-0.4c0.8,0,1.5,0.1,2,0.4
		s1,0.6,1.3,1s0.5,0.9,0.7,1.5c0.1,0.6,0.2,1.2,0.2,1.8v7.8h-2.2v-7.7c0-1-0.2-1.7-0.6-2.2c-0.4-0.4-1-0.7-1.8-0.7
		c-0.6,0-1.2,0.1-1.7,0.3c-0.6,0.2-1,0.5-1.4,0.8v9.4h-2.2V9.6z"/>
	<path class="st0" d="M1697,18.1c-0.5,0.4-1,0.7-1.6,1c-0.6,0.3-1.3,0.4-2.2,0.4c-1.2,0-2.1-0.3-2.9-0.9s-1.1-1.6-1.1-2.9
		c0-0.7,0.1-1.3,0.4-1.8c0.2-0.5,0.6-0.9,1-1.2c0.4-0.3,1-0.5,1.6-0.7c0.6-0.1,1.3-0.2,2.1-0.2h2.1v-0.6c0-1-0.2-1.7-0.5-2.2
		c-0.3-0.4-0.9-0.7-1.8-0.7c-1.2,0-2.3,0.2-3.5,0.7l-0.6-1.5c0.5-0.2,1.1-0.4,1.8-0.6c0.7-0.2,1.6-0.3,2.6-0.3
		c0.9,0,1.7,0.1,2.2,0.4c0.5,0.3,1,0.6,1.2,1.1c0.3,0.4,0.5,1,0.5,1.6c0.1,0.6,0.1,1.3,0.1,1.9v5.2l1,1.5l-1.6,1.2L1697,18.1z
		 M1696.5,13.2h-1.9c-1.1,0-1.9,0.2-2.4,0.5c-0.5,0.3-0.7,0.9-0.7,1.8c0,0.8,0.2,1.4,0.5,1.7s0.8,0.6,1.5,0.6c0.7,0,1.3-0.1,1.8-0.4
		s0.9-0.5,1.1-0.8V13.2z"/>
	<path class="st0" d="M1702.7,8.7h-1.5V7.1h3.1l0.4,1.6c0.2-0.2,0.4-0.4,0.6-0.6c0.2-0.2,0.5-0.4,0.7-0.5c0.3-0.2,0.6-0.3,0.9-0.4
		c0.3-0.1,0.7-0.1,1.2-0.1c0.6,0,1.1,0.1,1.5,0.2l-0.6,2c-0.2-0.1-0.4-0.1-0.6-0.2s-0.5,0-0.7,0c-1.2,0-2.1,0.4-2.8,1.2v9h-2.2V8.7z
		"/>
	<path class="st0" d="M1711.9,8.7h-1.5V7.1h3.8v12h-2.2V8.7z M1712.7,4.8c-0.5,0-0.8-0.2-1.1-0.5c-0.3-0.3-0.4-0.7-0.4-1.2
		c0-0.5,0.1-0.9,0.4-1.2c0.3-0.3,0.6-0.5,1.1-0.5c0.5,0,0.9,0.2,1.1,0.5c0.3,0.3,0.4,0.7,0.4,1.2c0,0.5-0.1,0.8-0.4,1.2
		C1713.6,4.7,1713.2,4.8,1712.7,4.8z"/>
	<path class="st0" d="M1722.8,19.5c-1,0-1.9-0.2-2.6-0.5c-0.7-0.3-1.2-0.8-1.7-1.3c-0.4-0.6-0.7-1.3-0.9-2c-0.2-0.8-0.3-1.6-0.3-2.6
		s0.1-1.8,0.3-2.6c0.2-0.8,0.6-1.5,1-2.1c0.4-0.6,1-1,1.7-1.3c0.7-0.3,1.5-0.5,2.4-0.5c1,0,1.8,0.2,2.5,0.5c0.7,0.3,1.3,0.8,1.7,1.3
		c0.4,0.6,0.8,1.2,1,2c0.2,0.8,0.3,1.7,0.3,2.6c0,0.9-0.1,1.8-0.3,2.6s-0.5,1.5-1,2c-0.4,0.6-1,1-1.7,1.3
		C1724.6,19.4,1723.8,19.5,1722.8,19.5z M1722.8,18c1.2,0,2-0.4,2.4-1.2c0.5-0.8,0.7-2,0.7-3.6c0-1.5-0.2-2.7-0.7-3.5
		s-1.3-1.2-2.4-1.2c-1.2,0-2,0.4-2.5,1.2c-0.5,0.8-0.7,2-0.7,3.6c0,0.8,0.1,1.4,0.2,2c0.1,0.6,0.3,1.1,0.5,1.5c0.2,0.4,0.6,0.7,1,1
		C1721.8,17.8,1722.3,18,1722.8,18z"/>
	<path class="st0" d="M1731.1,16.8c0.4,0.2,0.9,0.4,1.5,0.7s1.4,0.4,2.2,0.4c0.8,0,1.5-0.1,2-0.4s0.7-0.8,0.7-1.4
		c0-0.4-0.1-0.7-0.2-0.9c-0.2-0.2-0.4-0.4-0.6-0.6c-0.3-0.2-0.6-0.3-0.9-0.4c-0.4-0.1-0.7-0.2-1.1-0.3c-0.4-0.1-0.9-0.2-1.3-0.4
		c-0.4-0.2-0.8-0.4-1.2-0.6c-0.3-0.3-0.6-0.6-0.8-1c-0.2-0.4-0.3-0.9-0.3-1.5c0-0.5,0.1-1,0.3-1.5c0.2-0.4,0.5-0.8,0.9-1.2
		s0.9-0.6,1.4-0.8s1.2-0.3,2-0.3c0.8,0,1.5,0.1,2.2,0.3s1.2,0.4,1.7,0.7l-0.7,1.5c-1-0.5-2.1-0.8-3.2-0.8c-0.8,0-1.4,0.1-1.8,0.4
		c-0.4,0.3-0.7,0.7-0.7,1.3c0,0.4,0.1,0.6,0.2,0.9c0.1,0.2,0.3,0.4,0.6,0.6s0.5,0.3,0.9,0.4c0.3,0.1,0.7,0.2,1,0.3
		c0.4,0.1,0.9,0.3,1.3,0.4s0.9,0.3,1.3,0.6c0.4,0.3,0.7,0.6,0.9,1s0.4,1,0.4,1.6c0,1.2-0.4,2.1-1.1,2.8c-0.8,0.7-1.9,1-3.5,1
		c-1.1,0-2-0.1-2.7-0.4c-0.8-0.3-1.3-0.5-1.7-0.8L1731.1,16.8z"/>
	<path class="st0" d="M1743.5,19.5c-0.5,0-0.9-0.2-1.2-0.5c-0.2-0.3-0.4-0.7-0.4-1.2c0-0.5,0.1-0.9,0.4-1.2c0.2-0.3,0.6-0.5,1.2-0.5
		c0.5,0,0.9,0.2,1.1,0.5c0.2,0.3,0.4,0.7,0.4,1.2c0,0.5-0.1,0.9-0.4,1.2C1744.4,19.4,1744,19.5,1743.5,19.5z"/>
</g>
</svg>
