<?xml version="1.0" encoding="utf-8"?>
<!-- Generator: Adobe Illustrator 19.2.1, SVG Export Plug-In . SVG Version: 6.00 Build 0)  -->
<!DOCTYPE svg PUBLIC "-//W3C//DTD SVG 1.1//EN" "http://www.w3.org/Graphics/SVG/1.1/DTD/svg11.dtd">
<svg version="1.1" id="Layer_1" xmlns="http://www.w3.org/2000/svg" xmlns:xlink="http://www.w3.org/1999/xlink" x="0px" y="0px"
	 viewBox="0 0 494.4 36.4" style="enable-background:new 0 0 494.4 36.4;" xml:space="preserve">
<style type="text/css">
	.st0{fill:#EB2030;}
</style>
<g>
	<g>
		<path class="st0" d="M11.9,9.4c1,0,1.8,0.1,2.5,0.3c0.7,0.2,1.3,0.5,1.8,1c0.5,0.5,0.9,1.1,1.3,1.8c0.3,0.8,0.7,1.7,1,2.8
			l5.2,20.4l-5.8,0.6l-1.9-7.5H7.5l-2,7.5L0,35.5l5.7-20.1c0.3-0.9,0.6-1.7,0.9-2.5c0.3-0.7,0.7-1.4,1.2-1.9
			c0.5-0.5,1.1-0.9,1.7-1.2C10.1,9.5,10.9,9.4,11.9,9.4z M8.7,24.2h6.1l-1.9-8.2c-0.1-0.5-0.2-0.8-0.4-1.1c-0.1-0.2-0.3-0.4-0.6-0.4
			c-0.3,0-0.6,0.1-0.7,0.3c-0.2,0.2-0.3,0.6-0.4,1.1L8.7,24.2z"/>
		<path class="st0" d="M35.9,36.4c-2,0-3.6-0.2-4.9-0.7c-1.3-0.5-2.4-1.2-3.1-2.1c-0.8-0.9-1.3-2.1-1.7-3.6c-0.3-1.4-0.5-3.1-0.5-5
			V9.8h5.8v14.8c0,1.3,0.1,2.5,0.2,3.4c0.2,0.9,0.4,1.7,0.8,2.3c0.4,0.6,0.8,1,1.4,1.3s1.3,0.4,2.1,0.4c1.8,0,3-0.6,3.6-1.8
			s1-3,1-5.3V9.8h5.6v15c0,1.7-0.2,3.3-0.5,4.7s-0.9,2.6-1.7,3.7c-0.8,1-1.9,1.8-3.2,2.4S37.9,36.4,35.9,36.4z"/>
		<path class="st0" d="M69,14.3h-7v21.5h-5.8V14.3h-7V9.8H69V14.3z"/>
		<path class="st0" d="M70.1,23c0-4.4,0.9-7.8,2.8-10.2c1.9-2.4,4.7-3.5,8.4-3.5c3.6,0,6.3,1.1,8.2,3.4c1.9,2.3,2.9,5.7,2.9,10.2
			c0,4.3-0.9,7.7-2.8,10c-1.9,2.3-4.7,3.5-8.6,3.5c-2,0-3.6-0.3-5-0.9c-1.4-0.6-2.5-1.4-3.4-2.6c-0.9-1.1-1.5-2.5-1.9-4.2
			C70.3,27.1,70.1,25.2,70.1,23z M81.2,32.1c0.9,0,1.6-0.2,2.3-0.5c0.6-0.3,1.2-0.8,1.6-1.6c0.4-0.7,0.8-1.7,1-2.8
			c0.2-1.2,0.3-2.6,0.3-4.3c0-3.2-0.4-5.6-1.2-7.1c-0.8-1.5-2.1-2.2-3.8-2.2c-0.8,0-1.5,0.2-2.2,0.5c-0.6,0.3-1.2,0.9-1.7,1.6
			c-0.5,0.7-0.8,1.7-1,2.9c-0.2,1.2-0.4,2.6-0.4,4.3c0,3.2,0.4,5.5,1.2,7S79.4,32.1,81.2,32.1z"/>
		<path class="st0" d="M108.4,28.8c-1,0-1.8-0.2-2.3-0.6c-0.5-0.4-1-1-1.4-1.9l-3.1-6.7l-0.5,16.1h-5.4l1.3-26h5.5l5.2,12
			c0.1,0.3,0.2,0.5,0.3,0.6c0.1,0.1,0.2,0.2,0.4,0.2s0.4-0.1,0.5-0.2c0.1-0.1,0.2-0.3,0.3-0.6l5.7-12h5.1l1.3,26h-5.5l-0.5-16.4
			l-3.3,6.9c-0.4,0.8-0.9,1.4-1.4,1.9C110.1,28.6,109.4,28.8,108.4,28.8z"/>
		<path class="st0" d="M135.4,9.4c1,0,1.8,0.1,2.5,0.3c0.7,0.2,1.3,0.5,1.8,1c0.5,0.5,0.9,1.1,1.3,1.8c0.3,0.8,0.7,1.7,1,2.8
			l5.2,20.4l-5.8,0.6l-1.9-7.5H131l-2,7.5l-5.5-0.8l5.7-20.1c0.3-0.9,0.6-1.7,0.9-2.5c0.3-0.7,0.7-1.4,1.2-1.9
			c0.5-0.5,1.1-0.9,1.7-1.2C133.7,9.5,134.5,9.4,135.4,9.4z M133.3,8.5l-2-2.4l6.2-6.1l3.1,3.5L133.3,8.5z M132.2,24.2h6.1l-1.9-8.2
			c-0.1-0.5-0.2-0.8-0.4-1.1c-0.1-0.2-0.3-0.4-0.6-0.4c-0.3,0-0.6,0.1-0.7,0.3c-0.2,0.2-0.3,0.6-0.4,1.1L132.2,24.2z"/>
		<path class="st0" d="M165.7,14.3h-7v21.5h-5.8V14.3h-7V9.8h19.8V14.3z"/>
		<path class="st0" d="M174.3,35.8h-5.8v-26h5.8V35.8z"/>
		<path class="st0" d="M195.7,15.2c-0.9-0.6-1.8-1-2.6-1.2c-0.9-0.2-1.7-0.3-2.5-0.3c-1,0-1.8,0.2-2.5,0.5c-0.7,0.3-1.3,0.9-1.8,1.6
			c-0.5,0.7-0.9,1.7-1.1,2.9s-0.4,2.6-0.4,4.3c0,3.1,0.5,5.4,1.5,6.8c1,1.4,2.5,2.1,4.4,2.1c1,0,1.9-0.1,2.9-0.4
			c0.9-0.3,1.9-0.7,2.9-1.4l2.1,3.8c-1.3,0.9-2.7,1.5-4.1,1.9c-1.4,0.4-2.8,0.6-4.2,0.6c-4,0-6.9-1.1-8.7-3.3
			c-1.8-2.2-2.7-5.6-2.7-10.2c0-4.4,1-7.8,3-10.2c2-2.4,4.9-3.5,8.7-3.5c0.8,0,1.6,0.1,2.3,0.2s1.3,0.3,1.9,0.5
			c0.6,0.2,1.2,0.4,1.7,0.7c0.5,0.3,1.1,0.6,1.6,0.9L195.7,15.2z"/>
		<path class="st0" d="M211.6,9.4c1,0,1.8,0.1,2.5,0.3c0.7,0.2,1.3,0.5,1.8,1c0.5,0.5,0.9,1.1,1.3,1.8c0.3,0.8,0.7,1.7,1,2.8
			l5.2,20.4l-5.8,0.6l-1.9-7.5h-8.4l-2,7.5l-5.5-0.8l5.7-20.1c0.3-0.9,0.6-1.7,0.9-2.5c0.3-0.7,0.7-1.4,1.2-1.9
			c0.5-0.5,1.1-0.9,1.7-1.2C209.8,9.5,210.6,9.4,211.6,9.4z M208.4,24.2h6.1l-1.9-8.2c-0.1-0.5-0.2-0.8-0.4-1.1
			c-0.1-0.2-0.3-0.4-0.6-0.4c-0.3,0-0.6,0.1-0.7,0.3c-0.2,0.2-0.3,0.6-0.4,1.1L208.4,24.2z"/>
		<path class="st0" d="M251.2,14.3h-7v21.5h-5.8V14.3h-7V9.8h19.8V14.3z"/>
		<path class="st0" d="M263.2,26.4c-0.2,0-0.4,0.1-0.5,0.2c-0.1,0.1-0.2,0.3-0.4,0.6l-5.1,9.1l-5.5-1.1l7.2-12.3l-6.2-12.2l5.9-1.2
			l4,8.7c0.2,0.3,0.3,0.6,0.5,0.7c0.1,0.1,0.3,0.2,0.5,0.2s0.4-0.1,0.5-0.2c0.1-0.1,0.3-0.3,0.4-0.6l4.8-8.7l5.4,1.1l-6.6,12
			l6.7,12.5l-6,1.2l-4.5-9c-0.2-0.4-0.3-0.6-0.4-0.7C263.6,26.4,263.5,26.4,263.2,26.4z"/>
		<path class="st0" d="M276,22.2h11.5v4.5H276V22.2z"/>
		<path class="st0" d="M298.2,31.3h11.4v4.5h-17.2v-26h5.8V31.3z"/>
		<path class="st0" d="M336.9,15.3c-0.8-0.6-1.6-1-2.6-1.3c-1-0.3-1.9-0.4-2.9-0.4c-1,0-1.8,0.2-2.6,0.5c-0.8,0.3-1.4,0.9-1.9,1.6
			c-0.5,0.7-0.9,1.7-1.2,2.9c-0.3,1.2-0.4,2.6-0.4,4.3c0,3.2,0.5,5.5,1.4,7s2.3,2.1,4,2.1c0.7,0,1.4-0.1,2.2-0.2
			c0.7-0.1,1.4-0.3,2-0.6v-5.5h-4.4v-4.3h9.5V34c-0.5,0.3-1.1,0.6-1.7,0.9c-0.6,0.3-1.3,0.6-2.1,0.8s-1.6,0.4-2.5,0.5
			s-2,0.2-3.2,0.2c-2,0-3.7-0.3-5.1-0.9c-1.4-0.6-2.6-1.4-3.5-2.6c-0.9-1.1-1.5-2.5-1.9-4.2s-0.6-3.6-0.6-5.8c0-4.4,1-7.8,3.1-10.2
			s5-3.5,8.8-3.5c1.8,0,3.3,0.2,4.6,0.7c1.2,0.4,2.3,1,3.3,1.6L336.9,15.3z"/>
		<path class="st0" d="M354.2,9.4c1,0,1.8,0.1,2.5,0.3c0.7,0.2,1.3,0.5,1.8,1c0.5,0.5,0.9,1.1,1.3,1.8s0.7,1.7,1,2.8l5.2,20.4
			l-5.8,0.6l-1.9-7.5h-8.4l-2,7.5l-5.5-0.8l5.7-20.1c0.3-0.9,0.6-1.7,0.9-2.5c0.3-0.7,0.7-1.4,1.2-1.9c0.5-0.5,1.1-0.9,1.7-1.2
			C352.4,9.5,353.2,9.4,354.2,9.4z M350.9,24.2h6.1l-1.9-8.2c-0.1-0.5-0.2-0.8-0.4-1.1c-0.1-0.2-0.3-0.4-0.6-0.4
			c-0.3,0-0.6,0.1-0.7,0.3c-0.2,0.2-0.3,0.6-0.4,1.1L350.9,24.2z"/>
		<path class="st0" d="M369.1,30.1c1.3,0.7,2.5,1.3,3.6,1.5c1.1,0.3,2.2,0.4,3.2,0.4c1.6,0,2.7-0.3,3.4-0.9c0.7-0.6,1-1.4,1-2.4
			c0-0.5-0.1-0.9-0.2-1.3c-0.1-0.4-0.4-0.7-0.7-1c-0.4-0.3-0.9-0.5-1.5-0.8c-0.6-0.2-1.5-0.5-2.5-0.7c-1.1-0.3-2.2-0.6-3.1-1
			c-0.9-0.4-1.7-0.9-2.4-1.4c-0.7-0.6-1.2-1.3-1.6-2.2c-0.4-0.9-0.6-1.9-0.6-3.2c0-2.5,0.8-4.5,2.5-5.9c1.7-1.4,4.1-2.2,7.2-2.2
			c1.6,0,3.1,0.2,4.4,0.5c1.3,0.3,2.6,0.9,3.9,1.6l-2.1,3.8c-0.2-0.1-0.6-0.3-1-0.5c-0.4-0.2-0.9-0.4-1.4-0.6
			c-0.5-0.2-1.1-0.3-1.6-0.4c-0.6-0.1-1.2-0.2-1.7-0.2c-1.5,0-2.6,0.3-3.3,0.8c-0.6,0.5-1,1.2-1,2.1c0,0.6,0.1,1,0.3,1.4
			c0.2,0.4,0.5,0.7,0.9,1c0.4,0.3,1,0.6,1.7,0.8c0.7,0.2,1.6,0.5,2.6,0.8c0.8,0.2,1.6,0.5,2.5,0.9c0.8,0.3,1.6,0.8,2.3,1.4
			c0.7,0.6,1.2,1.3,1.7,2.1c0.4,0.9,0.7,1.9,0.7,3.2c0,2.8-0.9,4.9-2.6,6.4c-1.7,1.5-4.2,2.2-7.5,2.2c-2,0-3.7-0.2-5.2-0.6
			c-1.5-0.4-2.8-1-3.9-1.8L369.1,30.1z"/>
		<path class="st0" d="M389.5,23c0-4.4,0.9-7.8,2.8-10.2c1.9-2.4,4.7-3.5,8.4-3.5c3.6,0,6.3,1.1,8.2,3.4c1.9,2.3,2.9,5.7,2.9,10.2
			c0,4.3-0.9,7.7-2.8,10c-1.9,2.3-4.7,3.5-8.6,3.5c-2,0-3.6-0.3-5-0.9c-1.4-0.6-2.5-1.4-3.4-2.6c-0.9-1.1-1.5-2.5-1.9-4.2
			S389.5,25.2,389.5,23z M400.6,32.1c0.9,0,1.6-0.2,2.3-0.5c0.6-0.3,1.2-0.8,1.6-1.6c0.4-0.7,0.8-1.7,1-2.8c0.2-1.2,0.3-2.6,0.3-4.3
			c0-3.2-0.4-5.6-1.2-7.1c-0.8-1.5-2.1-2.2-3.8-2.2c-0.8,0-1.5,0.2-2.2,0.5c-0.6,0.3-1.2,0.9-1.7,1.6c-0.5,0.7-0.8,1.7-1,2.9
			c-0.2,1.2-0.4,2.6-0.4,4.3c0,3.2,0.4,5.5,1.2,7C397.6,31.4,398.9,32.1,400.6,32.1z"/>
		<path class="st0" d="M422,31.3h11.4v4.5h-17.2v-26h5.8V31.3z"/>
		<path class="st0" d="M442.3,35.8h-5.8v-26h5.8V35.8z"/>
		<path class="st0" d="M447.3,9.8h6.5l8.3,18.8c0.1,0.2,0.1,0.3,0.2,0.5c0.1,0.1,0.2,0.2,0.3,0.2c0.2,0,0.3-0.1,0.3-0.2
			c0-0.1,0.1-0.3,0.1-0.5V9.8h5v21.5c0,1.4-0.4,2.5-1.1,3.4s-1.9,1.3-3.7,1.3c-0.8,0-1.5-0.1-2-0.3s-1-0.4-1.4-0.7
			c-0.4-0.3-0.7-0.7-1-1.1c-0.3-0.4-0.5-0.9-0.8-1.5l-5.8-13v16.3h-5V9.8z"/>
		<path class="st0" d="M482.7,9.4c1,0,1.8,0.1,2.5,0.3c0.7,0.2,1.3,0.5,1.8,1c0.5,0.5,0.9,1.1,1.3,1.8c0.3,0.8,0.7,1.7,1,2.8
			l5.2,20.4l-5.8,0.6l-1.9-7.5h-8.4l-2,7.5l-5.5-0.8l5.7-20.1c0.3-0.9,0.6-1.7,0.9-2.5c0.3-0.7,0.7-1.4,1.2-1.9
			c0.5-0.5,1.1-0.9,1.7-1.2C481,9.5,481.8,9.4,482.7,9.4z M479.5,24.2h6.1l-1.9-8.2c-0.1-0.5-0.2-0.8-0.4-1.1
			c-0.1-0.2-0.3-0.4-0.6-0.4c-0.3,0-0.6,0.1-0.7,0.3c-0.2,0.2-0.3,0.6-0.4,1.1L479.5,24.2z"/>
	</g>
</g>
</svg>
