<?xml version="1.0" encoding="utf-8"?>
<!-- Generator: Adobe Illustrator 19.2.1, SVG Export Plug-In . SVG Version: 6.00 Build 0)  -->
<!DOCTYPE svg PUBLIC "-//W3C//DTD SVG 1.1//EN" "http://www.w3.org/Graphics/SVG/1.1/DTD/svg11.dtd">
<svg version="1.1" id="Layer_1" xmlns="http://www.w3.org/2000/svg" xmlns:xlink="http://www.w3.org/1999/xlink" x="0px" y="0px"
	 viewBox="0 0 267.9 27.1" style="enable-background:new 0 0 267.9 27.1;" xml:space="preserve">
<style type="text/css">
	.st0{fill:#616161;}
</style>
<g>
	<path class="st0" d="M7,3.9c0.4-1.2,0.8-2.2,1.4-2.8c0.5-0.7,1.3-1,2.4-1c0.6,0,1.2,0,1.6,0.1c0.4,0.1,0.8,0.3,1.1,0.6
		s0.6,0.7,0.8,1.2c0.2,0.5,0.5,1.1,0.8,1.9l7,22.6l-3.5,0.6l-2.9-8.9H5.7l-2.7,8.9L0,26.5L7,3.9z M15.1,15.5L11.7,4.2
		c-0.1-0.5-0.3-0.8-0.4-1C11.2,3,11,3,10.8,3c-0.3,0-0.5,0.1-0.6,0.3c-0.1,0.2-0.2,0.5-0.4,1L6.4,15.5H15.1z"/>
	<path class="st0" d="M33.4,10.9h-9.1V8.5h13.2v2.3L27.5,23.1c-0.1,0.1-0.2,0.3-0.2,0.3s0,0.1,0,0.2c0,0.3,0.2,0.4,0.6,0.4h9.8v2.4
		h-11c-1,0-1.7-0.2-2.2-0.7c-0.5-0.5-0.7-1-0.7-1.7c0-0.5,0.1-0.9,0.2-1.3c0.1-0.4,0.4-0.8,0.8-1.3L33.4,10.9z"/>
	<path class="st0" d="M41.3,8.5h3.3v11.7c0,1.4,0.3,2.5,0.8,3.3c0.5,0.8,1.4,1.2,2.7,1.2c1.1,0,1.9-0.2,2.6-0.5s1.3-0.8,1.9-1.3V8.5
		h3.3v14.6l1.5,2.2L55,27.1l-1.7-2c-1,0.7-1.9,1.3-2.8,1.6s-1.9,0.5-3,0.5c-1.3,0-2.4-0.2-3.2-0.6c-0.8-0.4-1.5-0.9-1.9-1.5
		s-0.8-1.4-0.9-2.2c-0.2-0.9-0.3-1.7-0.3-2.7V8.5z"/>
	<path class="st0" d="M61.7,2.4h-2.2V0h5.6v26.5h-3.3V2.4z"/>
	<path class="st0" d="M87.9,27.1c-1.9,0-3.5-0.3-4.9-1s-2.5-1.5-3.4-2.7s-1.5-2.6-2-4.3c-0.4-1.7-0.6-3.5-0.6-5.6
		c0-2,0.2-3.8,0.7-5.5c0.4-1.7,1.1-3.1,2-4.3c0.9-1.2,2-2.1,3.4-2.8c1.4-0.7,2.9-1,4.8-1c1.9,0,3.5,0.3,4.9,1
		c1.4,0.6,2.5,1.6,3.4,2.8c0.9,1.2,1.5,2.6,2,4.3c0.4,1.7,0.6,3.5,0.6,5.6c0,2-0.2,3.8-0.7,5.5c-0.4,1.7-1.1,3.1-2,4.3
		c-0.9,1.2-2,2.1-3.4,2.8C91.4,26.8,89.8,27.1,87.9,27.1z M87.9,24.4c1.4,0,2.5-0.3,3.4-0.9c0.9-0.6,1.6-1.4,2.2-2.3
		c0.5-1,0.9-2.1,1.1-3.5c0.2-1.3,0.3-2.7,0.3-4.2c0-1.4-0.1-2.8-0.4-4.1c-0.2-1.3-0.6-2.5-1.2-3.5c-0.5-1-1.3-1.8-2.2-2.4
		c-0.9-0.6-2-0.9-3.3-0.9c-1.4,0-2.5,0.3-3.4,0.9c-0.9,0.6-1.6,1.4-2.2,2.4c-0.5,1-0.9,2.2-1.1,3.5c-0.2,1.3-0.3,2.7-0.3,4.2
		c0,1.4,0.1,2.8,0.3,4.1c0.2,1.3,0.6,2.5,1.2,3.4c0.6,1,1.3,1.8,2.2,2.4C85.5,24.1,86.6,24.4,87.9,24.4z"/>
	<path class="st0" d="M103.1,23.1c0.6,0.3,1.3,0.6,2.2,1s2,0.5,3.3,0.5c1.3,0,2.3-0.2,3-0.6c0.7-0.4,1.1-1.1,1.1-2.1
		c0-0.6-0.1-1-0.4-1.3c-0.2-0.3-0.6-0.6-1-0.9c-0.4-0.2-0.9-0.4-1.4-0.6c-0.5-0.1-1.1-0.3-1.7-0.5c-0.7-0.2-1.3-0.4-2-0.6
		c-0.7-0.2-1.2-0.6-1.8-0.9c-0.5-0.4-0.9-0.9-1.3-1.5c-0.3-0.6-0.5-1.4-0.5-2.3c0-0.8,0.1-1.5,0.4-2.2c0.3-0.7,0.7-1.3,1.3-1.7
		c0.6-0.5,1.3-0.9,2.1-1.2s1.9-0.4,3-0.4c1.2,0,2.2,0.1,3.2,0.4c1,0.3,1.8,0.6,2.5,1l-1,2.2c-1.5-0.8-3.1-1.2-4.8-1.2
		c-1.2,0-2.1,0.2-2.8,0.6c-0.7,0.4-1,1.1-1,2c0,0.5,0.1,1,0.3,1.3c0.2,0.3,0.5,0.6,0.9,0.8c0.4,0.2,0.8,0.4,1.3,0.6
		c0.5,0.2,1,0.3,1.5,0.5c0.6,0.2,1.3,0.4,2,0.6c0.7,0.2,1.3,0.5,1.9,0.9c0.6,0.4,1,0.9,1.4,1.5c0.4,0.6,0.6,1.4,0.6,2.4
		c0,1.8-0.6,3.2-1.7,4.2s-2.9,1.5-5.3,1.5c-1.6,0-3-0.2-4.1-0.6c-1.2-0.4-2-0.8-2.6-1.2L103.1,23.1z"/>
	<path class="st0" d="M133.5,25.7c-0.6,0.4-1.5,0.7-2.4,1c-1,0.3-2.1,0.5-3.4,0.5c-1.6,0-3-0.2-4.1-0.7c-1.1-0.5-1.9-1.1-2.6-1.9
		c-0.6-0.8-1.1-1.8-1.4-3c-0.3-1.2-0.4-2.5-0.4-3.9c0-1.4,0.2-2.7,0.5-3.9c0.3-1.2,0.9-2.2,1.6-3.1s1.6-1.6,2.7-2.1
		c1.1-0.5,2.4-0.7,3.9-0.7c1.1,0,2.1,0.1,3,0.4s1.7,0.6,2.4,1l-1,2.2c-0.6-0.3-1.3-0.6-2.1-0.8c-0.7-0.2-1.5-0.3-2.4-0.3
		c-1.8,0-3.1,0.6-3.9,1.8s-1.2,3.1-1.2,5.5c0,1.1,0.1,2,0.3,2.9c0.2,0.9,0.5,1.6,0.9,2.2c0.4,0.6,0.9,1.1,1.6,1.4
		c0.7,0.3,1.5,0.5,2.5,0.5c0.8,0,1.5-0.1,2.2-0.2c0.7-0.1,1.4-0.4,2.4-0.9L133.5,25.7z"/>
	<path class="st0" d="M136.8,8.5h3.3v11.7c0,1.4,0.3,2.5,0.8,3.3c0.5,0.8,1.4,1.2,2.7,1.2c1.1,0,1.9-0.2,2.6-0.5s1.3-0.8,1.9-1.3
		V8.5h3.3v14.6l1.5,2.2l-2.4,1.8l-1.7-2c-1,0.7-1.9,1.3-2.8,1.6s-1.9,0.5-3,0.5c-1.3,0-2.4-0.2-3.2-0.6c-0.8-0.4-1.5-0.9-1.9-1.5
		s-0.8-1.4-0.9-2.2c-0.2-0.9-0.3-1.7-0.3-2.7V8.5z"/>
	<path class="st0" d="M157.6,10.8h-2.2V8.5h4.6l0.6,2.3c0.3-0.3,0.6-0.7,1-1c0.3-0.3,0.7-0.6,1.1-0.8c0.4-0.2,0.9-0.4,1.4-0.5
		c0.5-0.1,1.1-0.2,1.8-0.2c0.9,0,1.6,0.1,2.3,0.3l-0.9,3c-0.3-0.1-0.6-0.2-1-0.3c-0.4,0-0.7-0.1-1-0.1c-1.8,0-3.2,0.6-4.2,1.8v13.4
		h-3.3V10.8z"/>
	<path class="st0" d="M177.7,27.1c-1.5,0-2.8-0.2-3.9-0.7c-1-0.5-1.9-1.2-2.5-2s-1.1-1.9-1.3-3.1c-0.3-1.2-0.4-2.5-0.4-3.9
		c0-1.4,0.2-2.7,0.5-3.9c0.3-1.2,0.8-2.2,1.5-3.1c0.7-0.9,1.5-1.5,2.6-2c1-0.5,2.2-0.7,3.6-0.7c1.4,0,2.7,0.2,3.7,0.7
		c1,0.5,1.9,1.1,2.5,2s1.1,1.9,1.5,3.1c0.3,1.2,0.5,2.5,0.5,3.9c0,1.4-0.2,2.7-0.5,3.9c-0.3,1.2-0.8,2.2-1.5,3.1
		c-0.7,0.9-1.5,1.5-2.6,2C180.4,26.9,179.1,27.1,177.7,27.1z M177.8,24.8c1.7,0,2.9-0.6,3.7-1.9s1.1-3.1,1.1-5.4
		c0-2.3-0.4-4-1.1-5.3c-0.7-1.2-1.9-1.9-3.7-1.9c-1.8,0-3,0.6-3.7,1.8c-0.7,1.2-1.1,3-1.1,5.4c0,1.1,0.1,2.1,0.3,3s0.4,1.7,0.8,2.3
		s0.9,1.1,1.5,1.4C176.2,24.6,176.9,24.8,177.8,24.8z"/>
	<path class="st0" d="M198.8,0.5h3.6l6.1,13.4c0.2,0.4,0.3,0.7,0.5,0.8c0.1,0.1,0.3,0.2,0.5,0.2c0.2,0,0.3-0.1,0.5-0.2
		c0.1-0.2,0.3-0.4,0.5-0.8l6.5-13.4h3.4l1.3,26H218l-0.9-19.7l-4.2,8.6c-0.2,0.4-0.4,0.8-0.6,1.2c-0.2,0.3-0.4,0.6-0.7,0.9
		c-0.3,0.3-0.6,0.4-0.9,0.6c-0.4,0.1-0.8,0.2-1.4,0.2c-0.6,0-1.1-0.1-1.4-0.2c-0.4-0.1-0.7-0.3-1-0.6s-0.5-0.5-0.7-0.9
		c-0.2-0.4-0.4-0.8-0.6-1.3l-4-8.7l-0.8,19.8h-3.4L198.8,0.5z"/>
	<path class="st0" d="M227.6,10.8h-2.3V8.5h5.7v18h-3.3V10.8z M228.9,5.1c-0.7,0-1.2-0.2-1.6-0.7c-0.4-0.5-0.6-1-0.6-1.7
		s0.2-1.3,0.6-1.7c0.4-0.5,0.9-0.7,1.6-0.7c0.7,0,1.3,0.2,1.7,0.7c0.4,0.5,0.6,1,0.6,1.7S231,4,230.6,4.4
		C230.2,4.9,229.6,5.1,228.9,5.1z"/>
	<path class="st0" d="M250.1,25.7c-0.6,0.4-1.5,0.7-2.4,1c-1,0.3-2.1,0.5-3.4,0.5c-1.6,0-3-0.2-4.1-0.7c-1.1-0.5-1.9-1.1-2.6-1.9
		c-0.6-0.8-1.1-1.8-1.4-3c-0.3-1.2-0.4-2.5-0.4-3.9c0-1.4,0.2-2.7,0.5-3.9c0.3-1.2,0.9-2.2,1.6-3.1s1.6-1.6,2.7-2.1
		c1.1-0.5,2.4-0.7,3.9-0.7c1.1,0,2.1,0.1,3,0.4s1.7,0.6,2.4,1l-1,2.2c-0.6-0.3-1.3-0.6-2.1-0.8c-0.7-0.2-1.5-0.3-2.4-0.3
		c-1.8,0-3.1,0.6-3.9,1.8s-1.2,3.1-1.2,5.5c0,1.1,0.1,2,0.3,2.9c0.2,0.9,0.5,1.6,0.9,2.2c0.4,0.6,0.9,1.1,1.6,1.4
		c0.7,0.3,1.5,0.5,2.5,0.5c0.8,0,1.5-0.1,2.2-0.2c0.7-0.1,1.4-0.4,2.4-0.9L250.1,25.7z"/>
	<path class="st0" d="M263.9,25c-0.7,0.6-1.5,1-2.3,1.5c-0.9,0.4-2,0.6-3.3,0.6c-1.8,0-3.2-0.5-4.3-1.4c-1.1-0.9-1.6-2.4-1.6-4.4
		c0-1.1,0.2-2,0.6-2.7c0.4-0.7,0.9-1.3,1.6-1.8s1.5-0.8,2.4-1c0.9-0.2,2-0.3,3.1-0.3h3.1v-0.9c0-1.5-0.2-2.6-0.7-3.3
		c-0.5-0.7-1.4-1-2.7-1c-1.7,0-3.5,0.4-5.3,1.1l-0.8-2.2c0.7-0.3,1.6-0.6,2.7-0.9s2.4-0.5,3.9-0.5c1.4,0,2.5,0.2,3.3,0.6
		c0.8,0.4,1.4,0.9,1.9,1.6c0.4,0.7,0.7,1.5,0.8,2.4c0.1,0.9,0.2,1.9,0.2,2.9V23l1.5,2.3l-2.3,1.8L263.9,25z M263.2,17.7h-2.9
		c-1.7,0-2.8,0.3-3.5,0.8c-0.7,0.5-1,1.4-1,2.7c0,1.2,0.3,2,0.8,2.6c0.5,0.6,1.3,0.8,2.2,0.8c1.1,0,2-0.2,2.7-0.6
		c0.8-0.4,1.3-0.8,1.7-1.2V17.7z"/>
</g>
</svg>
