<?xml version="1.0" encoding="utf-8"?>
<!-- Generator: Adobe Illustrator 19.2.1, SVG Export Plug-In . SVG Version: 6.00 Build 0)  -->
<!DOCTYPE svg PUBLIC "-//W3C//DTD SVG 1.1//EN" "http://www.w3.org/Graphics/SVG/1.1/DTD/svg11.dtd">
<svg version="1.1" id="Layer_1" xmlns="http://www.w3.org/2000/svg" xmlns:xlink="http://www.w3.org/1999/xlink" x="0px" y="0px"
	 viewBox="0 0 92.7 34.1" style="enable-background:new 0 0 92.7 34.1;" xml:space="preserve">
<style type="text/css">
	.st0{fill:#616161;}
</style>
<g>
	<path class="st0" d="M0,0h3.5l11.2,22.1c0.2,0.3,0.3,0.6,0.4,0.7c0.1,0.1,0.2,0.2,0.3,0.2c0.2,0,0.3-0.2,0.3-0.5V0h2.9v22.4
		c0,1.4-0.3,2.4-0.9,3s-1.3,0.8-2.3,0.8c-0.4,0-0.8,0-1.2-0.1c-0.3-0.1-0.7-0.2-1-0.4c-0.3-0.2-0.6-0.5-0.8-0.8
		c-0.3-0.3-0.5-0.8-0.8-1.3L2.9,6.3V26H0V0z"/>
	<path class="st0" d="M38.3,25.2c-0.6,0.3-1.4,0.7-2.5,1s-2.2,0.5-3.4,0.5c-1.7,0-3-0.2-4.1-0.7c-1.1-0.5-2-1.1-2.6-2
		s-1.1-1.9-1.4-3c-0.3-1.2-0.4-2.5-0.4-3.9c0-1.3,0.2-2.6,0.5-3.7c0.3-1.2,0.8-2.2,1.4-3.1c0.6-0.9,1.5-1.6,2.5-2.1
		c1-0.5,2.2-0.8,3.6-0.8c1.3,0,2.5,0.3,3.4,0.8c0.9,0.6,1.7,1.3,2.2,2.1s1,1.9,1.2,3c0.3,1.1,0.4,2.2,0.4,3.3l-1.2,1.3H27.2
		c0.1,2.1,0.6,3.7,1.4,4.7c0.8,1,2.1,1.5,3.9,1.5c0.9,0,1.8-0.1,2.6-0.3c0.8-0.2,1.6-0.5,2.3-0.8L38.3,25.2z M35.6,15.5
		c0-1.9-0.3-3.4-1-4.4c-0.7-1-1.7-1.5-3.1-1.5c-1.5,0-2.5,0.5-3.2,1.5s-1,2.5-1.1,4.3H35.6z"/>
	<path class="st0" d="M44.7,30.3c0.6,0.3,1.4,0.6,2.2,0.9c0.8,0.3,1.8,0.4,2.9,0.4c1.9,0,3.2-0.4,3.9-1.3s1.1-2.2,1.1-4.1v-0.8
		c-0.6,0.3-1.2,0.5-1.9,0.7s-1.4,0.3-2.1,0.3c-2.7,0-4.7-0.8-6-2.2c-1.3-1.5-2-3.9-2-7.1c0-1.3,0.1-2.5,0.4-3.7
		c0.3-1.2,0.7-2.2,1.3-3.1c0.6-0.9,1.4-1.6,2.4-2.1c1-0.5,2.2-0.8,3.6-0.8c0.6,0,1.2,0.1,1.7,0.2c0.5,0.1,1,0.3,1.4,0.5
		c0.4,0.2,0.8,0.4,1.1,0.6c0.3,0.2,0.6,0.4,0.8,0.6l1.4-2.1l2.7,1.4l-1.3,3.1v15.1c0,2.3-0.7,4.1-2,5.4c-1.3,1.3-3.4,1.9-6.1,1.9
		c-1.2,0-2.4-0.1-3.5-0.3c-1.1-0.2-2.1-0.6-2.9-1L44.7,30.3z M54.9,11.6c-0.4-0.4-0.9-0.8-1.5-1.2c-0.6-0.4-1.5-0.6-2.6-0.6
		c-1.4,0-2.5,0.6-3.3,1.7c-0.8,1.2-1.2,3-1.2,5.5c0,2.3,0.4,4,1.1,5.1s2,1.8,3.7,1.8c0.8,0,1.4-0.1,2-0.2c0.6-0.2,1.2-0.4,1.7-0.8
		V11.6z"/>
	<path class="st0" d="M64.4,10.3h-2.2V7.9h4.6l0.6,2.3c0.3-0.3,0.6-0.7,1-1C68.7,9,69,8.7,69.4,8.5c0.4-0.2,0.9-0.4,1.4-0.5
		c0.5-0.1,1.1-0.2,1.8-0.2c0.9,0,1.6,0.1,2.3,0.3l-0.9,3c-0.3-0.1-0.6-0.2-1-0.3c-0.4,0-0.7-0.1-1-0.1c-1.8,0-3.2,0.6-4.2,1.8V26
		h-3.3V10.3z"/>
	<path class="st0" d="M84.5,26.6c-1.5,0-2.8-0.2-3.9-0.7c-1-0.5-1.9-1.2-2.5-2S77,22,76.8,20.8c-0.3-1.2-0.4-2.5-0.4-3.9
		c0-1.4,0.2-2.7,0.5-3.9c0.3-1.2,0.8-2.2,1.5-3.1c0.7-0.9,1.5-1.5,2.6-2c1-0.5,2.2-0.7,3.6-0.7c1.4,0,2.7,0.2,3.7,0.7
		c1,0.5,1.9,1.1,2.5,2s1.1,1.9,1.5,3.1c0.3,1.2,0.5,2.5,0.5,3.9c0,1.4-0.2,2.7-0.5,3.9C92,22,91.5,23,90.8,23.9
		c-0.7,0.9-1.5,1.5-2.6,2C87.2,26.4,85.9,26.6,84.5,26.6z M84.6,24.2c1.7,0,2.9-0.6,3.7-1.9s1.1-3.1,1.1-5.4c0-2.3-0.4-4-1.1-5.3
		c-0.7-1.2-1.9-1.9-3.7-1.9c-1.8,0-3,0.6-3.7,1.8c-0.7,1.2-1.1,3-1.1,5.4c0,1.1,0.1,2.1,0.3,3s0.4,1.7,0.8,2.3s0.9,1.1,1.5,1.4
		C83,24.1,83.7,24.2,84.6,24.2z"/>
</g>
</svg>
