<?xml version="1.0" encoding="utf-8"?>
<!-- Generator: Adobe Illustrator 19.2.1, SVG Export Plug-In . SVG Version: 6.00 Build 0)  -->
<!DOCTYPE svg PUBLIC "-//W3C//DTD SVG 1.1//EN" "http://www.w3.org/Graphics/SVG/1.1/DTD/svg11.dtd">
<svg version="1.1" id="Layer_1" xmlns="http://www.w3.org/2000/svg" xmlns:xlink="http://www.w3.org/1999/xlink" x="0px" y="0px"
	 viewBox="0 0 2048 53.9" style="enable-background:new 0 0 2048 53.9;" xml:space="preserve">
<style type="text/css">
	.st0{fill:#4D4D4F;}
	.st1{fill:#EB2030;}
	.st2{fill:#FFFFFF;}
</style>
<g>
	<rect y="0" class="st0" width="1598.8" height="53.9"/>
	<g>
		<polygon class="st1" points="1559.3,53.9 2048,53.9 2048,0 1595.9,0 		"/>
	</g>
	<g>
		<g>
			<path class="st2" d="M1560,52.9h-230.9c-3.3,0-6-2.7-6-6v-40c0-3.3,2.6-6,6-6h266.2L1560,52.9z"/>
		</g>
	</g>
	<g>
		<path class="st2" d="M1637.9,21.1v2h-1.6V21c0-2.6-1-4.7-3.7-4.7s-3.7,2-3.7,4.7v12.9c0,2.6,1,4.6,3.7,4.6s3.7-2,3.7-4.6V31h1.6
			v2.8c0,3.6-1.6,6.3-5.3,6.3c-3.8,0-5.3-2.7-5.3-6.3V21.1c0-3.6,1.6-6.3,5.3-6.3C1636.4,14.9,1637.9,17.5,1637.9,21.1z"/>
		<path class="st2" d="M1640.5,21.1c0-3.6,1.7-6.3,5.4-6.3c3.8,0,5.5,2.6,5.5,6.3v12.6c0,3.6-1.7,6.3-5.5,6.3
			c-3.7,0-5.4-2.6-5.4-6.3V21.1z M1642.1,33.9c0,2.7,1.1,4.7,3.8,4.7c2.8,0,3.9-2,3.9-4.7V21c0-2.7-1.1-4.7-3.9-4.7
			c-2.7,0-3.8,2-3.8,4.7V33.9z"/>
		<path class="st2" d="M1655.5,39.8h-1.5V15.1h2.1l7.4,20.9V15.1h1.5v24.7h-1.8l-7.7-22V39.8z"/>
		<path class="st2" d="M1677.6,39.8V16.6h-5.1v-1.5h11.7v1.5h-5v23.2C1679.2,39.8,1677.6,39.8,1677.6,39.8z"/>
		<path class="st2" d="M1686.2,21.1c0-3.6,1.7-6.3,5.4-6.3c3.8,0,5.5,2.6,5.5,6.3v12.6c0,3.6-1.7,6.3-5.5,6.3
			c-3.7,0-5.4-2.6-5.4-6.3V21.1z M1687.8,33.9c0,2.7,1.1,4.7,3.8,4.7c2.8,0,3.9-2,3.9-4.7V21c0-2.7-1.1-4.7-3.9-4.7
			c-2.7,0-3.8,2-3.8,4.7V33.9z"/>
		<path class="st2" d="M1704.3,30.3l-5.5-15.2h1.7l4.7,13l4.7-13h1.6l-5.6,15.2v9.5h-1.6L1704.3,30.3L1704.3,30.3z"/>
		<path class="st2" d="M1713.3,21.1c0-3.6,1.7-6.3,5.4-6.3c3.8,0,5.5,2.6,5.5,6.3v12.6c0,3.6-1.7,6.3-5.5,6.3
			c-3.7,0-5.4-2.6-5.4-6.3V21.1z M1714.9,33.9c0,2.7,1.1,4.7,3.8,4.7c2.8,0,3.9-2,3.9-4.7V21c0-2.7-1.1-4.7-3.9-4.7
			c-2.7,0-3.8,2-3.8,4.7V33.9z"/>
		<path class="st2" d="M1731.1,39.8V16.6h-5.1v-1.5h11.7v1.5h-5v23.2C1732.7,39.8,1731.1,39.8,1731.1,39.8z"/>
		<path class="st2" d="M1740.9,34.3l-1.2,5.5h-1.5l5.4-24.8h2.4l5.5,24.8h-1.6l-1.2-5.5H1740.9z M1741.1,32.9h7.2l-3.6-16
			L1741.1,32.9z"/>
		<path class="st2" d="M1758.9,21c0-2,0.5-3.5,1.4-4.6c1-1.1,2.4-1.6,4.3-1.6s3.3,0.5,4.3,1.6s1.4,2.6,1.4,4.6v0.8h-3.7v-1
			c0-0.9-0.2-1.5-0.5-1.9s-0.8-0.5-1.4-0.5s-1.1,0.2-1.4,0.5c-0.3,0.4-0.5,1-0.5,1.9c0,0.8,0.2,1.6,0.6,2.2s0.8,1.3,1.4,1.8
			c0.6,0.6,1.2,1.2,1.8,1.7c0.6,0.6,1.3,1.2,1.8,1.9c0.6,0.7,1,1.5,1.4,2.3c0.4,0.9,0.6,1.9,0.6,3.1c0,2-0.5,3.5-1.5,4.6
			s-2.4,1.6-4.3,1.6s-3.4-0.5-4.3-1.6c-1-1.1-1.5-2.6-1.5-4.6v-1.5h3.7v1.8c0,0.9,0.2,1.5,0.5,1.9c0.4,0.4,0.9,0.5,1.5,0.5
			s1.1-0.2,1.5-0.5c0.4-0.4,0.5-1,0.5-1.9c0-0.8-0.2-1.6-0.6-2.2c-0.4-0.6-0.8-1.3-1.4-1.8c-0.6-0.6-1.2-1.2-1.8-1.7
			c-0.6-0.6-1.3-1.2-1.8-1.9c-0.6-0.7-1-1.5-1.4-2.3C1759.1,23.2,1758.9,22.2,1758.9,21z"/>
		<path class="st2" d="M1772.6,15.1h3.9v24.7h-3.9V15.1z"/>
		<path class="st2" d="M1783.2,25.5h5.3V29h-5.3v7.2h6.7v3.5h-10.6V15.1h10.6v3.5h-6.7V25.5z"/>
		<path class="st2" d="M1800.5,32.6l2.6-17.6h5.4v24.7h-3.7V22.1l-2.7,17.7h-3.7l-2.9-17.5v17.5h-3.4V15.1h5.4L1800.5,32.6z"/>
		<path class="st2" d="M1817.1,15.1c2,0,3.4,0.5,4.4,1.6c1,1,1.4,2.6,1.4,4.6v3.2c0,2-0.5,3.5-1.4,4.6c-1,1-2.4,1.6-4.4,1.6h-1.8V40
			h-3.9V15.1H1817.1z M1815.3,18.6V27h1.8c0.6,0,1.1-0.2,1.4-0.5s0.5-0.9,0.5-1.8V21c0-0.9-0.2-1.5-0.5-1.8s-0.8-0.5-1.4-0.5h-1.8
			V18.6z"/>
		<path class="st2" d="M1833,39.8c0-0.2-0.1-0.3-0.1-0.5c0-0.1-0.1-0.3-0.1-0.5s-0.1-0.5-0.1-0.8s0-0.7,0-1.2v-3.9
			c0-1.2-0.2-2-0.6-2.4c-0.4-0.5-1-0.7-1.9-0.7h-1.3v10.1h-3.9V15.1h5.9c2,0,3.5,0.5,4.4,1.4c0.9,0.9,1.4,2.4,1.4,4.3v1.9
			c0,2.5-0.8,4.2-2.5,5c1,0.4,1.7,1.1,2,2c0.4,0.9,0.5,2,0.5,3.3v3.8c0,0.6,0,1.1,0.1,1.6c0,0.5,0.2,0.9,0.4,1.4H1833z M1828.8,18.6
			v7.6h1.5c0.7,0,1.3-0.2,1.7-0.6c0.4-0.4,0.6-1.1,0.6-2v-2.4c0-0.9-0.2-1.5-0.5-1.9s-0.8-0.6-1.5-0.6h-1.8V18.6z"/>
		<path class="st2" d="M1843,25.5h5.3V29h-5.3v7.2h6.7v3.5h-10.6V15.1h10.6v3.5h-6.7V25.5z"/>
		<path class="st2" d="M1859.2,28.2v11.6h-1.6V15.1h1.6v11.6h7.7V15.1h1.7v24.7h-1.7V28.2H1859.2z"/>
		<path class="st2" d="M1873.7,34.3l-1.2,5.5h-1.5l5.4-24.8h2.4l5.5,24.8h-1.6l-1.2-5.5H1873.7z M1874,32.9h7.2l-3.6-16L1874,32.9z"
			/>
		<path class="st2" d="M1890.1,30.3l-5.5-15.2h1.7l4.7,13l4.7-13h1.6l-5.6,15.2v9.5h-1.6L1890.1,30.3L1890.1,30.3z"/>
		<path class="st2" d="M1906.7,33.8c0,2.6,1,4.7,3.7,4.7s3.7-2,3.7-4.7V15.1h1.5v18.7c0,3.5-1.5,6.3-5.3,6.3s-5.3-2.7-5.3-6.3V15.1
			h1.6v18.7H1906.7z"/>
		<path class="st2" d="M1919.9,39.8h-1.5V15.1h2.1l7.4,20.9V15.1h1.5v24.7h-1.8l-7.7-22V39.8z"/>
		<path class="st2" d="M1948.3,21.1v2h-1.6V21c0-2.6-1-4.7-3.7-4.7s-3.7,2-3.7,4.7v12.9c0,2.6,1,4.6,3.7,4.6s3.7-2,3.7-4.6V31h1.6
			v2.8c0,3.6-1.6,6.3-5.3,6.3c-3.8,0-5.3-2.7-5.3-6.3V21.1c0-3.6,1.6-6.3,5.3-6.3C1946.7,14.9,1948.3,17.5,1948.3,21.1z"/>
		<path class="st2" d="M1953.3,34.3l-1.2,5.5h-1.5L1956,15h2.4l5.5,24.8h-1.6l-1.2-5.5H1953.3z M1953.6,32.9h7.2l-3.6-16
			L1953.6,32.9z"/>
		<path class="st2" d="M1974.6,39.8h-1.6l-5.2-21.9v21.9h-1.4V15.1h2.3l5.2,21.9l5.2-21.9h2.3v24.7h-1.6v-22L1974.6,39.8z"/>
		<path class="st2" d="M1985.8,15.1v24.7h-1.6V15.1H1985.8z"/>
		<path class="st2" d="M1990.1,39.8h-1.5V15.1h2.1l7.4,20.9V15.1h1.5v24.7h-1.8l-7.7-22V39.8z"/>
		<path class="st2" d="M2002.3,21.1c0-3.6,1.7-6.3,5.4-6.3c3.8,0,5.5,2.6,5.5,6.3v12.6c0,3.6-1.7,6.3-5.5,6.3
			c-3.7,0-5.4-2.6-5.4-6.3V21.1z M2004,33.9c0,2.7,1.1,4.7,3.8,4.7c2.8,0,3.9-2,3.9-4.7V21c0-2.7-1.1-4.7-3.9-4.7
			c-2.7,0-3.8,2-3.8,4.7V33.9z"/>
	</g>
</g>
</svg>
