<?xml version="1.0" encoding="utf-8"?>
<!-- Generator: Adobe Illustrator 19.2.1, SVG Export Plug-In . SVG Version: 6.00 Build 0)  -->
<!DOCTYPE svg PUBLIC "-//W3C//DTD SVG 1.1//EN" "http://www.w3.org/Graphics/SVG/1.1/DTD/svg11.dtd">
<svg version="1.1" id="Layer_1" xmlns="http://www.w3.org/2000/svg" xmlns:xlink="http://www.w3.org/1999/xlink" x="0px" y="0px"
	 viewBox="0 0 208.8 29.3" style="enable-background:new 0 0 208.8 29.3;" xml:space="preserve">
<style type="text/css">
	.st0{fill:#616161;}
</style>
<g>
	<path class="st0" d="M7,6.1c0.4-1.2,0.8-2.2,1.4-2.8c0.5-0.7,1.3-1,2.4-1c0.6,0,1.2,0,1.6,0.1c0.4,0.1,0.8,0.3,1.1,0.6
		s0.6,0.7,0.8,1.2c0.2,0.5,0.5,1.1,0.8,1.9l7,22.6l-3.5,0.6l-2.9-8.9H5.7l-2.7,8.9L0,28.6L7,6.1z M15.1,17.6L11.7,6.4
		c-0.1-0.5-0.3-0.8-0.4-1c-0.1-0.2-0.3-0.3-0.5-0.3c-0.3,0-0.5,0.1-0.6,0.3c-0.1,0.2-0.2,0.5-0.4,1L6.4,17.6H15.1z"/>
	<path class="st0" d="M33.4,13h-9.1v-2.4h13.2V13L27.5,25.3c-0.1,0.1-0.2,0.3-0.2,0.3s0,0.1,0,0.2c0,0.3,0.2,0.4,0.6,0.4h9.8v2.4
		h-11c-1,0-1.7-0.2-2.2-0.7c-0.5-0.5-0.7-1-0.7-1.7c0-0.5,0.1-0.9,0.2-1.3c0.1-0.4,0.4-0.8,0.8-1.3L33.4,13z"/>
	<path class="st0" d="M41.3,10.6h3.3v11.7c0,1.4,0.3,2.5,0.8,3.3c0.5,0.8,1.4,1.2,2.7,1.2c1.1,0,1.9-0.2,2.6-0.5s1.3-0.8,1.9-1.3
		V10.6h3.3v14.6l1.5,2.2L55,29.2l-1.7-2c-1,0.7-1.9,1.3-2.8,1.6s-1.9,0.5-3,0.5c-1.3,0-2.4-0.2-3.2-0.6c-0.8-0.4-1.5-0.9-1.9-1.5
		s-0.8-1.4-0.9-2.2c-0.2-0.9-0.3-1.7-0.3-2.7V10.6z"/>
	<path class="st0" d="M61.7,4.6h-2.2V2.2h5.6v26.5h-3.3V4.6z"/>
	<path class="st0" d="M78.8,2.7h3.6l6.1,13.4c0.2,0.4,0.3,0.7,0.5,0.8c0.1,0.1,0.3,0.2,0.5,0.2c0.2,0,0.3-0.1,0.5-0.2
		c0.1-0.2,0.3-0.4,0.5-0.8l6.5-13.4h3.4l1.3,26h-3.5L97.1,9l-4.2,8.6c-0.2,0.4-0.4,0.8-0.6,1.2c-0.2,0.3-0.4,0.6-0.7,0.9
		c-0.3,0.3-0.6,0.4-0.9,0.6c-0.4,0.1-0.8,0.2-1.4,0.2c-0.6,0-1.1-0.1-1.4-0.2c-0.4-0.1-0.7-0.3-1-0.6s-0.5-0.5-0.7-0.9
		c-0.2-0.4-0.4-0.8-0.6-1.3l-4-8.7l-0.8,19.8h-3.4L78.8,2.7z"/>
	<path class="st0" d="M120.6,27.9c-0.6,0.3-1.4,0.7-2.5,1s-2.2,0.5-3.4,0.5c-1.7,0-3-0.2-4.1-0.7c-1.1-0.5-2-1.1-2.6-2
		s-1.1-1.9-1.4-3c-0.3-1.2-0.4-2.5-0.4-3.9c0-1.3,0.2-2.6,0.5-3.7c0.3-1.2,0.8-2.2,1.4-3.1c0.6-0.9,1.5-1.6,2.5-2.1
		c1-0.5,2.2-0.8,3.6-0.8c1.3,0,2.5,0.3,3.4,0.8c0.9,0.6,1.7,1.3,2.2,2.1s1,1.9,1.2,3c0.3,1.1,0.4,2.2,0.4,3.3l-1.2,1.3h-10.7
		c0.1,2.1,0.6,3.7,1.4,4.7c0.8,1,2.1,1.5,3.9,1.5c0.9,0,1.8-0.1,2.6-0.3c0.8-0.2,1.6-0.5,2.3-0.8L120.6,27.9z M117.9,18.2
		c0-1.9-0.3-3.4-1-4.4c-0.7-1-1.7-1.5-3.1-1.5c-1.5,0-2.5,0.5-3.2,1.5s-1,2.5-1.1,4.3H117.9z"/>
	<path class="st0" d="M127,13.1h-3.3v-2.4h3.4V5.3h3.2v5.4h5.3v2.4h-5.3v10.4c0,0.7,0.1,1.3,0.2,1.7s0.3,0.7,0.5,1
		c0.2,0.2,0.5,0.4,0.8,0.5c0.3,0.1,0.7,0.1,1,0.1c0.4,0,0.8,0,1.3-0.1s1-0.2,1.4-0.4l0.7,2.2c-0.4,0.2-1,0.4-1.7,0.6
		c-0.7,0.2-1.5,0.3-2.3,0.3c-0.8,0-1.6-0.1-2.2-0.3s-1.2-0.5-1.7-0.8c-0.5-0.4-0.8-0.9-1.1-1.6c-0.3-0.7-0.4-1.5-0.4-2.6V13.1z"/>
	<path class="st0" d="M150,27.2c-0.7,0.6-1.5,1-2.3,1.5c-0.9,0.4-2,0.6-3.3,0.6c-1.8,0-3.2-0.5-4.3-1.4c-1.1-0.9-1.6-2.4-1.6-4.4
		c0-1.1,0.2-2,0.6-2.7c0.4-0.7,0.9-1.3,1.6-1.8s1.5-0.8,2.4-1c0.9-0.2,2-0.3,3.1-0.3h3.1v-0.9c0-1.5-0.2-2.6-0.7-3.3
		c-0.5-0.7-1.4-1-2.7-1c-1.7,0-3.5,0.4-5.3,1.1l-0.8-2.2c0.7-0.3,1.6-0.6,2.7-0.9s2.4-0.5,3.9-0.5c1.4,0,2.5,0.2,3.3,0.6
		c0.8,0.4,1.4,0.9,1.9,1.6c0.4,0.7,0.7,1.5,0.8,2.4c0.1,0.9,0.2,1.9,0.2,2.9v7.7l1.5,2.3l-2.3,1.8L150,27.2z M149.2,19.9h-2.9
		c-1.7,0-2.8,0.3-3.5,0.8c-0.7,0.5-1,1.4-1,2.7c0,1.2,0.3,2,0.8,2.6c0.5,0.6,1.3,0.8,2.2,0.8c1.1,0,2-0.2,2.7-0.6
		c0.8-0.4,1.3-0.8,1.7-1.2V19.9z M148,0l2.6,1.8l-5.1,5.9l-1.7-1.2L148,0z"/>
	<path class="st0" d="M158.3,4.6H156V2.2h5.6v26.5h-3.3V4.6z"/>
	<path class="st0" d="M167.5,13h-2.3v-2.4h5.7v18h-3.3V13z M168.8,7.3c-0.7,0-1.2-0.2-1.6-0.7c-0.4-0.5-0.6-1-0.6-1.7
		s0.2-1.3,0.6-1.7c0.4-0.5,0.9-0.7,1.6-0.7c0.7,0,1.3,0.2,1.7,0.7c0.4,0.5,0.6,1,0.6,1.7s-0.2,1.3-0.6,1.7
		C170.1,7,169.6,7.3,168.8,7.3z"/>
	<path class="st0" d="M190,27.9c-0.6,0.4-1.5,0.7-2.4,1c-1,0.3-2.1,0.5-3.4,0.5c-1.6,0-3-0.2-4.1-0.7c-1.1-0.5-1.9-1.1-2.6-1.9
		c-0.6-0.8-1.1-1.8-1.4-3c-0.3-1.2-0.4-2.5-0.4-3.9c0-1.4,0.2-2.7,0.5-3.9c0.3-1.2,0.9-2.2,1.6-3.1s1.6-1.6,2.7-2.1
		c1.1-0.5,2.4-0.7,3.9-0.7c1.1,0,2.1,0.1,3,0.4s1.7,0.6,2.4,1l-1,2.2c-0.6-0.3-1.3-0.6-2.1-0.8c-0.7-0.2-1.5-0.3-2.4-0.3
		c-1.8,0-3.1,0.6-3.9,1.8s-1.2,3.1-1.2,5.5c0,1.1,0.1,2,0.3,2.9c0.2,0.9,0.5,1.6,0.9,2.2c0.4,0.6,0.9,1.1,1.6,1.4
		c0.7,0.3,1.5,0.5,2.5,0.5c0.8,0,1.5-0.1,2.2-0.2c0.7-0.1,1.4-0.4,2.4-0.9L190,27.9z"/>
	<path class="st0" d="M200.5,29.3c-1.5,0-2.8-0.2-3.9-0.7c-1-0.5-1.9-1.2-2.5-2s-1.1-1.9-1.3-3.1c-0.3-1.2-0.4-2.5-0.4-3.9
		c0-1.4,0.2-2.7,0.5-3.9c0.3-1.2,0.8-2.2,1.5-3.1c0.7-0.9,1.5-1.5,2.6-2c1-0.5,2.2-0.7,3.6-0.7c1.4,0,2.7,0.2,3.7,0.7
		c1,0.5,1.9,1.1,2.5,2s1.1,1.9,1.5,3.1c0.3,1.2,0.5,2.5,0.5,3.9c0,1.4-0.2,2.7-0.5,3.9c-0.3,1.2-0.8,2.2-1.5,3.1
		c-0.7,0.9-1.5,1.5-2.6,2C203.2,29.1,202,29.3,200.5,29.3z M200.6,26.9c1.7,0,2.9-0.6,3.7-1.9s1.1-3.1,1.1-5.4c0-2.3-0.4-4-1.1-5.3
		c-0.7-1.2-1.9-1.9-3.7-1.9c-1.8,0-3,0.6-3.7,1.8c-0.7,1.2-1.1,3-1.1,5.4c0,1.1,0.1,2.1,0.3,3s0.4,1.7,0.8,2.3s0.9,1.1,1.5,1.4
		C199,26.8,199.7,26.9,200.6,26.9z"/>
</g>
</svg>
