<?xml version="1.0" encoding="utf-8"?>
<!-- Generator: Adobe Illustrator 19.2.1, SVG Export Plug-In . SVG Version: 6.00 Build 0)  -->
<!DOCTYPE svg PUBLIC "-//W3C//DTD SVG 1.1//EN" "http://www.w3.org/Graphics/SVG/1.1/DTD/svg11.dtd">
<svg version="1.1" id="Layer_1" xmlns="http://www.w3.org/2000/svg" xmlns:xlink="http://www.w3.org/1999/xlink" x="0px" y="0px"
	 viewBox="0 0 1166.9 38.8" style="enable-background:new 0 0 1166.9 38.8;" xml:space="preserve">
<style type="text/css">
	.st0{fill:#595A5C;}
</style>
<g>
	<path class="st0" d="M0,2.8h3.7v24.5h13.7v2.9H0V2.8z"/>
	<path class="st0" d="M20.9,11.2h3.5v12.4c0,1.5,0.3,2.6,0.9,3.5c0.6,0.8,1.5,1.2,2.9,1.2c1.1,0,2-0.2,2.7-0.5s1.3-0.8,2-1.3V11.2
		h3.5v15.4l1.6,2.3l-2.5,1.9l-1.7-2.1c-1,0.8-2,1.3-2.9,1.7c-0.9,0.3-2,0.5-3.1,0.5c-1.4,0-2.5-0.2-3.4-0.6c-0.9-0.4-1.5-0.9-2-1.6
		c-0.5-0.7-0.8-1.5-1-2.4c-0.2-0.9-0.3-1.8-0.3-2.8V11.2z"/>
	<path class="st0" d="M56.9,29.5c-0.6,0.4-1.5,0.7-2.6,1s-2.4,0.5-3.6,0.5c-1.7,0-3.2-0.2-4.4-0.7c-1.2-0.5-2.1-1.2-2.8-2.1
		s-1.2-2-1.5-3.2c-0.3-1.3-0.4-2.6-0.4-4.2c0-1.4,0.2-2.7,0.5-4c0.3-1.2,0.8-2.3,1.5-3.2c0.7-0.9,1.6-1.7,2.6-2.2
		c1.1-0.5,2.3-0.8,3.8-0.8c1.4,0,2.6,0.3,3.6,0.9c1,0.6,1.8,1.3,2.4,2.3s1,2,1.3,3.2c0.3,1.2,0.4,2.3,0.4,3.5l-1.3,1.3H45.1
		c0.1,2.2,0.6,3.9,1.5,5c0.9,1.1,2.2,1.6,4.1,1.6c1,0,1.9-0.1,2.7-0.3c0.9-0.2,1.7-0.5,2.4-0.8L56.9,29.5z M54,19.2
		c0-2-0.4-3.6-1.1-4.6c-0.7-1-1.8-1.6-3.3-1.6c-1.6,0-2.7,0.5-3.3,1.6c-0.7,1.1-1.1,2.6-1.2,4.5H54z"/>
	<path class="st0" d="M63.6,34.8c0.7,0.3,1.4,0.6,2.3,0.9c0.8,0.3,1.9,0.4,3.1,0.4c2,0,3.4-0.5,4.1-1.4c0.8-0.9,1.1-2.4,1.1-4.4
		v-0.8c-0.6,0.3-1.3,0.6-2,0.7c-0.7,0.2-1.5,0.3-2.2,0.3c-2.8,0-4.9-0.8-6.3-2.4c-1.4-1.6-2.1-4.1-2.1-7.5c0-1.4,0.1-2.7,0.4-3.9
		c0.3-1.2,0.7-2.3,1.3-3.2c0.6-0.9,1.5-1.7,2.5-2.2c1-0.6,2.3-0.8,3.8-0.8c0.7,0,1.3,0.1,1.8,0.2s1,0.3,1.5,0.6
		c0.4,0.2,0.8,0.4,1.1,0.7c0.3,0.2,0.6,0.5,0.8,0.7l1.5-2.2l2.8,1.5l-1.4,3.2v15.9c0,2.4-0.7,4.3-2.1,5.7c-1.4,1.4-3.6,2-6.4,2
		c-1.3,0-2.5-0.1-3.6-0.3c-1.2-0.2-2.2-0.6-3.1-1.1L63.6,34.8z M74.3,15.1c-0.4-0.4-0.9-0.9-1.6-1.3c-0.7-0.4-1.6-0.7-2.7-0.7
		c-1.5,0-2.7,0.6-3.5,1.8c-0.8,1.2-1.2,3.2-1.2,5.8c0,2.4,0.4,4.2,1.2,5.4c0.8,1.2,2.1,1.9,3.9,1.9c0.8,0,1.5-0.1,2.1-0.2
		c0.6-0.2,1.2-0.4,1.8-0.9V15.1z"/>
	<path class="st0" d="M91.7,30.9c-1.6,0-3-0.3-4.1-0.8c-1.1-0.5-2-1.2-2.6-2.1c-0.7-0.9-1.1-2-1.4-3.2s-0.4-2.6-0.4-4.1
		c0-1.5,0.2-2.8,0.5-4.1c0.4-1.3,0.9-2.3,1.6-3.2c0.7-0.9,1.6-1.6,2.7-2.1c1.1-0.5,2.4-0.8,3.8-0.8c1.5,0,2.8,0.3,3.9,0.8
		c1.1,0.5,2,1.2,2.7,2.1s1.2,2,1.5,3.2c0.3,1.3,0.5,2.6,0.5,4.1c0,1.5-0.2,2.9-0.5,4.1c-0.3,1.2-0.8,2.3-1.5,3.2
		c-0.7,0.9-1.6,1.6-2.7,2.1C94.6,30.7,93.2,30.9,91.7,30.9z M91.8,28.4c1.8,0,3.1-0.7,3.9-2c0.7-1.3,1.1-3.2,1.1-5.7
		c0-2.4-0.4-4.3-1.1-5.6c-0.7-1.3-2-2-3.9-2c-1.8,0-3.1,0.6-3.9,1.9c-0.7,1.3-1.1,3.2-1.1,5.7c0,1.2,0.1,2.3,0.3,3.2
		c0.2,1,0.5,1.8,0.9,2.4c0.4,0.7,0.9,1.2,1.6,1.5C90.1,28.2,90.9,28.4,91.8,28.4z"/>
	<path class="st0" d="M125.7,28.8c-0.7,0.6-1.6,1.1-2.5,1.5c-0.9,0.4-2.1,0.6-3.3,0.6c-2.6,0-4.6-0.8-5.9-2.5c-1.3-1.7-2-4.2-2-7.7
		c0-1.5,0.2-2.9,0.6-4.2c0.4-1.3,1-2.3,1.7-3.2c0.8-0.9,1.7-1.6,2.9-2.1c1.2-0.5,2.5-0.7,4-0.7c0.7,0,1.3,0.1,1.9,0.2
		c0.6,0.1,1.1,0.2,1.6,0.3V2.3h3.5v24.3L130,29l-2.5,1.9L125.7,28.8z M124.8,13.6c-0.4-0.1-0.9-0.2-1.5-0.4S122,13,121.2,13
		c-1.9,0-3.3,0.7-4.2,2c-0.9,1.3-1.3,3.2-1.3,5.7c0,2.4,0.4,4.2,1.1,5.6c0.7,1.3,2,2,3.6,2c1.1,0,1.9-0.2,2.6-0.5s1.3-0.8,1.8-1.3
		V13.6z"/>
	<path class="st0" d="M149,29.5c-0.6,0.4-1.5,0.7-2.6,1s-2.4,0.5-3.6,0.5c-1.7,0-3.2-0.2-4.4-0.7c-1.2-0.5-2.1-1.2-2.8-2.1
		s-1.2-2-1.5-3.2c-0.3-1.3-0.4-2.6-0.4-4.2c0-1.4,0.2-2.7,0.5-4c0.3-1.2,0.8-2.3,1.5-3.2c0.7-0.9,1.6-1.7,2.6-2.2
		c1.1-0.5,2.3-0.8,3.8-0.8c1.4,0,2.6,0.3,3.6,0.9c1,0.6,1.8,1.3,2.4,2.3s1,2,1.3,3.2c0.3,1.2,0.4,2.3,0.4,3.5l-1.3,1.3h-11.3
		c0.1,2.2,0.6,3.9,1.5,5c0.9,1.1,2.2,1.6,4.1,1.6c1,0,1.9-0.1,2.7-0.3c0.9-0.2,1.7-0.5,2.4-0.8L149,29.5z M146.1,19.2
		c0-2-0.4-3.6-1.1-4.6c-0.7-1-1.8-1.6-3.3-1.6c-1.6,0-2.7,0.5-3.3,1.6c-0.7,1.1-1.1,2.6-1.2,4.5H146.1z"/>
	<path class="st0" d="M162.1,4.8h-2.4V2.3h5.9v27.9h-3.5V4.8z"/>
	<path class="st0" d="M179.3,30.9c-1.6,0-3-0.3-4.1-0.8c-1.1-0.5-2-1.2-2.6-2.1c-0.7-0.9-1.1-2-1.4-3.2s-0.4-2.6-0.4-4.1
		c0-1.5,0.2-2.8,0.5-4.1c0.4-1.3,0.9-2.3,1.6-3.2c0.7-0.9,1.6-1.6,2.7-2.1c1.1-0.5,2.4-0.8,3.8-0.8c1.5,0,2.8,0.3,3.9,0.8
		c1.1,0.5,2,1.2,2.7,2.1s1.2,2,1.5,3.2c0.3,1.3,0.5,2.6,0.5,4.1c0,1.5-0.2,2.9-0.5,4.1c-0.3,1.2-0.8,2.3-1.5,3.2
		c-0.7,0.9-1.6,1.6-2.7,2.1C182.2,30.7,180.9,30.9,179.3,30.9z M179.4,28.4c1.8,0,3.1-0.7,3.9-2c0.7-1.3,1.1-3.2,1.1-5.7
		c0-2.4-0.4-4.3-1.1-5.6c-0.7-1.3-2-2-3.9-2c-1.8,0-3.1,0.6-3.9,1.9c-0.7,1.3-1.1,3.2-1.1,5.7c0,1.2,0.1,2.3,0.3,3.2
		c0.2,1,0.5,1.8,0.9,2.4c0.4,0.7,0.9,1.2,1.6,1.5C177.7,28.2,178.5,28.4,179.4,28.4z"/>
	<path class="st0" d="M192.4,26.7c0.6,0.3,1.4,0.7,2.4,1.1c1,0.4,2.1,0.6,3.4,0.6c1.3,0,2.4-0.2,3.2-0.7c0.8-0.5,1.2-1.2,1.2-2.2
		c0-0.6-0.1-1.1-0.4-1.4c-0.3-0.4-0.6-0.7-1-0.9c-0.4-0.2-0.9-0.4-1.5-0.6s-1.2-0.3-1.8-0.5c-0.7-0.2-1.4-0.4-2.1-0.6
		c-0.7-0.3-1.3-0.6-1.9-1c-0.5-0.4-1-0.9-1.3-1.6c-0.3-0.6-0.5-1.4-0.5-2.4c0-0.8,0.1-1.6,0.4-2.3c0.3-0.7,0.7-1.3,1.3-1.8
		c0.6-0.5,1.4-0.9,2.3-1.2c0.9-0.3,2-0.5,3.2-0.5c1.2,0,2.4,0.1,3.4,0.4c1.1,0.3,2,0.6,2.7,1l-1.1,2.3c-1.6-0.9-3.3-1.3-5.1-1.3
		c-1.2,0-2.2,0.2-2.9,0.6c-0.7,0.4-1,1.1-1,2.1c0,0.6,0.1,1,0.3,1.4c0.2,0.4,0.5,0.7,0.9,0.9c0.4,0.2,0.8,0.4,1.4,0.6
		c0.5,0.2,1.1,0.3,1.6,0.5c0.7,0.2,1.4,0.4,2.1,0.6c0.7,0.2,1.4,0.5,2,1c0.6,0.4,1.1,1,1.5,1.6c0.4,0.7,0.6,1.5,0.6,2.6
		c0,1.9-0.6,3.4-1.8,4.4c-1.2,1.1-3.1,1.6-5.6,1.6c-1.7,0-3.1-0.2-4.4-0.6c-1.2-0.4-2.1-0.8-2.7-1.2L192.4,26.7z"/>
	<path class="st0" d="M225.5,30.9c-1.6,0-3-0.3-4.1-0.8c-1.1-0.5-2-1.2-2.6-2.1c-0.7-0.9-1.1-2-1.4-3.2s-0.4-2.6-0.4-4.1
		c0-1.5,0.2-2.8,0.5-4.1c0.4-1.3,0.9-2.3,1.6-3.2c0.7-0.9,1.6-1.6,2.7-2.1c1.1-0.5,2.4-0.8,3.8-0.8c1.5,0,2.8,0.3,3.9,0.8
		c1.1,0.5,2,1.2,2.7,2.1s1.2,2,1.5,3.2c0.3,1.3,0.5,2.6,0.5,4.1c0,1.5-0.2,2.9-0.5,4.1c-0.3,1.2-0.8,2.3-1.5,3.2
		c-0.7,0.9-1.6,1.6-2.7,2.1C228.4,30.7,227,30.9,225.5,30.9z M225.6,28.4c1.8,0,3.1-0.7,3.9-2c0.7-1.3,1.1-3.2,1.1-5.7
		c0-2.4-0.4-4.3-1.1-5.6c-0.7-1.3-2-2-3.9-2c-1.8,0-3.1,0.6-3.9,1.9c-0.7,1.3-1.1,3.2-1.1,5.7c0,1.2,0.1,2.3,0.3,3.2
		c0.2,1,0.5,1.8,0.9,2.4c0.4,0.7,0.9,1.2,1.6,1.5C223.9,28.2,224.7,28.4,225.6,28.4z"/>
	<path class="st0" d="M239.4,2.8h3.5v8.7c0.6-0.3,1.3-0.6,2-0.7c0.7-0.2,1.5-0.3,2.4-0.3c2.6,0,4.5,0.8,5.9,2.5
		c1.4,1.7,2.1,4.2,2.1,7.6c0,1.5-0.2,2.9-0.5,4.1c-0.3,1.3-0.9,2.3-1.6,3.2c-0.7,0.9-1.7,1.6-2.9,2.1c-1.2,0.5-2.6,0.8-4.4,0.8
		c-1.4,0-2.7-0.1-4-0.3c-1.2-0.2-2.1-0.4-2.7-0.7V2.8z M243,28c0.3,0.1,0.8,0.2,1.4,0.3c0.7,0.1,1.4,0.1,2.1,0.1
		c1.9,0,3.3-0.7,4.1-2c0.8-1.3,1.2-3.3,1.2-5.9c0-2.3-0.4-4.1-1.1-5.5c-0.7-1.4-2-2-3.8-2c-0.8,0-1.5,0.1-2.3,0.3
		c-0.7,0.2-1.3,0.4-1.7,0.7V28z"/>
	<path class="st0" d="M259.9,26.7c0.6,0.3,1.4,0.7,2.4,1.1c1,0.4,2.1,0.6,3.4,0.6c1.3,0,2.4-0.2,3.2-0.7c0.8-0.5,1.2-1.2,1.2-2.2
		c0-0.6-0.1-1.1-0.4-1.4c-0.3-0.4-0.6-0.7-1-0.9c-0.4-0.2-0.9-0.4-1.5-0.6s-1.2-0.3-1.8-0.5c-0.7-0.2-1.4-0.4-2.1-0.6
		c-0.7-0.3-1.3-0.6-1.9-1c-0.5-0.4-1-0.9-1.3-1.6c-0.3-0.6-0.5-1.4-0.5-2.4c0-0.8,0.1-1.6,0.4-2.3c0.3-0.7,0.7-1.3,1.3-1.8
		c0.6-0.5,1.4-0.9,2.3-1.2c0.9-0.3,2-0.5,3.2-0.5c1.2,0,2.4,0.1,3.4,0.4c1.1,0.3,2,0.6,2.7,1l-1.1,2.3c-1.6-0.9-3.3-1.3-5.1-1.3
		c-1.2,0-2.2,0.2-2.9,0.6c-0.7,0.4-1,1.1-1,2.1c0,0.6,0.1,1,0.3,1.4c0.2,0.4,0.5,0.7,0.9,0.9c0.4,0.2,0.8,0.4,1.4,0.6
		c0.5,0.2,1.1,0.3,1.6,0.5c0.7,0.2,1.4,0.4,2.1,0.6c0.7,0.2,1.4,0.5,2,1c0.6,0.4,1.1,1,1.5,1.6c0.4,0.7,0.6,1.5,0.6,2.6
		c0,1.9-0.6,3.4-1.8,4.4c-1.2,1.1-3.1,1.6-5.6,1.6c-1.7,0-3.1-0.2-4.4-0.6c-1.2-0.4-2.1-0.8-2.7-1.2L259.9,26.7z"/>
	<path class="st0" d="M279,13.8h-3.5v-2.6h3.6V5.5h3.4v5.7h5.6v2.6h-5.6v11c0,0.7,0.1,1.3,0.2,1.8c0.1,0.4,0.3,0.8,0.6,1
		c0.2,0.2,0.5,0.4,0.9,0.5c0.3,0.1,0.7,0.1,1.1,0.1c0.4,0,0.9-0.1,1.4-0.2c0.5-0.1,1-0.3,1.5-0.5l0.8,2.3c-0.4,0.2-1,0.4-1.8,0.6
		c-0.8,0.2-1.6,0.3-2.4,0.3c-0.9,0-1.7-0.1-2.4-0.3c-0.7-0.2-1.3-0.5-1.8-0.9c-0.5-0.4-0.9-1-1.1-1.7c-0.3-0.7-0.4-1.6-0.4-2.7V13.8
		z"/>
	<path class="st0" d="M303.2,28.7c-0.7,0.6-1.6,1.1-2.5,1.6c-0.9,0.5-2.1,0.7-3.5,0.7c-1.9,0-3.4-0.5-4.5-1.5
		c-1.1-1-1.7-2.6-1.7-4.7c0-1.1,0.2-2.1,0.6-2.8c0.4-0.8,0.9-1.4,1.7-1.9c0.7-0.5,1.6-0.9,2.6-1.1c1-0.2,2.1-0.3,3.3-0.3h3.3v-1
		c0-1.6-0.2-2.7-0.7-3.4c-0.5-0.7-1.4-1-2.8-1c-1.8,0-3.7,0.4-5.6,1.1l-0.9-2.4c0.7-0.3,1.7-0.6,2.8-0.9c1.1-0.3,2.5-0.5,4.1-0.5
		c1.5,0,2.7,0.2,3.5,0.6c0.9,0.4,1.5,1,2,1.7c0.4,0.7,0.7,1.5,0.9,2.5c0.1,1,0.2,2,0.2,3.1v8.2l1.6,2.4l-2.5,1.9L303.2,28.7z
		 M302.4,21h-3c-1.7,0-3,0.3-3.7,0.8c-0.7,0.5-1.1,1.5-1.1,2.8c0,1.2,0.3,2.2,0.8,2.8c0.5,0.6,1.3,0.9,2.4,0.9
		c1.1,0,2.1-0.2,2.9-0.6s1.4-0.8,1.8-1.3V21z M301.1,0l2.8,1.9l-5.4,6.2l-1.7-1.3L301.1,0z"/>
	<path class="st0" d="M326.1,29.4c-0.7,0.4-1.5,0.7-2.6,1c-1,0.3-2.2,0.5-3.6,0.5c-1.7,0-3.2-0.2-4.3-0.7c-1.1-0.5-2.1-1.2-2.7-2.1
		c-0.7-0.9-1.2-1.9-1.5-3.2c-0.3-1.2-0.4-2.6-0.4-4.1c0-1.5,0.2-2.8,0.5-4.1c0.4-1.3,0.9-2.4,1.7-3.3c0.7-0.9,1.7-1.7,2.9-2.2
		c1.2-0.5,2.5-0.8,4.2-0.8c1.2,0,2.2,0.2,3.2,0.5c1,0.3,1.8,0.7,2.5,1.1l-1.1,2.4c-0.7-0.4-1.4-0.7-2.2-0.9
		c-0.8-0.2-1.6-0.4-2.6-0.4c-1.9,0-3.2,0.6-4.1,1.9s-1.3,3.2-1.3,5.8c0,1.1,0.1,2.2,0.3,3.1c0.2,0.9,0.5,1.7,0.9,2.3
		c0.4,0.6,1,1.1,1.7,1.5c0.7,0.3,1.6,0.5,2.6,0.5c0.8,0,1.6-0.1,2.3-0.2c0.7-0.2,1.5-0.5,2.5-0.9L326.1,29.4z"/>
	<path class="st0" d="M329.6,11.2h3.5v12.4c0,1.5,0.3,2.6,0.9,3.5c0.6,0.8,1.5,1.2,2.9,1.2c1.1,0,2-0.2,2.7-0.5s1.3-0.8,2-1.3V11.2
		h3.5v15.4l1.6,2.3l-2.5,1.9l-1.7-2.1c-1,0.8-2,1.3-2.9,1.7c-0.9,0.3-2,0.5-3.1,0.5c-1.4,0-2.5-0.2-3.4-0.6c-0.9-0.4-1.5-0.9-2-1.6
		c-0.5-0.7-0.8-1.5-1-2.4c-0.2-0.9-0.3-1.8-0.3-2.8V11.2z"/>
	<path class="st0" d="M351.2,4.8h-2.4V2.3h5.9v27.9h-3.5V4.8z"/>
	<path class="st0" d="M368.4,30.9c-1.6,0-3-0.3-4.1-0.8c-1.1-0.5-2-1.2-2.6-2.1c-0.7-0.9-1.1-2-1.4-3.2s-0.4-2.6-0.4-4.1
		c0-1.5,0.2-2.8,0.5-4.1c0.4-1.3,0.9-2.3,1.6-3.2c0.7-0.9,1.6-1.6,2.7-2.1c1.1-0.5,2.4-0.8,3.8-0.8c1.5,0,2.8,0.3,3.9,0.8
		c1.1,0.5,2,1.2,2.7,2.1s1.2,2,1.5,3.2c0.3,1.3,0.5,2.6,0.5,4.1c0,1.5-0.2,2.9-0.5,4.1c-0.3,1.2-0.8,2.3-1.5,3.2
		c-0.7,0.9-1.6,1.6-2.7,2.1C371.3,30.7,370,30.9,368.4,30.9z M368.5,28.4c1.8,0,3.1-0.7,3.9-2c0.7-1.3,1.1-3.2,1.1-5.7
		c0-2.4-0.4-4.3-1.1-5.6c-0.7-1.3-2-2-3.9-2c-1.8,0-3.1,0.6-3.9,1.9c-0.7,1.3-1.1,3.2-1.1,5.7c0,1.2,0.1,2.3,0.3,3.2
		c0.2,1,0.5,1.8,0.9,2.4c0.4,0.7,0.9,1.2,1.6,1.5C366.8,28.2,367.6,28.4,368.5,28.4z"/>
	<path class="st0" d="M381.5,26.7c0.6,0.3,1.4,0.7,2.4,1.1c1,0.4,2.1,0.6,3.4,0.6c1.3,0,2.4-0.2,3.2-0.7c0.8-0.5,1.2-1.2,1.2-2.2
		c0-0.6-0.1-1.1-0.4-1.4c-0.3-0.4-0.6-0.7-1-0.9c-0.4-0.2-0.9-0.4-1.5-0.6s-1.2-0.3-1.8-0.5c-0.7-0.2-1.4-0.4-2.1-0.6
		c-0.7-0.3-1.3-0.6-1.9-1c-0.5-0.4-1-0.9-1.3-1.6c-0.3-0.6-0.5-1.4-0.5-2.4c0-0.8,0.1-1.6,0.4-2.3c0.3-0.7,0.7-1.3,1.3-1.8
		c0.6-0.5,1.4-0.9,2.3-1.2c0.9-0.3,2-0.5,3.2-0.5c1.2,0,2.4,0.1,3.4,0.4c1.1,0.3,2,0.6,2.7,1l-1.1,2.3c-1.6-0.9-3.3-1.3-5.1-1.3
		c-1.2,0-2.2,0.2-2.9,0.6c-0.7,0.4-1,1.1-1,2.1c0,0.6,0.1,1,0.3,1.4c0.2,0.4,0.5,0.7,0.9,0.9c0.4,0.2,0.8,0.4,1.4,0.6
		c0.5,0.2,1.1,0.3,1.6,0.5c0.7,0.2,1.4,0.4,2.1,0.6c0.7,0.2,1.4,0.5,2,1c0.6,0.4,1.1,1,1.5,1.6c0.4,0.7,0.6,1.5,0.6,2.6
		c0,1.9-0.6,3.4-1.8,4.4c-1.2,1.1-3.1,1.6-5.6,1.6c-1.7,0-3.1-0.2-4.4-0.6c-1.2-0.4-2.1-0.8-2.7-1.2L381.5,26.7z"/>
	<path class="st0" d="M399.4,26.3l3.7,0.8l-2.8,8.7l-2.4-0.6L399.4,26.3z"/>
	<path class="st0" d="M414.9,4.8h-2.4V2.3h5.9v27.9h-3.5V4.8z"/>
	<path class="st0" d="M432.2,30.9c-1.6,0-3-0.3-4.1-0.8c-1.1-0.5-2-1.2-2.6-2.1c-0.7-0.9-1.1-2-1.4-3.2s-0.4-2.6-0.4-4.1
		c0-1.5,0.2-2.8,0.5-4.1c0.4-1.3,0.9-2.3,1.6-3.2c0.7-0.9,1.6-1.6,2.7-2.1c1.1-0.5,2.4-0.8,3.8-0.8c1.5,0,2.8,0.3,3.9,0.8
		c1.1,0.5,2,1.2,2.7,2.1s1.2,2,1.5,3.2c0.3,1.3,0.5,2.6,0.5,4.1c0,1.5-0.2,2.9-0.5,4.1c-0.3,1.2-0.8,2.3-1.5,3.2
		c-0.7,0.9-1.6,1.6-2.7,2.1C435.1,30.7,433.7,30.9,432.2,30.9z M432.3,28.4c1.8,0,3.1-0.7,3.9-2c0.7-1.3,1.1-3.2,1.1-5.7
		c0-2.4-0.4-4.3-1.1-5.6c-0.7-1.3-2-2-3.9-2c-1.8,0-3.1,0.6-3.9,1.9c-0.7,1.3-1.1,3.2-1.1,5.7c0,1.2,0.1,2.3,0.3,3.2
		c0.2,1,0.5,1.8,0.9,2.4c0.4,0.7,0.9,1.2,1.6,1.5C430.6,28.2,431.4,28.4,432.3,28.4z"/>
	<path class="st0" d="M445.3,26.7c0.6,0.3,1.4,0.7,2.4,1.1c1,0.4,2.1,0.6,3.4,0.6c1.3,0,2.4-0.2,3.2-0.7c0.8-0.5,1.2-1.2,1.2-2.2
		c0-0.6-0.1-1.1-0.4-1.4c-0.3-0.4-0.6-0.7-1-0.9c-0.4-0.2-0.9-0.4-1.5-0.6s-1.2-0.3-1.8-0.5c-0.7-0.2-1.4-0.4-2.1-0.6
		c-0.7-0.3-1.3-0.6-1.9-1c-0.5-0.4-1-0.9-1.3-1.6c-0.3-0.6-0.5-1.4-0.5-2.4c0-0.8,0.1-1.6,0.4-2.3c0.3-0.7,0.7-1.3,1.3-1.8
		c0.6-0.5,1.4-0.9,2.3-1.2c0.9-0.3,2-0.5,3.2-0.5c1.2,0,2.4,0.1,3.4,0.4c1.1,0.3,2,0.6,2.7,1l-1.1,2.3c-1.6-0.9-3.3-1.3-5.1-1.3
		c-1.2,0-2.2,0.2-2.9,0.6c-0.7,0.4-1,1.1-1,2.1c0,0.6,0.1,1,0.3,1.4c0.2,0.4,0.5,0.7,0.9,0.9c0.4,0.2,0.8,0.4,1.4,0.6
		c0.5,0.2,1.1,0.3,1.6,0.5c0.7,0.2,1.4,0.4,2.1,0.6c0.7,0.2,1.4,0.5,2,1c0.6,0.4,1.1,1,1.5,1.6c0.4,0.7,0.6,1.5,0.6,2.6
		c0,1.9-0.6,3.4-1.8,4.4c-1.2,1.1-3.1,1.6-5.6,1.6c-1.7,0-3.1-0.2-4.4-0.6c-1.2-0.4-2.1-0.8-2.7-1.2L445.3,26.7z"/>
	<path class="st0" d="M471,13.7h-2.4v-2.5h4.9l0.6,2.5c0.3-0.4,0.7-0.7,1-1c0.4-0.3,0.7-0.6,1.2-0.9c0.4-0.2,0.9-0.4,1.5-0.6
		c0.5-0.1,1.2-0.2,1.9-0.2c0.9,0,1.7,0.1,2.4,0.3l-1,3.2c-0.3-0.1-0.6-0.2-1-0.3c-0.4-0.1-0.7-0.1-1.1-0.1c-1.8,0-3.3,0.6-4.4,1.9
		v14.2H471V13.7z"/>
	<path class="st0" d="M499,29.5c-0.6,0.4-1.5,0.7-2.6,1s-2.4,0.5-3.6,0.5c-1.7,0-3.2-0.2-4.4-0.7c-1.2-0.5-2.1-1.2-2.8-2.1
		s-1.2-2-1.5-3.2c-0.3-1.3-0.4-2.6-0.4-4.2c0-1.4,0.2-2.7,0.5-4c0.3-1.2,0.8-2.3,1.5-3.2c0.7-0.9,1.6-1.7,2.6-2.2
		c1.1-0.5,2.3-0.8,3.8-0.8c1.4,0,2.6,0.3,3.6,0.9c1,0.6,1.8,1.3,2.4,2.3s1,2,1.3,3.2c0.3,1.2,0.4,2.3,0.4,3.5l-1.3,1.3h-11.3
		c0.1,2.2,0.6,3.9,1.5,5c0.9,1.1,2.2,1.6,4.1,1.6c1,0,1.9-0.1,2.7-0.3c0.9-0.2,1.7-0.5,2.4-0.8L499,29.5z M496.2,19.2
		c0-2-0.4-3.6-1.1-4.6c-0.7-1-1.8-1.6-3.3-1.6c-1.6,0-2.7,0.5-3.3,1.6c-0.7,1.1-1.1,2.6-1.2,4.5H496.2z"/>
	<path class="st0" d="M505.8,13.8h-3.5v-2.6h3.6V5.5h3.4v5.7h5.6v2.6h-5.6v11c0,0.7,0.1,1.3,0.2,1.8c0.1,0.4,0.3,0.8,0.6,1
		c0.2,0.2,0.5,0.4,0.9,0.5c0.3,0.1,0.7,0.1,1.1,0.1c0.4,0,0.9-0.1,1.4-0.2c0.5-0.1,1-0.3,1.5-0.5l0.8,2.3c-0.4,0.2-1,0.4-1.8,0.6
		c-0.8,0.2-1.6,0.3-2.4,0.3c-0.9,0-1.7-0.1-2.4-0.3c-0.7-0.2-1.3-0.5-1.8-0.9c-0.5-0.4-0.9-1-1.1-1.7c-0.3-0.7-0.4-1.6-0.4-2.7V13.8
		z"/>
	<path class="st0" d="M526.2,30.9c-1.6,0-3-0.3-4.1-0.8c-1.1-0.5-2-1.2-2.6-2.1c-0.7-0.9-1.1-2-1.4-3.2s-0.4-2.6-0.4-4.1
		c0-1.5,0.2-2.8,0.5-4.1c0.4-1.3,0.9-2.3,1.6-3.2c0.7-0.9,1.6-1.6,2.7-2.1c1.1-0.5,2.4-0.8,3.8-0.8c1.5,0,2.8,0.3,3.9,0.8
		c1.1,0.5,2,1.2,2.7,2.1s1.2,2,1.5,3.2c0.3,1.3,0.5,2.6,0.5,4.1c0,1.5-0.2,2.9-0.5,4.1c-0.3,1.2-0.8,2.3-1.5,3.2
		c-0.7,0.9-1.6,1.6-2.7,2.1C529.1,30.7,527.7,30.9,526.2,30.9z M526.3,28.4c1.8,0,3.1-0.7,3.9-2c0.7-1.3,1.1-3.2,1.1-5.7
		c0-2.4-0.4-4.3-1.1-5.6c-0.7-1.3-2-2-3.9-2c-1.8,0-3.1,0.6-3.9,1.9c-0.7,1.3-1.1,3.2-1.1,5.7c0,1.2,0.1,2.3,0.3,3.2
		c0.2,1,0.5,1.8,0.9,2.4c0.4,0.7,0.9,1.2,1.6,1.5C524.6,28.2,525.4,28.4,526.3,28.4z"/>
	<path class="st0" d="M539.3,26.7c0.6,0.3,1.4,0.7,2.4,1.1c1,0.4,2.1,0.6,3.4,0.6c1.3,0,2.4-0.2,3.2-0.7c0.8-0.5,1.2-1.2,1.2-2.2
		c0-0.6-0.1-1.1-0.4-1.4c-0.3-0.4-0.6-0.7-1-0.9c-0.4-0.2-0.9-0.4-1.5-0.6s-1.2-0.3-1.8-0.5c-0.7-0.2-1.4-0.4-2.1-0.6
		c-0.7-0.3-1.3-0.6-1.9-1c-0.5-0.4-1-0.9-1.3-1.6c-0.3-0.6-0.5-1.4-0.5-2.4c0-0.8,0.1-1.6,0.4-2.3c0.3-0.7,0.7-1.3,1.3-1.8
		c0.6-0.5,1.4-0.9,2.3-1.2c0.9-0.3,2-0.5,3.2-0.5c1.2,0,2.4,0.1,3.4,0.4c1.1,0.3,2,0.6,2.7,1l-1.1,2.3c-1.6-0.9-3.3-1.3-5.1-1.3
		c-1.2,0-2.2,0.2-2.9,0.6c-0.7,0.4-1,1.1-1,2.1c0,0.6,0.1,1,0.3,1.4c0.2,0.4,0.5,0.7,0.9,0.9c0.4,0.2,0.8,0.4,1.4,0.6
		c0.5,0.2,1.1,0.3,1.6,0.5c0.7,0.2,1.4,0.4,2.1,0.6c0.7,0.2,1.4,0.5,2,1c0.6,0.4,1.1,1,1.5,1.6c0.4,0.7,0.6,1.5,0.6,2.6
		c0,1.9-0.6,3.4-1.8,4.4c-1.2,1.1-3.1,1.6-5.6,1.6c-1.7,0-3.1-0.2-4.4-0.6c-1.2-0.4-2.1-0.8-2.7-1.2L539.3,26.7z"/>
	<path class="st0" d="M563.8,35.5c0.4,0.2,0.9,0.3,1.5,0.5c0.6,0.2,1.3,0.3,2.2,0.3c1,0,1.7-0.3,2.2-0.9c0.5-0.6,0.9-1.4,1.2-2.6
		l0.8-3.1h-0.6c-0.8,0-1.5-0.1-2.1-0.3c-0.6-0.2-1.1-0.5-1.6-0.9s-0.8-1-1.2-1.7c-0.3-0.7-0.6-1.6-0.9-2.6l-3.5-12.9l3.5-0.6
		l3.5,13.1c0.2,0.7,0.4,1.3,0.6,1.7s0.4,0.8,0.7,1c0.2,0.2,0.5,0.4,0.8,0.5s0.6,0.1,0.9,0.1h0.5l4.1-16.5l3.2,0.6l-5.7,21.8
		c-0.5,1.9-1.3,3.3-2.3,4.2c-1,0.9-2.4,1.3-4.2,1.3c-0.5,0-0.9,0-1.4-0.1c-0.5-0.1-0.9-0.2-1.3-0.3c-0.4-0.1-0.8-0.2-1.1-0.3
		c-0.3-0.1-0.6-0.2-0.8-0.3L563.8,35.5z"/>
	<path class="st0" d="M590.1,4.8h-2.4V2.3h5.9v27.9h-3.5V4.8z"/>
	<path class="st0" d="M607.4,30.9c-1.6,0-3-0.3-4.1-0.8c-1.1-0.5-2-1.2-2.6-2.1s-1.1-2-1.4-3.2c-0.3-1.2-0.4-2.6-0.4-4.1
		c0-1.5,0.2-2.8,0.5-4.1c0.4-1.3,0.9-2.3,1.6-3.2s1.6-1.6,2.7-2.1c1.1-0.5,2.4-0.8,3.8-0.8c1.5,0,2.8,0.3,3.9,0.8
		c1.1,0.5,2,1.2,2.7,2.1c0.7,0.9,1.2,2,1.5,3.2s0.5,2.6,0.5,4.1c0,1.5-0.2,2.9-0.5,4.1c-0.3,1.2-0.8,2.3-1.5,3.2
		c-0.7,0.9-1.6,1.6-2.7,2.1C610.3,30.7,608.9,30.9,607.4,30.9z M607.5,28.4c1.8,0,3.1-0.7,3.9-2c0.7-1.3,1.1-3.2,1.1-5.7
		c0-2.4-0.4-4.3-1.1-5.6c-0.7-1.3-2-2-3.9-2c-1.8,0-3.1,0.6-3.9,1.9c-0.7,1.3-1.1,3.2-1.1,5.7c0,1.2,0.1,2.3,0.3,3.2
		c0.2,1,0.5,1.8,0.9,2.4c0.4,0.7,0.9,1.2,1.6,1.5C605.8,28.2,606.6,28.4,607.5,28.4z"/>
	<path class="st0" d="M620.5,26.7c0.6,0.3,1.4,0.7,2.4,1.1c1,0.4,2.1,0.6,3.4,0.6c1.3,0,2.4-0.2,3.2-0.7s1.2-1.2,1.2-2.2
		c0-0.6-0.1-1.1-0.4-1.4c-0.3-0.4-0.6-0.7-1-0.9c-0.4-0.2-0.9-0.4-1.5-0.6c-0.6-0.2-1.2-0.3-1.8-0.5c-0.7-0.2-1.4-0.4-2.1-0.6
		c-0.7-0.3-1.3-0.6-1.9-1c-0.5-0.4-1-0.9-1.3-1.6c-0.3-0.6-0.5-1.4-0.5-2.4c0-0.8,0.1-1.6,0.4-2.3c0.3-0.7,0.7-1.3,1.3-1.8
		c0.6-0.5,1.4-0.9,2.3-1.2c0.9-0.3,2-0.5,3.2-0.5s2.4,0.1,3.4,0.4c1.1,0.3,2,0.6,2.7,1l-1.1,2.3c-1.6-0.9-3.3-1.3-5.1-1.3
		c-1.2,0-2.2,0.2-2.9,0.6c-0.7,0.4-1,1.1-1,2.1c0,0.6,0.1,1,0.3,1.4c0.2,0.4,0.5,0.7,0.9,0.9c0.4,0.2,0.8,0.4,1.4,0.6
		c0.5,0.2,1.1,0.3,1.6,0.5c0.7,0.2,1.4,0.4,2.1,0.6c0.7,0.2,1.4,0.5,2,1c0.6,0.4,1.1,1,1.5,1.6c0.4,0.7,0.6,1.5,0.6,2.6
		c0,1.9-0.6,3.4-1.8,4.4c-1.2,1.1-3.1,1.6-5.6,1.6c-1.7,0-3.1-0.2-4.4-0.6c-1.2-0.4-2.1-0.8-2.7-1.2L620.5,26.7z"/>
	<path class="st0" d="M645.9,15.2l-1.5-3.2l2.9-1.5l1.6,2.4c0.7-0.6,1.4-1.2,2.3-1.6c0.9-0.5,1.9-0.7,3.2-0.7c2.6,0,4.6,0.8,5.9,2.5
		c1.4,1.7,2,4.2,2,7.7c0,1.5-0.2,2.9-0.6,4.2s-1,2.3-1.8,3.2c-0.8,0.9-1.8,1.6-3,2.1c-1.2,0.5-2.6,0.7-4.1,0.7c-0.6,0-1.1,0-1.8-0.1
		s-1.2-0.2-1.7-0.3v8.1h-3.5V15.2z M649.5,27.9c0.4,0.1,1,0.3,1.7,0.4s1.3,0.2,2,0.2c1.9,0,3.3-0.7,4.2-2s1.4-3.2,1.4-5.7
		c0-2.4-0.3-4.2-1-5.6c-0.7-1.3-1.9-2-3.5-2c-1,0-1.8,0.2-2.4,0.5c-0.7,0.3-1.4,0.9-2.2,1.6V27.9z"/>
	<path class="st0" d="M667.9,13.7h-2.4v-2.5h4.9l0.6,2.5c0.3-0.4,0.7-0.7,1-1s0.7-0.6,1.2-0.9c0.4-0.2,0.9-0.4,1.5-0.6
		c0.5-0.1,1.2-0.2,1.9-0.2c0.9,0,1.7,0.1,2.4,0.3l-1,3.2c-0.3-0.1-0.6-0.2-1-0.3s-0.7-0.1-1.1-0.1c-1.8,0-3.3,0.6-4.4,1.9v14.2h-3.5
		V13.7z"/>
	<path class="st0" d="M689.1,30.9c-1.6,0-3-0.3-4.1-0.8c-1.1-0.5-2-1.2-2.6-2.1s-1.1-2-1.4-3.2c-0.3-1.2-0.4-2.6-0.4-4.1
		c0-1.5,0.2-2.8,0.5-4.1c0.4-1.3,0.9-2.3,1.6-3.2s1.6-1.6,2.7-2.1c1.1-0.5,2.4-0.8,3.8-0.8c1.5,0,2.8,0.3,3.9,0.8
		c1.1,0.5,2,1.2,2.7,2.1c0.7,0.9,1.2,2,1.5,3.2s0.5,2.6,0.5,4.1c0,1.5-0.2,2.9-0.5,4.1c-0.3,1.2-0.8,2.3-1.5,3.2
		c-0.7,0.9-1.6,1.6-2.7,2.1C692,30.7,690.6,30.9,689.1,30.9z M689.2,28.4c1.8,0,3.1-0.7,3.9-2c0.7-1.3,1.1-3.2,1.1-5.7
		c0-2.4-0.4-4.3-1.1-5.6c-0.7-1.3-2-2-3.9-2c-1.8,0-3.1,0.6-3.9,1.9c-0.7,1.3-1.1,3.2-1.1,5.7c0,1.2,0.1,2.3,0.3,3.2
		c0.2,1,0.5,1.8,0.9,2.4c0.4,0.7,0.9,1.2,1.6,1.5C687.5,28.2,688.3,28.4,689.2,28.4z"/>
	<path class="st0" d="M703.1,15.2l-1.5-3.2l2.9-1.5l1.6,2.4c0.7-0.6,1.4-1.2,2.3-1.6c0.9-0.5,1.9-0.7,3.2-0.7c2.6,0,4.6,0.8,5.9,2.5
		c1.4,1.7,2,4.2,2,7.7c0,1.5-0.2,2.9-0.6,4.2s-1,2.3-1.8,3.2c-0.8,0.9-1.8,1.6-3,2.1c-1.2,0.5-2.6,0.7-4.1,0.7c-0.6,0-1.1,0-1.8-0.1
		s-1.2-0.2-1.7-0.3v8.1h-3.5V15.2z M706.6,27.9c0.4,0.1,1,0.3,1.7,0.4s1.3,0.2,2,0.2c1.9,0,3.3-0.7,4.2-2s1.4-3.2,1.4-5.7
		c0-2.4-0.3-4.2-1-5.6c-0.7-1.3-1.9-2-3.5-2c-1,0-1.8,0.2-2.4,0.5c-0.7,0.3-1.4,0.9-2.2,1.6V27.9z"/>
	<path class="st0" d="M732.3,30.9c-1.6,0-3-0.3-4.1-0.8c-1.1-0.5-2-1.2-2.6-2.1s-1.1-2-1.4-3.2c-0.3-1.2-0.4-2.6-0.4-4.1
		c0-1.5,0.2-2.8,0.5-4.1c0.4-1.3,0.9-2.3,1.6-3.2s1.6-1.6,2.7-2.1c1.1-0.5,2.4-0.8,3.8-0.8c1.5,0,2.8,0.3,3.9,0.8
		c1.1,0.5,2,1.2,2.7,2.1c0.7,0.9,1.2,2,1.5,3.2s0.5,2.6,0.5,4.1c0,1.5-0.2,2.9-0.5,4.1c-0.3,1.2-0.8,2.3-1.5,3.2
		c-0.7,0.9-1.6,1.6-2.7,2.1C735.2,30.7,733.9,30.9,732.3,30.9z M732.4,28.4c1.8,0,3.1-0.7,3.9-2c0.7-1.3,1.1-3.2,1.1-5.7
		c0-2.4-0.4-4.3-1.1-5.6c-0.7-1.3-2-2-3.9-2c-1.8,0-3.1,0.6-3.9,1.9c-0.7,1.3-1.1,3.2-1.1,5.7c0,1.2,0.1,2.3,0.3,3.2
		c0.2,1,0.5,1.8,0.9,2.4c0.4,0.7,0.9,1.2,1.6,1.5C730.7,28.2,731.5,28.4,732.4,28.4z M734.6,0l2.8,1.9l-5.4,6.2l-1.7-1.3L734.6,0z"
		/>
	<path class="st0" d="M745.4,26.7c0.6,0.3,1.4,0.7,2.4,1.1c1,0.4,2.1,0.6,3.4,0.6c1.3,0,2.4-0.2,3.2-0.7s1.2-1.2,1.2-2.2
		c0-0.6-0.1-1.1-0.4-1.4c-0.3-0.4-0.6-0.7-1-0.9c-0.4-0.2-0.9-0.4-1.5-0.6c-0.6-0.2-1.2-0.3-1.8-0.5c-0.7-0.2-1.4-0.4-2.1-0.6
		c-0.7-0.3-1.3-0.6-1.9-1c-0.5-0.4-1-0.9-1.3-1.6c-0.3-0.6-0.5-1.4-0.5-2.4c0-0.8,0.1-1.6,0.4-2.3c0.3-0.7,0.7-1.3,1.3-1.8
		c0.6-0.5,1.4-0.9,2.3-1.2c0.9-0.3,2-0.5,3.2-0.5s2.4,0.1,3.4,0.4c1.1,0.3,2,0.6,2.7,1l-1.1,2.3c-1.6-0.9-3.3-1.3-5.1-1.3
		c-1.2,0-2.2,0.2-2.9,0.6c-0.7,0.4-1,1.1-1,2.1c0,0.6,0.1,1,0.3,1.4c0.2,0.4,0.5,0.7,0.9,0.9c0.4,0.2,0.8,0.4,1.4,0.6
		c0.5,0.2,1.1,0.3,1.6,0.5c0.7,0.2,1.4,0.4,2.1,0.6c0.7,0.2,1.4,0.5,2,1c0.6,0.4,1.1,1,1.5,1.6c0.4,0.7,0.6,1.5,0.6,2.6
		c0,1.9-0.6,3.4-1.8,4.4c-1.2,1.1-3.1,1.6-5.6,1.6c-1.7,0-3.1-0.2-4.4-0.6c-1.2-0.4-2.1-0.8-2.7-1.2L745.4,26.7z"/>
	<path class="st0" d="M763.6,13.7h-2.4v-2.5h6v19h-3.5V13.7z M765,7.7c-0.7,0-1.3-0.2-1.7-0.7s-0.6-1.1-0.6-1.8
		c0-0.7,0.2-1.3,0.6-1.8s1-0.7,1.7-0.7c0.8,0,1.3,0.2,1.8,0.7s0.6,1.1,0.6,1.8c0,0.7-0.2,1.3-0.6,1.8S765.7,7.7,765,7.7z"/>
	<path class="st0" d="M774.3,13.8h-3.5v-2.6h3.6V5.5h3.4v5.7h5.6v2.6h-5.6v11c0,0.7,0.1,1.3,0.2,1.8c0.1,0.4,0.3,0.8,0.6,1
		c0.2,0.2,0.5,0.4,0.9,0.5c0.3,0.1,0.7,0.1,1.1,0.1s0.9-0.1,1.4-0.2c0.5-0.1,1-0.3,1.5-0.5l0.8,2.3c-0.4,0.2-1,0.4-1.8,0.6
		c-0.8,0.2-1.6,0.3-2.4,0.3c-0.9,0-1.7-0.1-2.4-0.3s-1.3-0.5-1.8-0.9c-0.5-0.4-0.9-1-1.1-1.7c-0.3-0.7-0.4-1.6-0.4-2.7V13.8z"/>
	<path class="st0" d="M794.7,30.9c-1.6,0-3-0.3-4.1-0.8c-1.1-0.5-2-1.2-2.6-2.1s-1.1-2-1.4-3.2c-0.3-1.2-0.4-2.6-0.4-4.1
		c0-1.5,0.2-2.8,0.5-4.1c0.4-1.3,0.9-2.3,1.6-3.2s1.6-1.6,2.7-2.1c1.1-0.5,2.4-0.8,3.8-0.8c1.5,0,2.8,0.3,3.9,0.8
		c1.1,0.5,2,1.2,2.7,2.1c0.7,0.9,1.2,2,1.5,3.2s0.5,2.6,0.5,4.1c0,1.5-0.2,2.9-0.5,4.1c-0.3,1.2-0.8,2.3-1.5,3.2
		c-0.7,0.9-1.6,1.6-2.7,2.1C797.6,30.7,796.2,30.9,794.7,30.9z M794.8,28.4c1.8,0,3.1-0.7,3.9-2c0.7-1.3,1.1-3.2,1.1-5.7
		c0-2.4-0.4-4.3-1.1-5.6c-0.7-1.3-2-2-3.9-2c-1.8,0-3.1,0.6-3.9,1.9c-0.7,1.3-1.1,3.2-1.1,5.7c0,1.2,0.1,2.3,0.3,3.2
		c0.2,1,0.5,1.8,0.9,2.4c0.4,0.7,0.9,1.2,1.6,1.5C793.1,28.2,793.9,28.4,794.8,28.4z"/>
	<path class="st0" d="M807.8,26.7c0.6,0.3,1.4,0.7,2.4,1.1c1,0.4,2.1,0.6,3.4,0.6c1.3,0,2.4-0.2,3.2-0.7s1.2-1.2,1.2-2.2
		c0-0.6-0.1-1.1-0.4-1.4c-0.3-0.4-0.6-0.7-1-0.9c-0.4-0.2-0.9-0.4-1.5-0.6c-0.6-0.2-1.2-0.3-1.8-0.5c-0.7-0.2-1.4-0.4-2.1-0.6
		c-0.7-0.3-1.3-0.6-1.9-1c-0.5-0.4-1-0.9-1.3-1.6c-0.3-0.6-0.5-1.4-0.5-2.4c0-0.8,0.1-1.6,0.4-2.3c0.3-0.7,0.7-1.3,1.3-1.8
		c0.6-0.5,1.4-0.9,2.3-1.2c0.9-0.3,2-0.5,3.2-0.5s2.4,0.1,3.4,0.4c1.1,0.3,2,0.6,2.7,1l-1.1,2.3c-1.6-0.9-3.3-1.3-5.1-1.3
		c-1.2,0-2.2,0.2-2.9,0.6c-0.7,0.4-1,1.1-1,2.1c0,0.6,0.1,1,0.3,1.4c0.2,0.4,0.5,0.7,0.9,0.9c0.4,0.2,0.8,0.4,1.4,0.6
		c0.5,0.2,1.1,0.3,1.6,0.5c0.7,0.2,1.4,0.4,2.1,0.6c0.7,0.2,1.4,0.5,2,1c0.6,0.4,1.1,1,1.5,1.6c0.4,0.7,0.6,1.5,0.6,2.6
		c0,1.9-0.6,3.4-1.8,4.4c-1.2,1.1-3.1,1.6-5.6,1.6c-1.7,0-3.1-0.2-4.4-0.6c-1.2-0.4-2.1-0.8-2.7-1.2L807.8,26.7z"/>
	<path class="st0" d="M833.2,4.8h-2.4V2.3h5.9v27.9h-3.5V4.8z"/>
	<path class="st0" d="M842.8,4.8h-2.4V2.3h5.9v27.9h-3.5V4.8z"/>
	<path class="st0" d="M866.8,29.5c-0.6,0.4-1.5,0.7-2.6,1c-1.2,0.3-2.4,0.5-3.6,0.5c-1.7,0-3.2-0.2-4.4-0.7
		c-1.2-0.5-2.1-1.2-2.8-2.1c-0.7-0.9-1.2-2-1.5-3.2c-0.3-1.3-0.4-2.6-0.4-4.2c0-1.4,0.2-2.7,0.5-4c0.3-1.2,0.8-2.3,1.5-3.2
		c0.7-0.9,1.6-1.7,2.6-2.2c1.1-0.5,2.3-0.8,3.8-0.8c1.4,0,2.6,0.3,3.6,0.9c1,0.6,1.8,1.3,2.4,2.3c0.6,0.9,1,2,1.3,3.2
		c0.3,1.2,0.4,2.3,0.4,3.5l-1.3,1.3h-11.3c0.1,2.2,0.6,3.9,1.5,5c0.9,1.1,2.2,1.6,4.1,1.6c1,0,1.9-0.1,2.7-0.3
		c0.9-0.2,1.7-0.5,2.4-0.8L866.8,29.5z M864,19.2c0-2-0.4-3.6-1.1-4.6c-0.7-1-1.8-1.6-3.3-1.6c-1.6,0-2.7,0.5-3.3,1.6
		c-0.7,1.1-1.1,2.6-1.2,4.5H864z"/>
	<path class="st0" d="M873.6,34.8c0.7,0.3,1.5,0.6,2.3,0.9c0.8,0.3,1.9,0.4,3.1,0.4c2,0,3.4-0.5,4.1-1.4c0.8-0.9,1.1-2.4,1.1-4.4
		v-0.8c-0.6,0.3-1.3,0.6-2,0.7c-0.7,0.2-1.5,0.3-2.2,0.3c-2.8,0-4.9-0.8-6.3-2.4c-1.4-1.6-2.1-4.1-2.1-7.5c0-1.4,0.1-2.7,0.4-3.9
		c0.3-1.2,0.7-2.3,1.3-3.2c0.6-0.9,1.4-1.7,2.5-2.2s2.3-0.8,3.8-0.8c0.7,0,1.3,0.1,1.8,0.2c0.5,0.2,1,0.3,1.5,0.6
		c0.4,0.2,0.8,0.4,1.1,0.7c0.3,0.2,0.6,0.5,0.8,0.7l1.5-2.2l2.8,1.5l-1.4,3.2v15.9c0,2.4-0.7,4.3-2.1,5.7c-1.4,1.4-3.6,2-6.4,2
		c-1.3,0-2.5-0.1-3.6-0.3c-1.2-0.2-2.2-0.6-3.1-1.1L873.6,34.8z M884.3,15.1c-0.4-0.4-0.9-0.9-1.6-1.3c-0.7-0.4-1.6-0.7-2.7-0.7
		c-1.5,0-2.7,0.6-3.5,1.8c-0.8,1.2-1.2,3.2-1.2,5.8c0,2.4,0.4,4.2,1.2,5.4c0.8,1.2,2.1,1.9,3.9,1.9c0.8,0,1.5-0.1,2.1-0.2
		c0.6-0.2,1.2-0.4,1.8-0.9V15.1z"/>
	<path class="st0" d="M904.7,28.7c-0.7,0.6-1.6,1.1-2.5,1.6s-2.1,0.7-3.5,0.7c-1.9,0-3.4-0.5-4.5-1.5c-1.1-1-1.7-2.6-1.7-4.7
		c0-1.1,0.2-2.1,0.6-2.8s0.9-1.4,1.7-1.9s1.6-0.9,2.6-1.1c1-0.2,2.1-0.3,3.3-0.3h3.3v-1c0-1.6-0.2-2.7-0.7-3.4c-0.5-0.7-1.4-1-2.8-1
		c-1.8,0-3.7,0.4-5.6,1.1l-0.9-2.4c0.7-0.3,1.7-0.6,2.8-0.9c1.1-0.3,2.5-0.5,4.1-0.5c1.5,0,2.7,0.2,3.5,0.6c0.9,0.4,1.5,1,2,1.7
		c0.4,0.7,0.7,1.5,0.9,2.5s0.2,2,0.2,3.1v8.2L909,29l-2.5,1.9L904.7,28.7z M903.9,21h-3c-1.7,0-3,0.3-3.7,0.8
		c-0.7,0.5-1.1,1.5-1.1,2.8c0,1.2,0.3,2.2,0.8,2.8c0.5,0.6,1.3,0.9,2.4,0.9c1.1,0,2.1-0.2,2.9-0.6c0.8-0.4,1.4-0.8,1.8-1.3V21z"/>
	<path class="st0" d="M920.8,4.8h-2.4V2.3h5.9v27.9h-3.5V4.8z"/>
	<path class="st0" d="M941.2,28.7c-0.7,0.6-1.6,1.1-2.5,1.6s-2.1,0.7-3.5,0.7c-1.9,0-3.4-0.5-4.5-1.5c-1.1-1-1.7-2.6-1.7-4.7
		c0-1.1,0.2-2.1,0.6-2.8s0.9-1.4,1.7-1.9s1.6-0.9,2.6-1.1c1-0.2,2.1-0.3,3.3-0.3h3.3v-1c0-1.6-0.2-2.7-0.7-3.4c-0.5-0.7-1.4-1-2.8-1
		c-1.8,0-3.7,0.4-5.6,1.1l-0.9-2.4c0.7-0.3,1.7-0.6,2.8-0.9c1.1-0.3,2.5-0.5,4.1-0.5c1.5,0,2.7,0.2,3.5,0.6c0.9,0.4,1.5,1,2,1.7
		c0.4,0.7,0.7,1.5,0.9,2.5s0.2,2,0.2,3.1v8.2l1.6,2.4l-2.5,1.9L941.2,28.7z M940.4,21h-3c-1.7,0-3,0.3-3.7,0.8
		c-0.7,0.5-1.1,1.5-1.1,2.8c0,1.2,0.3,2.2,0.8,2.8c0.5,0.6,1.3,0.9,2.4,0.9c1.1,0,2.1-0.2,2.9-0.6c0.8-0.4,1.4-0.8,1.8-1.3V21z"/>
	<path class="st0" d="M957.7,13.7h-2.4v-2.5h4.9l0.6,2.5c0.3-0.4,0.7-0.7,1-1s0.7-0.6,1.2-0.9c0.4-0.2,0.9-0.4,1.5-0.6
		c0.5-0.1,1.2-0.2,1.9-0.2c0.9,0,1.7,0.1,2.4,0.3l-1,3.2c-0.3-0.1-0.6-0.2-1-0.3s-0.7-0.1-1.1-0.1c-1.8,0-3.3,0.6-4.4,1.9v14.2h-3.5
		V13.7z"/>
	<path class="st0" d="M985.7,29.5c-0.6,0.4-1.5,0.7-2.6,1c-1.2,0.3-2.4,0.5-3.6,0.5c-1.7,0-3.2-0.2-4.4-0.7
		c-1.2-0.5-2.1-1.2-2.8-2.1c-0.7-0.9-1.2-2-1.5-3.2c-0.3-1.3-0.4-2.6-0.4-4.2c0-1.4,0.2-2.7,0.5-4c0.3-1.2,0.8-2.3,1.5-3.2
		c0.7-0.9,1.6-1.7,2.6-2.2c1.1-0.5,2.3-0.8,3.8-0.8c1.4,0,2.6,0.3,3.6,0.9c1,0.6,1.8,1.3,2.4,2.3c0.6,0.9,1,2,1.3,3.2
		c0.3,1.2,0.4,2.3,0.4,3.5l-1.3,1.3h-11.3c0.1,2.2,0.6,3.9,1.5,5c0.9,1.1,2.2,1.6,4.1,1.6c1,0,1.9-0.1,2.7-0.3
		c0.9-0.2,1.7-0.5,2.4-0.8L985.7,29.5z M982.8,19.2c0-2-0.4-3.6-1.1-4.6c-0.7-1-1.8-1.6-3.3-1.6c-1.6,0-2.7,0.5-3.3,1.6
		c-0.7,1.1-1.1,2.6-1.2,4.5H982.8z"/>
	<path class="st0" d="M1005.5,29.4c-0.7,0.4-1.5,0.7-2.6,1c-1,0.3-2.2,0.5-3.6,0.5c-1.7,0-3.2-0.2-4.3-0.7c-1.1-0.5-2.1-1.2-2.7-2.1
		c-0.7-0.9-1.2-1.9-1.5-3.2c-0.3-1.2-0.4-2.6-0.4-4.1c0-1.5,0.2-2.8,0.5-4.1c0.4-1.3,0.9-2.4,1.7-3.3c0.7-0.9,1.7-1.7,2.8-2.2
		c1.2-0.5,2.5-0.8,4.2-0.8c1.2,0,2.2,0.2,3.2,0.5c1,0.3,1.8,0.7,2.5,1.1l-1.1,2.4c-0.7-0.4-1.4-0.7-2.2-0.9
		c-0.8-0.2-1.6-0.4-2.6-0.4c-1.9,0-3.2,0.6-4.1,1.9s-1.3,3.2-1.3,5.8c0,1.1,0.1,2.2,0.3,3.1c0.2,0.9,0.5,1.7,0.9,2.3
		c0.4,0.6,1,1.1,1.7,1.5c0.7,0.3,1.6,0.5,2.6,0.5c0.8,0,1.6-0.1,2.3-0.2c0.7-0.2,1.5-0.5,2.5-0.9L1005.5,29.4z"/>
	<path class="st0" d="M1016.5,30.9c-1.6,0-3-0.3-4.1-0.8c-1.1-0.5-2-1.2-2.6-2.1s-1.1-2-1.4-3.2c-0.3-1.2-0.4-2.6-0.4-4.1
		c0-1.5,0.2-2.8,0.5-4.1c0.4-1.3,0.9-2.3,1.6-3.2s1.6-1.6,2.7-2.1c1.1-0.5,2.4-0.8,3.8-0.8c1.5,0,2.8,0.3,3.9,0.8
		c1.1,0.5,2,1.2,2.7,2.1c0.7,0.9,1.2,2,1.5,3.2s0.5,2.6,0.5,4.1c0,1.5-0.2,2.9-0.5,4.1c-0.3,1.2-0.8,2.3-1.5,3.2
		c-0.7,0.9-1.6,1.6-2.7,2.1C1019.4,30.7,1018.1,30.9,1016.5,30.9z M1016.6,28.4c1.8,0,3.1-0.7,3.9-2c0.7-1.3,1.1-3.2,1.1-5.7
		c0-2.4-0.4-4.3-1.1-5.6c-0.7-1.3-2-2-3.9-2c-1.8,0-3.1,0.6-3.9,1.9c-0.7,1.3-1.1,3.2-1.1,5.7c0,1.2,0.1,2.3,0.3,3.2
		c0.2,1,0.5,1.8,0.9,2.4c0.4,0.7,0.9,1.2,1.6,1.5C1014.9,28.2,1015.7,28.4,1016.6,28.4z"/>
	<path class="st0" d="M1030.6,15.1l-1.5-3.2l2.8-1.5l1.6,2.5c1-0.9,2-1.6,3-1.9c1-0.3,1.9-0.5,2.7-0.5c1.4,0,2.4,0.2,3.1,0.6
		c0.7,0.4,1.3,1,1.8,1.8c1.1-1,2.2-1.6,3.3-2c1.1-0.3,2-0.5,2.7-0.5c1.3,0,2.3,0.2,3.1,0.6s1.4,0.9,1.8,1.6c0.4,0.7,0.7,1.5,0.8,2.4
		c0.1,0.9,0.2,1.8,0.2,2.8v12.3h-3.5V17.9c0-1.5-0.2-2.6-0.7-3.3c-0.4-0.7-1.3-1-2.6-1c-0.7,0-1.5,0.1-2.3,0.4
		c-0.8,0.3-1.5,0.7-2.3,1.3c0.1,0.4,0.1,0.8,0.1,1.3c0,0.5,0.1,0.9,0.1,1.3v12.3h-3.5V17.8c0-1.4-0.2-2.5-0.7-3.2
		c-0.4-0.7-1.3-1-2.6-1c-0.7,0-1.4,0.1-2.2,0.4c-0.7,0.3-1.4,0.7-2.1,1.3v15h-3.5V15.1z"/>
	<path class="st0" d="M1062.4,15.2l-1.5-3.2l2.9-1.5l1.6,2.4c0.7-0.6,1.4-1.2,2.3-1.6c0.9-0.5,1.9-0.7,3.2-0.7
		c2.6,0,4.6,0.8,5.9,2.5c1.4,1.7,2,4.2,2,7.7c0,1.5-0.2,2.9-0.6,4.2s-1,2.3-1.8,3.2c-0.8,0.9-1.8,1.6-3,2.1
		c-1.2,0.5-2.6,0.7-4.1,0.7c-0.6,0-1.1,0-1.8-0.1s-1.2-0.2-1.7-0.3v8.1h-3.5V15.2z M1066,27.9c0.4,0.1,1,0.3,1.7,0.4s1.3,0.2,2,0.2
		c1.9,0,3.3-0.7,4.2-2s1.4-3.2,1.4-5.7c0-2.4-0.3-4.2-1-5.6c-0.7-1.3-1.9-2-3.5-2c-1,0-1.8,0.2-2.4,0.5c-0.7,0.3-1.4,0.9-2.2,1.6
		V27.9z"/>
	<path class="st0" d="M1098.4,29.5c-0.6,0.4-1.5,0.7-2.6,1c-1.2,0.3-2.4,0.5-3.6,0.5c-1.7,0-3.2-0.2-4.4-0.7
		c-1.2-0.5-2.1-1.2-2.8-2.1c-0.7-0.9-1.2-2-1.5-3.2c-0.3-1.3-0.4-2.6-0.4-4.2c0-1.4,0.2-2.7,0.5-4c0.3-1.2,0.8-2.3,1.5-3.2
		c0.7-0.9,1.6-1.7,2.6-2.2c1.1-0.5,2.3-0.8,3.8-0.8c1.4,0,2.6,0.3,3.6,0.9c1,0.6,1.8,1.3,2.4,2.3c0.6,0.9,1,2,1.3,3.2
		c0.3,1.2,0.4,2.3,0.4,3.5l-1.3,1.3h-11.3c0.1,2.2,0.6,3.9,1.5,5c0.9,1.1,2.2,1.6,4.1,1.6c1,0,1.9-0.1,2.7-0.3
		c0.9-0.2,1.7-0.5,2.4-0.8L1098.4,29.5z M1095.6,19.2c0-2-0.4-3.6-1.1-4.6c-0.7-1-1.8-1.6-3.3-1.6c-1.6,0-2.7,0.5-3.3,1.6
		c-0.7,1.1-1.1,2.6-1.2,4.5H1095.6z"/>
	<path class="st0" d="M1104.3,15.2l-1.5-3.2l2.8-1.5l1.6,2.5c1.1-0.9,2.2-1.5,3.2-1.9c1-0.4,2.1-0.6,3.2-0.6c1.3,0,2.3,0.2,3.2,0.6
		s1.5,0.9,2,1.6c0.5,0.7,0.9,1.5,1.1,2.4c0.2,0.9,0.3,1.8,0.3,2.8v12.3h-3.5V18.1c0-1.6-0.3-2.7-1-3.5c-0.6-0.7-1.6-1.1-2.9-1.1
		c-1,0-1.9,0.2-2.8,0.5s-1.6,0.8-2.2,1.3v14.9h-3.5V15.2z"/>
	<path class="st0" d="M1125.4,26.7c0.6,0.3,1.4,0.7,2.4,1.1c1,0.4,2.1,0.6,3.4,0.6c1.3,0,2.4-0.2,3.2-0.7s1.2-1.2,1.2-2.2
		c0-0.6-0.1-1.1-0.4-1.4c-0.3-0.4-0.6-0.7-1-0.9c-0.4-0.2-0.9-0.4-1.5-0.6c-0.6-0.2-1.2-0.3-1.8-0.5c-0.7-0.2-1.4-0.4-2.1-0.6
		c-0.7-0.3-1.3-0.6-1.9-1c-0.5-0.4-1-0.9-1.3-1.6c-0.3-0.6-0.5-1.4-0.5-2.4c0-0.8,0.1-1.6,0.4-2.3c0.3-0.7,0.7-1.3,1.3-1.8
		c0.6-0.5,1.4-0.9,2.3-1.2c0.9-0.3,2-0.5,3.2-0.5s2.4,0.1,3.4,0.4c1.1,0.3,2,0.6,2.7,1l-1.1,2.3c-1.6-0.9-3.3-1.3-5.1-1.3
		c-1.2,0-2.2,0.2-2.9,0.6c-0.7,0.4-1,1.1-1,2.1c0,0.6,0.1,1,0.3,1.4c0.2,0.4,0.5,0.7,0.9,0.9c0.4,0.2,0.8,0.4,1.4,0.6
		c0.5,0.2,1.1,0.3,1.6,0.5c0.7,0.2,1.4,0.4,2.1,0.6c0.7,0.2,1.4,0.5,2,1c0.6,0.4,1.1,1,1.5,1.6c0.4,0.7,0.6,1.5,0.6,2.6
		c0,1.9-0.6,3.4-1.8,4.4c-1.2,1.1-3.1,1.6-5.6,1.6c-1.7,0-3.1-0.2-4.4-0.6c-1.2-0.4-2.1-0.8-2.7-1.2L1125.4,26.7z"/>
	<path class="st0" d="M1154.1,28.7c-0.7,0.6-1.6,1.1-2.5,1.6s-2.1,0.7-3.5,0.7c-1.9,0-3.4-0.5-4.5-1.5c-1.1-1-1.7-2.6-1.7-4.7
		c0-1.1,0.2-2.1,0.6-2.8s0.9-1.4,1.7-1.9s1.6-0.9,2.6-1.1c1-0.2,2.1-0.3,3.3-0.3h3.3v-1c0-1.6-0.2-2.7-0.7-3.4c-0.5-0.7-1.4-1-2.8-1
		c-1.8,0-3.7,0.4-5.6,1.1l-0.9-2.4c0.7-0.3,1.7-0.6,2.8-0.9c1.1-0.3,2.5-0.5,4.1-0.5c1.5,0,2.7,0.2,3.5,0.6c0.9,0.4,1.5,1,2,1.7
		c0.4,0.7,0.7,1.5,0.9,2.5s0.2,2,0.2,3.1v8.2l1.6,2.4l-2.5,1.9L1154.1,28.7z M1153.4,21h-3c-1.7,0-3,0.3-3.7,0.8
		c-0.7,0.5-1.1,1.5-1.1,2.8c0,1.2,0.3,2.2,0.8,2.8c0.5,0.6,1.3,0.9,2.4,0.9c1.1,0,2.1-0.2,2.9-0.6c0.8-0.4,1.4-0.8,1.8-1.3V21z"/>
	<path class="st0" d="M1164.6,30.9c-0.8,0-1.4-0.2-1.8-0.7s-0.6-1.1-0.6-1.9c0-0.8,0.2-1.4,0.6-1.9c0.4-0.5,1-0.7,1.8-0.7
		c0.8,0,1.4,0.2,1.8,0.7c0.4,0.5,0.6,1.1,0.6,1.9c0,0.8-0.2,1.4-0.6,1.9S1165.4,30.9,1164.6,30.9z"/>
</g>
</svg>
