<?xml version="1.0" encoding="utf-8"?>
<!-- Generator: Adobe Illustrator 19.2.1, SVG Export Plug-In . SVG Version: 6.00 Build 0)  -->
<!DOCTYPE svg PUBLIC "-//W3C//DTD SVG 1.1//EN" "http://www.w3.org/Graphics/SVG/1.1/DTD/svg11.dtd">
<svg version="1.1" id="Layer_1" xmlns="http://www.w3.org/2000/svg" xmlns:xlink="http://www.w3.org/1999/xlink" x="0px" y="0px"
	 viewBox="0 0 410.8 36.8" style="enable-background:new 0 0 410.8 36.8;" xml:space="preserve">
<style type="text/css">
	.st0{fill:#616161;}
</style>
<g>
	<path class="st0" d="M0,2.7h7.5c1.2,0,2.3,0.1,3.4,0.3c1.1,0.2,2,0.6,2.8,1.1s1.4,1.3,1.9,2.2c0.5,0.9,0.7,2.1,0.7,3.6
		c0,0.9-0.2,1.8-0.5,2.6c-0.3,0.8-0.7,1.5-1.3,2.1c-0.5,0.6-1.1,1.1-1.8,1.5c-0.7,0.4-1.4,0.7-2.1,0.8c0.4,0.2,0.8,0.6,1.1,1
		s0.7,0.9,1,1.3l5.5,9.2l-3.7,0.8l-5.4-9.1c-0.3-0.5-0.6-0.9-0.8-1.2c-0.3-0.3-0.6-0.6-0.9-0.8c-0.3-0.2-0.7-0.3-1.1-0.4
		c-0.4-0.1-0.9-0.1-1.5-0.1H3.5v11.1H0V2.7z M7.1,14.8c1.7,0,3.1-0.4,4.1-1.1c1-0.7,1.6-2,1.6-3.6c0-1-0.1-1.8-0.4-2.5
		s-0.7-1.1-1.2-1.5S10,5.6,9.3,5.5C8.6,5.4,7.8,5.3,7,5.3H3.5v9.5H7.1z"/>
	<path class="st0" d="M28.6,29.3c-1.5,0-2.8-0.2-3.9-0.7c-1-0.5-1.9-1.2-2.5-2s-1.1-1.9-1.3-3.1c-0.3-1.2-0.4-2.5-0.4-3.9
		c0-1.4,0.2-2.7,0.5-3.9c0.3-1.2,0.8-2.2,1.5-3.1c0.7-0.9,1.5-1.5,2.6-2c1-0.5,2.2-0.7,3.6-0.7c1.4,0,2.7,0.2,3.7,0.7
		c1,0.5,1.9,1.1,2.5,2s1.1,1.9,1.5,3.1c0.3,1.2,0.5,2.5,0.5,3.9c0,1.4-0.2,2.7-0.5,3.9c-0.3,1.2-0.8,2.2-1.5,3.1
		c-0.7,0.9-1.5,1.5-2.6,2C31.4,29.1,30.1,29.3,28.6,29.3z M28.7,26.9c1.7,0,2.9-0.6,3.7-1.9s1.1-3.1,1.1-5.4c0-2.3-0.4-4-1.1-5.3
		c-0.7-1.2-1.9-1.9-3.7-1.9c-1.8,0-3,0.6-3.7,1.8c-0.7,1.2-1.1,3-1.1,5.4c0,1.1,0.1,2.1,0.3,3s0.4,1.7,0.8,2.3s0.9,1.1,1.5,1.4
		C27.1,26.8,27.9,26.9,28.7,26.9z"/>
	<path class="st0" d="M36,33.6c0.5,0.2,0.9,0.3,1.4,0.5c0.5,0.2,1.1,0.2,1.7,0.2c0.7,0,1.2-0.2,1.6-0.5c0.4-0.3,0.7-0.7,0.9-1.2
		c0.2-0.5,0.3-1,0.4-1.6c0-0.6,0.1-1.1,0.1-1.7V10.6h3.3v19.4c0,0.8-0.1,1.7-0.3,2.5c-0.2,0.8-0.5,1.5-1,2.1s-1.1,1.1-1.8,1.5
		c-0.8,0.4-1.7,0.6-2.9,0.6c-0.6,0-1.3-0.1-2.1-0.3c-0.8-0.2-1.5-0.4-2.1-0.7L36,33.6z M43.6,7.2c-0.7,0-1.3-0.2-1.7-0.7
		c-0.4-0.5-0.6-1-0.6-1.7s0.2-1.2,0.6-1.7c0.4-0.5,0.9-0.7,1.7-0.7c0.7,0,1.3,0.2,1.7,0.7s0.6,1,0.6,1.7S45.6,6,45.3,6.5
		S44.3,7.2,43.6,7.2z"/>
	<path class="st0" d="M58.3,29.3c-1.5,0-2.8-0.2-3.9-0.7c-1-0.5-1.9-1.2-2.5-2s-1.1-1.9-1.3-3.1c-0.3-1.2-0.4-2.5-0.4-3.9
		c0-1.4,0.2-2.7,0.5-3.9c0.3-1.2,0.8-2.2,1.5-3.1c0.7-0.9,1.5-1.5,2.6-2c1-0.5,2.2-0.7,3.6-0.7c1.4,0,2.7,0.2,3.7,0.7
		c1,0.5,1.9,1.1,2.5,2s1.1,1.9,1.5,3.1c0.3,1.2,0.5,2.5,0.5,3.9c0,1.4-0.2,2.7-0.5,3.9c-0.3,1.2-0.8,2.2-1.5,3.1
		c-0.7,0.9-1.5,1.5-2.6,2C61.1,29.1,59.8,29.3,58.3,29.3z M58.4,26.9c1.7,0,2.9-0.6,3.7-1.9s1.1-3.1,1.1-5.4c0-2.3-0.4-4-1.1-5.3
		c-0.7-1.2-1.9-1.9-3.7-1.9c-1.8,0-3,0.6-3.7,1.8c-0.7,1.2-1.1,3-1.1,5.4c0,1.1,0.1,2.1,0.3,3s0.4,1.7,0.8,2.3s0.9,1.1,1.5,1.4
		C56.8,26.8,57.6,26.9,58.4,26.9z"/>
	<path class="st0" d="M88.6,29.3c-1.9,0-3.5-0.3-4.9-1s-2.5-1.5-3.4-2.7s-1.5-2.6-2-4.3c-0.4-1.7-0.6-3.5-0.6-5.6
		c0-2,0.2-3.8,0.7-5.5c0.4-1.7,1.1-3.1,2-4.3c0.9-1.2,2-2.1,3.4-2.8c1.4-0.7,2.9-1,4.8-1c1.9,0,3.5,0.3,4.9,1
		c1.4,0.6,2.5,1.6,3.4,2.8c0.9,1.2,1.5,2.6,2,4.3c0.4,1.7,0.6,3.5,0.6,5.6c0,2-0.2,3.8-0.7,5.5c-0.4,1.7-1.1,3.1-2,4.3
		c-0.9,1.2-2,2.1-3.4,2.8C92,29,90.4,29.3,88.6,29.3z M88.6,26.6c1.4,0,2.5-0.3,3.4-0.9c0.9-0.6,1.6-1.4,2.2-2.3
		c0.5-1,0.9-2.1,1.1-3.5c0.2-1.3,0.3-2.7,0.3-4.2c0-1.4-0.1-2.8-0.4-4.1c-0.2-1.3-0.6-2.5-1.2-3.5c-0.5-1-1.3-1.8-2.2-2.4
		c-0.9-0.6-2-0.9-3.3-0.9c-1.4,0-2.5,0.3-3.4,0.9C84.3,6.3,83.5,7.1,83,8c-0.5,1-0.9,2.2-1.1,3.5c-0.2,1.3-0.3,2.7-0.3,4.2
		c0,1.4,0.1,2.8,0.3,4.1c0.2,1.3,0.6,2.5,1.2,3.4c0.6,1,1.3,1.8,2.2,2.4C86.1,26.3,87.2,26.6,88.6,26.6z"/>
	<path class="st0" d="M103.7,25.3c0.6,0.3,1.3,0.6,2.2,1s2,0.5,3.3,0.5c1.3,0,2.3-0.2,3-0.6c0.7-0.4,1.1-1.1,1.1-2.1
		c0-0.6-0.1-1-0.4-1.3c-0.2-0.3-0.6-0.6-1-0.9c-0.4-0.2-0.9-0.4-1.4-0.6c-0.5-0.1-1.1-0.3-1.7-0.5c-0.7-0.2-1.3-0.4-2-0.6
		c-0.7-0.2-1.2-0.6-1.8-0.9c-0.5-0.4-0.9-0.9-1.3-1.5c-0.3-0.6-0.5-1.4-0.5-2.3c0-0.8,0.1-1.5,0.4-2.2c0.3-0.7,0.7-1.3,1.3-1.7
		c0.6-0.5,1.3-0.9,2.1-1.2s1.9-0.4,3-0.4c1.2,0,2.2,0.1,3.2,0.4c1,0.3,1.8,0.6,2.5,1l-1,2.2c-1.5-0.8-3.1-1.2-4.8-1.2
		c-1.2,0-2.1,0.2-2.8,0.6c-0.7,0.4-1,1.1-1,2c0,0.5,0.1,1,0.3,1.3c0.2,0.3,0.5,0.6,0.9,0.8c0.4,0.2,0.8,0.4,1.3,0.6
		c0.5,0.2,1,0.3,1.5,0.5c0.6,0.2,1.3,0.4,2,0.6c0.7,0.2,1.3,0.5,1.9,0.9c0.6,0.4,1,0.9,1.4,1.5c0.4,0.6,0.6,1.4,0.6,2.4
		c0,1.8-0.6,3.2-1.7,4.2s-2.9,1.5-5.3,1.5c-1.6,0-3-0.2-4.1-0.6c-1.2-0.4-2-0.8-2.6-1.2L103.7,25.3z"/>
	<path class="st0" d="M134.2,27.9c-0.6,0.4-1.5,0.7-2.4,1c-1,0.3-2.1,0.5-3.4,0.5c-1.6,0-3-0.2-4.1-0.7c-1.1-0.5-1.9-1.1-2.6-1.9
		c-0.6-0.8-1.1-1.8-1.4-3c-0.3-1.2-0.4-2.5-0.4-3.9c0-1.4,0.2-2.7,0.5-3.9c0.3-1.2,0.9-2.2,1.6-3.1s1.6-1.6,2.7-2.1
		c1.1-0.5,2.4-0.7,3.9-0.7c1.1,0,2.1,0.1,3,0.4s1.7,0.6,2.4,1l-1,2.2c-0.6-0.3-1.3-0.6-2.1-0.8c-0.7-0.2-1.5-0.3-2.4-0.3
		c-1.8,0-3.1,0.6-3.9,1.8s-1.2,3.1-1.2,5.5c0,1.1,0.1,2,0.3,2.9c0.2,0.9,0.5,1.6,0.9,2.2c0.4,0.6,0.9,1.1,1.6,1.4
		c0.7,0.3,1.5,0.5,2.5,0.5c0.8,0,1.5-0.1,2.2-0.2c0.7-0.1,1.4-0.4,2.4-0.9L134.2,27.9z"/>
	<path class="st0" d="M137.4,10.6h3.3v11.7c0,1.4,0.3,2.5,0.8,3.3c0.5,0.8,1.4,1.2,2.7,1.2c1.1,0,1.9-0.2,2.6-0.5s1.3-0.8,1.9-1.3
		V10.6h3.3v14.6l1.5,2.2l-2.4,1.8l-1.7-2c-1,0.7-1.9,1.3-2.8,1.6s-1.9,0.5-3,0.5c-1.3,0-2.4-0.2-3.2-0.6c-0.8-0.4-1.5-0.9-1.9-1.5
		s-0.8-1.4-0.9-2.2c-0.2-0.9-0.3-1.7-0.3-2.7V10.6z"/>
	<path class="st0" d="M158.2,13H156v-2.4h4.6l0.6,2.3c0.3-0.3,0.6-0.7,1-1c0.3-0.3,0.7-0.6,1.1-0.8c0.4-0.2,0.9-0.4,1.4-0.5
		c0.5-0.1,1.1-0.2,1.8-0.2c0.9,0,1.6,0.1,2.3,0.3l-0.9,3c-0.3-0.1-0.6-0.2-1-0.3c-0.4,0-0.7-0.1-1-0.1c-1.8,0-3.2,0.6-4.2,1.8v13.4
		h-3.3V13z"/>
	<path class="st0" d="M178.3,29.3c-1.5,0-2.8-0.2-3.9-0.7c-1-0.5-1.9-1.2-2.5-2s-1.1-1.9-1.3-3.1c-0.3-1.2-0.4-2.5-0.4-3.9
		c0-1.4,0.2-2.7,0.5-3.9c0.3-1.2,0.8-2.2,1.5-3.1c0.7-0.9,1.5-1.5,2.6-2c1-0.5,2.2-0.7,3.6-0.7c1.4,0,2.7,0.2,3.7,0.7
		c1,0.5,1.9,1.1,2.5,2s1.1,1.9,1.5,3.1c0.3,1.2,0.5,2.5,0.5,3.9c0,1.4-0.2,2.7-0.5,3.9c-0.3,1.2-0.8,2.2-1.5,3.1
		c-0.7,0.9-1.5,1.5-2.6,2C181.1,29.1,179.8,29.3,178.3,29.3z M178.4,26.9c1.7,0,2.9-0.6,3.7-1.9s1.1-3.1,1.1-5.4
		c0-2.3-0.4-4-1.1-5.3c-0.7-1.2-1.9-1.9-3.7-1.9c-1.8,0-3,0.6-3.7,1.8c-0.7,1.2-1.1,3-1.1,5.4c0,1.1,0.1,2.1,0.3,3s0.4,1.7,0.8,2.3
		s0.9,1.1,1.5,1.4C176.8,26.8,177.5,26.9,178.4,26.9z"/>
	<path class="st0" d="M199.4,2.7h3.6l6.1,13.4c0.2,0.4,0.3,0.7,0.5,0.8c0.1,0.1,0.3,0.2,0.5,0.2c0.2,0,0.3-0.1,0.5-0.2
		c0.1-0.2,0.3-0.4,0.5-0.8l6.5-13.4h3.4l1.3,26h-3.5L217.8,9l-4.2,8.6c-0.2,0.4-0.4,0.8-0.6,1.2c-0.2,0.3-0.4,0.6-0.7,0.9
		c-0.3,0.3-0.6,0.4-0.9,0.6c-0.4,0.1-0.8,0.2-1.4,0.2c-0.6,0-1.1-0.1-1.4-0.2c-0.4-0.1-0.7-0.3-1-0.6s-0.5-0.5-0.7-0.9
		c-0.2-0.4-0.4-0.8-0.6-1.3l-4-8.7l-0.8,19.8h-3.4L199.4,2.7z"/>
	<path class="st0" d="M228.2,13h-2.3v-2.4h5.7v18h-3.3V13z M229.5,7.3c-0.7,0-1.2-0.2-1.6-0.7c-0.4-0.5-0.6-1-0.6-1.7
		s0.2-1.3,0.6-1.7c0.4-0.5,0.9-0.7,1.6-0.7c0.7,0,1.3,0.2,1.7,0.7c0.4,0.5,0.6,1,0.6,1.7s-0.2,1.3-0.6,1.7
		C230.8,7,230.3,7.3,229.5,7.3z"/>
	<path class="st0" d="M250.7,27.9c-0.6,0.4-1.5,0.7-2.4,1c-1,0.3-2.1,0.5-3.4,0.5c-1.6,0-3-0.2-4.1-0.7c-1.1-0.5-1.9-1.1-2.6-1.9
		c-0.6-0.8-1.1-1.8-1.4-3c-0.3-1.2-0.4-2.5-0.4-3.9c0-1.4,0.2-2.7,0.5-3.9c0.3-1.2,0.9-2.2,1.6-3.1s1.6-1.6,2.7-2.1
		c1.1-0.5,2.4-0.7,3.9-0.7c1.1,0,2.1,0.1,3,0.4s1.7,0.6,2.4,1l-1,2.2c-0.6-0.3-1.3-0.6-2.1-0.8c-0.7-0.2-1.5-0.3-2.4-0.3
		c-1.8,0-3.1,0.6-3.9,1.8s-1.2,3.1-1.2,5.5c0,1.1,0.1,2,0.3,2.9c0.2,0.9,0.5,1.6,0.9,2.2c0.4,0.6,0.9,1.1,1.6,1.4
		c0.7,0.3,1.5,0.5,2.5,0.5c0.8,0,1.5-0.1,2.2-0.2c0.7-0.1,1.4-0.4,2.4-0.9L250.7,27.9z"/>
	<path class="st0" d="M264.6,27.2c-0.7,0.6-1.5,1-2.3,1.5c-0.9,0.4-2,0.6-3.3,0.6c-1.8,0-3.2-0.5-4.3-1.4c-1.1-0.9-1.6-2.4-1.6-4.4
		c0-1.1,0.2-2,0.6-2.7c0.4-0.7,0.9-1.3,1.6-1.8s1.5-0.8,2.4-1c0.9-0.2,2-0.3,3.1-0.3h3.1v-0.9c0-1.5-0.2-2.6-0.7-3.3
		c-0.5-0.7-1.4-1-2.7-1c-1.7,0-3.5,0.4-5.3,1.1l-0.8-2.2c0.7-0.3,1.6-0.6,2.7-0.9s2.4-0.5,3.9-0.5c1.4,0,2.5,0.2,3.3,0.6
		c0.8,0.4,1.4,0.9,1.9,1.6c0.4,0.7,0.7,1.5,0.8,2.4c0.1,0.9,0.2,1.9,0.2,2.9v7.7l1.5,2.3l-2.3,1.8L264.6,27.2z M263.8,19.9h-2.9
		c-1.7,0-2.8,0.3-3.5,0.8c-0.7,0.5-1,1.4-1,2.7c0,1.2,0.3,2,0.8,2.6c0.5,0.6,1.3,0.8,2.2,0.8c1.1,0,2-0.2,2.7-0.6
		c0.8-0.4,1.3-0.8,1.7-1.2V19.9z"/>
	<path class="st0" d="M280.8,2.7h3.6l6.1,13.4c0.2,0.4,0.3,0.7,0.5,0.8c0.1,0.1,0.3,0.2,0.5,0.2c0.2,0,0.3-0.1,0.5-0.2
		c0.1-0.2,0.3-0.4,0.5-0.8l6.5-13.4h3.4l1.3,26h-3.5L299.1,9l-4.2,8.6c-0.2,0.4-0.4,0.8-0.6,1.2c-0.2,0.3-0.4,0.6-0.7,0.9
		c-0.3,0.3-0.6,0.4-0.9,0.6c-0.4,0.1-0.8,0.2-1.4,0.2c-0.6,0-1.1-0.1-1.4-0.2c-0.4-0.1-0.7-0.3-1-0.6s-0.5-0.5-0.7-0.9
		c-0.2-0.4-0.4-0.8-0.6-1.3l-4-8.7l-0.8,19.8h-3.4L280.8,2.7z"/>
	<path class="st0" d="M322.6,27.9c-0.6,0.3-1.4,0.7-2.5,1s-2.2,0.5-3.4,0.5c-1.7,0-3-0.2-4.1-0.7c-1.1-0.5-2-1.1-2.6-2
		s-1.1-1.9-1.4-3c-0.3-1.2-0.4-2.5-0.4-3.9c0-1.3,0.2-2.6,0.5-3.7c0.3-1.2,0.8-2.2,1.4-3.1c0.6-0.9,1.5-1.6,2.5-2.1
		c1-0.5,2.2-0.8,3.6-0.8c1.3,0,2.5,0.3,3.4,0.8c0.9,0.6,1.7,1.3,2.2,2.1s1,1.9,1.2,3c0.3,1.1,0.4,2.2,0.4,3.3l-1.2,1.3h-10.7
		c0.1,2.1,0.6,3.7,1.4,4.7c0.8,1,2.1,1.5,3.9,1.5c0.9,0,1.8-0.1,2.6-0.3c0.8-0.2,1.6-0.5,2.3-0.8L322.6,27.9z M319.9,18.2
		c0-1.9-0.3-3.4-1-4.4c-0.7-1-1.7-1.5-3.1-1.5c-1.5,0-2.5,0.5-3.2,1.5s-1,2.5-1.1,4.3H319.9z"/>
	<path class="st0" d="M329,13.1h-3.3v-2.4h3.4V5.3h3.2v5.4h5.3v2.4h-5.3v10.4c0,0.7,0.1,1.3,0.2,1.7s0.3,0.7,0.5,1
		c0.2,0.2,0.5,0.4,0.8,0.5c0.3,0.1,0.7,0.1,1,0.1c0.4,0,0.8,0,1.3-0.1s1-0.2,1.4-0.4l0.7,2.2c-0.4,0.2-1,0.4-1.7,0.6
		c-0.7,0.2-1.5,0.3-2.3,0.3c-0.8,0-1.6-0.1-2.2-0.3s-1.2-0.5-1.7-0.8c-0.5-0.4-0.8-0.9-1.1-1.6c-0.3-0.7-0.4-1.5-0.4-2.6V13.1z"/>
	<path class="st0" d="M352,27.2c-0.7,0.6-1.5,1-2.3,1.5c-0.9,0.4-2,0.6-3.3,0.6c-1.8,0-3.2-0.5-4.3-1.4c-1.1-0.9-1.6-2.4-1.6-4.4
		c0-1.1,0.2-2,0.6-2.7c0.4-0.7,0.9-1.3,1.6-1.8s1.5-0.8,2.4-1c0.9-0.2,2-0.3,3.1-0.3h3.1v-0.9c0-1.5-0.2-2.6-0.7-3.3
		c-0.5-0.7-1.4-1-2.7-1c-1.7,0-3.5,0.4-5.3,1.1l-0.8-2.2c0.7-0.3,1.6-0.6,2.7-0.9s2.4-0.5,3.9-0.5c1.4,0,2.5,0.2,3.3,0.6
		c0.8,0.4,1.4,0.9,1.9,1.6c0.4,0.7,0.7,1.5,0.8,2.4c0.1,0.9,0.2,1.9,0.2,2.9v7.7l1.5,2.3l-2.3,1.8L352,27.2z M351.2,19.9h-2.9
		c-1.7,0-2.8,0.3-3.5,0.8c-0.7,0.5-1,1.4-1,2.7c0,1.2,0.3,2,0.8,2.6c0.5,0.6,1.3,0.8,2.2,0.8c1.1,0,2-0.2,2.7-0.6
		c0.8-0.4,1.3-0.8,1.7-1.2V19.9z M349.9,0l2.6,1.8l-5.1,5.9l-1.7-1.2L349.9,0z"/>
	<path class="st0" d="M360.2,4.6H358V2.2h5.6v26.5h-3.3V4.6z"/>
	<path class="st0" d="M369.5,13h-2.3v-2.4h5.7v18h-3.3V13z M370.8,7.3c-0.7,0-1.2-0.2-1.6-0.7c-0.4-0.5-0.6-1-0.6-1.7
		s0.2-1.3,0.6-1.7c0.4-0.5,0.9-0.7,1.6-0.7c0.7,0,1.3,0.2,1.7,0.7c0.4,0.5,0.6,1,0.6,1.7s-0.2,1.3-0.6,1.7
		C372.1,7,371.5,7.3,370.8,7.3z"/>
	<path class="st0" d="M392,27.9c-0.6,0.4-1.5,0.7-2.4,1c-1,0.3-2.1,0.5-3.4,0.5c-1.6,0-3-0.2-4.1-0.7c-1.1-0.5-1.9-1.1-2.6-1.9
		c-0.6-0.8-1.1-1.8-1.4-3c-0.3-1.2-0.4-2.5-0.4-3.9c0-1.4,0.2-2.7,0.5-3.9c0.3-1.2,0.9-2.2,1.6-3.1s1.6-1.6,2.7-2.1
		c1.1-0.5,2.4-0.7,3.9-0.7c1.1,0,2.1,0.1,3,0.4s1.7,0.6,2.4,1l-1,2.2c-0.6-0.3-1.3-0.6-2.1-0.8c-0.7-0.2-1.5-0.3-2.4-0.3
		c-1.8,0-3.1,0.6-3.9,1.8s-1.2,3.1-1.2,5.5c0,1.1,0.1,2,0.3,2.9c0.2,0.9,0.5,1.6,0.9,2.2c0.4,0.6,0.9,1.1,1.6,1.4
		c0.7,0.3,1.5,0.5,2.5,0.5c0.8,0,1.5-0.1,2.2-0.2c0.7-0.1,1.4-0.4,2.4-0.9L392,27.9z"/>
	<path class="st0" d="M402.5,29.3c-1.5,0-2.8-0.2-3.9-0.7c-1-0.5-1.9-1.2-2.5-2s-1.1-1.9-1.3-3.1c-0.3-1.2-0.4-2.5-0.4-3.9
		c0-1.4,0.2-2.7,0.5-3.9c0.3-1.2,0.8-2.2,1.5-3.1c0.7-0.9,1.5-1.5,2.6-2c1-0.5,2.2-0.7,3.6-0.7c1.4,0,2.7,0.2,3.7,0.7
		c1,0.5,1.9,1.1,2.5,2s1.1,1.9,1.5,3.1c0.3,1.2,0.5,2.5,0.5,3.9c0,1.4-0.2,2.7-0.5,3.9c-0.3,1.2-0.8,2.2-1.5,3.1
		c-0.7,0.9-1.5,1.5-2.6,2C405.2,29.1,404,29.3,402.5,29.3z M402.6,26.9c1.7,0,2.9-0.6,3.7-1.9s1.1-3.1,1.1-5.4c0-2.3-0.4-4-1.1-5.3
		c-0.7-1.2-1.9-1.9-3.7-1.9c-1.8,0-3,0.6-3.7,1.8c-0.7,1.2-1.1,3-1.1,5.4c0,1.1,0.1,2.1,0.3,3s0.4,1.7,0.8,2.3s0.9,1.1,1.5,1.4
		C401,26.8,401.7,26.9,402.6,26.9z"/>
</g>
</svg>
