<?xml version="1.0" encoding="utf-8"?>
<!-- Generator: Adobe Illustrator 19.2.1, SVG Export Plug-In . SVG Version: 6.00 Build 0)  -->
<!DOCTYPE svg PUBLIC "-//W3C//DTD SVG 1.1//EN" "http://www.w3.org/Graphics/SVG/1.1/DTD/svg11.dtd">
<svg version="1.1" id="Layer_1" xmlns="http://www.w3.org/2000/svg" xmlns:xlink="http://www.w3.org/1999/xlink" x="0px" y="0px"
	 viewBox="0 0 66.6 34.3" style="enable-background:new 0 0 66.6 34.3;" xml:space="preserve">
<style type="text/css">
	.st0{fill:#616161;}
</style>
<g>
	<path class="st0" d="M0,0.3h7.5c1.2,0,2.3,0.1,3.4,0.3c1.1,0.2,2,0.6,2.8,1.1s1.4,1.3,1.9,2.2C16,4.9,16.3,6,16.3,7.5
		c0,0.9-0.2,1.8-0.5,2.6c-0.3,0.8-0.7,1.5-1.3,2.1c-0.5,0.6-1.1,1.1-1.8,1.5c-0.7,0.4-1.4,0.7-2.1,0.8c0.4,0.2,0.8,0.6,1.1,1
		s0.7,0.9,1,1.3l5.5,9.2l-3.7,0.8l-5.4-9.1c-0.3-0.5-0.6-0.9-0.8-1.2c-0.3-0.3-0.6-0.6-0.9-0.8c-0.3-0.2-0.7-0.3-1.1-0.4
		c-0.4-0.1-0.9-0.1-1.5-0.1H3.5v11.1H0V0.3z M7.1,12.4c1.7,0,3.1-0.4,4.1-1.1c1-0.7,1.6-2,1.6-3.6c0-1-0.1-1.8-0.4-2.5
		S11.6,4,11.1,3.7S10,3.1,9.3,3C8.6,2.9,7.8,2.8,7,2.8H3.5v9.5H7.1z"/>
	<path class="st0" d="M28.6,26.9c-1.5,0-2.8-0.2-3.9-0.7c-1-0.5-1.9-1.2-2.5-2s-1.1-1.9-1.3-3.1c-0.3-1.2-0.4-2.5-0.4-3.9
		c0-1.4,0.2-2.7,0.5-3.9c0.3-1.2,0.8-2.2,1.5-3.1c0.7-0.9,1.5-1.5,2.6-2c1-0.5,2.2-0.7,3.6-0.7c1.4,0,2.7,0.2,3.7,0.7
		c1,0.5,1.9,1.1,2.5,2s1.1,1.9,1.5,3.1c0.3,1.2,0.5,2.5,0.5,3.9c0,1.4-0.2,2.7-0.5,3.9c-0.3,1.2-0.8,2.2-1.5,3.1
		c-0.7,0.9-1.5,1.5-2.6,2C31.4,26.6,30.1,26.9,28.6,26.9z M28.7,24.5c1.7,0,2.9-0.6,3.7-1.9s1.1-3.1,1.1-5.4c0-2.3-0.4-4-1.1-5.3
		c-0.7-1.2-1.9-1.9-3.7-1.9c-1.8,0-3,0.6-3.7,1.8c-0.7,1.2-1.1,3-1.1,5.4c0,1.1,0.1,2.1,0.3,3s0.4,1.7,0.8,2.3s0.9,1.1,1.5,1.4
		C27.1,24.3,27.9,24.5,28.7,24.5z"/>
	<path class="st0" d="M36,31.1c0.5,0.2,0.9,0.3,1.4,0.5c0.5,0.2,1.1,0.2,1.7,0.2c0.7,0,1.2-0.2,1.6-0.5c0.4-0.3,0.7-0.7,0.9-1.2
		c0.2-0.5,0.3-1,0.4-1.6c0-0.6,0.1-1.1,0.1-1.7V8.2h3.3v19.4c0,0.8-0.1,1.7-0.3,2.5c-0.2,0.8-0.5,1.5-1,2.1s-1.1,1.1-1.8,1.5
		c-0.8,0.4-1.7,0.6-2.9,0.6c-0.6,0-1.3-0.1-2.1-0.3c-0.8-0.2-1.5-0.4-2.1-0.7L36,31.1z M43.6,4.7c-0.7,0-1.3-0.2-1.7-0.7
		c-0.4-0.5-0.6-1-0.6-1.7s0.2-1.2,0.6-1.7C42.3,0.2,42.9,0,43.6,0c0.7,0,1.3,0.2,1.7,0.7s0.6,1,0.6,1.7S45.6,3.6,45.3,4
		S44.3,4.7,43.6,4.7z"/>
	<path class="st0" d="M58.3,26.9c-1.5,0-2.8-0.2-3.9-0.7c-1-0.5-1.9-1.2-2.5-2s-1.1-1.9-1.3-3.1c-0.3-1.2-0.4-2.5-0.4-3.9
		c0-1.4,0.2-2.7,0.5-3.9c0.3-1.2,0.8-2.2,1.5-3.1c0.7-0.9,1.5-1.5,2.6-2c1-0.5,2.2-0.7,3.6-0.7c1.4,0,2.7,0.2,3.7,0.7
		c1,0.5,1.9,1.1,2.5,2s1.1,1.9,1.5,3.1c0.3,1.2,0.5,2.5,0.5,3.9c0,1.4-0.2,2.7-0.5,3.9c-0.3,1.2-0.8,2.2-1.5,3.1
		c-0.7,0.9-1.5,1.5-2.6,2C61.1,26.6,59.8,26.9,58.3,26.9z M58.4,24.5c1.7,0,2.9-0.6,3.7-1.9s1.1-3.1,1.1-5.4c0-2.3-0.4-4-1.1-5.3
		c-0.7-1.2-1.9-1.9-3.7-1.9c-1.8,0-3,0.6-3.7,1.8c-0.7,1.2-1.1,3-1.1,5.4c0,1.1,0.1,2.1,0.3,3s0.4,1.7,0.8,2.3s0.9,1.1,1.5,1.4
		C56.8,24.3,57.6,24.5,58.4,24.5z"/>
</g>
</svg>
