<?xml version="1.0" encoding="utf-8"?>
<!-- Generator: Adobe Illustrator 19.2.1, SVG Export Plug-In . SVG Version: 6.00 Build 0)  -->
<!DOCTYPE svg PUBLIC "-//W3C//DTD SVG 1.1//EN" "http://www.w3.org/Graphics/SVG/1.1/DTD/svg11.dtd">
<svg version="1.1" id="Layer_1" xmlns="http://www.w3.org/2000/svg" xmlns:xlink="http://www.w3.org/1999/xlink" x="0px" y="0px"
	 viewBox="0 0 362.5 30.3" style="enable-background:new 0 0 362.5 30.3;" xml:space="preserve">
<style type="text/css">
	.st0{fill:#616161;}
</style>
<g>
	<path class="st0" d="M0,1.5h8c1.2,0,2.4,0.1,3.4,0.4s1.9,0.6,2.7,1.2c0.8,0.5,1.4,1.2,1.8,2.1c0.4,0.9,0.6,1.9,0.6,3.1
		c0,1.1-0.3,2.1-0.9,3.1s-1.5,1.7-2.6,2.3c1.6,0.6,2.7,1.4,3.5,2.5c0.8,1.1,1.2,2.4,1.2,4c0,1.2-0.2,2.3-0.6,3.2
		c-0.4,0.9-1,1.7-1.8,2.3c-0.8,0.6-1.7,1.1-2.7,1.4c-1,0.3-2.2,0.5-3.4,0.5H0V1.5z M8.5,12.8c0.8,0,1.4-0.1,2-0.4
		c0.6-0.2,1-0.6,1.4-1c0.4-0.4,0.6-0.9,0.8-1.4S13,9,13,8.5c0-1.6-0.4-2.7-1.3-3.4c-0.9-0.7-2.3-1-4.2-1H3.5v8.7H8.5z M8.6,24.9
		c1.9,0,3.3-0.4,4.2-1.2c0.9-0.8,1.4-2,1.4-3.7c0-0.9-0.2-1.7-0.5-2.3s-0.8-1.1-1.4-1.4c-0.6-0.3-1.2-0.5-1.9-0.7S9,15.5,8.4,15.5
		H3.5v9.4H8.6z"/>
	<path class="st0" d="M22.2,3.4H20V1h5.6v26.5h-3.3V3.4z"/>
	<path class="st0" d="M41.5,26c-0.7,0.6-1.5,1-2.3,1.5c-0.9,0.4-2,0.6-3.3,0.6c-1.8,0-3.2-0.5-4.3-1.4c-1.1-0.9-1.6-2.4-1.6-4.4
		c0-1.1,0.2-2,0.6-2.7c0.4-0.7,0.9-1.3,1.6-1.8s1.5-0.8,2.4-1c0.9-0.2,2-0.3,3.1-0.3h3.1v-0.9c0-1.5-0.2-2.6-0.7-3.3
		c-0.5-0.7-1.4-1-2.7-1c-1.7,0-3.5,0.4-5.3,1.1l-0.8-2.2c0.7-0.3,1.6-0.6,2.7-0.9s2.4-0.5,3.9-0.5c1.4,0,2.5,0.2,3.3,0.6
		C42,9.8,42.6,10.3,43,11c0.4,0.7,0.7,1.5,0.8,2.4c0.1,0.9,0.2,1.9,0.2,2.9V24l1.5,2.3l-2.3,1.8L41.5,26z M40.8,18.7h-2.9
		c-1.7,0-2.8,0.3-3.5,0.8c-0.7,0.5-1,1.4-1,2.7c0,1.2,0.3,2,0.8,2.6c0.5,0.6,1.3,0.8,2.2,0.8c1.1,0,2-0.2,2.7-0.6
		c0.8-0.4,1.3-0.8,1.7-1.2V18.7z"/>
	<path class="st0" d="M50,13.2l-1.4-3.1l2.7-1.4l1.5,2.4c1.1-0.8,2.1-1.4,3.1-1.8c1-0.4,2-0.5,3.1-0.5c1.2,0,2.2,0.2,3,0.6
		s1.4,0.9,1.9,1.5c0.5,0.6,0.8,1.4,1,2.2c0.2,0.9,0.3,1.7,0.3,2.7v11.7h-3.3V16c0-1.5-0.3-2.6-0.9-3.3c-0.6-0.7-1.5-1-2.8-1
		c-0.9,0-1.8,0.2-2.6,0.5c-0.8,0.3-1.5,0.7-2.1,1.2v14.1H50V13.2z"/>
	<path class="st0" d="M84.1,26.7c-0.6,0.4-1.5,0.7-2.4,1c-1,0.3-2.1,0.5-3.4,0.5c-1.6,0-3-0.2-4.1-0.7c-1.1-0.5-1.9-1.1-2.6-1.9
		c-0.6-0.8-1.1-1.8-1.4-3c-0.3-1.2-0.4-2.5-0.4-3.9c0-1.4,0.2-2.7,0.5-3.9c0.3-1.2,0.9-2.2,1.6-3.1s1.6-1.6,2.7-2.1
		c1.1-0.5,2.4-0.7,3.9-0.7c1.1,0,2.1,0.1,3,0.4s1.7,0.6,2.4,1l-1,2.2c-0.6-0.3-1.3-0.6-2.1-0.8c-0.7-0.2-1.5-0.3-2.4-0.3
		c-1.8,0-3.1,0.6-3.9,1.8s-1.2,3.1-1.2,5.5c0,1.1,0.1,2,0.3,2.9c0.2,0.9,0.5,1.6,0.9,2.2c0.4,0.6,0.9,1.1,1.6,1.4
		c0.7,0.3,1.5,0.5,2.5,0.5c0.8,0,1.5-0.1,2.2-0.2c0.7-0.1,1.4-0.4,2.4-0.9L84.1,26.7z"/>
	<path class="st0" d="M94.5,28.2c-1.5,0-2.8-0.2-3.9-0.7c-1-0.5-1.9-1.2-2.5-2s-1.1-1.9-1.3-3.1c-0.3-1.2-0.4-2.5-0.4-3.9
		c0-1.4,0.2-2.7,0.5-3.9c0.3-1.2,0.8-2.2,1.5-3.1c0.7-0.9,1.5-1.5,2.6-2c1-0.5,2.2-0.7,3.6-0.7c1.4,0,2.7,0.2,3.7,0.7
		c1,0.5,1.9,1.1,2.5,2s1.1,1.9,1.5,3.1c0.3,1.2,0.5,2.5,0.5,3.9c0,1.4-0.2,2.7-0.5,3.9c-0.3,1.2-0.8,2.2-1.5,3.1
		c-0.7,0.9-1.5,1.5-2.6,2C97.3,27.9,96,28.2,94.5,28.2z M94.6,25.8c1.7,0,2.9-0.6,3.7-1.9s1.1-3.1,1.1-5.4c0-2.3-0.4-4-1.1-5.3
		c-0.7-1.2-1.9-1.9-3.7-1.9c-1.8,0-3,0.6-3.7,1.8c-0.7,1.2-1.1,3-1.1,5.4c0,1.1,0.1,2.1,0.3,3s0.4,1.7,0.8,2.3s0.9,1.1,1.5,1.4
		C93,25.6,93.8,25.8,94.6,25.8z"/>
	<path class="st0" d="M124.3,0h3.4l-12,30.3h-3.4L124.3,0z"/>
	<path class="st0" d="M142.6,4.9c0.4-1.2,0.8-2.2,1.4-2.8c0.5-0.7,1.3-1,2.4-1c0.6,0,1.2,0,1.6,0.1c0.4,0.1,0.8,0.3,1.1,0.6
		s0.6,0.7,0.8,1.2c0.2,0.5,0.5,1.1,0.8,1.9l7,22.6l-3.5,0.6l-2.9-8.9h-10.2l-2.7,8.9l-2.9-0.6L142.6,4.9z M150.8,16.5l-3.4-11.3
		c-0.1-0.5-0.3-0.8-0.4-1C146.8,4,146.7,4,146.4,4c-0.3,0-0.5,0.1-0.6,0.3c-0.1,0.2-0.2,0.5-0.4,1l-3.4,11.3H150.8z"/>
	<path class="st0" d="M169.1,11.9H160V9.5h13.2v2.3l-10.1,12.3c-0.1,0.1-0.2,0.3-0.2,0.3s0,0.1,0,0.2c0,0.3,0.2,0.4,0.6,0.4h9.8v2.4
		h-11c-1,0-1.7-0.2-2.2-0.7c-0.5-0.5-0.7-1-0.7-1.7c0-0.5,0.1-0.9,0.2-1.3c0.1-0.4,0.4-0.8,0.8-1.3L169.1,11.9z"/>
	<path class="st0" d="M177,9.5h3.3v11.7c0,1.4,0.3,2.5,0.8,3.3c0.5,0.8,1.4,1.2,2.7,1.2c1.1,0,1.9-0.2,2.6-0.5s1.3-0.8,1.9-1.3V9.5
		h3.3v14.6l1.5,2.2l-2.4,1.8l-1.7-2c-1,0.7-1.9,1.3-2.8,1.6s-1.9,0.5-3,0.5c-1.3,0-2.4-0.2-3.2-0.6c-0.8-0.4-1.5-0.9-1.9-1.5
		s-0.8-1.4-0.9-2.2c-0.2-0.9-0.3-1.7-0.3-2.7V9.5z"/>
	<path class="st0" d="M197.4,3.4h-2.2V1h5.6v26.5h-3.3V3.4z"/>
	<path class="st0" d="M218.2,4.9c0.4-1.2,0.8-2.2,1.4-2.8c0.5-0.7,1.3-1,2.4-1c0.6,0,1.2,0,1.6,0.1c0.4,0.1,0.8,0.3,1.1,0.6
		s0.6,0.7,0.8,1.2c0.2,0.5,0.5,1.1,0.8,1.9l7,22.6l-3.5,0.6l-2.9-8.9h-10.2l-2.7,8.9l-2.9-0.6L218.2,4.9z M226.4,16.5L223,5.2
		c-0.1-0.5-0.3-0.8-0.4-1C222.4,4,222.3,4,222,4c-0.3,0-0.5,0.1-0.6,0.3c-0.1,0.2-0.2,0.5-0.4,1l-3.4,11.3H226.4z"/>
	<path class="st0" d="M236.8,1h3.3v9.8c0.8-0.6,1.7-1.1,2.7-1.5c1-0.4,1.9-0.5,2.9-0.5c1.2,0,2.2,0.2,3,0.6s1.4,0.9,1.9,1.5
		c0.5,0.6,0.8,1.4,1,2.2c0.2,0.9,0.3,1.7,0.3,2.7v11.7h-3.3V16c0-1.5-0.3-2.6-0.9-3.3c-0.6-0.7-1.5-1-2.7-1c-1,0-1.9,0.2-2.6,0.5
		c-0.8,0.3-1.5,0.7-2.1,1.2v14.1h-3.3V1z"/>
	<path class="st0" d="M257.4,9.5h3.3v11.7c0,1.4,0.3,2.5,0.8,3.3c0.5,0.8,1.4,1.2,2.7,1.2c1.1,0,1.9-0.2,2.6-0.5s1.3-0.8,1.9-1.3
		V9.5h3.3v14.6l1.5,2.2l-2.4,1.8l-1.7-2c-1,0.7-1.9,1.3-2.8,1.6s-1.9,0.5-3,0.5c-1.3,0-2.4-0.2-3.2-0.6c-0.8-0.4-1.5-0.9-1.9-1.5
		s-0.8-1.4-0.9-2.2c-0.2-0.9-0.3-1.7-0.3-2.7V9.5z"/>
	<path class="st0" d="M278,13.2l-1.4-3l2.7-1.4l1.5,2.4c1-0.9,1.9-1.5,2.8-1.8s1.8-0.5,2.6-0.5c1.3,0,2.3,0.2,3,0.6
		c0.7,0.4,1.3,1,1.7,1.7c1.1-0.9,2.1-1.6,3.1-1.9c1-0.3,1.9-0.4,2.6-0.4c1.2,0,2.2,0.2,3,0.6c0.8,0.4,1.3,0.9,1.7,1.5
		c0.4,0.6,0.7,1.4,0.8,2.2s0.2,1.7,0.2,2.7v11.7H299V15.8c0-1.4-0.2-2.5-0.6-3.1s-1.2-1-2.4-1c-0.7,0-1.4,0.1-2.1,0.4
		c-0.7,0.3-1.4,0.7-2.1,1.3c0,0.4,0.1,0.8,0.1,1.2s0.1,0.9,0.1,1.3v11.7h-3.3V15.7c0-1.4-0.2-2.4-0.6-3s-1.2-1-2.4-1
		c-0.7,0-1.4,0.1-2.1,0.4c-0.7,0.3-1.4,0.7-2,1.2v14.2H278V13.2z"/>
	<path class="st0" d="M318.3,26c-0.7,0.6-1.5,1-2.3,1.5c-0.9,0.4-2,0.6-3.3,0.6c-1.8,0-3.2-0.5-4.3-1.4c-1.1-0.9-1.6-2.4-1.6-4.4
		c0-1.1,0.2-2,0.6-2.7c0.4-0.7,0.9-1.3,1.6-1.8s1.5-0.8,2.4-1c0.9-0.2,2-0.3,3.1-0.3h3.1v-0.9c0-1.5-0.2-2.6-0.7-3.3
		c-0.5-0.7-1.4-1-2.7-1c-1.7,0-3.5,0.4-5.3,1.1l-0.8-2.2c0.7-0.3,1.6-0.6,2.7-0.9s2.4-0.5,3.9-0.5c1.4,0,2.5,0.2,3.3,0.6
		c0.8,0.4,1.4,0.9,1.9,1.6c0.4,0.7,0.7,1.5,0.8,2.4c0.1,0.9,0.2,1.9,0.2,2.9V24l1.5,2.3l-2.3,1.8L318.3,26z M317.5,18.7h-2.9
		c-1.7,0-2.8,0.3-3.5,0.8c-0.7,0.5-1,1.4-1,2.7c0,1.2,0.3,2,0.8,2.6c0.5,0.6,1.3,0.8,2.2,0.8c1.1,0,2-0.2,2.7-0.6
		c0.8-0.4,1.3-0.8,1.7-1.2V18.7z"/>
	<path class="st0" d="M338.7,26.1c-0.7,0.6-1.5,1-2.4,1.4c-0.9,0.4-1.9,0.6-3.2,0.6c-2.5,0-4.3-0.8-5.6-2.4c-1.2-1.6-1.9-4-1.9-7.3
		c0-1.4,0.2-2.8,0.6-3.9c0.4-1.2,0.9-2.2,1.7-3.1c0.7-0.9,1.6-1.5,2.8-2c1.1-0.5,2.4-0.7,3.8-0.7c0.6,0,1.2,0,1.8,0.1
		c0.6,0.1,1.1,0.2,1.5,0.3V1h3.3v23l1.5,2.3l-2.3,1.8L338.7,26.1z M337.8,11.7c-0.3-0.1-0.8-0.2-1.4-0.3c-0.6-0.1-1.3-0.2-2-0.2
		c-1.8,0-3.1,0.6-4,1.9c-0.9,1.2-1.3,3.1-1.3,5.4c0,2.3,0.3,4,1,5.3c0.7,1.3,1.8,1.9,3.5,1.9c1,0,1.8-0.2,2.4-0.5s1.2-0.7,1.7-1.2
		V11.7z"/>
	<path class="st0" d="M354.3,28.2c-1.5,0-2.8-0.2-3.9-0.7c-1-0.5-1.9-1.2-2.5-2s-1.1-1.9-1.3-3.1c-0.3-1.2-0.4-2.5-0.4-3.9
		c0-1.4,0.2-2.7,0.5-3.9c0.3-1.2,0.8-2.2,1.5-3.1c0.7-0.9,1.5-1.5,2.6-2c1-0.5,2.2-0.7,3.6-0.7c1.4,0,2.7,0.2,3.7,0.7
		c1,0.5,1.9,1.1,2.5,2s1.1,1.9,1.5,3.1c0.3,1.2,0.5,2.5,0.5,3.9c0,1.4-0.2,2.7-0.5,3.9c-0.3,1.2-0.8,2.2-1.5,3.1
		c-0.7,0.9-1.5,1.5-2.6,2C357,27.9,355.8,28.2,354.3,28.2z M354.4,25.8c1.7,0,2.9-0.6,3.7-1.9s1.1-3.1,1.1-5.4c0-2.3-0.4-4-1.1-5.3
		c-0.7-1.2-1.9-1.9-3.7-1.9c-1.8,0-3,0.6-3.7,1.8c-0.7,1.2-1.1,3-1.1,5.4c0,1.1,0.1,2.1,0.3,3s0.4,1.7,0.8,2.3s0.9,1.1,1.5,1.4
		C352.8,25.6,353.5,25.8,354.4,25.8z"/>
</g>
</svg>
