<?xml version="1.0" encoding="utf-8"?>
<!-- Generator: Adobe Illustrator 19.2.1, SVG Export Plug-In . SVG Version: 6.00 Build 0)  -->
<!DOCTYPE svg PUBLIC "-//W3C//DTD SVG 1.1//EN" "http://www.w3.org/Graphics/SVG/1.1/DTD/svg11.dtd">
<svg version="1.1" id="Layer_1" xmlns="http://www.w3.org/2000/svg" xmlns:xlink="http://www.w3.org/1999/xlink" x="0px" y="0px"
	 viewBox="0 0 266.4 34.6" style="enable-background:new 0 0 266.4 34.6;" xml:space="preserve">
<style type="text/css">
	.st0{fill:#616161;}
</style>
<g>
	<path class="st0" d="M0,0.5h8c1.2,0,2.4,0.1,3.4,0.4s1.9,0.6,2.7,1.2c0.8,0.5,1.4,1.2,1.8,2.1c0.4,0.9,0.6,1.9,0.6,3.1
		c0,1.1-0.3,2.1-0.9,3.1s-1.5,1.7-2.6,2.3c1.6,0.6,2.7,1.4,3.5,2.5c0.8,1.1,1.2,2.4,1.2,4c0,1.2-0.2,2.3-0.6,3.2
		c-0.4,0.9-1,1.7-1.8,2.3c-0.8,0.6-1.7,1.1-2.7,1.4c-1,0.3-2.2,0.5-3.4,0.5H0V0.5z M8.5,11.8c0.8,0,1.4-0.1,2-0.4
		c0.6-0.2,1-0.6,1.4-1c0.4-0.4,0.6-0.9,0.8-1.4S13,8,13,7.5c0-1.6-0.4-2.7-1.3-3.4c-0.9-0.7-2.3-1-4.2-1H3.5v8.7H8.5z M8.6,23.9
		c1.9,0,3.3-0.4,4.2-1.2c0.9-0.8,1.4-2,1.4-3.7c0-0.9-0.2-1.7-0.5-2.3s-0.8-1.1-1.4-1.4c-0.6-0.3-1.2-0.5-1.9-0.7S9,14.5,8.4,14.5
		H3.5v9.4H8.6z"/>
	<path class="st0" d="M35.9,25.7c-0.6,0.3-1.4,0.7-2.5,1s-2.2,0.5-3.4,0.5c-1.7,0-3-0.2-4.1-0.7c-1.1-0.5-2-1.1-2.6-2
		s-1.1-1.9-1.4-3c-0.3-1.2-0.4-2.5-0.4-3.9c0-1.3,0.2-2.6,0.5-3.7c0.3-1.2,0.8-2.2,1.4-3.1c0.6-0.9,1.5-1.6,2.5-2.1
		c1-0.5,2.2-0.8,3.6-0.8c1.3,0,2.5,0.3,3.4,0.8c0.9,0.6,1.7,1.3,2.2,2.1s1,1.9,1.2,3c0.3,1.1,0.4,2.2,0.4,3.3l-1.2,1.3H24.8
		c0.1,2.1,0.6,3.7,1.4,4.7c0.8,1,2.1,1.5,3.9,1.5c0.9,0,1.8-0.1,2.6-0.3c0.8-0.2,1.6-0.5,2.3-0.8L35.9,25.7z M33.2,16
		c0-1.9-0.3-3.4-1-4.4c-0.7-1-1.7-1.5-3.1-1.5c-1.5,0-2.5,0.5-3.2,1.5s-1,2.5-1.1,4.3H33.2z"/>
	<path class="st0" d="M41.5,10.8h-2.3V8.5h5.7v18h-3.3V10.8z M42.8,5.1c-0.7,0-1.2-0.2-1.6-0.7c-0.4-0.5-0.6-1-0.6-1.7
		s0.2-1.3,0.6-1.7c0.4-0.5,0.9-0.7,1.6-0.7c0.7,0,1.3,0.2,1.7,0.7c0.4,0.5,0.6,1,0.6,1.7S44.9,4,44.5,4.4
		C44.1,4.9,43.5,5.1,42.8,5.1z"/>
	<path class="st0" d="M51.6,30.9c0.6,0.3,1.4,0.6,2.2,0.9c0.8,0.3,1.8,0.4,2.9,0.4c1.9,0,3.2-0.4,3.9-1.3s1.1-2.2,1.1-4.1v-0.8
		c-0.6,0.3-1.2,0.5-1.9,0.7s-1.4,0.3-2.1,0.3c-2.7,0-4.7-0.8-6-2.2c-1.3-1.5-2-3.9-2-7.1c0-1.3,0.1-2.5,0.4-3.7
		c0.3-1.2,0.7-2.2,1.3-3.1c0.6-0.9,1.4-1.6,2.4-2.1c1-0.5,2.2-0.8,3.6-0.8c0.6,0,1.2,0.1,1.7,0.2c0.5,0.1,1,0.3,1.4,0.5
		c0.4,0.2,0.8,0.4,1.1,0.6c0.3,0.2,0.6,0.4,0.8,0.6l1.4-2.1l2.7,1.4l-1.3,3.1v15.1c0,2.3-0.7,4.1-2,5.4c-1.3,1.3-3.4,1.9-6.1,1.9
		c-1.2,0-2.4-0.1-3.5-0.3c-1.1-0.2-2.1-0.6-2.9-1L51.6,30.9z M61.7,12.1c-0.4-0.4-0.9-0.8-1.5-1.2c-0.6-0.4-1.5-0.6-2.6-0.6
		c-1.4,0-2.5,0.6-3.3,1.7c-0.8,1.2-1.2,3-1.2,5.5c0,2.3,0.4,4,1.1,5.1s2,1.8,3.7,1.8c0.8,0,1.4-0.1,2-0.2c0.6-0.2,1.2-0.4,1.7-0.8
		V12.1z"/>
	<path class="st0" d="M84.6,25.7c-0.6,0.3-1.4,0.7-2.5,1s-2.2,0.5-3.4,0.5c-1.7,0-3-0.2-4.1-0.7c-1.1-0.5-2-1.1-2.6-2
		s-1.1-1.9-1.4-3c-0.3-1.2-0.4-2.5-0.4-3.9c0-1.3,0.2-2.6,0.5-3.7c0.3-1.2,0.8-2.2,1.4-3.1c0.6-0.9,1.5-1.6,2.5-2.1
		c1-0.5,2.2-0.8,3.6-0.8c1.3,0,2.5,0.3,3.4,0.8c0.9,0.6,1.7,1.3,2.2,2.1s1,1.9,1.2,3c0.3,1.1,0.4,2.2,0.4,3.3l-1.2,1.3H73.4
		c0.1,2.1,0.6,3.7,1.4,4.7c0.8,1,2.1,1.5,3.9,1.5c0.9,0,1.8-0.1,2.6-0.3c0.8-0.2,1.6-0.5,2.3-0.8L84.6,25.7z M81.9,16
		c0-1.9-0.3-3.4-1-4.4c-0.7-1-1.7-1.5-3.1-1.5c-1.5,0-2.5,0.5-3.2,1.5s-1,2.5-1.1,4.3H81.9z"/>
	<path class="st0" d="M97.9,0.5h3.6l6.1,13.4c0.2,0.4,0.3,0.7,0.5,0.8c0.1,0.1,0.3,0.2,0.5,0.2c0.2,0,0.3-0.1,0.5-0.2
		c0.1-0.2,0.3-0.4,0.5-0.8L116,0.5h3.4l1.3,26h-3.5l-0.9-19.7l-4.2,8.6c-0.2,0.4-0.4,0.8-0.6,1.2c-0.2,0.3-0.4,0.6-0.7,0.9
		c-0.3,0.3-0.6,0.4-0.9,0.6c-0.4,0.1-0.8,0.2-1.4,0.2c-0.6,0-1.1-0.1-1.4-0.2c-0.4-0.1-0.7-0.3-1-0.6s-0.5-0.5-0.7-0.9
		c-0.2-0.4-0.4-0.8-0.6-1.3l-4-8.7L100,26.5h-3.4L97.9,0.5z"/>
	<path class="st0" d="M139.7,25.7c-0.6,0.3-1.4,0.7-2.5,1s-2.2,0.5-3.4,0.5c-1.7,0-3-0.2-4.1-0.7c-1.1-0.5-2-1.1-2.6-2
		s-1.1-1.9-1.4-3c-0.3-1.2-0.4-2.5-0.4-3.9c0-1.3,0.2-2.6,0.5-3.7c0.3-1.2,0.8-2.2,1.4-3.1c0.6-0.9,1.5-1.6,2.5-2.1
		c1-0.5,2.2-0.8,3.6-0.8c1.3,0,2.5,0.3,3.4,0.8c0.9,0.6,1.7,1.3,2.2,2.1s1,1.9,1.2,3c0.3,1.1,0.4,2.2,0.4,3.3l-1.2,1.3h-10.7
		c0.1,2.1,0.6,3.7,1.4,4.7c0.8,1,2.1,1.5,3.9,1.5c0.9,0,1.8-0.1,2.6-0.3c0.8-0.2,1.6-0.5,2.3-0.8L139.7,25.7z M137,16
		c0-1.9-0.3-3.4-1-4.4c-0.7-1-1.7-1.5-3.1-1.5c-1.5,0-2.5,0.5-3.2,1.5s-1,2.5-1.1,4.3H137z"/>
	<path class="st0" d="M146.2,10.9h-3.3V8.5h3.4V3.1h3.2v5.4h5.3v2.4h-5.3v10.4c0,0.7,0.1,1.3,0.2,1.7s0.3,0.7,0.5,1
		c0.2,0.2,0.5,0.4,0.8,0.5c0.3,0.1,0.7,0.1,1,0.1c0.4,0,0.8,0,1.3-0.1s1-0.2,1.4-0.4l0.7,2.2c-0.4,0.2-1,0.4-1.7,0.6
		c-0.7,0.2-1.5,0.3-2.3,0.3c-0.8,0-1.6-0.1-2.2-0.3s-1.2-0.5-1.7-0.8c-0.5-0.4-0.8-0.9-1.1-1.6c-0.3-0.7-0.4-1.5-0.4-2.6V10.9z"/>
	<path class="st0" d="M169.1,25c-0.7,0.6-1.5,1-2.3,1.5c-0.9,0.4-2,0.6-3.3,0.6c-1.8,0-3.2-0.5-4.3-1.4c-1.1-0.9-1.6-2.4-1.6-4.4
		c0-1.1,0.2-2,0.6-2.7c0.4-0.7,0.9-1.3,1.6-1.8s1.5-0.8,2.4-1c0.9-0.2,2-0.3,3.1-0.3h3.1v-0.9c0-1.5-0.2-2.6-0.7-3.3
		c-0.5-0.7-1.4-1-2.7-1c-1.7,0-3.5,0.4-5.3,1.1l-0.8-2.2c0.7-0.3,1.6-0.6,2.7-0.9s2.4-0.5,3.9-0.5c1.4,0,2.5,0.2,3.3,0.6
		c0.8,0.4,1.4,0.9,1.9,1.6c0.4,0.7,0.7,1.5,0.8,2.4c0.1,0.9,0.2,1.9,0.2,2.9V23l1.5,2.3l-2.3,1.8L169.1,25z M168.4,17.7h-2.9
		c-1.7,0-2.8,0.3-3.5,0.8c-0.7,0.5-1,1.4-1,2.7c0,1.2,0.3,2,0.8,2.6c0.5,0.6,1.3,0.8,2.2,0.8c1.1,0,2-0.2,2.7-0.6
		c0.8-0.4,1.3-0.8,1.7-1.2V17.7z"/>
	<path class="st0" d="M177.4,2.4h-2.2V0h5.6v26.5h-3.3V2.4z"/>
	<path class="st0" d="M186.7,10.8h-2.3V8.5h5.7v18h-3.3V10.8z M188,5.1c-0.7,0-1.2-0.2-1.6-0.7c-0.4-0.5-0.6-1-0.6-1.7
		s0.2-1.3,0.6-1.7c0.4-0.5,0.9-0.7,1.6-0.7c0.7,0,1.3,0.2,1.7,0.7c0.4,0.5,0.6,1,0.6,1.7s-0.2,1.3-0.6,1.7
		C189.3,4.9,188.7,5.1,188,5.1z"/>
	<path class="st0" d="M203.7,10.9h-9.1V8.5h13.2v2.3l-10.1,12.3c-0.1,0.1-0.2,0.3-0.2,0.3s0,0.1,0,0.2c0,0.3,0.2,0.4,0.6,0.4h9.8
		v2.4h-11c-1,0-1.7-0.2-2.2-0.7c-0.5-0.5-0.7-1-0.7-1.7c0-0.5,0.1-0.9,0.2-1.3c0.1-0.4,0.4-0.8,0.8-1.3L203.7,10.9z"/>
	<path class="st0" d="M222.2,25c-0.7,0.6-1.5,1-2.3,1.5c-0.9,0.4-2,0.6-3.3,0.6c-1.8,0-3.2-0.5-4.3-1.4c-1.1-0.9-1.6-2.4-1.6-4.4
		c0-1.1,0.2-2,0.6-2.7c0.4-0.7,0.9-1.3,1.6-1.8s1.5-0.8,2.4-1c0.9-0.2,2-0.3,3.1-0.3h3.1v-0.9c0-1.5-0.2-2.6-0.7-3.3
		c-0.5-0.7-1.4-1-2.7-1c-1.7,0-3.5,0.4-5.3,1.1l-0.8-2.2c0.7-0.3,1.6-0.6,2.7-0.9s2.4-0.5,3.9-0.5c1.4,0,2.5,0.2,3.3,0.6
		c0.8,0.4,1.4,0.9,1.9,1.6c0.4,0.7,0.7,1.5,0.8,2.4c0.1,0.9,0.2,1.9,0.2,2.9V23l1.5,2.3l-2.3,1.8L222.2,25z M221.4,17.7h-2.9
		c-1.7,0-2.8,0.3-3.5,0.8c-0.7,0.5-1,1.4-1,2.7c0,1.2,0.3,2,0.8,2.6c0.5,0.6,1.3,0.8,2.2,0.8c1.1,0,2-0.2,2.7-0.6
		c0.8-0.4,1.3-0.8,1.7-1.2V17.7z"/>
	<path class="st0" d="M242.6,25.1c-0.7,0.6-1.5,1-2.4,1.4c-0.9,0.4-1.9,0.6-3.2,0.6c-2.5,0-4.3-0.8-5.6-2.4c-1.2-1.6-1.9-4-1.9-7.3
		c0-1.4,0.2-2.8,0.6-3.9c0.4-1.2,0.9-2.2,1.7-3.1c0.7-0.9,1.6-1.5,2.8-2c1.1-0.5,2.4-0.7,3.8-0.7c0.6,0,1.2,0,1.8,0.1
		c0.6,0.1,1.1,0.2,1.5,0.3V0h3.3v23l1.5,2.3l-2.3,1.8L242.6,25.1z M241.7,10.7c-0.3-0.1-0.8-0.2-1.4-0.3c-0.6-0.1-1.3-0.2-2-0.2
		c-1.8,0-3.1,0.6-4,1.9c-0.9,1.2-1.3,3.1-1.3,5.4c0,2.3,0.3,4,1,5.3c0.7,1.3,1.8,1.9,3.5,1.9c1,0,1.8-0.2,2.4-0.5s1.2-0.7,1.7-1.2
		V10.7z"/>
	<path class="st0" d="M258.2,27.1c-1.5,0-2.8-0.2-3.9-0.7c-1-0.5-1.9-1.2-2.5-2s-1.1-1.9-1.3-3.1c-0.3-1.2-0.4-2.5-0.4-3.9
		c0-1.4,0.2-2.7,0.5-3.9c0.3-1.2,0.8-2.2,1.5-3.1c0.7-0.9,1.5-1.5,2.6-2c1-0.5,2.2-0.7,3.6-0.7c1.4,0,2.7,0.2,3.7,0.7
		c1,0.5,1.9,1.1,2.5,2s1.1,1.9,1.5,3.1c0.3,1.2,0.5,2.5,0.5,3.9c0,1.4-0.2,2.7-0.5,3.9c-0.3,1.2-0.8,2.2-1.5,3.1
		c-0.7,0.9-1.5,1.5-2.6,2C260.9,26.9,259.6,27.1,258.2,27.1z M258.3,24.8c1.7,0,2.9-0.6,3.7-1.9s1.1-3.1,1.1-5.4
		c0-2.3-0.4-4-1.1-5.3c-0.7-1.2-1.9-1.9-3.7-1.9c-1.8,0-3,0.6-3.7,1.8c-0.7,1.2-1.1,3-1.1,5.4c0,1.1,0.1,2.1,0.3,3s0.4,1.7,0.8,2.3
		s0.9,1.1,1.5,1.4C256.7,24.6,257.4,24.8,258.3,24.8z"/>
</g>
</svg>
