<?xml version="1.0" encoding="utf-8"?>
<!-- Generator: Adobe Illustrator 19.2.1, SVG Export Plug-In . SVG Version: 6.00 Build 0)  -->
<!DOCTYPE svg PUBLIC "-//W3C//DTD SVG 1.1//EN" "http://www.w3.org/Graphics/SVG/1.1/DTD/svg11.dtd">
<svg version="1.1" id="Layer_1" xmlns="http://www.w3.org/2000/svg" xmlns:xlink="http://www.w3.org/1999/xlink" x="0px" y="0px"
	 viewBox="0 0 361.1 35.7" style="enable-background:new 0 0 361.1 35.7;" xml:space="preserve">
<style type="text/css">
	.st0{fill:#EB2030;}
</style>
<g>
	<g>
		<path class="st0" d="M0,29.6v-26h9.8c3.9,0,6.7,1.1,8.5,3.2c1.8,2.1,2.7,5.5,2.7,10c0,4.4-0.9,7.6-2.8,9.7s-4.8,3.1-8.7,3.1H0z
			 M9.2,25.2c1,0,1.8-0.1,2.5-0.4s1.3-0.7,1.8-1.4c0.5-0.6,0.8-1.5,1.1-2.6s0.4-2.5,0.4-4.2c0-1.6-0.1-3-0.3-4.1
			c-0.2-1.1-0.6-2-1-2.7c-0.5-0.7-1-1.2-1.7-1.5C11.2,8.1,10.4,8,9.4,8H5.8v17.2H9.2z"/>
		<path class="st0" d="M31,29.6h-5.5V14.8h-2.3v-3.7H31V29.6z M28,8.7c-1.1,0-1.9-0.3-2.4-0.9s-0.8-1.4-0.8-2.4S25,3.6,25.6,3
			s1.3-1,2.4-1s1.9,0.3,2.4,1s0.8,1.5,0.8,2.4S31,7.2,30.5,7.8S29.1,8.7,28,8.7z"/>
		<path class="st0" d="M44.3,26.2c1,0,1.9-0.1,2.7-0.2c0.8-0.2,1.6-0.4,2.4-0.8l1.6,3.4c-1.1,0.6-2.3,1.1-3.5,1.3
			c-1.2,0.2-2.5,0.3-3.9,0.3c-3.1,0-5.4-0.8-6.8-2.5c-1.4-1.7-2-4.1-2-7.3c0-1.5,0.2-2.8,0.6-4c0.4-1.2,0.9-2.3,1.6-3.1
			c0.7-0.9,1.6-1.6,2.7-2c1.1-0.5,2.4-0.7,3.8-0.7c1.4,0,2.6,0.2,3.6,0.7c1,0.5,1.8,1.1,2.5,2c0.6,0.9,1.1,1.9,1.4,3.2
			c0.3,1.2,0.5,2.7,0.5,4.2L50,22.1h-9.7c0.2,1.5,0.6,2.6,1.3,3.2S43.2,26.2,44.3,26.2z M46.3,18.5c0-2.7-0.9-4.1-2.8-4.1
			c-1,0-1.7,0.3-2.2,0.8c-0.5,0.6-0.9,1.6-1,3.2H46.3z M42.9,8.7l-2.5-1.8L44.7,0l3.7,2.7L42.9,8.7z"/>
		<path class="st0" d="M67,15.4c-0.7-0.4-1.5-0.7-2.3-0.9c-0.8-0.2-1.6-0.4-2.4-0.4c-1,0-1.7,0.2-2.1,0.5c-0.4,0.3-0.6,0.7-0.6,1.2
			c0,0.4,0.1,0.7,0.3,0.9c0.2,0.2,0.4,0.4,0.8,0.6c0.3,0.2,0.7,0.3,1.1,0.5c0.4,0.1,0.9,0.3,1.3,0.4c0.6,0.2,1.3,0.4,2,0.7
			c0.7,0.3,1.3,0.6,1.9,1c0.6,0.4,1,0.9,1.4,1.6c0.3,0.6,0.5,1.4,0.5,2.3c0,0.9-0.1,1.8-0.4,2.5c-0.3,0.8-0.7,1.5-1.3,2
			c-0.6,0.6-1.4,1-2.4,1.3s-2.2,0.5-3.7,0.5s-2.9-0.2-4.2-0.5c-1.3-0.3-2.4-0.8-3.3-1.3l1.7-3.4c0.8,0.4,1.6,0.8,2.6,1.1
			c0.9,0.3,2,0.5,3.1,0.5c0.8,0,1.5-0.1,2-0.3s0.8-0.7,0.8-1.4c0-0.4-0.1-0.7-0.3-0.9c-0.2-0.2-0.5-0.4-0.8-0.6
			c-0.3-0.2-0.8-0.3-1.3-0.4c-0.5-0.1-1.1-0.3-1.7-0.5c-0.6-0.2-1.2-0.4-1.9-0.6c-0.6-0.2-1.2-0.6-1.7-1c-0.5-0.4-0.9-0.9-1.2-1.6
			c-0.3-0.6-0.5-1.4-0.5-2.4c0-2,0.7-3.6,2.1-4.6c1.4-1.1,3.3-1.6,5.6-1.6c1.1,0,2.2,0.1,3.4,0.4c1.1,0.3,2.1,0.7,2.9,1.1L67,15.4z"
			/>
		<path class="st0" d="M81.3,26.2c1,0,1.9-0.1,2.7-0.2c0.8-0.2,1.6-0.4,2.4-0.8l1.6,3.4c-1.1,0.6-2.3,1.1-3.5,1.3
			c-1.2,0.2-2.5,0.3-3.9,0.3c-3.1,0-5.4-0.8-6.8-2.5c-1.4-1.7-2-4.1-2-7.3c0-1.5,0.2-2.8,0.6-4c0.4-1.2,0.9-2.3,1.6-3.1
			c0.7-0.9,1.6-1.6,2.7-2c1.1-0.5,2.4-0.7,3.8-0.7c1.4,0,2.6,0.2,3.6,0.7c1,0.5,1.8,1.1,2.5,2c0.6,0.9,1.1,1.9,1.4,3.2
			c0.3,1.2,0.5,2.7,0.5,4.2L87,22.1h-9.7c0.2,1.5,0.6,2.6,1.3,3.2S80.1,26.2,81.3,26.2z M83.3,18.5c0-2.7-0.9-4.1-2.8-4.1
			c-1,0-1.7,0.3-2.2,0.8c-0.5,0.6-0.9,1.6-1,3.2H83.3z"/>
		<path class="st0" d="M97.7,29.6h-5.5V6.7h-2.3V3.1h7.8V29.6z"/>
		<path class="st0" d="M109.1,6.7c1.2-0.8,2.5-1.6,4.1-2.2c1.5-0.6,3.2-0.9,5.1-0.9c1.6,0,2.9,0.2,4,0.6c1.1,0.4,1.9,0.9,2.5,1.6
			c0.6,0.7,1,1.4,1.3,2.3c0.3,0.9,0.4,1.8,0.4,2.7c0,1.7-0.5,3.2-1.4,4.6c-0.9,1.4-2.1,2.8-3.7,4.2l-4.8,4.5
			c-0.2,0.2-0.4,0.3-0.5,0.5c-0.1,0.1-0.1,0.2-0.1,0.3c0,0.1,0,0.2,0.1,0.3c0,0.1,0.2,0.1,0.4,0.1h10.4v4.3h-14.1
			c-1.1,0-2-0.2-2.6-0.6c-0.6-0.4-1-1.2-1-2.4c0-0.7,0.2-1.4,0.6-2.1c0.4-0.6,1-1.3,1.8-2.1l6.6-6.2c0.6-0.6,1.1-1.1,1.5-1.6
			c0.4-0.5,0.7-0.9,0.9-1.4c0.2-0.4,0.4-0.8,0.5-1.2s0.1-0.8,0.1-1.2c0-1-0.3-1.7-0.9-2.2c-0.6-0.5-1.4-0.7-2.4-0.7
			c-0.8,0-1.8,0.2-3,0.6c-1.2,0.4-2.3,1-3.3,1.7L109.1,6.7z"/>
		<path class="st0" d="M133.7,30.2c-1.1,0-1.9-0.3-2.4-1s-0.8-1.4-0.8-2.4s0.3-1.8,0.8-2.5c0.5-0.7,1.3-1,2.4-1c1.1,0,1.9,0.3,2.5,1
			c0.5,0.7,0.8,1.5,0.8,2.5s-0.3,1.8-0.8,2.4S134.8,30.2,133.7,30.2z"/>
		<path class="st0" d="M143.2,23.7c-1.2,0-2-0.3-2.6-0.9c-0.6-0.6-0.8-1.4-0.8-2.5c0-0.8,0.2-1.5,0.6-2.2c0.4-0.6,0.9-1.3,1.5-2
			l9.9-12.2h4.7v15.8h3v4h-3v5.9h-5.6v-5.9H143.2z M145.4,17.9c-0.2,0.2-0.3,0.4-0.4,0.6c-0.1,0.2-0.1,0.3-0.1,0.5
			c0,0.4,0.1,0.6,0.3,0.6c0.2,0.1,0.5,0.1,1,0.1h4.8v-8.5L145.4,17.9z"/>
		<path class="st0" d="M172,23.7c-1.2,0-2-0.3-2.6-0.9c-0.6-0.6-0.8-1.4-0.8-2.5c0-0.8,0.2-1.5,0.6-2.2c0.4-0.6,0.9-1.3,1.5-2
			l9.9-12.2h4.7v15.8h3v4h-3v5.9h-5.6v-5.9H172z M174.1,17.9c-0.2,0.2-0.3,0.4-0.4,0.6c-0.1,0.2-0.1,0.3-0.1,0.5
			c0,0.4,0.1,0.6,0.3,0.6c0.2,0.1,0.5,0.1,1,0.1h4.8v-8.5L174.1,17.9z"/>
		<path class="st0" d="M198.3,22.8c-0.2,0-0.3,0.1-0.5,0.2c-0.1,0.1-0.3,0.3-0.4,0.6l-3.2,6.4l-4.9-1.1l4.5-8.4l-3.9-8.9l5.2-1
			l2.6,6.2c0.1,0.3,0.2,0.5,0.4,0.6c0.1,0.1,0.3,0.2,0.5,0.2c0.2,0,0.3-0.1,0.5-0.2c0.1-0.1,0.3-0.3,0.4-0.6l2.8-6.1l4.7,1.1
			l-3.9,8.3l4,8.9l-5.3,1.1l-2.6-6.4c-0.1-0.3-0.3-0.5-0.4-0.6C198.6,22.9,198.5,22.8,198.3,22.8z"/>
		<path class="st0" d="M211.9,23.7c-1.2,0-2-0.3-2.6-0.9c-0.6-0.6-0.8-1.4-0.8-2.5c0-0.8,0.2-1.5,0.6-2.2c0.4-0.6,0.9-1.3,1.5-2
			l9.9-12.2h4.7v15.8h3v4h-3v5.9h-5.6v-5.9H211.9z M214.1,17.9c-0.2,0.2-0.3,0.4-0.4,0.6c-0.1,0.2-0.1,0.3-0.1,0.5
			c0,0.4,0.1,0.6,0.3,0.6c0.2,0.1,0.5,0.1,1,0.1h4.8v-8.5L214.1,17.9z"/>
		<path class="st0" d="M250.6,22.6c-1,0-1.8-0.2-2.3-0.6c-0.5-0.4-1-1-1.4-1.9l-3.1-6.7l-0.5,16.1H238l1.3-26h5.5l5.2,12
			c0.1,0.3,0.2,0.5,0.3,0.6s0.2,0.2,0.5,0.2s0.4-0.1,0.5-0.2c0.1-0.1,0.2-0.3,0.3-0.6l5.7-12h5.1l1.3,26H258l-0.5-16.4l-3.3,6.9
			c-0.4,0.8-0.9,1.4-1.4,1.9C252.3,22.4,251.5,22.6,250.6,22.6z"/>
		<path class="st0" d="M285.2,8.1h-7v21.5h-5.8V8.1h-7V3.6h19.8V8.1z"/>
		<path class="st0" d="M295,18.9c0-1.9,0.2-3.7,0.6-5.3c0.4-1.6,1-3.1,1.7-4.5c0.7-1.4,1.6-2.7,2.6-3.8c1-1.2,2-2.2,3.2-3.2l3.3,3.1
			c-1.2,1.1-2.2,2.3-2.9,3.4s-1.3,2.3-1.8,3.5s-0.7,2.3-0.9,3.5c-0.2,1.2-0.2,2.3-0.2,3.4c0,1.1,0.1,2.2,0.2,3.4
			c0.1,1.1,0.4,2.3,0.8,3.4c0.4,1.1,1,2.3,1.8,3.4s1.7,2.3,2.9,3.4l-3.5,3.2c-1.1-1-2.2-2-3.1-3.2s-1.8-2.4-2.5-3.8
			c-0.7-1.4-1.3-2.9-1.7-4.5S295,20.8,295,18.9z"/>
		<path class="st0" d="M327.4,8.1h-7v21.5h-5.8V8.1h-7V3.6h19.8V8.1z"/>
		<path class="st0" d="M345.5,9c-0.9-0.6-1.8-1-2.6-1.2c-0.9-0.2-1.7-0.3-2.5-0.3c-1,0-1.8,0.2-2.5,0.5c-0.7,0.3-1.3,0.9-1.8,1.6
			c-0.5,0.7-0.9,1.7-1.1,2.9s-0.4,2.6-0.4,4.3c0,3.1,0.5,5.4,1.5,6.8c1,1.4,2.5,2.1,4.4,2.1c1,0,1.9-0.1,2.9-0.4
			c0.9-0.3,1.9-0.7,2.9-1.4l2.1,3.8c-1.3,0.9-2.7,1.5-4.1,1.9c-1.4,0.4-2.8,0.6-4.2,0.6c-4,0-6.9-1.1-8.7-3.3
			c-1.8-2.2-2.7-5.6-2.7-10.2c0-4.4,1-7.8,3-10.2c2-2.4,4.9-3.5,8.7-3.5c0.8,0,1.6,0.1,2.3,0.2c0.7,0.1,1.3,0.3,1.9,0.5
			c0.6,0.2,1.2,0.4,1.7,0.7c0.5,0.3,1.1,0.6,1.6,0.9L345.5,9z"/>
		<path class="st0" d="M361.1,18.9c0,1.9-0.2,3.7-0.6,5.3c-0.4,1.6-1,3.1-1.7,4.5c-0.7,1.4-1.5,2.7-2.5,3.8s-2,2.2-3.1,3.2l-3.5-3.2
			c1.2-1.1,2.2-2.2,2.9-3.4s1.3-2.3,1.8-3.4s0.7-2.3,0.8-3.4c0.1-1.1,0.2-2.3,0.2-3.4c0-1.1-0.1-2.2-0.2-3.4
			c-0.2-1.2-0.4-2.3-0.9-3.5s-1-2.3-1.8-3.5s-1.7-2.3-2.9-3.4l3.3-3.1c1.1,1,2.2,2,3.2,3.2c1,1.2,1.8,2.4,2.6,3.8
			c0.7,1.4,1.3,2.9,1.7,4.5C360.9,15.2,361.1,17,361.1,18.9z"/>
	</g>
</g>
</svg>
