<?xml version="1.0" encoding="utf-8"?>
<!-- Generator: Adobe Illustrator 19.2.1, SVG Export Plug-In . SVG Version: 6.00 Build 0)  -->
<!DOCTYPE svg PUBLIC "-//W3C//DTD SVG 1.1//EN" "http://www.w3.org/Graphics/SVG/1.1/DTD/svg11.dtd">
<svg version="1.1" id="Layer_1" xmlns="http://www.w3.org/2000/svg" xmlns:xlink="http://www.w3.org/1999/xlink" x="0px" y="0px"
	 viewBox="0 0 1811.5 974" style="enable-background:new 0 0 1811.5 974;" xml:space="preserve">
<style type="text/css">
	.st0{fill:#737374;}
	.st1{fill:#EC1B2E;}
	.st2{fill:none;stroke:#EC1B2E;stroke-width:2;stroke-miterlimit:10;}
</style>
<g>
	<g>
		<path class="st0" d="M1.1,261.9h40.4c0.5,0,0.8,0.4,0.8,0.8v6.1c0,0.5,0.4,0.8,0.8,0.8h23.4c0.5,0,0.9-0.4,0.9-0.8v-6
			c0-0.5,0.4-0.8,0.9-0.8h6.4c0.6,0,1.1-0.5,1.1-1.1v-11.3c0-0.5-0.4-0.9-0.8-0.9h-6.6c-0.5,0-0.9-0.4-0.9-0.9v-25
			c0-0.5-0.4-0.8-0.9-0.8H43.1c-0.5,0-0.9,0.4-0.9,0.8v12.5v12.5c0,0.5-0.4,0.8-0.8,0.8H29.6c0,0-0.2,0-0.6-0.1s-1.3-0.7-1.1-1.9
			l2.5-11.9l2.6-11.8v-0.1c0-1-0.8-0.9-1.2-0.9c0,0-13.7,0-14.2,0c-2.4,0.1-6.6-0.2-8.4,5.1c-0.2,0.6-1.4,4.5-2.1,7.1
			c-0.3,0.9-2.6,9.2-4.4,16C2,252.6,0.1,260.5,0,260.7C0,260.8-0.3,261.9,1.1,261.9z"/>
		<path class="st0" d="M212.3,268.8c0,0.5-0.4,0.8-0.8,0.8h-40.6c-18.7,0-17.8-9.6-18.2-15.6c-0.1-2,0.2-24.9,0.2-24.9
			c0-0.5,0.4-0.8,0.8-0.8h15.6c0.5,0,0.8,0.4,0.8,0.8c0,0,0,13,0,22.1c0,2,0.4,6.6,6.9,6.6c6.6,0,12.6,0,12.6,0
			c0.5,0,0.8-0.4,0.8-0.9v-27.8c0-0.5,0.4-0.8,0.8-0.8h20.1c0.5,0,0.8,0.4,0.8,0.8v39.7H212.3z"/>
		<path class="st0" d="M220.7,229.1c0-0.5,0.4-0.8,0.8-0.8h41.2c6.4,0,10.7,0.6,13.3,2.5c4.4,3.3,4.1,10.1,4.1,12.3
			c0,1.9,0,25.7,0,25.7c0,0.5-0.4,0.8-0.8,0.8h-20.7c-0.5,0-0.8-0.4-0.8-0.8c0,0,0-14.7,0-23.8c0-2.8-0.2-6.5-6.7-6.5
			c-6.6,0-12.9,0-12.9,0c-0.5,0-0.8,0.4-0.8,0.8v29.4c0,0.5-0.4,0.8-0.8,0.8h-14.9c-0.4,0-0.8-0.4-0.8-0.8v-39.6H220.7z"/>
		<path class="st0" d="M287.7,229.1c0-0.5,0.4-0.8,0.8-0.8h41.2c6.4,0,10.7,0.6,13.3,2.5c4.4,3.3,4.1,10.1,4.1,12.3
			c0,1.9,0.1,25.7,0.1,25.7c0,0.5-0.4,0.8-0.8,0.8h-20.7c-0.5,0-0.8-0.4-0.8-0.8c0,0,0-14.7,0-23.8c0-2.8-0.2-6.5-6.7-6.5
			c-6.6,0-12.9,0-12.9,0c-0.5,0-0.8,0.4-0.8,0.8v29.4c0,0.5-0.4,0.8-0.8,0.8h-14.9c-0.5,0-0.8-0.4-0.8-0.8v-39.6H287.7z"/>
		<path class="st0" d="M385.7,228.3h27.8c0.5,0,0.8,0.4,0.8,0.8l0.1,8.6c0,0.5-0.4,0.8-0.8,0.8h-38.7c0,0-2.4-0.3-2.7,2
			c0,0.3,0,2.3,0,2.4c0,0.2,0.2,0.8,0.8,0.8c0,0,39.5,0,39.7,0c0.5,0,0.8,0.4,0.8,0.8v7.4c0,0.5-0.4,0.8-0.9,0.8H373
			c-0.5,0-0.8,0.5-0.8,0.8c0,0,0,1.3,0,2c0.2,2.3,2.7,2.1,2.7,2.1h38.6c0.5,0,0.8,0.4,0.8,0.8l-0.1,10.2c0,0.5-0.4,0.8-0.9,0.8
			h-43.8c-6.1,0-9-1-11.4-2.8c-4.4-3.3-4.4-9.8-4.4-12V243c0-2.3,0-8.7,4.4-12c2.4-1.8,5.3-2.8,11.4-2.8H412"/>
		<path class="st0" d="M101.7,268.7v-29.2c0-0.5,0.4-0.8,0.8-0.8c0,0,23.5,0,23.6,0c0.4,0,1.7-0.1,1.7,3c0,0.8-0.4,3.3-1.7,3.3
			c-0.4,0-11.5,0.1-11.9,0.2c-0.4,0-2.5-0.2-2.5,2.2c0,0.5,0,21.7,0,21.7c0,0.5,0.4,0.8,0.9,0.8h34.1c0.4,0,0.7-0.1,0.9-0.4
			c0.4-0.5-0.2-1.2-0.2-1.2s-8.3-13.3-8.3-13.5c-0.1-0.6,0.3-0.9,0.5-1s1-0.5,2.3-1.4c4.9-3.4,4.6-9.1,4.5-12.4
			c-0.3-12-12.7-11.3-15.4-11.5c-1-0.1-47,0-47,0c-0.5,0-0.8,0.4-0.8,0.8V269c0,0.5,0.4,0.8,0.8,0.8h16.8c0.5,0,0.8-0.4,0.8-0.8"/>
		<path class="st0" d="M439.8,268.7v-29.2c0-0.5,0.4-0.8,0.8-0.8c0,0,23.5,0,23.6,0c0.4,0,1.7-0.1,1.7,3c0,0.8-0.4,3.3-1.7,3.3
			c-0.4,0-11.6,0.1-12,0.2c-0.4,0-2.5-0.2-2.5,2.2c0,0.5,0.1,21.7,0.1,21.7c0,0.5,0.4,0.8,0.8,0.8h34.1c0.4,0,0.7-0.1,0.9-0.4
			c0.4-0.5-0.2-1.2-0.2-1.2s-8.3-13.3-8.3-13.5c-0.1-0.6,0.3-0.9,0.5-1s1-0.5,2.3-1.4c4.9-3.4,4.6-9,4.5-12.4
			c-0.3-12-12.7-11.3-15.3-11.5c-1.1-0.1-47,0-47,0c-0.5,0-0.9,0.4-0.9,0.8V269c0,0.5,0.4,0.8,0.9,0.8H439c0.5,0,0.8-0.4,0.8-0.8"/>
	</g>
	<g>
		<g>
			<g>
				<path class="st0" d="M917.3,0.8l-28.1,59.1h15.6l5.5-12h30.9l5.6,12h15.6L934,0.8H917.3z M915.3,37l10.3-22.3L936.1,37H915.3z
					 M1104.8,21.1c-0.2-9-3.1-21.1-24.9-21.1h-16.6c-21.9,0-24.8,12.1-24.9,21.1c0,1.7,0,16.6,0,18.4c0.2,9,3.1,21.1,24.9,21.1h16.6
					c21.9,0,24.7-12.1,24.9-21.1C1104.9,37.8,1104.9,22.9,1104.8,21.1z M1090,36.7c0,8.5-2.3,11.9-12.5,11.9h-11.9
					c-10.1,0-12.5-3.4-12.5-11.9V24c0-8.5,2.3-11.9,12.5-11.9h11.9c10.1,0,12.5,3.4,12.5,11.9V36.7z M1009.4,0.8c0,0-36.6,0-41.1,0
					v59.1c4.5,0,41.1,0,41.1,0c6.8,0,12.2-1.9,15.8-5.7c3.5-3.6,5.3-9,5.3-15.4V22c0-6.5-1.8-11.8-5.3-15.4
					C1021.6,2.7,1016.3,0.8,1009.4,0.8z M1015,37.7c0,6.1-4.3,10.2-10.8,10.2H983V13.1h21.2c6.5,0,10.8,4.1,10.8,10.2V37.7z
					 M874.3,37c3.5-1.6,8.8-5,8.8-13.2c0-3.8,0,0,0-6.8c0-14-14.6-16.4-22.6-16.1h-38.2V60h14.6V40.4c3.7,0,17.9,0,20.2,0
					c2.9,0,5.3,0.9,6.8,2.7c3.8,4.7,4.6,16.8,4.6,16.8h15.3c0,0-0.9-9.2-3.2-14.7C878.9,41.5,876.6,38.5,874.3,37z M868.4,21.4
					c0,1.6-0.6,6.9-8.9,6.9h-22.8V11.9h22.8c8.3,0,8.9,5.3,8.9,6.9V21.4z M810.4,5c-3.2-2.8-8.1-4.2-14.2-4.2c0,0-37.5,0-42.1,0
					v59.1h14.4c0-3.8,0-19.5,0-19.5h27.7c11.9,0,18.8-5.5,18.8-15v-9.6C814.9,11.2,813.4,7.6,810.4,5z M800.2,22
					c0,1.7-0.6,7.3-8.9,7.3h-22.8V11.9h22.8c8.3,0,8.9,5.6,8.9,7.3V22z"/>
			</g>
		</g>
	</g>
	<path class="st0" d="M1496.6,236.9l-44.1,0.1v-8.4l47.9-0.1v-12.3l-64.2,0.1l-28.4,15.6l0.1,43l44.8-0.1V250h44.1L1496.6,236.9z
		 M1527.8,256l-7.6,5.6l-42,0.1v13.1l68.2-0.1l21.2-15.6l-0.1-43h-39.8L1527.8,256z M1595.8,242.8c-6.6,0.4-11.8,7.5-11.8,16.2
		c0,8.7,5.3,15.8,11.9,16.2l0,0h21.6v-11.4h-15.8l0,0c-2.6-0.1-4.7-2.3-4.7-4.9s2-4.8,4.7-4.9h15.9v-11.1L1595.8,242.8L1595.8,242.8
		z M1677.7,262.3L1677.7,262.3c-0.1,2.8-2.4,5-5.2,5c-2.8,0-5.1-2.2-5.2-4.9v-19.6h-11.7v21.8l0,0c0.2,2.8,1.5,5.2,3.7,6.9v0.2h0.2
		c3.1,2.4,7.8,3.7,13,3.7c9.1,0,16.6-4,17-10.9l0,0v-21.8h-11.9L1677.7,262.3z M1652.4,253c0-5.5-3.3-10-7.5-10.2l0,0h-24.4v8.9
		h17.5l0,0c1.2,0.1,2.2,1,2.2,2.2s-0.9,2.1-2,2.2h-17.7l0,0l0,0v19h11.2V265h2.8l9.1,10.1h14.1l-11-12.2
		C1650,261.5,1652.4,257.6,1652.4,253z M1800.5,262.6c3.3-1.3,5.7-5.2,5.7-9.8c0-5.5-3.4-10-7.5-10.2l0,0h-24.4v8.9h17.5l0,0
		c1.2,0,2.1,1,2.1,2.2s-0.9,2.1-2,2.2h-17.6l0,0l0,0v19h11.2v-10.2h2.8l9.1,10.2h14.1L1800.5,262.6z M1732.5,255.4L1732.5,255.4
		h-3.5v-0.3h-8.4c-1.1-0.1-1.9-1-1.9-2.1s0.9-2,2-2.1l0,0h17.2v-8.3h-24.2l0,0c-3.9,0.2-7,4.4-7,9.6s3.2,9.4,7.1,9.6l0,0l11.9-0.1
		c1.1,0.1,2,1.1,2,2.3c0,1.2-0.9,2.2-2.1,2.2l0,0h-17.5v8.3h24.5l0,0c3.9-0.2,7-4.4,7-9.6C1739.6,259.8,1736.4,255.6,1732.5,255.4z
		 M1692.7,275h11.2l-0.1-32.4h-11.2L1692.7,275z M1742.7,242.6L1742.7,242.6V275h27.8v-8.4h-16.6v-3.9h15v-8.4h-15v-3.2h16.6v-8.4
		L1742.7,242.6L1742.7,242.6z"/>
	<g>
		<g>
			<path class="st0" d="M986,835.1l-0.8,0.5l-5.7,19.9c0,0,0.2,0.9,0.4,1h14.5c0,0,1.1-0.4,1.3-1.1l2.5-9.3l9.6,10.4h15
				c0,0,0.8-0.5,1.3-1.6l5.3-18.8c0,0,0.6-1.5-0.6-1.5h-13.6c0,0-1.1-0.1-1.5,0.8l-2.8,9.6l-9.9-9.9L986,835.1L986,835.1z"/>
			<path class="st0" d="M978.1,836.7l0.4-1.1c0,0,0.5-1-1.3-1h-13.8c-0.6,0-0.9,0.7-0.9,0.7l-3.4,10.5c-0.5,1.5-1.3,2.5-1.3,2.5
				c-1.9,2.1-4.3,2.4-4.3,2.4h-7.2l4.4-15c-0.1-0.8-1.1-1.1-1.1-1.1s-12.4,0-13.6,0c-1.1,0-1.5,1.1-1.5,1.1l-4.6,15.2
				c-0.7,2.2-1.2,3.8-1.2,3.9c0,0,0,0.1,0,0.2l0,0v0.1c0,0-0.1,1.1,0.5,1.4H965c0,0,0.2,0,0.5-0.1c2.7-0.2,4.7-1.6,6.2-3
				c0.9-0.8,1.6-1.7,2.1-2.8l0,0c0.4-0.7,0.6-1.1,0.6-1.1L978.1,836.7z"/>
			<path class="st0" d="M929.8,835c0.1-0.3-0.1-0.5-0.3-0.5h-42.8c-0.3,0-0.6,0.2-0.7,0.5l-2.2,4.8c-0.1,0.3,0,0.5,0.3,0.5h14.3
				c0.3,0,0.4,0.2,0.3,0.5l-5.1,14.7c-0.5,1.5,0.1,1.5,0.4,1.5h13.9c1.2,0,1.3-0.8,1.4-1l5.2-15.1c0.1-0.3,0.4-0.5,0.7-0.5h12.2
				c0.3,0,0.6-0.2,0.7-0.5L929.8,835z"/>
			<path class="st0" d="M823.8,834.6h-33.2c0,0-5.8,0.4-7.2,5.1l-3.6,11.1c0,0-1.5,5.2,3.4,6.2h0.7h33.8c0,0,5.3,0,6.5-4.3l3.9-12.5
				C828.2,840.2,829,835.5,823.8,834.6z M807.6,851.5h-11.3l3.7-11.8c0.2,0.1,10.9,0,10.9,0L807.6,851.5z"/>
			<path class="st0" d="M1130.2,855.7c0-0.2,0-0.3,0-0.4l-11.9-8.2c0,0,9,0.1,10.8-5c0,0,2.5-6.1-4.6-7.4h-37.7c0,0-1.1,0.3-1.4,1.3
				l-6.1,19.9c-0.1,0.2-0.1,0.3-0.1,0.4l0,0v0.7h15.2l5.6-16.6h11.9c0.1,0.2,0.2,0.5,0.3,0.9c0,0.1,0,0.2,0,0.3
				c-0.1,0.6-0.3,1.2-0.7,1.7h-10.8v0.1l-0.1,0.3l-1.1,3.8l13.2,9.3c0,0,0.2,0.2,0.4,0.3h17.2L1130.2,855.7L1130.2,855.7z"/>
			<g>
				<path class="st0" d="M1079.7,835c0-0.4-1-0.4-1-0.4h-36.1c-5.6,0-8.4,5.6-8.4,5.6l-2.7,9.9c-0.2,0.8-0.2,2.1-0.2,2.1
					c0.6,3.1,3.9,4.7,3.9,4.7h34.3c0.4-0.1,0.8-0.5,0.8-0.5l5-4.5c0-0.4-0.8-0.6-0.8-0.6h-26.8l1-2.9h22.5c0,0,0.8-0.1,0.9-0.7l1-3
					l0.4-0.8c0-0.6-0.9-0.8-0.9-0.8h-22.7l1-3h23.4l0.4-0.4h0.1l0.2-0.2l4.4-3.5c0.1,0,0.1-0.1,0.1-0.1
					C1079.7,835.4,1079.7,835,1079.7,835z"/>
				<path class="st0" d="M1031.6,849.8c0,0,0,0.1,0,0.2l0,0C1031.5,849.9,1031.6,849.8,1031.6,849.8z"/>
				<path class="st0" d="M1031.3,850.7l0.2-0.6V850C1031.4,850.2,1031.3,850.7,1031.3,850.7z"/>
			</g>
			<path class="st0" d="M774.9,840l6.5-5.4h-44.2h-0.1H737l0,0c-0.4,0-0.5,0.3-0.5,0.3l-0.2,0.4l-0.1,0.2l-7.7,21.4h16.7l2.7-8.3h24
				l2.2-5.5h-24.5l1-3.1L774.9,840L774.9,840z"/>
			<path class="st0" d="M880.5,855.2l-11.9-8.2c0,0,9,0.1,10.8-5c0,0,2.7-7.4-4.6-7.4h-37.7c0,0-1,0-1.4,1.3l-7,19.9
				c-0.2,0.7-0.3,1.1,0,1.1s13.7,0,14.4,0s0.9-0.6,0.9-0.6l6.2-16h11.9c0.1,0.2,0.3,0.8,0.3,1.4c0,0.6-0.3,1-0.7,1.5h-10.8l-1.5,4.2
				l13.5,9.2c0,0,0.4,0.3,1,0.3c0,0,16.2,0,16.5,0C880.9,856.9,881.7,856.1,880.5,855.2z"/>
		</g>
		<g>
			<path class="st0" d="M950.4,862.9H903c-7.4,0-16.9,0.6-21.7,1.5s-10.3,3.1-13.3,8.7c-0.7,1.3-1.7,5.8,3.9,7.8
				c0.8,0.3,2.9,1,6.4,1.3c3.7,0.3,9.1,0.2,15.2,0.2h21.6c1.5,0,2.2,0.9,2.5,1.8c0.3,0.9-0.5,3.7-2.6,6c-1,1-2.5,2.1-5.9,2.1h-38.4
				c-1.2,0-1.8,0.1-2.5,0.7c-0.7,0.6-6.7,5.1-6.7,5.1h57.1c7.3,0,14-0.3,20-4.2c1.6-1,6.6-4.9,6.6-9.5c0-1.4-1.3-6.6-12.7-7.2
				c0,0-3.9-0.1-12-0.1h-23.2c-1.9,0-3.3-0.7-2.7-2.9c0.2-0.8,1.8-3.8,3.9-5c0.9-0.5,2.5-0.7,4.7-0.7h37c1.3,0,2.1,0.2,2.9-0.3
				C944,867.7,950.4,862.9,950.4,862.9z"/>
			<path class="st0" d="M957.1,862.9c-0.5,0-0.9,0.2-1,1c-0.1,0.9-3.1,32.7-3.2,33.1c-0.1,0.4,0.2,1,0.9,1h7.9c1.7,0,6.4,0,10.5-3.5
				c1.2-1,21.9-19.3,22.4-19.7c0.7-0.6,1.3-0.6,1.4,0.1c0.1,0.7,0.6,21.7,0.6,22.1c0,0.5,0.3,0.9,1.1,0.9h8.5c1.9,0,5.9-0.1,8.7-2.7
				c2.1-1.9,21.4-20.6,22.9-22.1c1.4-1.5,2.6-2.5,4.4-3.9c1.8-1.3,7.9-5.9,8.3-6.2s-0.1-0.3-0.9-0.3h-12.7c-0.7,0-1.2,0.1-1.8,0.7
				c-0.6,0.6-21.1,19.8-21.7,20.4c-0.6,0.6-1.3,0.2-1.3-0.4c0-0.6,0.5-20.7,0.5-20.7h-16.3c0,0-24.4,20.5-24.9,20.9
				c-0.4,0.4-1.4,0.6-1.3-0.5c0.1-1.1,2.4-18.8,2.5-19.6c0.1-0.4,0.1-0.8-0.7-0.8h-14.8V862.9z"/>
			<path class="st0" d="M1129.6,886.9h-11.5h-0.1c-0.7,0-1.3-0.3-1-1.1c0.3-0.9,4.4-11.4,5.3-13.6c0.8-2.2,1.8-3.6,3-5.4
				c1.2-1.9,2.4-3.8,2.4-3.8h-20.1c-4.5,0-10.8,0.3-16.6,2.2c-5.7,1.9-25,8.9-30,10.7c-4.9,1.8-17,6.7-19.8,7.9s-6.9,3.4-9.2,5.6
				c-1.1,1.1-1.4,1.4-1.7,1.6c-0.3,0.2-0.6,1.2,0.7,1.2h58.8c0.8,0,1,0.3,0.8,1s-1.6,4.4-1.6,4.4h23.5c0,0,1.6-4.3,1.8-4.7
				c0.1-0.4,0.5-0.8,1.1-0.8h9.3c0.5,0,0.7-0.2,1.1-0.5c0.4-0.4,3.8-4,4.1-4.2C1130.2,887.2,1130,886.9,1129.6,886.9 M1099.5,871.4
				c-0.3,0.9-5.2,13.2-5.6,14.3c-0.4,1-0.9,1.2-1.7,1.2h-30.3c-1,0-1.6,0-2.1-0.2c-1.5-0.4-0.6-1.4,0.6-1.9c1-0.4,13.1-5.4,16.7-6.9
				c3.6-1.4,19.8-7.1,21-7.6C1099.3,869.9,1099.8,870.5,1099.5,871.4"/>
		</g>
	</g>
	<g>
		<polygon class="st0" points="146,680.9 168.4,680.9 177.9,617.7 155.5,617.7 		"/>
		<path class="st0" d="M255,665.8h-42.7c0.5-3.3,7.3-47.8,7.3-47.9v-0.2h-20.9l-9.6,63.2h56c0.2,0,1.3-0.1,2.2-1.4l8-12.4
			c0.1-0.1,0.4-0.7,0.3-1C255.5,665.8,255.3,665.8,255,665.8z"/>
		<path class="st0" d="M306.2,664.8h-13.5c-2.9,0-5.1-0.9-6.6-2.6c-2.6-3.2-1.8-8.3-1.7-8.3l5.4-36v-0.2h-20.6l-5.7,37.9
			c0,0.1-2.7,8.7,2.7,17.7c0.2,0.3,3.9,7.6,8.6,7.6h29.3c0.3,0,1.1-0.1,1.5-1.5l1.8-13.6C307.4,665.8,307.4,664.8,306.2,664.8z"/>
		<polygon class="st0" points="312.7,680.7 312.7,680.9 333.7,680.9 343.2,617.9 343.3,617.7 322.2,617.7 		"/>
		<path class="st0" d="M381.6,617.7L381.6,617.7l-24.1-0.1c-0.6,0-0.9,0.1-1,0.4c-0.2,0.4,0.3,0.9,0.3,0.9l43.2,61.8v0.1h23.8
			c0.6,0,1-0.1,1.1-0.4c0.2-0.5-0.3-1.2-0.3-1.3L381.6,617.7z"/>
		<path class="st0" d="M435.6,618.1c-0.1-0.3-0.5-0.4-1-0.4h-25l-11.8,11.2l10.9,15.1l0.1,0.2l26.4-25.1
			C435.3,619,435.7,618.5,435.6,618.1z"/>
		<path class="st0" d="M345,679.2c-0.1,0.1-0.6,0.7-0.4,1.3c0.1,0.3,0.5,0.4,1.1,0.4h24.6l12.8-12.1L372,653.6L345,679.2z"/>
		<polygon class="st0" points="50.3,680.9 72.5,680.9 82,617.7 59.8,617.7 		"/>
		<polygon class="st0" points="109.1,642.2 85.7,642.2 83.5,657.3 106.9,657.3 103.3,680.9 125.6,680.9 135.1,617.7 112.9,617.7 		
			"/>
	</g>
	<g>
		<g>
			<g>
				<path class="st0" d="M948.3,452.5v-21.2H960c0,0,0,20.4,0,23.7c0,2.7-0.1,4.8-0.9,6.6c-1.5,3.2-4.4,4.9-7.7,5.5
					c-1,0.2-1.9,0.3-3,0.3c-1.5,0-2.6,0.1-7.1,0.1c-2.2,0-4.3,0-6.5,0c-0.9,0-5.3-0.1-6.3-0.2c-1.2-0.1-2.2-0.3-3.2-0.6
					c-1.5-0.4-4.4-1.8-5.8-4.6c-0.4-0.8-0.8-1.7-1-2.9c-0.3-1.9-0.2-4-0.2-5.8c0-1.5,0-18.1,0-22.2H930v21.2c0,1.9,0.2,3.1,0.7,3.8
					c0.6,0.8,1.6,1,2.7,1.1c0.5,0,2.9,0.2,5.4,0.2c0,0,3.3,0,5.4-0.1c2.1-0.1,4-0.3,4.1-3.2L948.3,452.5L948.3,452.5z"/>
				<path class="st0" d="M853,465.7c3.1-1.6,5.9-4.7,5.2-14.5h-11.6c0,0,0.1,0.6-0.1,3.1c-0.1,1.1-0.6,1.8-1.1,2.2
					c-0.7,0.5-1.7,0.6-2.6,0.6c-0.8,0.1-2.6,0.2-4.2,0.3c-1.4,0.1-2.6,0-3,0c-2.7-0.1-6,0.1-8.2-0.5c-0.5-0.1-1-0.4-1.2-0.8
					c-0.4-0.6-0.5-1.4-0.6-2.4c-0.1-1.5-0.1-3.1-0.2-4.1c0-0.6,0-1.7,0-2.9c0-1.8,0.2-3.7,0.5-4.9c0.3-1.2,1.4-1.7,2.7-1.8
					c1.3-0.1,2.9-0.2,3.6-0.2c0.9,0,3.4-0.1,5.7,0c2.1,0,4.1,0.1,4.1,0.1c1.6,0.1,2.9,0.3,3.7,1c0.7,0.7,1,2.1,1.1,4.2H858
					c-0.1-1.4-0.2-3.1-0.4-4.8c-0.1-1.1-0.3-2.2-0.7-3.1c-1-2.8-3.1-4.9-6.4-6.1c-1.4-0.5-3-0.8-4.9-0.9c-0.6,0-3.5-0.2-6.9-0.3
					c-4.3,0-9.4,0.2-11.3,0.3c-1.7,0.1-4.4,0.4-6.9,1.7c-1.7,0.8-2.5,1.6-3.7,3.1c-1.8,2.3-2.5,6.4-2.6,11.2c0,1.3-0.1,2.7,0,4.2
					c0,2.2,0.2,4.3,0.3,5.6c0.5,5,2.9,10.5,11.1,11.2c3.2,0.3,6.7,0.3,10.1,0.3c5,0,9.7-0.2,12.3-0.6
					C849,466.9,851.1,466.7,853,465.7"/>
				<rect x="971.1" y="431" class="st0" width="11.2" height="35.9"/>
				<polygon class="st0" points="1043.9,467.2 1043.9,430.9 1080,430.9 1080,439.9 1055,439.9 1055,444.9 1079.1,444.9 
					1079.1,453.2 1055,453.2 1055,458.2 1080.4,458.2 1080.4,467.2 				"/>
				<path class="st0" d="M764.3,452.6c-0.2,2.3-0.9,3.8-2,4.6c-1.3,0.9-3.7,0.9-6.4,0.9H745v-18.3h13.1c0.7,0,1.3,0,1.9,0.1
					c2.4,0,4.1,0.4,4.4,5.5c0,0.8,0.1,2.2,0.1,3.6C764.4,450.5,764.3,452.1,764.3,452.6 M775.6,445.7c-0.1-4.2-0.8-8-3.1-10.8
					c-1.2-1.5-2.8-2.6-5.1-3.4s-5.2-1-9.1-1h-24.1v36.8h23.9c5.2,0,8.4-0.2,11.1-1.8c1.7-1,3-2.3,4-3.9c1.6-2.7,2.3-6.1,2.5-9.9
					C775.7,449.2,775.7,448.6,775.6,445.7"/>
				<path class="st0" d="M647.3,450.7l5.1-9.9l5.2,9.9H647.3z M658.5,430.4h-12.3L627,466.8h12.8l3.8-7.4h17.7l3.6,7.4h12.4
					L658.5,430.4z"/>
				<path class="st0" d="M895.4,446c-0.6,0-0.8,0-0.8,0h-15.4v-6.1h14.2h1.1c0,0,2.8-0.1,3.6,1.7C898.9,443.4,897.7,445.8,895.4,446
					 M909,459.6c0-3.8-0.8-6.3-1.7-7.6c-0.6-0.9-1.2-1.2-1.2-1.2c2.4-3.2,2.7-7.7,2.3-10.8c-0.2-1.5-0.7-2.8-1-3.5
					c-1-2.1-2.4-4.1-5.5-5.2c-1.6-0.6-3.7-0.7-6.4-0.7h-9.1h-18.3v36.6h11.1v-12.4c0,0,7.4,0,11.8,0c1.7,0,3,0,3.1,0
					c1.3,0,2.1,0.3,2.7,0.8c0.8,0.8,0.7,3.2,0.7,3.8c0,0.5,0,2.3,0,3.5c0,2.4,0,4.3,0,4.3H909C909.1,463.8,909,461.7,909,459.6"/>
				<path class="st0" d="M1118.7,446.4c-0.6,0-0.8,0-0.8,0h-15.4v-6.1h14.2h1.1c0,0,2.8-0.1,3.6,1.7
					C1122.3,443.9,1121,446.3,1118.7,446.4 M1132.3,460c0-3.8-0.8-6.3-1.7-7.6c-0.6-0.9-1.2-1.2-1.2-1.2c2.4-3.2,2.7-7.7,2.3-10.8
					c-0.2-1.5-0.7-2.8-1-3.5c-0.9-2.1-2.4-4.1-5.5-5.2c-1.6-0.6-3.7-0.7-6.4-0.7h-9.1h-18.3v36.6h11.1v-12.4c0,0,7.4,0,11.8,0
					c1.7,0,3,0,3.1,0c1.3,0,2.1,0.3,2.7,0.8c0.8,0.8,0.7,3.2,0.7,3.8c0,0.5,0,2.3,0,3.5c0,2.4,0,4.2,0,4.2h11.4
					C1132.4,464.3,1132.3,462.1,1132.3,460"/>
				<polygon class="st0" points="723.3,466.8 713.2,466.8 694.1,445.8 694.1,466.8 683.1,466.8 683.1,430.5 694.3,430.5 
					712.6,450.3 712.6,430.5 723.3,430.5 				"/>
				<polygon class="st0" points="586.1,430.5 586.1,466.9 622.7,466.9 622.7,456.9 597.6,456.9 597.6,430.5 				"/>
				<path class="st0" d="M1011.6,458c3.1,0,7.4,0.1,9.3-0.1c2.4-0.2,3.2-1,3.2-2.5c0-1.6-2.1-2.1-3.4-2.2c-2.7-0.2-6.9-0.4-10.6-0.6
					c-2.3-0.1-4.4-0.3-5.8-0.4c-3.1-0.3-7.8-0.9-9.8-4.7c-0.7-1.4-1.1-3-1.3-4.6c-0.2-2,0-3.8,0.1-4.6c0.4-2.4,1.4-4.1,2.7-5.2
					c3.5-3.2,9.2-2.8,11-3c0.9,0,5.5-0.1,9.8,0c3.2,0,6.7,0,9,0.8c1,0.3,1.8,0.7,2.5,1.1c4.5,2.9,4.2,8.4,4.4,10.9l-9.3-0.1
					c-0.2-1.4-0.4-3.2-3.9-3.3c-0.7,0-1.6-0.1-2.7-0.1c-4.3-0.1-10.9-0.1-12.1,0.2c-1.4,0.3-1.6,1-1.6,1.7c0,1,0.5,1.8,2,1.9
					c3.8,0.3,12.1,0.8,13.9,0.9c3.1,0.2,6.5,0.3,9.4,1.6c1.1,0.5,2.1,1.2,2.9,2.1c1,1.1,1.7,2.6,2,4.3c0.3,1.6,0.5,3.6,0.3,5.5
					c-0.3,3.9-2.6,7.6-7.6,9c-1.5,0.4-3.6,0.7-5.2,0.7c-1.7,0.1-4.1,0.1-7.9,0.1c-2.5,0-8-0.1-9.6-0.3c-2-0.2-3.7-0.6-5-1.2
					c-4-1.8-5.1-5.4-5.4-8.4c-0.2-2.2-0.1-3.8-0.1-3.8l10.4,0.1c0,0.6-0.1,3.8,2.6,3.9C1008.6,458,1011.6,458,1011.6,458"/>
			</g>
			<g>
				<path class="st0" d="M1182.5,464v3.5h-26.1v-6.8c0-3.8,0.8-6.3,2.3-7.5s5-2.1,10.6-2.7c4.5-0.5,7.1-1.2,8.1-2
					c0.9-0.8,1.4-3,1.4-6.6c0-3.1-0.5-5.1-1.5-6.1c-1-0.9-3.3-1.4-6.8-1.4c-4.4,0-7.1,0.4-8.2,1.1c-1.1,0.8-1.7,2.6-1.7,5.4v2.7h-4
					v-1.9c0-4.3,0.9-7.2,2.8-8.7c1.8-1.5,5.5-2.2,11-2.2c4.9,0,8.2,0.8,9.9,2.3c1.7,1.5,2.5,4.6,2.5,9.1c0,4.3-0.8,7.2-2.4,8.7
					s-5,2.5-10.2,3c-4.6,0.5-7.4,1.1-8.2,1.9c-0.9,0.8-1.4,3.1-1.4,6.9v1.2h21.9V464z"/>
				<path class="st0" d="M1214.4,430.8c6.7,0,10.8,0.9,12.2,2.7c1.4,1.8,2.1,7.1,2.1,15.8c0,8.3-0.6,13.4-2,15.2
					c-1.7,2.3-5.8,3.4-12.3,3.4s-10.5-1.1-12.2-3.4c-1.3-1.8-2-7.2-2-16.4c0-7.9,0.7-12.8,2.2-14.6
					C1203.8,431.7,1207.8,430.8,1214.4,430.8z M1214.4,434.2c-5.1,0-8.1,0.6-8.9,2c-0.9,1.3-1.4,5.7-1.4,13.1s0.5,11.8,1.4,13.1
					c0.9,1.3,3.9,2,8.9,2c5.1,0,8.1-0.7,9-2s1.3-5.7,1.3-13.1s-0.4-11.7-1.3-13.1C1222.5,434.9,1219.5,434.2,1214.4,434.2z"/>
				<path class="st0" d="M1258.6,430.8c6.7,0,10.8,0.9,12.2,2.7c1.4,1.8,2.1,7.1,2.1,15.8c0,8.3-0.7,13.4-2,15.2
					c-1.7,2.3-5.8,3.4-12.2,3.4c-6.5,0-10.6-1.1-12.2-3.4c-1.3-1.8-2-7.2-2-16.4c0-7.9,0.7-12.8,2.2-14.6
					C1248,431.7,1252,430.8,1258.6,430.8z M1258.6,434.2c-5.1,0-8.1,0.6-9,2c-0.9,1.3-1.4,5.7-1.4,13.1s0.4,11.8,1.4,13.1
					c0.9,1.3,3.9,2,9,2s8.1-0.7,9-2s1.3-5.7,1.3-13.1s-0.4-11.7-1.3-13.1C1266.7,434.9,1263.7,434.2,1258.6,434.2z"/>
			</g>
		</g>
	</g>
	<g>
		<path class="st0" d="M1778.5,658l9.6-39c-1.6,0-12.9-0.1-20.5,0c-6.6,0.1-11.8,1.4-16.7,3.8c-13.2,6.4-39.1,21.9-52.3,31.8
			c-3.5,2.7-4.8,4.7-5.8,6.9c-1.9,4.7-3.1,9.7-3.1,9.7s35.6,0,64,0l-2.1,8.5h21.4l2.1-8.5c7.5,0,12.4,0,13,0l3.3-13.2
			C1790.6,658,1785.6,658,1778.5,658z M1763.6,632.4c-0.2,0.6-6.5,25.5-6.5,25.5c-12.5,0-26.3,0-37.6,0c7.9-5.9,32.7-21.2,43.3-26
			C1763.1,631.8,1763.7,631.8,1763.6,632.4z"/>
		<path class="st0" d="M1694.1,621.7c0,0-38.7,34.5-42.3,37.6c-3.4,3-5.2,3.8-6.9,4.2c-1.1,0.2-2.1-0.1-2.1-0.1l-4-43.7h-20.7
			l5.8,55.8h23.9c3.1,0,8.1-0.2,14.8-5.6c12.7-10.2,38.8-31.9,57.6-49.1C1711.9,620.8,1694.1,621.7,1694.1,621.7z"/>
		<path class="st0" d="M1580.3,619.6c-6.5,0-12.5,1-19.8,7.1s-6,5.1-9.2,7.9c-12.6,11.2-34.2,31-36.3,33.1c-5-1.3-9.3-3.2-13.1-5.6
			c-1.7-1.1-13.3-8.4-13.3-8.4h17c7.4,0,15.8-1.8,21-9.2c2.4-3.4,4.8-8.9,4.2-14.4c-1-8.7-10.8-10.4-22.4-10.4c0,0-51.2,0.2-55,0.2
			c-3.3,0-4.7,0.6-5.6,2.7c-0.9,2.1-19.9,52.9-19.9,52.9h22l9-23.9c0,0,22.2,16.2,26.7,19.5c4.4,3.3,7.2,4.2,12.7,4.2
			s24.6,0.1,31.6,0c3.4-3.4,9.9-9.6,16.7-16.1l44.7-0.1l1.4,16.4h20.3l-5.8-55.8C1607.2,619.6,1586.8,619.6,1580.3,619.6z
			 M1462.1,643.1c0,0,3.7-10.3,3.9-10.8c0.2-0.5,0.6-0.9,1.4-0.9c0.6,0,39.3,0,39.3,0c3.3,0,4.6,0.8,4.1,3c-0.6,2.2-2.4,5.5-4.3,6.8
			c-1.9,1.4-4.5,1.9-7.7,1.9H1462.1z M1558.4,648.4c5.6-5.5,13.6-12.4,16-14.2c3-2.4,4.6-2.9,8.2-3c2.1-0.1,4.6-0.1,5.6-0.1
			c0.8,0,1,0.3,1,1c0,0.2,1.1,16.5,1.1,16.5L1558.4,648.4z"/>
	</g>
	<g>
		<path class="st1" d="M91.2,325.6h11.4v4.5H85.4v-26h5.8V325.6z"/>
		<path class="st1" d="M111.3,330.1h-5.5v-14.7h-2.3v-3.7h7.8V330.1z M108.3,309.2c-1.1,0-1.9-0.3-2.4-0.9s-0.8-1.4-0.8-2.4
			s0.3-1.8,0.8-2.4s1.4-1,2.4-1s1.9,0.3,2.4,1c0.6,0.6,0.8,1.5,0.8,2.4s-0.3,1.8-0.8,2.4C110.2,308.9,109.4,309.2,108.3,309.2z"/>
		<path class="st1" d="M116,315.7l-1.1-2.7l4.2-2l1.9,2.6c1-0.9,1.9-1.5,2.8-1.9c0.9-0.4,1.7-0.6,2.5-0.6c1.3,0,2.4,0.2,3.2,0.7
			c0.8,0.5,1.3,1.1,1.7,1.9c0.9-0.8,1.8-1.5,2.8-1.9c0.9-0.5,1.9-0.7,2.9-0.7c1.2,0,2.2,0.2,3,0.6c0.7,0.4,1.3,0.9,1.7,1.6
			c0.4,0.7,0.7,1.5,0.8,2.4s0.2,2,0.2,3.1v11.4h-5.5v-10.6c0-0.7,0-1.3-0.1-1.8c0-0.5-0.1-0.9-0.3-1.2c-0.2-0.3-0.4-0.6-0.7-0.7
			c-0.3-0.2-0.7-0.2-1.2-0.2c-0.5,0-1,0.2-1.5,0.5c-0.5,0.3-1,0.7-1.4,1.2c0,0.2,0,0.5,0.1,0.7c0,0.2,0,0.5,0,0.8v11.4h-5.5v-10.6
			c0-0.7,0-1.3-0.1-1.8c0-0.5-0.2-0.9-0.3-1.2c-0.2-0.3-0.4-0.6-0.7-0.7c-0.3-0.2-0.7-0.2-1.2-0.2c-0.4,0-0.9,0.2-1.4,0.5
			c-0.5,0.3-1,0.7-1.4,1.3v12.9H116V315.7z"/>
		<path class="st1" d="M153,330.1h-5.5v-14.7h-2.3v-3.7h7.8V330.1z M150,309.2c-1.1,0-1.9-0.3-2.4-0.9s-0.8-1.4-0.8-2.4
			s0.3-1.8,0.8-2.4s1.4-1,2.4-1s1.9,0.3,2.4,1c0.6,0.6,0.8,1.5,0.8,2.4s-0.3,1.8-0.8,2.4C151.9,308.9,151.1,309.2,150,309.2z"/>
		<path class="st1" d="M155.8,311.7h3.2v-5.3h5.3v5.3h5.2v3.9h-5.2v7.5c0,0.6,0,1.2,0.1,1.7c0,0.5,0.1,0.8,0.3,1.1s0.3,0.5,0.6,0.6
			c0.3,0.1,0.7,0.2,1.2,0.2c0.5,0,1-0.1,1.5-0.2c0.5-0.2,1-0.3,1.4-0.5l1.2,3.4c-0.7,0.3-1.5,0.6-2.4,0.9c-0.9,0.3-1.8,0.4-2.8,0.4
			c-1.3,0-2.3-0.1-3.2-0.4s-1.5-0.7-2-1.3c-0.5-0.6-0.9-1.4-1.1-2.3c-0.2-1-0.3-2.1-0.3-3.6v-7.6h-3V311.7z"/>
		<path class="st1" d="M180.7,326.7c1,0,1.9-0.1,2.7-0.2c0.8-0.2,1.6-0.4,2.4-0.8l1.6,3.4c-1.1,0.6-2.3,1.1-3.5,1.3
			c-1.2,0.2-2.5,0.3-3.9,0.3c-3.1,0-5.4-0.8-6.8-2.5c-1.4-1.7-2-4.1-2-7.3c0-1.5,0.2-2.8,0.6-4c0.4-1.2,0.9-2.3,1.6-3.1
			c0.7-0.9,1.6-1.6,2.7-2c1.1-0.5,2.4-0.7,3.8-0.7c1.4,0,2.6,0.2,3.6,0.7c1,0.5,1.8,1.1,2.5,2c0.6,0.9,1.1,1.9,1.4,3.2
			c0.3,1.2,0.4,2.7,0.4,4.2l-1.4,1.5h-9.7c0.2,1.5,0.6,2.6,1.3,3.2C178.7,326.4,179.6,326.7,180.7,326.7z M182.7,319
			c0-2.7-0.9-4.1-2.8-4.1c-1,0-1.7,0.3-2.2,0.8c-0.5,0.6-0.9,1.6-1,3.2H182.7z"/>
		<path class="st1" d="M202.6,303.6h5.5v22.9l1,2.3l-4.3,2l-1.7-2.4c-0.8,0.7-1.6,1.3-2.5,1.7c-0.9,0.4-1.8,0.6-2.9,0.6
			c-2.4,0-4.2-0.9-5.3-2.6s-1.7-4.2-1.7-7.3c0-1.5,0.2-2.8,0.6-4c0.4-1.2,1-2.2,1.7-3.1s1.7-1.5,2.8-2c1.1-0.5,2.4-0.7,3.8-0.7
			c0.5,0,1,0,1.5,0.1c0.5,0.1,1,0.2,1.5,0.4V303.6z M200.3,315c-1.3,0-2.3,0.4-3,1.3c-0.7,0.9-1,2.4-1,4.5c0,2.2,0.3,3.7,0.8,4.6
			c0.6,0.9,1.3,1.3,2.3,1.3c0.7,0,1.4-0.2,1.9-0.6c0.5-0.4,1-0.9,1.3-1.3v-9.3c-0.4-0.2-0.8-0.3-1.1-0.4
			C201.1,315,200.7,315,200.3,315z"/>
	</g>
	<g>
		<path class="st1" d="M278.7,324.4c1.3,0.7,2.5,1.3,3.6,1.5c1.1,0.3,2.2,0.4,3.2,0.4c1.6,0,2.7-0.3,3.4-0.9c0.7-0.6,1-1.4,1-2.4
			c0-0.5-0.1-0.9-0.2-1.3c-0.1-0.4-0.4-0.7-0.7-1c-0.4-0.3-0.9-0.5-1.5-0.8c-0.6-0.2-1.5-0.5-2.5-0.7c-1.1-0.3-2.2-0.6-3.1-1
			s-1.7-0.9-2.4-1.4c-0.7-0.6-1.2-1.3-1.6-2.2c-0.4-0.9-0.6-1.9-0.6-3.2c0-2.5,0.8-4.5,2.5-5.9s4.1-2.2,7.2-2.2
			c1.6,0,3.1,0.2,4.4,0.5c1.3,0.3,2.6,0.9,3.9,1.6l-2.1,3.8c-0.2-0.1-0.6-0.3-1-0.5c-0.4-0.2-0.9-0.4-1.4-0.6
			c-0.5-0.2-1.1-0.3-1.6-0.4c-0.6-0.1-1.2-0.2-1.7-0.2c-1.5,0-2.6,0.3-3.3,0.8c-0.6,0.5-1,1.2-1,2.1c0,0.6,0.1,1,0.3,1.4
			c0.2,0.4,0.5,0.7,0.9,1c0.4,0.3,1,0.6,1.7,0.8c0.7,0.2,1.6,0.5,2.6,0.8c0.8,0.2,1.6,0.5,2.5,0.9c0.8,0.3,1.6,0.8,2.3,1.4
			c0.7,0.6,1.2,1.3,1.7,2.1c0.4,0.9,0.7,1.9,0.7,3.2c0,2.8-0.9,4.9-2.6,6.4c-1.7,1.5-4.2,2.2-7.5,2.2c-2,0-3.7-0.2-5.2-0.6
			c-1.5-0.4-2.8-1-3.9-1.8L278.7,324.4z"/>
		<path class="st1" d="M305.6,330.1h-5.8v-26h8.8c1.3,0,2.5,0.1,3.6,0.4s2.1,0.7,2.9,1.2c0.8,0.6,1.5,1.3,1.9,2.3
			c0.5,0.9,0.7,2.1,0.7,3.5c0,1.8-0.4,3.3-1.3,4.4c-0.9,1.1-2,2-3.3,2.6c0.4,0.3,0.8,0.8,1.2,1.4l5.6,9.9l-6.1,0.8l-4.9-8.9
			c-0.3-0.6-0.7-1-1-1.3c-0.4-0.3-1-0.5-1.8-0.5h-0.5V330.1z M307.7,315.6c1.3,0,2.3-0.3,2.9-1s0.8-1.5,0.8-2.7
			c0-1.2-0.3-2.2-0.9-2.8c-0.6-0.6-1.6-0.9-2.9-0.9h-2v7.3H307.7z"/>
		<path class="st1" d="M334.2,322.1c0-2.7-1.3-4-4-4c-0.9,0-1.8,0.1-2.6,0.4s-1.5,0.5-2,0.8l-2.2-1.4l1.2-13.4h14v4.3h-9.5l-0.5,5.8
			c1.2-0.3,2.4-0.5,3.4-0.5c1,0,2,0.2,2.9,0.5c0.9,0.3,1.7,0.8,2.4,1.4c0.7,0.6,1.2,1.4,1.7,2.4c0.4,1,0.6,2.1,0.6,3.4
			c0,1.3-0.2,2.6-0.6,3.7c-0.4,1.1-1,2-1.8,2.8c-0.8,0.8-1.8,1.4-3,1.8c-1.2,0.4-2.6,0.6-4.2,0.6c-1.9,0-3.6-0.2-4.9-0.7
			c-1.3-0.5-2.3-1-3.1-1.5l1.9-3.6c1.9,1.1,3.9,1.6,5.9,1.6c0.8,0,1.5-0.1,2.1-0.4c0.6-0.2,1-0.6,1.3-1c0.3-0.4,0.6-0.9,0.7-1.4
			S334.2,322.7,334.2,322.1z"/>
	</g>
	<line class="st2" x1="243.1" y1="292.3" x2="243.1" y2="345"/>
	<g>
		<path class="st1" d="M184.4,719.6h-7v21.5h-5.8v-21.5h-7v-4.5h19.8V719.6z"/>
		<path class="st1" d="M187.3,715.1h6.5l8.3,18.8c0.1,0.2,0.1,0.3,0.2,0.5c0.1,0.1,0.2,0.2,0.3,0.2c0.2,0,0.3-0.1,0.3-0.2
			c0-0.1,0.1-0.3,0.1-0.5v-18.8h5v21.5c0,1.4-0.4,2.5-1.1,3.4s-1.9,1.3-3.7,1.3c-0.8,0-1.5-0.1-2-0.3s-1-0.4-1.4-0.7
			c-0.4-0.3-0.7-0.7-1-1.1c-0.3-0.4-0.5-0.9-0.8-1.5l-5.8-13v16.3h-5V715.1z"/>
	</g>
	<g>
		<path class="st1" d="M296,719.6h-7v21.5h-5.8v-21.5h-7v-4.5H296V719.6z"/>
		<path class="st1" d="M314.1,720.5c-0.9-0.6-1.8-1-2.6-1.2c-0.9-0.2-1.7-0.3-2.5-0.3c-1,0-1.8,0.2-2.5,0.5
			c-0.7,0.3-1.3,0.9-1.8,1.6c-0.5,0.7-0.9,1.7-1.1,2.9c-0.3,1.2-0.4,2.6-0.4,4.3c0,3.1,0.5,5.4,1.5,6.8c1,1.4,2.5,2.1,4.4,2.1
			c1,0,1.9-0.1,2.9-0.4c0.9-0.3,1.9-0.7,2.9-1.4l2.1,3.8c-1.3,0.9-2.7,1.5-4.1,1.9c-1.4,0.4-2.8,0.6-4.2,0.6c-4,0-6.9-1.1-8.7-3.3
			c-1.8-2.2-2.7-5.6-2.7-10.2c0-4.4,1-7.8,3-10.2c2-2.4,4.9-3.5,8.7-3.5c0.8,0,1.6,0.1,2.3,0.2c0.7,0.1,1.3,0.3,1.9,0.5
			c0.6,0.2,1.2,0.4,1.7,0.7c0.5,0.3,1.1,0.6,1.6,0.9L314.1,720.5z"/>
	</g>
	<line class="st2" x1="243.1" y1="703.3" x2="243.1" y2="756"/>
	<g>
		<path class="st1" d="M1474.2,735.4c1.3,0.7,2.5,1.3,3.6,1.5c1.1,0.3,2.2,0.4,3.2,0.4c1.6,0,2.7-0.3,3.4-0.9c0.7-0.6,1-1.4,1-2.4
			c0-0.5-0.1-0.9-0.2-1.3c-0.1-0.4-0.4-0.7-0.7-1c-0.4-0.3-0.9-0.5-1.5-0.8c-0.6-0.2-1.5-0.5-2.5-0.7c-1.1-0.3-2.2-0.6-3.1-1
			c-0.9-0.4-1.7-0.9-2.4-1.4c-0.7-0.6-1.2-1.3-1.6-2.2c-0.4-0.9-0.6-1.9-0.6-3.2c0-2.5,0.8-4.5,2.5-5.9c1.7-1.4,4.1-2.2,7.2-2.2
			c1.6,0,3.1,0.2,4.4,0.5c1.3,0.3,2.6,0.9,3.9,1.6l-2.1,3.8c-0.2-0.1-0.6-0.3-1-0.5c-0.4-0.2-0.9-0.4-1.4-0.6
			c-0.5-0.2-1.1-0.3-1.6-0.4c-0.6-0.1-1.2-0.2-1.7-0.2c-1.5,0-2.6,0.3-3.3,0.8c-0.6,0.5-1,1.2-1,2.1c0,0.6,0.1,1,0.3,1.4
			s0.5,0.7,0.9,1c0.4,0.3,1,0.6,1.7,0.8c0.7,0.2,1.6,0.5,2.6,0.8c0.8,0.2,1.6,0.5,2.5,0.9c0.8,0.3,1.6,0.8,2.3,1.4
			c0.7,0.6,1.2,1.3,1.7,2.1s0.7,1.9,0.7,3.2c0,2.8-0.9,4.9-2.6,6.4c-1.7,1.5-4.2,2.2-7.5,2.2c-2,0-3.7-0.2-5.2-0.6
			c-1.5-0.4-2.8-1-3.9-1.8L1474.2,735.4z"/>
		<path class="st1" d="M1513,719.6h-7v21.5h-5.8v-21.5h-7v-4.5h19.8V719.6z"/>
		<path class="st1" d="M1524.5,727.6c-0.2-0.1-0.5-0.2-0.9-0.4s-0.9-0.2-1.5-0.2c-0.6,0-1.1,0.1-1.7,0.4c-0.6,0.3-1.1,0.7-1.6,1.4
			v12.2h-5.5v-14.7h-2.3v-3.7h6.9l0.5,2.4c0.8-1,1.6-1.6,2.4-2c0.8-0.4,1.7-0.6,2.7-0.6c0.4,0,0.8,0,1.2,0.1s0.8,0.1,1.2,0.2
			L1524.5,727.6z"/>
		<path class="st1" d="M1536.2,737.7c1,0,1.9-0.1,2.7-0.2c0.8-0.2,1.6-0.4,2.4-0.8l1.6,3.4c-1.1,0.6-2.3,1.1-3.5,1.3
			c-1.2,0.2-2.5,0.3-3.9,0.3c-3.1,0-5.4-0.8-6.8-2.5c-1.4-1.7-2-4.1-2-7.3c0-1.5,0.2-2.8,0.6-4c0.4-1.2,0.9-2.3,1.6-3.1
			c0.7-0.9,1.6-1.6,2.7-2c1.1-0.5,2.4-0.7,3.8-0.7c1.4,0,2.6,0.2,3.6,0.7c1,0.5,1.8,1.1,2.5,2s1.1,1.9,1.4,3.2
			c0.3,1.2,0.5,2.7,0.5,4.2l-1.4,1.5h-9.7c0.2,1.5,0.6,2.6,1.3,3.2S1535.1,737.7,1536.2,737.7z M1538.2,730c0-2.7-0.9-4.1-2.8-4.1
			c-1,0-1.7,0.3-2.2,0.8c-0.5,0.6-0.9,1.6-1,3.2H1538.2z"/>
		<path class="st1" d="M1555.7,737.7c1,0,1.9-0.1,2.7-0.2c0.8-0.2,1.6-0.4,2.4-0.8l1.6,3.4c-1.1,0.6-2.3,1.1-3.5,1.3
			c-1.2,0.2-2.5,0.3-3.9,0.3c-3.1,0-5.4-0.8-6.8-2.5c-1.4-1.7-2-4.1-2-7.3c0-1.5,0.2-2.8,0.6-4c0.4-1.2,0.9-2.3,1.6-3.1
			c0.7-0.9,1.6-1.6,2.7-2c1.1-0.5,2.4-0.7,3.8-0.7c1.4,0,2.6,0.2,3.6,0.7c1,0.5,1.8,1.1,2.5,2s1.1,1.9,1.4,3.2
			c0.3,1.2,0.5,2.7,0.5,4.2l-1.4,1.5h-9.7c0.2,1.5,0.6,2.6,1.3,3.2S1554.6,737.7,1555.7,737.7z M1557.7,730c0-2.7-0.9-4.1-2.8-4.1
			c-1,0-1.7,0.3-2.2,0.8c-0.5,0.6-0.9,1.6-1,3.2H1557.7z"/>
		<path class="st1" d="M1564.7,722.7h3.2v-5.3h5.3v5.3h5.2v3.9h-5.2v7.5c0,0.6,0,1.2,0.1,1.7s0.1,0.8,0.3,1.1s0.3,0.5,0.6,0.6
			c0.3,0.1,0.7,0.2,1.2,0.2c0.5,0,1-0.1,1.5-0.2c0.5-0.2,1-0.3,1.4-0.5l1.2,3.4c-0.7,0.3-1.5,0.6-2.4,0.9c-0.9,0.3-1.8,0.4-2.8,0.4
			c-1.3,0-2.3-0.1-3.2-0.4c-0.9-0.3-1.5-0.7-2-1.3c-0.5-0.6-0.9-1.4-1.1-2.3c-0.2-1-0.3-2.1-0.3-3.6v-7.6h-3V722.7z"/>
	</g>
	<g>
		<path class="st1" d="M1656.5,731.6c-0.2,0-0.4,0.1-0.5,0.2s-0.2,0.3-0.4,0.6l-5.1,9.1l-5.5-1.1l7.2-12.3l-6.2-12.2l5.9-1.2l4,8.7
			c0.2,0.3,0.3,0.6,0.5,0.7c0.1,0.1,0.3,0.2,0.5,0.2c0.2,0,0.4-0.1,0.5-0.2c0.1-0.1,0.3-0.3,0.4-0.6l4.8-8.7l5.4,1.1l-6.6,12
			l6.7,12.5l-6,1.2l-4.5-9c-0.2-0.4-0.3-0.6-0.4-0.7C1656.9,731.7,1656.7,731.6,1656.5,731.6z"/>
		<path class="st1" d="M1676.7,741.1h-5.8v-26h8.8c1.3,0,2.5,0.1,3.6,0.4c1.1,0.3,2.1,0.7,2.9,1.2c0.8,0.6,1.5,1.3,1.9,2.3
			c0.5,0.9,0.7,2.1,0.7,3.5c0,1.8-0.4,3.3-1.3,4.4c-0.9,1.1-2,2-3.3,2.6c0.4,0.3,0.8,0.8,1.2,1.4l5.6,9.9l-6.1,0.8l-4.9-8.9
			c-0.3-0.6-0.7-1-1-1.3s-1-0.5-1.8-0.5h-0.5V741.1z M1678.8,726.6c1.3,0,2.3-0.3,2.9-1s0.8-1.5,0.8-2.7c0-1.2-0.3-2.2-0.9-2.8
			c-0.6-0.6-1.6-0.9-2.9-0.9h-2v7.3H1678.8z"/>
		<path class="st1" d="M1692.3,731.9c0-1.5,0.2-2.9,0.6-4.1c0.4-1.2,0.9-2.3,1.7-3.1c0.7-0.9,1.7-1.5,2.8-2c1.1-0.5,2.4-0.7,3.9-0.7
			c3,0,5.2,0.8,6.6,2.5s2.1,4.1,2.1,7.2c0,1.5-0.2,2.9-0.5,4.1c-0.4,1.2-0.9,2.3-1.7,3.1c-0.7,0.9-1.7,1.5-2.8,2
			c-1.1,0.5-2.4,0.7-4,0.7c-1.6,0-3-0.2-4-0.7c-1.1-0.5-2-1.1-2.7-2c-0.7-0.9-1.2-1.9-1.5-3.1
			C1692.4,734.7,1692.3,733.4,1692.3,731.9z M1701.1,737.7c1.1,0,1.9-0.4,2.4-1.3c0.5-0.9,0.8-2.4,0.8-4.5c0-2.1-0.2-3.6-0.7-4.5
			c-0.5-0.9-1.3-1.4-2.4-1.4c-1.1,0-2,0.5-2.6,1.4c-0.6,0.9-0.9,2.4-0.9,4.6c0,2,0.3,3.5,0.8,4.4
			C1699.1,737.3,1699.9,737.7,1701.1,737.7z"/>
		<path class="st1" d="M1718.2,741.7c-1.8,0-3.2-0.5-4.1-1.5c-1-1-1.5-2.5-1.5-4.3c0-2.2,0.7-3.8,2-4.7c1.3-0.9,3.3-1.4,6-1.4h2.3
			v-0.7c0-1-0.2-1.7-0.6-2.3c-0.4-0.5-1.1-0.8-2.2-0.8c-1.1,0-2,0.1-2.9,0.3c-0.9,0.2-1.7,0.5-2.4,0.8l-1.4-3.5
			c1-0.5,2.2-0.9,3.5-1.1c1.4-0.3,2.6-0.4,3.8-0.4c1.4,0,2.5,0.1,3.4,0.4c0.9,0.3,1.7,0.7,2.2,1.4c0.6,0.6,1,1.4,1.2,2.4
			c0.2,1,0.4,2.2,0.4,3.6v7.3l1.2,2.5l-4.2,2.1l-1.6-2.4c-0.9,0.8-1.8,1.4-2.6,1.8C1720,741.5,1719.1,741.7,1718.2,741.7z
			 M1720,737.7c0.5,0,1-0.1,1.5-0.4c0.6-0.3,1-0.6,1.3-0.9v-3.6h-2.3c-0.9,0-1.6,0.2-2.1,0.5c-0.5,0.3-0.8,1-0.8,2
			c0,0.9,0.2,1.5,0.6,1.9C1718.7,737.6,1719.3,737.7,1720,737.7z"/>
		<path class="st1" d="M1743.3,714.6h5.5v22.9l1,2.3l-4.3,2l-1.7-2.4c-0.8,0.7-1.6,1.3-2.5,1.7c-0.9,0.4-1.8,0.6-2.9,0.6
			c-2.4,0-4.2-0.9-5.3-2.6c-1.2-1.7-1.7-4.2-1.7-7.3c0-1.5,0.2-2.8,0.6-4c0.4-1.2,1-2.2,1.7-3.1c0.8-0.9,1.7-1.5,2.8-2
			c1.1-0.5,2.4-0.7,3.8-0.7c0.5,0,1,0,1.5,0.1s1,0.2,1.5,0.4V714.6z M1740.9,726c-1.3,0-2.3,0.4-3,1.3c-0.7,0.9-1,2.4-1,4.5
			c0,2.2,0.3,3.7,0.8,4.6c0.6,0.9,1.3,1.3,2.3,1.3c0.7,0,1.4-0.2,1.9-0.6c0.5-0.4,1-0.9,1.3-1.3v-9.3c-0.4-0.2-0.8-0.3-1.1-0.4
			C1741.8,726,1741.4,726,1740.9,726z"/>
	</g>
	<line class="st2" x1="1612.1" y1="703.3" x2="1612.1" y2="756"/>
	<g>
		<path class="st1" d="M793.2,953.4c1.3,0.7,2.5,1.3,3.6,1.5c1.1,0.3,2.2,0.4,3.2,0.4c1.6,0,2.7-0.3,3.4-0.9c0.7-0.6,1-1.4,1-2.4
			c0-0.5-0.1-0.9-0.2-1.3c-0.1-0.4-0.4-0.7-0.7-1c-0.4-0.3-0.9-0.5-1.5-0.8c-0.6-0.2-1.5-0.5-2.5-0.7c-1.1-0.3-2.2-0.6-3.1-1
			s-1.7-0.9-2.4-1.4c-0.7-0.6-1.2-1.3-1.6-2.2c-0.4-0.9-0.6-1.9-0.6-3.2c0-2.5,0.8-4.5,2.5-5.9c1.7-1.4,4.1-2.2,7.2-2.2
			c1.6,0,3.1,0.2,4.4,0.5c1.3,0.3,2.6,0.9,3.9,1.6l-2.1,3.8c-0.2-0.1-0.6-0.3-1-0.5c-0.4-0.2-0.9-0.4-1.4-0.6s-1.1-0.3-1.6-0.4
			c-0.6-0.1-1.2-0.2-1.7-0.2c-1.5,0-2.6,0.3-3.3,0.8c-0.6,0.5-1,1.2-1,2.1c0,0.6,0.1,1,0.3,1.4c0.2,0.4,0.5,0.7,0.9,1
			c0.4,0.3,1,0.6,1.7,0.8c0.7,0.2,1.6,0.5,2.6,0.8c0.8,0.2,1.6,0.5,2.5,0.9c0.8,0.3,1.6,0.8,2.3,1.4s1.2,1.3,1.7,2.1
			c0.4,0.9,0.7,1.9,0.7,3.2c0,2.8-0.9,4.9-2.6,6.4c-1.7,1.5-4.2,2.2-7.5,2.2c-2,0-3.7-0.2-5.2-0.6c-1.5-0.4-2.8-1-3.9-1.8
			L793.2,953.4z"/>
		<path class="st1" d="M832,937.6h-7v21.5h-5.8v-21.5h-7v-4.5H832V937.6z"/>
		<path class="st1" d="M843.5,945.6c-0.2-0.1-0.5-0.2-0.9-0.4c-0.4-0.1-0.9-0.2-1.5-0.2c-0.6,0-1.1,0.1-1.7,0.4
			c-0.6,0.3-1.1,0.7-1.6,1.4v12.2h-5.5v-14.7h-2.3v-3.7h6.9l0.5,2.4c0.8-1,1.6-1.6,2.4-2c0.8-0.4,1.7-0.6,2.7-0.6
			c0.4,0,0.8,0,1.2,0.1s0.8,0.1,1.2,0.2L843.5,945.6z"/>
		<path class="st1" d="M855.2,955.7c1,0,1.9-0.1,2.7-0.2c0.8-0.2,1.6-0.4,2.4-0.8l1.6,3.4c-1.1,0.6-2.3,1.1-3.5,1.3
			s-2.5,0.3-3.9,0.3c-3.1,0-5.4-0.8-6.8-2.5c-1.4-1.7-2-4.1-2-7.3c0-1.5,0.2-2.8,0.6-4c0.4-1.2,0.9-2.3,1.6-3.1
			c0.7-0.9,1.6-1.6,2.7-2c1.1-0.5,2.4-0.7,3.8-0.7c1.4,0,2.6,0.2,3.6,0.7c1,0.5,1.8,1.1,2.5,2c0.6,0.9,1.1,1.9,1.4,3.2
			c0.3,1.2,0.4,2.7,0.4,4.2l-1.4,1.5h-9.7c0.2,1.5,0.6,2.6,1.3,3.2C853.1,955.4,854.1,955.7,855.2,955.7z M857.2,948
			c0-2.7-0.9-4.1-2.8-4.1c-1,0-1.7,0.3-2.2,0.8c-0.5,0.6-0.9,1.6-1,3.2H857.2z"/>
		<path class="st1" d="M874.7,955.7c1,0,1.9-0.1,2.7-0.2c0.8-0.2,1.6-0.4,2.4-0.8l1.6,3.4c-1.1,0.6-2.3,1.1-3.5,1.3
			s-2.5,0.3-3.9,0.3c-3.1,0-5.4-0.8-6.8-2.5c-1.4-1.7-2-4.1-2-7.3c0-1.5,0.2-2.8,0.6-4c0.4-1.2,0.9-2.3,1.6-3.1
			c0.7-0.9,1.6-1.6,2.7-2c1.1-0.5,2.4-0.7,3.8-0.7c1.4,0,2.6,0.2,3.6,0.7c1,0.5,1.8,1.1,2.5,2c0.6,0.9,1.1,1.9,1.4,3.2
			c0.3,1.2,0.4,2.7,0.4,4.2l-1.4,1.5h-9.7c0.2,1.5,0.6,2.6,1.3,3.2C872.7,955.4,873.6,955.7,874.7,955.7z M876.7,948
			c0-2.7-0.9-4.1-2.8-4.1c-1,0-1.7,0.3-2.2,0.8c-0.5,0.6-0.9,1.6-1,3.2H876.7z"/>
		<path class="st1" d="M883.7,940.7h3.2v-5.3h5.3v5.3h5.2v3.9h-5.2v7.5c0,0.6,0,1.2,0.1,1.7s0.1,0.8,0.3,1.1s0.3,0.5,0.6,0.6
			c0.3,0.1,0.7,0.2,1.2,0.2c0.5,0,1-0.1,1.5-0.2c0.5-0.2,1-0.3,1.4-0.5l1.2,3.4c-0.7,0.3-1.5,0.6-2.4,0.9c-0.9,0.3-1.8,0.4-2.8,0.4
			c-1.3,0-2.3-0.1-3.2-0.4s-1.5-0.7-2-1.3c-0.5-0.6-0.9-1.4-1.1-2.3c-0.2-1-0.3-2.1-0.3-3.6v-7.6h-3V940.7z"/>
	</g>
	<g>
		<path class="st1" d="M975.5,949.6c-0.2,0-0.4,0.1-0.5,0.2s-0.2,0.3-0.4,0.6l-5.1,9.1l-5.5-1.1l7.2-12.3l-6.2-12.2l5.9-1.2l4,8.7
			c0.2,0.3,0.3,0.6,0.5,0.7c0.1,0.1,0.3,0.2,0.5,0.2c0.2,0,0.4-0.1,0.5-0.2c0.1-0.1,0.3-0.3,0.4-0.6l4.8-8.7l5.4,1.1l-6.6,12
			l6.7,12.5l-6,1.2l-4.5-9c-0.2-0.4-0.3-0.6-0.4-0.7C975.9,949.7,975.7,949.6,975.5,949.6z"/>
		<path class="st1" d="M995.7,959.1h-5.8v-26h8.8c1.3,0,2.5,0.1,3.6,0.4c1.1,0.3,2.1,0.7,2.9,1.2c0.8,0.6,1.5,1.3,1.9,2.3
			c0.5,0.9,0.7,2.1,0.7,3.5c0,1.8-0.4,3.3-1.3,4.4c-0.9,1.1-2,2-3.3,2.6c0.4,0.3,0.8,0.8,1.2,1.4l5.6,9.9l-6.1,0.8l-4.9-8.9
			c-0.3-0.6-0.7-1-1-1.3s-1-0.5-1.8-0.5h-0.5V959.1z M997.8,944.6c1.3,0,2.3-0.3,2.9-1s0.8-1.5,0.8-2.7c0-1.2-0.3-2.2-0.9-2.8
			c-0.6-0.6-1.6-0.9-2.9-0.9h-2v7.3H997.8z"/>
		<path class="st1" d="M1011.3,949.9c0-1.5,0.2-2.9,0.6-4.1c0.4-1.2,0.9-2.3,1.7-3.1c0.7-0.9,1.7-1.5,2.8-2c1.1-0.5,2.4-0.7,3.9-0.7
			c3,0,5.2,0.8,6.6,2.5s2.1,4.1,2.1,7.2c0,1.5-0.2,2.9-0.5,4.1c-0.4,1.2-0.9,2.3-1.7,3.1c-0.7,0.9-1.7,1.5-2.8,2
			c-1.1,0.5-2.4,0.7-4,0.7c-1.6,0-3-0.2-4-0.7c-1.1-0.5-2-1.1-2.7-2c-0.7-0.9-1.2-1.9-1.5-3.1
			C1011.4,952.7,1011.3,951.4,1011.3,949.9z M1020.1,955.7c1.1,0,1.9-0.4,2.4-1.3c0.5-0.9,0.8-2.4,0.8-4.5c0-2.1-0.2-3.6-0.7-4.5
			c-0.5-0.9-1.3-1.4-2.4-1.4c-1.1,0-2,0.5-2.6,1.4c-0.6,0.9-0.9,2.4-0.9,4.6c0,2,0.3,3.5,0.8,4.4
			C1018.1,955.3,1018.9,955.7,1020.1,955.7z"/>
		<path class="st1" d="M1037.2,959.7c-1.8,0-3.2-0.5-4.1-1.5c-1-1-1.5-2.5-1.5-4.3c0-2.2,0.7-3.8,2-4.7c1.3-0.9,3.3-1.4,6-1.4h2.3
			v-0.7c0-1-0.2-1.7-0.6-2.3c-0.4-0.5-1.1-0.8-2.2-0.8c-1.1,0-2,0.1-2.9,0.3c-0.9,0.2-1.7,0.5-2.4,0.8l-1.4-3.5
			c1-0.5,2.2-0.9,3.5-1.1c1.4-0.3,2.6-0.4,3.8-0.4c1.4,0,2.5,0.1,3.4,0.4c0.9,0.3,1.7,0.7,2.2,1.4c0.6,0.6,1,1.4,1.2,2.4
			c0.2,1,0.4,2.2,0.4,3.6v7.3l1.2,2.5l-4.2,2.1l-1.6-2.4c-0.9,0.8-1.8,1.4-2.6,1.8C1039,959.5,1038.1,959.7,1037.2,959.7z
			 M1039,955.7c0.5,0,1-0.1,1.5-0.4c0.6-0.3,1-0.6,1.3-0.9v-3.6h-2.3c-0.9,0-1.6,0.2-2.1,0.5c-0.5,0.3-0.8,1-0.8,2
			c0,0.9,0.2,1.5,0.6,1.9C1037.7,955.6,1038.3,955.7,1039,955.7z"/>
		<path class="st1" d="M1062.3,932.6h5.5v22.9l1,2.3l-4.3,2l-1.7-2.4c-0.8,0.7-1.6,1.3-2.5,1.7c-0.9,0.4-1.8,0.6-2.9,0.6
			c-2.4,0-4.2-0.9-5.3-2.6c-1.2-1.7-1.7-4.2-1.7-7.3c0-1.5,0.2-2.8,0.6-4c0.4-1.2,1-2.2,1.7-3.1c0.8-0.9,1.7-1.5,2.8-2
			c1.1-0.5,2.4-0.7,3.8-0.7c0.5,0,1,0,1.5,0.1s1,0.2,1.5,0.4V932.6z M1059.9,944c-1.3,0-2.3,0.4-3,1.3c-0.7,0.9-1,2.4-1,4.5
			c0,2.2,0.3,3.7,0.8,4.6c0.6,0.9,1.3,1.3,2.3,1.3c0.7,0,1.4-0.2,1.9-0.6c0.5-0.4,1-0.9,1.3-1.3v-9.3c-0.4-0.2-0.8-0.3-1.1-0.4
			C1060.8,944,1060.4,944,1059.9,944z"/>
	</g>
	<line class="st2" x1="931.1" y1="921.3" x2="931.1" y2="974"/>
</g>
</svg>
