<?xml version="1.0" encoding="utf-8"?>
<!-- Generator: Adobe Illustrator 19.2.1, SVG Export Plug-In . SVG Version: 6.00 Build 0)  -->
<!DOCTYPE svg PUBLIC "-//W3C//DTD SVG 1.1//EN" "http://www.w3.org/Graphics/SVG/1.1/DTD/svg11.dtd">
<svg version="1.1" id="Layer_1" xmlns="http://www.w3.org/2000/svg" xmlns:xlink="http://www.w3.org/1999/xlink" x="0px" y="0px"
	 viewBox="0 0 165 27.2" style="enable-background:new 0 0 165 27.2;" xml:space="preserve">
<style type="text/css">
	.st0{fill:#EB2030;}
</style>
<g>
	<g>
		<path class="st0" d="M11.5,17.1c-0.2,0-0.4,0.1-0.5,0.2c-0.1,0.1-0.2,0.3-0.4,0.6L5.5,27L0,25.9l7.2-12.3L1,1.4l5.9-1.2l4,8.7
			c0.2,0.3,0.3,0.6,0.5,0.7c0.1,0.1,0.3,0.2,0.5,0.2c0.2,0,0.4-0.1,0.5-0.2c0.1-0.1,0.3-0.3,0.4-0.6l4.8-8.7L23,1.3l-6.6,12
			l6.7,12.5L17,27l-4.5-9c-0.2-0.4-0.3-0.6-0.4-0.7C11.9,17.1,11.8,17.1,11.5,17.1z"/>
		<path class="st0" d="M31.7,26.5H26v-26h8.8c1.3,0,2.5,0.1,3.6,0.4s2.1,0.7,2.9,1.2c0.8,0.6,1.5,1.3,1.9,2.3
			c0.5,0.9,0.7,2.1,0.7,3.5c0,1.8-0.4,3.3-1.3,4.4c-0.9,1.1-2,2-3.3,2.6c0.4,0.3,0.8,0.8,1.2,1.4l5.6,9.9L40,27l-4.9-8.9
			c-0.3-0.6-0.7-1-1-1.3c-0.4-0.3-1-0.5-1.8-0.5h-0.5V26.5z M33.9,12c1.3,0,2.3-0.3,2.9-1s0.8-1.5,0.8-2.7c0-1.2-0.3-2.2-0.9-2.8
			c-0.6-0.6-1.6-0.9-2.9-0.9h-2V12H33.9z"/>
		<path class="st0" d="M47.3,17.4c0-1.5,0.2-2.9,0.6-4.1c0.4-1.2,0.9-2.3,1.7-3.1c0.7-0.9,1.7-1.5,2.8-2c1.1-0.5,2.4-0.7,3.9-0.7
			c3,0,5.2,0.8,6.6,2.5c1.4,1.7,2.1,4.1,2.1,7.2c0,1.5-0.2,2.9-0.5,4.1c-0.4,1.2-0.9,2.3-1.7,3.1c-0.7,0.9-1.7,1.5-2.8,2
			c-1.1,0.5-2.4,0.7-4,0.7c-1.6,0-3-0.2-4.1-0.7c-1.1-0.5-2-1.1-2.7-2c-0.7-0.9-1.2-1.9-1.5-3.1C47.5,20.1,47.3,18.8,47.3,17.4z
			 M56.1,23.2c1.1,0,1.9-0.4,2.4-1.3c0.5-0.9,0.8-2.4,0.8-4.5c0-2.1-0.2-3.6-0.7-4.5c-0.5-0.9-1.3-1.4-2.4-1.4c-1.1,0-2,0.5-2.6,1.4
			s-0.9,2.4-0.9,4.6c0,2,0.3,3.5,0.8,4.4C54.1,22.7,55,23.2,56.1,23.2z"/>
		<path class="st0" d="M73.2,27.1c-1.8,0-3.2-0.5-4.1-1.5c-1-1-1.5-2.5-1.5-4.3c0-2.2,0.7-3.8,2-4.7c1.3-0.9,3.3-1.4,6-1.4h2.3v-0.7
			c0-1-0.2-1.7-0.6-2.3c-0.4-0.5-1.1-0.8-2.2-0.8c-1.1,0-2,0.1-2.9,0.3c-0.9,0.2-1.7,0.5-2.4,0.8L68.4,9c1-0.5,2.2-0.9,3.5-1.1
			s2.6-0.4,3.8-0.4c1.4,0,2.5,0.1,3.4,0.4s1.7,0.7,2.2,1.4c0.6,0.6,1,1.4,1.2,2.4c0.2,1,0.4,2.2,0.4,3.6v7.3l1.2,2.5L80,27.1
			l-1.6-2.4c-0.9,0.8-1.8,1.4-2.6,1.8C75,26.9,74.2,27.1,73.2,27.1z M75.1,23.2c0.5,0,1-0.1,1.5-0.4s1-0.6,1.3-0.9v-3.6h-2.3
			c-0.9,0-1.6,0.2-2.1,0.5c-0.5,0.3-0.8,1-0.8,2c0,0.9,0.2,1.5,0.6,1.9S74.3,23.2,75.1,23.2z"/>
		<path class="st0" d="M98.3,0h5.5v22.9l1,2.3l-4.3,2l-1.7-2.4c-0.8,0.7-1.6,1.3-2.5,1.7c-0.9,0.4-1.8,0.6-2.9,0.6
			c-2.4,0-4.2-0.9-5.3-2.6s-1.7-4.2-1.7-7.3c0-1.5,0.2-2.8,0.6-4c0.4-1.2,1-2.2,1.7-3.1s1.7-1.5,2.8-2c1.1-0.5,2.4-0.7,3.8-0.7
			c0.5,0,1,0,1.5,0.1c0.5,0.1,1,0.2,1.5,0.4V0z M96,11.4c-1.3,0-2.3,0.4-3,1.3c-0.7,0.9-1,2.4-1,4.5c0,2.2,0.3,3.7,0.8,4.6
			c0.6,0.9,1.3,1.3,2.3,1.3c0.7,0,1.4-0.2,1.9-0.6c0.5-0.4,1-0.9,1.3-1.3v-9.3c-0.4-0.2-0.8-0.3-1.1-0.4
			C96.8,11.5,96.4,11.4,96,11.4z"/>
		<path class="st0" d="M115.3,3.6c1.2-0.8,2.5-1.6,4.1-2.2c1.5-0.6,3.2-0.9,5.1-0.9c1.6,0,2.9,0.2,4,0.6c1.1,0.4,1.9,0.9,2.5,1.6
			c0.6,0.7,1,1.4,1.3,2.3c0.3,0.9,0.4,1.8,0.4,2.7c0,1.7-0.5,3.2-1.4,4.6c-0.9,1.4-2.1,2.8-3.7,4.2l-4.8,4.5
			c-0.2,0.2-0.4,0.3-0.5,0.5c-0.1,0.1-0.1,0.2-0.1,0.3c0,0.1,0,0.2,0.1,0.3c0,0.1,0.2,0.1,0.4,0.1h10.4v4.3h-14.1
			c-1.1,0-2-0.2-2.6-0.6c-0.6-0.4-1-1.2-1-2.4c0-0.7,0.2-1.4,0.6-2.1s1-1.3,1.8-2.1l6.6-6.2c0.6-0.6,1.1-1.1,1.5-1.6
			c0.4-0.5,0.7-0.9,0.9-1.4s0.4-0.8,0.5-1.2s0.1-0.8,0.1-1.2c0-1-0.3-1.7-0.9-2.2C125.8,5,125,4.7,124,4.7c-0.8,0-1.8,0.2-3,0.6
			c-1.2,0.4-2.3,1-3.3,1.7L115.3,3.6z"/>
		<path class="st0" d="M139.9,27.1c-1.1,0-1.9-0.3-2.4-1c-0.5-0.6-0.8-1.4-0.8-2.4c0-1,0.3-1.8,0.8-2.5s1.3-1,2.4-1
			c1.1,0,1.9,0.3,2.5,1s0.8,1.5,0.8,2.5c0,1-0.3,1.8-0.8,2.4C141.8,26.8,141,27.1,139.9,27.1z"/>
		<path class="st0" d="M155.6,27c-1.7,0-3.1-0.3-4.3-0.9s-2.2-1.4-3-2.6c-0.8-1.1-1.4-2.5-1.7-4.1c-0.4-1.6-0.5-3.5-0.5-5.5
			c0-2.1,0.2-4,0.6-5.6c0.4-1.6,0.9-3,1.7-4.2c0.8-1.1,1.8-2,3-2.6c1.2-0.6,2.6-0.9,4.3-0.9c1.7,0,3.1,0.3,4.3,0.9
			c1.2,0.6,2.2,1.5,2.9,2.6c0.8,1.1,1.3,2.5,1.7,4.2c0.3,1.6,0.5,3.5,0.5,5.6c0,2-0.2,3.9-0.5,5.5s-0.9,3-1.7,4.1
			c-0.8,1.1-1.7,2-2.9,2.6C158.7,26.7,157.2,27,155.6,27z M155.6,23c0.6,0,1-0.1,1.5-0.3c0.4-0.2,0.8-0.7,1.1-1.4
			c0.3-0.7,0.5-1.6,0.6-2.8c0.1-1.2,0.2-2.8,0.2-4.8c0-1.9-0.1-3.4-0.2-4.6c-0.1-1.2-0.4-2.1-0.6-2.8c-0.3-0.7-0.6-1.2-1-1.4
			c-0.4-0.3-0.9-0.4-1.5-0.4c-0.5,0-0.9,0.1-1.4,0.3c-0.4,0.2-0.8,0.6-1.1,1.3c-0.3,0.6-0.6,1.6-0.7,2.8c-0.2,1.2-0.3,2.8-0.3,4.8
			c0,2,0.1,3.6,0.3,4.8c0.2,1.2,0.4,2.2,0.7,2.8c0.3,0.7,0.7,1.1,1.1,1.4C154.6,22.9,155,23,155.6,23z"/>
	</g>
</g>
</svg>
