<?xml version="1.0" encoding="utf-8"?>
<!-- Generator: Adobe Illustrator 19.2.1, SVG Export Plug-In . SVG Version: 6.00 Build 0)  -->
<!DOCTYPE svg PUBLIC "-//W3C//DTD SVG 1.1//EN" "http://www.w3.org/Graphics/SVG/1.1/DTD/svg11.dtd">
<svg version="1.1" id="Layer_1" xmlns="http://www.w3.org/2000/svg" xmlns:xlink="http://www.w3.org/1999/xlink" x="0px" y="0px"
	 viewBox="0 0 191.4 27.1" style="enable-background:new 0 0 191.4 27.1;" xml:space="preserve">
<style type="text/css">
	.st0{fill:#616161;}
</style>
<g>
	<path class="st0" d="M0,0.5h8c1.2,0,2.4,0.1,3.4,0.4s1.9,0.6,2.7,1.2c0.8,0.5,1.4,1.2,1.8,2.1c0.4,0.9,0.6,1.9,0.6,3.1
		c0,1.1-0.3,2.1-0.9,3.1s-1.5,1.7-2.6,2.3c1.6,0.6,2.7,1.4,3.5,2.5c0.8,1.1,1.2,2.4,1.2,4c0,1.2-0.2,2.3-0.6,3.2
		c-0.4,0.9-1,1.7-1.8,2.3c-0.8,0.6-1.7,1.1-2.7,1.4c-1,0.3-2.2,0.5-3.4,0.5H0V0.5z M8.5,11.8c0.8,0,1.4-0.1,2-0.4
		c0.6-0.2,1-0.6,1.4-1c0.4-0.4,0.6-0.9,0.8-1.4S13,8,13,7.5c0-1.6-0.4-2.7-1.3-3.4c-0.9-0.7-2.3-1-4.2-1H3.5v8.7H8.5z M8.6,23.9
		c1.9,0,3.3-0.4,4.2-1.2c0.9-0.8,1.4-2,1.4-3.7c0-0.9-0.2-1.7-0.5-2.3s-0.8-1.1-1.4-1.4c-0.6-0.3-1.2-0.5-1.9-0.7S9,14.5,8.4,14.5
		H3.5v9.4H8.6z"/>
	<path class="st0" d="M22.2,2.4H20V0h5.6v26.5h-3.3V2.4z"/>
	<path class="st0" d="M41.5,25c-0.7,0.6-1.5,1-2.3,1.5c-0.9,0.4-2,0.6-3.3,0.6c-1.8,0-3.2-0.5-4.3-1.4c-1.1-0.9-1.6-2.4-1.6-4.4
		c0-1.1,0.2-2,0.6-2.7c0.4-0.7,0.9-1.3,1.6-1.8s1.5-0.8,2.4-1c0.9-0.2,2-0.3,3.1-0.3h3.1v-0.9c0-1.5-0.2-2.6-0.7-3.3
		c-0.5-0.7-1.4-1-2.7-1c-1.7,0-3.5,0.4-5.3,1.1l-0.8-2.2c0.7-0.3,1.6-0.6,2.7-0.9s2.4-0.5,3.9-0.5c1.4,0,2.5,0.2,3.3,0.6
		C42,8.7,42.6,9.3,43,9.9c0.4,0.7,0.7,1.5,0.8,2.4c0.1,0.9,0.2,1.9,0.2,2.9V23l1.5,2.3L43.2,27L41.5,25z M40.8,17.7h-2.9
		c-1.7,0-2.8,0.3-3.5,0.8c-0.7,0.5-1,1.4-1,2.7c0,1.2,0.3,2,0.8,2.6c0.5,0.6,1.3,0.8,2.2,0.8c1.1,0,2-0.2,2.7-0.6
		c0.8-0.4,1.3-0.8,1.7-1.2V17.7z"/>
	<path class="st0" d="M50,12.2l-1.4-3.1l2.7-1.4l1.5,2.4c1.1-0.8,2.1-1.4,3.1-1.8c1-0.4,2-0.5,3.1-0.5c1.2,0,2.2,0.2,3,0.6
		s1.4,0.9,1.9,1.5c0.5,0.6,0.8,1.4,1,2.2c0.2,0.9,0.3,1.7,0.3,2.7v11.7h-3.3V14.9c0-1.5-0.3-2.6-0.9-3.3c-0.6-0.7-1.5-1-2.8-1
		c-0.9,0-1.8,0.2-2.6,0.5c-0.8,0.3-1.5,0.7-2.1,1.2v14.1H50V12.2z"/>
	<path class="st0" d="M84.1,25.7c-0.6,0.4-1.5,0.7-2.4,1c-1,0.3-2.1,0.5-3.4,0.5c-1.6,0-3-0.2-4.1-0.7c-1.1-0.5-1.9-1.1-2.6-1.9
		c-0.6-0.8-1.1-1.8-1.4-3c-0.3-1.2-0.4-2.5-0.4-3.9c0-1.4,0.2-2.7,0.5-3.9c0.3-1.2,0.9-2.2,1.6-3.1s1.6-1.6,2.7-2.1
		C75.7,8,77,7.8,78.5,7.8c1.1,0,2.1,0.1,3,0.4s1.7,0.6,2.4,1l-1,2.2c-0.6-0.3-1.3-0.6-2.1-0.8c-0.7-0.2-1.5-0.3-2.4-0.3
		c-1.8,0-3.1,0.6-3.9,1.8s-1.2,3.1-1.2,5.5c0,1.1,0.1,2,0.3,2.9c0.2,0.9,0.5,1.6,0.9,2.2c0.4,0.6,0.9,1.1,1.6,1.4
		c0.7,0.3,1.5,0.5,2.5,0.5c0.8,0,1.5-0.1,2.2-0.2c0.7-0.1,1.4-0.4,2.4-0.9L84.1,25.7z"/>
	<path class="st0" d="M94.5,27.1c-1.5,0-2.8-0.2-3.9-0.7c-1-0.5-1.9-1.2-2.5-2s-1.1-1.9-1.3-3.1c-0.3-1.2-0.4-2.5-0.4-3.9
		c0-1.4,0.2-2.7,0.5-3.9c0.3-1.2,0.8-2.2,1.5-3.1C89.1,9.6,90,9,91,8.5c1-0.5,2.2-0.7,3.6-0.7c1.4,0,2.7,0.2,3.7,0.7
		c1,0.5,1.9,1.1,2.5,2s1.1,1.9,1.5,3.1c0.3,1.2,0.5,2.5,0.5,3.9c0,1.4-0.2,2.7-0.5,3.9c-0.3,1.2-0.8,2.2-1.5,3.1
		c-0.7,0.9-1.5,1.5-2.6,2C97.3,26.9,96,27.1,94.5,27.1z M94.6,24.7c1.7,0,2.9-0.6,3.7-1.9s1.1-3.1,1.1-5.4c0-2.3-0.4-4-1.1-5.3
		c-0.7-1.2-1.9-1.9-3.7-1.9c-1.8,0-3,0.6-3.7,1.8c-0.7,1.2-1.1,3-1.1,5.4c0,1.1,0.1,2.1,0.3,3s0.4,1.7,0.8,2.3s0.9,1.1,1.5,1.4
		C93,24.6,93.8,24.7,94.6,24.7z"/>
	<path class="st0" d="M114.9,0.5h7.9c1.2,0,2.4,0.1,3.5,0.4s2,0.7,2.8,1.2c0.8,0.6,1.4,1.4,1.9,2.3c0.5,1,0.7,2.2,0.7,3.7
		c0,1-0.2,2-0.6,2.9c-0.4,0.9-0.9,1.8-1.7,2.5c-0.7,0.7-1.7,1.3-2.8,1.8c-1.1,0.5-2.4,0.7-3.9,0.7h-4.4v10.4h-3.5V0.5z M122.2,13.4
		c2,0,3.5-0.4,4.4-1.2c0.9-0.8,1.4-2.1,1.4-3.9c0-1-0.1-1.9-0.4-2.6c-0.3-0.7-0.7-1.2-1.2-1.6c-0.5-0.4-1.1-0.6-1.8-0.8
		c-0.7-0.1-1.5-0.2-2.4-0.2h-3.8v10.3H122.2z"/>
	<path class="st0" d="M148.8,25.7c-0.6,0.3-1.4,0.7-2.5,1s-2.2,0.5-3.4,0.5c-1.7,0-3-0.2-4.1-0.7c-1.1-0.5-2-1.1-2.6-2
		s-1.1-1.9-1.4-3c-0.3-1.2-0.4-2.5-0.4-3.9c0-1.3,0.2-2.6,0.5-3.7c0.3-1.2,0.8-2.2,1.4-3.1c0.6-0.9,1.5-1.6,2.5-2.1
		c1-0.5,2.2-0.8,3.6-0.8c1.3,0,2.5,0.3,3.4,0.8c0.9,0.6,1.7,1.3,2.2,2.1s1,1.9,1.2,3c0.3,1.1,0.4,2.2,0.4,3.3l-1.2,1.3h-10.7
		c0.1,2.1,0.6,3.7,1.4,4.7c0.8,1,2.1,1.5,3.9,1.5c0.9,0,1.8-0.1,2.6-0.3c0.8-0.2,1.6-0.5,2.3-0.8L148.8,25.7z M146.1,16
		c0-1.9-0.3-3.4-1-4.4c-0.7-1-1.7-1.5-3.1-1.5c-1.5,0-2.5,0.5-3.2,1.5s-1,2.5-1.1,4.3H146.1z"/>
	<path class="st0" d="M154.5,10.8h-2.2V8.4h4.6l0.6,2.3c0.3-0.3,0.6-0.7,1-1c0.3-0.3,0.7-0.6,1.1-0.8c0.4-0.2,0.9-0.4,1.4-0.5
		c0.5-0.1,1.1-0.2,1.8-0.2c0.9,0,1.6,0.1,2.3,0.3l-0.9,3c-0.3-0.1-0.6-0.2-1-0.3c-0.4,0-0.7-0.1-1-0.1c-1.8,0-3.2,0.6-4.2,1.8v13.4
		h-3.3V10.8z"/>
	<path class="st0" d="M168,2.4h-2.2V0h5.6v26.5H168V2.4z"/>
	<path class="st0" d="M187.3,25c-0.7,0.6-1.5,1-2.3,1.5c-0.9,0.4-2,0.6-3.3,0.6c-1.8,0-3.2-0.5-4.3-1.4c-1.1-0.9-1.6-2.4-1.6-4.4
		c0-1.1,0.2-2,0.6-2.7c0.4-0.7,0.9-1.3,1.6-1.8s1.5-0.8,2.4-1c0.9-0.2,2-0.3,3.1-0.3h3.1v-0.9c0-1.5-0.2-2.6-0.7-3.3
		c-0.5-0.7-1.4-1-2.7-1c-1.7,0-3.5,0.4-5.3,1.1l-0.8-2.2c0.7-0.3,1.6-0.6,2.7-0.9s2.4-0.5,3.9-0.5c1.4,0,2.5,0.2,3.3,0.6
		c0.8,0.4,1.4,0.9,1.9,1.6c0.4,0.7,0.7,1.5,0.8,2.4c0.1,0.9,0.2,1.9,0.2,2.9V23l1.5,2.3L189,27L187.3,25z M186.6,17.7h-2.9
		c-1.7,0-2.8,0.3-3.5,0.8c-0.7,0.5-1,1.4-1,2.7c0,1.2,0.3,2,0.8,2.6c0.5,0.6,1.3,0.8,2.2,0.8c1.1,0,2-0.2,2.7-0.6
		c0.8-0.4,1.3-0.8,1.7-1.2V17.7z"/>
</g>
</svg>
