<?xml version="1.0" encoding="utf-8"?>
<!-- Generator: Adobe Illustrator 19.2.1, SVG Export Plug-In . SVG Version: 6.00 Build 0)  -->
<!DOCTYPE svg PUBLIC "-//W3C//DTD SVG 1.1//EN" "http://www.w3.org/Graphics/SVG/1.1/DTD/svg11.dtd">
<svg version="1.1" id="Layer_1" xmlns="http://www.w3.org/2000/svg" xmlns:xlink="http://www.w3.org/1999/xlink" x="0px" y="0px"
	 viewBox="0 0 897.7 24.5" style="enable-background:new 0 0 897.7 24.5;" xml:space="preserve">
<style type="text/css">
	.st0{fill:#58595B;}
</style>
<g>
	<path class="st0" d="M0,1.8h2.4v17.3H0V1.8z"/>
	<path class="st0" d="M6.6,9.6l-0.9-2l1.8-0.9l1,1.6c0.7-0.6,1.3-1,1.9-1.2c0.6-0.2,1.2-0.3,1.7-0.3c0.9,0,1.5,0.1,2,0.4
		s0.8,0.6,1.1,1.1c0.7-0.6,1.4-1,2.1-1.2c0.7-0.2,1.3-0.3,1.7-0.3c0.8,0,1.5,0.1,2,0.4s0.9,0.6,1.2,1s0.4,0.9,0.5,1.5
		c0.1,0.6,0.1,1.2,0.1,1.8v7.8h-2.2v-7.8c0-0.9-0.1-1.6-0.4-2.1c-0.3-0.4-0.8-0.7-1.6-0.7c-0.5,0-0.9,0.1-1.4,0.3s-1,0.5-1.4,0.8
		c0,0.2,0.1,0.5,0.1,0.8c0,0.3,0,0.6,0,0.9v7.8h-2.2v-7.9c0-0.9-0.1-1.6-0.4-2c-0.3-0.4-0.8-0.7-1.6-0.7c-0.4,0-0.9,0.1-1.4,0.3
		C9.7,9,9.2,9.3,8.8,9.6v9.5H6.6V9.6z"/>
	<path class="st0" d="M33.4,18.1c-0.5,0.4-1,0.7-1.6,1c-0.6,0.3-1.3,0.4-2.2,0.4c-1.2,0-2.1-0.3-2.9-0.9s-1.1-1.6-1.1-2.9
		c0-0.7,0.1-1.3,0.4-1.8c0.2-0.5,0.6-0.9,1-1.2c0.4-0.3,1-0.5,1.6-0.7c0.6-0.1,1.3-0.2,2.1-0.2h2.1v-0.6c0-1-0.2-1.7-0.5-2.2
		c-0.3-0.4-0.9-0.7-1.8-0.7c-1.2,0-2.3,0.2-3.5,0.7l-0.6-1.5C27,7.4,27.6,7.2,28.3,7c0.7-0.2,1.6-0.3,2.6-0.3c0.9,0,1.7,0.1,2.2,0.4
		c0.5,0.3,1,0.6,1.2,1.1c0.3,0.4,0.5,1,0.5,1.6c0.1,0.6,0.1,1.3,0.1,1.9v5.2l1,1.5l-1.6,1.2L33.4,18.1z M32.9,13.2H31
		c-1.1,0-1.9,0.2-2.4,0.5c-0.5,0.3-0.7,0.9-0.7,1.8c0,0.8,0.2,1.4,0.5,1.7s0.8,0.6,1.5,0.6c0.7,0,1.3-0.1,1.8-0.4s0.9-0.5,1.1-0.8
		V13.2z M32.1,0l1.8,1.2l-3.4,3.9l-1.1-0.8L32.1,0z"/>
	<path class="st0" d="M39.6,22c0.4,0.2,0.9,0.4,1.5,0.6c0.5,0.2,1.2,0.3,2,0.3c1.3,0,2.1-0.3,2.6-0.9c0.5-0.6,0.7-1.5,0.7-2.7v-0.5
		c-0.4,0.2-0.8,0.3-1.3,0.5c-0.4,0.1-0.9,0.2-1.4,0.2c-1.8,0-3.1-0.5-4-1.5s-1.3-2.6-1.3-4.7c0-0.9,0.1-1.7,0.3-2.5s0.4-1.5,0.8-2.1
		C39.8,8,40.4,7.5,41,7.2s1.5-0.5,2.4-0.5c0.4,0,0.8,0,1.1,0.1c0.3,0.1,0.7,0.2,0.9,0.3c0.3,0.1,0.5,0.3,0.7,0.4
		c0.2,0.2,0.4,0.3,0.5,0.4l1-1.4l1.8,0.9l-0.9,2v10.1c0,1.5-0.4,2.7-1.3,3.6c-0.9,0.9-2.2,1.3-4.1,1.3c-0.8,0-1.6-0.1-2.3-0.2
		c-0.7-0.1-1.4-0.4-1.9-0.7L39.6,22z M46.3,9.5c-0.3-0.3-0.6-0.5-1-0.8c-0.4-0.3-1-0.4-1.7-0.4c-1,0-1.7,0.4-2.2,1.2
		c-0.5,0.8-0.8,2-0.8,3.7c0,1.5,0.2,2.6,0.7,3.4c0.5,0.8,1.3,1.2,2.4,1.2c0.5,0,1-0.1,1.3-0.2c0.4-0.1,0.8-0.3,1.2-0.5V9.5z"/>
	<path class="st0" d="M61.6,18.6c-0.4,0.2-0.9,0.4-1.7,0.6c-0.7,0.2-1.5,0.3-2.3,0.3c-1.1,0-2-0.2-2.8-0.5c-0.7-0.3-1.3-0.7-1.8-1.3
		c-0.4-0.6-0.8-1.2-0.9-2c-0.2-0.8-0.3-1.7-0.3-2.6c0-0.9,0.1-1.7,0.3-2.5c0.2-0.8,0.5-1.5,1-2.1c0.4-0.6,1-1,1.7-1.4
		c0.7-0.3,1.5-0.5,2.4-0.5c0.9,0,1.7,0.2,2.3,0.6C60.1,7.6,60.6,8,61,8.6s0.6,1.2,0.8,2c0.2,0.7,0.3,1.5,0.3,2.2l-0.8,0.8h-7.1
		c0.1,1.4,0.4,2.5,0.9,3.1c0.6,0.7,1.4,1,2.6,1c0.6,0,1.2-0.1,1.7-0.2c0.5-0.1,1.1-0.3,1.5-0.5L61.6,18.6z M59.8,12.1
		c0-1.3-0.2-2.2-0.7-2.9s-1.2-1-2.1-1c-1,0-1.7,0.3-2.1,1s-0.7,1.6-0.7,2.9H59.8z"/>
	<path class="st0" d="M65.3,9.6l-0.9-2l1.8-0.9l1,1.6c0.7-0.5,1.4-0.9,2-1.2c0.6-0.2,1.3-0.4,2-0.4c0.8,0,1.5,0.1,2,0.4s1,0.6,1.3,1
		s0.5,0.9,0.7,1.5c0.1,0.6,0.2,1.2,0.2,1.8v7.8h-2.2v-7.7c0-1-0.2-1.7-0.6-2.2c-0.4-0.4-1-0.7-1.8-0.7c-0.6,0-1.2,0.1-1.7,0.3
		c-0.6,0.2-1,0.5-1.4,0.8v9.4h-2.2V9.6z"/>
	<path class="st0" d="M88.2,18.6c-0.4,0.2-0.9,0.4-1.7,0.6c-0.7,0.2-1.5,0.3-2.3,0.3c-1.1,0-2-0.2-2.8-0.5c-0.7-0.3-1.3-0.7-1.8-1.3
		c-0.4-0.6-0.8-1.2-0.9-2c-0.2-0.8-0.3-1.7-0.3-2.6c0-0.9,0.1-1.7,0.3-2.5c0.2-0.8,0.5-1.5,1-2.1c0.4-0.6,1-1,1.7-1.4
		c0.7-0.3,1.5-0.5,2.4-0.5c0.9,0,1.7,0.2,2.3,0.6c0.6,0.4,1.1,0.8,1.5,1.4s0.6,1.2,0.8,2c0.2,0.7,0.3,1.5,0.3,2.2l-0.8,0.8h-7.1
		c0.1,1.4,0.4,2.5,0.9,3.1c0.6,0.7,1.4,1,2.6,1c0.6,0,1.2-0.1,1.7-0.2c0.5-0.1,1.1-0.3,1.5-0.5L88.2,18.6z M86.4,12.1
		c0-1.3-0.2-2.2-0.7-2.9s-1.2-1-2.1-1c-1,0-1.7,0.3-2.1,1s-0.7,1.6-0.7,2.9H86.4z"/>
	<path class="st0" d="M91.3,16.8c0.4,0.2,0.9,0.4,1.5,0.7s1.4,0.4,2.2,0.4c0.8,0,1.5-0.1,2-0.4s0.7-0.8,0.7-1.4
		c0-0.4-0.1-0.7-0.2-0.9c-0.2-0.2-0.4-0.4-0.6-0.6c-0.3-0.2-0.6-0.3-0.9-0.4c-0.4-0.1-0.7-0.2-1.1-0.3c-0.4-0.1-0.9-0.2-1.3-0.4
		c-0.4-0.2-0.8-0.4-1.2-0.6c-0.3-0.3-0.6-0.6-0.8-1c-0.2-0.4-0.3-0.9-0.3-1.5c0-0.5,0.1-1,0.3-1.5c0.2-0.4,0.5-0.8,0.9-1.2
		s0.9-0.6,1.4-0.8s1.2-0.3,2-0.3c0.8,0,1.5,0.1,2.2,0.3s1.2,0.4,1.7,0.7L98.8,9c-1-0.5-2.1-0.8-3.2-0.8c-0.8,0-1.4,0.1-1.8,0.4
		c-0.4,0.3-0.7,0.7-0.7,1.3c0,0.4,0.1,0.6,0.2,0.9c0.1,0.2,0.3,0.4,0.6,0.6s0.5,0.3,0.9,0.4c0.3,0.1,0.7,0.2,1,0.3
		c0.4,0.1,0.9,0.3,1.3,0.4s0.9,0.3,1.3,0.6c0.4,0.3,0.7,0.6,0.9,1s0.4,1,0.4,1.6c0,1.2-0.4,2.1-1.1,2.8c-0.8,0.7-1.9,1-3.5,1
		c-1.1,0-2-0.1-2.7-0.4c-0.8-0.3-1.3-0.5-1.7-0.8L91.3,16.8z"/>
	<path class="st0" d="M115.4,18.2c-0.5,0.4-1,0.7-1.6,0.9s-1.3,0.4-2.1,0.4c-1.6,0-2.9-0.5-3.7-1.6c-0.8-1.1-1.2-2.7-1.2-4.8
		c0-1,0.1-1.8,0.4-2.6s0.6-1.5,1.1-2c0.5-0.6,1.1-1,1.8-1.3c0.7-0.3,1.6-0.5,2.5-0.5c0.4,0,0.8,0,1.2,0.1c0.4,0.1,0.7,0.1,1,0.2V1.4
		h2.2v15.3l1,1.5l-1.6,1.2L115.4,18.2z M114.8,8.6c-0.2-0.1-0.5-0.2-0.9-0.2c-0.4-0.1-0.8-0.1-1.3-0.1c-1.2,0-2.1,0.4-2.7,1.2
		c-0.6,0.8-0.9,2-0.9,3.6c0,1.5,0.2,2.7,0.7,3.5c0.5,0.8,1.2,1.3,2.3,1.3c0.7,0,1.2-0.1,1.6-0.3c0.4-0.2,0.8-0.5,1.1-0.8V8.6z"/>
	<path class="st0" d="M130.1,18.6c-0.4,0.2-0.9,0.4-1.7,0.6c-0.7,0.2-1.5,0.3-2.3,0.3c-1.1,0-2-0.2-2.8-0.5
		c-0.7-0.3-1.3-0.7-1.8-1.3c-0.4-0.6-0.8-1.2-0.9-2c-0.2-0.8-0.3-1.7-0.3-2.6c0-0.9,0.1-1.7,0.3-2.5c0.2-0.8,0.5-1.5,1-2.1
		c0.4-0.6,1-1,1.7-1.4c0.7-0.3,1.5-0.5,2.4-0.5c0.9,0,1.7,0.2,2.3,0.6c0.6,0.4,1.1,0.8,1.5,1.4s0.6,1.2,0.8,2
		c0.2,0.7,0.3,1.5,0.3,2.2l-0.8,0.8h-7.1c0.1,1.4,0.4,2.5,0.9,3.1c0.6,0.7,1.4,1,2.6,1c0.6,0,1.2-0.1,1.7-0.2
		c0.5-0.1,1.1-0.3,1.5-0.5L130.1,18.6z M128.3,12.1c0-1.3-0.2-2.2-0.7-2.9s-1.2-1-2.1-1c-1,0-1.7,0.3-2.1,1s-0.7,1.6-0.7,2.9H128.3z
		"/>
	<path class="st0" d="M138.6,8.7h-1.5V7.1h3.1l0.4,1.6c0.2-0.2,0.4-0.4,0.6-0.6c0.2-0.2,0.5-0.4,0.7-0.5c0.3-0.2,0.6-0.3,0.9-0.4
		c0.3-0.1,0.7-0.1,1.2-0.1c0.6,0,1.1,0.1,1.5,0.2l-0.6,2c-0.2-0.1-0.4-0.1-0.6-0.2s-0.5,0-0.7,0c-1.2,0-2.1,0.4-2.8,1.2v9h-2.2V8.7z
		"/>
	<path class="st0" d="M156.3,18.6c-0.4,0.2-0.9,0.4-1.7,0.6c-0.7,0.2-1.5,0.3-2.3,0.3c-1.1,0-2-0.2-2.8-0.5
		c-0.7-0.3-1.3-0.7-1.8-1.3c-0.4-0.6-0.8-1.2-0.9-2c-0.2-0.8-0.3-1.7-0.3-2.6c0-0.9,0.1-1.7,0.3-2.5c0.2-0.8,0.5-1.5,1-2.1
		c0.4-0.6,1-1,1.7-1.4c0.7-0.3,1.5-0.5,2.4-0.5c0.9,0,1.7,0.2,2.3,0.6c0.6,0.4,1.1,0.8,1.5,1.4s0.6,1.2,0.8,2
		c0.2,0.7,0.3,1.5,0.3,2.2l-0.8,0.8h-7.1c0.1,1.4,0.4,2.5,0.9,3.1c0.6,0.7,1.4,1,2.6,1c0.6,0,1.2-0.1,1.7-0.2
		c0.5-0.1,1.1-0.3,1.5-0.5L156.3,18.6z M154.5,12.1c0-1.3-0.2-2.2-0.7-2.9s-1.2-1-2.1-1c-1,0-1.7,0.3-2.1,1s-0.7,1.6-0.7,2.9H154.5z
		"/>
	<path class="st0" d="M160.3,8.7h-1.7V7.1h1.7V5.8c0-0.6,0.1-1.2,0.2-1.7c0.1-0.5,0.3-1,0.7-1.4c0.3-0.4,0.7-0.7,1.2-0.9
		c0.5-0.2,1.2-0.3,2-0.3c0.4,0,0.9,0.1,1.3,0.2c0.5,0.1,0.9,0.3,1.3,0.5l-0.6,1.4c-0.2-0.1-0.4-0.2-0.7-0.3C165.4,3.1,165,3,164.6,3
		c-0.4,0-0.8,0.1-1.1,0.2c-0.3,0.1-0.5,0.3-0.6,0.6c-0.1,0.3-0.2,0.6-0.3,1s-0.1,0.8-0.1,1.3v1h3.5v1.6h-3.5v10.4h-2.2V8.7z"/>
	<path class="st0" d="M177,18.6c-0.4,0.2-0.9,0.4-1.7,0.6c-0.7,0.2-1.5,0.3-2.3,0.3c-1.1,0-2-0.2-2.8-0.5c-0.7-0.3-1.3-0.7-1.8-1.3
		c-0.4-0.6-0.8-1.2-0.9-2c-0.2-0.8-0.3-1.7-0.3-2.6c0-0.9,0.1-1.7,0.3-2.5c0.2-0.8,0.5-1.5,1-2.1c0.4-0.6,1-1,1.7-1.4
		c0.7-0.3,1.5-0.5,2.4-0.5c0.9,0,1.7,0.2,2.3,0.6c0.6,0.4,1.1,0.8,1.5,1.4s0.6,1.2,0.8,2c0.2,0.7,0.3,1.5,0.3,2.2l-0.8,0.8h-7.1
		c0.1,1.4,0.4,2.5,0.9,3.1c0.6,0.7,1.4,1,2.6,1c0.6,0,1.2-0.1,1.7-0.2c0.5-0.1,1.1-0.3,1.5-0.5L177,18.6z M175.2,12.1
		c0-1.3-0.2-2.2-0.7-2.9s-1.2-1-2.1-1c-1,0-1.7,0.3-2.1,1s-0.7,1.6-0.7,2.9H175.2z"/>
	<path class="st0" d="M180.8,8.7h-1.5V7.1h3.1l0.4,1.6c0.2-0.2,0.4-0.4,0.6-0.6c0.2-0.2,0.5-0.4,0.7-0.5c0.3-0.2,0.6-0.3,0.9-0.4
		c0.3-0.1,0.7-0.1,1.2-0.1c0.6,0,1.1,0.1,1.5,0.2l-0.6,2C187,9.1,186.8,9,186.5,9s-0.5,0-0.7,0c-1.2,0-2.1,0.4-2.8,1.2v9h-2.2V8.7z"
		/>
	<path class="st0" d="M198.5,18.6c-0.4,0.2-0.9,0.4-1.7,0.6c-0.7,0.2-1.5,0.3-2.3,0.3c-1.1,0-2-0.2-2.8-0.5
		c-0.7-0.3-1.3-0.7-1.8-1.3c-0.4-0.6-0.8-1.2-0.9-2c-0.2-0.8-0.3-1.7-0.3-2.6c0-0.9,0.1-1.7,0.3-2.5c0.2-0.8,0.5-1.5,1-2.1
		c0.4-0.6,1-1,1.7-1.4c0.7-0.3,1.5-0.5,2.4-0.5c0.9,0,1.7,0.2,2.3,0.6c0.6,0.4,1.1,0.8,1.5,1.4s0.6,1.2,0.8,2
		c0.2,0.7,0.3,1.5,0.3,2.2l-0.8,0.8H191c0.1,1.4,0.4,2.5,0.9,3.1c0.6,0.7,1.4,1,2.6,1c0.6,0,1.2-0.1,1.7-0.2
		c0.5-0.1,1.1-0.3,1.5-0.5L198.5,18.6z M196.7,12.1c0-1.3-0.2-2.2-0.7-2.9s-1.2-1-2.1-1c-1,0-1.7,0.3-2.1,1s-0.7,1.6-0.7,2.9H196.7z
		"/>
	<path class="st0" d="M202.2,9.6l-0.9-2l1.8-0.9l1,1.6c0.7-0.5,1.4-0.9,2-1.2c0.6-0.2,1.3-0.4,2-0.4c0.8,0,1.5,0.1,2,0.4
		s1,0.6,1.3,1s0.5,0.9,0.7,1.5c0.1,0.6,0.2,1.2,0.2,1.8v7.8H210v-7.7c0-1-0.2-1.7-0.6-2.2c-0.4-0.4-1-0.7-1.8-0.7
		c-0.6,0-1.2,0.1-1.7,0.3c-0.6,0.2-1,0.5-1.4,0.8v9.4h-2.2V9.6z"/>
	<path class="st0" d="M224.9,18.6c-0.4,0.2-1,0.5-1.6,0.7c-0.6,0.2-1.4,0.3-2.2,0.3c-1.1,0-2-0.2-2.7-0.5c-0.7-0.3-1.3-0.7-1.7-1.3
		s-0.7-1.2-0.9-2c-0.2-0.8-0.3-1.6-0.3-2.6c0-0.9,0.1-1.8,0.3-2.6c0.2-0.8,0.6-1.5,1-2.1s1.1-1.1,1.8-1.4c0.7-0.3,1.6-0.5,2.6-0.5
		c0.7,0,1.4,0.1,2,0.3s1.1,0.4,1.6,0.7l-0.7,1.5c-0.4-0.2-0.9-0.4-1.4-0.6c-0.5-0.2-1-0.2-1.6-0.2c-1.2,0-2.1,0.4-2.6,1.2
		c-0.6,0.8-0.8,2-0.8,3.7c0,0.7,0.1,1.4,0.2,1.9c0.1,0.6,0.3,1.1,0.6,1.5c0.3,0.4,0.6,0.7,1.1,0.9c0.4,0.2,1,0.3,1.7,0.3
		c0.5,0,1,0,1.5-0.1c0.4-0.1,1-0.3,1.6-0.6L224.9,18.6z"/>
	<path class="st0" d="M227.5,8.7h-1.5V7.1h3.8v12h-2.2V8.7z M228.3,4.8c-0.5,0-0.8-0.2-1.1-0.5c-0.3-0.3-0.4-0.7-0.4-1.2
		c0-0.5,0.1-0.9,0.4-1.2c0.3-0.3,0.6-0.5,1.1-0.5c0.5,0,0.9,0.2,1.1,0.5c0.3,0.3,0.4,0.7,0.4,1.2c0,0.5-0.1,0.8-0.4,1.2
		C229.2,4.7,228.8,4.8,228.3,4.8z"/>
	<path class="st0" d="M240.3,18.1c-0.5,0.4-1,0.7-1.6,1c-0.6,0.3-1.3,0.4-2.2,0.4c-1.2,0-2.1-0.3-2.9-0.9s-1.1-1.6-1.1-2.9
		c0-0.7,0.1-1.3,0.4-1.8c0.2-0.5,0.6-0.9,1-1.2c0.4-0.3,1-0.5,1.6-0.7c0.6-0.1,1.3-0.2,2.1-0.2h2.1v-0.6c0-1-0.2-1.7-0.5-2.2
		c-0.3-0.4-0.9-0.7-1.8-0.7c-1.2,0-2.3,0.2-3.5,0.7l-0.6-1.5c0.5-0.2,1.1-0.4,1.8-0.6c0.7-0.2,1.6-0.3,2.6-0.3
		c0.9,0,1.7,0.1,2.2,0.4c0.5,0.3,1,0.6,1.2,1.1c0.3,0.4,0.5,1,0.5,1.6c0.1,0.6,0.1,1.3,0.1,1.9v5.2l1,1.5l-1.6,1.2L240.3,18.1z
		 M239.8,13.2h-1.9c-1.1,0-1.9,0.2-2.4,0.5c-0.5,0.3-0.7,0.9-0.7,1.8c0,0.8,0.2,1.4,0.5,1.7s0.8,0.6,1.5,0.6c0.7,0,1.3-0.1,1.8-0.4
		s0.9-0.5,1.1-0.8V13.2z"/>
	<path class="st0" d="M245.8,16.6l2.3,0.5l-1.8,5.5l-1.5-0.4L245.8,16.6z"/>
	<path class="st0" d="M264.7,18.6c-0.4,0.2-0.9,0.4-1.7,0.6c-0.7,0.2-1.5,0.3-2.3,0.3c-1.1,0-2-0.2-2.8-0.5
		c-0.7-0.3-1.3-0.7-1.8-1.3c-0.4-0.6-0.8-1.2-0.9-2c-0.2-0.8-0.3-1.7-0.3-2.6c0-0.9,0.1-1.7,0.3-2.5c0.2-0.8,0.5-1.5,1-2.1
		c0.4-0.6,1-1,1.7-1.4c0.7-0.3,1.5-0.5,2.4-0.5c0.9,0,1.7,0.2,2.3,0.6c0.6,0.4,1.1,0.8,1.5,1.4s0.6,1.2,0.8,2
		c0.2,0.7,0.3,1.5,0.3,2.2l-0.8,0.8h-7.1c0.1,1.4,0.4,2.5,0.9,3.1c0.6,0.7,1.4,1,2.6,1c0.6,0,1.2-0.1,1.7-0.2
		c0.5-0.1,1.1-0.3,1.5-0.5L264.7,18.6z M262.9,12.1c0-1.3-0.2-2.2-0.7-2.9s-1.2-1-2.1-1c-1,0-1.7,0.3-2.1,1s-0.7,1.6-0.7,2.9H262.9z
		"/>
	<path class="st0" d="M268.3,3h-1.5V1.5h3.7v17.6h-2.2V3z"/>
	<path class="st0" d="M277.1,7.2l2.3-0.4l3.1,10.3c0.1,0.3,0.2,0.5,0.2,0.6c0.1,0.1,0.2,0.2,0.4,0.2c0.2,0,0.3-0.1,0.4-0.2
		c0.1-0.1,0.1-0.3,0.2-0.6l3.1-10.3l1.9,0.4l-3.1,9.9c-0.2,0.8-0.6,1.4-0.9,1.8c-0.4,0.4-0.9,0.6-1.6,0.6c-0.5,0-0.9,0-1.2-0.1
		s-0.6-0.2-0.8-0.4c-0.2-0.2-0.4-0.4-0.5-0.7s-0.3-0.7-0.4-1.1L277.1,7.2z"/>
	<path class="st0" d="M299.8,18.6c-0.4,0.2-0.9,0.4-1.7,0.6c-0.7,0.2-1.5,0.3-2.3,0.3c-1.1,0-2-0.2-2.8-0.5
		c-0.7-0.3-1.3-0.7-1.8-1.3c-0.4-0.6-0.8-1.2-0.9-2c-0.2-0.8-0.3-1.7-0.3-2.6c0-0.9,0.1-1.7,0.3-2.5c0.2-0.8,0.5-1.5,1-2.1
		c0.4-0.6,1-1,1.7-1.4c0.7-0.3,1.5-0.5,2.4-0.5c0.9,0,1.7,0.2,2.3,0.6c0.6,0.4,1.1,0.8,1.5,1.4s0.6,1.2,0.8,2
		c0.2,0.7,0.3,1.5,0.3,2.2l-0.8,0.8h-7.1c0.1,1.4,0.4,2.5,0.9,3.1c0.6,0.7,1.4,1,2.6,1c0.6,0,1.2-0.1,1.7-0.2
		c0.5-0.1,1.1-0.3,1.5-0.5L299.8,18.6z M298,12.1c0-1.3-0.2-2.2-0.7-2.9s-1.2-1-2.1-1c-1,0-1.7,0.3-2.1,1s-0.7,1.6-0.7,2.9H298z"/>
	<path class="st0" d="M303.5,1.4h2.2V8c0.6-0.4,1.2-0.7,1.8-1c0.6-0.2,1.3-0.4,1.9-0.4c0.8,0,1.5,0.1,2,0.4s1,0.6,1.3,1
		s0.5,0.9,0.7,1.5c0.1,0.6,0.2,1.2,0.2,1.8v7.8h-2.2v-7.7c0-1-0.2-1.7-0.6-2.2c-0.4-0.4-1-0.7-1.8-0.7c-0.7,0-1.2,0.1-1.8,0.3
		c-0.5,0.2-1,0.5-1.4,0.8v9.4h-2.2V1.4z"/>
	<path class="st0" d="M317.5,8.7H316V7.1h3.8v12h-2.2V8.7z M319.3,0l1.8,1.2l-3.4,3.9l-1.1-0.8L319.3,0z"/>
	<path class="st0" d="M332.5,18.6c-0.4,0.2-1,0.5-1.6,0.7c-0.6,0.2-1.4,0.3-2.2,0.3c-1.1,0-2-0.2-2.7-0.5c-0.7-0.3-1.3-0.7-1.7-1.3
		s-0.7-1.2-0.9-2c-0.2-0.8-0.3-1.6-0.3-2.6c0-0.9,0.1-1.8,0.3-2.6c0.2-0.8,0.6-1.5,1-2.1s1.1-1.1,1.8-1.4c0.7-0.3,1.6-0.5,2.6-0.5
		c0.7,0,1.4,0.1,2,0.3s1.1,0.4,1.6,0.7l-0.7,1.5c-0.4-0.2-0.9-0.4-1.4-0.6c-0.5-0.2-1-0.2-1.6-0.2c-1.2,0-2.1,0.4-2.6,1.2
		c-0.6,0.8-0.8,2-0.8,3.7c0,0.7,0.1,1.4,0.2,1.9c0.1,0.6,0.3,1.1,0.6,1.5c0.3,0.4,0.6,0.7,1.1,0.9c0.4,0.2,1,0.3,1.7,0.3
		c0.5,0,1,0,1.5-0.1c0.4-0.1,1-0.3,1.6-0.6L332.5,18.6z"/>
	<path class="st0" d="M334.7,7.1h2.2v7.8c0,0.9,0.2,1.7,0.5,2.2c0.4,0.5,1,0.8,1.8,0.8c0.7,0,1.3-0.1,1.7-0.3
		c0.4-0.2,0.9-0.5,1.2-0.8V7.1h2.2v9.7l1,1.5l-1.6,1.2l-1.1-1.3c-0.6,0.5-1.3,0.9-1.9,1.1c-0.6,0.2-1.3,0.3-2,0.3
		c-0.9,0-1.6-0.1-2.1-0.4c-0.5-0.2-1-0.6-1.3-1c-0.3-0.4-0.5-0.9-0.6-1.5c-0.1-0.6-0.2-1.2-0.2-1.8V7.1z"/>
	<path class="st0" d="M348.3,3h-1.5V1.5h3.7v17.6h-2.2V3z"/>
	<path class="st0" d="M359.2,19.5c-1,0-1.9-0.2-2.6-0.5c-0.7-0.3-1.2-0.8-1.7-1.3c-0.4-0.6-0.7-1.3-0.9-2c-0.2-0.8-0.3-1.6-0.3-2.6
		s0.1-1.8,0.3-2.6c0.2-0.8,0.6-1.5,1-2.1c0.4-0.6,1-1,1.7-1.3c0.7-0.3,1.5-0.5,2.4-0.5c1,0,1.8,0.2,2.5,0.5c0.7,0.3,1.3,0.8,1.7,1.3
		c0.4,0.6,0.8,1.2,1,2c0.2,0.8,0.3,1.7,0.3,2.6c0,0.9-0.1,1.8-0.3,2.6s-0.5,1.5-1,2c-0.4,0.6-1,1-1.7,1.3
		C361.1,19.4,360.2,19.5,359.2,19.5z M359.3,18c1.2,0,2-0.4,2.4-1.2c0.5-0.8,0.7-2,0.7-3.6c0-1.5-0.2-2.7-0.7-3.5s-1.3-1.2-2.4-1.2
		c-1.2,0-2,0.4-2.5,1.2c-0.5,0.8-0.7,2-0.7,3.6c0,0.8,0.1,1.4,0.2,2c0.1,0.6,0.3,1.1,0.5,1.5c0.2,0.4,0.6,0.7,1,1
		C358.2,17.8,358.7,18,359.3,18z"/>
	<path class="st0" d="M370.7,7.2l2.3-0.4l3.1,10.3c0.1,0.3,0.2,0.5,0.2,0.6c0.1,0.1,0.2,0.2,0.4,0.2c0.2,0,0.3-0.1,0.4-0.2
		c0.1-0.1,0.1-0.3,0.2-0.6l3.1-10.3l1.9,0.4l-3.1,9.9c-0.2,0.8-0.6,1.4-0.9,1.8c-0.4,0.4-0.9,0.6-1.6,0.6c-0.5,0-0.9,0-1.2-0.1
		s-0.6-0.2-0.8-0.4c-0.2-0.2-0.4-0.4-0.5-0.7s-0.3-0.7-0.4-1.1L370.7,7.2z"/>
	<path class="st0" d="M391.4,18.1c-0.5,0.4-1,0.7-1.6,1c-0.6,0.3-1.3,0.4-2.2,0.4c-1.2,0-2.1-0.3-2.9-0.9s-1.1-1.6-1.1-2.9
		c0-0.7,0.1-1.3,0.4-1.8c0.2-0.5,0.6-0.9,1-1.2c0.4-0.3,1-0.5,1.6-0.7c0.6-0.1,1.3-0.2,2.1-0.2h2.1v-0.6c0-1-0.2-1.7-0.5-2.2
		c-0.3-0.4-0.9-0.7-1.8-0.7c-1.2,0-2.3,0.2-3.5,0.7l-0.6-1.5c0.5-0.2,1.1-0.4,1.8-0.6c0.7-0.2,1.6-0.3,2.6-0.3
		c0.9,0,1.7,0.1,2.2,0.4c0.5,0.3,1,0.6,1.2,1.1c0.3,0.4,0.5,1,0.5,1.6c0.1,0.6,0.1,1.3,0.1,1.9v5.2l1,1.5l-1.6,1.2L391.4,18.1z
		 M390.9,13.2H389c-1.1,0-1.9,0.2-2.4,0.5c-0.5,0.3-0.7,0.9-0.7,1.8c0,0.8,0.2,1.4,0.5,1.7s0.8,0.6,1.5,0.6c0.7,0,1.3-0.1,1.8-0.4
		s0.9-0.5,1.1-0.8V13.2z"/>
	<path class="st0" d="M397.1,8.7h-1.5V7.1h3.1l0.4,1.6c0.2-0.2,0.4-0.4,0.6-0.6c0.2-0.2,0.5-0.4,0.7-0.5c0.3-0.2,0.6-0.3,0.9-0.4
		c0.3-0.1,0.7-0.1,1.2-0.1c0.6,0,1.1,0.1,1.5,0.2l-0.6,2c-0.2-0.1-0.4-0.1-0.6-0.2s-0.5,0-0.7,0c-1.2,0-2.1,0.4-2.8,1.2v9h-2.2V8.7z
		"/>
	<path class="st0" d="M406.3,8.7h-1.5V7.1h3.8v12h-2.2V8.7z M408.1,0l1.8,1.2l-3.4,3.9l-1.1-0.8L408.1,0z"/>
	<path class="st0" d="M419.2,18.1c-0.5,0.4-1,0.7-1.6,1c-0.6,0.3-1.3,0.4-2.2,0.4c-1.2,0-2.1-0.3-2.9-0.9s-1.1-1.6-1.1-2.9
		c0-0.7,0.1-1.3,0.4-1.8c0.2-0.5,0.6-0.9,1-1.2c0.4-0.3,1-0.5,1.6-0.7c0.6-0.1,1.3-0.2,2.1-0.2h2.1v-0.6c0-1-0.2-1.7-0.5-2.2
		c-0.3-0.4-0.9-0.7-1.8-0.7c-1.2,0-2.3,0.2-3.5,0.7l-0.6-1.5c0.5-0.2,1.1-0.4,1.8-0.6c0.7-0.2,1.6-0.3,2.6-0.3
		c0.9,0,1.7,0.1,2.2,0.4c0.5,0.3,1,0.6,1.2,1.1c0.3,0.4,0.5,1,0.5,1.6c0.1,0.6,0.1,1.3,0.1,1.9v5.2l1,1.5l-1.6,1.2L419.2,18.1z
		 M418.7,13.2h-1.9c-1.1,0-1.9,0.2-2.4,0.5c-0.5,0.3-0.7,0.9-0.7,1.8c0,0.8,0.2,1.4,0.5,1.7s0.8,0.6,1.5,0.6c0.7,0,1.3-0.1,1.8-0.4
		s0.9-0.5,1.1-0.8V13.2z"/>
	<path class="st0" d="M428.8,16.8c0.4,0.2,0.9,0.4,1.5,0.7s1.4,0.4,2.2,0.4c0.8,0,1.5-0.1,2-0.4s0.7-0.8,0.7-1.4
		c0-0.4-0.1-0.7-0.2-0.9c-0.2-0.2-0.4-0.4-0.6-0.6c-0.3-0.2-0.6-0.3-0.9-0.4c-0.4-0.1-0.7-0.2-1.1-0.3c-0.4-0.1-0.9-0.2-1.3-0.4
		c-0.4-0.2-0.8-0.4-1.2-0.6c-0.3-0.3-0.6-0.6-0.8-1c-0.2-0.4-0.3-0.9-0.3-1.5c0-0.5,0.1-1,0.3-1.5c0.2-0.4,0.5-0.8,0.9-1.2
		s0.9-0.6,1.4-0.8s1.2-0.3,2-0.3c0.8,0,1.5,0.1,2.2,0.3s1.2,0.4,1.7,0.7L436.4,9c-1-0.5-2.1-0.8-3.2-0.8c-0.8,0-1.4,0.1-1.8,0.4
		c-0.4,0.3-0.7,0.7-0.7,1.3c0,0.4,0.1,0.6,0.2,0.9c0.1,0.2,0.3,0.4,0.6,0.6s0.5,0.3,0.9,0.4c0.3,0.1,0.7,0.2,1,0.3
		c0.4,0.1,0.9,0.3,1.3,0.4s0.9,0.3,1.3,0.6c0.4,0.3,0.7,0.6,0.9,1s0.4,1,0.4,1.6c0,1.2-0.4,2.1-1.1,2.8c-0.8,0.7-1.9,1-3.5,1
		c-1.1,0-2-0.1-2.7-0.4c-0.8-0.3-1.3-0.5-1.7-0.8L428.8,16.8z"/>
	<path class="st0" d="M449.3,18.6c-0.4,0.2-0.9,0.4-1.7,0.6c-0.7,0.2-1.5,0.3-2.3,0.3c-1.1,0-2-0.2-2.8-0.5
		c-0.7-0.3-1.3-0.7-1.8-1.3c-0.4-0.6-0.8-1.2-0.9-2c-0.2-0.8-0.3-1.7-0.3-2.6c0-0.9,0.1-1.7,0.3-2.5c0.2-0.8,0.5-1.5,1-2.1
		c0.4-0.6,1-1,1.7-1.4c0.7-0.3,1.5-0.5,2.4-0.5c0.9,0,1.7,0.2,2.3,0.6c0.6,0.4,1.1,0.8,1.5,1.4s0.6,1.2,0.8,2
		c0.2,0.7,0.3,1.5,0.3,2.2l-0.8,0.8h-7.1c0.1,1.4,0.4,2.5,0.9,3.1c0.6,0.7,1.4,1,2.6,1c0.6,0,1.2-0.1,1.7-0.2
		c0.5-0.1,1.1-0.3,1.5-0.5L449.3,18.6z M447.5,12.1c0-1.3-0.2-2.2-0.7-2.9s-1.2-1-2.1-1c-1,0-1.7,0.3-2.1,1s-0.7,1.6-0.7,2.9H447.5z
		"/>
	<path class="st0" d="M453.6,22c0.4,0.2,0.9,0.4,1.5,0.6c0.5,0.2,1.2,0.3,2,0.3c1.3,0,2.1-0.3,2.6-0.9c0.5-0.6,0.7-1.5,0.7-2.7v-0.5
		c-0.4,0.2-0.8,0.3-1.3,0.5c-0.4,0.1-0.9,0.2-1.4,0.2c-1.8,0-3.1-0.5-4-1.5s-1.3-2.6-1.3-4.7c0-0.9,0.1-1.7,0.3-2.5s0.4-1.5,0.8-2.1
		c0.4-0.6,0.9-1.1,1.6-1.4s1.5-0.5,2.4-0.5c0.4,0,0.8,0,1.1,0.1c0.3,0.1,0.7,0.2,0.9,0.3c0.3,0.1,0.5,0.3,0.7,0.4
		c0.2,0.2,0.4,0.3,0.5,0.4l1-1.4l1.8,0.9l-0.9,2v10.1c0,1.5-0.4,2.7-1.3,3.6c-0.9,0.9-2.2,1.3-4.1,1.3c-0.8,0-1.6-0.1-2.3-0.2
		c-0.7-0.1-1.4-0.4-1.9-0.7L453.6,22z M460.4,9.5c-0.3-0.3-0.6-0.5-1-0.8c-0.4-0.3-1-0.4-1.7-0.4c-1,0-1.7,0.4-2.2,1.2
		c-0.5,0.8-0.8,2-0.8,3.7c0,1.5,0.2,2.6,0.7,3.4c0.5,0.8,1.3,1.2,2.4,1.2c0.5,0,1-0.1,1.3-0.2c0.4-0.1,0.8-0.3,1.2-0.5V9.5z"/>
	<path class="st0" d="M466.2,7.1h2.2v7.8c0,0.9,0.2,1.7,0.5,2.2c0.4,0.5,1,0.8,1.8,0.8c0.7,0,1.3-0.1,1.7-0.3
		c0.4-0.2,0.9-0.5,1.2-0.8V7.1h2.2v9.7l1,1.5l-1.6,1.2l-1.1-1.3c-0.6,0.5-1.3,0.9-1.9,1.1c-0.6,0.2-1.3,0.3-2,0.3
		c-0.9,0-1.6-0.1-2.1-0.4c-0.5-0.2-1-0.6-1.3-1c-0.3-0.4-0.5-0.9-0.6-1.5c-0.1-0.6-0.2-1.2-0.2-1.8V7.1z M472.6,0l1.8,1.2l-3.4,3.9
		l-1.1-0.8L472.6,0z"/>
	<path class="st0" d="M480,9.6l-0.9-2l1.8-0.9l1,1.6c0.7-0.5,1.4-0.9,2-1.2c0.6-0.2,1.3-0.4,2-0.4c0.8,0,1.5,0.1,2,0.4s1,0.6,1.3,1
		s0.5,0.9,0.7,1.5c0.1,0.6,0.2,1.2,0.2,1.8v7.8h-2.2v-7.7c0-1-0.2-1.7-0.6-2.2c-0.4-0.4-1-0.7-1.8-0.7c-0.6,0-1.2,0.1-1.7,0.3
		c-0.6,0.2-1,0.5-1.4,0.8v9.4H480V9.6z"/>
	<path class="st0" d="M498.4,3H497V1.5h3.7v17.6h-2.2V3z"/>
	<path class="st0" d="M511.3,18.1c-0.5,0.4-1,0.7-1.6,1c-0.6,0.3-1.3,0.4-2.2,0.4c-1.2,0-2.1-0.3-2.9-0.9s-1.1-1.6-1.1-2.9
		c0-0.7,0.1-1.3,0.4-1.8c0.2-0.5,0.6-0.9,1-1.2c0.4-0.3,1-0.5,1.6-0.7c0.6-0.1,1.3-0.2,2.1-0.2h2.1v-0.6c0-1-0.2-1.7-0.5-2.2
		c-0.3-0.4-0.9-0.7-1.8-0.7c-1.2,0-2.3,0.2-3.5,0.7l-0.6-1.5c0.5-0.2,1.1-0.4,1.8-0.6c0.7-0.2,1.6-0.3,2.6-0.3
		c0.9,0,1.7,0.1,2.2,0.4c0.5,0.3,1,0.6,1.2,1.1c0.3,0.4,0.5,1,0.5,1.6c0.1,0.6,0.1,1.3,0.1,1.9v5.2l1,1.5l-1.6,1.2L511.3,18.1z
		 M510.8,13.2h-1.9c-1.1,0-1.9,0.2-2.4,0.5c-0.5,0.3-0.7,0.9-0.7,1.8c0,0.8,0.2,1.4,0.5,1.7s0.8,0.6,1.5,0.6c0.7,0,1.3-0.1,1.8-0.4
		s0.9-0.5,1.1-0.8V13.2z"/>
	<path class="st0" d="M519.5,7.2l2.3-0.4l3.1,10.3c0.1,0.3,0.2,0.5,0.2,0.6c0.1,0.1,0.2,0.2,0.4,0.2c0.2,0,0.3-0.1,0.4-0.2
		c0.1-0.1,0.1-0.3,0.2-0.6l3.1-10.3l1.9,0.4l-3.1,9.9c-0.2,0.8-0.6,1.4-0.9,1.8c-0.4,0.4-0.9,0.6-1.6,0.6c-0.5,0-0.9,0-1.2-0.1
		s-0.6-0.2-0.8-0.4c-0.2-0.2-0.4-0.4-0.5-0.7s-0.3-0.7-0.4-1.1L519.5,7.2z"/>
	<path class="st0" d="M542.3,18.6c-0.4,0.2-0.9,0.4-1.7,0.6c-0.7,0.2-1.5,0.3-2.3,0.3c-1.1,0-2-0.2-2.8-0.5
		c-0.7-0.3-1.3-0.7-1.8-1.3c-0.4-0.6-0.8-1.2-0.9-2c-0.2-0.8-0.3-1.7-0.3-2.6c0-0.9,0.1-1.7,0.3-2.5c0.2-0.8,0.5-1.5,1-2.1
		c0.4-0.6,1-1,1.7-1.4c0.7-0.3,1.5-0.5,2.4-0.5c0.9,0,1.7,0.2,2.3,0.6c0.6,0.4,1.1,0.8,1.5,1.4s0.6,1.2,0.8,2
		c0.2,0.7,0.3,1.5,0.3,2.2l-0.8,0.8h-7.1c0.1,1.4,0.4,2.5,0.9,3.1c0.6,0.7,1.4,1,2.6,1c0.6,0,1.2-0.1,1.7-0.2
		c0.5-0.1,1.1-0.3,1.5-0.5L542.3,18.6z M540.5,12.1c0-1.3-0.2-2.2-0.7-2.9s-1.2-1-2.1-1c-1,0-1.7,0.3-2.1,1s-0.7,1.6-0.7,2.9H540.5z
		"/>
	<path class="st0" d="M546.1,8.7h-1.5V7.1h3.1l0.4,1.6c0.2-0.2,0.4-0.4,0.6-0.6c0.2-0.2,0.5-0.4,0.7-0.5c0.3-0.2,0.6-0.3,0.9-0.4
		c0.3-0.1,0.7-0.1,1.2-0.1c0.6,0,1.1,0.1,1.5,0.2l-0.6,2c-0.2-0.1-0.4-0.1-0.6-0.2s-0.5,0-0.7,0c-1.2,0-2.1,0.4-2.8,1.2v9h-2.2V8.7z
		"/>
	<path class="st0" d="M554.6,16.8c0.4,0.2,0.9,0.4,1.5,0.7s1.4,0.4,2.2,0.4c0.8,0,1.5-0.1,2-0.4s0.7-0.8,0.7-1.4
		c0-0.4-0.1-0.7-0.2-0.9c-0.2-0.2-0.4-0.4-0.6-0.6c-0.3-0.2-0.6-0.3-0.9-0.4c-0.4-0.1-0.7-0.2-1.1-0.3c-0.4-0.1-0.9-0.2-1.3-0.4
		c-0.4-0.2-0.8-0.4-1.2-0.6c-0.3-0.3-0.6-0.6-0.8-1c-0.2-0.4-0.3-0.9-0.3-1.5c0-0.5,0.1-1,0.3-1.5c0.2-0.4,0.5-0.8,0.9-1.2
		s0.9-0.6,1.4-0.8s1.2-0.3,2-0.3c0.8,0,1.5,0.1,2.2,0.3s1.2,0.4,1.7,0.7L562.1,9c-1-0.5-2.1-0.8-3.2-0.8c-0.8,0-1.4,0.1-1.8,0.4
		c-0.4,0.3-0.7,0.7-0.7,1.3c0,0.4,0.1,0.6,0.2,0.9c0.1,0.2,0.3,0.4,0.6,0.6s0.5,0.3,0.9,0.4c0.3,0.1,0.7,0.2,1,0.3
		c0.4,0.1,0.9,0.3,1.3,0.4s0.9,0.3,1.3,0.6c0.4,0.3,0.7,0.6,0.9,1s0.4,1,0.4,1.6c0,1.2-0.4,2.1-1.1,2.8c-0.8,0.7-1.9,1-3.5,1
		c-1.1,0-2-0.1-2.7-0.4c-0.8-0.3-1.3-0.5-1.7-0.8L554.6,16.8z"/>
	<path class="st0" d="M566.1,8.7h-1.5V7.1h3.8v12h-2.2V8.7z M567,4.8c-0.5,0-0.8-0.2-1.1-0.5c-0.3-0.3-0.4-0.7-0.4-1.2
		c0-0.5,0.1-0.9,0.4-1.2c0.3-0.3,0.6-0.5,1.1-0.5c0.5,0,0.9,0.2,1.1,0.5c0.3,0.3,0.4,0.7,0.4,1.2c0,0.5-0.1,0.8-0.4,1.2
		C567.8,4.7,567.5,4.8,567,4.8z"/>
	<path class="st0" d="M577,19.5c-1,0-1.9-0.2-2.6-0.5c-0.7-0.3-1.2-0.8-1.7-1.3c-0.4-0.6-0.7-1.3-0.9-2c-0.2-0.8-0.3-1.6-0.3-2.6
		s0.1-1.8,0.3-2.6c0.2-0.8,0.6-1.5,1-2.1c0.4-0.6,1-1,1.7-1.3c0.7-0.3,1.5-0.5,2.4-0.5c1,0,1.8,0.2,2.5,0.5c0.7,0.3,1.3,0.8,1.7,1.3
		c0.4,0.6,0.8,1.2,1,2c0.2,0.8,0.3,1.7,0.3,2.6c0,0.9-0.1,1.8-0.3,2.6s-0.5,1.5-1,2c-0.4,0.6-1,1-1.7,1.3
		C578.9,19.4,578,19.5,577,19.5z M577.1,18c1.2,0,2-0.4,2.4-1.2c0.5-0.8,0.7-2,0.7-3.6c0-1.5-0.2-2.7-0.7-3.5s-1.3-1.2-2.4-1.2
		c-1.2,0-2,0.4-2.5,1.2c-0.5,0.8-0.7,2-0.7,3.6c0,0.8,0.1,1.4,0.2,2c0.1,0.6,0.3,1.1,0.5,1.5c0.2,0.4,0.6,0.7,1,1
		C576,17.8,576.5,18,577.1,18z M578.5,0l1.8,1.2l-3.4,3.9l-1.1-0.8L578.5,0z"/>
	<path class="st0" d="M585.9,9.6l-0.9-2l1.8-0.9l1,1.6c0.7-0.5,1.4-0.9,2-1.2c0.6-0.2,1.3-0.4,2-0.4c0.8,0,1.5,0.1,2,0.4
		s1,0.6,1.3,1s0.5,0.9,0.7,1.5c0.1,0.6,0.2,1.2,0.2,1.8v7.8h-2.2v-7.7c0-1-0.2-1.7-0.6-2.2c-0.4-0.4-1-0.7-1.8-0.7
		c-0.6,0-1.2,0.1-1.7,0.3c-0.6,0.2-1,0.5-1.4,0.8v9.4h-2.2V9.6z"/>
	<path class="st0" d="M613.3,18.6c-0.4,0.2-1,0.5-1.6,0.7c-0.6,0.2-1.4,0.3-2.2,0.3c-1.1,0-2-0.2-2.7-0.5c-0.7-0.3-1.3-0.7-1.7-1.3
		s-0.7-1.2-0.9-2c-0.2-0.8-0.3-1.6-0.3-2.6c0-0.9,0.1-1.8,0.3-2.6c0.2-0.8,0.6-1.5,1-2.1s1.1-1.1,1.8-1.4c0.7-0.3,1.6-0.5,2.6-0.5
		c0.7,0,1.4,0.1,2,0.3s1.1,0.4,1.6,0.7l-0.7,1.5c-0.4-0.2-0.9-0.4-1.4-0.6c-0.5-0.2-1-0.2-1.6-0.2c-1.2,0-2.1,0.4-2.6,1.2
		c-0.6,0.8-0.8,2-0.8,3.7c0,0.7,0.1,1.4,0.2,1.9c0.1,0.6,0.3,1.1,0.6,1.5c0.3,0.4,0.6,0.7,1.1,0.9c0.4,0.2,1,0.3,1.7,0.3
		c0.5,0,1,0,1.5-0.1c0.4-0.1,1-0.3,1.6-0.6L613.3,18.6z"/>
	<path class="st0" d="M620.3,19.5c-1,0-1.9-0.2-2.6-0.5c-0.7-0.3-1.2-0.8-1.7-1.3c-0.4-0.6-0.7-1.3-0.9-2c-0.2-0.8-0.3-1.6-0.3-2.6
		s0.1-1.8,0.3-2.6c0.2-0.8,0.6-1.5,1-2.1c0.4-0.6,1-1,1.7-1.3c0.7-0.3,1.5-0.5,2.4-0.5c1,0,1.8,0.2,2.5,0.5c0.7,0.3,1.3,0.8,1.7,1.3
		c0.4,0.6,0.8,1.2,1,2c0.2,0.8,0.3,1.7,0.3,2.6c0,0.9-0.1,1.8-0.3,2.6s-0.5,1.5-1,2c-0.4,0.6-1,1-1.7,1.3
		C622.1,19.4,621.3,19.5,620.3,19.5z M620.3,18c1.2,0,2-0.4,2.4-1.2c0.5-0.8,0.7-2,0.7-3.6c0-1.5-0.2-2.7-0.7-3.5s-1.3-1.2-2.4-1.2
		c-1.2,0-2,0.4-2.5,1.2c-0.5,0.8-0.7,2-0.7,3.6c0,0.8,0.1,1.4,0.2,2c0.1,0.6,0.3,1.1,0.5,1.5c0.2,0.4,0.6,0.7,1,1
		C619.3,17.8,619.8,18,620.3,18z"/>
	<path class="st0" d="M629.1,9.6l-0.9-2l1.8-0.9l1,1.6c0.7-0.6,1.3-1,1.9-1.2c0.6-0.2,1.2-0.3,1.7-0.3c0.9,0,1.5,0.1,2,0.4
		s0.8,0.6,1.1,1.1c0.7-0.6,1.4-1,2.1-1.2c0.7-0.2,1.3-0.3,1.7-0.3c0.8,0,1.5,0.1,2,0.4s0.9,0.6,1.2,1s0.4,0.9,0.5,1.5
		c0.1,0.6,0.1,1.2,0.1,1.8v7.8h-2.2v-7.8c0-0.9-0.1-1.6-0.4-2.1c-0.3-0.4-0.8-0.7-1.6-0.7c-0.5,0-0.9,0.1-1.4,0.3s-1,0.5-1.4,0.8
		c0,0.2,0.1,0.5,0.1,0.8c0,0.3,0,0.6,0,0.9v7.8h-2.2v-7.9c0-0.9-0.1-1.6-0.4-2c-0.3-0.4-0.8-0.7-1.6-0.7c-0.4,0-0.9,0.1-1.4,0.3
		c-0.5,0.2-0.9,0.5-1.3,0.8v9.5h-2.2V9.6z"/>
	<path class="st0" d="M658.3,18.6c-0.4,0.2-0.9,0.4-1.7,0.6c-0.7,0.2-1.5,0.3-2.3,0.3c-1.1,0-2-0.2-2.8-0.5
		c-0.7-0.3-1.3-0.7-1.8-1.3c-0.4-0.6-0.8-1.2-0.9-2c-0.2-0.8-0.3-1.7-0.3-2.6c0-0.9,0.1-1.7,0.3-2.5c0.2-0.8,0.5-1.5,1-2.1
		c0.4-0.6,1-1,1.7-1.4c0.7-0.3,1.5-0.5,2.4-0.5c0.9,0,1.7,0.2,2.3,0.6c0.6,0.4,1.1,0.8,1.5,1.4s0.6,1.2,0.8,2
		c0.2,0.7,0.3,1.5,0.3,2.2l-0.8,0.8h-7.1c0.1,1.4,0.4,2.5,0.9,3.1c0.6,0.7,1.4,1,2.6,1c0.6,0,1.2-0.1,1.7-0.2
		c0.5-0.1,1.1-0.3,1.5-0.5L658.3,18.6z M656.5,12.1c0-1.3-0.2-2.2-0.7-2.9s-1.2-1-2.1-1c-1,0-1.7,0.3-2.1,1s-0.7,1.6-0.7,2.9H656.5z
		"/>
	<path class="st0" d="M662.1,8.7h-1.5V7.1h3.1l0.4,1.6c0.2-0.2,0.4-0.4,0.6-0.6c0.2-0.2,0.5-0.4,0.7-0.5c0.3-0.2,0.6-0.3,0.9-0.4
		c0.3-0.1,0.7-0.1,1.2-0.1c0.6,0,1.1,0.1,1.5,0.2l-0.6,2c-0.2-0.1-0.4-0.1-0.6-0.2s-0.5,0-0.7,0c-1.2,0-2.1,0.4-2.8,1.2v9h-2.2V8.7z
		"/>
	<path class="st0" d="M679.6,18.6c-0.4,0.2-1,0.5-1.6,0.7c-0.6,0.2-1.4,0.3-2.2,0.3c-1.1,0-2-0.2-2.7-0.5c-0.7-0.3-1.3-0.7-1.7-1.3
		s-0.7-1.2-0.9-2c-0.2-0.8-0.3-1.6-0.3-2.6c0-0.9,0.1-1.8,0.3-2.6c0.2-0.8,0.6-1.5,1-2.1s1.1-1.1,1.8-1.4c0.7-0.3,1.6-0.5,2.6-0.5
		c0.7,0,1.4,0.1,2,0.3s1.1,0.4,1.6,0.7l-0.7,1.5c-0.4-0.2-0.9-0.4-1.4-0.6c-0.5-0.2-1-0.2-1.6-0.2c-1.2,0-2.1,0.4-2.6,1.2
		c-0.6,0.8-0.8,2-0.8,3.7c0,0.7,0.1,1.4,0.2,1.9c0.1,0.6,0.3,1.1,0.6,1.5c0.3,0.4,0.6,0.7,1.1,0.9c0.4,0.2,1,0.3,1.7,0.3
		c0.5,0,1,0,1.5-0.1c0.4-0.1,1-0.3,1.6-0.6L679.6,18.6z"/>
	<path class="st0" d="M682.2,8.7h-1.5V7.1h3.8v12h-2.2V8.7z M683.1,4.8c-0.5,0-0.8-0.2-1.1-0.5c-0.3-0.3-0.4-0.7-0.4-1.2
		c0-0.5,0.1-0.9,0.4-1.2c0.3-0.3,0.6-0.5,1.1-0.5c0.5,0,0.9,0.2,1.1,0.5c0.3,0.3,0.4,0.7,0.4,1.2c0,0.5-0.1,0.8-0.4,1.2
		C683.9,4.7,683.5,4.8,683.1,4.8z"/>
	<path class="st0" d="M695.1,18.1c-0.5,0.4-1,0.7-1.6,1c-0.6,0.3-1.3,0.4-2.2,0.4c-1.2,0-2.1-0.3-2.9-0.9s-1.1-1.6-1.1-2.9
		c0-0.7,0.1-1.3,0.4-1.8c0.2-0.5,0.6-0.9,1-1.2c0.4-0.3,1-0.5,1.6-0.7c0.6-0.1,1.3-0.2,2.1-0.2h2.1v-0.6c0-1-0.2-1.7-0.5-2.2
		c-0.3-0.4-0.9-0.7-1.8-0.7c-1.2,0-2.3,0.2-3.5,0.7l-0.6-1.5c0.5-0.2,1.1-0.4,1.8-0.6c0.7-0.2,1.6-0.3,2.6-0.3
		c0.9,0,1.7,0.1,2.2,0.4c0.5,0.3,1,0.6,1.2,1.1c0.3,0.4,0.5,1,0.5,1.6c0.1,0.6,0.1,1.3,0.1,1.9v5.2l1,1.5l-1.6,1.2L695.1,18.1z
		 M694.5,13.2h-1.9c-1.1,0-1.9,0.2-2.4,0.5c-0.5,0.3-0.7,0.9-0.7,1.8c0,0.8,0.2,1.4,0.5,1.7s0.8,0.6,1.5,0.6c0.7,0,1.3-0.1,1.8-0.4
		s0.9-0.5,1.1-0.8V13.2z"/>
	<path class="st0" d="M700.6,3h-1.5V1.5h3.7v17.6h-2.2V3z"/>
	<path class="st0" d="M706.8,8.7h-1.5V7.1h3.8v12h-2.2V8.7z M707.6,4.8c-0.5,0-0.8-0.2-1.1-0.5c-0.3-0.3-0.4-0.7-0.4-1.2
		c0-0.5,0.1-0.9,0.4-1.2c0.3-0.3,0.6-0.5,1.1-0.5c0.5,0,0.9,0.2,1.1,0.5c0.3,0.3,0.4,0.7,0.4,1.2c0,0.5-0.1,0.8-0.4,1.2
		C708.5,4.7,708.1,4.8,707.6,4.8z"/>
	<path class="st0" d="M718.1,8.7H712V7.1h8.8v1.6l-6.7,8.2c-0.1,0.1-0.1,0.2-0.1,0.2c0,0.1,0,0.1,0,0.1c0,0.2,0.1,0.3,0.4,0.3h6.5
		v1.6h-7.3c-0.7,0-1.2-0.2-1.5-0.5c-0.3-0.3-0.5-0.7-0.5-1.2c0-0.3,0-0.6,0.1-0.8c0.1-0.3,0.3-0.6,0.6-0.9L718.1,8.7z"/>
	<path class="st0" d="M730.4,18.1c-0.5,0.4-1,0.7-1.6,1c-0.6,0.3-1.3,0.4-2.2,0.4c-1.2,0-2.1-0.3-2.9-0.9s-1.1-1.6-1.1-2.9
		c0-0.7,0.1-1.3,0.4-1.8c0.2-0.5,0.6-0.9,1-1.2c0.4-0.3,1-0.5,1.6-0.7c0.6-0.1,1.3-0.2,2.1-0.2h2.1v-0.6c0-1-0.2-1.7-0.5-2.2
		c-0.3-0.4-0.9-0.7-1.8-0.7c-1.2,0-2.3,0.2-3.5,0.7l-0.6-1.5c0.5-0.2,1.1-0.4,1.8-0.6c0.7-0.2,1.6-0.3,2.6-0.3
		c0.9,0,1.7,0.1,2.2,0.4c0.5,0.3,1,0.6,1.2,1.1c0.3,0.4,0.5,1,0.5,1.6c0.1,0.6,0.1,1.3,0.1,1.9v5.2l1,1.5l-1.6,1.2L730.4,18.1z
		 M729.9,13.2H728c-1.1,0-1.9,0.2-2.4,0.5c-0.5,0.3-0.7,0.9-0.7,1.8c0,0.8,0.2,1.4,0.5,1.7s0.8,0.6,1.5,0.6c0.7,0,1.3-0.1,1.8-0.4
		s0.9-0.5,1.1-0.8V13.2z"/>
	<path class="st0" d="M744,18.2c-0.5,0.4-1,0.7-1.6,0.9s-1.3,0.4-2.1,0.4c-1.6,0-2.9-0.5-3.7-1.6c-0.8-1.1-1.2-2.7-1.2-4.8
		c0-1,0.1-1.8,0.4-2.6s0.6-1.5,1.1-2c0.5-0.6,1.1-1,1.8-1.3c0.7-0.3,1.6-0.5,2.5-0.5c0.4,0,0.8,0,1.2,0.1c0.4,0.1,0.7,0.1,1,0.2V1.4
		h2.2v15.3l1,1.5l-1.6,1.2L744,18.2z M743.4,8.6c-0.2-0.1-0.5-0.2-0.9-0.2c-0.4-0.1-0.8-0.1-1.3-0.1c-1.2,0-2.1,0.4-2.7,1.2
		c-0.6,0.8-0.9,2-0.9,3.6c0,1.5,0.2,2.7,0.7,3.5c0.5,0.8,1.2,1.3,2.3,1.3c0.7,0,1.2-0.1,1.6-0.3c0.4-0.2,0.8-0.5,1.1-0.8V8.6z"/>
	<path class="st0" d="M756.4,18.1c-0.5,0.4-1,0.7-1.6,1c-0.6,0.3-1.3,0.4-2.2,0.4c-1.2,0-2.1-0.3-2.9-0.9s-1.1-1.6-1.1-2.9
		c0-0.7,0.1-1.3,0.4-1.8c0.2-0.5,0.6-0.9,1-1.2c0.4-0.3,1-0.5,1.6-0.7c0.6-0.1,1.3-0.2,2.1-0.2h2.1v-0.6c0-1-0.2-1.7-0.5-2.2
		c-0.3-0.4-0.9-0.7-1.8-0.7c-1.2,0-2.3,0.2-3.5,0.7l-0.6-1.5c0.5-0.2,1.1-0.4,1.8-0.6c0.7-0.2,1.6-0.3,2.6-0.3
		c0.9,0,1.7,0.1,2.2,0.4c0.5,0.3,1,0.6,1.2,1.1c0.3,0.4,0.5,1,0.5,1.6c0.1,0.6,0.1,1.3,0.1,1.9v5.2l1,1.5l-1.6,1.2L756.4,18.1z
		 M755.9,13.2h-1.9c-1.1,0-1.9,0.2-2.4,0.5c-0.5,0.3-0.7,0.9-0.7,1.8c0,0.8,0.2,1.4,0.5,1.7s0.8,0.6,1.5,0.6c0.7,0,1.3-0.1,1.8-0.4
		s0.9-0.5,1.1-0.8V13.2z"/>
	<path class="st0" d="M775.7,18.6c-0.4,0.2-0.9,0.4-1.7,0.6c-0.7,0.2-1.5,0.3-2.3,0.3c-1.1,0-2-0.2-2.8-0.5
		c-0.7-0.3-1.3-0.7-1.8-1.3c-0.4-0.6-0.8-1.2-0.9-2c-0.2-0.8-0.3-1.7-0.3-2.6c0-0.9,0.1-1.7,0.3-2.5c0.2-0.8,0.5-1.5,1-2.1
		c0.4-0.6,1-1,1.7-1.4c0.7-0.3,1.5-0.5,2.4-0.5c0.9,0,1.7,0.2,2.3,0.6c0.6,0.4,1.1,0.8,1.5,1.4s0.6,1.2,0.8,2
		c0.2,0.7,0.3,1.5,0.3,2.2l-0.8,0.8h-7.1c0.1,1.4,0.4,2.5,0.9,3.1c0.6,0.7,1.4,1,2.6,1c0.6,0,1.2-0.1,1.7-0.2
		c0.5-0.1,1.1-0.3,1.5-0.5L775.7,18.6z M773.9,12.1c0-1.3-0.2-2.2-0.7-2.9s-1.2-1-2.1-1c-1,0-1.7,0.3-2.1,1s-0.7,1.6-0.7,2.9H773.9z
		"/>
	<path class="st0" d="M779.4,9.6l-0.9-2l1.8-0.9l1,1.6c0.7-0.5,1.4-0.9,2-1.2c0.6-0.2,1.3-0.4,2-0.4c0.8,0,1.5,0.1,2,0.4
		s1,0.6,1.3,1s0.5,0.9,0.7,1.5c0.1,0.6,0.2,1.2,0.2,1.8v7.8h-2.2v-7.7c0-1-0.2-1.7-0.6-2.2c-0.4-0.4-1-0.7-1.8-0.7
		c-0.6,0-1.2,0.1-1.7,0.3c-0.6,0.2-1,0.5-1.4,0.8v9.4h-2.2V9.6z"/>
	<path class="st0" d="M806.8,18.6c-0.4,0.2-1,0.5-1.6,0.7c-0.6,0.2-1.4,0.3-2.2,0.3c-1.1,0-2-0.2-2.7-0.5c-0.7-0.3-1.3-0.7-1.7-1.3
		s-0.7-1.2-0.9-2c-0.2-0.8-0.3-1.6-0.3-2.6c0-0.9,0.1-1.8,0.3-2.6c0.2-0.8,0.6-1.5,1-2.1s1.1-1.1,1.8-1.4c0.7-0.3,1.6-0.5,2.6-0.5
		c0.7,0,1.4,0.1,2,0.3s1.1,0.4,1.6,0.7L806,9.1c-0.4-0.2-0.9-0.4-1.4-0.6c-0.5-0.2-1-0.2-1.6-0.2c-1.2,0-2.1,0.4-2.6,1.2
		c-0.6,0.8-0.8,2-0.8,3.7c0,0.7,0.1,1.4,0.2,1.9c0.1,0.6,0.3,1.1,0.6,1.5c0.3,0.4,0.6,0.7,1.1,0.9c0.4,0.2,1,0.3,1.7,0.3
		c0.5,0,1,0,1.5-0.1c0.4-0.1,1-0.3,1.6-0.6L806.8,18.6z"/>
	<path class="st0" d="M816,18.1c-0.5,0.4-1,0.7-1.6,1c-0.6,0.3-1.3,0.4-2.2,0.4c-1.2,0-2.1-0.3-2.9-0.9s-1.1-1.6-1.1-2.9
		c0-0.7,0.1-1.3,0.4-1.8c0.2-0.5,0.6-0.9,1-1.2c0.4-0.3,1-0.5,1.6-0.7c0.6-0.1,1.3-0.2,2.1-0.2h2.1v-0.6c0-1-0.2-1.7-0.5-2.2
		c-0.3-0.4-0.9-0.7-1.8-0.7c-1.2,0-2.3,0.2-3.5,0.7l-0.6-1.5c0.5-0.2,1.1-0.4,1.8-0.6c0.7-0.2,1.6-0.3,2.6-0.3
		c0.9,0,1.7,0.1,2.2,0.4c0.5,0.3,1,0.6,1.2,1.1c0.3,0.4,0.5,1,0.5,1.6c0.1,0.6,0.1,1.3,0.1,1.9v5.2l1,1.5l-1.6,1.2L816,18.1z
		 M815.5,13.2h-1.9c-1.1,0-1.9,0.2-2.4,0.5c-0.5,0.3-0.7,0.9-0.7,1.8c0,0.8,0.2,1.4,0.5,1.7s0.8,0.6,1.5,0.6c0.7,0,1.3-0.1,1.8-0.4
		s0.9-0.5,1.1-0.8V13.2z"/>
	<path class="st0" d="M829.6,18.2c-0.5,0.4-1,0.7-1.6,0.9s-1.3,0.4-2.1,0.4c-1.6,0-2.9-0.5-3.7-1.6c-0.8-1.1-1.2-2.7-1.2-4.8
		c0-1,0.1-1.8,0.4-2.6s0.6-1.5,1.1-2c0.5-0.6,1.1-1,1.8-1.3c0.7-0.3,1.6-0.5,2.5-0.5c0.4,0,0.8,0,1.2,0.1c0.4,0.1,0.7,0.1,1,0.2V1.4
		h2.2v15.3l1,1.5l-1.6,1.2L829.6,18.2z M829,8.6c-0.2-0.1-0.5-0.2-0.9-0.2c-0.4-0.1-0.8-0.1-1.3-0.1c-1.2,0-2.1,0.4-2.7,1.2
		c-0.6,0.8-0.9,2-0.9,3.6c0,1.5,0.2,2.7,0.7,3.5c0.5,0.8,1.2,1.3,2.3,1.3c0.7,0,1.2-0.1,1.6-0.3c0.4-0.2,0.8-0.5,1.1-0.8V8.6z"/>
	<path class="st0" d="M842,18.1c-0.5,0.4-1,0.7-1.6,1c-0.6,0.3-1.3,0.4-2.2,0.4c-1.2,0-2.1-0.3-2.9-0.9s-1.1-1.6-1.1-2.9
		c0-0.7,0.1-1.3,0.4-1.8c0.2-0.5,0.6-0.9,1-1.2c0.4-0.3,1-0.5,1.6-0.7c0.6-0.1,1.3-0.2,2.1-0.2h2.1v-0.6c0-1-0.2-1.7-0.5-2.2
		c-0.3-0.4-0.9-0.7-1.8-0.7c-1.2,0-2.3,0.2-3.5,0.7l-0.6-1.5c0.5-0.2,1.1-0.4,1.8-0.6c0.7-0.2,1.6-0.3,2.6-0.3
		c0.9,0,1.7,0.1,2.2,0.4c0.5,0.3,1,0.6,1.2,1.1c0.3,0.4,0.5,1,0.5,1.6c0.1,0.6,0.1,1.3,0.1,1.9v5.2l1,1.5l-1.6,1.2L842,18.1z
		 M841.4,13.2h-1.9c-1.1,0-1.9,0.2-2.4,0.5c-0.5,0.3-0.7,0.9-0.7,1.8c0,0.8,0.2,1.4,0.5,1.7s0.8,0.6,1.5,0.6c0.7,0,1.3-0.1,1.8-0.4
		s0.9-0.5,1.1-0.8V13.2z"/>
	<path class="st0" d="M852.2,9.6l-1-2l1.8-0.9l1,1.5c0.4-0.4,0.9-0.7,1.4-1s1.2-0.5,2-0.5c1.6,0,2.9,0.5,3.8,1.6
		c0.9,1.1,1.3,2.7,1.3,4.8c0,1-0.1,1.8-0.4,2.6c-0.3,0.8-0.6,1.5-1.1,2c-0.5,0.6-1.1,1-1.9,1.3c-0.8,0.3-1.6,0.5-2.6,0.5
		c-0.4,0-0.7,0-1.1-0.1c-0.4-0.1-0.7-0.1-1-0.2v5.1h-2.2V9.6z M854.4,17.6c0.3,0.1,0.6,0.2,1,0.2c0.4,0.1,0.8,0.1,1.2,0.1
		c1.2,0,2.1-0.4,2.7-1.3c0.6-0.8,0.9-2,0.9-3.6c0-1.5-0.2-2.7-0.7-3.5c-0.4-0.8-1.2-1.3-2.2-1.3c-0.6,0-1.1,0.1-1.5,0.3
		s-0.9,0.5-1.4,1V17.6z"/>
	<path class="st0" d="M872.6,18.1c-0.5,0.4-1,0.7-1.6,1c-0.6,0.3-1.3,0.4-2.2,0.4c-1.2,0-2.1-0.3-2.9-0.9s-1.1-1.6-1.1-2.9
		c0-0.7,0.1-1.3,0.4-1.8c0.2-0.5,0.6-0.9,1-1.2c0.4-0.3,1-0.5,1.6-0.7c0.6-0.1,1.3-0.2,2.1-0.2h2.1v-0.6c0-1-0.2-1.7-0.5-2.2
		c-0.3-0.4-0.9-0.7-1.8-0.7c-1.2,0-2.3,0.2-3.5,0.7l-0.6-1.5c0.5-0.2,1.1-0.4,1.8-0.6c0.7-0.2,1.6-0.3,2.6-0.3
		c0.9,0,1.7,0.1,2.2,0.4c0.5,0.3,1,0.6,1.2,1.1c0.3,0.4,0.5,1,0.5,1.6c0.1,0.6,0.1,1.3,0.1,1.9v5.2l1,1.5l-1.6,1.2L872.6,18.1z
		 M872.1,13.2h-1.9c-1.1,0-1.9,0.2-2.4,0.5c-0.5,0.3-0.7,0.9-0.7,1.8c0,0.8,0.2,1.4,0.5,1.7s0.8,0.6,1.5,0.6c0.7,0,1.3-0.1,1.8-0.4
		s0.9-0.5,1.1-0.8V13.2z"/>
	<path class="st0" d="M878.2,8.7h-1.5V7.1h3.8v12h-2.2V8.7z M880,0l1.8,1.2l-3.4,3.9l-1.1-0.8L880,0z"/>
	<path class="st0" d="M883.8,16.8c0.4,0.2,0.9,0.4,1.5,0.7s1.4,0.4,2.2,0.4c0.8,0,1.5-0.1,2-0.4s0.7-0.8,0.7-1.4
		c0-0.4-0.1-0.7-0.2-0.9c-0.2-0.2-0.4-0.4-0.6-0.6c-0.3-0.2-0.6-0.3-0.9-0.4c-0.4-0.1-0.7-0.2-1.1-0.3c-0.4-0.1-0.9-0.2-1.3-0.4
		c-0.4-0.2-0.8-0.4-1.2-0.6c-0.3-0.3-0.6-0.6-0.8-1c-0.2-0.4-0.3-0.9-0.3-1.5c0-0.5,0.1-1,0.3-1.5c0.2-0.4,0.5-0.8,0.9-1.2
		s0.9-0.6,1.4-0.8s1.2-0.3,2-0.3c0.8,0,1.5,0.1,2.2,0.3s1.2,0.4,1.7,0.7L891.3,9c-1-0.5-2.1-0.8-3.2-0.8c-0.8,0-1.4,0.1-1.8,0.4
		c-0.4,0.3-0.7,0.7-0.7,1.3c0,0.4,0.1,0.6,0.2,0.9c0.1,0.2,0.3,0.4,0.6,0.6s0.5,0.3,0.9,0.4c0.3,0.1,0.7,0.2,1,0.3
		c0.4,0.1,0.9,0.3,1.3,0.4s0.9,0.3,1.3,0.6c0.4,0.3,0.7,0.6,0.9,1s0.4,1,0.4,1.6c0,1.2-0.4,2.1-1.1,2.8c-0.8,0.7-1.9,1-3.5,1
		c-1.1,0-2-0.1-2.7-0.4c-0.8-0.3-1.3-0.5-1.7-0.8L883.8,16.8z"/>
	<path class="st0" d="M896.2,19.5c-0.5,0-0.9-0.2-1.2-0.5c-0.2-0.3-0.4-0.7-0.4-1.2c0-0.5,0.1-0.9,0.4-1.2c0.2-0.3,0.6-0.5,1.2-0.5
		c0.5,0,0.9,0.2,1.1,0.5c0.2,0.3,0.4,0.7,0.4,1.2c0,0.5-0.1,0.9-0.4,1.2C897.1,19.4,896.8,19.5,896.2,19.5z"/>
</g>
</svg>
