<?xml version="1.0" encoding="utf-8"?>
<!-- Generator: Adobe Illustrator 19.2.1, SVG Export Plug-In . SVG Version: 6.00 Build 0)  -->
<!DOCTYPE svg PUBLIC "-//W3C//DTD SVG 1.1//EN" "http://www.w3.org/Graphics/SVG/1.1/DTD/svg11.dtd">
<svg version="1.1" id="Layer_1" xmlns="http://www.w3.org/2000/svg" xmlns:xlink="http://www.w3.org/1999/xlink" x="0px" y="0px"
	 viewBox="0 0 1326 181.9" style="enable-background:new 0 0 1326 181.9;" xml:space="preserve">
<style type="text/css">
	.st0{fill:#595A5C;}
</style>
<g>
	<path class="st0" d="M77.2,26.7c-1.2,0-2.1-0.3-2.7-0.9c-0.6-0.6-0.9-1.5-0.9-2.6c0-0.9,0.2-1.6,0.7-2.3c0.4-0.7,1-1.4,1.5-2.1
		L86.2,5.9h5v16.7h3.2v4.2h-3.2v6.2h-5.9v-6.2H77.2z M79.5,20.6c-0.2,0.2-0.3,0.4-0.4,0.6C79,21.4,79,21.5,79,21.7
		c0,0.4,0.1,0.6,0.3,0.7c0.2,0.1,0.5,0.1,1,0.1h5v-9L79.5,20.6z"/>
	<path class="st0" d="M103.8,32.9h-6.1V5.5h9.3c1.3,0,2.6,0.1,3.8,0.4c1.2,0.3,2.2,0.7,3.1,1.3c0.9,0.6,1.6,1.4,2.1,2.4
		c0.5,1,0.7,2.2,0.7,3.6c0,1.9-0.5,3.5-1.4,4.7c-0.9,1.2-2.1,2.1-3.5,2.8c0.4,0.3,0.8,0.8,1.3,1.5l5.9,10.5l-6.4,0.8l-5.1-9.3
		c-0.4-0.6-0.7-1.1-1.1-1.4s-1-0.5-1.9-0.5h-0.6V32.9z M106.1,17.6c1.4,0,2.4-0.3,3-1c0.6-0.7,0.9-1.6,0.9-2.9
		c0-1.3-0.3-2.3-0.9-2.9c-0.6-0.6-1.7-1-3.1-1h-2.1v7.8H106.1z"/>
	<path class="st0" d="M138.5,28.7l1.3,2.7l-4.7,2.3l-1.7-2.4c-0.9,0.8-1.9,1.4-2.8,1.8s-1.8,0.5-2.7,0.5c-2.4,0-4.1-0.6-5.1-1.9
		c-1-1.2-1.5-3.1-1.5-5.5V13.5h5.8v11.7c0,1.4,0.2,2.4,0.6,3c0.4,0.6,1.1,0.8,2.1,0.8c0.6,0,1.2-0.1,1.7-0.3c0.5-0.2,1-0.5,1.3-0.9
		V13.5h5.8V28.7z"/>
	<path class="st0" d="M143.6,17.7l-1.1-2.9l4.4-2.1l2,2.8c1-0.9,2-1.6,2.9-2.1c0.9-0.4,1.9-0.6,3.1-0.6c1.3,0,2.4,0.2,3.3,0.6
		s1.5,0.9,2,1.7c0.5,0.7,0.8,1.6,1,2.6c0.2,1,0.2,2.1,0.2,3.2v12h-5.8V21.7c0-1.5-0.2-2.6-0.5-3.2c-0.4-0.7-1.1-1-2.2-1
		c-1.3,0-2.4,0.6-3.3,1.8v13.6h-5.8V17.7z"/>
	<path class="st0" d="M166.1,17.7l-1.1-2.9l4.4-2.1l2,2.8c1-0.9,2-1.6,2.9-2.1c0.9-0.4,1.9-0.6,3.1-0.6c1.3,0,2.4,0.2,3.3,0.6
		s1.5,0.9,2,1.7c0.5,0.7,0.8,1.6,1,2.6c0.2,1,0.2,2.1,0.2,3.2v12H178V21.7c0-1.5-0.2-2.6-0.5-3.2c-0.4-0.7-1.1-1-2.2-1
		c-1.3,0-2.4,0.6-3.3,1.8v13.6h-5.8V17.7z"/>
	<path class="st0" d="M197.6,29.4c1.1,0,2-0.1,2.8-0.2c0.8-0.2,1.7-0.5,2.5-0.9l1.7,3.6c-1.2,0.7-2.4,1.1-3.7,1.4
		c-1.3,0.2-2.6,0.3-4.1,0.3c-3.3,0-5.7-0.9-7.1-2.7c-1.4-1.8-2.1-4.3-2.1-7.7c0-1.5,0.2-3,0.6-4.2c0.4-1.3,1-2.4,1.7-3.3
		c0.8-0.9,1.7-1.6,2.9-2.1c1.2-0.5,2.5-0.8,4-0.8c1.5,0,2.7,0.2,3.8,0.7c1.1,0.5,1.9,1.2,2.6,2.1s1.2,2,1.5,3.3
		c0.3,1.3,0.5,2.8,0.5,4.4l-1.5,1.6h-10.3c0.2,1.6,0.6,2.7,1.3,3.4C195.5,29.1,196.4,29.4,197.6,29.4z M199.7,21.3
		c0-2.9-1-4.3-2.9-4.3c-1,0-1.8,0.3-2.4,0.9c-0.6,0.6-0.9,1.7-1,3.4H199.7z"/>
	<path class="st0" d="M221.2,18.7c-0.3-0.1-0.6-0.3-1-0.4c-0.4-0.1-0.9-0.2-1.6-0.2c-0.6,0-1.2,0.2-1.8,0.5
		c-0.6,0.3-1.2,0.8-1.7,1.4v12.9h-5.8V17.4H207v-3.9h7.3l0.6,2.5c0.9-1,1.7-1.7,2.5-2.1c0.8-0.4,1.7-0.6,2.8-0.6
		c0.4,0,0.9,0,1.3,0.1c0.4,0,0.9,0.1,1.3,0.2L221.2,18.7z"/>
	<path class="st0" d="M247.9,32.1c-0.6,0.4-1.5,0.7-2.6,1s-2.4,0.5-3.6,0.5c-1.7,0-3.2-0.2-4.4-0.7c-1.2-0.5-2.1-1.2-2.8-2.1
		s-1.2-2-1.5-3.2c-0.3-1.3-0.4-2.6-0.4-4.2c0-1.4,0.2-2.7,0.5-4c0.3-1.2,0.8-2.3,1.5-3.2c0.7-0.9,1.6-1.7,2.6-2.2
		c1.1-0.5,2.3-0.8,3.8-0.8c1.4,0,2.6,0.3,3.6,0.9c1,0.6,1.8,1.3,2.4,2.3s1,2,1.3,3.2c0.3,1.2,0.4,2.3,0.4,3.5l-1.3,1.3h-11.3
		c0.1,2.2,0.6,3.9,1.5,5c0.9,1.1,2.2,1.6,4.1,1.6c1,0,1.9-0.1,2.7-0.3c0.9-0.2,1.7-0.5,2.4-0.8L247.9,32.1z M245,21.9
		c0-2-0.4-3.6-1.1-4.6c-0.7-1-1.8-1.6-3.3-1.6c-1.6,0-2.7,0.5-3.3,1.6c-0.7,1.1-1.1,2.6-1.2,4.5H245z"/>
	<path class="st0" d="M252.8,29.3c0.6,0.3,1.4,0.7,2.4,1.1c1,0.4,2.1,0.6,3.4,0.6c1.3,0,2.4-0.2,3.2-0.7c0.8-0.5,1.2-1.2,1.2-2.2
		c0-0.6-0.1-1.1-0.4-1.4c-0.3-0.4-0.6-0.7-1-0.9c-0.4-0.2-0.9-0.4-1.5-0.6s-1.2-0.3-1.8-0.5c-0.7-0.2-1.4-0.4-2.1-0.6
		c-0.7-0.3-1.3-0.6-1.9-1c-0.5-0.4-1-0.9-1.3-1.6c-0.3-0.6-0.5-1.4-0.5-2.4c0-0.8,0.1-1.6,0.4-2.3c0.3-0.7,0.7-1.3,1.3-1.8
		c0.6-0.5,1.4-0.9,2.3-1.2c0.9-0.3,2-0.5,3.2-0.5c1.2,0,2.4,0.1,3.4,0.4c1.1,0.3,2,0.6,2.7,1l-1.1,2.3c-1.6-0.9-3.3-1.3-5.1-1.3
		c-1.2,0-2.2,0.2-2.9,0.6c-0.7,0.4-1,1.1-1,2.1c0,0.6,0.1,1,0.3,1.4c0.2,0.4,0.5,0.7,0.9,0.9c0.4,0.2,0.8,0.4,1.4,0.6
		c0.5,0.2,1.1,0.3,1.6,0.5c0.7,0.2,1.4,0.4,2.1,0.6c0.7,0.2,1.4,0.5,2,1c0.6,0.4,1.1,1,1.5,1.6c0.4,0.7,0.6,1.5,0.6,2.6
		c0,1.9-0.6,3.4-1.8,4.4c-1.2,1.1-3.1,1.6-5.6,1.6c-1.7,0-3.1-0.2-4.4-0.6c-1.2-0.4-2.1-0.8-2.7-1.2L252.8,29.3z"/>
	<path class="st0" d="M292.6,32.1c-0.6,0.4-1.5,0.7-2.6,1s-2.4,0.5-3.6,0.5c-1.7,0-3.2-0.2-4.4-0.7c-1.2-0.5-2.1-1.2-2.8-2.1
		s-1.2-2-1.5-3.2c-0.3-1.3-0.4-2.6-0.4-4.2c0-1.4,0.2-2.7,0.5-4c0.3-1.2,0.8-2.3,1.5-3.2c0.7-0.9,1.6-1.7,2.6-2.2
		c1.1-0.5,2.3-0.8,3.8-0.8c1.4,0,2.6,0.3,3.6,0.9c1,0.6,1.8,1.3,2.4,2.3s1,2,1.3,3.2c0.3,1.2,0.4,2.3,0.4,3.5l-1.3,1.3h-11.3
		c0.1,2.2,0.6,3.9,1.5,5c0.9,1.1,2.2,1.6,4.1,1.6c1,0,1.9-0.1,2.7-0.3c0.9-0.2,1.7-0.5,2.4-0.8L292.6,32.1z M289.8,21.9
		c0-2-0.4-3.6-1.1-4.6c-0.7-1-1.8-1.6-3.3-1.6c-1.6,0-2.7,0.5-3.3,1.6c-0.7,1.1-1.1,2.6-1.2,4.5H289.8z"/>
	<path class="st0" d="M298.5,17.8l-1.5-3.2l2.8-1.5l1.6,2.5c1-0.9,2-1.6,3-1.9c1-0.3,1.9-0.5,2.7-0.5c1.4,0,2.4,0.2,3.1,0.6
		c0.7,0.4,1.3,1,1.8,1.8c1.1-1,2.2-1.6,3.3-2c1.1-0.3,2-0.5,2.7-0.5c1.3,0,2.3,0.2,3.1,0.6c0.8,0.4,1.4,0.9,1.8,1.6
		c0.4,0.7,0.7,1.5,0.8,2.4c0.1,0.9,0.2,1.8,0.2,2.8v12.3h-3.5V20.5c0-1.5-0.2-2.6-0.7-3.3c-0.4-0.7-1.3-1-2.6-1
		c-0.7,0-1.5,0.1-2.3,0.4c-0.8,0.3-1.5,0.7-2.3,1.3c0.1,0.4,0.1,0.8,0.1,1.3c0,0.5,0.1,0.9,0.1,1.3v12.3h-3.5V20.4
		c0-1.4-0.2-2.5-0.7-3.2c-0.4-0.7-1.3-1-2.6-1c-0.7,0-1.4,0.1-2.2,0.4c-0.7,0.3-1.4,0.7-2.1,1.3v15h-3.5V17.8z"/>
	<path class="st0" d="M330.3,5.5h3.5v8.7c0.6-0.3,1.3-0.6,2-0.7c0.7-0.2,1.5-0.3,2.4-0.3c2.6,0,4.5,0.8,5.9,2.5
		c1.4,1.7,2.1,4.2,2.1,7.6c0,1.5-0.2,2.9-0.5,4.1c-0.3,1.3-0.9,2.3-1.6,3.2c-0.7,0.9-1.7,1.6-2.9,2.1c-1.2,0.5-2.6,0.8-4.4,0.8
		c-1.4,0-2.7-0.1-4-0.3c-1.2-0.2-2.1-0.4-2.7-0.7V5.5z M333.8,30.7c0.3,0.1,0.8,0.2,1.4,0.3c0.7,0.1,1.4,0.1,2.1,0.1
		c1.9,0,3.3-0.7,4.1-2c0.8-1.3,1.2-3.3,1.2-5.9c0-2.3-0.4-4.1-1.1-5.5c-0.7-1.4-2-2-3.8-2c-0.8,0-1.5,0.1-2.3,0.3
		c-0.7,0.2-1.3,0.4-1.7,0.7V30.7z"/>
	<path class="st0" d="M351.5,7.5h-2.4V5h5.9v27.9h-3.5V7.5z"/>
	<path class="st0" d="M375.6,32.1c-0.6,0.4-1.5,0.7-2.6,1s-2.4,0.5-3.6,0.5c-1.7,0-3.2-0.2-4.4-0.7c-1.2-0.5-2.1-1.2-2.8-2.1
		s-1.2-2-1.5-3.2c-0.3-1.3-0.4-2.6-0.4-4.2c0-1.4,0.2-2.7,0.5-4c0.3-1.2,0.8-2.3,1.5-3.2c0.7-0.9,1.6-1.7,2.6-2.2
		c1.1-0.5,2.3-0.8,3.8-0.8c1.4,0,2.6,0.3,3.6,0.9c1,0.6,1.8,1.3,2.4,2.3s1,2,1.3,3.2c0.3,1.2,0.4,2.3,0.4,3.5l-1.3,1.3h-11.3
		c0.1,2.2,0.6,3.9,1.5,5c0.9,1.1,2.2,1.6,4.1,1.6c1,0,1.9-0.1,2.7-0.3c0.9-0.2,1.7-0.5,2.4-0.8L375.6,32.1z M372.7,21.9
		c0-2-0.4-3.6-1.1-4.6c-0.7-1-1.8-1.6-3.3-1.6c-1.6,0-2.7,0.5-3.3,1.6c-0.7,1.1-1.1,2.6-1.2,4.5H372.7z"/>
	<path class="st0" d="M381.4,17.8l-1.5-3.2l2.8-1.5l1.6,2.5c1-0.9,2-1.6,3-1.9c1-0.3,1.9-0.5,2.7-0.5c1.4,0,2.4,0.2,3.1,0.6
		c0.7,0.4,1.3,1,1.8,1.8c1.1-1,2.2-1.6,3.3-2c1.1-0.3,2-0.5,2.7-0.5c1.3,0,2.3,0.2,3.1,0.6c0.8,0.4,1.4,0.9,1.8,1.6
		c0.4,0.7,0.7,1.5,0.8,2.4c0.1,0.9,0.2,1.8,0.2,2.8v12.3h-3.5V20.5c0-1.5-0.2-2.6-0.7-3.3c-0.4-0.7-1.3-1-2.6-1
		c-0.7,0-1.5,0.1-2.3,0.4c-0.8,0.3-1.5,0.7-2.3,1.3c0.1,0.4,0.1,0.8,0.1,1.3c0,0.5,0.1,0.9,0.1,1.3v12.3h-3.5V20.4
		c0-1.4-0.2-2.5-0.7-3.2c-0.4-0.7-1.3-1-2.6-1c-0.7,0-1.4,0.1-2.2,0.4c-0.7,0.3-1.4,0.7-2.1,1.3v15h-3.5V17.8z"/>
	<path class="st0" d="M424,31.4c-0.7,0.6-1.6,1.1-2.5,1.6c-0.9,0.5-2.1,0.7-3.5,0.7c-1.9,0-3.4-0.5-4.5-1.5c-1.1-1-1.7-2.6-1.7-4.7
		c0-1.1,0.2-2.1,0.6-2.8c0.4-0.8,0.9-1.4,1.7-1.9c0.7-0.5,1.6-0.9,2.6-1.1c1-0.2,2.1-0.3,3.3-0.3h3.3v-1c0-1.6-0.2-2.7-0.7-3.4
		c-0.5-0.7-1.4-1-2.8-1c-1.8,0-3.7,0.4-5.6,1.1l-0.9-2.4c0.7-0.3,1.7-0.6,2.8-0.9c1.1-0.3,2.5-0.5,4.1-0.5c1.5,0,2.7,0.2,3.5,0.6
		c0.9,0.4,1.5,1,2,1.7c0.4,0.7,0.7,1.5,0.9,2.5c0.1,1,0.2,2,0.2,3.1v8.2l1.6,2.4l-2.5,1.9L424,31.4z M423.2,23.6h-3
		c-1.7,0-3,0.3-3.7,0.8c-0.7,0.5-1.1,1.5-1.1,2.8c0,1.2,0.3,2.2,0.8,2.8c0.5,0.6,1.3,0.9,2.4,0.9c1.1,0,2.1-0.2,2.9-0.6
		s1.4-0.8,1.8-1.3V23.6z M421.8,2.7l2.8,1.9l-5.4,6.2l-1.7-1.3L421.8,2.7z"/>
	<path class="st0" d="M433.8,16.5h-3.5v-2.6h3.6V8.2h3.4v5.7h5.6v2.6h-5.6v11c0,0.7,0.1,1.3,0.2,1.8c0.1,0.4,0.3,0.8,0.6,1
		c0.2,0.2,0.5,0.4,0.9,0.5c0.3,0.1,0.7,0.1,1.1,0.1c0.4,0,0.9-0.1,1.4-0.2c0.5-0.1,1-0.3,1.5-0.5l0.8,2.3c-0.4,0.2-1,0.4-1.8,0.6
		c-0.8,0.2-1.6,0.3-2.4,0.3c-0.9,0-1.7-0.1-2.4-0.3c-0.7-0.2-1.3-0.5-1.8-0.9c-0.5-0.4-0.9-1-1.1-1.7c-0.3-0.7-0.4-1.6-0.4-2.7V16.5
		z"/>
	<path class="st0" d="M447.5,16.4h-2.4v-2.5h6v19h-3.5V16.4z M448.9,10.3c-0.7,0-1.3-0.2-1.7-0.7s-0.6-1.1-0.6-1.8
		c0-0.7,0.2-1.3,0.6-1.8s1-0.7,1.7-0.7c0.8,0,1.3,0.2,1.8,0.7c0.4,0.5,0.6,1.1,0.6,1.8c0,0.7-0.2,1.3-0.6,1.8
		C450.2,10.1,449.6,10.3,448.9,10.3z"/>
	<path class="st0" d="M471.2,32.1c-0.7,0.4-1.5,0.7-2.6,1c-1,0.3-2.2,0.5-3.6,0.5c-1.7,0-3.2-0.2-4.3-0.7c-1.1-0.5-2.1-1.2-2.7-2.1
		c-0.7-0.9-1.2-1.9-1.5-3.2c-0.3-1.2-0.4-2.6-0.4-4.1c0-1.5,0.2-2.8,0.5-4.1c0.4-1.3,0.9-2.4,1.7-3.3c0.7-0.9,1.7-1.7,2.9-2.2
		c1.2-0.5,2.5-0.8,4.2-0.8c1.2,0,2.2,0.2,3.2,0.5c1,0.3,1.8,0.7,2.5,1.1l-1.1,2.4c-0.7-0.4-1.4-0.7-2.2-0.9
		c-0.8-0.2-1.6-0.4-2.6-0.4c-1.9,0-3.2,0.6-4.1,1.9s-1.3,3.2-1.3,5.8c0,1.1,0.1,2.2,0.3,3.1c0.2,0.9,0.5,1.7,0.9,2.3
		c0.4,0.6,1,1.1,1.7,1.5c0.7,0.3,1.6,0.5,2.6,0.5c0.8,0,1.6-0.1,2.3-0.2c0.7-0.2,1.5-0.5,2.5-0.9L471.2,32.1z"/>
	<path class="st0" d="M482.3,33.6c-1.6,0-3-0.3-4.1-0.8c-1.1-0.5-2-1.2-2.6-2.1c-0.7-0.9-1.1-2-1.4-3.2s-0.4-2.6-0.4-4.1
		c0-1.5,0.2-2.8,0.5-4.1c0.4-1.3,0.9-2.3,1.6-3.2c0.7-0.9,1.6-1.6,2.7-2.1c1.1-0.5,2.4-0.8,3.8-0.8c1.5,0,2.8,0.3,3.9,0.8
		c1.1,0.5,2,1.2,2.7,2.1s1.2,2,1.5,3.2c0.3,1.3,0.5,2.6,0.5,4.1c0,1.5-0.2,2.9-0.5,4.1c-0.3,1.2-0.8,2.3-1.5,3.2
		c-0.7,0.9-1.6,1.6-2.7,2.1C485.2,33.3,483.8,33.6,482.3,33.6z M482.4,31.1c1.8,0,3.1-0.7,3.9-2c0.7-1.3,1.1-3.2,1.1-5.7
		c0-2.4-0.4-4.3-1.1-5.6c-0.7-1.3-2-2-3.9-2c-1.8,0-3.1,0.6-3.9,1.9c-0.7,1.3-1.1,3.2-1.1,5.7c0,1.2,0.1,2.3,0.3,3.2
		c0.2,1,0.5,1.8,0.9,2.4c0.4,0.7,0.9,1.2,1.6,1.5C480.7,30.9,481.5,31.1,482.4,31.1z"/>
	<path class="st0" d="M518,32.1c-0.6,0.4-1.5,0.7-2.6,1s-2.4,0.5-3.6,0.5c-1.7,0-3.2-0.2-4.4-0.7c-1.2-0.5-2.1-1.2-2.8-2.1
		s-1.2-2-1.5-3.2c-0.3-1.3-0.4-2.6-0.4-4.2c0-1.4,0.2-2.7,0.5-4c0.3-1.2,0.8-2.3,1.5-3.2c0.7-0.9,1.6-1.7,2.6-2.2
		c1.1-0.5,2.3-0.8,3.8-0.8c1.4,0,2.6,0.3,3.6,0.9c1,0.6,1.8,1.3,2.4,2.3s1,2,1.3,3.2c0.3,1.2,0.4,2.3,0.4,3.5l-1.3,1.3h-11.3
		c0.1,2.2,0.6,3.9,1.5,5c0.9,1.1,2.2,1.6,4.1,1.6c1,0,1.9-0.1,2.7-0.3c0.9-0.2,1.7-0.5,2.4-0.8L518,32.1z M515.1,21.9
		c0-2-0.4-3.6-1.1-4.6c-0.7-1-1.8-1.6-3.3-1.6c-1.6,0-2.7,0.5-3.3,1.6c-0.7,1.1-1.1,2.6-1.2,4.5H515.1z"/>
	<path class="st0" d="M523.8,17.8l-1.5-3.2l2.8-1.5l1.6,2.5c1.1-0.9,2.2-1.5,3.2-1.9c1-0.4,2.1-0.6,3.2-0.6c1.3,0,2.3,0.2,3.2,0.6
		c0.8,0.4,1.5,0.9,2,1.6c0.5,0.7,0.9,1.5,1.1,2.4c0.2,0.9,0.3,1.8,0.3,2.8v12.3h-3.5V20.7c0-1.6-0.3-2.7-1-3.5
		c-0.6-0.7-1.6-1.1-2.9-1.1c-1,0-1.9,0.2-2.8,0.5s-1.6,0.8-2.2,1.3v14.9h-3.5V17.8z"/>
	<path class="st0" d="M567.5,32.1c-0.6,0.4-1.5,0.7-2.6,1s-2.4,0.5-3.6,0.5c-1.7,0-3.2-0.2-4.4-0.7c-1.2-0.5-2.1-1.2-2.8-2.1
		s-1.2-2-1.5-3.2c-0.3-1.3-0.4-2.6-0.4-4.2c0-1.4,0.2-2.7,0.5-4c0.3-1.2,0.8-2.3,1.5-3.2c0.7-0.9,1.6-1.7,2.6-2.2
		c1.1-0.5,2.3-0.8,3.8-0.8c1.4,0,2.6,0.3,3.6,0.9c1,0.6,1.8,1.3,2.4,2.3s1,2,1.3,3.2c0.3,1.2,0.4,2.3,0.4,3.5l-1.3,1.3h-11.3
		c0.1,2.2,0.6,3.9,1.5,5c0.9,1.1,2.2,1.6,4.1,1.6c1,0,1.9-0.1,2.7-0.3c0.9-0.2,1.7-0.5,2.4-0.8L567.5,32.1z M564.7,21.9
		c0-2-0.4-3.6-1.1-4.6c-0.7-1-1.8-1.6-3.3-1.6c-1.6,0-2.7,0.5-3.3,1.6c-0.7,1.1-1.1,2.6-1.2,4.5H564.7z"/>
	<path class="st0" d="M573.2,7.5h-2.4V5h5.9v27.9h-3.5V7.5z"/>
	<path class="st0" d="M590.4,17.8l-1.5-3.2l2.8-1.5l1.6,2.5c1-0.9,2-1.6,3-1.9c1-0.3,1.9-0.5,2.7-0.5c1.4,0,2.4,0.2,3.1,0.6
		c0.7,0.4,1.3,1,1.8,1.8c1.1-1,2.2-1.6,3.3-2c1.1-0.3,2-0.5,2.7-0.5c1.3,0,2.3,0.2,3.1,0.6c0.8,0.4,1.4,0.9,1.8,1.6
		c0.4,0.7,0.7,1.5,0.8,2.4c0.1,0.9,0.2,1.8,0.2,2.8v12.3h-3.5V20.5c0-1.5-0.2-2.6-0.7-3.3c-0.4-0.7-1.3-1-2.6-1
		c-0.7,0-1.5,0.1-2.3,0.4c-0.8,0.3-1.5,0.7-2.3,1.3c0.1,0.4,0.1,0.8,0.1,1.3c0,0.5,0.1,0.9,0.1,1.3v12.3h-3.5V20.4
		c0-1.4-0.2-2.5-0.7-3.2c-0.4-0.7-1.3-1-2.6-1c-0.7,0-1.4,0.1-2.2,0.4c-0.7,0.3-1.4,0.7-2.1,1.3v15h-3.5V17.8z"/>
	<path class="st0" d="M621.8,13.9h3.5v12.4c0,1.5,0.3,2.6,0.9,3.5c0.6,0.8,1.5,1.2,2.9,1.2c1.1,0,2-0.2,2.7-0.5s1.3-0.8,2-1.3V13.9
		h3.5v15.4l1.6,2.3l-2.5,1.9l-1.7-2.1c-1,0.8-2,1.3-2.9,1.7c-0.9,0.3-2,0.5-3.1,0.5c-1.4,0-2.5-0.2-3.4-0.6c-0.9-0.4-1.5-0.9-2-1.6
		c-0.5-0.7-0.8-1.5-1-2.4c-0.2-0.9-0.3-1.8-0.3-2.8V13.9z"/>
	<path class="st0" d="M643.5,17.8l-1.5-3.2l2.8-1.5l1.6,2.5c1.1-0.9,2.2-1.5,3.2-1.9c1-0.4,2.1-0.6,3.2-0.6c1.3,0,2.3,0.2,3.2,0.6
		c0.8,0.4,1.5,0.9,2,1.6c0.5,0.7,0.9,1.5,1.1,2.4c0.2,0.9,0.3,1.8,0.3,2.8v12.3h-3.5V20.7c0-1.6-0.3-2.7-1-3.5
		c-0.6-0.7-1.6-1.1-2.9-1.1c-1,0-1.9,0.2-2.8,0.5s-1.6,0.8-2.2,1.3v14.9h-3.5V17.8z"/>
	<path class="st0" d="M678.2,31.5c-0.7,0.6-1.6,1.1-2.5,1.5s-2.1,0.6-3.3,0.6c-2.6,0-4.6-0.8-5.9-2.5c-1.3-1.7-2-4.2-2-7.7
		c0-1.5,0.2-2.9,0.6-4.2c0.4-1.3,1-2.3,1.7-3.2s1.7-1.6,2.9-2.1c1.2-0.5,2.5-0.7,4-0.7c0.7,0,1.3,0.1,1.9,0.2
		c0.6,0.1,1.1,0.2,1.6,0.3V4.9h3.5v24.3l1.6,2.4l-2.5,1.9L678.2,31.5z M677.2,16.2c-0.4-0.1-0.9-0.2-1.5-0.4
		c-0.6-0.1-1.3-0.2-2.1-0.2c-1.9,0-3.3,0.7-4.2,2c-0.9,1.3-1.3,3.2-1.3,5.7c0,2.4,0.4,4.2,1.1,5.6s2,2,3.6,2c1.1,0,1.9-0.2,2.6-0.5
		c0.7-0.4,1.3-0.8,1.8-1.3V16.2z"/>
	<path class="st0" d="M694.6,33.6c-1.6,0-3-0.3-4.1-0.8c-1.1-0.5-2-1.2-2.6-2.1s-1.1-2-1.4-3.2c-0.3-1.2-0.4-2.6-0.4-4.1
		c0-1.5,0.2-2.8,0.5-4.1c0.4-1.3,0.9-2.3,1.6-3.2s1.6-1.6,2.7-2.1c1.1-0.5,2.4-0.8,3.8-0.8c1.5,0,2.8,0.3,3.9,0.8
		c1.1,0.5,2,1.2,2.7,2.1c0.7,0.9,1.2,2,1.5,3.2s0.5,2.6,0.5,4.1c0,1.5-0.2,2.9-0.5,4.1c-0.3,1.2-0.8,2.3-1.5,3.2
		c-0.7,0.9-1.6,1.6-2.7,2.1C697.5,33.3,696.2,33.6,694.6,33.6z M694.8,31.1c1.8,0,3.1-0.7,3.9-2c0.7-1.3,1.1-3.2,1.1-5.7
		c0-2.4-0.4-4.3-1.1-5.6c-0.7-1.3-2-2-3.9-2c-1.8,0-3.1,0.6-3.9,1.9c-0.7,1.3-1.1,3.2-1.1,5.7c0,1.2,0.1,2.3,0.3,3.2
		c0.2,1,0.5,1.8,0.9,2.4c0.4,0.7,0.9,1.2,1.6,1.5C693.1,30.9,693.8,31.1,694.8,31.1z"/>
	<path class="st0" d="M728.7,31.5c-0.7,0.6-1.6,1.1-2.5,1.5s-2.1,0.6-3.3,0.6c-2.6,0-4.6-0.8-5.9-2.5s-2-4.2-2-7.7
		c0-1.5,0.2-2.9,0.6-4.2s1-2.3,1.7-3.2s1.7-1.6,2.9-2.1c1.2-0.5,2.5-0.7,4-0.7c0.7,0,1.3,0.1,1.9,0.2c0.6,0.1,1.1,0.2,1.6,0.3V4.9
		h3.5v24.3l1.6,2.4l-2.5,1.9L728.7,31.5z M727.8,16.2c-0.4-0.1-0.9-0.2-1.5-0.4c-0.6-0.1-1.3-0.2-2.1-0.2c-1.9,0-3.3,0.7-4.2,2
		c-0.9,1.3-1.3,3.2-1.3,5.7c0,2.4,0.4,4.2,1.1,5.6c0.7,1.3,2,2,3.6,2c1.1,0,1.9-0.2,2.6-0.5c0.7-0.4,1.3-0.8,1.8-1.3V16.2z"/>
	<path class="st0" d="M752,32.1c-0.6,0.4-1.5,0.7-2.6,1c-1.2,0.3-2.4,0.5-3.6,0.5c-1.7,0-3.2-0.2-4.4-0.7c-1.2-0.5-2.1-1.2-2.8-2.1
		c-0.7-0.9-1.2-2-1.5-3.2c-0.3-1.3-0.4-2.6-0.4-4.2c0-1.4,0.2-2.7,0.5-4c0.3-1.2,0.8-2.3,1.5-3.2c0.7-0.9,1.6-1.7,2.6-2.2
		c1.1-0.5,2.3-0.8,3.8-0.8c1.4,0,2.6,0.3,3.6,0.9c1,0.6,1.8,1.3,2.4,2.3c0.6,0.9,1,2,1.3,3.2c0.3,1.2,0.4,2.3,0.4,3.5l-1.3,1.3
		h-11.3c0.1,2.2,0.6,3.9,1.5,5c0.9,1.1,2.2,1.6,4.1,1.6c1,0,1.9-0.1,2.7-0.3c0.9-0.2,1.7-0.5,2.4-0.8L752,32.1z M749.1,21.9
		c0-2-0.4-3.6-1.1-4.6c-0.7-1-1.8-1.6-3.3-1.6c-1.6,0-2.7,0.5-3.3,1.6c-0.7,1.1-1.1,2.6-1.2,4.5H749.1z"/>
	<path class="st0" d="M765,7.5h-2.4V5h5.9v27.9H765V7.5z"/>
	<path class="st0" d="M782.3,33.6c-1.6,0-3-0.3-4.1-0.8c-1.1-0.5-2-1.2-2.6-2.1s-1.1-2-1.4-3.2c-0.3-1.2-0.4-2.6-0.4-4.1
		c0-1.5,0.2-2.8,0.5-4.1c0.4-1.3,0.9-2.3,1.6-3.2s1.6-1.6,2.7-2.1c1.1-0.5,2.4-0.8,3.8-0.8c1.5,0,2.8,0.3,3.9,0.8
		c1.1,0.5,2,1.2,2.7,2.1c0.7,0.9,1.2,2,1.5,3.2s0.5,2.6,0.5,4.1c0,1.5-0.2,2.9-0.5,4.1c-0.3,1.2-0.8,2.3-1.5,3.2
		c-0.7,0.9-1.6,1.6-2.7,2.1C785.2,33.3,783.9,33.6,782.3,33.6z M782.4,31.1c1.8,0,3.1-0.7,3.9-2c0.7-1.3,1.1-3.2,1.1-5.7
		c0-2.4-0.4-4.3-1.1-5.6c-0.7-1.3-2-2-3.9-2c-1.8,0-3.1,0.6-3.9,1.9c-0.7,1.3-1.1,3.2-1.1,5.7c0,1.2,0.1,2.3,0.3,3.2
		c0.2,1,0.5,1.8,0.9,2.4c0.4,0.7,0.9,1.2,1.6,1.5C780.7,30.9,781.5,31.1,782.4,31.1z"/>
	<path class="st0" d="M795.4,29.3c0.6,0.3,1.4,0.7,2.4,1.1c1,0.4,2.1,0.6,3.4,0.6c1.3,0,2.4-0.2,3.2-0.7s1.2-1.2,1.2-2.2
		c0-0.6-0.1-1.1-0.4-1.4c-0.3-0.4-0.6-0.7-1-0.9c-0.4-0.2-0.9-0.4-1.5-0.6c-0.6-0.2-1.2-0.3-1.8-0.5c-0.7-0.2-1.4-0.4-2.1-0.6
		c-0.7-0.3-1.3-0.6-1.9-1c-0.5-0.4-1-0.9-1.3-1.6c-0.3-0.6-0.5-1.4-0.5-2.4c0-0.8,0.1-1.6,0.4-2.3c0.3-0.7,0.7-1.3,1.3-1.8
		c0.6-0.5,1.4-0.9,2.3-1.2c0.9-0.3,2-0.5,3.2-0.5s2.4,0.1,3.4,0.4c1.1,0.3,2,0.6,2.7,1l-1.1,2.3c-1.6-0.9-3.3-1.3-5.1-1.3
		c-1.2,0-2.2,0.2-2.9,0.6c-0.7,0.4-1,1.1-1,2.1c0,0.6,0.1,1,0.3,1.4c0.2,0.4,0.5,0.7,0.9,0.9c0.4,0.2,0.8,0.4,1.4,0.6
		c0.5,0.2,1.1,0.3,1.6,0.5c0.7,0.2,1.4,0.4,2.1,0.6c0.7,0.2,1.4,0.5,2,1c0.6,0.4,1.1,1,1.5,1.6c0.4,0.7,0.6,1.5,0.6,2.6
		c0,1.9-0.6,3.4-1.8,4.4c-1.2,1.1-3.1,1.6-5.6,1.6c-1.7,0-3.1-0.2-4.4-0.6c-1.2-0.4-2.1-0.8-2.7-1.2L795.4,29.3z"/>
	<path class="st0" d="M833.6,31.5c-0.7,0.6-1.6,1.1-2.5,1.5s-2.1,0.6-3.3,0.6c-2.6,0-4.6-0.8-5.9-2.5s-2-4.2-2-7.7
		c0-1.5,0.2-2.9,0.6-4.2s1-2.3,1.7-3.2s1.7-1.6,2.9-2.1c1.2-0.5,2.5-0.7,4-0.7c0.7,0,1.3,0.1,1.9,0.2c0.6,0.1,1.1,0.2,1.6,0.3V4.9
		h3.5v24.3l1.6,2.4l-2.5,1.9L833.6,31.5z M832.6,16.2c-0.4-0.1-0.9-0.2-1.5-0.4c-0.6-0.1-1.3-0.2-2.1-0.2c-1.9,0-3.3,0.7-4.2,2
		c-0.9,1.3-1.3,3.2-1.3,5.7c0,2.4,0.4,4.2,1.1,5.6c0.7,1.3,2,2,3.6,2c1.1,0,1.9-0.2,2.6-0.5c0.7-0.4,1.3-0.8,1.8-1.3V16.2z"/>
	<path class="st0" d="M850.1,33.6c-1.6,0-3-0.3-4.1-0.8c-1.1-0.5-2-1.2-2.6-2.1s-1.1-2-1.4-3.2c-0.3-1.2-0.4-2.6-0.4-4.1
		c0-1.5,0.2-2.8,0.5-4.1c0.4-1.3,0.9-2.3,1.6-3.2s1.6-1.6,2.7-2.1c1.1-0.5,2.4-0.8,3.8-0.8c1.5,0,2.8,0.3,3.9,0.8
		c1.1,0.5,2,1.2,2.7,2.1c0.7,0.9,1.2,2,1.5,3.2s0.5,2.6,0.5,4.1c0,1.5-0.2,2.9-0.5,4.1c-0.3,1.2-0.8,2.3-1.5,3.2
		c-0.7,0.9-1.6,1.6-2.7,2.1C853,33.3,851.6,33.6,850.1,33.6z M850.2,31.1c1.8,0,3.1-0.7,3.9-2c0.7-1.3,1.1-3.2,1.1-5.7
		c0-2.4-0.4-4.3-1.1-5.6c-0.7-1.3-2-2-3.9-2c-1.8,0-3.1,0.6-3.9,1.9c-0.7,1.3-1.1,3.2-1.1,5.7c0,1.2,0.1,2.3,0.3,3.2
		c0.2,1,0.5,1.8,0.9,2.4c0.4,0.7,0.9,1.2,1.6,1.5C848.5,30.9,849.3,31.1,850.2,31.1z"/>
	<path class="st0" d="M864,5.5h3.5v8.7c0.6-0.3,1.3-0.6,2-0.7c0.7-0.2,1.5-0.3,2.4-0.3c2.6,0,4.5,0.8,5.9,2.5s2.1,4.2,2.1,7.6
		c0,1.5-0.2,2.9-0.5,4.1c-0.3,1.3-0.9,2.3-1.6,3.2c-0.7,0.9-1.7,1.6-2.9,2.1c-1.2,0.5-2.6,0.8-4.4,0.8c-1.4,0-2.7-0.1-4-0.3
		c-1.2-0.2-2.1-0.4-2.7-0.7V5.5z M867.6,30.7c0.3,0.1,0.8,0.2,1.4,0.3s1.4,0.1,2.1,0.1c1.9,0,3.3-0.7,4.1-2c0.8-1.3,1.2-3.3,1.2-5.9
		c0-2.3-0.4-4.1-1.1-5.5c-0.7-1.4-2-2-3.8-2c-0.8,0-1.5,0.1-2.3,0.3c-0.7,0.2-1.3,0.4-1.7,0.7V30.7z"/>
	<path class="st0" d="M885.3,7.5h-2.4V5h5.9v27.9h-3.5V7.5z"/>
	<path class="st0" d="M909.3,32.1c-0.6,0.4-1.5,0.7-2.6,1c-1.2,0.3-2.4,0.5-3.6,0.5c-1.7,0-3.2-0.2-4.4-0.7
		c-1.2-0.5-2.1-1.2-2.8-2.1c-0.7-0.9-1.2-2-1.5-3.2c-0.3-1.3-0.4-2.6-0.4-4.2c0-1.4,0.2-2.7,0.5-4c0.3-1.2,0.8-2.3,1.5-3.2
		c0.7-0.9,1.6-1.7,2.6-2.2c1.1-0.5,2.3-0.8,3.8-0.8c1.4,0,2.6,0.3,3.6,0.9c1,0.6,1.8,1.3,2.4,2.3c0.6,0.9,1,2,1.3,3.2
		c0.3,1.2,0.4,2.3,0.4,3.5l-1.3,1.3h-11.3c0.1,2.2,0.6,3.9,1.5,5c0.9,1.1,2.2,1.6,4.1,1.6c1,0,1.9-0.1,2.7-0.3
		c0.9-0.2,1.7-0.5,2.4-0.8L909.3,32.1z M906.5,21.9c0-2-0.4-3.6-1.1-4.6c-0.7-1-1.8-1.6-3.3-1.6c-1.6,0-2.7,0.5-3.3,1.6
		c-0.7,1.1-1.1,2.6-1.2,4.5H906.5z"/>
	<path class="st0" d="M923.5,16.5H920v-2.6h3.6V8.2h3.4v5.7h5.6v2.6H927v11c0,0.7,0.1,1.3,0.2,1.8c0.1,0.4,0.3,0.8,0.6,1
		c0.2,0.2,0.5,0.4,0.9,0.5c0.3,0.1,0.7,0.1,1.1,0.1s0.9-0.1,1.4-0.2c0.5-0.1,1-0.3,1.5-0.5l0.8,2.3c-0.4,0.2-1,0.4-1.8,0.6
		c-0.8,0.2-1.6,0.3-2.4,0.3c-0.9,0-1.7-0.1-2.4-0.3s-1.3-0.5-1.8-0.9c-0.5-0.4-0.9-1-1.1-1.7c-0.3-0.7-0.4-1.6-0.4-2.7V16.5z"/>
	<path class="st0" d="M937.3,16.4H935v-2.5h4.9l0.6,2.5c0.3-0.4,0.7-0.7,1-1s0.7-0.6,1.2-0.9c0.4-0.2,0.9-0.4,1.5-0.6
		c0.5-0.1,1.2-0.2,1.9-0.2c0.9,0,1.7,0.1,2.4,0.3l-1,3.2c-0.3-0.1-0.6-0.2-1-0.3s-0.7-0.1-1.1-0.1c-1.8,0-3.3,0.6-4.4,1.9v14.2h-3.5
		V16.4z"/>
	<path class="st0" d="M961.8,31.4c-0.7,0.6-1.6,1.1-2.5,1.6s-2.1,0.7-3.5,0.7c-1.9,0-3.4-0.5-4.5-1.5c-1.1-1-1.7-2.6-1.7-4.7
		c0-1.1,0.2-2.1,0.6-2.8s0.9-1.4,1.7-1.9s1.6-0.9,2.6-1.1c1-0.2,2.1-0.3,3.3-0.3h3.3v-1c0-1.6-0.2-2.7-0.7-3.4c-0.5-0.7-1.4-1-2.8-1
		c-1.8,0-3.7,0.4-5.6,1.1l-0.9-2.4c0.7-0.3,1.7-0.6,2.8-0.9c1.1-0.3,2.5-0.5,4.1-0.5c1.5,0,2.7,0.2,3.5,0.6c0.9,0.4,1.5,1,2,1.7
		c0.4,0.7,0.7,1.5,0.9,2.5s0.2,2,0.2,3.1v8.2l1.6,2.4l-2.5,1.9L961.8,31.4z M961,23.6h-3c-1.7,0-3,0.3-3.7,0.8
		c-0.7,0.5-1.1,1.5-1.1,2.8c0,1.2,0.3,2.2,0.8,2.8c0.5,0.6,1.3,0.9,2.4,0.9c1.1,0,2.1-0.2,2.9-0.6c0.8-0.4,1.4-0.8,1.8-1.3V23.6z"/>
	<path class="st0" d="M984.7,32.1c-0.7,0.4-1.5,0.7-2.6,1c-1,0.3-2.2,0.5-3.6,0.5c-1.7,0-3.2-0.2-4.3-0.7c-1.1-0.5-2.1-1.2-2.7-2.1
		c-0.7-0.9-1.2-1.9-1.5-3.2c-0.3-1.2-0.4-2.6-0.4-4.1c0-1.5,0.2-2.8,0.5-4.1c0.4-1.3,0.9-2.4,1.7-3.3c0.7-0.9,1.7-1.7,2.8-2.2
		c1.2-0.5,2.5-0.8,4.2-0.8c1.2,0,2.2,0.2,3.2,0.5c1,0.3,1.8,0.7,2.5,1.1l-1.1,2.4c-0.7-0.4-1.4-0.7-2.2-0.9
		c-0.8-0.2-1.6-0.4-2.6-0.4c-1.9,0-3.2,0.6-4.1,1.9s-1.3,3.2-1.3,5.8c0,1.1,0.1,2.2,0.3,3.1c0.2,0.9,0.5,1.7,0.9,2.3
		c0.4,0.6,1,1.1,1.7,1.5c0.7,0.3,1.6,0.5,2.6,0.5c0.8,0,1.6-0.1,2.3-0.2c0.7-0.2,1.5-0.5,2.5-0.9L984.7,32.1z"/>
	<path class="st0" d="M1002.2,32.1c-0.7,0.4-1.5,0.7-2.6,1c-1,0.3-2.2,0.5-3.6,0.5c-1.7,0-3.2-0.2-4.3-0.7c-1.1-0.5-2.1-1.2-2.7-2.1
		c-0.7-0.9-1.2-1.9-1.5-3.2c-0.3-1.2-0.4-2.6-0.4-4.1c0-1.5,0.2-2.8,0.5-4.1c0.4-1.3,0.9-2.4,1.7-3.3c0.7-0.9,1.7-1.7,2.8-2.2
		c1.2-0.5,2.5-0.8,4.2-0.8c1.2,0,2.2,0.2,3.2,0.5c1,0.3,1.8,0.7,2.5,1.1l-1.1,2.4c-0.7-0.4-1.4-0.7-2.2-0.9
		c-0.8-0.2-1.6-0.4-2.6-0.4c-1.9,0-3.2,0.6-4.1,1.9s-1.3,3.2-1.3,5.8c0,1.1,0.1,2.2,0.3,3.1c0.2,0.9,0.5,1.7,0.9,2.3
		c0.4,0.6,1,1.1,1.7,1.5c0.7,0.3,1.6,0.5,2.6,0.5c0.8,0,1.6-0.1,2.3-0.2c0.7-0.2,1.5-0.5,2.5-0.9L1002.2,32.1z"/>
	<path class="st0" d="M1006.3,16.4h-2.4v-2.5h6v19h-3.5V16.4z M1007.6,10.3c-0.7,0-1.3-0.2-1.7-0.7s-0.6-1.1-0.6-1.8
		c0-0.7,0.2-1.3,0.6-1.8s1-0.7,1.7-0.7c0.8,0,1.3,0.2,1.8,0.7s0.6,1.1,0.6,1.8c0,0.7-0.2,1.3-0.6,1.8S1008.4,10.3,1007.6,10.3z"/>
	<path class="st0" d="M1023.5,33.6c-1.6,0-3-0.3-4.1-0.8c-1.1-0.5-2-1.2-2.6-2.1s-1.1-2-1.4-3.2c-0.3-1.2-0.4-2.6-0.4-4.1
		c0-1.5,0.2-2.8,0.5-4.1c0.4-1.3,0.9-2.3,1.6-3.2s1.6-1.6,2.7-2.1c1.1-0.5,2.4-0.8,3.8-0.8c1.5,0,2.8,0.3,3.9,0.8
		c1.1,0.5,2,1.2,2.7,2.1c0.7,0.9,1.2,2,1.5,3.2s0.5,2.6,0.5,4.1c0,1.5-0.2,2.9-0.5,4.1c-0.3,1.2-0.8,2.3-1.5,3.2
		c-0.7,0.9-1.6,1.6-2.7,2.1C1026.4,33.3,1025.1,33.6,1023.5,33.6z M1023.6,31.1c1.8,0,3.1-0.7,3.9-2c0.7-1.3,1.1-3.2,1.1-5.7
		c0-2.4-0.4-4.3-1.1-5.6c-0.7-1.3-2-2-3.9-2c-1.8,0-3.1,0.6-3.9,1.9c-0.7,1.3-1.1,3.2-1.1,5.7c0,1.2,0.1,2.3,0.3,3.2
		c0.2,1,0.5,1.8,0.9,2.4c0.4,0.7,0.9,1.2,1.6,1.5C1021.9,30.9,1022.7,31.1,1023.6,31.1z M1025.8,2.7l2.8,1.9l-5.4,6.2l-1.7-1.3
		L1025.8,2.7z"/>
	<path class="st0" d="M1037.6,17.8l-1.5-3.2l2.8-1.5l1.6,2.5c1.1-0.9,2.2-1.5,3.2-1.9c1-0.4,2.1-0.6,3.2-0.6c1.3,0,2.3,0.2,3.2,0.6
		s1.5,0.9,2,1.6c0.5,0.7,0.9,1.5,1.1,2.4c0.2,0.9,0.3,1.8,0.3,2.8v12.3h-3.5V20.7c0-1.6-0.3-2.7-1-3.5c-0.6-0.7-1.6-1.1-2.9-1.1
		c-1,0-1.9,0.2-2.8,0.5s-1.6,0.8-2.2,1.3v14.9h-3.5V17.8z"/>
	<path class="st0" d="M1061.1,33.6c-0.8,0-1.4-0.2-1.8-0.7s-0.6-1.1-0.6-1.9c0-0.8,0.2-1.4,0.6-1.9c0.4-0.5,1-0.7,1.8-0.7
		c0.8,0,1.4,0.2,1.8,0.7c0.4,0.5,0.6,1.1,0.6,1.9c0,0.8-0.2,1.4-0.6,1.9S1061.9,33.6,1061.1,33.6z"/>
	<path class="st0" d="M1075.9,28.7c1.1,0.7,2.2,1.2,3.4,1.5c1.2,0.3,2.6,0.5,4.2,0.5c2.1,0,3.6-0.4,4.5-1.3c1-0.9,1.5-2,1.5-3.5
		c0-0.9-0.2-1.7-0.5-2.2c-0.3-0.6-0.8-1.1-1.3-1.5c-0.6-0.4-1.2-0.7-1.9-1c-0.7-0.2-1.5-0.5-2.3-0.7c-1-0.3-1.9-0.5-2.9-0.9
		s-1.8-0.8-2.6-1.3c-0.8-0.6-1.4-1.3-1.9-2.2s-0.7-2.1-0.7-3.5c0-1,0.2-2,0.6-2.9c0.4-0.9,1-1.7,1.7-2.5c0.8-0.7,1.8-1.3,3-1.7
		c1.2-0.4,2.6-0.6,4.2-0.6c0.7,0,1.5,0.1,2.2,0.2c0.7,0.1,1.5,0.3,2.1,0.5c0.7,0.2,1.3,0.4,1.9,0.6c0.6,0.2,1.1,0.5,1.6,0.8
		l-1.3,2.5c-0.8-0.5-1.8-1-2.9-1.3c-1.1-0.3-2.2-0.5-3.4-0.5c-2,0-3.5,0.4-4.5,1.1c-1,0.8-1.5,1.9-1.5,3.3c0,0.9,0.2,1.6,0.5,2.1
		c0.4,0.6,0.8,1,1.4,1.4c0.6,0.4,1.3,0.7,2.1,0.9c0.8,0.3,1.6,0.5,2.4,0.8c0.9,0.3,1.9,0.6,2.8,0.9c0.9,0.3,1.8,0.8,2.5,1.4
		s1.3,1.3,1.8,2.2s0.7,2,0.7,3.3c0,2.6-0.8,4.6-2.5,6.2c-1.7,1.5-4.1,2.3-7.3,2.3c-1.7,0-3.4-0.2-4.8-0.6c-1.5-0.4-2.8-0.9-3.9-1.7
		L1075.9,28.7z"/>
	<path class="st0" d="M1097.6,13.9h3.5v12.4c0,1.5,0.3,2.6,0.9,3.5c0.6,0.8,1.5,1.2,2.9,1.2c1.1,0,2-0.2,2.7-0.5
		c0.7-0.4,1.3-0.8,2-1.3V13.9h3.5v15.4l1.6,2.3l-2.5,1.9l-1.7-2.1c-1,0.8-2,1.3-2.9,1.7c-1,0.3-2,0.5-3.1,0.5
		c-1.4,0-2.5-0.2-3.4-0.6s-1.5-0.9-2-1.6c-0.5-0.7-0.8-1.5-1-2.4c-0.2-0.9-0.3-1.8-0.3-2.8V13.9z"/>
	<path class="st0" d="M1126.7,17.8l-1.5-3.2l2.8-1.5l1.6,2.5c1.1-0.9,2.2-1.5,3.2-1.9c1-0.4,2.1-0.6,3.2-0.6c1.3,0,2.3,0.2,3.2,0.6
		s1.5,0.9,2,1.6c0.5,0.7,0.9,1.5,1.1,2.4c0.2,0.9,0.3,1.8,0.3,2.8v12.3h-3.5V20.7c0-1.6-0.3-2.7-1-3.5c-0.6-0.7-1.6-1.1-2.9-1.1
		c-1,0-1.9,0.2-2.8,0.5s-1.6,0.8-2.2,1.3v14.9h-3.5V17.8z"/>
	<path class="st0" d="M1148.8,16.4h-2.4v-2.5h6v19h-3.5V16.4z M1150.2,10.3c-0.7,0-1.3-0.2-1.7-0.7s-0.6-1.1-0.6-1.8
		c0-0.7,0.2-1.3,0.6-1.8s1-0.7,1.7-0.7c0.8,0,1.3,0.2,1.8,0.7s0.6,1.1,0.6,1.8c0,0.7-0.2,1.3-0.6,1.8S1150.9,10.3,1150.2,10.3z"/>
	<path class="st0" d="M1156.1,14.1l3.6-0.6l5,16.4c0.1,0.5,0.2,0.8,0.4,1c0.1,0.2,0.3,0.3,0.6,0.3c0.3,0,0.5-0.1,0.6-0.3
		c0.1-0.2,0.2-0.5,0.4-1l4.9-16.4l3,0.6l-4.9,15.7c-0.4,1.2-0.9,2.2-1.5,2.9c-0.6,0.7-1.5,1-2.5,1c-0.7,0-1.3-0.1-1.8-0.2
		c-0.5-0.2-0.9-0.4-1.3-0.7c-0.3-0.3-0.6-0.7-0.9-1.2c-0.2-0.5-0.4-1.1-0.6-1.7L1156.1,14.1z"/>
	<path class="st0" d="M1192.1,32.1c-0.6,0.4-1.5,0.7-2.6,1c-1.2,0.3-2.4,0.5-3.6,0.5c-1.7,0-3.2-0.2-4.4-0.7
		c-1.2-0.5-2.1-1.2-2.8-2.1c-0.7-0.9-1.2-2-1.5-3.2c-0.3-1.3-0.4-2.6-0.4-4.2c0-1.4,0.2-2.7,0.5-4c0.3-1.2,0.8-2.3,1.5-3.2
		c0.7-0.9,1.6-1.7,2.6-2.2c1.1-0.5,2.3-0.8,3.8-0.8c1.4,0,2.6,0.3,3.6,0.9c1,0.6,1.8,1.3,2.4,2.3c0.6,0.9,1,2,1.3,3.2
		c0.3,1.2,0.4,2.3,0.4,3.5l-1.3,1.3h-11.3c0.1,2.2,0.6,3.9,1.5,5c0.9,1.1,2.2,1.6,4.1,1.6c1,0,1.9-0.1,2.7-0.3
		c0.9-0.2,1.7-0.5,2.4-0.8L1192.1,32.1z M1189.2,21.9c0-2-0.4-3.6-1.1-4.6c-0.7-1-1.8-1.6-3.3-1.6c-1.6,0-2.7,0.5-3.3,1.6
		c-0.7,1.1-1.1,2.6-1.2,4.5H1189.2z"/>
	<path class="st0" d="M1197.8,7.5h-2.4V5h5.9v27.9h-3.5V7.5z"/>
	<path class="st0" d="M1227.6,31.5c-0.7,0.6-1.6,1.1-2.5,1.5s-2.1,0.6-3.3,0.6c-2.6,0-4.6-0.8-5.9-2.5s-2-4.2-2-7.7
		c0-1.5,0.2-2.9,0.6-4.2s1-2.3,1.7-3.2s1.7-1.6,2.9-2.1c1.2-0.5,2.5-0.7,4-0.7c0.7,0,1.3,0.1,1.9,0.2c0.6,0.1,1.1,0.2,1.6,0.3V4.9
		h3.5v24.3l1.6,2.4l-2.5,1.9L1227.6,31.5z M1226.6,16.2c-0.4-0.1-0.9-0.2-1.5-0.4c-0.6-0.1-1.3-0.2-2.1-0.2c-1.9,0-3.3,0.7-4.2,2
		c-0.9,1.3-1.3,3.2-1.3,5.7c0,2.4,0.4,4.2,1.1,5.6c0.7,1.3,2,2,3.6,2c1.1,0,1.9-0.2,2.6-0.5c0.7-0.4,1.3-0.8,1.8-1.3V16.2z"/>
	<path class="st0" d="M1250.8,32.1c-0.6,0.4-1.5,0.7-2.6,1c-1.2,0.3-2.4,0.5-3.6,0.5c-1.7,0-3.2-0.2-4.4-0.7
		c-1.2-0.5-2.1-1.2-2.8-2.1c-0.7-0.9-1.2-2-1.5-3.2c-0.3-1.3-0.4-2.6-0.4-4.2c0-1.4,0.2-2.7,0.5-4c0.3-1.2,0.8-2.3,1.5-3.2
		c0.7-0.9,1.6-1.7,2.6-2.2c1.1-0.5,2.3-0.8,3.8-0.8c1.4,0,2.6,0.3,3.6,0.9c1,0.6,1.8,1.3,2.4,2.3c0.6,0.9,1,2,1.3,3.2
		c0.3,1.2,0.4,2.3,0.4,3.5l-1.3,1.3H1239c0.1,2.2,0.6,3.9,1.5,5c0.9,1.1,2.2,1.6,4.1,1.6c1,0,1.9-0.1,2.7-0.3
		c0.9-0.2,1.7-0.5,2.4-0.8L1250.8,32.1z M1248,21.9c0-2-0.4-3.6-1.1-4.6c-0.7-1-1.8-1.6-3.3-1.6c-1.6,0-2.7,0.5-3.3,1.6
		c-0.7,1.1-1.1,2.6-1.2,4.5H1248z"/>
	<path class="st0" d="M11.5,82.4H9.1v-2.5H14l0.6,2.5c0.3-0.4,0.7-0.7,1-1c0.4-0.3,0.7-0.6,1.2-0.9c0.4-0.2,0.9-0.4,1.5-0.6
		c0.5-0.1,1.2-0.2,1.9-0.2c0.9,0,1.7,0.1,2.4,0.3l-1,3.2c-0.3-0.1-0.6-0.2-1-0.3c-0.4-0.1-0.7-0.1-1.1-0.1c-1.8,0-3.3,0.6-4.4,1.9
		v14.2h-3.5V82.4z"/>
	<path class="st0" d="M32.7,99.6c-1.6,0-3-0.3-4.1-0.8c-1.1-0.5-2-1.2-2.6-2.1c-0.7-0.9-1.1-2-1.4-3.2s-0.4-2.6-0.4-4.1
		c0-1.5,0.2-2.8,0.5-4.1c0.4-1.3,0.9-2.3,1.6-3.2c0.7-0.9,1.6-1.6,2.7-2.1c1.1-0.5,2.4-0.8,3.8-0.8c1.5,0,2.8,0.3,3.9,0.8
		c1.1,0.5,2,1.2,2.7,2.1s1.2,2,1.5,3.2c0.3,1.3,0.5,2.6,0.5,4.1c0,1.5-0.2,2.9-0.5,4.1c-0.3,1.2-0.8,2.3-1.5,3.2
		c-0.7,0.9-1.6,1.6-2.7,2.1C35.6,99.3,34.2,99.6,32.7,99.6z M32.8,97.1c1.8,0,3.1-0.7,3.9-2c0.7-1.3,1.1-3.2,1.1-5.7
		c0-2.4-0.4-4.3-1.1-5.6c-0.7-1.3-2-2-3.9-2c-1.8,0-3.1,0.6-3.9,1.9c-0.7,1.3-1.1,3.2-1.1,5.7c0,1.2,0.1,2.3,0.3,3.2
		c0.2,1,0.5,1.8,0.9,2.4c0.4,0.7,0.9,1.2,1.6,1.5C31.1,96.9,31.9,97.1,32.8,97.1z"/>
	<path class="st0" d="M46.7,71.5h3.5v8.7c0.6-0.3,1.3-0.6,2-0.7c0.7-0.2,1.5-0.3,2.4-0.3c2.6,0,4.5,0.8,5.9,2.5
		c1.4,1.7,2.1,4.2,2.1,7.6c0,1.5-0.2,2.9-0.5,4.1c-0.3,1.3-0.9,2.3-1.6,3.2c-0.7,0.9-1.7,1.6-2.9,2.1c-1.2,0.5-2.6,0.8-4.4,0.8
		c-1.4,0-2.7-0.1-4-0.3c-1.2-0.2-2.1-0.4-2.7-0.7V71.5z M50.2,96.7c0.3,0.1,0.8,0.2,1.4,0.3c0.7,0.1,1.4,0.1,2.1,0.1
		c1.9,0,3.3-0.7,4.1-2c0.8-1.3,1.2-3.3,1.2-5.9c0-2.3-0.4-4.1-1.1-5.5c-0.7-1.4-2-2-3.8-2c-0.8,0-1.5,0.1-2.3,0.3
		c-0.7,0.2-1.3,0.4-1.7,0.7V96.7z"/>
	<path class="st0" d="M67.5,79.9H71v12.4c0,1.5,0.3,2.6,0.9,3.5c0.6,0.8,1.5,1.2,2.9,1.2c1.1,0,2-0.2,2.7-0.5s1.3-0.8,2-1.3V79.9H83
		v15.4l1.6,2.3L82,99.5l-1.7-2.1c-1,0.8-2,1.3-2.9,1.7c-0.9,0.3-2,0.5-3.1,0.5c-1.4,0-2.5-0.2-3.4-0.6c-0.9-0.4-1.5-0.9-2-1.6
		c-0.5-0.7-0.8-1.5-1-2.4c-0.2-0.9-0.3-1.8-0.3-2.8V79.9z"/>
	<path class="st0" d="M88.3,95.3c0.6,0.3,1.4,0.7,2.4,1.1c1,0.4,2.1,0.6,3.4,0.6c1.3,0,2.4-0.2,3.2-0.7c0.8-0.5,1.2-1.2,1.2-2.2
		c0-0.6-0.1-1.1-0.4-1.4c-0.3-0.4-0.6-0.7-1-0.9c-0.4-0.2-0.9-0.4-1.5-0.6s-1.2-0.3-1.8-0.5c-0.7-0.2-1.4-0.4-2.1-0.6
		c-0.7-0.3-1.3-0.6-1.9-1c-0.5-0.4-1-0.9-1.3-1.6C88.1,86.8,88,86,88,85c0-0.8,0.1-1.6,0.4-2.3c0.3-0.7,0.7-1.3,1.3-1.8
		c0.6-0.5,1.4-0.9,2.3-1.2c0.9-0.3,2-0.5,3.2-0.5c1.2,0,2.4,0.1,3.4,0.4c1.1,0.3,2,0.6,2.7,1l-1.1,2.3c-1.6-0.9-3.3-1.3-5.1-1.3
		c-1.2,0-2.2,0.2-2.9,0.6c-0.7,0.4-1,1.1-1,2.1c0,0.6,0.1,1,0.3,1.4c0.2,0.4,0.5,0.7,0.9,0.9c0.4,0.2,0.8,0.4,1.4,0.6
		c0.5,0.2,1.1,0.3,1.6,0.5c0.7,0.2,1.4,0.4,2.1,0.6c0.7,0.2,1.4,0.5,2,1c0.6,0.4,1.1,1,1.5,1.6c0.4,0.7,0.6,1.5,0.6,2.6
		c0,1.9-0.6,3.4-1.8,4.4c-1.2,1.1-3.1,1.6-5.6,1.6c-1.7,0-3.1-0.2-4.4-0.6c-1.2-0.4-2.1-0.8-2.7-1.2L88.3,95.3z"/>
	<path class="st0" d="M107.4,82.5H104v-2.6h3.6v-5.7h3.4v5.7h5.6v2.6h-5.6v11c0,0.7,0.1,1.3,0.2,1.8c0.1,0.4,0.3,0.8,0.6,1
		c0.2,0.2,0.5,0.4,0.9,0.5c0.3,0.1,0.7,0.1,1.1,0.1c0.4,0,0.9-0.1,1.4-0.2c0.5-0.1,1-0.3,1.5-0.5l0.8,2.3c-0.4,0.2-1,0.4-1.8,0.6
		c-0.8,0.2-1.6,0.3-2.4,0.3c-0.9,0-1.7-0.1-2.4-0.3c-0.7-0.2-1.3-0.5-1.8-0.9c-0.5-0.4-0.9-1-1.1-1.7c-0.3-0.7-0.4-1.6-0.4-2.7V82.5
		z"/>
	<path class="st0" d="M134.6,98.1c-0.6,0.4-1.5,0.7-2.6,1s-2.4,0.5-3.6,0.5c-1.7,0-3.2-0.2-4.4-0.7c-1.2-0.5-2.1-1.2-2.8-2.1
		s-1.2-2-1.5-3.2c-0.3-1.3-0.4-2.6-0.4-4.2c0-1.4,0.2-2.7,0.5-4c0.3-1.2,0.8-2.3,1.5-3.2c0.7-0.9,1.6-1.7,2.6-2.2
		c1.1-0.5,2.3-0.8,3.8-0.8c1.4,0,2.6,0.3,3.6,0.9c1,0.6,1.8,1.3,2.4,2.3s1,2,1.3,3.2c0.3,1.2,0.4,2.3,0.4,3.5l-1.3,1.3h-11.3
		c0.1,2.2,0.6,3.9,1.5,5c0.9,1.1,2.2,1.6,4.1,1.6c1,0,1.9-0.1,2.7-0.3c0.9-0.2,1.7-0.5,2.4-0.8L134.6,98.1z M131.7,87.9
		c0-2-0.4-3.6-1.1-4.6c-0.7-1-1.8-1.6-3.3-1.6c-1.6,0-2.7,0.5-3.3,1.6c-0.7,1.1-1.1,2.6-1.2,4.5H131.7z"/>
	<path class="st0" d="M148.6,82.4H139v-2.5h14v2.5l-10.6,13c-0.1,0.2-0.2,0.3-0.2,0.4c0,0.1,0,0.1,0,0.2c0,0.3,0.2,0.4,0.6,0.4h10.3
		v2.6h-11.6c-1.1,0-1.8-0.2-2.3-0.7s-0.7-1.1-0.7-1.8c0-0.5,0.1-0.9,0.2-1.3c0.2-0.4,0.4-0.9,0.9-1.4L148.6,82.4z"/>
	<path class="st0" d="M163.9,95.3c0.6,0.3,1.4,0.7,2.4,1.1c1,0.4,2.1,0.6,3.4,0.6c1.3,0,2.4-0.2,3.2-0.7c0.8-0.5,1.2-1.2,1.2-2.2
		c0-0.6-0.1-1.1-0.4-1.4c-0.3-0.4-0.6-0.7-1-0.9c-0.4-0.2-0.9-0.4-1.5-0.6s-1.2-0.3-1.8-0.5c-0.7-0.2-1.4-0.4-2.1-0.6
		c-0.7-0.3-1.3-0.6-1.9-1c-0.5-0.4-1-0.9-1.3-1.6c-0.3-0.6-0.5-1.4-0.5-2.4c0-0.8,0.1-1.6,0.4-2.3c0.3-0.7,0.7-1.3,1.3-1.8
		c0.6-0.5,1.4-0.9,2.3-1.2c0.9-0.3,2-0.5,3.2-0.5c1.2,0,2.4,0.1,3.4,0.4c1.1,0.3,2,0.6,2.7,1l-1.1,2.3c-1.6-0.9-3.3-1.3-5.1-1.3
		c-1.2,0-2.2,0.2-2.9,0.6c-0.7,0.4-1,1.1-1,2.1c0,0.6,0.1,1,0.3,1.4c0.2,0.4,0.5,0.7,0.9,0.9c0.4,0.2,0.8,0.4,1.4,0.6
		c0.5,0.2,1.1,0.3,1.6,0.5c0.7,0.2,1.4,0.4,2.1,0.6c0.7,0.2,1.4,0.5,2,1c0.6,0.4,1.1,1,1.5,1.6c0.4,0.7,0.6,1.5,0.6,2.6
		c0,1.9-0.6,3.4-1.8,4.4c-1.2,1.1-3.1,1.6-5.6,1.6c-1.7,0-3.1-0.2-4.4-0.6c-1.2-0.4-2.1-0.8-2.7-1.2L163.9,95.3z"/>
	<path class="st0" d="M182.1,82.4h-2.4v-2.5h6v19h-3.5V82.4z M183.5,76.3c-0.7,0-1.3-0.2-1.7-0.7s-0.6-1.1-0.6-1.8
		c0-0.7,0.2-1.3,0.6-1.8s1-0.7,1.7-0.7c0.8,0,1.3,0.2,1.8,0.7c0.4,0.5,0.6,1.1,0.6,1.8c0,0.7-0.2,1.3-0.6,1.8
		C184.8,76.1,184.2,76.3,183.5,76.3z"/>
	<path class="st0" d="M206.2,98.1c-0.6,0.4-1.5,0.7-2.6,1s-2.4,0.5-3.6,0.5c-1.7,0-3.2-0.2-4.4-0.7c-1.2-0.5-2.1-1.2-2.8-2.1
		s-1.2-2-1.5-3.2c-0.3-1.3-0.4-2.6-0.4-4.2c0-1.4,0.2-2.7,0.5-4c0.3-1.2,0.8-2.3,1.5-3.2c0.7-0.9,1.6-1.7,2.6-2.2
		c1.1-0.5,2.3-0.8,3.8-0.8c1.4,0,2.6,0.3,3.6,0.9c1,0.6,1.8,1.3,2.4,2.3s1,2,1.3,3.2c0.3,1.2,0.4,2.3,0.4,3.5l-1.3,1.3h-11.3
		c0.1,2.2,0.6,3.9,1.5,5c0.9,1.1,2.2,1.6,4.1,1.6c1,0,1.9-0.1,2.7-0.3c0.9-0.2,1.7-0.5,2.4-0.8L206.2,98.1z M203.3,87.9
		c0-2-0.4-3.6-1.1-4.6c-0.7-1-1.8-1.6-3.3-1.6c-1.6,0-2.7,0.5-3.3,1.6c-0.7,1.1-1.1,2.6-1.2,4.5H203.3z"/>
	<path class="st0" d="M212,83.8l-1.5-3.2l2.8-1.5l1.6,2.5c1-0.9,2-1.6,3-1.9c1-0.3,1.9-0.5,2.7-0.5c1.4,0,2.4,0.2,3.1,0.6
		c0.7,0.4,1.3,1,1.8,1.8c1.1-1,2.2-1.6,3.3-2c1.1-0.3,2-0.5,2.7-0.5c1.3,0,2.3,0.2,3.1,0.6c0.8,0.4,1.4,0.9,1.8,1.6
		c0.4,0.7,0.7,1.5,0.8,2.4c0.1,0.9,0.2,1.8,0.2,2.8v12.3h-3.5V86.5c0-1.5-0.2-2.6-0.7-3.3c-0.4-0.7-1.3-1-2.6-1
		c-0.7,0-1.5,0.1-2.3,0.4c-0.8,0.3-1.5,0.7-2.3,1.3c0.1,0.4,0.1,0.8,0.1,1.3c0,0.5,0.1,0.9,0.1,1.3v12.3h-3.5V86.4
		c0-1.4-0.2-2.5-0.7-3.2c-0.4-0.7-1.3-1-2.6-1c-0.7,0-1.4,0.1-2.2,0.4c-0.7,0.3-1.4,0.7-2.1,1.3v15H212V83.8z"/>
	<path class="st0" d="M243.9,83.8l-1.5-3.2l2.9-1.5l1.6,2.4c0.7-0.6,1.4-1.2,2.3-1.6c0.9-0.5,1.9-0.7,3.2-0.7c2.6,0,4.6,0.8,5.9,2.5
		c1.4,1.7,2,4.2,2,7.7c0,1.5-0.2,2.9-0.6,4.2s-1,2.3-1.8,3.2c-0.8,0.9-1.8,1.6-3,2.1c-1.2,0.5-2.6,0.7-4.1,0.7c-0.6,0-1.1,0-1.8-0.1
		c-0.6-0.1-1.2-0.2-1.7-0.3v8.1h-3.5V83.8z M247.4,96.5c0.4,0.1,1,0.3,1.7,0.4c0.7,0.1,1.3,0.2,2,0.2c1.9,0,3.3-0.7,4.2-2
		c0.9-1.3,1.4-3.2,1.4-5.7c0-2.4-0.3-4.2-1-5.6s-1.9-2-3.5-2c-1,0-1.8,0.2-2.4,0.5c-0.7,0.3-1.4,0.9-2.2,1.6V96.5z"/>
	<path class="st0" d="M265.8,82.4h-2.4v-2.5h4.9l0.6,2.5c0.3-0.4,0.7-0.7,1-1c0.4-0.3,0.7-0.6,1.2-0.9c0.4-0.2,0.9-0.4,1.5-0.6
		c0.5-0.1,1.2-0.2,1.9-0.2c0.9,0,1.7,0.1,2.4,0.3l-1,3.2c-0.3-0.1-0.6-0.2-1-0.3c-0.4-0.1-0.7-0.1-1.1-0.1c-1.8,0-3.3,0.6-4.4,1.9
		v14.2h-3.5V82.4z"/>
	<path class="st0" d="M293.8,98.1c-0.6,0.4-1.5,0.7-2.6,1s-2.4,0.5-3.6,0.5c-1.7,0-3.2-0.2-4.4-0.7c-1.2-0.5-2.1-1.2-2.8-2.1
		s-1.2-2-1.5-3.2c-0.3-1.3-0.4-2.6-0.4-4.2c0-1.4,0.2-2.7,0.5-4c0.3-1.2,0.8-2.3,1.5-3.2c0.7-0.9,1.6-1.7,2.6-2.2
		c1.1-0.5,2.3-0.8,3.8-0.8c1.4,0,2.6,0.3,3.6,0.9c1,0.6,1.8,1.3,2.4,2.3s1,2,1.3,3.2c0.3,1.2,0.4,2.3,0.4,3.5l-1.3,1.3H282
		c0.1,2.2,0.6,3.9,1.5,5c0.9,1.1,2.2,1.6,4.1,1.6c1,0,1.9-0.1,2.7-0.3c0.9-0.2,1.7-0.5,2.4-0.8L293.8,98.1z M291,87.9
		c0-2-0.4-3.6-1.1-4.6c-0.7-1-1.8-1.6-3.3-1.6c-1.6,0-2.7,0.5-3.3,1.6c-0.7,1.1-1.1,2.6-1.2,4.5H291z"/>
	<path class="st0" d="M306.9,70.9h3.5v10.4c0.9-0.7,1.8-1.2,2.9-1.6c1-0.4,2-0.6,3-0.6c1.3,0,2.3,0.2,3.2,0.6c0.8,0.4,1.5,0.9,2,1.6
		c0.5,0.7,0.9,1.5,1.1,2.4c0.2,0.9,0.3,1.8,0.3,2.8v12.3h-3.5V86.7c0-1.6-0.3-2.7-1-3.5c-0.7-0.7-1.6-1.1-2.9-1.1
		c-1,0-2,0.2-2.8,0.5c-0.8,0.4-1.6,0.8-2.3,1.3v14.9h-3.5V70.9z"/>
	<path class="st0" d="M339.8,97.4c-0.7,0.6-1.6,1.1-2.5,1.6c-0.9,0.5-2.1,0.7-3.5,0.7c-1.9,0-3.4-0.5-4.5-1.5
		c-1.1-1-1.7-2.6-1.7-4.7c0-1.1,0.2-2.1,0.6-2.8c0.4-0.8,0.9-1.4,1.7-1.9c0.7-0.5,1.6-0.9,2.6-1.1c1-0.2,2.1-0.3,3.3-0.3h3.3v-1
		c0-1.6-0.2-2.7-0.7-3.4c-0.5-0.7-1.4-1-2.8-1c-1.8,0-3.7,0.4-5.6,1.1l-0.9-2.4c0.7-0.3,1.7-0.6,2.8-0.9c1.1-0.3,2.5-0.5,4.1-0.5
		c1.5,0,2.7,0.2,3.5,0.6c0.9,0.4,1.5,1,2,1.7c0.4,0.7,0.7,1.5,0.9,2.5c0.1,1,0.2,2,0.2,3.1v8.2l1.6,2.4l-2.5,1.9L339.8,97.4z
		 M339,89.6h-3c-1.7,0-3,0.3-3.7,0.8c-0.7,0.5-1.1,1.5-1.1,2.8c0,1.2,0.3,2.2,0.8,2.8c0.5,0.6,1.3,0.9,2.4,0.9
		c1.1,0,2.1-0.2,2.9-0.6s1.4-0.8,1.8-1.3V89.6z"/>
	<path class="st0" d="M355.1,95.3c0.6,0.3,1.4,0.7,2.4,1.1c1,0.4,2.1,0.6,3.4,0.6c1.3,0,2.4-0.2,3.2-0.7c0.8-0.5,1.2-1.2,1.2-2.2
		c0-0.6-0.1-1.1-0.4-1.4c-0.3-0.4-0.6-0.7-1-0.9c-0.4-0.2-0.9-0.4-1.5-0.6s-1.2-0.3-1.8-0.5c-0.7-0.2-1.4-0.4-2.1-0.6
		c-0.7-0.3-1.3-0.6-1.9-1c-0.5-0.4-1-0.9-1.3-1.6c-0.3-0.6-0.5-1.4-0.5-2.4c0-0.8,0.1-1.6,0.4-2.3c0.3-0.7,0.7-1.3,1.3-1.8
		c0.6-0.5,1.4-0.9,2.3-1.2c0.9-0.3,2-0.5,3.2-0.5c1.2,0,2.4,0.1,3.4,0.4c1.1,0.3,2,0.6,2.7,1L367,83c-1.6-0.9-3.3-1.3-5.1-1.3
		c-1.2,0-2.2,0.2-2.9,0.6c-0.7,0.4-1,1.1-1,2.1c0,0.6,0.1,1,0.3,1.4c0.2,0.4,0.5,0.7,0.9,0.9c0.4,0.2,0.8,0.4,1.4,0.6
		c0.5,0.2,1.1,0.3,1.6,0.5c0.7,0.2,1.4,0.4,2.1,0.6c0.7,0.2,1.4,0.5,2,1c0.6,0.4,1.1,1,1.5,1.6c0.4,0.7,0.6,1.5,0.6,2.6
		c0,1.9-0.6,3.4-1.8,4.4c-1.2,1.1-3.1,1.6-5.6,1.6c-1.7,0-3.1-0.2-4.4-0.6c-1.2-0.4-2.1-0.8-2.7-1.2L355.1,95.3z"/>
	<path class="st0" d="M373.3,82.4h-2.4v-2.5h6v19h-3.5V82.4z M374.7,76.3c-0.7,0-1.3-0.2-1.7-0.7s-0.6-1.1-0.6-1.8
		c0-0.7,0.2-1.3,0.6-1.8s1-0.7,1.7-0.7c0.8,0,1.3,0.2,1.8,0.7c0.4,0.5,0.6,1.1,0.6,1.8c0,0.7-0.2,1.3-0.6,1.8
		C376,76.1,375.4,76.3,374.7,76.3z"/>
	<path class="st0" d="M395.7,97.5c-0.7,0.6-1.6,1.1-2.5,1.5c-0.9,0.4-2.1,0.6-3.3,0.6c-2.6,0-4.6-0.8-5.9-2.5c-1.3-1.7-2-4.2-2-7.7
		c0-1.5,0.2-2.9,0.6-4.2c0.4-1.3,1-2.3,1.7-3.2c0.8-0.9,1.7-1.6,2.9-2.1c1.2-0.5,2.5-0.7,4-0.7c0.7,0,1.3,0.1,1.9,0.2
		c0.6,0.1,1.1,0.2,1.6,0.3v-8.7h3.5v24.3l1.6,2.4l-2.5,1.9L395.7,97.5z M394.8,82.2c-0.4-0.1-0.9-0.2-1.5-0.4s-1.3-0.2-2.1-0.2
		c-1.9,0-3.3,0.7-4.2,2c-0.9,1.3-1.3,3.2-1.3,5.7c0,2.4,0.4,4.2,1.1,5.6c0.7,1.3,2,2,3.6,2c1.1,0,1.9-0.2,2.6-0.5s1.3-0.8,1.8-1.3
		V82.2z"/>
	<path class="st0" d="M412.2,99.6c-1.6,0-3-0.3-4.1-0.8c-1.1-0.5-2-1.2-2.6-2.1c-0.7-0.9-1.1-2-1.4-3.2s-0.4-2.6-0.4-4.1
		c0-1.5,0.2-2.8,0.5-4.1c0.4-1.3,0.9-2.3,1.6-3.2c0.7-0.9,1.6-1.6,2.7-2.1c1.1-0.5,2.4-0.8,3.8-0.8c1.5,0,2.8,0.3,3.9,0.8
		c1.1,0.5,2,1.2,2.7,2.1s1.2,2,1.5,3.2c0.3,1.3,0.5,2.6,0.5,4.1c0,1.5-0.2,2.9-0.5,4.1c-0.3,1.2-0.8,2.3-1.5,3.2
		c-0.7,0.9-1.6,1.6-2.7,2.1C415.1,99.3,413.7,99.6,412.2,99.6z M412.3,97.1c1.8,0,3.1-0.7,3.9-2c0.7-1.3,1.1-3.2,1.1-5.7
		c0-2.4-0.4-4.3-1.1-5.6c-0.7-1.3-2-2-3.9-2c-1.8,0-3.1,0.6-3.9,1.9c-0.7,1.3-1.1,3.2-1.1,5.7c0,1.2,0.1,2.3,0.3,3.2
		c0.2,1,0.5,1.8,0.9,2.4c0.4,0.7,0.9,1.2,1.6,1.5C410.6,96.9,411.4,97.1,412.3,97.1z"/>
	<path class="st0" d="M447.6,98.1c-0.7,0.4-1.5,0.7-2.6,1c-1,0.3-2.2,0.5-3.6,0.5c-1.7,0-3.2-0.2-4.3-0.7c-1.1-0.5-2.1-1.2-2.7-2.1
		c-0.7-0.9-1.2-1.9-1.5-3.2c-0.3-1.2-0.4-2.6-0.4-4.1c0-1.5,0.2-2.8,0.5-4.1c0.4-1.3,0.9-2.4,1.7-3.3c0.7-0.9,1.7-1.7,2.9-2.2
		c1.2-0.5,2.5-0.8,4.2-0.8c1.2,0,2.2,0.2,3.2,0.5c1,0.3,1.8,0.7,2.5,1.1l-1.1,2.4c-0.7-0.4-1.4-0.7-2.2-0.9
		c-0.8-0.2-1.6-0.4-2.6-0.4c-1.9,0-3.2,0.6-4.1,1.9s-1.3,3.2-1.3,5.8c0,1.1,0.1,2.2,0.3,3.1c0.2,0.9,0.5,1.7,0.9,2.3
		c0.4,0.6,1,1.1,1.7,1.5c0.7,0.3,1.6,0.5,2.6,0.5c0.8,0,1.6-0.1,2.3-0.2c0.7-0.2,1.5-0.5,2.5-0.9L447.6,98.1z"/>
	<path class="st0" d="M462.2,97.4c-0.7,0.6-1.6,1.1-2.5,1.6c-0.9,0.5-2.1,0.7-3.5,0.7c-1.9,0-3.4-0.5-4.5-1.5
		c-1.1-1-1.7-2.6-1.7-4.7c0-1.1,0.2-2.1,0.6-2.8c0.4-0.8,0.9-1.4,1.7-1.9c0.7-0.5,1.6-0.9,2.6-1.1c1-0.2,2.1-0.3,3.3-0.3h3.3v-1
		c0-1.6-0.2-2.7-0.7-3.4c-0.5-0.7-1.4-1-2.8-1c-1.8,0-3.7,0.4-5.6,1.1l-0.9-2.4c0.7-0.3,1.7-0.6,2.8-0.9c1.1-0.3,2.5-0.5,4.1-0.5
		c1.5,0,2.7,0.2,3.5,0.6c0.9,0.4,1.5,1,2,1.7c0.4,0.7,0.7,1.5,0.9,2.5c0.1,1,0.2,2,0.2,3.1v8.2l1.6,2.4l-2.5,1.9L462.2,97.4z
		 M461.4,89.6h-3c-1.7,0-3,0.3-3.7,0.8c-0.7,0.5-1.1,1.5-1.1,2.8c0,1.2,0.3,2.2,0.8,2.8c0.5,0.6,1.3,0.9,2.4,0.9
		c1.1,0,2.1-0.2,2.9-0.6s1.4-0.8,1.8-1.3V89.6z"/>
	<path class="st0" d="M471.3,82.4h-2.4v-2.5h4.9l0.6,2.5c0.3-0.4,0.7-0.7,1-1c0.4-0.3,0.7-0.6,1.2-0.9c0.4-0.2,0.9-0.4,1.5-0.6
		c0.5-0.1,1.2-0.2,1.9-0.2c0.9,0,1.7,0.1,2.4,0.3l-1,3.2c-0.3-0.1-0.6-0.2-1-0.3c-0.4-0.1-0.7-0.1-1.1-0.1c-1.8,0-3.3,0.6-4.4,1.9
		v14.2h-3.5V82.4z"/>
	<path class="st0" d="M495.8,97.4c-0.7,0.6-1.6,1.1-2.5,1.6c-0.9,0.5-2.1,0.7-3.5,0.7c-1.9,0-3.4-0.5-4.5-1.5
		c-1.1-1-1.7-2.6-1.7-4.7c0-1.1,0.2-2.1,0.6-2.8c0.4-0.8,0.9-1.4,1.7-1.9c0.7-0.5,1.6-0.9,2.6-1.1c1-0.2,2.1-0.3,3.3-0.3h3.3v-1
		c0-1.6-0.2-2.7-0.7-3.4c-0.5-0.7-1.4-1-2.8-1c-1.8,0-3.7,0.4-5.6,1.1l-0.9-2.4c0.7-0.3,1.7-0.6,2.8-0.9c1.1-0.3,2.5-0.5,4.1-0.5
		c1.5,0,2.7,0.2,3.5,0.6c0.9,0.4,1.5,1,2,1.7c0.4,0.7,0.7,1.5,0.9,2.5c0.1,1,0.2,2,0.2,3.1v8.2l1.6,2.4l-2.5,1.9L495.8,97.4z
		 M495,89.6h-3c-1.7,0-3,0.3-3.7,0.8c-0.7,0.5-1.1,1.5-1.1,2.8c0,1.2,0.3,2.2,0.8,2.8c0.5,0.6,1.3,0.9,2.4,0.9
		c1.1,0,2.1-0.2,2.9-0.6s1.4-0.8,1.8-1.3V89.6z"/>
	<path class="st0" d="M518.6,98.1c-0.7,0.4-1.5,0.7-2.6,1c-1,0.3-2.2,0.5-3.6,0.5c-1.7,0-3.2-0.2-4.3-0.7c-1.1-0.5-2.1-1.2-2.7-2.1
		c-0.7-0.9-1.2-1.9-1.5-3.2c-0.3-1.2-0.4-2.6-0.4-4.1c0-1.5,0.2-2.8,0.5-4.1c0.4-1.3,0.9-2.4,1.7-3.3c0.7-0.9,1.7-1.7,2.9-2.2
		c1.2-0.5,2.5-0.8,4.2-0.8c1.2,0,2.2,0.2,3.2,0.5c1,0.3,1.8,0.7,2.5,1.1l-1.1,2.4c-0.7-0.4-1.4-0.7-2.2-0.9
		c-0.8-0.2-1.6-0.4-2.6-0.4c-1.9,0-3.2,0.6-4.1,1.9s-1.3,3.2-1.3,5.8c0,1.1,0.1,2.2,0.3,3.1c0.2,0.9,0.5,1.7,0.9,2.3
		c0.4,0.6,1,1.1,1.7,1.5c0.7,0.3,1.6,0.5,2.6,0.5c0.8,0,1.6-0.1,2.3-0.2c0.7-0.2,1.5-0.5,2.5-0.9L518.6,98.1z"/>
	<path class="st0" d="M523.6,82.5h-3.5v-2.6h3.6v-5.7h3.4v5.7h5.6v2.6h-5.6v11c0,0.7,0.1,1.3,0.2,1.8c0.1,0.4,0.3,0.8,0.6,1
		c0.2,0.2,0.5,0.4,0.9,0.5c0.3,0.1,0.7,0.1,1.1,0.1c0.4,0,0.9-0.1,1.4-0.2c0.5-0.1,1-0.3,1.5-0.5l0.8,2.3c-0.4,0.2-1,0.4-1.8,0.6
		c-0.8,0.2-1.6,0.3-2.4,0.3c-0.9,0-1.7-0.1-2.4-0.3c-0.7-0.2-1.3-0.5-1.8-0.9c-0.5-0.4-0.9-1-1.1-1.7c-0.3-0.7-0.4-1.6-0.4-2.7V82.5
		z"/>
	<path class="st0" d="M550.8,98.1c-0.6,0.4-1.5,0.7-2.6,1s-2.4,0.5-3.6,0.5c-1.7,0-3.2-0.2-4.4-0.7c-1.2-0.5-2.1-1.2-2.8-2.1
		s-1.2-2-1.5-3.2c-0.3-1.3-0.4-2.6-0.4-4.2c0-1.4,0.2-2.7,0.5-4c0.3-1.2,0.8-2.3,1.5-3.2c0.7-0.9,1.6-1.7,2.6-2.2
		c1.1-0.5,2.3-0.8,3.8-0.8c1.4,0,2.6,0.3,3.6,0.9c1,0.6,1.8,1.3,2.4,2.3s1,2,1.3,3.2c0.3,1.2,0.4,2.3,0.4,3.5l-1.3,1.3H539
		c0.1,2.2,0.6,3.9,1.5,5c0.9,1.1,2.2,1.6,4.1,1.6c1,0,1.9-0.1,2.7-0.3c0.9-0.2,1.7-0.5,2.4-0.8L550.8,98.1z M547.9,87.9
		c0-2-0.4-3.6-1.1-4.6c-0.7-1-1.8-1.6-3.3-1.6c-1.6,0-2.7,0.5-3.3,1.6c-0.7,1.1-1.1,2.6-1.2,4.5H547.9z"/>
	<path class="st0" d="M556.8,82.4h-2.4v-2.5h4.9l0.6,2.5c0.3-0.4,0.7-0.7,1-1c0.4-0.3,0.7-0.6,1.2-0.9c0.4-0.2,0.9-0.4,1.5-0.6
		c0.5-0.1,1.2-0.2,1.9-0.2c0.9,0,1.7,0.1,2.4,0.3l-1,3.2c-0.3-0.1-0.6-0.2-1-0.3c-0.4-0.1-0.7-0.1-1.1-0.1c-1.8,0-3.3,0.6-4.4,1.9
		v14.2h-3.5V82.4z"/>
	<path class="st0" d="M571.3,82.4h-2.4v-2.5h6v19h-3.5V82.4z M574.1,68.7l2.8,1.9l-5.4,6.2l-1.7-1.3L574.1,68.7z"/>
	<path class="st0" d="M580.1,95.3c0.6,0.3,1.4,0.7,2.4,1.1c1,0.4,2.1,0.6,3.4,0.6c1.3,0,2.4-0.2,3.2-0.7c0.8-0.5,1.2-1.2,1.2-2.2
		c0-0.6-0.1-1.1-0.4-1.4c-0.3-0.4-0.6-0.7-1-0.9c-0.4-0.2-0.9-0.4-1.5-0.6s-1.2-0.3-1.8-0.5c-0.7-0.2-1.4-0.4-2.1-0.6
		c-0.7-0.3-1.3-0.6-1.9-1c-0.5-0.4-1-0.9-1.3-1.6c-0.3-0.6-0.5-1.4-0.5-2.4c0-0.8,0.1-1.6,0.4-2.3c0.3-0.7,0.7-1.3,1.3-1.8
		c0.6-0.5,1.4-0.9,2.3-1.2c0.9-0.3,2-0.5,3.2-0.5c1.2,0,2.4,0.1,3.4,0.4c1.1,0.3,2,0.6,2.7,1L592,83c-1.6-0.9-3.3-1.3-5.1-1.3
		c-1.2,0-2.2,0.2-2.9,0.6c-0.7,0.4-1,1.1-1,2.1c0,0.6,0.1,1,0.3,1.4c0.2,0.4,0.5,0.7,0.9,0.9c0.4,0.2,0.8,0.4,1.4,0.6
		c0.5,0.2,1.1,0.3,1.6,0.5c0.7,0.2,1.4,0.4,2.1,0.6c0.7,0.2,1.4,0.5,2,1c0.6,0.4,1.1,1,1.5,1.6c0.4,0.7,0.6,1.5,0.6,2.6
		c0,1.9-0.6,3.4-1.8,4.4c-1.2,1.1-3.1,1.6-5.6,1.6c-1.7,0-3.1-0.2-4.4-0.6c-1.2-0.4-2.1-0.8-2.7-1.2L580.1,95.3z"/>
	<path class="st0" d="M599.2,82.5h-3.5v-2.6h3.6v-5.7h3.4v5.7h5.6v2.6h-5.6v11c0,0.7,0.1,1.3,0.2,1.8c0.1,0.4,0.3,0.8,0.6,1
		c0.2,0.2,0.5,0.4,0.9,0.5c0.3,0.1,0.7,0.1,1.1,0.1c0.4,0,0.9-0.1,1.4-0.2c0.5-0.1,1-0.3,1.5-0.5l0.8,2.3c-0.4,0.2-1,0.4-1.8,0.6
		c-0.8,0.2-1.6,0.3-2.4,0.3c-0.9,0-1.7-0.1-2.4-0.3c-0.7-0.2-1.3-0.5-1.8-0.9c-0.5-0.4-0.9-1-1.1-1.7c-0.3-0.7-0.4-1.6-0.4-2.7V82.5
		z"/>
	<path class="st0" d="M612.9,82.4h-2.4v-2.5h6v19h-3.5V82.4z M614.3,76.3c-0.7,0-1.3-0.2-1.7-0.7s-0.6-1.1-0.6-1.8
		c0-0.7,0.2-1.3,0.6-1.8s1-0.7,1.7-0.7c0.8,0,1.3,0.2,1.8,0.7c0.4,0.5,0.6,1.1,0.6,1.8c0,0.7-0.2,1.3-0.6,1.8
		C615.6,76.1,615,76.3,614.3,76.3z"/>
	<path class="st0" d="M636.7,98.1c-0.7,0.4-1.5,0.7-2.6,1c-1,0.3-2.2,0.5-3.6,0.5c-1.7,0-3.2-0.2-4.3-0.7c-1.1-0.5-2.1-1.2-2.7-2.1
		c-0.7-0.9-1.2-1.9-1.5-3.2c-0.3-1.2-0.4-2.6-0.4-4.1c0-1.5,0.2-2.8,0.5-4.1c0.4-1.3,0.9-2.4,1.7-3.3c0.7-0.9,1.7-1.7,2.9-2.2
		c1.2-0.5,2.5-0.8,4.2-0.8c1.2,0,2.2,0.2,3.2,0.5c1,0.3,1.8,0.7,2.5,1.1l-1.1,2.4c-0.7-0.4-1.4-0.7-2.2-0.9
		c-0.8-0.2-1.6-0.4-2.6-0.4c-1.9,0-3.2,0.6-4.1,1.9s-1.3,3.2-1.3,5.8c0,1.1,0.1,2.2,0.3,3.1c0.2,0.9,0.5,1.7,0.9,2.3
		c0.4,0.6,1,1.1,1.7,1.5c0.7,0.3,1.6,0.5,2.6,0.5c0.8,0,1.6-0.1,2.3-0.2c0.7-0.2,1.5-0.5,2.5-0.9L636.7,98.1z"/>
	<path class="st0" d="M647.7,99.6c-1.6,0-3-0.3-4.1-0.8c-1.1-0.5-2-1.2-2.6-2.1c-0.7-0.9-1.1-2-1.4-3.2s-0.4-2.6-0.4-4.1
		c0-1.5,0.2-2.8,0.5-4.1c0.4-1.3,0.9-2.3,1.6-3.2c0.7-0.9,1.6-1.6,2.7-2.1c1.1-0.5,2.4-0.8,3.8-0.8c1.5,0,2.8,0.3,3.9,0.8
		c1.1,0.5,2,1.2,2.7,2.1s1.2,2,1.5,3.2c0.3,1.3,0.5,2.6,0.5,4.1c0,1.5-0.2,2.9-0.5,4.1c-0.3,1.2-0.8,2.3-1.5,3.2
		c-0.7,0.9-1.6,1.6-2.7,2.1C650.6,99.3,649.3,99.6,647.7,99.6z M647.8,97.1c1.8,0,3.1-0.7,3.9-2c0.7-1.3,1.1-3.2,1.1-5.7
		c0-2.4-0.4-4.3-1.1-5.6c-0.7-1.3-2-2-3.9-2c-1.8,0-3.1,0.6-3.9,1.9c-0.7,1.3-1.1,3.2-1.1,5.7c0,1.2,0.1,2.3,0.3,3.2
		c0.2,1,0.5,1.8,0.9,2.4c0.4,0.7,0.9,1.2,1.6,1.5C646.1,96.9,646.9,97.1,647.8,97.1z"/>
	<path class="st0" d="M683.4,98.1c-0.6,0.4-1.5,0.7-2.6,1c-1.2,0.3-2.4,0.5-3.6,0.5c-1.7,0-3.2-0.2-4.4-0.7
		c-1.2-0.5-2.1-1.2-2.8-2.1c-0.7-0.9-1.2-2-1.5-3.2c-0.3-1.3-0.4-2.6-0.4-4.2c0-1.4,0.2-2.7,0.5-4s0.8-2.3,1.5-3.2
		c0.7-0.9,1.6-1.7,2.6-2.2c1.1-0.5,2.3-0.8,3.8-0.8c1.4,0,2.6,0.3,3.6,0.9c1,0.6,1.8,1.3,2.4,2.3c0.6,0.9,1,2,1.3,3.2
		c0.3,1.2,0.4,2.3,0.4,3.5l-1.3,1.3h-11.3c0.1,2.2,0.6,3.9,1.5,5c0.9,1.1,2.2,1.6,4.1,1.6c1,0,1.9-0.1,2.7-0.3
		c0.9-0.2,1.7-0.5,2.4-0.8L683.4,98.1z M680.6,87.9c0-2-0.4-3.6-1.1-4.6c-0.7-1-1.8-1.6-3.3-1.6c-1.6,0-2.7,0.5-3.3,1.6
		c-0.7,1.1-1.1,2.6-1.2,4.5H680.6z"/>
	<path class="st0" d="M689.3,83.8l-1.5-3.2l2.8-1.5l1.6,2.5c1.1-0.9,2.2-1.5,3.2-1.9c1-0.4,2.1-0.6,3.2-0.6c1.3,0,2.3,0.2,3.2,0.6
		s1.5,0.9,2,1.6c0.5,0.7,0.9,1.5,1.1,2.4c0.2,0.9,0.3,1.8,0.3,2.8v12.3h-3.5V86.7c0-1.6-0.3-2.7-1-3.5c-0.6-0.7-1.6-1.1-2.9-1.1
		c-1,0-1.9,0.2-2.8,0.5s-1.6,0.8-2.2,1.3v14.9h-3.5V83.8z"/>
	<path class="st0" d="M733,98.1c-0.6,0.4-1.5,0.7-2.6,1c-1.2,0.3-2.4,0.5-3.6,0.5c-1.7,0-3.2-0.2-4.4-0.7c-1.2-0.5-2.1-1.2-2.8-2.1
		c-0.7-0.9-1.2-2-1.5-3.2c-0.3-1.3-0.4-2.6-0.4-4.2c0-1.4,0.2-2.7,0.5-4c0.3-1.2,0.8-2.3,1.5-3.2c0.7-0.9,1.6-1.7,2.6-2.2
		c1.1-0.5,2.3-0.8,3.8-0.8c1.4,0,2.6,0.3,3.6,0.9c1,0.6,1.8,1.3,2.4,2.3c0.6,0.9,1,2,1.3,3.2c0.3,1.2,0.4,2.3,0.4,3.5l-1.3,1.3
		h-11.3c0.1,2.2,0.6,3.9,1.5,5c0.9,1.1,2.2,1.6,4.1,1.6c1,0,1.9-0.1,2.7-0.3c0.9-0.2,1.7-0.5,2.4-0.8L733,98.1z M730.1,87.9
		c0-2-0.4-3.6-1.1-4.6c-0.7-1-1.8-1.6-3.3-1.6c-1.6,0-2.7,0.5-3.3,1.6c-0.7,1.1-1.1,2.6-1.2,4.5H730.1z"/>
	<path class="st0" d="M737.9,95.3c0.6,0.3,1.4,0.7,2.4,1.1c1,0.4,2.1,0.6,3.4,0.6c1.3,0,2.4-0.2,3.2-0.7s1.2-1.2,1.2-2.2
		c0-0.6-0.1-1.1-0.4-1.4c-0.3-0.4-0.6-0.7-1-0.9c-0.4-0.2-0.9-0.4-1.5-0.6c-0.6-0.2-1.2-0.3-1.8-0.5c-0.7-0.2-1.4-0.4-2.1-0.6
		c-0.7-0.3-1.3-0.6-1.9-1c-0.5-0.4-1-0.9-1.3-1.6c-0.3-0.6-0.5-1.4-0.5-2.4c0-0.8,0.1-1.6,0.4-2.3c0.3-0.7,0.7-1.3,1.3-1.8
		c0.6-0.5,1.4-0.9,2.3-1.2c0.9-0.3,2-0.5,3.2-0.5s2.4,0.1,3.4,0.4c1.1,0.3,2,0.6,2.7,1l-1.1,2.3c-1.6-0.9-3.3-1.3-5.1-1.3
		c-1.2,0-2.2,0.2-2.9,0.6c-0.7,0.4-1,1.1-1,2.1c0,0.6,0.1,1,0.3,1.4c0.2,0.4,0.5,0.7,0.9,0.9c0.4,0.2,0.8,0.4,1.4,0.6
		c0.5,0.2,1.1,0.3,1.6,0.5c0.7,0.2,1.4,0.4,2.1,0.6c0.7,0.2,1.4,0.5,2,1c0.6,0.4,1.1,1,1.5,1.6c0.4,0.7,0.6,1.5,0.6,2.6
		c0,1.9-0.6,3.4-1.8,4.4c-1.2,1.1-3.1,1.6-5.6,1.6c-1.7,0-3.1-0.2-4.4-0.6c-1.2-0.4-2.1-0.8-2.7-1.2L737.9,95.3z"/>
	<path class="st0" d="M757,82.5h-3.5v-2.6h3.6v-5.7h3.4v5.7h5.6v2.6h-5.6v11c0,0.7,0.1,1.3,0.2,1.8c0.1,0.4,0.3,0.8,0.6,1
		c0.2,0.2,0.5,0.4,0.9,0.5c0.3,0.1,0.7,0.1,1.1,0.1s0.9-0.1,1.4-0.2c0.5-0.1,1-0.3,1.5-0.5l0.8,2.3c-0.4,0.2-1,0.4-1.8,0.6
		c-0.8,0.2-1.6,0.3-2.4,0.3c-0.9,0-1.7-0.1-2.4-0.3s-1.3-0.5-1.8-0.9c-0.5-0.4-0.9-1-1.1-1.7c-0.3-0.7-0.4-1.6-0.4-2.7V82.5z"/>
	<path class="st0" d="M784.1,98.1c-0.6,0.4-1.5,0.7-2.6,1c-1.2,0.3-2.4,0.5-3.6,0.5c-1.7,0-3.2-0.2-4.4-0.7
		c-1.2-0.5-2.1-1.2-2.8-2.1c-0.7-0.9-1.2-2-1.5-3.2c-0.3-1.3-0.4-2.6-0.4-4.2c0-1.4,0.2-2.7,0.5-4c0.3-1.2,0.8-2.3,1.5-3.2
		c0.7-0.9,1.6-1.7,2.6-2.2c1.1-0.5,2.3-0.8,3.8-0.8c1.4,0,2.6,0.3,3.6,0.9c1,0.6,1.8,1.3,2.4,2.3c0.6,0.9,1,2,1.3,3.2
		c0.3,1.2,0.4,2.3,0.4,3.5l-1.3,1.3h-11.3c0.1,2.2,0.6,3.9,1.5,5c0.9,1.1,2.2,1.6,4.1,1.6c1,0,1.9-0.1,2.7-0.3
		c0.9-0.2,1.7-0.5,2.4-0.8L784.1,98.1z M781.3,87.9c0-2-0.4-3.6-1.1-4.6c-0.7-1-1.8-1.6-3.3-1.6c-1.6,0-2.7,0.5-3.3,1.6
		c-0.7,1.1-1.1,2.6-1.2,4.5H781.3z"/>
	<path class="st0" d="M794.1,80.1l3.6-0.6l5,16.4c0.1,0.5,0.2,0.8,0.4,1c0.1,0.2,0.3,0.3,0.6,0.3c0.3,0,0.5-0.1,0.6-0.3
		c0.1-0.2,0.2-0.5,0.4-1l4.9-16.4l3,0.6l-4.9,15.7c-0.4,1.2-0.9,2.2-1.5,2.9c-0.6,0.7-1.5,1-2.5,1c-0.7,0-1.3-0.1-1.8-0.2
		c-0.5-0.2-0.9-0.4-1.3-0.7c-0.3-0.3-0.6-0.7-0.9-1.2c-0.2-0.5-0.4-1.1-0.6-1.7L794.1,80.1z"/>
	<path class="st0" d="M830.1,98.1c-0.6,0.4-1.5,0.7-2.6,1c-1.2,0.3-2.4,0.5-3.6,0.5c-1.7,0-3.2-0.2-4.4-0.7
		c-1.2-0.5-2.1-1.2-2.8-2.1c-0.7-0.9-1.2-2-1.5-3.2c-0.3-1.3-0.4-2.6-0.4-4.2c0-1.4,0.2-2.7,0.5-4c0.3-1.2,0.8-2.3,1.5-3.2
		c0.7-0.9,1.6-1.7,2.6-2.2c1.1-0.5,2.3-0.8,3.8-0.8c1.4,0,2.6,0.3,3.6,0.9c1,0.6,1.8,1.3,2.4,2.3c0.6,0.9,1,2,1.3,3.2
		c0.3,1.2,0.4,2.3,0.4,3.5l-1.3,1.3h-11.3c0.1,2.2,0.6,3.9,1.5,5c0.9,1.1,2.2,1.6,4.1,1.6c1,0,1.9-0.1,2.7-0.3
		c0.9-0.2,1.7-0.5,2.4-0.8L830.1,98.1z M827.3,87.9c0-2-0.4-3.6-1.1-4.6c-0.7-1-1.8-1.6-3.3-1.6c-1.6,0-2.7,0.5-3.3,1.6
		c-0.7,1.1-1.1,2.6-1.2,4.5H827.3z"/>
	<path class="st0" d="M835.9,70.9h3.5v10.4c0.9-0.7,1.8-1.2,2.8-1.6c1-0.4,2-0.6,3-0.6c1.3,0,2.3,0.2,3.2,0.6s1.5,0.9,2,1.6
		c0.5,0.7,0.9,1.5,1.1,2.4c0.2,0.9,0.3,1.8,0.3,2.8v12.3h-3.5V86.7c0-1.6-0.3-2.7-1-3.5c-0.7-0.7-1.6-1.1-2.9-1.1
		c-1,0-2,0.2-2.8,0.5c-0.8,0.4-1.6,0.8-2.3,1.3v14.9h-3.5V70.9z"/>
	<path class="st0" d="M858.2,82.4h-2.4v-2.5h6v19h-3.5V82.4z M860.9,68.7l2.8,1.9l-5.4,6.2l-1.7-1.3L860.9,68.7z"/>
	<path class="st0" d="M881.9,98.1c-0.7,0.4-1.5,0.7-2.6,1c-1,0.3-2.2,0.5-3.6,0.5c-1.7,0-3.2-0.2-4.3-0.7c-1.1-0.5-2.1-1.2-2.7-2.1
		c-0.7-0.9-1.2-1.9-1.5-3.2c-0.3-1.2-0.4-2.6-0.4-4.1c0-1.5,0.2-2.8,0.5-4.1c0.4-1.3,0.9-2.4,1.7-3.3c0.7-0.9,1.7-1.7,2.8-2.2
		c1.2-0.5,2.5-0.8,4.2-0.8c1.2,0,2.2,0.2,3.2,0.5c1,0.3,1.8,0.7,2.5,1.1l-1.1,2.4c-0.7-0.4-1.4-0.7-2.2-0.9
		c-0.8-0.2-1.6-0.4-2.6-0.4c-1.9,0-3.2,0.6-4.1,1.9s-1.3,3.2-1.3,5.8c0,1.1,0.1,2.2,0.3,3.1c0.2,0.9,0.5,1.7,0.9,2.3
		c0.4,0.6,1,1.1,1.7,1.5c0.7,0.3,1.6,0.5,2.6,0.5c0.8,0,1.6-0.1,2.3-0.2c0.7-0.2,1.5-0.5,2.5-0.9L881.9,98.1z"/>
	<path class="st0" d="M885.4,79.9h3.5v12.4c0,1.5,0.3,2.6,0.9,3.5c0.6,0.8,1.5,1.2,2.9,1.2c1.1,0,2-0.2,2.7-0.5
		c0.7-0.4,1.3-0.8,2-1.3V79.9h3.5v15.4l1.6,2.3l-2.5,1.9l-1.7-2.1c-1,0.8-2,1.3-2.9,1.7c-1,0.3-2,0.5-3.1,0.5
		c-1.4,0-2.5-0.2-3.4-0.6s-1.5-0.9-2-1.6c-0.5-0.7-0.8-1.5-1-2.4c-0.2-0.9-0.3-1.8-0.3-2.8V79.9z"/>
	<path class="st0" d="M907,73.5h-2.4V71h5.9v27.9H907V73.5z"/>
	<path class="st0" d="M924.2,99.6c-1.6,0-3-0.3-4.1-0.8c-1.1-0.5-2-1.2-2.6-2.1s-1.1-2-1.4-3.2c-0.3-1.2-0.4-2.6-0.4-4.1
		c0-1.5,0.2-2.8,0.5-4.1c0.4-1.3,0.9-2.3,1.6-3.2s1.6-1.6,2.7-2.1c1.1-0.5,2.4-0.8,3.8-0.8c1.5,0,2.8,0.3,3.9,0.8
		c1.1,0.5,2,1.2,2.7,2.1c0.7,0.9,1.2,2,1.5,3.2s0.5,2.6,0.5,4.1c0,1.5-0.2,2.9-0.5,4.1c-0.3,1.2-0.8,2.3-1.5,3.2
		c-0.7,0.9-1.6,1.6-2.7,2.1C927.1,99.3,925.8,99.6,924.2,99.6z M924.3,97.1c1.8,0,3.1-0.7,3.9-2c0.7-1.3,1.1-3.2,1.1-5.7
		c0-2.4-0.4-4.3-1.1-5.6c-0.7-1.3-2-2-3.9-2c-1.8,0-3.1,0.6-3.9,1.9c-0.7,1.3-1.1,3.2-1.1,5.7c0,1.2,0.1,2.3,0.3,3.2
		c0.2,1,0.5,1.8,0.9,2.4c0.4,0.7,0.9,1.2,1.6,1.5C922.6,96.9,923.4,97.1,924.3,97.1z"/>
	<path class="st0" d="M945.7,82.4h-2.4v-2.5h6v19h-3.5V82.4z M947,76.3c-0.7,0-1.3-0.2-1.7-0.7s-0.6-1.1-0.6-1.8
		c0-0.7,0.2-1.3,0.6-1.8s1-0.7,1.7-0.7c0.8,0,1.3,0.2,1.8,0.7s0.6,1.1,0.6,1.8c0,0.7-0.2,1.3-0.6,1.8S947.8,76.3,947,76.3z"/>
	<path class="st0" d="M969.4,98.1c-0.7,0.4-1.5,0.7-2.6,1c-1,0.3-2.2,0.5-3.6,0.5c-1.7,0-3.2-0.2-4.3-0.7c-1.1-0.5-2.1-1.2-2.7-2.1
		c-0.7-0.9-1.2-1.9-1.5-3.2c-0.3-1.2-0.4-2.6-0.4-4.1c0-1.5,0.2-2.8,0.5-4.1c0.4-1.3,0.9-2.4,1.7-3.3c0.7-0.9,1.7-1.7,2.8-2.2
		c1.2-0.5,2.5-0.8,4.2-0.8c1.2,0,2.2,0.2,3.2,0.5c1,0.3,1.8,0.7,2.5,1.1l-1.1,2.4c-0.7-0.4-1.4-0.7-2.2-0.9
		c-0.8-0.2-1.6-0.4-2.6-0.4c-1.9,0-3.2,0.6-4.1,1.9S958,87,958,89.6c0,1.1,0.1,2.2,0.3,3.1c0.2,0.9,0.5,1.7,0.9,2.3
		c0.4,0.6,1,1.1,1.7,1.5c0.7,0.3,1.6,0.5,2.6,0.5c0.8,0,1.6-0.1,2.3-0.2c0.7-0.2,1.5-0.5,2.5-0.9L969.4,98.1z"/>
	<path class="st0" d="M980.4,99.6c-1.6,0-3-0.3-4.1-0.8c-1.1-0.5-2-1.2-2.6-2.1s-1.1-2-1.4-3.2c-0.3-1.2-0.4-2.6-0.4-4.1
		c0-1.5,0.2-2.8,0.5-4.1c0.4-1.3,0.9-2.3,1.6-3.2s1.6-1.6,2.7-2.1c1.1-0.5,2.4-0.8,3.8-0.8c1.5,0,2.8,0.3,3.9,0.8
		c1.1,0.5,2,1.2,2.7,2.1c0.7,0.9,1.2,2,1.5,3.2s0.5,2.6,0.5,4.1c0,1.5-0.2,2.9-0.5,4.1c-0.3,1.2-0.8,2.3-1.5,3.2
		c-0.7,0.9-1.6,1.6-2.7,2.1C983.4,99.3,982,99.6,980.4,99.6z M980.6,97.1c1.8,0,3.1-0.7,3.9-2c0.7-1.3,1.1-3.2,1.1-5.7
		c0-2.4-0.4-4.3-1.1-5.6c-0.7-1.3-2-2-3.9-2c-1.8,0-3.1,0.6-3.9,1.9c-0.7,1.3-1.1,3.2-1.1,5.7c0,1.2,0.1,2.3,0.3,3.2
		c0.2,1,0.5,1.8,0.9,2.4c0.4,0.7,0.9,1.2,1.6,1.5C978.9,96.9,979.6,97.1,980.6,97.1z M982.7,68.7l2.8,1.9l-5.4,6.2l-1.7-1.3
		L982.7,68.7z"/>
	<path class="st0" d="M994.5,83.8l-1.5-3.2l2.8-1.5l1.6,2.5c1.1-0.9,2.2-1.5,3.2-1.9c1-0.4,2.1-0.6,3.2-0.6c1.3,0,2.3,0.2,3.2,0.6
		s1.5,0.9,2,1.6c0.5,0.7,0.9,1.5,1.1,2.4c0.2,0.9,0.3,1.8,0.3,2.8v12.3h-3.5V86.7c0-1.6-0.3-2.7-1-3.5c-0.6-0.7-1.6-1.1-2.9-1.1
		c-1,0-1.9,0.2-2.8,0.5s-1.6,0.8-2.2,1.3v14.9h-3.5V83.8z"/>
	<path class="st0" d="M1016.6,82.4h-2.4v-2.5h6v19h-3.5V82.4z M1017.9,76.3c-0.7,0-1.3-0.2-1.7-0.7s-0.6-1.1-0.6-1.8
		c0-0.7,0.2-1.3,0.6-1.8s1-0.7,1.7-0.7c0.8,0,1.3,0.2,1.8,0.7s0.6,1.1,0.6,1.8c0,0.7-0.2,1.3-0.6,1.8S1018.7,76.3,1017.9,76.3z"/>
	<path class="st0" d="M1040.3,98.1c-0.7,0.4-1.5,0.7-2.6,1c-1,0.3-2.2,0.5-3.6,0.5c-1.7,0-3.2-0.2-4.3-0.7c-1.1-0.5-2.1-1.2-2.7-2.1
		c-0.7-0.9-1.2-1.9-1.5-3.2c-0.3-1.2-0.4-2.6-0.4-4.1c0-1.5,0.2-2.8,0.5-4.1c0.4-1.3,0.9-2.4,1.7-3.3c0.7-0.9,1.7-1.7,2.8-2.2
		c1.2-0.5,2.5-0.8,4.2-0.8c1.2,0,2.2,0.2,3.2,0.5c1,0.3,1.8,0.7,2.5,1.1l-1.1,2.4c-0.7-0.4-1.4-0.7-2.2-0.9
		c-0.8-0.2-1.6-0.4-2.6-0.4c-1.9,0-3.2,0.6-4.1,1.9s-1.3,3.2-1.3,5.8c0,1.1,0.1,2.2,0.3,3.1c0.2,0.9,0.5,1.7,0.9,2.3
		c0.4,0.6,1,1.1,1.7,1.5c0.7,0.3,1.6,0.5,2.6,0.5c0.8,0,1.6-0.1,2.3-0.2c0.7-0.2,1.5-0.5,2.5-0.9L1040.3,98.1z"/>
	<path class="st0" d="M1051.4,99.6c-1.6,0-3-0.3-4.1-0.8c-1.1-0.5-2-1.2-2.6-2.1s-1.1-2-1.4-3.2c-0.3-1.2-0.4-2.6-0.4-4.1
		c0-1.5,0.2-2.8,0.5-4.1c0.4-1.3,0.9-2.3,1.6-3.2s1.6-1.6,2.7-2.1c1.1-0.5,2.4-0.8,3.8-0.8c1.5,0,2.8,0.3,3.9,0.8
		c1.1,0.5,2,1.2,2.7,2.1c0.7,0.9,1.2,2,1.5,3.2s0.5,2.6,0.5,4.1c0,1.5-0.2,2.9-0.5,4.1c-0.3,1.2-0.8,2.3-1.5,3.2
		c-0.7,0.9-1.6,1.6-2.7,2.1C1054.3,99.3,1052.9,99.6,1051.4,99.6z M1051.5,97.1c1.8,0,3.1-0.7,3.9-2c0.7-1.3,1.1-3.2,1.1-5.7
		c0-2.4-0.4-4.3-1.1-5.6c-0.7-1.3-2-2-3.9-2c-1.8,0-3.1,0.6-3.9,1.9c-0.7,1.3-1.1,3.2-1.1,5.7c0,1.2,0.1,2.3,0.3,3.2
		c0.2,1,0.5,1.8,0.9,2.4c0.4,0.7,0.9,1.2,1.6,1.5C1049.8,96.9,1050.6,97.1,1051.5,97.1z"/>
	<path class="st0" d="M1066.6,99.6c-0.8,0-1.4-0.2-1.8-0.7s-0.6-1.1-0.6-1.9c0-0.8,0.2-1.4,0.6-1.9c0.4-0.5,1-0.7,1.8-0.7
		c0.8,0,1.4,0.2,1.8,0.7c0.4,0.5,0.6,1.1,0.6,1.9c0,0.8-0.2,1.4-0.6,1.9S1067.4,99.6,1066.6,99.6z"/>
	<path class="st0" d="M1100.5,97.3c-0.8,0.6-1.9,1.1-3.3,1.6c-1.4,0.5-2.9,0.7-4.6,0.7c-2.2,0-4-0.3-5.5-1c-1.5-0.7-2.7-1.7-3.6-2.9
		s-1.6-2.8-2-4.5s-0.6-3.7-0.6-5.8c0-2.1,0.2-4,0.7-5.7c0.5-1.7,1.2-3.3,2.1-4.5s2.2-2.3,3.7-3c1.5-0.7,3.2-1.1,5.3-1.1
		c1.5,0,2.9,0.2,4.2,0.6c1.3,0.4,2.3,0.9,3.1,1.4l-1.3,2.5c-0.8-0.5-1.7-0.9-2.7-1.2s-2-0.4-3.2-0.4c-1.1,0-2.1,0.2-3,0.5
		c-1,0.3-1.8,0.9-2.5,1.8c-0.7,0.8-1.3,2-1.7,3.5c-0.4,1.5-0.6,3.4-0.6,5.7c0,3.8,0.6,6.6,1.9,8.5c1.3,1.9,3.2,2.9,6,2.9
		c0.7,0,1.3,0,1.8-0.1s1-0.2,1.5-0.3c0.5-0.1,1-0.3,1.5-0.6c0.5-0.2,1-0.5,1.6-0.8L1100.5,97.3z"/>
	<path class="st0" d="M1111.4,99.6c-1.6,0-3-0.3-4.1-0.8c-1.1-0.5-2-1.2-2.6-2.1s-1.1-2-1.4-3.2c-0.3-1.2-0.4-2.6-0.4-4.1
		c0-1.5,0.2-2.8,0.5-4.1c0.4-1.3,0.9-2.3,1.6-3.2s1.6-1.6,2.7-2.1c1.1-0.5,2.4-0.8,3.8-0.8c1.5,0,2.8,0.3,3.9,0.8
		c1.1,0.5,2,1.2,2.7,2.1c0.7,0.9,1.2,2,1.5,3.2s0.5,2.6,0.5,4.1c0,1.5-0.2,2.9-0.5,4.1c-0.3,1.2-0.8,2.3-1.5,3.2
		c-0.7,0.9-1.6,1.6-2.7,2.1C1114.3,99.3,1113,99.6,1111.4,99.6z M1111.5,97.1c1.8,0,3.1-0.7,3.9-2c0.7-1.3,1.1-3.2,1.1-5.7
		c0-2.4-0.4-4.3-1.1-5.6c-0.7-1.3-2-2-3.9-2c-1.8,0-3.1,0.6-3.9,1.9c-0.7,1.3-1.1,3.2-1.1,5.7c0,1.2,0.1,2.3,0.3,3.2
		c0.2,1,0.5,1.8,0.9,2.4c0.4,0.7,0.9,1.2,1.6,1.5C1109.8,96.9,1110.6,97.1,1111.5,97.1z"/>
	<path class="st0" d="M1125.5,83.8l-1.5-3.2l2.8-1.5l1.6,2.5c1.1-0.9,2.2-1.5,3.2-1.9c1-0.4,2.1-0.6,3.2-0.6c1.3,0,2.3,0.2,3.2,0.6
		s1.5,0.9,2,1.6c0.5,0.7,0.9,1.5,1.1,2.4c0.2,0.9,0.3,1.8,0.3,2.8v12.3h-3.5V86.7c0-1.6-0.3-2.7-1-3.5c-0.6-0.7-1.6-1.1-2.9-1.1
		c-1,0-1.9,0.2-2.8,0.5s-1.6,0.8-2.2,1.3v14.9h-3.5V83.8z"/>
	<path class="st0" d="M1169.2,98.1c-0.6,0.4-1.5,0.7-2.6,1c-1.2,0.3-2.4,0.5-3.6,0.5c-1.7,0-3.2-0.2-4.4-0.7
		c-1.2-0.5-2.1-1.2-2.8-2.1c-0.7-0.9-1.2-2-1.5-3.2c-0.3-1.3-0.4-2.6-0.4-4.2c0-1.4,0.2-2.7,0.5-4c0.3-1.2,0.8-2.3,1.5-3.2
		c0.7-0.9,1.6-1.7,2.6-2.2c1.1-0.5,2.3-0.8,3.8-0.8c1.4,0,2.6,0.3,3.6,0.9c1,0.6,1.8,1.3,2.4,2.3c0.6,0.9,1,2,1.3,3.2
		c0.3,1.2,0.4,2.3,0.4,3.5l-1.3,1.3h-11.3c0.1,2.2,0.6,3.9,1.5,5c0.9,1.1,2.2,1.6,4.1,1.6c1,0,1.9-0.1,2.7-0.3
		c0.9-0.2,1.7-0.5,2.4-0.8L1169.2,98.1z M1166.3,87.9c0-2-0.4-3.6-1.1-4.6c-0.7-1-1.8-1.6-3.3-1.6c-1.6,0-2.7,0.5-3.3,1.6
		c-0.7,1.1-1.1,2.6-1.2,4.5H1166.3z"/>
	<path class="st0" d="M1174.9,73.5h-2.4V71h5.9v27.9h-3.5V73.5z"/>
	<path class="st0" d="M1191.9,83.8l-1.5-3.2l2.9-1.5l1.6,2.4c0.7-0.6,1.4-1.2,2.3-1.6c0.9-0.5,1.9-0.7,3.2-0.7
		c2.6,0,4.6,0.8,5.9,2.5c1.4,1.7,2,4.2,2,7.7c0,1.5-0.2,2.9-0.6,4.2s-1,2.3-1.8,3.2c-0.8,0.9-1.8,1.6-3,2.1
		c-1.2,0.5-2.6,0.7-4.1,0.7c-0.6,0-1.1,0-1.8-0.1s-1.2-0.2-1.7-0.3v8.1h-3.5V83.8z M1195.5,96.5c0.4,0.1,1,0.3,1.7,0.4
		s1.3,0.2,2,0.2c1.9,0,3.3-0.7,4.2-2s1.4-3.2,1.4-5.7c0-2.4-0.3-4.2-1-5.6c-0.7-1.3-1.9-2-3.5-2c-1,0-1.8,0.2-2.4,0.5
		c-0.7,0.3-1.4,0.9-2.2,1.6V96.5z"/>
	<path class="st0" d="M1224.3,97.4c-0.7,0.6-1.6,1.1-2.5,1.6s-2.1,0.7-3.5,0.7c-1.9,0-3.4-0.5-4.5-1.5c-1.1-1-1.7-2.6-1.7-4.7
		c0-1.1,0.2-2.1,0.6-2.8s0.9-1.4,1.7-1.9s1.6-0.9,2.6-1.1c1-0.2,2.1-0.3,3.3-0.3h3.3v-1c0-1.6-0.2-2.7-0.7-3.4c-0.5-0.7-1.4-1-2.8-1
		c-1.8,0-3.7,0.4-5.6,1.1l-0.9-2.4c0.7-0.3,1.7-0.6,2.8-0.9c1.1-0.3,2.5-0.5,4.1-0.5c1.5,0,2.7,0.2,3.5,0.6c0.9,0.4,1.5,1,2,1.7
		c0.4,0.7,0.7,1.5,0.9,2.5s0.2,2,0.2,3.1v8.2l1.6,2.4l-2.5,1.9L1224.3,97.4z M1223.5,89.6h-3c-1.7,0-3,0.3-3.7,0.8
		c-0.7,0.5-1.1,1.5-1.1,2.8c0,1.2,0.3,2.2,0.8,2.8c0.5,0.6,1.3,0.9,2.4,0.9c1.1,0,2.1-0.2,2.9-0.6c0.8-0.4,1.4-0.8,1.8-1.3V89.6z"/>
	<path class="st0" d="M1232.2,95.3c0.6,0.3,1.4,0.7,2.4,1.1c1,0.4,2.1,0.6,3.4,0.6c1.3,0,2.4-0.2,3.2-0.7s1.2-1.2,1.2-2.2
		c0-0.6-0.1-1.1-0.4-1.4c-0.3-0.4-0.6-0.7-1-0.9c-0.4-0.2-0.9-0.4-1.5-0.6c-0.6-0.2-1.2-0.3-1.8-0.5c-0.7-0.2-1.4-0.4-2.1-0.6
		c-0.7-0.3-1.3-0.6-1.9-1c-0.5-0.4-1-0.9-1.3-1.6c-0.3-0.6-0.5-1.4-0.5-2.4c0-0.8,0.1-1.6,0.4-2.3c0.3-0.7,0.7-1.3,1.3-1.8
		c0.6-0.5,1.4-0.9,2.3-1.2c0.9-0.3,2-0.5,3.2-0.5s2.4,0.1,3.4,0.4c1.1,0.3,2,0.6,2.7,1l-1.1,2.3c-1.6-0.9-3.3-1.3-5.1-1.3
		c-1.2,0-2.2,0.2-2.9,0.6c-0.7,0.4-1,1.1-1,2.1c0,0.6,0.1,1,0.3,1.4c0.2,0.4,0.5,0.7,0.9,0.9c0.4,0.2,0.8,0.4,1.4,0.6
		c0.5,0.2,1.1,0.3,1.6,0.5c0.7,0.2,1.4,0.4,2.1,0.6c0.7,0.2,1.4,0.5,2,1c0.6,0.4,1.1,1,1.5,1.6c0.4,0.7,0.6,1.5,0.6,2.6
		c0,1.9-0.6,3.4-1.8,4.4c-1.2,1.1-3.1,1.6-5.6,1.6c-1.7,0-3.1-0.2-4.4-0.6c-1.2-0.4-2.1-0.8-2.7-1.2L1232.2,95.3z"/>
	<path class="st0" d="M1257.9,99.6c-1.6,0-3-0.3-4.1-0.8c-1.1-0.5-2-1.2-2.6-2.1s-1.1-2-1.4-3.2c-0.3-1.2-0.4-2.6-0.4-4.1
		c0-1.5,0.2-2.8,0.5-4.1c0.4-1.3,0.9-2.3,1.6-3.2s1.6-1.6,2.7-2.1c1.1-0.5,2.4-0.8,3.8-0.8c1.5,0,2.8,0.3,3.9,0.8
		c1.1,0.5,2,1.2,2.7,2.1c0.7,0.9,1.2,2,1.5,3.2s0.5,2.6,0.5,4.1c0,1.5-0.2,2.9-0.5,4.1c-0.3,1.2-0.8,2.3-1.5,3.2
		c-0.7,0.9-1.6,1.6-2.7,2.1C1260.8,99.3,1259.4,99.6,1257.9,99.6z M1258,97.1c1.8,0,3.1-0.7,3.9-2c0.7-1.3,1.1-3.2,1.1-5.7
		c0-2.4-0.4-4.3-1.1-5.6c-0.7-1.3-2-2-3.9-2c-1.8,0-3.1,0.6-3.9,1.9c-0.7,1.3-1.1,3.2-1.1,5.7c0,1.2,0.1,2.3,0.3,3.2
		c0.2,1,0.5,1.8,0.9,2.4c0.4,0.7,0.9,1.2,1.6,1.5C1256.3,96.9,1257.1,97.1,1258,97.1z"/>
	<path class="st0" d="M1292,97.5c-0.7,0.6-1.6,1.1-2.5,1.5s-2.1,0.6-3.3,0.6c-2.6,0-4.6-0.8-5.9-2.5s-2-4.2-2-7.7
		c0-1.5,0.2-2.9,0.6-4.2s1-2.3,1.7-3.2s1.7-1.6,2.9-2.1c1.2-0.5,2.5-0.7,4-0.7c0.7,0,1.3,0.1,1.9,0.2c0.6,0.1,1.1,0.2,1.6,0.3v-8.7
		h3.5v24.3l1.6,2.4l-2.5,1.9L1292,97.5z M1291,82.2c-0.4-0.1-0.9-0.2-1.5-0.4c-0.6-0.1-1.3-0.2-2.1-0.2c-1.9,0-3.3,0.7-4.2,2
		c-0.9,1.3-1.3,3.2-1.3,5.7c0,2.4,0.4,4.2,1.1,5.6c0.7,1.3,2,2,3.6,2c1.1,0,1.9-0.2,2.6-0.5c0.7-0.4,1.3-0.8,1.8-1.3V82.2z"/>
	<path class="st0" d="M1315.2,98.1c-0.6,0.4-1.5,0.7-2.6,1c-1.2,0.3-2.4,0.5-3.6,0.5c-1.7,0-3.2-0.2-4.4-0.7
		c-1.2-0.5-2.1-1.2-2.8-2.1c-0.7-0.9-1.2-2-1.5-3.2c-0.3-1.3-0.4-2.6-0.4-4.2c0-1.4,0.2-2.7,0.5-4c0.3-1.2,0.8-2.3,1.5-3.2
		c0.7-0.9,1.6-1.7,2.6-2.2c1.1-0.5,2.3-0.8,3.8-0.8c1.4,0,2.6,0.3,3.6,0.9c1,0.6,1.8,1.3,2.4,2.3c0.6,0.9,1,2,1.3,3.2
		c0.3,1.2,0.4,2.3,0.4,3.5l-1.3,1.3h-11.3c0.1,2.2,0.6,3.9,1.5,5c0.9,1.1,2.2,1.6,4.1,1.6c1,0,1.9-0.1,2.7-0.3
		c0.9-0.2,1.7-0.5,2.4-0.8L1315.2,98.1z M1312.4,87.9c0-2-0.4-3.6-1.1-4.6c-0.7-1-1.8-1.6-3.3-1.6c-1.6,0-2.7,0.5-3.3,1.6
		c-0.7,1.1-1.1,2.6-1.2,4.5H1312.4z"/>
	<path class="st0" d="M94,139.5h-2.4V137h5.9v27.9H94V139.5z"/>
	<path class="st0" d="M111.3,165.6c-1.6,0-3-0.3-4.1-0.8c-1.1-0.5-2-1.2-2.6-2.1c-0.7-0.9-1.1-2-1.4-3.2s-0.4-2.6-0.4-4.1
		c0-1.5,0.2-2.8,0.5-4.1c0.4-1.3,0.9-2.3,1.6-3.2c0.7-0.9,1.6-1.6,2.7-2.1c1.1-0.5,2.4-0.8,3.8-0.8c1.5,0,2.8,0.3,3.9,0.8
		c1.1,0.5,2,1.2,2.7,2.1s1.2,2,1.5,3.2c0.3,1.3,0.5,2.6,0.5,4.1c0,1.5-0.2,2.9-0.5,4.1c-0.3,1.2-0.8,2.3-1.5,3.2
		c-0.7,0.9-1.6,1.6-2.7,2.1C114.2,165.3,112.8,165.6,111.3,165.6z M111.4,163.1c1.8,0,3.1-0.7,3.9-2c0.7-1.3,1.1-3.2,1.1-5.7
		c0-2.4-0.4-4.3-1.1-5.6c-0.7-1.3-2-2-3.9-2c-1.8,0-3.1,0.6-3.9,1.9c-0.7,1.3-1.1,3.2-1.1,5.7c0,1.2,0.1,2.3,0.3,3.2
		c0.2,1,0.5,1.8,0.9,2.4c0.4,0.7,0.9,1.2,1.6,1.5C109.7,162.9,110.5,163.1,111.4,163.1z"/>
	<path class="st0" d="M124.4,161.3c0.6,0.3,1.4,0.7,2.4,1.1c1,0.4,2.1,0.6,3.4,0.6c1.3,0,2.4-0.2,3.2-0.7c0.8-0.5,1.2-1.2,1.2-2.2
		c0-0.6-0.1-1.1-0.4-1.4c-0.3-0.4-0.6-0.7-1-0.9c-0.4-0.2-0.9-0.4-1.5-0.6s-1.2-0.3-1.8-0.5c-0.7-0.2-1.4-0.4-2.1-0.6
		c-0.7-0.3-1.3-0.6-1.9-1c-0.5-0.4-1-0.9-1.3-1.6c-0.3-0.6-0.5-1.4-0.5-2.4c0-0.8,0.1-1.6,0.4-2.3c0.3-0.7,0.7-1.3,1.3-1.8
		c0.6-0.5,1.4-0.9,2.3-1.2c0.9-0.3,2-0.5,3.2-0.5c1.2,0,2.4,0.1,3.4,0.4c1.1,0.3,2,0.6,2.7,1l-1.1,2.3c-1.6-0.9-3.3-1.3-5.1-1.3
		c-1.2,0-2.2,0.2-2.9,0.6c-0.7,0.4-1,1.1-1,2.1c0,0.6,0.1,1,0.3,1.4c0.2,0.4,0.5,0.7,0.9,0.9c0.4,0.2,0.8,0.4,1.4,0.6
		c0.5,0.2,1.1,0.3,1.6,0.5c0.7,0.2,1.4,0.4,2.1,0.6c0.7,0.2,1.4,0.5,2,1c0.6,0.4,1.1,1,1.5,1.6c0.4,0.7,0.6,1.5,0.6,2.6
		c0,1.9-0.6,3.4-1.8,4.4c-1.2,1.1-3.1,1.6-5.6,1.6c-1.7,0-3.1-0.2-4.4-0.6c-1.2-0.4-2.1-0.8-2.7-1.2L124.4,161.3z"/>
	<path class="st0" d="M160.5,163.4c-0.7,0.6-1.6,1.1-2.5,1.6c-0.9,0.5-2.1,0.7-3.5,0.7c-1.9,0-3.4-0.5-4.5-1.5
		c-1.1-1-1.7-2.6-1.7-4.7c0-1.1,0.2-2.1,0.6-2.8c0.4-0.8,0.9-1.4,1.7-1.9c0.7-0.5,1.6-0.9,2.6-1.1c1-0.2,2.1-0.3,3.3-0.3h3.3v-1
		c0-1.6-0.2-2.7-0.7-3.4c-0.5-0.7-1.4-1-2.8-1c-1.8,0-3.7,0.4-5.6,1.1l-0.9-2.4c0.7-0.3,1.7-0.6,2.8-0.9c1.1-0.3,2.5-0.5,4.1-0.5
		c1.5,0,2.7,0.2,3.5,0.6c0.9,0.4,1.5,1,2,1.7c0.4,0.7,0.7,1.5,0.9,2.5c0.1,1,0.2,2,0.2,3.1v8.2l1.6,2.4l-2.5,1.9L160.5,163.4z
		 M159.7,155.6h-3c-1.7,0-3,0.3-3.7,0.8c-0.7,0.5-1.1,1.5-1.1,2.8c0,1.2,0.3,2.2,0.8,2.8c0.5,0.6,1.3,0.9,2.4,0.9
		c1.1,0,2.1-0.2,2.9-0.6s1.4-0.8,1.8-1.3V155.6z"/>
	<path class="st0" d="M169.4,149.8l-1.5-3.2l2.8-1.5l1.6,2.5c1.1-0.9,2.2-1.5,3.2-1.9c1-0.4,2.1-0.6,3.2-0.6c1.3,0,2.3,0.2,3.2,0.6
		c0.8,0.4,1.5,0.9,2,1.6c0.5,0.7,0.9,1.5,1.1,2.4c0.2,0.9,0.3,1.8,0.3,2.8v12.3h-3.5v-12.2c0-1.6-0.3-2.7-1-3.5
		c-0.6-0.7-1.6-1.1-2.9-1.1c-1,0-1.9,0.2-2.8,0.5s-1.6,0.8-2.2,1.3v14.9h-3.5V149.8z M170.6,142.1c0-1.5,0.2-2.7,0.7-3.6
		c0.5-0.9,1.3-1.3,2.5-1.3c0.4,0,0.9,0.1,1.4,0.2c0.5,0.1,1,0.3,1.5,0.5l1.6,0.6c0.5,0.2,1,0.4,1.3,0.5c0.4,0.1,0.7,0.2,1,0.2
		c0.5,0,0.8-0.1,1.1-0.4c0.2-0.3,0.3-0.9,0.3-1.7h2.2c0,3.3-1.1,4.9-3.2,4.9c-0.6,0-1.1-0.1-1.6-0.2c-0.5-0.2-1.1-0.3-1.6-0.5
		l-1.4-0.5c-0.5-0.2-0.9-0.4-1.4-0.5c-0.4-0.1-0.8-0.2-1.2-0.2c-0.5,0-0.8,0.1-1,0.4c-0.2,0.3-0.3,0.8-0.3,1.7H170.6z"/>
	<path class="st0" d="M198.9,165.6c-1.6,0-3-0.3-4.1-0.8c-1.1-0.5-2-1.2-2.6-2.1c-0.7-0.9-1.1-2-1.4-3.2s-0.4-2.6-0.4-4.1
		c0-1.5,0.2-2.8,0.5-4.1c0.4-1.3,0.9-2.3,1.6-3.2c0.7-0.9,1.6-1.6,2.7-2.1c1.1-0.5,2.4-0.8,3.8-0.8c1.5,0,2.8,0.3,3.9,0.8
		c1.1,0.5,2,1.2,2.7,2.1s1.2,2,1.5,3.2c0.3,1.3,0.5,2.6,0.5,4.1c0,1.5-0.2,2.9-0.5,4.1c-0.3,1.2-0.8,2.3-1.5,3.2
		c-0.7,0.9-1.6,1.6-2.7,2.1C201.8,165.3,200.5,165.6,198.9,165.6z M199,163.1c1.8,0,3.1-0.7,3.9-2c0.7-1.3,1.1-3.2,1.1-5.7
		c0-2.4-0.4-4.3-1.1-5.6c-0.7-1.3-2-2-3.9-2c-1.8,0-3.1,0.6-3.9,1.9c-0.7,1.3-1.1,3.2-1.1,5.7c0,1.2,0.1,2.3,0.3,3.2
		c0.2,1,0.5,1.8,0.9,2.4c0.4,0.7,0.9,1.2,1.6,1.5C197.3,162.9,198.1,163.1,199,163.1z"/>
	<path class="st0" d="M212,161.3c0.6,0.3,1.4,0.7,2.4,1.1c1,0.4,2.1,0.6,3.4,0.6c1.3,0,2.4-0.2,3.2-0.7c0.8-0.5,1.2-1.2,1.2-2.2
		c0-0.6-0.1-1.1-0.4-1.4c-0.3-0.4-0.6-0.7-1-0.9c-0.4-0.2-0.9-0.4-1.5-0.6s-1.2-0.3-1.8-0.5c-0.7-0.2-1.4-0.4-2.1-0.6
		c-0.7-0.3-1.3-0.6-1.9-1c-0.5-0.4-1-0.9-1.3-1.6c-0.3-0.6-0.5-1.4-0.5-2.4c0-0.8,0.1-1.6,0.4-2.3c0.3-0.7,0.7-1.3,1.3-1.8
		c0.6-0.5,1.4-0.9,2.3-1.2c0.9-0.3,2-0.5,3.2-0.5c1.2,0,2.4,0.1,3.4,0.4c1.1,0.3,2,0.6,2.7,1l-1.1,2.3c-1.6-0.9-3.3-1.3-5.1-1.3
		c-1.2,0-2.2,0.2-2.9,0.6c-0.7,0.4-1,1.1-1,2.1c0,0.6,0.1,1,0.3,1.4c0.2,0.4,0.5,0.7,0.9,0.9c0.4,0.2,0.8,0.4,1.4,0.6
		c0.5,0.2,1.1,0.3,1.6,0.5c0.7,0.2,1.4,0.4,2.1,0.6c0.7,0.2,1.4,0.5,2,1c0.6,0.4,1.1,1,1.5,1.6c0.4,0.7,0.6,1.5,0.6,2.6
		c0,1.9-0.6,3.4-1.8,4.4c-1.2,1.1-3.1,1.6-5.6,1.6c-1.7,0-3.1-0.2-4.4-0.6c-1.2-0.4-2.1-0.8-2.7-1.2L212,161.3z"/>
	<path class="st0" d="M230,160.9l3.7,0.8l-2.8,8.7l-2.4-0.6L230,160.9z"/>
	<path class="st0" d="M246.1,148.5h-2.7v-2.6h2.7v-2c0-0.9,0.1-1.8,0.3-2.7c0.2-0.8,0.6-1.6,1-2.2c0.5-0.6,1.2-1.1,2-1.5
		s1.9-0.6,3.1-0.6c0.7,0,1.4,0.1,2.1,0.3c0.7,0.2,1.4,0.4,2.1,0.7l-0.9,2.2c-0.3-0.1-0.6-0.3-1.2-0.4c-0.5-0.2-1.1-0.2-1.8-0.2
		c-0.7,0-1.3,0.1-1.7,0.3c-0.4,0.2-0.7,0.6-0.9,1c-0.2,0.4-0.4,0.9-0.4,1.5c-0.1,0.6-0.1,1.3-0.1,2v1.6h5.5v2.6h-5.5v16.5h-3.5
		V148.5z"/>
	<path class="st0" d="M258.4,145.9h3.5v12.4c0,1.5,0.3,2.6,0.9,3.5c0.6,0.8,1.5,1.2,2.9,1.2c1.1,0,2-0.2,2.7-0.5s1.3-0.8,2-1.3
		v-15.2h3.5v15.4l1.6,2.3l-2.5,1.9l-1.7-2.1c-1,0.8-2,1.3-2.9,1.7c-0.9,0.3-2,0.5-3.1,0.5c-1.4,0-2.5-0.2-3.4-0.6
		c-0.9-0.4-1.5-0.9-2-1.6c-0.5-0.7-0.8-1.5-1-2.4c-0.2-0.9-0.3-1.8-0.3-2.8V145.9z"/>
	<path class="st0" d="M294.4,164.1c-0.6,0.4-1.5,0.7-2.6,1s-2.4,0.5-3.6,0.5c-1.7,0-3.2-0.2-4.4-0.7c-1.2-0.5-2.1-1.2-2.8-2.1
		s-1.2-2-1.5-3.2c-0.3-1.3-0.4-2.6-0.4-4.2c0-1.4,0.2-2.7,0.5-4c0.3-1.2,0.8-2.3,1.5-3.2c0.7-0.9,1.6-1.7,2.6-2.2
		c1.1-0.5,2.3-0.8,3.8-0.8c1.4,0,2.6,0.3,3.6,0.9c1,0.6,1.8,1.3,2.4,2.3s1,2,1.3,3.2c0.3,1.2,0.4,2.3,0.4,3.5l-1.3,1.3h-11.3
		c0.1,2.2,0.6,3.9,1.5,5c0.9,1.1,2.2,1.6,4.1,1.6c1,0,1.9-0.1,2.7-0.3c0.9-0.2,1.7-0.5,2.4-0.8L294.4,164.1z M291.6,153.9
		c0-2-0.4-3.6-1.1-4.6c-0.7-1-1.8-1.6-3.3-1.6c-1.6,0-2.7,0.5-3.3,1.6c-0.7,1.1-1.1,2.6-1.2,4.5H291.6z"/>
	<path class="st0" d="M308.6,148.5h-3.5v-2.6h3.6v-5.7h3.4v5.7h5.6v2.6h-5.6v11c0,0.7,0.1,1.3,0.2,1.8c0.1,0.4,0.3,0.8,0.6,1
		c0.2,0.2,0.5,0.4,0.9,0.5c0.3,0.1,0.7,0.1,1.1,0.1c0.4,0,0.9-0.1,1.4-0.2c0.5-0.1,1-0.3,1.5-0.5l0.8,2.3c-0.4,0.2-1,0.4-1.8,0.6
		c-0.8,0.2-1.6,0.3-2.4,0.3c-0.9,0-1.7-0.1-2.4-0.3c-0.7-0.2-1.3-0.5-1.8-0.9c-0.5-0.4-0.9-1-1.1-1.7c-0.3-0.7-0.4-1.6-0.4-2.7
		V148.5z"/>
	<path class="st0" d="M322.5,148.4h-2.4v-2.5h4.9l0.6,2.5c0.3-0.4,0.7-0.7,1-1c0.4-0.3,0.7-0.6,1.2-0.9c0.4-0.2,0.9-0.4,1.5-0.6
		c0.5-0.1,1.2-0.2,1.9-0.2c0.9,0,1.7,0.1,2.4,0.3l-1,3.2c-0.3-0.1-0.6-0.2-1-0.3c-0.4-0.1-0.7-0.1-1.1-0.1c-1.8,0-3.3,0.6-4.4,1.9
		v14.2h-3.5V148.4z"/>
	<path class="st0" d="M347,163.4c-0.7,0.6-1.6,1.1-2.5,1.6c-0.9,0.5-2.1,0.7-3.5,0.7c-1.9,0-3.4-0.5-4.5-1.5c-1.1-1-1.7-2.6-1.7-4.7
		c0-1.1,0.2-2.1,0.6-2.8c0.4-0.8,0.9-1.4,1.7-1.9c0.7-0.5,1.6-0.9,2.6-1.1c1-0.2,2.1-0.3,3.3-0.3h3.3v-1c0-1.6-0.2-2.7-0.7-3.4
		c-0.5-0.7-1.4-1-2.8-1c-1.8,0-3.7,0.4-5.6,1.1l-0.9-2.4c0.7-0.3,1.7-0.6,2.8-0.9c1.1-0.3,2.5-0.5,4.1-0.5c1.5,0,2.7,0.2,3.5,0.6
		c0.9,0.4,1.5,1,2,1.7c0.4,0.7,0.7,1.5,0.9,2.5c0.1,1,0.2,2,0.2,3.1v8.2l1.6,2.4l-2.5,1.9L347,163.4z M346.2,155.6h-3
		c-1.7,0-3,0.3-3.7,0.8c-0.7,0.5-1.1,1.5-1.1,2.8c0,1.2,0.3,2.2,0.8,2.8c0.5,0.6,1.3,0.9,2.4,0.9c1.1,0,2.1-0.2,2.9-0.6
		s1.4-0.8,1.8-1.3V155.6z"/>
	<path class="st0" d="M355.9,149.8l-1.5-3.2l2.8-1.5l1.6,2.5c1.1-0.9,2.2-1.5,3.2-1.9c1-0.4,2.1-0.6,3.2-0.6c1.3,0,2.3,0.2,3.2,0.6
		c0.8,0.4,1.5,0.9,2,1.6c0.5,0.7,0.9,1.5,1.1,2.4c0.2,0.9,0.3,1.8,0.3,2.8v12.3h-3.5v-12.2c0-1.6-0.3-2.7-1-3.5
		c-0.6-0.7-1.6-1.1-2.9-1.1c-1,0-1.9,0.2-2.8,0.5s-1.6,0.8-2.2,1.3v14.9h-3.5V149.8z"/>
	<path class="st0" d="M376.9,161.3c0.6,0.3,1.4,0.7,2.4,1.1c1,0.4,2.1,0.6,3.4,0.6c1.3,0,2.4-0.2,3.2-0.7c0.8-0.5,1.2-1.2,1.2-2.2
		c0-0.6-0.1-1.1-0.4-1.4c-0.3-0.4-0.6-0.7-1-0.9c-0.4-0.2-0.9-0.4-1.5-0.6s-1.2-0.3-1.8-0.5c-0.7-0.2-1.4-0.4-2.1-0.6
		c-0.7-0.3-1.3-0.6-1.9-1c-0.5-0.4-1-0.9-1.3-1.6c-0.3-0.6-0.5-1.4-0.5-2.4c0-0.8,0.1-1.6,0.4-2.3c0.3-0.7,0.7-1.3,1.3-1.8
		c0.6-0.5,1.4-0.9,2.3-1.2c0.9-0.3,2-0.5,3.2-0.5c1.2,0,2.4,0.1,3.4,0.4c1.1,0.3,2,0.6,2.7,1l-1.1,2.3c-1.6-0.9-3.3-1.3-5.1-1.3
		c-1.2,0-2.2,0.2-2.9,0.6c-0.7,0.4-1,1.1-1,2.1c0,0.6,0.1,1,0.3,1.4c0.2,0.4,0.5,0.7,0.9,0.9c0.4,0.2,0.8,0.4,1.4,0.6
		c0.5,0.2,1.1,0.3,1.6,0.5c0.7,0.2,1.4,0.4,2.1,0.6c0.7,0.2,1.4,0.5,2,1c0.6,0.4,1.1,1,1.5,1.6c0.4,0.7,0.6,1.5,0.6,2.6
		c0,1.9-0.6,3.4-1.8,4.4c-1.2,1.1-3.1,1.6-5.6,1.6c-1.7,0-3.1-0.2-4.4-0.6c-1.2-0.4-2.1-0.8-2.7-1.2L376.9,161.3z"/>
	<path class="st0" d="M395.7,148.5H393v-2.6h2.7v-2c0-0.9,0.1-1.8,0.3-2.7c0.2-0.8,0.6-1.6,1-2.2c0.5-0.6,1.2-1.1,2-1.5
		s1.9-0.6,3.1-0.6c0.7,0,1.4,0.1,2.1,0.3c0.7,0.2,1.4,0.4,2.1,0.7l-0.9,2.2c-0.3-0.1-0.6-0.3-1.2-0.4c-0.5-0.2-1.1-0.2-1.8-0.2
		c-0.7,0-1.3,0.1-1.7,0.3c-0.4,0.2-0.7,0.6-0.9,1c-0.2,0.4-0.4,0.9-0.4,1.5c-0.1,0.6-0.1,1.3-0.1,2v1.6h5.5v2.6h-5.5v16.5h-3.5
		V148.5z"/>
	<path class="st0" d="M415.2,165.6c-1.6,0-3-0.3-4.1-0.8c-1.1-0.5-2-1.2-2.6-2.1c-0.7-0.9-1.1-2-1.4-3.2s-0.4-2.6-0.4-4.1
		c0-1.5,0.2-2.8,0.5-4.1c0.4-1.3,0.9-2.3,1.6-3.2c0.7-0.9,1.6-1.6,2.7-2.1c1.1-0.5,2.4-0.8,3.8-0.8c1.5,0,2.8,0.3,3.9,0.8
		c1.1,0.5,2,1.2,2.7,2.1s1.2,2,1.5,3.2c0.3,1.3,0.5,2.6,0.5,4.1c0,1.5-0.2,2.9-0.5,4.1c-0.3,1.2-0.8,2.3-1.5,3.2
		c-0.7,0.9-1.6,1.6-2.7,2.1C418.1,165.3,416.8,165.6,415.2,165.6z M415.3,163.1c1.8,0,3.1-0.7,3.9-2c0.7-1.3,1.1-3.2,1.1-5.7
		c0-2.4-0.4-4.3-1.1-5.6c-0.7-1.3-2-2-3.9-2c-1.8,0-3.1,0.6-3.9,1.9c-0.7,1.3-1.1,3.2-1.1,5.7c0,1.2,0.1,2.3,0.3,3.2
		c0.2,1,0.5,1.8,0.9,2.4c0.4,0.7,0.9,1.2,1.6,1.5C413.6,162.9,414.4,163.1,415.3,163.1z"/>
	<path class="st0" d="M429.5,148.4h-2.4v-2.5h4.9l0.6,2.5c0.3-0.4,0.7-0.7,1-1c0.4-0.3,0.7-0.6,1.2-0.9c0.4-0.2,0.9-0.4,1.5-0.6
		c0.5-0.1,1.2-0.2,1.9-0.2c0.9,0,1.7,0.1,2.4,0.3l-1,3.2c-0.3-0.1-0.6-0.2-1-0.3c-0.4-0.1-0.7-0.1-1.1-0.1c-1.8,0-3.3,0.6-4.4,1.9
		v14.2h-3.5V148.4z"/>
	<path class="st0" d="M443.9,149.8l-1.5-3.2l2.8-1.5l1.6,2.5c1-0.9,2-1.6,3-1.9c1-0.3,1.9-0.5,2.7-0.5c1.4,0,2.4,0.2,3.1,0.6
		c0.7,0.4,1.3,1,1.8,1.8c1.1-1,2.2-1.6,3.3-2c1.1-0.3,2-0.5,2.7-0.5c1.3,0,2.3,0.2,3.1,0.6c0.8,0.4,1.4,0.9,1.8,1.6
		c0.4,0.7,0.7,1.5,0.8,2.4c0.1,0.9,0.2,1.8,0.2,2.8v12.3h-3.5v-12.4c0-1.5-0.2-2.6-0.7-3.3c-0.4-0.7-1.3-1-2.6-1
		c-0.7,0-1.5,0.1-2.3,0.4c-0.8,0.3-1.5,0.7-2.3,1.3c0.1,0.4,0.1,0.8,0.1,1.3c0,0.5,0.1,0.9,0.1,1.3v12.3H455v-12.5
		c0-1.4-0.2-2.5-0.7-3.2c-0.4-0.7-1.3-1-2.6-1c-0.7,0-1.4,0.1-2.2,0.4c-0.7,0.3-1.4,0.7-2.1,1.3v15h-3.5V149.8z"/>
	<path class="st0" d="M486.5,163.4c-0.7,0.6-1.6,1.1-2.5,1.6c-0.9,0.5-2.1,0.7-3.5,0.7c-1.9,0-3.4-0.5-4.5-1.5
		c-1.1-1-1.7-2.6-1.7-4.7c0-1.1,0.2-2.1,0.6-2.8c0.4-0.8,0.9-1.4,1.7-1.9c0.7-0.5,1.6-0.9,2.6-1.1c1-0.2,2.1-0.3,3.3-0.3h3.3v-1
		c0-1.6-0.2-2.7-0.7-3.4c-0.5-0.7-1.4-1-2.8-1c-1.8,0-3.7,0.4-5.6,1.1l-0.9-2.4c0.7-0.3,1.7-0.6,2.8-0.9c1.1-0.3,2.5-0.5,4.1-0.5
		c1.5,0,2.7,0.2,3.5,0.6c0.9,0.4,1.5,1,2,1.7c0.4,0.7,0.7,1.5,0.9,2.5c0.1,1,0.2,2,0.2,3.1v8.2l1.6,2.4l-2.5,1.9L486.5,163.4z
		 M485.7,155.6h-3c-1.7,0-3,0.3-3.7,0.8c-0.7,0.5-1.1,1.5-1.1,2.8c0,1.2,0.3,2.2,0.8,2.8c0.5,0.6,1.3,0.9,2.4,0.9
		c1.1,0,2.1-0.2,2.9-0.6s1.4-0.8,1.8-1.3V155.6z M484.3,134.7l2.8,1.9l-5.4,6.2l-1.7-1.3L484.3,134.7z"/>
	<path class="st0" d="M495.3,149.8l-1.5-3.2l2.8-1.5l1.6,2.5c1.1-0.9,2.2-1.5,3.2-1.9c1-0.4,2.1-0.6,3.2-0.6c1.3,0,2.3,0.2,3.2,0.6
		c0.8,0.4,1.5,0.9,2,1.6c0.5,0.7,0.9,1.5,1.1,2.4c0.2,0.9,0.3,1.8,0.3,2.8v12.3h-3.5v-12.2c0-1.6-0.3-2.7-1-3.5
		c-0.6-0.7-1.6-1.1-2.9-1.1c-1,0-1.9,0.2-2.8,0.5s-1.6,0.8-2.2,1.3v14.9h-3.5V149.8z"/>
	<path class="st0" d="M530,163.5c-0.7,0.6-1.6,1.1-2.5,1.5c-0.9,0.4-2.1,0.6-3.3,0.6c-2.6,0-4.6-0.8-5.9-2.5c-1.3-1.7-2-4.2-2-7.7
		c0-1.5,0.2-2.9,0.6-4.2c0.4-1.3,1-2.3,1.7-3.2c0.8-0.9,1.7-1.6,2.9-2.1c1.2-0.5,2.5-0.7,4-0.7c0.7,0,1.3,0.1,1.9,0.2
		c0.6,0.1,1.1,0.2,1.6,0.3v-8.7h3.5v24.3l1.6,2.4l-2.5,1.9L530,163.5z M529.1,148.2c-0.4-0.1-0.9-0.2-1.5-0.4s-1.3-0.2-2.1-0.2
		c-1.9,0-3.3,0.7-4.2,2c-0.9,1.3-1.3,3.2-1.3,5.7c0,2.4,0.4,4.2,1.1,5.6c0.7,1.3,2,2,3.6,2c1.1,0,1.9-0.2,2.6-0.5s1.3-0.8,1.8-1.3
		V148.2z"/>
	<path class="st0" d="M546.5,165.6c-1.6,0-3-0.3-4.1-0.8c-1.1-0.5-2-1.2-2.6-2.1c-0.7-0.9-1.1-2-1.4-3.2s-0.4-2.6-0.4-4.1
		c0-1.5,0.2-2.8,0.5-4.1c0.4-1.3,0.9-2.3,1.6-3.2c0.7-0.9,1.6-1.6,2.7-2.1c1.1-0.5,2.4-0.8,3.8-0.8c1.5,0,2.8,0.3,3.9,0.8
		c1.1,0.5,2,1.2,2.7,2.1s1.2,2,1.5,3.2c0.3,1.3,0.5,2.6,0.5,4.1c0,1.5-0.2,2.9-0.5,4.1c-0.3,1.2-0.8,2.3-1.5,3.2
		c-0.7,0.9-1.6,1.6-2.7,2.1C549.4,165.3,548.1,165.6,546.5,165.6z M546.6,163.1c1.8,0,3.1-0.7,3.9-2c0.7-1.3,1.1-3.2,1.1-5.7
		c0-2.4-0.4-4.3-1.1-5.6c-0.7-1.3-2-2-3.9-2c-1.8,0-3.1,0.6-3.9,1.9c-0.7,1.3-1.1,3.2-1.1,5.7c0,1.2,0.1,2.3,0.3,3.2
		c0.2,1,0.5,1.8,0.9,2.4c0.4,0.7,0.9,1.2,1.6,1.5C544.9,162.9,545.7,163.1,546.6,163.1z"/>
	<path class="st0" d="M559.6,161.3c0.6,0.3,1.4,0.7,2.4,1.1c1,0.4,2.1,0.6,3.4,0.6c1.3,0,2.4-0.2,3.2-0.7c0.8-0.5,1.2-1.2,1.2-2.2
		c0-0.6-0.1-1.1-0.4-1.4c-0.3-0.4-0.6-0.7-1-0.9c-0.4-0.2-0.9-0.4-1.5-0.6s-1.2-0.3-1.8-0.5c-0.7-0.2-1.4-0.4-2.1-0.6
		c-0.7-0.3-1.3-0.6-1.9-1c-0.5-0.4-1-0.9-1.3-1.6c-0.3-0.6-0.5-1.4-0.5-2.4c0-0.8,0.1-1.6,0.4-2.3c0.3-0.7,0.7-1.3,1.3-1.8
		c0.6-0.5,1.4-0.9,2.3-1.2c0.9-0.3,2-0.5,3.2-0.5c1.2,0,2.4,0.1,3.4,0.4c1.1,0.3,2,0.6,2.7,1l-1.1,2.3c-1.6-0.9-3.3-1.3-5.1-1.3
		c-1.2,0-2.2,0.2-2.9,0.6c-0.7,0.4-1,1.1-1,2.1c0,0.6,0.1,1,0.3,1.4c0.2,0.4,0.5,0.7,0.9,0.9c0.4,0.2,0.8,0.4,1.4,0.6
		c0.5,0.2,1.1,0.3,1.6,0.5c0.7,0.2,1.4,0.4,2.1,0.6c0.7,0.2,1.4,0.5,2,1c0.6,0.4,1.1,1,1.5,1.6c0.4,0.7,0.6,1.5,0.6,2.6
		c0,1.9-0.6,3.4-1.8,4.4c-1.2,1.1-3.1,1.6-5.6,1.6c-1.7,0-3.1-0.2-4.4-0.6c-1.2-0.4-2.1-0.8-2.7-1.2L559.6,161.3z"/>
	<path class="st0" d="M592.1,164.1c-0.6,0.4-1.5,0.7-2.6,1s-2.4,0.5-3.6,0.5c-1.7,0-3.2-0.2-4.4-0.7c-1.2-0.5-2.1-1.2-2.8-2.1
		s-1.2-2-1.5-3.2c-0.3-1.3-0.4-2.6-0.4-4.2c0-1.4,0.2-2.7,0.5-4c0.3-1.2,0.8-2.3,1.5-3.2c0.7-0.9,1.6-1.7,2.6-2.2
		c1.1-0.5,2.3-0.8,3.8-0.8c1.4,0,2.6,0.3,3.6,0.9c1,0.6,1.8,1.3,2.4,2.3s1,2,1.3,3.2c0.3,1.2,0.4,2.3,0.4,3.5l-1.3,1.3h-11.3
		c0.1,2.2,0.6,3.9,1.5,5c0.9,1.1,2.2,1.6,4.1,1.6c1,0,1.9-0.1,2.7-0.3c0.9-0.2,1.7-0.5,2.4-0.8L592.1,164.1z M589.2,153.9
		c0-2-0.4-3.6-1.1-4.6c-0.7-1-1.8-1.6-3.3-1.6c-1.6,0-2.7,0.5-3.3,1.6c-0.7,1.1-1.1,2.6-1.2,4.5H589.2z"/>
	<path class="st0" d="M619.6,164.1c-0.6,0.4-1.5,0.7-2.6,1s-2.4,0.5-3.6,0.5c-1.7,0-3.2-0.2-4.4-0.7c-1.2-0.5-2.1-1.2-2.8-2.1
		s-1.2-2-1.5-3.2c-0.3-1.3-0.4-2.6-0.4-4.2c0-1.4,0.2-2.7,0.5-4c0.3-1.2,0.8-2.3,1.5-3.2c0.7-0.9,1.6-1.7,2.6-2.2
		c1.1-0.5,2.3-0.8,3.8-0.8c1.4,0,2.6,0.3,3.6,0.9c1,0.6,1.8,1.3,2.4,2.3s1,2,1.3,3.2c0.3,1.2,0.4,2.3,0.4,3.5l-1.3,1.3h-11.3
		c0.1,2.2,0.6,3.9,1.5,5c0.9,1.1,2.2,1.6,4.1,1.6c1,0,1.9-0.1,2.7-0.3c0.9-0.2,1.7-0.5,2.4-0.8L619.6,164.1z M616.7,153.9
		c0-2-0.4-3.6-1.1-4.6c-0.7-1-1.8-1.6-3.3-1.6c-1.6,0-2.7,0.5-3.3,1.6c-0.7,1.1-1.1,2.6-1.2,4.5H616.7z"/>
	<path class="st0" d="M625.4,149.8l-1.5-3.2l2.8-1.5l1.6,2.5c1.1-0.9,2.2-1.5,3.2-1.9c1-0.4,2.1-0.6,3.2-0.6c1.3,0,2.3,0.2,3.2,0.6
		c0.8,0.4,1.5,0.9,2,1.6c0.5,0.7,0.9,1.5,1.1,2.4c0.2,0.9,0.3,1.8,0.3,2.8v12.3h-3.5v-12.2c0-1.6-0.3-2.7-1-3.5
		c-0.6-0.7-1.6-1.1-2.9-1.1c-1,0-1.9,0.2-2.8,0.5s-1.6,0.8-2.2,1.3v14.9h-3.5V149.8z"/>
	<path class="st0" d="M654.3,145.9h3.5v12.4c0,1.5,0.3,2.6,0.9,3.5c0.6,0.8,1.5,1.2,2.9,1.2c1.1,0,2-0.2,2.7-0.5s1.3-0.8,2-1.3
		v-15.2h3.5v15.4l1.6,2.3l-2.5,1.9l-1.7-2.1c-1,0.8-2,1.3-2.9,1.7c-0.9,0.3-2,0.5-3.1,0.5c-1.4,0-2.5-0.2-3.4-0.6
		c-0.9-0.4-1.5-0.9-2-1.6c-0.5-0.7-0.8-1.5-1-2.4c-0.2-0.9-0.3-1.8-0.3-2.8V145.9z"/>
	<path class="st0" d="M676,149.8l-1.5-3.2l2.8-1.5l1.6,2.5c1.1-0.9,2.2-1.5,3.2-1.9c1-0.4,2.1-0.6,3.2-0.6c1.3,0,2.3,0.2,3.2,0.6
		s1.5,0.9,2,1.6c0.5,0.7,0.9,1.5,1.1,2.4c0.2,0.9,0.3,1.8,0.3,2.8v12.3h-3.5v-12.2c0-1.6-0.3-2.7-1-3.5c-0.6-0.7-1.6-1.1-2.9-1.1
		c-1,0-1.9,0.2-2.8,0.5s-1.6,0.8-2.2,1.3v14.9H676V149.8z"/>
	<path class="st0" d="M702.2,146.1l3.6-0.6l5,16.4c0.1,0.5,0.2,0.8,0.4,1c0.1,0.2,0.3,0.3,0.6,0.3c0.3,0,0.5-0.1,0.6-0.3
		c0.1-0.2,0.2-0.5,0.4-1l4.9-16.4l3,0.6l-4.9,15.7c-0.4,1.2-0.9,2.2-1.5,2.9c-0.6,0.7-1.5,1-2.5,1c-0.7,0-1.3-0.1-1.8-0.2
		c-0.5-0.2-0.9-0.4-1.3-0.7c-0.3-0.3-0.6-0.7-0.9-1.2c-0.2-0.5-0.4-1.1-0.6-1.7L702.2,146.1z"/>
	<path class="st0" d="M738.2,164.1c-0.6,0.4-1.5,0.7-2.6,1c-1.2,0.3-2.4,0.5-3.6,0.5c-1.7,0-3.2-0.2-4.4-0.7
		c-1.2-0.5-2.1-1.2-2.8-2.1c-0.7-0.9-1.2-2-1.5-3.2c-0.3-1.3-0.4-2.6-0.4-4.2c0-1.4,0.2-2.7,0.5-4c0.3-1.2,0.8-2.3,1.5-3.2
		c0.7-0.9,1.6-1.7,2.6-2.2c1.1-0.5,2.3-0.8,3.8-0.8c1.4,0,2.6,0.3,3.6,0.9c1,0.6,1.8,1.3,2.4,2.3c0.6,0.9,1,2,1.3,3.2
		c0.3,1.2,0.4,2.3,0.4,3.5l-1.3,1.3h-11.3c0.1,2.2,0.6,3.9,1.5,5c0.9,1.1,2.2,1.6,4.1,1.6c1,0,1.9-0.1,2.7-0.3
		c0.9-0.2,1.7-0.5,2.4-0.8L738.2,164.1z M735.4,153.9c0-2-0.4-3.6-1.1-4.6c-0.7-1-1.8-1.6-3.3-1.6c-1.6,0-2.7,0.5-3.3,1.6
		c-0.7,1.1-1.1,2.6-1.2,4.5H735.4z"/>
	<path class="st0" d="M744,136.9h3.5v10.4c0.9-0.7,1.8-1.2,2.8-1.6c1-0.4,2-0.6,3-0.6c1.3,0,2.3,0.2,3.2,0.6s1.5,0.9,2,1.6
		c0.5,0.7,0.9,1.5,1.1,2.4c0.2,0.9,0.3,1.8,0.3,2.8v12.3h-3.5v-12.2c0-1.6-0.3-2.7-1-3.5c-0.7-0.7-1.6-1.1-2.9-1.1
		c-1,0-2,0.2-2.8,0.5c-0.8,0.4-1.6,0.8-2.3,1.3v14.9H744V136.9z"/>
	<path class="st0" d="M766.2,148.4h-2.4v-2.5h6v19h-3.5V148.4z M769,134.7l2.8,1.9l-5.4,6.2l-1.7-1.3L769,134.7z"/>
	<path class="st0" d="M790,164.1c-0.7,0.4-1.5,0.7-2.6,1c-1,0.3-2.2,0.5-3.6,0.5c-1.7,0-3.2-0.2-4.3-0.7c-1.1-0.5-2.1-1.2-2.7-2.1
		c-0.7-0.9-1.2-1.9-1.5-3.2c-0.3-1.2-0.4-2.6-0.4-4.1c0-1.5,0.2-2.8,0.5-4.1c0.4-1.3,0.9-2.4,1.7-3.3c0.7-0.9,1.7-1.7,2.8-2.2
		c1.2-0.5,2.5-0.8,4.2-0.8c1.2,0,2.2,0.2,3.2,0.5c1,0.3,1.8,0.7,2.5,1.1l-1.1,2.4c-0.7-0.4-1.4-0.7-2.2-0.9
		c-0.8-0.2-1.6-0.4-2.6-0.4c-1.9,0-3.2,0.6-4.1,1.9s-1.3,3.2-1.3,5.8c0,1.1,0.1,2.2,0.3,3.1c0.2,0.9,0.5,1.7,0.9,2.3
		c0.4,0.6,1,1.1,1.7,1.5c0.7,0.3,1.6,0.5,2.6,0.5c0.8,0,1.6-0.1,2.3-0.2c0.7-0.2,1.5-0.5,2.5-0.9L790,164.1z"/>
	<path class="st0" d="M793.5,145.9h3.5v12.4c0,1.5,0.3,2.6,0.9,3.5c0.6,0.8,1.5,1.2,2.9,1.2c1.1,0,2-0.2,2.7-0.5
		c0.7-0.4,1.3-0.8,2-1.3v-15.2h3.5v15.4l1.6,2.3l-2.5,1.9l-1.7-2.1c-1,0.8-2,1.3-2.9,1.7c-1,0.3-2,0.5-3.1,0.5
		c-1.4,0-2.5-0.2-3.4-0.6s-1.5-0.9-2-1.6c-0.5-0.7-0.8-1.5-1-2.4c-0.2-0.9-0.3-1.8-0.3-2.8V145.9z"/>
	<path class="st0" d="M815,139.5h-2.4V137h5.9v27.9H815V139.5z"/>
	<path class="st0" d="M832.3,165.6c-1.6,0-3-0.3-4.1-0.8c-1.1-0.5-2-1.2-2.6-2.1s-1.1-2-1.4-3.2c-0.3-1.2-0.4-2.6-0.4-4.1
		c0-1.5,0.2-2.8,0.5-4.1c0.4-1.3,0.9-2.3,1.6-3.2s1.6-1.6,2.7-2.1c1.1-0.5,2.4-0.8,3.8-0.8c1.5,0,2.8,0.3,3.9,0.8
		c1.1,0.5,2,1.2,2.7,2.1c0.7,0.9,1.2,2,1.5,3.2s0.5,2.6,0.5,4.1c0,1.5-0.2,2.9-0.5,4.1c-0.3,1.2-0.8,2.3-1.5,3.2
		c-0.7,0.9-1.6,1.6-2.7,2.1C835.2,165.3,833.9,165.6,832.3,165.6z M832.4,163.1c1.8,0,3.1-0.7,3.9-2c0.7-1.3,1.1-3.2,1.1-5.7
		c0-2.4-0.4-4.3-1.1-5.6c-0.7-1.3-2-2-3.9-2c-1.8,0-3.1,0.6-3.9,1.9c-0.7,1.3-1.1,3.2-1.1,5.7c0,1.2,0.1,2.3,0.3,3.2
		c0.2,1,0.5,1.8,0.9,2.4c0.4,0.7,0.9,1.2,1.6,1.5C830.7,162.9,831.5,163.1,832.4,163.1z"/>
	<path class="st0" d="M866.4,163.5c-0.7,0.6-1.6,1.1-2.5,1.5s-2.1,0.6-3.3,0.6c-2.6,0-4.6-0.8-5.9-2.5s-2-4.2-2-7.7
		c0-1.5,0.2-2.9,0.6-4.2s1-2.3,1.7-3.2s1.7-1.6,2.9-2.1c1.2-0.5,2.5-0.7,4-0.7c0.7,0,1.3,0.1,1.9,0.2c0.6,0.1,1.1,0.2,1.6,0.3v-8.7
		h3.5v24.3l1.6,2.4l-2.5,1.9L866.4,163.5z M865.4,148.2c-0.4-0.1-0.9-0.2-1.5-0.4c-0.6-0.1-1.3-0.2-2.1-0.2c-1.9,0-3.3,0.7-4.2,2
		c-0.9,1.3-1.3,3.2-1.3,5.7c0,2.4,0.4,4.2,1.1,5.6c0.7,1.3,2,2,3.6,2c1.1,0,1.9-0.2,2.6-0.5c0.7-0.4,1.3-0.8,1.8-1.3V148.2z"/>
	<path class="st0" d="M889.6,164.1c-0.6,0.4-1.5,0.7-2.6,1c-1.2,0.3-2.4,0.5-3.6,0.5c-1.7,0-3.2-0.2-4.4-0.7
		c-1.2-0.5-2.1-1.2-2.8-2.1c-0.7-0.9-1.2-2-1.5-3.2c-0.3-1.3-0.4-2.6-0.4-4.2c0-1.4,0.2-2.7,0.5-4c0.3-1.2,0.8-2.3,1.5-3.2
		c0.7-0.9,1.6-1.7,2.6-2.2c1.1-0.5,2.3-0.8,3.8-0.8c1.4,0,2.6,0.3,3.6,0.9c1,0.6,1.8,1.3,2.4,2.3c0.6,0.9,1,2,1.3,3.2
		c0.3,1.2,0.4,2.3,0.4,3.5l-1.3,1.3h-11.3c0.1,2.2,0.6,3.9,1.5,5c0.9,1.1,2.2,1.6,4.1,1.6c1,0,1.9-0.1,2.7-0.3
		c0.9-0.2,1.7-0.5,2.4-0.8L889.6,164.1z M886.8,153.9c0-2-0.4-3.6-1.1-4.6c-0.7-1-1.8-1.6-3.3-1.6c-1.6,0-2.7,0.5-3.3,1.6
		c-0.7,1.1-1.1,2.6-1.2,4.5H886.8z"/>
	<path class="st0" d="M902.7,139.5h-2.4V137h5.9v27.9h-3.5V139.5z"/>
	<path class="st0" d="M911.9,145.9h3.5v12.4c0,1.5,0.3,2.6,0.9,3.5c0.6,0.8,1.5,1.2,2.9,1.2c1.1,0,2-0.2,2.7-0.5
		c0.7-0.4,1.3-0.8,2-1.3v-15.2h3.5v15.4l1.6,2.3l-2.5,1.9l-1.7-2.1c-1,0.8-2,1.3-2.9,1.7c-1,0.3-2,0.5-3.1,0.5
		c-1.4,0-2.5-0.2-3.4-0.6s-1.5-0.9-2-1.6c-0.5-0.7-0.8-1.5-1-2.4c-0.2-0.9-0.3-1.8-0.3-2.8V145.9z"/>
	<path class="st0" d="M927.4,170.1c0.5,0.2,1,0.3,1.5,0.5s1.1,0.2,1.8,0.2c0.7,0,1.3-0.2,1.7-0.5c0.4-0.3,0.7-0.7,0.9-1.2
		c0.2-0.5,0.3-1,0.4-1.7c0-0.6,0.1-1.2,0.1-1.7v-19.9h3.5v20.5c0,0.9-0.1,1.8-0.3,2.6c-0.2,0.8-0.5,1.6-1,2.3s-1.1,1.2-1.9,1.6
		c-0.8,0.4-1.8,0.6-3.1,0.6c-0.6,0-1.4-0.1-2.2-0.3c-0.9-0.2-1.6-0.4-2.2-0.7L927.4,170.1z M935.4,142.2c-0.8,0-1.3-0.2-1.7-0.7
		c-0.4-0.5-0.6-1.1-0.6-1.7c0-0.7,0.2-1.3,0.6-1.8c0.4-0.5,1-0.7,1.7-0.7c0.8,0,1.4,0.2,1.8,0.7c0.4,0.5,0.6,1.1,0.6,1.8
		c0,0.7-0.2,1.3-0.6,1.7C936.8,142,936.2,142.2,935.4,142.2z"/>
	<path class="st0" d="M951,165.6c-1.6,0-3-0.3-4.1-0.8c-1.1-0.5-2-1.2-2.6-2.1s-1.1-2-1.4-3.2c-0.3-1.2-0.4-2.6-0.4-4.1
		c0-1.5,0.2-2.8,0.5-4.1c0.4-1.3,0.9-2.3,1.6-3.2s1.6-1.6,2.7-2.1c1.1-0.5,2.4-0.8,3.8-0.8c1.5,0,2.8,0.3,3.9,0.8
		c1.1,0.5,2,1.2,2.7,2.1c0.7,0.9,1.2,2,1.5,3.2s0.5,2.6,0.5,4.1c0,1.5-0.2,2.9-0.5,4.1c-0.3,1.2-0.8,2.3-1.5,3.2
		c-0.7,0.9-1.6,1.6-2.7,2.1C953.9,165.3,952.5,165.6,951,165.6z M951.1,163.1c1.8,0,3.1-0.7,3.9-2c0.7-1.3,1.1-3.2,1.1-5.7
		c0-2.4-0.4-4.3-1.1-5.6c-0.7-1.3-2-2-3.9-2c-1.8,0-3.1,0.6-3.9,1.9c-0.7,1.3-1.1,3.2-1.1,5.7c0,1.2,0.1,2.3,0.3,3.2
		c0.2,1,0.5,1.8,0.9,2.4c0.4,0.7,0.9,1.2,1.6,1.5C949.4,162.9,950.2,163.1,951.1,163.1z"/>
	<path class="st0" d="M986.4,164.1c-0.7,0.4-1.5,0.7-2.6,1c-1,0.3-2.2,0.5-3.6,0.5c-1.7,0-3.2-0.2-4.3-0.7c-1.1-0.5-2.1-1.2-2.7-2.1
		c-0.7-0.9-1.2-1.9-1.5-3.2c-0.3-1.2-0.4-2.6-0.4-4.1c0-1.5,0.2-2.8,0.5-4.1c0.4-1.3,0.9-2.4,1.7-3.3c0.7-0.9,1.7-1.7,2.8-2.2
		c1.2-0.5,2.5-0.8,4.2-0.8c1.2,0,2.2,0.2,3.2,0.5c1,0.3,1.8,0.7,2.5,1.1l-1.1,2.4c-0.7-0.4-1.4-0.7-2.2-0.9
		c-0.8-0.2-1.6-0.4-2.6-0.4c-1.9,0-3.2,0.6-4.1,1.9s-1.3,3.2-1.3,5.8c0,1.1,0.1,2.2,0.3,3.1c0.2,0.9,0.5,1.7,0.9,2.3
		c0.4,0.6,1,1.1,1.7,1.5c0.7,0.3,1.6,0.5,2.6,0.5c0.8,0,1.6-0.1,2.3-0.2c0.7-0.2,1.5-0.5,2.5-0.9L986.4,164.1z"/>
	<path class="st0" d="M997.4,165.6c-1.6,0-3-0.3-4.1-0.8c-1.1-0.5-2-1.2-2.6-2.1s-1.1-2-1.4-3.2c-0.3-1.2-0.4-2.6-0.4-4.1
		c0-1.5,0.2-2.8,0.5-4.1c0.4-1.3,0.9-2.3,1.6-3.2s1.6-1.6,2.7-2.1c1.1-0.5,2.4-0.8,3.8-0.8c1.5,0,2.8,0.3,3.9,0.8
		c1.1,0.5,2,1.2,2.7,2.1c0.7,0.9,1.2,2,1.5,3.2s0.5,2.6,0.5,4.1c0,1.5-0.2,2.9-0.5,4.1c-0.3,1.2-0.8,2.3-1.5,3.2
		c-0.7,0.9-1.6,1.6-2.7,2.1C1000.3,165.3,999,165.6,997.4,165.6z M997.5,163.1c1.8,0,3.1-0.7,3.9-2c0.7-1.3,1.1-3.2,1.1-5.7
		c0-2.4-0.4-4.3-1.1-5.6c-0.7-1.3-2-2-3.9-2c-1.8,0-3.1,0.6-3.9,1.9c-0.7,1.3-1.1,3.2-1.1,5.7c0,1.2,0.1,2.3,0.3,3.2
		c0.2,1,0.5,1.8,0.9,2.4c0.4,0.7,0.9,1.2,1.6,1.5C995.8,162.9,996.6,163.1,997.5,163.1z"/>
	<path class="st0" d="M1011.5,149.8l-1.5-3.2l2.8-1.5l1.6,2.5c1.1-0.9,2.2-1.5,3.2-1.9c1-0.4,2.1-0.6,3.2-0.6c1.3,0,2.3,0.2,3.2,0.6
		c0.8,0.4,1.5,0.9,2,1.6c0.5,0.7,0.9,1.5,1.1,2.4c0.2,0.9,0.3,1.8,0.3,2.8v12.3h-3.5v-12.2c0-1.6-0.3-2.7-1-3.5
		c-0.6-0.7-1.6-1.1-2.9-1.1c-1,0-1.9,0.2-2.8,0.5s-1.6,0.8-2.2,1.3v14.9h-3.5V149.8z"/>
	<path class="st0" d="M1055.1,164.1c-0.6,0.4-1.5,0.7-2.6,1c-1.2,0.3-2.4,0.5-3.6,0.5c-1.7,0-3.2-0.2-4.4-0.7
		c-1.2-0.5-2.1-1.2-2.8-2.1c-0.7-0.9-1.2-2-1.5-3.2c-0.3-1.3-0.4-2.6-0.4-4.2c0-1.4,0.2-2.7,0.5-4c0.3-1.2,0.8-2.3,1.5-3.2
		c0.7-0.9,1.6-1.7,2.6-2.2c1.1-0.5,2.3-0.8,3.8-0.8c1.4,0,2.6,0.3,3.6,0.9c1,0.6,1.8,1.3,2.4,2.3c0.6,0.9,1,2,1.3,3.2
		c0.3,1.2,0.4,2.3,0.4,3.5l-1.3,1.3h-11.3c0.1,2.2,0.6,3.9,1.5,5c0.9,1.1,2.2,1.6,4.1,1.6c1,0,1.9-0.1,2.7-0.3
		c0.9-0.2,1.7-0.5,2.4-0.8L1055.1,164.1z M1052.3,153.9c0-2-0.4-3.6-1.1-4.6c-0.7-1-1.8-1.6-3.3-1.6c-1.6,0-2.7,0.5-3.3,1.6
		c-0.7,1.1-1.1,2.6-1.2,4.5H1052.3z"/>
	<path class="st0" d="M1060.8,139.5h-2.4V137h5.9v27.9h-3.5V139.5z"/>
	<path class="st0" d="M1088.6,163.4c-0.7,0.6-1.6,1.1-2.5,1.6s-2.1,0.7-3.5,0.7c-1.9,0-3.4-0.5-4.5-1.5c-1.1-1-1.7-2.6-1.7-4.7
		c0-1.1,0.2-2.1,0.6-2.8s0.9-1.4,1.7-1.9s1.6-0.9,2.6-1.1c1-0.2,2.1-0.3,3.3-0.3h3.3v-1c0-1.6-0.2-2.7-0.7-3.4c-0.5-0.7-1.4-1-2.8-1
		c-1.8,0-3.7,0.4-5.6,1.1l-0.9-2.4c0.7-0.3,1.7-0.6,2.8-0.9c1.1-0.3,2.5-0.5,4.1-0.5c1.5,0,2.7,0.2,3.5,0.6c0.9,0.4,1.5,1,2,1.7
		c0.4,0.7,0.7,1.5,0.9,2.5s0.2,2,0.2,3.1v8.2l1.6,2.4l-2.5,1.9L1088.6,163.4z M1087.8,155.6h-3c-1.7,0-3,0.3-3.7,0.8
		c-0.7,0.5-1.1,1.5-1.1,2.8c0,1.2,0.3,2.2,0.8,2.8c0.5,0.6,1.3,0.9,2.4,0.9c1.1,0,2.1-0.2,2.9-0.6c0.8-0.4,1.4-0.8,1.8-1.3V155.6z"
		/>
	<path class="st0" d="M1097.3,139.5h-2.4V137h5.9v27.9h-3.5V139.5z"/>
	<path class="st0" d="M1107.1,149.8l-1.5-3.2l2.8-1.5l1.6,2.5c1-0.9,2-1.6,3-1.9c1-0.3,1.9-0.5,2.7-0.5c1.4,0,2.4,0.2,3.1,0.6
		c0.7,0.4,1.3,1,1.8,1.8c1.1-1,2.2-1.6,3.3-2c1.1-0.3,2-0.5,2.7-0.5c1.3,0,2.3,0.2,3.1,0.6s1.4,0.9,1.8,1.6c0.4,0.7,0.7,1.5,0.8,2.4
		c0.1,0.9,0.2,1.8,0.2,2.8v12.3h-3.5v-12.4c0-1.5-0.2-2.6-0.7-3.3c-0.4-0.7-1.3-1-2.6-1c-0.7,0-1.5,0.1-2.3,0.4
		c-0.8,0.3-1.5,0.7-2.3,1.3c0.1,0.4,0.1,0.8,0.1,1.3c0,0.5,0.1,0.9,0.1,1.3v12.3h-3.5v-12.5c0-1.4-0.2-2.5-0.7-3.2
		c-0.4-0.7-1.3-1-2.6-1c-0.7,0-1.4,0.1-2.2,0.4c-0.7,0.3-1.4,0.7-2.1,1.3v15h-3.5V149.8z"/>
	<path class="st0" d="M1149.6,163.4c-0.7,0.6-1.6,1.1-2.5,1.6s-2.1,0.7-3.5,0.7c-1.9,0-3.4-0.5-4.5-1.5c-1.1-1-1.7-2.6-1.7-4.7
		c0-1.1,0.2-2.1,0.6-2.8s0.9-1.4,1.7-1.9s1.6-0.9,2.6-1.1c1-0.2,2.1-0.3,3.3-0.3h3.3v-1c0-1.6-0.2-2.7-0.7-3.4c-0.5-0.7-1.4-1-2.8-1
		c-1.8,0-3.7,0.4-5.6,1.1l-0.9-2.4c0.7-0.3,1.7-0.6,2.8-0.9c1.1-0.3,2.5-0.5,4.1-0.5c1.5,0,2.7,0.2,3.5,0.6c0.9,0.4,1.5,1,2,1.7
		c0.4,0.7,0.7,1.5,0.9,2.5s0.2,2,0.2,3.1v8.2l1.6,2.4l-2.5,1.9L1149.6,163.4z M1148.8,155.6h-3c-1.7,0-3,0.3-3.7,0.8
		c-0.7,0.5-1.1,1.5-1.1,2.8c0,1.2,0.3,2.2,0.8,2.8c0.5,0.6,1.3,0.9,2.4,0.9c1.1,0,2.1-0.2,2.9-0.6c0.8-0.4,1.4-0.8,1.8-1.3V155.6z"
		/>
	<path class="st0" d="M1176.5,157.9h-8.7c-1.2,0-2.1-0.2-2.7-0.7c-0.6-0.5-0.8-1.1-0.8-2c0-0.6,0.1-1.2,0.4-1.7
		c0.3-0.5,0.7-1.1,1.2-1.9l10.8-13.9h3.2v17.3h4v2.8h-4v7h-3.4V157.9z M1176.5,155.1v-12.4l-8.2,10.7c-0.1,0.1-0.2,0.3-0.3,0.4
		c-0.1,0.2-0.1,0.3-0.1,0.5c0,0.5,0.3,0.8,1,0.8H1176.5z"/>
	<path class="st0" d="M1191.4,155.4l-5.5-8.9l3.1-0.9l4.4,7.4c0.2,0.3,0.3,0.4,0.4,0.5c0.1,0.1,0.2,0.1,0.3,0.1
		c0.2,0,0.4-0.2,0.7-0.5l4.3-7.5l2.7,0.9l-5.1,8.7l6,9.5l-3.1,0.9l-4.8-7.7c-0.2-0.3-0.3-0.5-0.4-0.6s-0.2-0.1-0.4-0.1
		c-0.2,0-0.5,0.2-0.8,0.7l-4.9,7.7l-2.6-0.9L1191.4,155.4z"/>
	<path class="st0" d="M1216.9,157.9h-8.7c-1.2,0-2.1-0.2-2.7-0.7c-0.6-0.5-0.8-1.1-0.8-2c0-0.6,0.1-1.2,0.4-1.7
		c0.3-0.5,0.7-1.1,1.2-1.9l10.8-13.9h3.2v17.3h4v2.8h-4v7h-3.4V157.9z M1216.9,155.1v-12.4l-8.2,10.7c-0.1,0.1-0.2,0.3-0.3,0.4
		c-0.1,0.2-0.1,0.3-0.1,0.5c0,0.5,0.3,0.8,1,0.8H1216.9z"/>
	<path class="st0" d="M1230.3,165.6c-0.8,0-1.4-0.2-1.8-0.7s-0.6-1.1-0.6-1.9c0-0.8,0.2-1.4,0.6-1.9c0.4-0.5,1-0.7,1.8-0.7
		c0.8,0,1.4,0.2,1.8,0.7c0.4,0.5,0.6,1.1,0.6,1.9c0,0.8-0.2,1.4-0.6,1.9S1231.1,165.6,1230.3,165.6z"/>
</g>
</svg>
