<?xml version="1.0" encoding="utf-8"?>
<!-- Generator: Adobe Illustrator 19.2.1, SVG Export Plug-In . SVG Version: 6.00 Build 0)  -->
<!DOCTYPE svg PUBLIC "-//W3C//DTD SVG 1.1//EN" "http://www.w3.org/Graphics/SVG/1.1/DTD/svg11.dtd">
<svg version="1.1" id="Layer_1" xmlns="http://www.w3.org/2000/svg" xmlns:xlink="http://www.w3.org/1999/xlink" x="0px" y="0px"
	 viewBox="0 0 62.9 27.1" style="enable-background:new 0 0 62.9 27.1;" xml:space="preserve">
<style type="text/css">
	.st0{fill:#EB2030;}
</style>
<g>
	<path class="st0" d="M2,20.8c1.3,0.7,2.5,1.3,3.6,1.5c1.1,0.3,2.2,0.4,3.2,0.4c1.6,0,2.7-0.3,3.4-0.9c0.7-0.6,1-1.4,1-2.4
		c0-0.5-0.1-0.9-0.2-1.3c-0.1-0.4-0.4-0.7-0.7-1c-0.4-0.3-0.9-0.5-1.5-0.8c-0.6-0.2-1.5-0.5-2.5-0.7c-1.1-0.3-2.2-0.6-3.1-1
		S3.5,14,2.8,13.4c-0.7-0.6-1.2-1.3-1.6-2.2c-0.4-0.9-0.6-1.9-0.6-3.2c0-2.5,0.8-4.5,2.5-5.9S7.3,0,10.4,0c1.6,0,3.1,0.2,4.4,0.5
		c1.3,0.3,2.6,0.9,3.9,1.6l-2.1,3.8c-0.2-0.1-0.6-0.3-1-0.5c-0.4-0.2-0.9-0.4-1.4-0.6c-0.5-0.2-1.1-0.3-1.6-0.4
		c-0.6-0.1-1.2-0.2-1.7-0.2C9.2,4.2,8.1,4.5,7.5,5c-0.6,0.5-1,1.2-1,2.1c0,0.6,0.1,1,0.3,1.4c0.2,0.4,0.5,0.7,0.9,1
		c0.4,0.3,1,0.6,1.7,0.8c0.7,0.2,1.6,0.5,2.6,0.8c0.8,0.2,1.6,0.5,2.5,0.9c0.8,0.3,1.6,0.8,2.3,1.4c0.7,0.6,1.2,1.3,1.7,2.1
		c0.4,0.9,0.7,1.9,0.7,3.2c0,2.8-0.9,4.9-2.6,6.4s-4.2,2.2-7.5,2.2c-2,0-3.7-0.2-5.2-0.6c-1.5-0.4-2.8-1-3.9-1.8L2,20.8z"/>
	<path class="st0" d="M28.9,26.5h-5.8v-26H32c1.3,0,2.5,0.1,3.6,0.4c1.1,0.3,2.1,0.7,2.9,1.2c0.8,0.6,1.5,1.3,1.9,2.3
		s0.7,2.1,0.7,3.5c0,1.8-0.4,3.3-1.3,4.4c-0.9,1.1-2,2-3.3,2.6c0.4,0.3,0.8,0.8,1.2,1.4l5.6,9.9L37.2,27l-4.9-8.9
		c-0.3-0.6-0.7-1-1-1.3c-0.4-0.3-1-0.5-1.8-0.5h-0.5V26.5z M31.1,12c1.3,0,2.3-0.3,2.9-1c0.6-0.6,0.8-1.5,0.8-2.7
		c0-1.2-0.3-2.2-0.9-2.8C33.3,5,32.3,4.7,31,4.7h-2V12H31.1z"/>
	<path class="st0" d="M57.5,18.6c0-2.7-1.3-4-4-4c-0.9,0-1.8,0.1-2.6,0.4s-1.5,0.5-2,0.8l-2.2-1.4L48,0.9h14v4.3h-9.5L52,10.9
		c1.2-0.3,2.4-0.5,3.4-0.5c1,0,2,0.2,2.9,0.5c0.9,0.3,1.7,0.8,2.4,1.4c0.7,0.6,1.2,1.4,1.7,2.4c0.4,1,0.6,2.1,0.6,3.4
		c0,1.3-0.2,2.6-0.6,3.7s-1,2-1.8,2.8c-0.8,0.8-1.8,1.4-3,1.8S54.9,27,53.3,27c-1.9,0-3.6-0.2-4.9-0.7c-1.3-0.5-2.3-1-3.1-1.5
		l1.9-3.6c1.9,1.1,3.9,1.6,5.9,1.6c0.8,0,1.5-0.1,2.1-0.4c0.6-0.2,1-0.6,1.3-1c0.3-0.4,0.6-0.9,0.7-1.4
		C57.5,19.7,57.5,19.1,57.5,18.6z"/>
</g>
</svg>
