<?xml version="1.0" encoding="utf-8"?>
<!-- Generator: Adobe Illustrator 19.2.1, SVG Export Plug-In . SVG Version: 6.00 Build 0)  -->
<!DOCTYPE svg PUBLIC "-//W3C//DTD SVG 1.1//EN" "http://www.w3.org/Graphics/SVG/1.1/DTD/svg11.dtd">
<svg version="1.1" id="Layer_1" xmlns="http://www.w3.org/2000/svg" xmlns:xlink="http://www.w3.org/1999/xlink" x="0px" y="0px"
	 viewBox="0 0 257.4 27.1" style="enable-background:new 0 0 257.4 27.1;" xml:space="preserve">
<style type="text/css">
	.st0{fill:#616161;}
</style>
<g>
	<path class="st0" d="M0,0.5h7.9c1.2,0,2.4,0.1,3.5,0.4s2,0.7,2.8,1.2c0.8,0.6,1.4,1.4,1.9,2.3c0.5,1,0.7,2.2,0.7,3.7
		c0,1-0.2,2-0.6,2.9c-0.4,0.9-0.9,1.8-1.7,2.5c-0.7,0.7-1.7,1.3-2.8,1.8c-1.1,0.5-2.4,0.7-3.9,0.7H3.5v10.4H0V0.5z M7.3,13.4
		c2,0,3.5-0.4,4.4-1.2c0.9-0.8,1.4-2.1,1.4-3.9c0-1-0.1-1.9-0.4-2.6c-0.3-0.7-0.7-1.2-1.2-1.6c-0.5-0.4-1.1-0.6-1.8-0.8
		C9,3.2,8.2,3.1,7.3,3.1H3.5v10.3H7.3z"/>
	<path class="st0" d="M21.1,2.4h-2.2V0h5.6v26.5h-3.3V2.4z"/>
	<path class="st0" d="M40.4,25c-0.7,0.6-1.5,1-2.3,1.5c-0.9,0.4-2,0.6-3.3,0.6c-1.8,0-3.2-0.5-4.3-1.4c-1.1-0.9-1.6-2.4-1.6-4.4
		c0-1.1,0.2-2,0.6-2.7c0.4-0.7,0.9-1.3,1.6-1.8s1.5-0.8,2.4-1c0.9-0.2,2-0.3,3.1-0.3h3.1v-0.9c0-1.5-0.2-2.6-0.7-3.3
		c-0.5-0.7-1.4-1-2.7-1c-1.7,0-3.5,0.4-5.3,1.1l-0.8-2.2c0.7-0.3,1.6-0.6,2.7-0.9s2.4-0.5,3.9-0.5c1.4,0,2.5,0.2,3.3,0.6
		c0.8,0.4,1.4,0.9,1.9,1.6c0.4,0.7,0.7,1.5,0.8,2.4c0.1,0.9,0.2,1.9,0.2,2.9V23l1.5,2.3l-2.3,1.8L40.4,25z M39.6,17.7h-2.9
		c-1.7,0-2.8,0.3-3.5,0.8c-0.7,0.5-1,1.4-1,2.7c0,1.2,0.3,2,0.8,2.6c0.5,0.6,1.3,0.8,2.2,0.8c1.1,0,2-0.2,2.7-0.6
		c0.8-0.4,1.3-0.8,1.7-1.2V17.7z"/>
	<path class="st0" d="M49.7,10.9h-3.3V8.5h3.4V3.1h3.2v5.4h5.3v2.4h-5.3v10.4c0,0.7,0.1,1.3,0.2,1.7s0.3,0.7,0.5,1
		c0.2,0.2,0.5,0.4,0.8,0.5c0.3,0.1,0.7,0.1,1,0.1c0.4,0,0.8,0,1.3-0.1s1-0.2,1.4-0.4l0.7,2.2c-0.4,0.2-1,0.4-1.7,0.6
		c-0.7,0.2-1.5,0.3-2.3,0.3c-0.8,0-1.6-0.1-2.2-0.3s-1.2-0.5-1.7-0.8c-0.5-0.4-0.8-0.9-1.1-1.6c-0.3-0.7-0.4-1.5-0.4-2.6V10.9z"/>
	<path class="st0" d="M72.7,25c-0.7,0.6-1.5,1-2.3,1.5c-0.9,0.4-2,0.6-3.3,0.6c-1.8,0-3.2-0.5-4.3-1.4c-1.1-0.9-1.6-2.4-1.6-4.4
		c0-1.1,0.2-2,0.6-2.7c0.4-0.7,0.9-1.3,1.6-1.8s1.5-0.8,2.4-1c0.9-0.2,2-0.3,3.1-0.3h3.1v-0.9c0-1.5-0.2-2.6-0.7-3.3
		c-0.5-0.7-1.4-1-2.7-1c-1.7,0-3.5,0.4-5.3,1.1l-0.8-2.2c0.7-0.3,1.6-0.6,2.7-0.9s2.4-0.5,3.9-0.5c1.4,0,2.5,0.2,3.3,0.6
		c0.8,0.4,1.4,0.9,1.9,1.6c0.4,0.7,0.7,1.5,0.8,2.4c0.1,0.9,0.2,1.9,0.2,2.9V23l1.5,2.3l-2.3,1.8L72.7,25z M71.9,17.7H69
		c-1.7,0-2.8,0.3-3.5,0.8c-0.7,0.5-1,1.4-1,2.7c0,1.2,0.3,2,0.8,2.6c0.5,0.6,1.3,0.8,2.2,0.8c1.1,0,2-0.2,2.7-0.6
		c0.8-0.4,1.3-0.8,1.7-1.2V17.7z"/>
	<path class="st0" d="M88.9,0.5h3.6l6.1,13.4c0.2,0.4,0.3,0.7,0.5,0.8c0.1,0.1,0.3,0.2,0.5,0.2c0.2,0,0.3-0.1,0.5-0.2
		c0.1-0.2,0.3-0.4,0.5-0.8l6.5-13.4h3.4l1.3,26h-3.5l-0.9-19.7l-4.2,8.6c-0.2,0.4-0.4,0.8-0.6,1.2c-0.2,0.3-0.4,0.6-0.7,0.9
		c-0.3,0.3-0.6,0.4-0.9,0.6c-0.4,0.1-0.8,0.2-1.4,0.2c-0.6,0-1.1-0.1-1.4-0.2c-0.4-0.1-0.7-0.3-1-0.6s-0.5-0.5-0.7-0.9
		c-0.2-0.4-0.4-0.8-0.6-1.3l-4-8.7l-0.8,19.8h-3.4L88.9,0.5z"/>
	<path class="st0" d="M130.7,25.7c-0.6,0.3-1.4,0.7-2.5,1s-2.2,0.5-3.4,0.5c-1.7,0-3-0.2-4.1-0.7c-1.1-0.5-2-1.1-2.6-2
		s-1.1-1.9-1.4-3c-0.3-1.2-0.4-2.5-0.4-3.9c0-1.3,0.2-2.6,0.5-3.7c0.3-1.2,0.8-2.2,1.4-3.1c0.6-0.9,1.5-1.6,2.5-2.1
		c1-0.5,2.2-0.8,3.6-0.8c1.3,0,2.5,0.3,3.4,0.8c0.9,0.6,1.7,1.3,2.2,2.1s1,1.9,1.2,3c0.3,1.1,0.4,2.2,0.4,3.3l-1.2,1.3h-10.7
		c0.1,2.1,0.6,3.7,1.4,4.7c0.8,1,2.1,1.5,3.9,1.5c0.9,0,1.8-0.1,2.6-0.3c0.8-0.2,1.6-0.5,2.3-0.8L130.7,25.7z M128,16
		c0-1.9-0.3-3.4-1-4.4c-0.7-1-1.7-1.5-3.1-1.5c-1.5,0-2.5,0.5-3.2,1.5s-1,2.5-1.1,4.3H128z"/>
	<path class="st0" d="M137.1,10.9h-3.3V8.5h3.4V3.1h3.2v5.4h5.3v2.4h-5.3v10.4c0,0.7,0.1,1.3,0.2,1.7s0.3,0.7,0.5,1
		c0.2,0.2,0.5,0.4,0.8,0.5c0.3,0.1,0.7,0.1,1,0.1c0.4,0,0.8,0,1.3-0.1s1-0.2,1.4-0.4l0.7,2.2c-0.4,0.2-1,0.4-1.7,0.6
		c-0.7,0.2-1.5,0.3-2.3,0.3c-0.8,0-1.6-0.1-2.2-0.3s-1.2-0.5-1.7-0.8c-0.5-0.4-0.8-0.9-1.1-1.6c-0.3-0.7-0.4-1.5-0.4-2.6V10.9z"/>
	<path class="st0" d="M160.1,25c-0.7,0.6-1.5,1-2.3,1.5c-0.9,0.4-2,0.6-3.3,0.6c-1.8,0-3.2-0.5-4.3-1.4c-1.1-0.9-1.6-2.4-1.6-4.4
		c0-1.1,0.2-2,0.6-2.7c0.4-0.7,0.9-1.3,1.6-1.8s1.5-0.8,2.4-1c0.9-0.2,2-0.3,3.1-0.3h3.1v-0.9c0-1.5-0.2-2.6-0.7-3.3
		c-0.5-0.7-1.4-1-2.7-1c-1.7,0-3.5,0.4-5.3,1.1l-0.8-2.2c0.7-0.3,1.6-0.6,2.7-0.9s2.4-0.5,3.9-0.5c1.4,0,2.5,0.2,3.3,0.6
		c0.8,0.4,1.4,0.9,1.9,1.6c0.4,0.7,0.7,1.5,0.8,2.4c0.1,0.9,0.2,1.9,0.2,2.9V23l1.5,2.3l-2.3,1.8L160.1,25z M159.3,17.7h-2.9
		c-1.7,0-2.8,0.3-3.5,0.8c-0.7,0.5-1,1.4-1,2.7c0,1.2,0.3,2,0.8,2.6c0.5,0.6,1.3,0.8,2.2,0.8c1.1,0,2-0.2,2.7-0.6
		c0.8-0.4,1.3-0.8,1.7-1.2V17.7z"/>
	<path class="st0" d="M168.4,2.4h-2.2V0h5.6v26.5h-3.3V2.4z"/>
	<path class="st0" d="M177.7,10.8h-2.3V8.5h5.7v18h-3.3V10.8z M179,5.1c-0.7,0-1.2-0.2-1.6-0.7c-0.4-0.5-0.6-1-0.6-1.7
		s0.2-1.3,0.6-1.7c0.4-0.5,0.9-0.7,1.6-0.7c0.7,0,1.3,0.2,1.7,0.7c0.4,0.5,0.6,1,0.6,1.7S181,4,180.6,4.4
		C180.2,4.9,179.7,5.1,179,5.1z"/>
	<path class="st0" d="M194.7,10.9h-9.1V8.5h13.2v2.3l-10.1,12.3c-0.1,0.1-0.2,0.3-0.2,0.3s0,0.1,0,0.2c0,0.3,0.2,0.4,0.6,0.4h9.8
		v2.4h-11c-1,0-1.7-0.2-2.2-0.7c-0.5-0.5-0.7-1-0.7-1.7c0-0.5,0.1-0.9,0.2-1.3c0.1-0.4,0.4-0.8,0.8-1.3L194.7,10.9z"/>
	<path class="st0" d="M213.1,25c-0.7,0.6-1.5,1-2.3,1.5c-0.9,0.4-2,0.6-3.3,0.6c-1.8,0-3.2-0.5-4.3-1.4c-1.1-0.9-1.6-2.4-1.6-4.4
		c0-1.1,0.2-2,0.6-2.7c0.4-0.7,0.9-1.3,1.6-1.8s1.5-0.8,2.4-1c0.9-0.2,2-0.3,3.1-0.3h3.1v-0.9c0-1.5-0.2-2.6-0.7-3.3
		c-0.5-0.7-1.4-1-2.7-1c-1.7,0-3.5,0.4-5.3,1.1l-0.8-2.2c0.7-0.3,1.6-0.6,2.7-0.9s2.4-0.5,3.9-0.5c1.4,0,2.5,0.2,3.3,0.6
		c0.8,0.4,1.4,0.9,1.9,1.6c0.4,0.7,0.7,1.5,0.8,2.4c0.1,0.9,0.2,1.9,0.2,2.9V23l1.5,2.3l-2.3,1.8L213.1,25z M212.4,17.7h-2.9
		c-1.7,0-2.8,0.3-3.5,0.8c-0.7,0.5-1,1.4-1,2.7c0,1.2,0.3,2,0.8,2.6c0.5,0.6,1.3,0.8,2.2,0.8c1.1,0,2-0.2,2.7-0.6
		c0.8-0.4,1.3-0.8,1.7-1.2V17.7z"/>
	<path class="st0" d="M233.5,25.1c-0.7,0.6-1.5,1-2.4,1.4c-0.9,0.4-1.9,0.6-3.2,0.6c-2.5,0-4.3-0.8-5.6-2.4c-1.2-1.6-1.9-4-1.9-7.3
		c0-1.4,0.2-2.8,0.6-3.9c0.4-1.2,0.9-2.2,1.7-3.1c0.7-0.9,1.6-1.5,2.8-2c1.1-0.5,2.4-0.7,3.8-0.7c0.6,0,1.2,0,1.8,0.1
		c0.6,0.1,1.1,0.2,1.5,0.3V0h3.3v23l1.5,2.3l-2.3,1.8L233.5,25.1z M232.6,10.7c-0.3-0.1-0.8-0.2-1.4-0.3c-0.6-0.1-1.3-0.2-2-0.2
		c-1.8,0-3.1,0.6-4,1.9c-0.9,1.2-1.3,3.1-1.3,5.4c0,2.3,0.3,4,1,5.3c0.7,1.3,1.8,1.9,3.5,1.9c1,0,1.8-0.2,2.4-0.5s1.2-0.7,1.7-1.2
		V10.7z"/>
	<path class="st0" d="M249.1,27.1c-1.5,0-2.8-0.2-3.9-0.7c-1-0.5-1.9-1.2-2.5-2s-1.1-1.9-1.3-3.1c-0.3-1.2-0.4-2.5-0.4-3.9
		c0-1.4,0.2-2.7,0.5-3.9c0.3-1.2,0.8-2.2,1.5-3.1c0.7-0.9,1.5-1.5,2.6-2c1-0.5,2.2-0.7,3.6-0.7c1.4,0,2.7,0.2,3.7,0.7
		c1,0.5,1.9,1.1,2.5,2s1.1,1.9,1.5,3.1c0.3,1.2,0.5,2.5,0.5,3.9c0,1.4-0.2,2.7-0.5,3.9c-0.3,1.2-0.8,2.2-1.5,3.1
		c-0.7,0.9-1.5,1.5-2.6,2C251.9,26.9,250.6,27.1,249.1,27.1z M249.2,24.8c1.7,0,2.9-0.6,3.7-1.9s1.1-3.1,1.1-5.4
		c0-2.3-0.4-4-1.1-5.3c-0.7-1.2-1.9-1.9-3.7-1.9c-1.8,0-3,0.6-3.7,1.8c-0.7,1.2-1.1,3-1.1,5.4c0,1.1,0.1,2.1,0.3,3s0.4,1.7,0.8,2.3
		s0.9,1.1,1.5,1.4C247.6,24.6,248.4,24.8,249.2,24.8z"/>
</g>
</svg>
